<svg height="511pt" viewBox="0 -22 511.997 511" width="511pt" xmlns="http://www.w3.org/2000/svg"><g fill-rule="evenodd"><path d="m10.007812 104.539062v227.292969h74.460938v-261.558593h-40.191406c-18.851563 0-34.269532 15.417968-34.269532 34.265624zm0 0" fill="#bdd9ff"/><path d="m84.46875 70.273438v261.558593h305.085938v-261.558593zm0 0" fill="#f9f9f9"/><path d="m123.132812 109.921875h104.566407v92.53125h-104.566407zm0 0" fill="#ffbd5a"/><path d="m84.46875 70.273438h305.085938v-44.523438c0-8.386719-6.859376-15.246094-15.25-15.246094h-274.558594c-8.417969 0-15.277344 6.859375-15.277344 15.246094zm0 0" fill="#f46370"/><path d="m389.554688 70.273438v261.558593h68.738281v-227.292969c0-18.847656-15.421875-34.265624-34.269531-34.265624zm0 0" fill="#bdd9ff"/><path d="m389.554688 331.832031h-379.546876v21.734375c0 18.847656 15.417969 34.265625 34.269532 34.265625h379.746094c18.847656 0 34.269531-15.417969 34.269531-34.265625v-21.734375zm0 0" fill="#d7d6d8"/><path d="m274.414062 387.832031h-80.53125l-10.628906 35.933594h101.789063zm0 0" fill="#adaaaf"/><path d="m285.042969 423.765625h-134.839844c-9.269531 0-16.867187 7.597656-16.867187 16.863281 0 9.296875 7.597656 16.863282 16.867187 16.863282h167.863281c9.296875 0 16.894532-7.566407 16.894532-16.863282 0-9.265625-7.597657-16.863281-16.894532-16.863281zm0 0" fill="#d7d6d8"/><path d="m312.058594 230.230469-17.660156 52.484375 52.496093-17.625zm0 0" fill="#ffd89e"/><path d="m312.058594 230.230469 34.835937 34.859375 128.234375-128.242188-34.835937-34.832031zm0 0" fill="#adaaaf"/><path d="m440.292969 102.015625 34.835937 34.832031 24.039063-24.035156c3.769531-3.769531 3.769531-9.917969 0-13.6875l-21.148438-21.140625c-3.769531-3.769531-9.917969-3.769531-13.691406 0zm0 0" fill="#f46370"/></g><path d="m506.242188 92.050781-21.148438-21.144531c-7.675781-7.671875-20.164062-7.671875-27.835938 0l-2.164062 2.164062c-8.183594-8.078124-19.28125-12.800781-31.070312-12.800781h-24.464844v-34.519531c0-13.925781-11.328125-25.25-25.253906-25.25h-274.558594c-13.9375 0-25.28125 11.328125-25.28125 25.25v34.519531h-30.191406c-24.410157 0-44.273438 19.859375-44.273438 44.269531v249.03125c0 24.40625 19.863281 44.265626 44.273438 44.265626h136.214843l-4.710937 15.925781h-25.574219c-14.816406 0-26.871094 12.054687-26.871094 26.871093 0 14.8125 12.054688 26.867188 26.871094 26.867188h167.859375c14.835938 0 26.902344-12.054688 26.902344-26.867188 0-14.816406-12.066406-26.871093-26.902344-26.871093h-25.546875l-4.710937-15.925781h136.214843c24.414063 0 44.277344-19.859376 44.277344-44.265626v-195.746093l13.902344-13.902344 24.039062-24.03125c3.714844-3.714844 5.757813-8.65625 5.757813-13.921875.003906-5.261719-2.042969-10.207031-5.753906-13.917969zm-106.683594-11.769531h24.464844c6.40625 0 12.441406 2.554688 16.925781 6.929688l-7.730469 7.730468-33.660156 33.652344zm-305.082032-54.53125c0-2.890625 2.363282-5.242188 5.269532-5.242188h274.558594c2.84375 0 5.242187 2.402344 5.242187 5.242188v34.519531h-285.070313zm-74.464843 78.789062c0-13.375 10.882812-24.257812 24.261719-24.257812h30.191406v241.542969h-54.453125zm298.054687 329.234376c3.734375 0 6.886719 3.140624 6.886719 6.855468 0 3.78125-3.089844 6.859375-6.886719 6.859375h-167.863281c-3.78125 0-6.859375-3.078125-6.859375-6.859375 0-3.714844 3.140625-6.855468 6.859375-6.855468zm-121.417968-20.011719 4.710937-15.925781h65.582031l4.710938 15.925781zm251.636718-60.191407c0 13.375-10.882812 24.257813-24.261718 24.257813h-379.75c-13.378907 0-24.261719-10.882813-24.261719-24.257813v-11.734374h179.824219c5.527343 0 10.007812-4.476563 10.007812-10.003907 0-5.527343-4.480469-10.003906-10.007812-10.003906h-105.359376v-241.546875h285.074219v68.320312l-42.835937 42.828126h-74.289063c-5.527343 0-10.007812 4.480468-10.007812 10.003906 0 5.527344 4.480469 10.007812 10.007812 10.007812h54.273438l-11.714844 11.710938c-1.515625 1.285156-1.640625 1.847656-2.410156 3.886718l-1.691407 5.03125h-175.738281c-5.523437 0-10.003906 4.476563-10.003906 10.003907 0 5.527343 4.476563 10.003906 10.003906 10.003906h169.003907l-6.941407 20.632813h-164.074219c-5.527343 0-10.003906 4.476562-10.003906 10.003906s4.476563 10.003906 10.003906 10.003906h171.257813.007813c.308593 0 .617187-.019531.925781-.046875.105469-.007813 2.234375-.464844 2.261719-.472656l52.5-17.65625c2.660156-1.171875 3.753906-2.28125 3.882812-2.410157l25.582031-25.574218v75.265625h-102.585937c-5.527344 0-10.003906 4.476562-10.003906 10.003906s4.476562 10.003906 10.003906 10.003906h171.320312zm-125.902344-98.867187 6.023438 6.019531-18.101562 6.085938 6.089843-18.09375zm125.902344 67.121094h-48.726562v-95.273438l48.726562-48.71875zm-65.800781-106.496094c-.003906.003906-.003906.003906-.007813.007813l-35.582031 35.574218-10.359375-10.355468-10.324218-10.328126 21.71875-21.714843c.003906-.003907.003906-.003907.003906-.003907l92.359375-92.34375 20.6875 20.683594zm92.644531-92.628906-20.683594-20.683594 6.863282-6.863281c.007812-.007813.015625-.015625.027344-.027344l9.839843-9.835938 20.6875 20.679688zm0 0"/><path d="m123.132812 212.460938h104.566407c5.527343 0 10.007812-4.480469 10.007812-10.003907v-92.535156c0-5.523437-4.480469-10.003906-10.007812-10.003906h-104.566407c-5.527343 0-10.003906 4.480469-10.003906 10.003906v92.535156c0 5.523438 4.476563 10.003907 10.003906 10.003907zm10.007813-92.535157h84.554687v72.523438h-84.554687zm0 0"/><path d="m263.925781 130.160156h83.28125c5.523438 0 10.003907-4.480468 10.003907-10.003906 0-5.527344-4.480469-10.007812-10.003907-10.007812h-83.28125c-5.523437 0-10.003906 4.480468-10.003906 10.007812 0 5.523438 4.480469 10.003906 10.003906 10.003906zm0 0"/><path d="m263.160156 170.800781h83.28125c5.523438 0 10.003906-4.480469 10.003906-10.007812 0-5.523438-4.480468-10.003907-10.003906-10.003907h-83.28125c-5.523437 0-10.003906 4.480469-10.003906 10.003907 0 5.527343 4.480469 10.007812 10.003906 10.007812zm0 0"/><path d="m237.222656 321.824219h-.195312c-5.527344 0-10.007813 4.480469-10.007813 10.007812 0 5.523438 4.480469 10.003907 10.007813 10.003907h.195312c5.527344 0 10.007813-4.480469 10.007813-10.003907 0-5.527343-4.480469-10.007812-10.007813-10.007812zm0 0"/></svg>