<?xml version="1.0"?>
<svg xmlns="http://www.w3.org/2000/svg" xmlns:xlink="http://www.w3.org/1999/xlink" version="1.1" id="Layer_1" x="0px" y="0px" viewBox="0 0 512 512" style="enable-background:new 0 0 512 512;" xml:space="preserve" width="512px" height="512px" class=""><g><g id="XMLID_157_">
	<g id="XMLID_1310_">
		<path id="XMLID_905_" style="fill:#20C5BA" d="M130.891,295.963l68.38,118.437c22.761,39.424,70.253,57.21,113.312,42.437    l31.488-10.803c29.764-10.212,42.811-45.049,27.078-72.3l-33.418-57.882c-12.397-21.472-38.656-30.617-61.709-21.492    l-35.426,14.023c-7.979,3.159-17.068-0.007-21.359-7.439l-24.243-41.99l-24.243-41.99c-4.291-7.432-2.488-16.886,4.237-22.217    l29.857-23.668c19.43-15.402,24.639-42.716,12.242-64.188l-33.418-57.882c-15.734-27.251-52.427-33.371-76.152-12.7l-25.1,21.868    C48.092,88.08,39.75,138.102,62.511,177.526L130.891,295.963z" data-original="#FF7480" class="" data-old_color="#FF7480"/>
		<path id="XMLID_1187_" style="fill:#FFAE12" d="M371.148,373.734l-33.418-57.882c-12.397-21.472-38.656-30.617-61.709-21.492    l-17.565,6.953l83.895,145.311l1.72-0.59C373.835,435.822,386.882,400.986,371.148,373.734z" data-original="#FFFFFF" class="active-path" data-old_color="#FFFFFF"/>
		<path id="XMLID_1198_" style="fill:#FFAE12" d="M189.579,183.179l15.266-12.101c19.429-15.402,24.639-42.716,12.242-64.188    l-33.418-57.882c-15.733-27.251-52.426-33.371-76.152-12.7l-1.818,1.584L189.579,183.179z" data-original="#FFFFFF" class="active-path" data-old_color="#FFFFFF"/>
	</g>
	<g id="XMLID_182_">
		<path id="XMLID_222_" d="M346.39,310.852c-7.194-12.461-18.641-21.931-32.229-26.664c-13.589-4.732-28.442-4.422-41.82,0.874    l-35.427,14.023c-3.342,1.322-7.221-0.028-9.018-3.141l-24.243-41.99l-24.243-41.991c-1.798-3.114-1.029-7.146,1.789-9.38    l29.857-23.668c11.276-8.938,18.971-21.646,21.667-35.78c2.695-14.135,0.218-28.782-6.977-41.244l-33.419-57.882    c-8.999-15.586-24.341-26.224-42.094-29.185c-17.752-2.958-35.717,2.122-49.288,13.945l-25.1,21.868    C38.011,83.601,28.76,139.068,53.851,182.525l48.364,83.77c1.853,3.208,5.213,5.002,8.67,5.001c1.696,0,3.416-0.432,4.99-1.341    c4.783-2.761,6.422-8.877,3.66-13.66l-48.364-83.77c-20.319-35.194-12.828-80.114,17.813-106.81l14.118-12.3l73.381,127.383    l-7.708,6.11c-10.53,8.347-13.404,23.417-6.686,35.054l24.243,41.991l24.243,41.99c6.718,11.636,21.201,16.683,33.699,11.737    l35.427-14.023c18.302-7.246,39.525,0.146,49.368,17.194l33.418,57.882c5.999,10.392,7.026,22.796,2.818,34.033    c-3.548,9.473-10.454,17.114-19.332,21.617l-39.493-68.404c-2.761-4.783-8.876-6.421-13.66-3.66    c-4.783,2.761-6.422,8.877-3.66,13.66l37.743,65.373l-17.566,6.027c-38.444,13.189-81.087-2.784-101.406-37.978l-48.364-83.769    c-2.761-4.782-8.876-6.421-13.66-3.66c-4.783,2.761-6.422,8.877-3.66,13.66l48.364,83.769    c19.181,33.222,54.466,52.573,91.232,52.57c11.328-0.001,22.805-1.839,33.984-5.674l14.957-5.132l17.161,20.573    c2.301,2.758,1.369,5.576,0.862,6.659S346.733,492,343.141,492H227.26c-14.732,0-28.583-5.737-39-16.155    c-14.147-14.146-37.164-14.144-51.31,0c-6.349,6.35-16.678,6.349-23.024,0l-2.833-2.833c-6.853-6.853-15.964-10.626-25.654-10.626    c-9.691,0-18.803,3.774-25.655,10.626l-3.583,3.583c-6.348,6.35-16.677,6.348-23.024,0l-16.083-16.083    c-3.906-3.904-10.236-3.904-14.143,0c-3.905,3.905-3.905,10.237,0,14.143l16.083,16.083c14.146,14.145,37.162,14.146,51.31,0    l3.583-3.583c3.075-3.075,7.163-4.769,11.513-4.769c4.349,0,8.437,1.694,11.512,4.769l2.833,2.833    c14.146,14.145,37.162,14.146,51.31,0c6.346-6.348,16.675-6.349,23.024,0C188.312,504.183,207.185,512,227.26,512h115.881    c10.301,0,19.412-5.795,23.779-15.125s2.981-20.039-3.617-27.949l-12.363-14.821c15.29-6.364,27.239-18.687,33.095-34.324    c6.313-16.854,4.771-35.461-4.228-51.047L346.39,310.852z M118.686,40.401c8.313-5.376,18.332-7.506,28.258-5.849    c11.835,1.974,22.064,9.066,28.063,19.457l33.419,57.882c9.842,17.047,5.631,39.124-9.794,51.351l-6.304,4.997L118.686,40.401z" data-original="#000000" class="" style="fill:#000000" data-old_color="#000000"/>
		<path id="XMLID_223_" d="M285.612,343.18c1.86-1.87,2.93-4.44,2.93-7.08c0-2.63-1.069-5.21-2.93-7.07s-4.44-2.93-7.07-2.93    s-5.21,1.07-7.069,2.93c-1.86,1.86-2.931,4.44-2.931,7.07c0,2.64,1.07,5.21,2.931,7.08c1.859,1.86,4.439,2.92,7.069,2.92    S283.752,345.04,285.612,343.18z" data-original="#000000" class="" style="fill:#000000" data-old_color="#000000"/>
		<path id="XMLID_224_" d="M452.277,284.69c-3.905-3.905-10.235-3.905-14.143,0c-3.905,3.905-3.905,10.237,0,14.142    c18.272,18.273,18.272,48.006,0,66.279c-3.905,3.905-3.905,10.237,0,14.142c1.953,1.953,4.512,2.929,7.071,2.929    s5.118-0.977,7.071-2.929C478.347,353.182,478.347,310.761,452.277,284.69z" data-original="#000000" class="" style="fill:#000000" data-old_color="#000000"/>
		<path id="XMLID_225_" d="M480.679,256.288c-3.904-3.905-10.234-3.905-14.143,0c-3.905,3.905-3.905,10.237,0,14.142    c33.935,33.935,33.935,89.15,0,123.084c-3.905,3.905-3.905,10.237,0,14.142c1.953,1.953,4.512,2.929,7.071,2.929    s5.118-0.977,7.071-2.929C522.411,365.924,522.411,298.02,480.679,256.288z" data-original="#000000" class="" style="fill:#000000" data-old_color="#000000"/>
		<path id="XMLID_226_" d="M406.272,321.97c-2.641,0-5.21,1.07-7.07,2.93s-2.93,4.44-2.93,7.07s1.069,5.21,2.93,7.07    c1.86,1.86,4.44,2.93,7.07,2.93s5.21-1.07,7.069-2.93c1.86-1.86,2.931-4.44,2.931-7.07s-1.07-5.21-2.931-7.07    C411.482,323.04,408.902,321.97,406.272,321.97z" data-original="#000000" class="" style="fill:#000000" data-old_color="#000000"/>
		<path id="XMLID_240_" d="M320.707,125.895c1.953,1.953,4.512,2.929,7.071,2.929s5.118-0.977,7.071-2.929    c3.905-3.905,3.905-10.237,0-14.142c-8.853-8.852-13.728-20.621-13.728-33.139s4.875-24.288,13.728-33.139    c3.905-3.905,3.905-10.237,0-14.142s-10.235-3.905-14.143,0c-12.629,12.629-19.585,29.421-19.585,47.282    S308.078,113.265,320.707,125.895z" data-original="#000000" class="" style="fill:#000000" data-old_color="#000000"/>
		<path id="XMLID_241_" d="M299.376,157.226c2.559,0,5.118-0.977,7.071-2.929c3.905-3.905,3.905-10.237,0-14.142    c-33.935-33.935-33.935-89.15,0-123.084c3.905-3.905,3.905-10.237,0-14.142c-3.906-3.905-10.236-3.905-14.143,0    c-41.731,41.732-41.731,109.636,0,151.368C294.258,156.25,296.816,157.226,299.376,157.226z" data-original="#000000" class="" style="fill:#000000" data-old_color="#000000"/>
		<path id="XMLID_431_" d="M366.712,88.61c2.63,0,5.21-1.07,7.07-2.93c1.86-1.86,2.93-4.43,2.93-7.07c0-2.63-1.069-5.21-2.93-7.07    c-1.86-1.86-4.44-2.93-7.07-2.93s-5.21,1.07-7.069,2.93c-1.86,1.86-2.931,4.44-2.931,7.07c0,2.64,1.07,5.21,2.931,7.07    C361.502,87.54,364.082,88.61,366.712,88.61z" data-original="#000000" class="" style="fill:#000000" data-old_color="#000000"/>
		<path id="XMLID_432_" d="M137.962,303.03c1.86-1.86,2.931-4.44,2.931-7.07c0-2.63-1.07-5.21-2.931-7.07    c-1.859-1.86-4.439-2.93-7.069-2.93s-5.21,1.07-7.07,2.93c-1.86,1.86-2.93,4.44-2.93,7.07c0,2.63,1.069,5.21,2.93,7.07    c1.86,1.87,4.44,2.93,7.07,2.93S136.102,304.9,137.962,303.03z" data-original="#000000" class="" style="fill:#000000" data-old_color="#000000"/>
	</g>
</g></g> </svg>
