<?xml version="1.0" encoding="utf-8"?>
<!-- Generator: Adobe Illustrator 16.0.0, SVG Export Plug-In . SVG Version: 6.00 Build 0)  -->
<!DOCTYPE svg PUBLIC "-//W3C//DTD SVG 1.0//EN" "http://www.w3.org/TR/2001/REC-SVG-20010904/DTD/svg10.dtd" [
	<!ENTITY ns_flows "http://ns.adobe.com/Flows/1.0/">
	<!ENTITY ns_extend "http://ns.adobe.com/Extensibility/1.0/">
	<!ENTITY ns_ai "http://ns.adobe.com/AdobeIllustrator/10.0/">
	<!ENTITY ns_graphs "http://ns.adobe.com/Graphs/1.0/">
]>
<svg version="1.0" id="_118" xmlns:x="&ns_extend;" xmlns:i="&ns_ai;" xmlns:graph="&ns_graphs;"
	 xmlns="http://www.w3.org/2000/svg" xmlns:xlink="http://www.w3.org/1999/xlink" xmlns:a="http://ns.adobe.com/AdobeSVGViewerExtensions/3.0/"
	 x="0px" y="0px" width="612px" height="792px" viewBox="0 0 612 792" enable-background="new 0 0 612 792" xml:space="preserve">
<title>nav_contactus</title>
<path stroke="#000000" stroke-width="7" stroke-miterlimit="10" d="M474.577,697.348H155.593c-0.972-0.002-1.925-0.341-2.739-0.924
	C17.132,600.577-20.25,405.093,69.345,259.887c89.612-145.24,272.27-185.257,407.991-89.35
	c135.719,95.882,173.103,291.365,83.491,436.537c-21.906,35.522-50.296,65.935-83.491,89.35
	C476.536,697.007,475.567,697.346,474.577,697.348z M157.043,686.706h316.102c130.636-93.366,165.793-282.37,78.52-422.184
	c-87.237-139.782-263.897-177.41-394.533-84.034C26.481,273.857-8.678,462.86,78.585,602.708
	c20.771,33.209,47.457,61.8,78.547,83.998H157.043z"/>
<path stroke="#000000" stroke-width="7" stroke-miterlimit="10" d="M493.309,645.5H136.958c-2.739,0-4.967-2.363-4.967-5.284l0,0
	V500.099c0.012-2.176,1.26-4.087,3.134-4.923l122.218-51.495c1.821-0.733,3.885-0.271,5.28,1.145l50.322,51.846l54.259-51.99
	c1.391-1.293,3.345-1.692,5.096-1l122.228,51.495c1.894,0.846,3.15,2.793,3.122,4.995v140.045
	C497.68,642.928,495.797,645.211,493.309,645.5z M141.93,634.93h346.401V503.74L371.79,454.679l-55.405,52.704
	c-1.89,1.849-4.809,1.849-6.698,0l-51.341-52.914l-116.344,49.058L141.93,634.93z"/>
<path stroke="#000000" stroke-width="7" stroke-miterlimit="10" d="M433.177,645.357H197.084c-2.75,0-4.978-2.363-4.978-5.284l0,0
	v-87.984c-0.003-2.921,2.223-5.286,4.972-5.288c2.734-0.004,4.964,2.357,4.967,5.278c0,0.004,0,0.006,0,0.01v82.629h226.188v-82.629
	c-0.002-2.921,2.223-5.286,4.938-5.288c2.751-0.004,4.981,2.357,4.983,5.278c0,0.004,0,0.006,0,0.01v87.984
	C438.154,642.994,435.926,645.357,433.177,645.357z"/>
<path stroke="#000000" stroke-width="7" stroke-miterlimit="10" d="M374.079,521.166H256.197c-2.732,0-4.96-2.363-4.96-5.284l0,0
	v-67.272c-0.003-2.921,2.223-5.288,4.955-5.29c2.751-0.004,4.963,2.359,4.966,5.28c0,0.002,0,0.006,0,0.01v61.988h107.946v-61.988
	c-0.002-2.921,2.223-5.288,4.97-5.29c2.719-0.004,4.947,2.359,4.951,5.28c0,0.002,0,0.006,0,0.01v66.918
	c0.158,2.984-1.901,5.473-4.646,5.631C374.278,521.164,374.181,521.166,374.079,521.166z"/>
<path stroke="#000000" stroke-width="7" stroke-miterlimit="10" d="M332.823,565.088h-35.458c-2.739,0-4.955-2.365-4.955-5.286l0,0
	v-44.274c0-2.923,2.216-5.288,4.955-5.288l0,0h35.458c2.66,0.078,4.799,2.42,4.799,5.288v43.99c0.121,2.921-1.972,5.447-4.721,5.566
	C332.876,565.086,332.849,565.086,332.823,565.088z M302.261,554.446h25.513v-33.28h-25.429L302.261,554.446z"/>
<path stroke="#000000" stroke-width="7" stroke-miterlimit="10" d="M347.256,645.5h-67.904c-2.751-0.01-4.97-2.381-4.961-5.302
	c0.002-0.427,0.062-0.839,0.144-1.197l18.033-80.464c0.526-2.393,2.505-4.083,4.799-4.091h35.458
	c2.387-0.004,4.457,1.808,4.869,4.355l14.435,80.414c0.511,2.876-1.262,5.66-3.932,6.206
	C347.874,645.475,347.547,645.502,347.256,645.5L347.256,645.5z M285.603,634.93h55.601l-12.501-69.842h-27.362L285.603,634.93z"/>
<path stroke="#000000" stroke-width="7" stroke-miterlimit="10" d="M316.706,421.186c-51.526,0-93.28-44.718-93.28-99.839
	s41.754-99.803,93.28-99.803c51.462,0,93.223,44.638,93.262,99.731C409.929,376.392,368.191,421.034,316.706,421.186z
	 M316.706,232.184c-46.025,0-83.341,39.919-83.341,89.163c0,49.244,37.315,89.197,83.341,89.197s83.341-39.953,83.341-89.197
	c0-0.024,0-0.047,0-0.071C399.969,272.076,362.687,232.224,316.706,232.184z"/>
<path stroke="#000000" stroke-width="7" stroke-miterlimit="10" d="M383.466,304.993c-21.895,0.443-43.323-6.748-61.102-20.425
	c-2.472-1.339-3.422-4.526-2.186-7.134c1.234-2.642,4.218-3.662,6.653-2.358c0.587,0.349,1.113,0.773,1.55,1.315
	c21.206,15.608,47.348,21.501,72.633,16.354c2.7-0.462,5.245,1.463,5.729,4.321c0.47,2.88-1.336,5.634-4.046,6.141
	C396.341,304.38,389.91,304.977,383.466,304.993z"/>
<path stroke="#000000" stroke-width="7" stroke-miterlimit="10" d="M270.183,303.029c-13.248,0.076-26.401-2.442-38.806-7.427
	c-2.574-1.05-3.882-4.128-2.9-6.856c0.963-2.763,3.836-4.156,6.411-3.106c11.281,4.507,23.248,6.778,35.295,6.677
	c40.793,0,73.921-24.496,73.921-54.99c-0.002-2.955,2.225-5.322,4.974-5.325c2.751-0.002,4.981,2.359,4.983,5.315
	c0,0.003,0,0.007,0,0.01C354.061,273.784,316.385,303.029,270.183,303.029z"/>
<path stroke="#000000" stroke-width="7" stroke-miterlimit="10" d="M503.768,284.639h-10.925v119.12
	c0.111,2.993,2.371,5.392,5.194,5.572h10.708l-26.601,22.852l-26.514-22.852h10.71c3.067,0,5.586-2.692,5.586-5.999l0,0v-88.126
	h-11.102v82.626h-20.773c-1.673-0.016-3.228,0.84-4.261,2.215c-1.833,2.556-1.483,6.153,0.823,8.212l42.189,36.35
	c2.038,1.741,4.947,1.741,7.02,0l41.938-36.135c1.451-1.141,2.348-2.944,2.365-4.929c0-3.196-2.453-5.855-5.516-5.855l0,0h-20.916
	L503.768,284.639z M169.579,446.109h-11.084V326.988c-0.041-3.193,2.365-5.852,5.353-5.892c0.048,0,0.096,0,0.157,0h10.768
	l-26.665-22.889l-26.574,22.889h10.69c3.085,0,5.571,2.691,5.571,5.964v88.482h-11.229V332.88h-20.844
	c-1.671,0.006-3.245-0.812-4.28-2.214c-1.838-2.52-1.465-6.154,0.842-8.176l42.166-36.386c2.052-1.769,4.98-1.769,7.026,0
	l41.939,36.136c1.469,1.139,2.347,2.979,2.364,4.927c0,3.233-2.466,5.857-5.498,5.857h-20.701V446.109z"/>
</svg>
