<?xml version="1.0" encoding="utf-8"?>
<!-- Generator: Adobe Illustrator 16.0.0, SVG Export Plug-In . SVG Version: 6.00 Build 0)  -->
<!DOCTYPE svg PUBLIC "-//W3C//DTD SVG 1.0//EN" "http://www.w3.org/TR/2001/REC-SVG-20010904/DTD/svg10.dtd" [
	<!ENTITY ns_flows "http://ns.adobe.com/Flows/1.0/">
	<!ENTITY ns_extend "http://ns.adobe.com/Extensibility/1.0/">
	<!ENTITY ns_ai "http://ns.adobe.com/AdobeIllustrator/10.0/">
	<!ENTITY ns_graphs "http://ns.adobe.com/Graphs/1.0/">
]>
<svg version="1.0" id="_118" xmlns:x="&ns_extend;" xmlns:i="&ns_ai;" xmlns:graph="&ns_graphs;"
	 xmlns="http://www.w3.org/2000/svg" xmlns:xlink="http://www.w3.org/1999/xlink" xmlns:a="http://ns.adobe.com/AdobeSVGViewerExtensions/3.0/"
	 x="0px" y="0px" width="612px" height="792px" viewBox="0 0 612 792" enable-background="new 0 0 612 792" xml:space="preserve">
<title>nav_aboutUs</title>
<path stroke="#000000" stroke-width="7" stroke-miterlimit="10" d="M42.461,526.407c-2.137-0.162-3.925-1.774-4.441-3.989
	L3.719,387.345c-0.708-2.844,0.875-5.733,3.531-6.492c0.049-0.012,0.096-0.024,0.143-0.035l52.063-14.858
	c2.651-0.777,5.387,0.882,6.116,3.698c0.004,0.012,0.007,0.024,0.011,0.037L99.27,504.85c0.725,2.815-0.833,5.762-3.484,6.518
	c-0.012,0.003-0.024,0.006-0.039,0.01l-51.986,14.76L42.461,526.407z M14.667,389.793l31.005,124.771l42.419-12.067L57.083,377.555
	L14.667,389.793z"/>
<path stroke="#000000" stroke-width="7" stroke-miterlimit="10" d="M356.898,505.418L356.898,505.418l-265.592-7.171
	c-2.2-0.058-4.096-1.652-4.67-3.952L59.075,385.713c-0.621-2.192,0.149-4.567,1.911-5.883l226.625-147.79
	c2.306-1.599,5.385-0.916,6.883,1.562c0.632,1.018,0.905,2.267,0.774,3.506c-3.11,45.664,1.295,91.558,13.016,135.626
	c10.521,43.93,28.072,85.648,51.913,123.192c2.064,1.946,2.282,5.289,0.47,7.494c-0.941,1.155-2.313,1.854-3.769,1.849V505.418z
	 M94.98,487.768l252.118,6.797c-22.019-36.704-38.465-76.902-48.77-119.061c-10.953-41.943-15.656-85.443-13.934-128.927
	L69.636,386.851L94.98,487.768z"/>
<path stroke="#000000" stroke-width="7" stroke-miterlimit="10" d="M432.93,560.599L432.93,560.599
	c-49.61,0-107.768-79.853-135.256-185.664c-30.495-117.579-13.513-221.116,38.797-235.578c3.985-1.092,8.1-1.64,12.236-1.631
	c49.692,0,107.834,79.853,135.179,185.688c30.492,117.556,13.499,221.018-38.72,235.555
	C441.17,560.06,437.062,560.607,432.93,560.599z M348.707,148.332c-3.221,0.003-6.445,0.451-9.557,1.31
	c-45.108,12.486-59.567,114.316-31.599,222.523c25.904,99.285,80.974,177.851,125.378,177.851l0,0
	c3.251,0.003,6.493-0.445,9.638-1.333c45.104-12.485,59.479-114.314,31.596-222.5C448.172,226.479,393.105,148.332,348.707,148.332z
	"/>
<path stroke="#000000" stroke-width="7" stroke-miterlimit="10" d="M465.464,542.426c-0.55,0.095-1.12,0.095-1.679,0
	c-44.032-17.651-88.896-90.752-111.857-182.2c-22.971-91.448-18.374-178.644,11.628-217.111c1.343-1.741,3.536-2.386,5.523-1.631
	c44.092,17.231,88.96,90.384,111.931,181.93c22.971,91.522,18.3,178.816-11.717,217.111
	C468.335,541.713,466.938,542.435,465.464,542.426z M369.004,153.001c-25.584,37.062-28.793,120.103-7.657,204.627
	c21.121,84.524,62.929,155.156,102.438,173.179c25.569-36.887,28.778-119.929,7.657-204.55
	C450.307,241.68,408.424,171.274,369.004,153.001z"/>
<path stroke="#000000" stroke-width="7" stroke-miterlimit="10" d="M363.332,388.333c-2.168,0.005-4.083-1.491-4.747-3.683
	c-2.687-8.975-4.896-16.984-6.731-24.5c-1.851-7.516-3.836-16.34-5.522-24.5c-0.459-2.424,0.717-4.861,2.836-5.884
	c14.876-7.176,30.978-11.055,47.316-11.347c19.986,0,33.688,7.021,36.674,18.788c2.298,9.072-2.149,19.012-12.554,28.159
	c-11.125,9.141-23.902,15.742-37.524,19.357c-6.292,1.803-12.721,3.067-19.21,3.757L363.332,388.333z M356.898,337.53
	c1.463,6.946,2.911,13.473,4.597,19.926c1.688,6.452,3.285,12.583,5.359,19.753c4.596-0.686,9.136-1.675,13.628-2.942
	c12.216-3.178,23.676-9.022,33.688-17.134c7.121-6.205,10.493-12.486,9.26-17.231c-1.602-6.527-12.558-10.951-27.021-10.951
	c-8.928,0.124-17.807,1.469-26.419,4.004c-4.45,1.245-8.833,2.797-13.091,4.648V337.53z"/>
<path stroke="#000000" stroke-width="7" stroke-miterlimit="10" d="M218.473,685.47c-1.82-0.004-3.49-1.07-4.359-2.77
	L117.72,495.926c-0.917-1.658-0.917-3.707,0-5.389c0.989-1.529,2.666-2.466,4.44-2.426l59.108,3.189
	c1.717,0.067,3.286,1.092,4.135,2.694l84.214,161.758c1.332,2.577,0.456,5.807-1.95,7.193c-0.14,0.073-0.277,0.14-0.423,0.247
	l-47.16,21.437C219.596,685.018,219.051,685.316,218.473,685.47z M130.736,499.534l89.885,173.868l38.279-17.352L178.202,502.08
	L130.736,499.534z"/>
<path stroke="#000000" stroke-width="7" stroke-miterlimit="10" d="M119.938,431.867c-2.747,0.043-5.012-2.326-5.055-5.236
	c-0.036-2.479,1.517-4.644,3.755-5.243l155.957-44.575c2.664-0.77,5.404,0.906,6.127,3.758c0.716,2.829-0.859,5.757-3.522,6.527
	l-155.957,44.574L119.938,431.867z"/>
<path stroke="#000000" stroke-width="7" stroke-miterlimit="10" d="M540.342,299.235c-2.753,0.042-5.005-2.28-5.052-5.214
	c-0.044-2.457,1.514-4.623,3.754-5.243l51.524-14.686c2.658-0.771,5.405,0.906,6.12,3.757c0.72,2.829-0.851,5.757-3.522,6.527
	l-51.525,14.687L540.342,299.235z"/>
<path stroke="#000000" stroke-width="7" stroke-miterlimit="10" d="M604.584,366.678h-53.6c-2.753-0.003-4.969-2.386-4.965-5.297
	c0.003-2.93,2.216-5.307,4.965-5.31h53.6c2.739,0.003,4.969,2.386,4.966,5.32C609.547,364.299,607.319,366.675,604.584,366.678z"/>
<path stroke="#000000" stroke-width="7" stroke-miterlimit="10" d="M596.39,449.548h-1.3l-51.762-14.836
	c-2.658-0.793-4.238-3.698-3.523-6.527c0.716-2.874,3.463-4.551,6.13-3.757l51.755,14.342c2.656,0.749,4.272,3.621,3.6,6.449
	c-0.567,2.412-2.592,4.065-4.899,4.03V449.548z"/>
<path stroke="#000000" stroke-width="7" stroke-miterlimit="10" d="M472.89,184.276c-2.753,0.003-4.973-2.375-4.976-5.309
	c-0.002-1.406,0.523-2.76,1.454-3.763l37.674-40.174c1.94-2.082,5.09-2.082,7.045,0c1.94,2.082,1.94,5.434,0,7.515l-37.674,40.174
	C475.474,183.712,474.207,184.278,472.89,184.276z"/>
<path stroke="#000000" stroke-width="7" stroke-miterlimit="10" d="M513.698,237.01c-2.754,0-4.971-2.38-4.971-5.292
	c0-1.88,0.925-3.632,2.448-4.574l45.929-28.429c2.392-1.456,5.445-0.584,6.821,1.953c1.369,2.561,0.553,5.813-1.836,7.269
	l-45.942,28.429C515.4,236.791,514.553,237.02,513.698,237.01z"/>
</svg>
