<svg id="_118" data-name="118" xmlns="http://www.w3.org/2000/svg" viewBox="0 0 82 71.21"><title>nav_aboutUs</title><path d="M6.58,51.73A.65.65,0,0,1,6,51.24L1.52,34.7A.65.65,0,0,1,2,33.9l6.8-1.82a.65.65,0,0,1,.8.46L14,49.09a.65.65,0,0,1-.46.8L6.75,51.7ZM2.95,35,7,50.28l5.54-1.48L8.49,33.5Z"/><path d="M47.65,49.16h0l-34.69-.88a.65.65,0,0,1-.61-.48L8.75,34.5A.65.65,0,0,1,9,33.78l29.6-18.1a.65.65,0,0,1,1,.62A48.11,48.11,0,0,0,41.3,32.91,48.22,48.22,0,0,0,48.08,48a.65.65,0,0,1-.43,1.14ZM13.44,47l32.93.83A50.83,50.83,0,0,1,40,33.25a50.85,50.85,0,0,1-1.82-15.79L10.13,34.64Z"/><path d="M57.41,55.92h0c-6.28,0-13.64-9.78-17.12-22.74C36.43,18.78,38.58,6.1,45.2,4.33a6,6,0,0,1,1.55-.2c6.29,0,13.65,9.78,17.11,22.74,3.86,14.4,1.71,27.07-4.9,28.85A6,6,0,0,1,57.41,55.92ZM46.75,5.43a4.69,4.69,0,0,0-1.21.16c-5.71,1.53-7.54,14-4,27.25C44.82,45,51.79,54.62,57.41,54.62h0a4.7,4.7,0,0,0,1.22-.16c5.71-1.53,7.53-14,4-27.25C59.34,15,52.37,5.43,46.75,5.43Z"/><path d="M61.83,53.69a.64.64,0,0,1-.22,0C55.86,51.53,50,42.58,47,31.38S44.6,9.5,48.52,4.79a.65.65,0,0,1,.72-.2C55,6.7,60.86,15.66,63.86,26.87s2.39,21.9-1.53,26.59A.65.65,0,0,1,61.83,53.69ZM49.23,6c-3.34,4.54-3.76,14.71-1,25.06s8.22,19,13.38,21.21c3.34-4.52,3.76-14.69,1-25.05S54.38,8.24,49.23,6Z"/><path d="M48.49,34.82a.65.65,0,0,1-.62-.45c-.35-1.1-.64-2.08-.88-3s-.5-2-.72-3a.65.65,0,0,1,.37-.72,15.61,15.61,0,0,1,6.18-1.39c2.61,0,4.4.86,4.79,2.3.3,1.11-.28,2.33-1.64,3.45a13.31,13.31,0,0,1-4.9,2.37,16,16,0,0,1-2.51.46Zm-.84-6.22c.19.85.38,1.65.6,2.44s.43,1.54.7,2.42a15.72,15.72,0,0,0,1.78-.36A12,12,0,0,0,55.13,31c.93-.76,1.37-1.53,1.21-2.11-.21-.8-1.64-1.34-3.53-1.34a13.49,13.49,0,0,0-3.45.49A13.33,13.33,0,0,0,47.65,28.61Z"/><path d="M29.57,71.21a.65.65,0,0,1-.57-.34L16.41,48a.65.65,0,0,1,0-.66.68.68,0,0,1,.58-.3l7.72.39a.65.65,0,0,1,.54.33l11,19.81a.65.65,0,0,1-.31.91l-6.16,2.63A.65.65,0,0,1,29.57,71.21ZM18.11,48.44,29.85,69.73l5-2.12L24.31,48.75Z"/><path d="M16.7,40.15a.65.65,0,0,1-.17-1.28L36.9,33.41a.65.65,0,1,1,.34,1.26L16.87,40.13Z"/><path d="M71.61,23.91a.65.65,0,0,1-.17-1.28l6.73-1.8a.65.65,0,0,1,.34,1.26l-6.73,1.8Z"/><path d="M80,32.17H73a.65.65,0,0,1,0-1.3h7a.65.65,0,0,1,0,1.3Z"/><path d="M78.93,42.32l-.17,0L72,40.5a.65.65,0,0,1,.34-1.26L79.1,41a.65.65,0,0,1-.17,1.28Z"/><path d="M62.8,9.83a.65.65,0,0,1-.46-1.11L67.26,3.8a.65.65,0,0,1,.92.92L63.26,9.64A.65.65,0,0,1,62.8,9.83Z"/><path d="M68.13,16.29a.65.65,0,0,1-.33-1.21l6-3.48a.65.65,0,1,1,.65,1.13l-6,3.48A.65.65,0,0,1,68.13,16.29Z"/></svg>