<svg id="_118" data-name="118" xmlns="http://www.w3.org/2000/svg" viewBox="0 0 85.61 76.33"><defs><style>.cls-1{fill:none;}</style></defs><title>nav_contactus</title><path d="M66.93,75.24H25.17a.65.65,0,0,1-.36-.11,38.55,38.55,0,1,1,42.48,0A.65.65,0,0,1,66.93,75.24Zm-41.57-1.3H66.74a37.24,37.24,0,1,0-41.37,0Z"/><path d="M69.38,68.9H22.73a.65.65,0,0,1-.65-.65V51.11a.65.65,0,0,1,.41-.6l16-6.3a.65.65,0,0,1,.69.14l6.59,6.34,7.1-6.36a.66.66,0,0,1,.67-.12l16,6.3a.65.65,0,0,1,.41.61V68.25A.65.65,0,0,1,69.38,68.9Zm-46-1.3H68.73V51.55l-15.26-6L46.22,52a.65.65,0,0,1-.88,0l-6.72-6.47-15.23,6Z"/><path d="M61.51,68.88H30.6a.65.65,0,0,1-.65-.65V57.47a.65.65,0,1,1,1.3,0V67.58H60.86V57.47a.65.65,0,1,1,1.3,0V68.23A.65.65,0,0,1,61.51,68.88Z"/><path d="M53.77,53.69H38.34a.65.65,0,0,1-.65-.65V44.81a.65.65,0,1,1,1.3,0v7.58H53.12V44.81a.65.65,0,1,1,1.3,0V53A.65.65,0,0,1,53.77,53.69Z"/><path d="M48.37,59.06H43.73a.65.65,0,0,1-.65-.65V53a.65.65,0,0,1,.65-.65h4.64A.65.65,0,0,1,49,53v5.38A.65.65,0,0,1,48.37,59.06Zm-4-1.3h3.34V53.69H44.38Z"/><path d="M50.26,68.9H41.37a.65.65,0,0,1-.63-.8l2.36-9.84a.65.65,0,0,1,.63-.5h4.64a.65.65,0,0,1,.64.53l1.89,9.84a.65.65,0,0,1-.64.77Zm-8.07-1.3h7.28l-1.64-8.54H44.25Z"/><path d="M46.26,41.45A12.21,12.21,0,1,1,58.47,29.23,12.23,12.23,0,0,1,46.26,41.45Zm0-23.12a10.91,10.91,0,1,0,10.91,10.9A10.92,10.92,0,0,0,46.26,18.33Z"/><path d="M55,27.24a13.28,13.28,0,0,1-8-2.5.65.65,0,1,1,.79-1,12.61,12.61,0,0,0,9.51,2,.66.66,0,0,1,.75.53.65.65,0,0,1-.53.75A15,15,0,0,1,55,27.24Z"/><path d="M40.17,27a14.32,14.32,0,0,1-5.08-.91.65.65,0,0,1,.46-1.22,13,13,0,0,0,4.62.82c5.34,0,9.68-3,9.68-6.73a.65.65,0,1,1,1.3,0C51.15,23.42,46.22,27,40.17,27Z"/><path class="cls-1" d="M70.75,24.75H69.32l0,14.57A.71.71,0,0,0,70,40h1.4l-3.48,2.8L64.45,40h1.4a.73.73,0,0,0,.73-.73V28.49H65.13V38.6H62.41a.7.7,0,0,0-.56.27.72.72,0,0,0,.11,1l5.52,4.45a.74.74,0,0,0,.92,0l5.49-4.42a.75.75,0,0,0,.31-.6.72.72,0,0,0-.72-.72H70.74ZM27,44.5H25.55l0-14.57a.71.71,0,0,1,.72-.72h1.41l-3.49-2.8-3.48,2.8h1.4a.73.73,0,0,1,.73.73V40.76H21.37V30.65H18.64a.71.71,0,0,1-.56-.27.72.72,0,0,1,.11-1l5.52-4.45a.73.73,0,0,1,.92,0l5.49,4.42a.75.75,0,0,1,.31.6.72.72,0,0,1-.72.72H27Z"/></svg>