<?xml version="1.0" encoding="utf-8"?>
<!-- Generator: Adobe Illustrator 23.0.3, SVG Export Plug-In . SVG Version: 6.00 Build 0)  -->
<svg version="1.1" id="Layer_1" xmlns="http://www.w3.org/2000/svg" xmlns:xlink="http://www.w3.org/1999/xlink" x="0px" y="0px"
	 viewBox="0 0 512 512" style="enable-background:new 0 0 512 512;" xml:space="preserve">
<style type="text/css">
	.st0{fill:#FFFFFF;}
	.st1{fill:#20C5BA;}
</style>
<circle class="st0" cx="256" cy="256" r="256"/>
<g>
	<path class="st1" d="M315.2,109.5H196.8c-48.1,0-87.3,39.2-87.3,87.3v118.5c0,48.1,39.2,87.3,87.3,87.3h118.5
		c48.1,0,87.3-39.2,87.3-87.3V196.8C402.5,148.6,363.4,109.5,315.2,109.5L315.2,109.5z M373,315.2c0,31.9-25.9,57.8-57.8,57.8H196.8
		c-31.9,0-57.8-25.9-57.8-57.8V196.8c0-31.9,25.9-57.8,57.8-57.8h118.5c31.9,0,57.8,25.9,57.8,57.8L373,315.2L373,315.2z"/>
	<path class="st1" d="M256,180.2c-41.8,0-75.8,34-75.8,75.8c0,41.8,34,75.8,75.8,75.8s75.8-34,75.8-75.8S297.8,180.2,256,180.2
		L256,180.2z M256,302.3c-25.6,0-46.3-20.7-46.3-46.3s20.7-46.3,46.3-46.3s46.3,20.7,46.3,46.3C302.3,281.6,281.6,302.3,256,302.3
		L256,302.3z"/>
</g>
<g>
	<path class="st1" d="M350.1,180.8c0,10-8.1,18.2-18.2,18.2c-10,0-18.2-8.1-18.2-18.2c0-10,8.1-18.2,18.2-18.2
		C342,162.6,350.1,170.7,350.1,180.8L350.1,180.8z"/>
	<path class="st1" d="M315.2,109.5h-59.8v29.5h59.8c31.9,0,57.8,25.9,57.8,57.8v118.5c0,31.9-25.9,57.8-57.8,57.8h-59.8v29.5h59.8
		c48.1,0,87.3-39.2,87.3-87.3V196.8C402.5,148.6,363.4,109.5,315.2,109.5z"/>
	<path class="st1" d="M256,180.2c-0.2,0-0.4,0-0.6,0v29.5c0.2,0,0.4,0,0.6,0c25.6,0,46.3,20.7,46.3,46.3c0,25.6-20.7,46.3-46.3,46.3
		c-0.2,0-0.4,0-0.6,0v29.5c0.2,0,0.4,0,0.6,0c41.8,0,75.8-34,75.8-75.8C331.8,214.2,297.8,180.2,256,180.2z"/>
</g>
</svg>
