<svg xmlns="http://www.w3.org/2000/svg" xmlns:xlink="http://www.w3.org/1999/xlink" viewBox="0 0 503 367.33"><defs><style>.cls-1{fill:none;}.cls-2{isolation:isolate;}.cls-3{opacity:0.5;fill:url(#Áåçûìÿííûé_ãðàäèåíò_152);}.cls-3,.cls-30,.cls-34,.cls-35,.cls-36,.cls-37,.cls-39,.cls-40,.cls-41,.cls-46,.cls-70,.cls-73,.cls-74,.cls-75,.cls-77,.cls-78,.cls-79,.cls-82{mix-blend-mode:multiply;}.cls-4{fill:url(#Áåçûìÿííûé_ãðàäèåíò_79);}.cls-5{fill:url(#Áåçûìÿííûé_ãðàäèåíò_53);}.cls-6{fill:url(#Áåçûìÿííûé_ãðàäèåíò_96);}.cls-7{fill:url(#Áåçûìÿííûé_ãðàäèåíò_96-2);}.cls-10,.cls-11,.cls-12,.cls-13,.cls-14,.cls-15,.cls-16,.cls-17,.cls-18,.cls-19,.cls-20,.cls-21,.cls-22,.cls-23,.cls-24,.cls-25,.cls-26,.cls-27,.cls-28,.cls-29,.cls-30,.cls-31,.cls-32,.cls-33,.cls-34,.cls-35,.cls-36,.cls-37,.cls-38,.cls-39,.cls-40,.cls-41,.cls-42,.cls-43,.cls-44,.cls-45,.cls-46,.cls-47,.cls-48,.cls-49,.cls-50,.cls-51,.cls-52,.cls-53,.cls-54,.cls-55,.cls-56,.cls-57,.cls-58,.cls-59,.cls-60,.cls-61,.cls-62,.cls-63,.cls-64,.cls-65,.cls-66,.cls-67,.cls-68,.cls-69,.cls-70,.cls-71,.cls-72,.cls-73,.cls-74,.cls-75,.cls-76,.cls-77,.cls-78,.cls-79,.cls-8,.cls-80,.cls-81,.cls-82,.cls-83,.cls-84,.cls-85,.cls-9{fill-rule:evenodd;}.cls-8{fill:url(#Áåçûìÿííûé_ãðàäèåíò_317);}.cls-9{fill:url(#Áåçûìÿííûé_ãðàäèåíò_324);}.cls-10{fill:url(#Áåçûìÿííûé_ãðàäèåíò_253);}.cls-11{fill:url(#Áåçûìÿííûé_ãðàäèåíò_106);}.cls-12{fill:#ecd9ca;}.cls-13{fill:url(#Áåçûìÿííûé_ãðàäèåíò_106-2);}.cls-14{fill:url(#Áåçûìÿííûé_ãðàäèåíò_333);}.cls-15{fill:url(#Áåçûìÿííûé_ãðàäèåíò_307);}.cls-16{fill:url(#Áåçûìÿííûé_ãðàäèåíò_313);}.cls-17{fill:url(#Áåçûìÿííûé_ãðàäèåíò_262);}.cls-18{fill:url(#Áåçûìÿííûé_ãðàäèåíò_331);}.cls-19{fill:url(#Áåçûìÿííûé_ãðàäèåíò_262-2);}.cls-20{fill:#9b8a8d;}.cls-21{fill:url(#Áåçûìÿííûé_ãðàäèåíò_311);}.cls-22{fill:url(#Áåçûìÿííûé_ãðàäèåíò_262-3);}.cls-23{fill:url(#Áåçûìÿííûé_ãðàäèåíò_262-4);}.cls-24{fill:url(#Áåçûìÿííûé_ãðàäèåíò_296);}.cls-25{fill:url(#Áåçûìÿííûé_ãðàäèåíò_308);}.cls-26{fill:url(#Áåçûìÿííûé_ãðàäèåíò_327);}.cls-27{fill:url(#Áåçûìÿííûé_ãðàäèåíò_327-2);}.cls-28{fill:url(#Áåçûìÿííûé_ãðàäèåíò_327-3);}.cls-29,.cls-45,.cls-49,.cls-69,.cls-81,.cls-85{mix-blend-mode:screen;}.cls-29{fill:url(#Áåçûìÿííûé_ãðàäèåíò_706);}.cls-30,.cls-34,.cls-36,.cls-37,.cls-40,.cls-41,.cls-46,.cls-70,.cls-73,.cls-75,.cls-78,.cls-79,.cls-82{opacity:0.6;}.cls-30{fill:url(#Áåçûìÿííûé_ãðàäèåíò_154);}.cls-31{fill:url(#Áåçûìÿííûé_ãðàäèåíò_327-4);}.cls-32{fill:url(#Áåçûìÿííûé_ãðàäèåíò_308-2);}.cls-33{fill:#624d52;}.cls-34{fill:url(#Áåçûìÿííûé_ãðàäèåíò_154-2);}.cls-35,.cls-39,.cls-74,.cls-77{opacity:0.18;}.cls-35{fill:url(#Áåçûìÿííûé_ãðàäèåíò_154-3);}.cls-36{fill:#caa4ca;}.cls-37{fill:url(#Áåçûìÿííûé_ãðàäèåíò_362);}.cls-38{fill:url(#Áåçûìÿííûé_ãðàäèåíò_308-3);}.cls-39{fill:url(#Áåçûìÿííûé_ãðàäèåíò_154-4);}.cls-40{fill:url(#Áåçûìÿííûé_ãðàäèåíò_221);}.cls-41{fill:url(#Áåçûìÿííûé_ãðàäèåíò_343);}.cls-42{fill:#f1e3d8;}.cls-43{fill:#d3b4a7;}.cls-44{fill:url(#Áåçûìÿííûé_ãðàäèåíò_308-4);}.cls-45{fill:url(#Áåçûìÿííûé_ãðàäèåíò_706-2);}.cls-46{fill:url(#Áåçûìÿííûé_ãðàäèåíò_221-2);}.cls-47{fill:url(#Áåçûìÿííûé_ãðàäèåíò_565);}.cls-48{fill:url(#Áåçûìÿííûé_ãðàäèåíò_565-2);}.cls-49{fill:url(#Áåçûìÿííûé_ãðàäèåíò_328);}.cls-50{fill:url(#Áåçûìÿííûé_ãðàäèåíò_317-2);}.cls-51{fill:url(#Áåçûìÿííûé_ãðàäèåíò_324-2);}.cls-52{fill:url(#Áåçûìÿííûé_ãðàäèåíò_253-2);}.cls-53{fill:url(#Áåçûìÿííûé_ãðàäèåíò_106-3);}.cls-54{fill:url(#Áåçûìÿííûé_ãðàäèåíò_106-4);}.cls-55{fill:url(#Áåçûìÿííûé_ãðàäèåíò_333-2);}.cls-56{fill:url(#Áåçûìÿííûé_ãðàäèåíò_307-2);}.cls-57{fill:url(#Áåçûìÿííûé_ãðàäèåíò_313-2);}.cls-58{fill:url(#Áåçûìÿííûé_ãðàäèåíò_262-5);}.cls-59{fill:url(#Áåçûìÿííûé_ãðàäèåíò_331-2);}.cls-60{fill:url(#Áåçûìÿííûé_ãðàäèåíò_262-6);}.cls-61{fill:url(#Áåçûìÿííûé_ãðàäèåíò_311-2);}.cls-62{fill:url(#Áåçûìÿííûé_ãðàäèåíò_262-7);}.cls-63{fill:url(#Áåçûìÿííûé_ãðàäèåíò_262-8);}.cls-64{fill:url(#Áåçûìÿííûé_ãðàäèåíò_296-2);}.cls-65{fill:url(#Áåçûìÿííûé_ãðàäèåíò_308-5);}.cls-66{fill:url(#Áåçûìÿííûé_ãðàäèåíò_327-5);}.cls-67{fill:url(#Áåçûìÿííûé_ãðàäèåíò_327-6);}.cls-68{fill:url(#Áåçûìÿííûé_ãðàäèåíò_327-7);}.cls-69{fill:url(#Áåçûìÿííûé_ãðàäèåíò_706-3);}.cls-70{fill:url(#Áåçûìÿííûé_ãðàäèåíò_154-5);}.cls-71{fill:url(#Áåçûìÿííûé_ãðàäèåíò_327-8);}.cls-72{fill:url(#Áåçûìÿííûé_ãðàäèåíò_308-6);}.cls-73{fill:url(#Áåçûìÿííûé_ãðàäèåíò_154-6);}.cls-74{fill:url(#Áåçûìÿííûé_ãðàäèåíò_154-7);}.cls-75{fill:url(#Áåçûìÿííûé_ãðàäèåíò_362-2);}.cls-76{fill:url(#Áåçûìÿííûé_ãðàäèåíò_308-7);}.cls-77{fill:url(#Áåçûìÿííûé_ãðàäèåíò_154-8);}.cls-78{fill:url(#Áåçûìÿííûé_ãðàäèåíò_221-3);}.cls-79{fill:url(#Áåçûìÿííûé_ãðàäèåíò_343-2);}.cls-80{fill:url(#Áåçûìÿííûé_ãðàäèåíò_308-8);}.cls-81{fill:url(#Áåçûìÿííûé_ãðàäèåíò_706-4);}.cls-82{fill:url(#Áåçûìÿííûé_ãðàäèåíò_221-4);}.cls-83{fill:url(#Áåçûìÿííûé_ãðàäèåíò_565-3);}.cls-84{fill:url(#Áåçûìÿííûé_ãðàäèåíò_565-4);}.cls-85{fill:url(#Áåçûìÿííûé_ãðàäèåíò_328-2);}.cls-86{fill:#e87357;}.cls-87{clip-path:url(#clip-path);}.cls-88{fill:#ffb078;}.cls-89{fill:#ffb179;}.cls-90{fill:#ffb27a;}.cls-91{fill:#ffb37b;}.cls-92{fill:#ffb47c;}.cls-93{fill:#ffb57d;}.cls-94{fill:#ffb67e;}.cls-95{fill:#ffb77f;}.cls-96{fill:#ffb880;}.cls-97{fill:#ffb982;}.cls-98{fill:#ffb983;}.cls-99{fill:#ffba84;}.cls-100{fill:#ffbb85;}.cls-101{fill:#ffbc86;}.cls-102{fill:#ffbd87;}.cls-103{fill:#ffbe88;}.cls-104{fill:#ffbf89;}.cls-105{fill:#ffc08a;}.cls-106{fill:#ffc18b;}.cls-107{clip-path:url(#clip-path-2);}.cls-108{clip-path:url(#clip-path-3);}.cls-109{clip-path:url(#clip-path-4);}.cls-110{clip-path:url(#clip-path-5);}</style><linearGradient id="Áåçûìÿííûé_ãðàäèåíò_152" x1="247.32" y1="369.97" x2="247.32" y2="350.84" gradientUnits="userSpaceOnUse"><stop offset="0" stop-color="#fff"/><stop offset="1" stop-color="#9d3477"/></linearGradient><radialGradient id="Áåçûìÿííûé_ãðàäèåíò_79" cx="247.32" cy="179.67" r="210.09" gradientUnits="userSpaceOnUse"><stop offset="0" stop-color="#ffe7c2"/><stop offset="0.64" stop-color="#ffe6c0"/><stop offset="0.87" stop-color="#ffe1b9"/><stop offset="1" stop-color="#ffdbb1"/></radialGradient><linearGradient id="Áåçûìÿííûé_ãðàäèåíò_53" x1="487.45" y1="242.43" x2="487.45" y2="209.01" gradientUnits="userSpaceOnUse"><stop offset="0" stop-color="#ffb792"/><stop offset="1" stop-color="#ffc18b"/></linearGradient><radialGradient id="Áåçûìÿííûé_ãðàäèåíò_96" cx="248.4" cy="167.87" r="288.12" gradientUnits="userSpaceOnUse"><stop offset="0" stop-color="#ffc18b"/><stop offset="0.9" stop-color="#ffc18b"/><stop offset="1" stop-color="#ffb078"/></radialGradient><radialGradient id="Áåçûìÿííûé_ãðàäèåíò_96-2" cx="248.4" cy="167.87" r="288.12" xlink:href="#Áåçûìÿííûé_ãðàäèåíò_96"/><linearGradient id="Áåçûìÿííûé_ãðàäèåíò_317" x1="79.2" y1="242.45" x2="79.2" y2="189.89" gradientTransform="matrix(1, 0, 0, 1, 11.5, 82.5)" gradientUnits="userSpaceOnUse"><stop offset="0" stop-color="#d45942"/><stop offset="1" stop-color="#ff8a36"/></linearGradient><linearGradient id="Áåçûìÿííûé_ãðàäèåíò_324" x1="109.48" y1="242.3" x2="109.48" y2="190.2" gradientTransform="matrix(1, 0, 0, 1, 11.5, 82.5)" gradientUnits="userSpaceOnUse"><stop offset="0" stop-color="#ab3c3e"/><stop offset="1" stop-color="#c54919"/></linearGradient><linearGradient id="Áåçûìÿííûé_ãðàäèåíò_253" x1="25.02" y1="236.57" x2="135.13" y2="236.57" gradientTransform="matrix(1, 0, 0, 1, 11.5, 82.5)" gradientUnits="userSpaceOnUse"><stop offset="0" stop-color="#e5ccae"/><stop offset="1" stop-color="#907c7e"/></linearGradient><linearGradient id="Áåçûìÿííûé_ãðàäèåíò_106" x1="43.86" y1="241.99" x2="43.86" y2="187.67" gradientTransform="matrix(1, 0, 0, 1, 11.5, 82.5)" gradientUnits="userSpaceOnUse"><stop offset="0" stop-color="#907c7e"/><stop offset="1" stop-color="#e5ccae"/></linearGradient><linearGradient id="Áåçûìÿííûé_ãðàäèåíò_106-2" x1="107.95" y1="243.23" x2="107.95" y2="186.98" xlink:href="#Áåçûìÿííûé_ãðàäèåíò_106"/><linearGradient id="Áåçûìÿííûé_ãðàäèåíò_333" x1="48.4" y1="241.99" x2="48.4" y2="188.13" gradientTransform="matrix(1, 0, 0, 1, 11.5, 82.5)" gradientUnits="userSpaceOnUse"><stop offset="0" stop-color="#6d5472"/><stop offset="1" stop-color="#9f7767"/></linearGradient><linearGradient id="Áåçûìÿííûé_ãðàäèåíò_307" x1="35.84" y1="236.99" x2="81.43" y2="236.99" gradientTransform="matrix(1, 0, 0, 1, 11.5, 82.5)" gradientUnits="userSpaceOnUse"><stop offset="0" stop-color="#b0958c"/><stop offset="1" stop-color="#978588"/></linearGradient><linearGradient id="Áåçûìÿííûé_ãðàäèåíò_313" x1="37.9" y1="209" x2="85.04" y2="209" gradientTransform="matrix(1, 0, 0, 1, 11.5, 82.5)" gradientUnits="userSpaceOnUse"><stop offset="0" stop-color="#ccbba7"/><stop offset="1" stop-color="#b2a5a7"/></linearGradient><linearGradient id="Áåçûìÿííûé_ãðàäèåíò_262" x1="37.9" y1="213.19" x2="83.36" y2="213.19" gradientTransform="matrix(1, 0, 0, 1, 11.5, 82.5)" gradientUnits="userSpaceOnUse"><stop offset="0" stop-color="#9f7767"/><stop offset="1" stop-color="#7a637e"/></linearGradient><linearGradient id="Áåçûìÿííûé_ãðàäèåíò_331" x1="121.39" y1="241.99" x2="121.39" y2="190.77" gradientTransform="matrix(1, 0, 0, 1, 11.5, 82.5)" gradientUnits="userSpaceOnUse"><stop offset="0" stop-color="#6d3d45"/><stop offset="1" stop-color="#63506f"/></linearGradient><linearGradient id="Áåçûìÿííûé_ãðàäèåíò_262-2" x1="92.94" y1="237.6" x2="129.06" y2="237.6" xlink:href="#Áåçûìÿííûé_ãðàäèåíò_262"/><linearGradient id="Áåçûìÿííûé_ãðàäèåíò_311" x1="37.03" y1="217.78" x2="83.36" y2="217.78" gradientTransform="matrix(1, 0, 0, 1, 11.5, 82.5)" gradientUnits="userSpaceOnUse"><stop offset="0" stop-color="#b79f97"/><stop offset="1" stop-color="#b2a5a7"/></linearGradient><linearGradient id="Áåçûìÿííûé_ãðàäèåíò_262-3" x1="93.87" y1="209.09" x2="126.65" y2="209.09" xlink:href="#Áåçûìÿííûé_ãðàäèåíò_262"/><linearGradient id="Áåçûìÿííûé_ãðàäèåíò_262-4" x1="92.61" y1="217.47" x2="126.65" y2="217.47" xlink:href="#Áåçûìÿííûé_ãðàäèåíò_262"/><linearGradient id="Áåçûìÿííûé_ãðàäèåíò_296" x1="110.26" y1="213.98" x2="110.26" y2="212.52" gradientTransform="matrix(1, 0, 0, 1, 11.5, 82.5)" gradientUnits="userSpaceOnUse"><stop offset="0" stop-color="#6d4b45"/><stop offset="1" stop-color="#63506f"/></linearGradient><linearGradient id="Áåçûìÿííûé_ãðàäèåíò_308" x1="58.44" y1="221.52" x2="58.44" y2="204.76" gradientTransform="matrix(1, 0, 0, 1, 11.5, 82.5)" gradientUnits="userSpaceOnUse"><stop offset="0" stop-color="#7a637e"/><stop offset="1" stop-color="#9f7767"/></linearGradient><linearGradient id="Áåçûìÿííûé_ãðàäèåíò_327" x1="94.93" y1="243.25" x2="94.93" y2="192.54" gradientTransform="matrix(1, 0, 0, 1, 11.5, 82.5)" gradientUnits="userSpaceOnUse"><stop offset="0" stop-color="#aa9b9d"/><stop offset="1" stop-color="#e5ccae"/></linearGradient><linearGradient id="Áåçûìÿííûé_ãðàäèåíò_327-2" x1="36.49" y1="232.11" x2="81.43" y2="232.11" xlink:href="#Áåçûìÿííûé_ãðàäèåíò_327"/><linearGradient id="Áåçûìÿííûé_ãðàäèåíò_327-3" x1="27.23" y1="237.81" x2="54.4" y2="190.76" xlink:href="#Áåçûìÿííûé_ãðàäèåíò_327"/><linearGradient id="Áåçûìÿííûé_ãðàäèåíò_706" x1="61.88" y1="206.94" x2="77.2" y2="180.41" gradientTransform="matrix(1, 0, 0, 1, 11.5, 82.5)" gradientUnits="userSpaceOnUse"><stop offset="0"/><stop offset="1" stop-color="#d7883d"/></linearGradient><linearGradient id="Áåçûìÿííûé_ãðàäèåíò_154" x1="50.97" y1="218.32" x2="68.71" y2="218.32" gradientTransform="matrix(1, 0, 0, 1, 11.5, 82.5)" gradientUnits="userSpaceOnUse"><stop offset="0" stop-color="#ffc4c0"/><stop offset="0.99" stop-color="#90609a"/></linearGradient><linearGradient id="Áåçûìÿííûé_ãðàäèåíò_327-4" x1="57.36" y1="221.25" x2="57.36" y2="204.88" xlink:href="#Áåçûìÿííûé_ãðàäèåíò_327"/><linearGradient id="Áåçûìÿííûé_ãðàäèåíò_308-2" x1="56.8" y1="215.95" x2="56.8" y2="209.32" xlink:href="#Áåçûìÿííûé_ãðàäèåíò_308"/><linearGradient id="Áåçûìÿííûé_ãðàäèåíò_154-2" x1="40.83" y1="204.45" x2="42.92" y2="204.45" xlink:href="#Áåçûìÿííûé_ãðàäèåíò_154"/><linearGradient id="Áåçûìÿííûé_ãðàäèåíò_154-3" x1="29.56" y1="241.78" x2="29.56" y2="228.74" xlink:href="#Áåçûìÿííûé_ãðàäèåíò_154"/><linearGradient id="Áåçûìÿííûé_ãðàäèåíò_362" x1="91.67" y1="216.72" x2="123.74" y2="216.72" gradientTransform="matrix(1, 0, 0, 1, 11.5, 82.5)" gradientUnits="userSpaceOnUse"><stop offset="0.01" stop-color="#b66054"/><stop offset="1" stop-color="#bf777c"/></linearGradient><linearGradient id="Áåçûìÿííûé_ãðàäèåíò_308-3" x1="112.56" y1="243.25" x2="112.56" y2="187.67" xlink:href="#Áåçûìÿííûé_ãðàäèåíò_308"/><linearGradient id="Áåçûìÿííûé_ãðàäèåíò_154-4" x1="85.37" y1="243.15" x2="85.37" y2="218.07" xlink:href="#Áåçûìÿííûé_ãðàäèåíò_154"/><linearGradient id="Áåçûìÿííûé_ãðàäèåíò_221" x1="109.65" y1="222.9" x2="109.65" y2="220.89" gradientTransform="matrix(1, 0, 0, 1, 11.5, 82.5)" gradientUnits="userSpaceOnUse"><stop offset="0.01" stop-color="#90609a"/><stop offset="1" stop-color="#9783c0"/></linearGradient><linearGradient id="Áåçûìÿííûé_ãðàäèåíò_343" x1="37.06" y1="222.34" x2="82.19" y2="222.34" gradientTransform="matrix(1, 0, 0, 1, 11.5, 82.5)" gradientUnits="userSpaceOnUse"><stop offset="0.01" stop-color="#ae429a"/><stop offset="1" stop-color="#e08368"/></linearGradient><linearGradient id="Áåçûìÿííûé_ãðàäèåíò_308-4" x1="35.84" y1="242.07" x2="80.88" y2="242.07" xlink:href="#Áåçûìÿííûé_ãðàäèåíò_308"/><linearGradient id="Áåçûìÿííûé_ãðàäèåíò_706-2" x1="54.95" y1="198.02" x2="86.63" y2="198.02" xlink:href="#Áåçûìÿííûé_ãðàäèåíò_706"/><linearGradient id="Áåçûìÿííûé_ãðàäèåíò_221-2" x1="93.46" y1="242.5" x2="129.06" y2="242.5" xlink:href="#Áåçûìÿííûé_ãðàäèåíò_221"/><linearGradient id="Áåçûìÿííûé_ãðàäèåíò_565" x1="71.1" y1="198.41" x2="71.1" y2="197.01" gradientTransform="matrix(1, 0, 0, 1, 11.5, 82.5)" gradientUnits="userSpaceOnUse"><stop offset="0" stop-color="#9e4044"/><stop offset="1" stop-color="#a83e36"/></linearGradient><linearGradient id="Áåçûìÿííûé_ãðàäèåíò_565-2" x1="41.29" y1="228.74" x2="41.29" y2="227.15" xlink:href="#Áåçûìÿííûé_ãðàäèåíò_565"/><linearGradient id="Áåçûìÿííûé_ãðàäèåíò_328" x1="37.9" y1="228.84" x2="47.14" y2="228.84" gradientTransform="matrix(1, 0, 0, 1, 11.5, 82.5)" gradientUnits="userSpaceOnUse"><stop offset="0" stop-color="#d7883d"/><stop offset="1"/></linearGradient><linearGradient id="Áåçûìÿííûé_ãðàäèåíò_317-2" x1="381.12" y1="245.08" x2="381.12" y2="192.52" xlink:href="#Áåçûìÿííûé_ãðàäèåíò_317"/><linearGradient id="Áåçûìÿííûé_ãðàäèåíò_324-2" x1="411.4" y1="244.94" x2="411.4" y2="192.83" xlink:href="#Áåçûìÿííûé_ãðàäèåíò_324"/><linearGradient id="Áåçûìÿííûé_ãðàäèåíò_253-2" x1="326.95" y1="239.2" x2="437.05" y2="239.2" xlink:href="#Áåçûìÿííûé_ãðàäèåíò_253"/><linearGradient id="Áåçûìÿííûé_ãðàäèåíò_106-3" x1="345.78" y1="244.62" x2="345.78" y2="190.3" xlink:href="#Áåçûìÿííûé_ãðàäèåíò_106"/><linearGradient id="Áåçûìÿííûé_ãðàäèåíò_106-4" x1="409.87" y1="245.86" x2="409.87" y2="189.61" xlink:href="#Áåçûìÿííûé_ãðàäèåíò_106"/><linearGradient id="Áåçûìÿííûé_ãðàäèåíò_333-2" x1="350.32" y1="244.62" x2="350.32" y2="190.76" xlink:href="#Áåçûìÿííûé_ãðàäèåíò_333"/><linearGradient id="Áåçûìÿííûé_ãðàäèåíò_307-2" x1="337.76" y1="239.62" x2="383.36" y2="239.62" xlink:href="#Áåçûìÿííûé_ãðàäèåíò_307"/><linearGradient id="Áåçûìÿííûé_ãðàäèåíò_313-2" x1="339.82" y1="211.64" x2="386.96" y2="211.64" xlink:href="#Áåçûìÿííûé_ãðàäèåíò_313"/><linearGradient id="Áåçûìÿííûé_ãðàäèåíò_262-5" x1="339.82" y1="215.82" x2="385.28" y2="215.82" xlink:href="#Áåçûìÿííûé_ãðàäèåíò_262"/><linearGradient id="Áåçûìÿííûé_ãðàäèåíò_331-2" x1="423.31" y1="244.63" x2="423.31" y2="193.4" xlink:href="#Áåçûìÿííûé_ãðàäèåíò_331"/><linearGradient id="Áåçûìÿííûé_ãðàäèåíò_262-6" x1="394.86" y1="240.23" x2="430.98" y2="240.23" xlink:href="#Áåçûìÿííûé_ãðàäèåíò_262"/><linearGradient id="Áåçûìÿííûé_ãðàäèåíò_311-2" x1="338.95" y1="220.41" x2="385.28" y2="220.41" xlink:href="#Áåçûìÿííûé_ãðàäèåíò_311"/><linearGradient id="Áåçûìÿííûé_ãðàäèåíò_262-7" x1="395.8" y1="211.72" x2="428.58" y2="211.72" xlink:href="#Áåçûìÿííûé_ãðàäèåíò_262"/><linearGradient id="Áåçûìÿííûé_ãðàäèåíò_262-8" x1="394.53" y1="220.1" x2="428.58" y2="220.1" xlink:href="#Áåçûìÿííûé_ãðàäèåíò_262"/><linearGradient id="Áåçûìÿííûé_ãðàäèåíò_296-2" x1="412.19" y1="216.62" x2="412.19" y2="215.15" xlink:href="#Áåçûìÿííûé_ãðàäèåíò_296"/><linearGradient id="Áåçûìÿííûé_ãðàäèåíò_308-5" x1="360.36" y1="224.15" x2="360.36" y2="207.39" xlink:href="#Áåçûìÿííûé_ãðàäèåíò_308"/><linearGradient id="Áåçûìÿííûé_ãðàäèåíò_327-5" x1="396.85" y1="245.88" x2="396.85" y2="195.17" xlink:href="#Áåçûìÿííûé_ãðàäèåíò_327"/><linearGradient id="Áåçûìÿííûé_ãðàäèåíò_327-6" x1="338.41" y1="234.75" x2="383.36" y2="234.75" xlink:href="#Áåçûìÿííûé_ãðàäèåíò_327"/><linearGradient id="Áåçûìÿííûé_ãðàäèåíò_327-7" x1="329.15" y1="240.44" x2="356.32" y2="193.4" xlink:href="#Áåçûìÿííûé_ãðàäèåíò_327"/><linearGradient id="Áåçûìÿííûé_ãðàäèåíò_706-3" x1="363.8" y1="209.57" x2="379.12" y2="183.04" xlink:href="#Áåçûìÿííûé_ãðàäèåíò_706"/><linearGradient id="Áåçûìÿííûé_ãðàäèåíò_154-5" x1="352.89" y1="220.95" x2="370.63" y2="220.95" xlink:href="#Áåçûìÿííûé_ãðàäèåíò_154"/><linearGradient id="Áåçûìÿííûé_ãðàäèåíò_327-8" x1="359.28" y1="223.88" x2="359.28" y2="207.51" xlink:href="#Áåçûìÿííûé_ãðàäèåíò_327"/><linearGradient id="Áåçûìÿííûé_ãðàäèåíò_308-6" x1="358.72" y1="218.58" x2="358.72" y2="211.95" xlink:href="#Áåçûìÿííûé_ãðàäèåíò_308"/><linearGradient id="Áåçûìÿííûé_ãðàäèåíò_154-6" x1="342.75" y1="207.08" x2="344.84" y2="207.08" xlink:href="#Áåçûìÿííûé_ãðàäèåíò_154"/><linearGradient id="Áåçûìÿííûé_ãðàäèåíò_154-7" x1="331.48" y1="244.41" x2="331.48" y2="231.37" xlink:href="#Áåçûìÿííûé_ãðàäèåíò_154"/><linearGradient id="Áåçûìÿííûé_ãðàäèåíò_362-2" x1="393.59" y1="219.35" x2="425.66" y2="219.35" xlink:href="#Áåçûìÿííûé_ãðàäèåíò_362"/><linearGradient id="Áåçûìÿííûé_ãðàäèåíò_308-7" x1="414.48" y1="245.88" x2="414.48" y2="190.3" xlink:href="#Áåçûìÿííûé_ãðàäèåíò_308"/><linearGradient id="Áåçûìÿííûé_ãðàäèåíò_154-8" x1="387.3" y1="245.79" x2="387.3" y2="220.71" xlink:href="#Áåçûìÿííûé_ãðàäèåíò_154"/><linearGradient id="Áåçûìÿííûé_ãðàäèåíò_221-3" x1="411.57" y1="225.54" x2="411.57" y2="223.52" xlink:href="#Áåçûìÿííûé_ãðàäèåíò_221"/><linearGradient id="Áåçûìÿííûé_ãðàäèåíò_343-2" x1="338.98" y1="224.97" x2="384.11" y2="224.97" xlink:href="#Áåçûìÿííûé_ãðàäèåíò_343"/><linearGradient id="Áåçûìÿííûé_ãðàäèåíò_308-8" x1="337.76" y1="244.71" x2="382.8" y2="244.71" xlink:href="#Áåçûìÿííûé_ãðàäèåíò_308"/><linearGradient id="Áåçûìÿííûé_ãðàäèåíò_706-4" x1="356.88" y1="200.65" x2="388.55" y2="200.65" xlink:href="#Áåçûìÿííûé_ãðàäèåíò_706"/><linearGradient id="Áåçûìÿííûé_ãðàäèåíò_221-4" x1="395.38" y1="245.13" x2="430.98" y2="245.13" xlink:href="#Áåçûìÿííûé_ãðàäèåíò_221"/><linearGradient id="Áåçûìÿííûé_ãðàäèåíò_565-3" x1="373.02" y1="201.04" x2="373.02" y2="199.65" xlink:href="#Áåçûìÿííûé_ãðàäèåíò_565"/><linearGradient id="Áåçûìÿííûé_ãðàäèåíò_565-4" x1="343.21" y1="231.37" x2="343.21" y2="229.78" xlink:href="#Áåçûìÿííûé_ãðàäèåíò_565"/><linearGradient id="Áåçûìÿííûé_ãðàäèåíò_328-2" x1="339.82" y1="231.47" x2="349.06" y2="231.47" xlink:href="#Áåçûìÿííûé_ãðàäèåíò_328"/><clipPath id="clip-path"><path class="cls-1" d="M12.78,106a17.4,17.4,0,0,0-.83,2.36q0,.78-.11,1.55a9.05,9.05,0,0,0,.18,3.5c.35,1.11,1.27,1,2.21,1.36S15.89,116,17,116a8.62,8.62,0,0,0,2.77-.5c1-.29,2-.55,3-.88a12.26,12.26,0,0,0,2.14-1.06,8.4,8.4,0,0,0,2-1.4A5.16,5.16,0,0,0,28,109a10.48,10.48,0,0,0-.11-2.06c-.08-.53-.28-1-.38-1.54a20.32,20.32,0,0,0-.61-3.41c-.43-1.12-1.56-1.73-2.48-2.37-.55-.38-1.05-.81-1.59-1.2s-1.19-.65-1.76-1c-1-.7-2-1.41-3-2.18a1.61,1.61,0,0,0-2.62.44,9.52,9.52,0,0,0-.69,2.42c-.18.71-.38,1.42-.6,2.12s-.68,1.59-.86,2.44c-.13.64-.17,1.27-.3,1.91-.06.31,0,.61-.07.92S12.77,106.2,12.78,106Z"/></clipPath><clipPath id="clip-path-2"><path class="cls-1" d="M14.56,90.84a9.46,9.46,0,0,1-1.12-1.9l.05-.25a5,5,0,0,1,.18-1.74,2.44,2.44,0,0,1,1.48-1.48,7.15,7.15,0,0,1,1.19,0,1.49,1.49,0,0,1,1.4.58,3.24,3.24,0,0,1,.69,1.87c0,.35.12,1.18-.08,1.49-.32.49-1.2.66-1.71.75a11.9,11.9,0,0,1-1.94.07Z"/></clipPath><clipPath id="clip-path-3"><path class="cls-1" d="M481.58,93.34c-.32-2.27-.68-5.35-2.58-7a3.58,3.58,0,0,0-3.42-.8,5.57,5.57,0,0,0-1.85.65,5.71,5.71,0,0,0-1,1.16,27.19,27.19,0,0,1-1.83,2.82,7.59,7.59,0,0,1-1.2,1c-.4.3-1.07.51-1.42.84a4.07,4.07,0,0,0-.88,2.1,6.49,6.49,0,0,0,.2,1.82c.16,1,.23,2,.35,3,.17,1.5.5,2.82,2,3.52.95.44,2,.31,3,.71a6,6,0,0,0,2.37.84c2.27.09,5.16-1.47,5.7-3.84.11-.47.1-.94.24-1.42a6.61,6.61,0,0,0,.34-1.06,7.2,7.2,0,0,1,0-1,3,3,0,0,0,.2-1c0-.5,0-1,0-1.52S481.65,92.57,481.58,93.34Z"/></clipPath><clipPath id="clip-path-4"><path class="cls-1" d="M480.34,296.26c.59-1.82,1.45-4.27.65-6.25a3,3,0,0,0-2.28-1.86,4.67,4.67,0,0,0-1.63-.19,4.77,4.77,0,0,0-1.17.51,22.65,22.65,0,0,1-2.42,1.44,6.39,6.39,0,0,1-1.27.31c-.41.07-1,0-1.37.11a3.41,3.41,0,0,0-1.44,1.26,5.45,5.45,0,0,0-.52,1.45c-.24.81-.56,1.58-.84,2.38-.42,1.19-.67,2.3.2,3.38.55.68,1.42,1,2,1.63s.73,1.1,1.48,1.5c1.68.9,4.42.79,5.7-.79.25-.32.42-.67.7-1a5.51,5.51,0,0,0,.64-.67,6,6,0,0,1,.41-.75,2.53,2.53,0,0,0,.51-.68c.18-.38.4-.75.56-1.14S480.67,295.7,480.34,296.26Z"/></clipPath><clipPath id="clip-path-5"><path class="cls-1" d="M479.05,110.52c-1.88.91-5.1,2.06-5.56,4.57a1.55,1.55,0,0,0,.76,1.62,2.8,2.8,0,0,1,.91,1.39c.42,1,1.24,2.27,2.57,1.73a5.14,5.14,0,0,0,2.17-2.35,9.79,9.79,0,0,0,1.42-4.69c-.07-1.14-1.43-2.11-2.28-2.77Z"/></clipPath></defs><title>1</title><g class="cls-2"><g id="Certificate"><path class="cls-3" d="M11.74,350.84V370s90.18-16.67,234.73-16.67S482.89,370,482.89,370V350.84Z"/><rect class="cls-4" x="4.47" y="8.5" width="485.7" height="342.34"/><path class="cls-5" d="M487.83,210.63a18,18,0,0,1,2.34-1.62v33.42a47.14,47.14,0,0,1-1.9-4.75c-.63-2.15-1.25-4.31-1.9-6.45-1-3.4-2.07-7.39-1.45-11a21.83,21.83,0,0,1,2-4.85,5,5,0,0,0,.62-2.83C487.29,211.41,486.75,211.61,487.83,210.63Z"/><path class="cls-6" d="M285.48,8.5A29.81,29.81,0,0,1,289.72,11c1.49,1,3,2.32,4.93,2,1.22-.21,2.46,0,3.67-.19s2.36-1.26,3.51-1a12,12,0,0,0,2.37.7c1,.06,2-.42,3-.32.61,0,.77.34,1.4.24a4.83,4.83,0,0,0,1.29-.54c1.35-.73,1.93-.48,3.36,0a8,8,0,0,0,3.67.21c1.86-.32,3.16-1.08,5-.32,1.39.59,2.15.17,3.57-.2,1.09-.29,2.16-.17,3.22-.47s1.36.2,2.18.68a5.41,5.41,0,0,0,3.11.75,26,26,0,0,1,4.57.68c2.18.38,4.27-.19,6.4-.5,1.67-.25,3.29,0,5-.16,1.29-.08,2.51-.63,3.81-.32a11.79,11.79,0,0,0,2.75.69,12.82,12.82,0,0,1,2.92.29,4.64,4.64,0,0,0,1.62.11c.69-.12,1.13-.58,1.8-.73,1.14-.26,2.1.41,3.19.63,1.94.4,4.26-.52,6.19-.63,2.82-.16,5.6.7,8.43.72,2.67,0,5-.87,7.56-1.34a9.12,9.12,0,0,1,5.24.57,7.32,7.32,0,0,0,3.84.29c1.59-.23,3-.55,4.51.05.57.23,1.12.55,1.68.79a14.1,14.1,0,0,0,5.21,1.52,23,23,0,0,1,5.67.73,21.68,21.68,0,0,0,4.76,1.18,16.91,16.91,0,0,0,5.46-.79,13.7,13.7,0,0,1,6.08-.12,34.92,34.92,0,0,1,7.5,2.89,22.93,22.93,0,0,0,6.87,1.9c3.6.46,7.21-.07,10.81.32,2.62.28,3.6,1.22,4.88,3.28.8,1.28,1,2.05,2.31,2.73a7.71,7.71,0,0,1,2.47,2,16,16,0,0,0,2.23,2.2,10.46,10.46,0,0,1,1.82,2.64,19,19,0,0,0,1.68,2.71,14.54,14.54,0,0,1,2.28,3.43c.51,1.24.7,2.59,1.2,3.84a30.48,30.48,0,0,1,1.44,4.05A37.68,37.68,0,0,1,477.65,57a5.67,5.67,0,0,0,2.22,4.74,4.86,4.86,0,0,1,1.68,2.62c.49,1.6,1.51,2.86,2.2,4.38a4.38,4.38,0,0,1,.68,2.23c-.06.89-.34,1.68-.34,2.59a20.19,20.19,0,0,0,.49,3.46c.61,3.34-.79,6.73.51,10a9.37,9.37,0,0,0,1.29,2.34c.33.42.91.77,1.09,1.29a3.42,3.42,0,0,1-.66,2.55c-.82,1.3-2.28,2.28-3,3.74-.57,1.23.56,1.78,1.22,2.64a2.63,2.63,0,0,1,.54,2.91c-.25.91-.28,1.84-.46,2.76s-.53,1.85-.78,2.75a11.93,11.93,0,0,0-.27,3.32,58.48,58.48,0,0,1-.3,8.79,8.45,8.45,0,0,0,.27,4.47c.59,1.3,1.36,2.09,1.65,3.56a37.4,37.4,0,0,1,.65,7.16c0,2.17-.4,4.26-.38,6.42,0,4.07-.12,8.1.3,12.14a74.53,74.53,0,0,1,.08,8.06,16.28,16.28,0,0,0,1,5.74A39.54,39.54,0,0,1,489,180.75a32.26,32.26,0,0,1-.3,5.9,16.54,16.54,0,0,0-.08,2.91,19.52,19.52,0,0,0,0,2.54c.12,1,.66,1.8.79,2.75.22,1.56-.31,3-.41,4.48a10.59,10.59,0,0,0,.06,3.42,3.88,3.88,0,0,0,1.09,1.39V8.5Z"/><path class="cls-7" d="M487.94,276c-.23,1.66.62,3.29,1.12,4.81a7.46,7.46,0,0,1-.39,4.81c-.65,2-1.13,4-1.72,6-.35,1.2-1,2.27-1.24,3.5-.54,2.77-2,5-3.51,7.32a10,10,0,0,1-2.65,2.78c-1.45,1-3,1.38-4.28,2.79s-1,3.44-1,5.32c0,.53.25,1.83-.06,2.27-.67.93-3.21.51-4.09.48-1.75-.06-3.64-.76-5.39-.41-.75.15-.91.44-1.44,1.12-.85,1.09-1.38,2.4-2.29,3.45a13.34,13.34,0,0,1-2.07,1.68c-2.34,1.87-5.9,2.84-7.54,5.4a5.52,5.52,0,0,0-1,3.17c0,.65.11,1-.42,1.53-1,1-3.18.67-4.41.7-2,.06-4,.34-5.41,1.8-1,1.07-1.62,2.46-2.63,3.54-2.63,2.83-7.12,1.75-10.6,2.63-1,.26-1.46,1-2.35,1.44-1.5.82-4.08.8-5.73.85-2.25.07-4.83-.41-7,.25a31.69,31.69,0,0,0-3.49,1.65c-3.22,1.41-7.17,1.21-10.54.83-1.74-.19-3.63-.7-5.36-.39a36.28,36.28,0,0,1-5.3.69,44.15,44.15,0,0,1-7.62-.29c-1.65-.22-4-1-5.62-.43-.18.7.24,1.7-.25,2.24-.67.73-2.34.27-3.19.44a22.89,22.89,0,0,1-6.86,0c-1.64-.14-3.32-.4-5-.44a5.06,5.06,0,0,1-2.26-.26c-1.1-.54-.76-1.67-1.27-2.59-.59-1.08-.89-.16-1.7.13-1.12.41-2.73-.39-3.81-.69a8.82,8.82,0,0,0-5,.36,18.85,18.85,0,0,1-4.28,1.16,13.86,13.86,0,0,1-3.39-.37,17.91,17.91,0,0,0-6.48-.21c-2.37.47-4.62,1.33-7,1.36a13.33,13.33,0,0,1-2.09,0c-.4-.06-.71-.29-1.11-.37-1.18-.24-2.24,1-3.38,1.32a8.89,8.89,0,0,1-2.63.17,22.06,22.06,0,0,0-6.14,1,9.12,9.12,0,0,1-6.62-.39c-2.27-1-3.79-.23-6.11.35-1.48.37-2.89.87-4.31.22a9.07,9.07,0,0,0-3.24-1.15c-1.41-.08-2.86,0-4.28,0-2,0-3.94.29-5.92.36-2.62.1-5.13,1.53-7.72,1.49-1.77,0-3.42-.72-5.23-.71s-3.71.33-5.3-.22a10.85,10.85,0,0,0-4.09-.93c-1.94,0-4.21,1-6,.18a7,7,0,0,0-2.2-1,8.81,8.81,0,0,0-2.35.09c-1.62.27-3.48,1.27-5.09.47a2.27,2.27,0,0,0-2-.25,10.29,10.29,0,0,1-2,.1,20.6,20.6,0,0,1-3.48-.69c-1.75-.32-3.36,1-5.16.62-1.32-.3-2.47-1-3.86-1.09-1.73-.11-3.49.06-5.22,0a3.93,3.93,0,0,1-2.33-.86c-1-.57-1.6.27-2.57.58a5.44,5.44,0,0,1-3.43,0,34,34,0,0,0-5.1-1.55,23.14,23.14,0,0,1-4.84-.83c-1.54-.58-2.92-1.2-4.55-.86-1.46.31-2.65-.18-4.08-.3a11.41,11.41,0,0,0-4.3.6c-1.29.39-2.67,1.35-4.06,1.38a13.55,13.55,0,0,1-2.81-.55,11.75,11.75,0,0,0-7.29.87,15.37,15.37,0,0,1-4.59,1.07,22,22,0,0,1-2.8-.34c-1.81-.12-3.49.42-5.28.4a18.72,18.72,0,0,0-4.1.07,32.27,32.27,0,0,0-3.32,1.11,7.27,7.27,0,0,1-2.55.33,20.84,20.84,0,0,1-3.51-.41c-1.36-.22-2.72-.37-4.07-.64a17.81,17.81,0,0,0-2.53-.07,17.7,17.7,0,0,1-1.91-.35,26.37,26.37,0,0,0-4.6-.42c-2.51,0-5,0-7.54,0s-4.81.4-7.25.4a100.23,100.23,0,0,0-12.82,1.09c-4.78.59-10,1.43-14.8.63a48.81,48.81,0,0,1-6.36-1.88c-1.25-.39-2.6-.51-3.87-.79-3-.66-5.58-2.1-8.68-2.43-1.86-.2-3.69.16-5.53-.31-1.65-.42-3.32-.53-4.94-1a54.89,54.89,0,0,1-5.48-2.24,6.92,6.92,0,0,0-4.15,0c-1.54.39-3,.62-4.57,1.07a6.22,6.22,0,0,1-3,.09,6,6,0,0,0-3.21,0,26.67,26.67,0,0,1-4.47,0,5.45,5.45,0,0,1-2.85-.46,5.43,5.43,0,0,1-1.5-1.9A10.75,10.75,0,0,0,30,334.69c-.65-.65-1.53-1-2.21-1.6-.39-.35-.71-.73-1.13-1a3,3,0,0,1-1.13-1.67c-.78-2.25-1.37-4.35-4.17-4.49a8.74,8.74,0,0,1-2.56-.06,3.65,3.65,0,0,1-1.51-1.45c-.36-.54-.87-1-1.23-1.51-1-1.46-3.19-2.77-3.79-4.55-.43-1.26-1.68-2.26-2.28-3.4-.14-.27-.22-.8-.37-1.13a5.23,5.23,0,0,1-.34-1,10.44,10.44,0,0,1-.42-2.54,55.05,55.05,0,0,1,.33-8.63c.41-2.39,1.3-4.77,1.94-7.13.7-2.53,1.33-5,1.91-7.55a14.34,14.34,0,0,0-.61-9C11.4,275.6,10,273.29,10,270.57a17,17,0,0,1,.81-4.16c.37-1.45.61-3,1.12-4.39.9-2.49,2.73-5.3,2.3-8.08-.59-3.73-5.2-5.37-5.32-9.15a11.5,11.5,0,0,1,.76-4.37c.36-1,1.31-2.12,1.17-3.2A5.33,5.33,0,0,0,9.56,235c-.61-.85-.68-1-.36-2a7.88,7.88,0,0,1,.75-1.92c.32-.49.81-.85.88-1.49.11-1-.67-1.59-1.26-2.18s-.66-.62-.66-1.61A4.29,4.29,0,0,1,9.38,224c.33-.75.23-.81-.09-1.5a20.9,20.9,0,0,1-1.43-5.33c-.37-2.35.65-4.64,1.14-6.91.58-2.71.23-5.55.75-8.32a32.49,32.49,0,0,0,.68-6c0-1.64-.41-3.2-.39-4.85A77.1,77.1,0,0,0,9.75,180a24.07,24.07,0,0,1,0-5.88,23.48,23.48,0,0,1,.67-3.62,12.2,12.2,0,0,0,.8-3.32,15.62,15.62,0,0,0,0-3,10.85,10.85,0,0,0-.65-1.72,9.32,9.32,0,0,1-.17-4.77,7.22,7.22,0,0,0-.19-3.1,14.32,14.32,0,0,1-.49-3.8,7.15,7.15,0,0,1,.36-3c.26-.62,1-1.22,1.11-1.87a3,3,0,0,0-.7-2.37,3.91,3.91,0,0,1-1.18-2.73c.12-1.43,1.44-2.65,2-3.94a2.68,2.68,0,0,0,.27-2c-.12-.28-.52-.46-.63-.75a5.41,5.41,0,0,1,0-2.56c.23-.94,1-1.68,1.1-2.66a5.41,5.41,0,0,0-1.44-3.48,9.87,9.87,0,0,1-1.65-2.66,20.62,20.62,0,0,1-1.06-2.59A4.5,4.5,0,0,1,8,117.85a22.39,22.39,0,0,0,1-7.15c0-1.09.33-2,.4-3.08,0-.76-.09-1.52,0-2.28.08-1.29.41-2.46.4-3.79s.33-2.62.39-4c0-1.06,0-2.14,0-3.21,0-3.32-.38-6.55-.38-9.86,0-3-.15-6.06,0-9.07.07-1.45.4-2.79.4-4.29a14.16,14.16,0,0,1,.08-2.91,39.83,39.83,0,0,1,.76-4.58c.34-1.08.72-2.27,1.14-3.32a18.67,18.67,0,0,0,1.38-3.86A24.21,24.21,0,0,1,14.5,52a9.35,9.35,0,0,1,1.9-3,10,10,0,0,1,2.36-1.66c1.05-.66,1.56-1.8,2.37-2.68.54-.59,1.11-1.16,1.61-1.78a52.75,52.75,0,0,1,3.6-4.18A6.53,6.53,0,0,1,29,36.73a11,11,0,0,1,2.29,0c2,0,4.47.32,6.36-.44,1.34-.55,2.51-1.88,3.81-2.61a18,18,0,0,0,2.26-1.21c.44-.34.62-.77,1.2-1s1.5.07,2.22-.14c0-.2.08-.41.13-.62,1.06,0,1.85-1.09,2.31-2,.35-.67.43-1,1.11-1.43.45-.26,1-.5,1.45-.76,1-.56,1.17-.65,1.59-1.59.69-1.55,1.7-2.09,3.25-2.69s3-.38,4.53-.64a13.13,13.13,0,0,0,5.83-2.86,22.59,22.59,0,0,0,2.31-2.07,7.8,7.8,0,0,1,.58-.57c.78-.6,5.39-1,5.39-1h3c.73,0,.88-.24,1.5-.39,1.37-.33,2.66.45,4,.4a23.62,23.62,0,0,0,3.6-.68A27.23,27.23,0,0,1,92,14.42c4.31-.16,8.56-1.2,12.9-1.17,3.66,0,7.31,0,11,0,3.4,0,6.4-1,9.64-1.86,2.76-.75,4.77-.39,7.45.35s4.87-.25,7.42-.82a7,7,0,0,1,4.93.42,8.31,8.31,0,0,0,2,.74c1.31.22,2.54-.58,3.79-.3.79.18,1.53,1,2.26,1s1.58-.89,2.58-.74c.78.11,1.25.72,2.07.82a10.64,10.64,0,0,0,1.12,0,18.45,18.45,0,0,1,4.87.28,7.85,7.85,0,0,0,3.91.2,34.77,34.77,0,0,1,5.9-.89c2.54,0,4.92.84,7.31,1.55,2.08.62,4.37,1.69,6.57,1.52a21.74,21.74,0,0,0,3.18-.78,18,18,0,0,1,4.27-.35c2.41,0,4.77-.7,7.18-.79,2.6-.09,5.23,0,7.83,0a9.29,9.29,0,0,1,4,.36c1.38.63,2.38,1.26,4,1.19,2.07-.09,4-1.15,6-1.2a20.47,20.47,0,0,0,5.42-.41c1.88-.52,3.22-1.83,5.29-1.39,1.5.32,2.44,1.1,3.9.27,1.91-1.09,3.79-2.61,6-3.24a28.4,28.4,0,0,1,4.95-.72H4.47V350.84h485.7V269.57c-.11.33-.23.66-.36,1A22.6,22.6,0,0,0,487.94,276Z"/><path class="cls-8" d="M39.07,323.37l72.45,1.43,31.52-1s-.07-48.34-21.35-51.52l-60.28,0S38.69,276.46,39.07,323.37Z"/><path class="cls-9" d="M104.78,324.67s-5.44-51.19,15.85-52.13c0,0,19.85-1.48,17.71,51.28Z"/><path class="cls-10" d="M36.88,324.18l1.28-11.24,1.28-.57L41,313.48s24.91,2.95,34.68,3.26,27.22-2.4,27.22-2.4l6,.25,30.77,1.89,2.93-.82,2.77.81,1.64,7.61-41.67,1.51Z"/><path class="cls-11" d="M74.48,272.3l-7.06.32s-9,4.94-10.42,7.12S51.39,291.27,50.82,294s-1.44,30.42-1.44,30.42l-1.69,0-10.81-.22s2.44-21.84,3.72-31.6c0,0,3.39-11.62,10.38-18l13.34-4.52,9,.51.44.66Z"/><polygon class="cls-12" points="73.8 271.26 58.88 274.33 50.99 274.61 64.33 270.09 73.36 270.6 73.8 271.26"/><path class="cls-13" d="M147,324.08l-3.25-.06-1.15-8.36s-.79-9.93-1.46-14.27-5.2-17-8-21.76-9.54-6.6-9.54-6.6c-1.91-.21-11.23,3.54-13.51,7.75s-5.38,18.94-5.55,21.45.84,23.36.84,23.36l-3.48-.08-9.22-.19s1.27-20.41,1.59-22.57,2.39-17,4.2-22a13.62,13.62,0,0,1,2.27-3.93h0c4-4.93,10.62-7.51,10.62-7.51l12.18.67h0l0,0c.49.27,8.45,4.61,10.56,7.09s9.14,19.34,9.91,24.22c.74,4.72,2.82,21.57,3,22.68A.61.61,0,0,1,147,324.08Z"/><path class="cls-14" d="M74.48,272.3l-7.06.32s-9,4.94-10.42,7.12S51.39,291.28,50.83,294s-1.44,30.42-1.44,30.42H47.69s-1.74-.19-1.74-.21c0-1.13,1.81-23.46,2.89-30.74,1-7,7.08-16.82,10-19.16,2-1.59,10.17-4.25,14.48-3.72Z"/><path class="cls-15" d="M47.69,324.44l.64-11s21.46,2.34,28.54,2.61a118.85,118.85,0,0,0,16.41-.94l-.66,10.19Z"/><path class="cls-16" d="M49.71,295s.64-5.49,2-8.59l45.08.53-1.67,9.4L71,295Z"/><polygon class="cls-17" points="49.72 295.04 50.61 296.02 95.11 296.81 95.18 296.38 72.45 294.36 59.53 294.38 49.72 295.04"/><path class="cls-18" d="M137.22,324.31s.68-15.74-1.07-25.82-5.84-19.52-7.05-21.14-4.76-3.61-6.41-4.24c0,0,1,0,1.36.07,1.15.14,5.33,1.65,9.2,5.75S141.66,299,142,302.32,143.73,324,143.73,324Z"/><path class="cls-19" d="M104.86,324.67l-.08-10.34s3.61.08,5.24.26,23.56,1.09,24.91,1.18a40.67,40.67,0,0,1,5.3,1.3l.69,7.23-35.59,1.29Z"/><path class="cls-20" d="M104.78,316s19.84.62,23.64.62,11.81.41,11.81.41a14,14,0,0,0-5.19-1.51c-2.16,0-11.34-.79-19-.94s-11.21-.28-11.21-.28Z"/><path class="cls-21" d="M49.36,295.63l25.15,0,20.67.78s-1,5.77-1.16,8.36l-13.48-.37-27.67-1.24h-4A35,35,0,0,1,49.36,295.63Z"/><polygon class="cls-22" points="107.66 287.34 136.09 288.83 138.47 295.51 116.13 295.08 105.69 295.56 107.66 287.34"/><path class="cls-23" d="M104.47,304.11l34-.9v-6.89l-32.78-.76s-.94,4.33-1.14,5.68A14.69,14.69,0,0,0,104.47,304.11Z"/><polygon class="cls-24" points="138.47 295.51 137.62 296.3 105.69 295.56 115.75 294.87 133.71 295.38 138.47 295.51"/><path class="cls-25" d="M80.58,297.23a1.62,1.62,0,0,1,0,.28,7.94,7.94,0,0,1-5,5.35,18.37,18.37,0,0,1-8.82.88,9.24,9.24,0,0,1-3.88-2.22,17,17,0,0,1-2.85-3.37s6.86-10.24,9.24-10.76a14.43,14.43,0,0,1,8,.84C78.79,289.15,80.63,296.43,80.58,297.23Z"/><path class="cls-12" d="M123.56,270c-11.34,3.72-13.1,6.19-13.1,6.19l-9.77.65h0c4-4.93,10.62-7.51,10.62-7.51l12.18.67Z"/><path class="cls-12" d="M51.76,286.45l2.27-.83,12,.4s10.93.46,14.57.39S97.06,286,97.06,286l-.21,1L57,286.6l-3.29.6-1.09-.62Z"/><path class="cls-26" d="M112.12,274.89l-3.4,1.43-4.31,12.1s-2.65,9.27-2.93,12c-.44,4.29.36,25.17.36,25.17s1-24.09,1.17-25.78c.44-3.93,4.19-17.68,4.19-17.68l2.75-5.31Z"/><path class="cls-27" d="M48.33,313.47l1.46-.49,25.77,2.14,17.73,0s-5.9,1.23-17.41.9S48.33,313.47,48.33,313.47Z"/><path class="cls-28" d="M46,324.23l-.63-7.51,2-15.23a110.64,110.64,0,0,1,2.42-14.69c1.52-5.42,8.31-12.43,8.31-12.43A29.81,29.81,0,0,1,64.13,272s-4.87,1.83-6.12,3.17-6.28,9.16-7.59,12.72C48.3,293.63,45.81,322.17,46,324.23Z"/><path class="cls-29" d="M57,279.74l33.52-.34H99a16.83,16.83,0,0,1,6.63-7l-38.24.22S59,277.16,57,279.74Z"/><polygon class="cls-20" points="136.09 288.83 135.28 289.4 119.75 288.86 109.39 288.29 107.66 287.34 136.09 288.83"/><polygon class="cls-20" points="105.69 295.56 105.43 296.8 122.48 296.34 138.47 296.32 105.69 295.56"/><path class="cls-30" d="M80.53,297.51a7.94,7.94,0,0,1-5,5.35,18.37,18.37,0,0,1-8.82.88,9.24,9.24,0,0,1-3.88-2.22l15.94-3.67Z"/><path class="cls-31" d="M78.56,298.57c-1.36,3.48-9.37,6.21-13.34,4.64-2.52-1-5.61-4.95-5.66-6s2-7.85,5.28-9.18c1.58-.65,8.82-1.37,10.74,0a8,8,0,0,1,2.1,3.49,0,0,0,0,1,0,0C78.61,294.08,79.12,297.15,78.56,298.57Z"/><path class="cls-32" d="M70.23,298.25l0,.11H66.85l.68-3s-1.25-1.16-1-2.36,1.55-1.4,2.65-1.21a2.05,2.05,0,0,1,1.42.78c.62,1.05-1.27,2.79-1.27,2.79Z"/><path class="cls-33" d="M69.34,295.35l.89,2.9H68.49l.68-3s-1.25-1.16-1-2.36a1.5,1.5,0,0,1,1-1.09,2.05,2.05,0,0,1,1.42.78C71.23,293.61,69.34,295.35,69.34,295.35Z"/><path class="cls-12" d="M77.68,291.56a7.6,7.6,0,0,0-3.54-3.34c-2.48-1.08-8.38.55-9.3.75-1.7.38-3.44,4.19-3.44,4.19l-1.83,4.11c-.05-1,2-7.85,5.28-9.18,1.58-.65,8.82-1.37,10.74,0A8,8,0,0,1,77.68,291.56Z"/><polygon class="cls-34" points="52.63 286.58 54.72 286.58 53.72 287.19 52.63 286.58"/><polygon class="cls-35" points="38.36 311.2 45.32 316.71 45.96 324.23 36.88 324.18 38.36 311.2"/><polygon class="cls-36" points="48.33 313.47 51.06 324.22 47.69 324.44 48.33 313.47"/><path class="cls-37" d="M113.34,325.3l-2.49-9.07-3.15-1.79V304l2.18-.14.18-7.2-1-1.25,1.46-.2.31-6.84-.33-1.15s6-8.15,12.65-8.43,8,2.51,8,2.51l4.46,1.15-1.42-5.36-9.78-4.58-10.9,1.59-6.71,11.42-3.22,21.35,1.29,18.72Z"/><path class="cls-38" d="M147,324.08l-3.26-.06-1.15-8.36s-.79-9.93-1.46-14.27-5.2-17-8-21.76-9.57-6.5-9.57-6.5c-1.91-.21-11.2,3.44-13.48,7.65s-5.38,18.94-5.54,21.45.84,23.35.84,23.35l-3.47,0s0,0,0-.09c0-1.54.21-21.44.67-26.9.48-5.69,5.13-19.26,7.94-22.41s13.07-6.2,13.07-6.2h0c.52.24,8.12,1.58,12.19,6.59,6.18,7.61,7.84,20.53,8.82,23.44s2.33,22.73,2.42,24C147,324.06,147,324.08,147,324.08Z"/><path class="cls-39" d="M94.22,302.76l7.27-2.31.36,25.08-9.22-.19S93.57,308.85,94.22,302.76Z"/><polygon class="cls-40" points="104.47 304.11 104.5 305.27 136.95 305.22 138.48 303.21 104.47 304.11"/><path class="cls-41" d="M48.88,303.13,50,306.49l29.49-1.19,14.35,1.14.14-1.7-28.33-1.07S54,302.8,48.88,303.13Z"/><path class="cls-42" d="M98.79,279.89a14.39,14.39,0,0,1,1.71-2.14c.34-.14,8.05-.63,8.29-.54s.16,1.33.16,1.33a8.77,8.77,0,0,1,3.18-3.65s-1.71.6-2.34.74-7.48-.09-7.48-.09l.62-1.2S99.67,277.32,98.79,279.89Z"/><path class="cls-42" d="M55.64,273l-2.85,1.22s5.57-.06,5.92-.23,3.2-1.1,3.2-1.1a21.17,21.17,0,0,0-3.42,1.84,22,22,0,0,0-1.72,2.07s.5-1.44.52-1.69-5.12-.67-5.81-.39a12,12,0,0,0-2,1.36s1-1.1,1.51-1.5A34.67,34.67,0,0,1,55.64,273Z"/><path class="cls-12" d="M41,291.46s.1.24,1.77.85a24.72,24.72,0,0,0,4.92.86H40.53A16.35,16.35,0,0,1,41,291.46Z"/><path class="cls-43" d="M102.87,296.18s-2.6,4.08-6.5,4.51c-1.43.16-1.57-1.93-1.57-1.93l-.78,6a7.06,7.06,0,0,1,1.17-2.3,57.71,57.71,0,0,1,6.27-1.68l.87,1.15S102.57,297.41,102.87,296.18Z"/><path class="cls-12" d="M73.31,314.71l-3.85.86s8.84.6,11.14.54,5.94-.27,5.94-.27l.77-.71S76.77,315.57,73.31,314.71Z"/><polygon class="cls-44" points="47.69 324.44 52.68 323.64 68.19 324.01 90.11 324.38 92.73 323.58 92.62 325.33 47.69 324.44"/><polygon class="cls-45" points="66.75 279.64 77.66 280.91 82.89 280.9 92.8 280.79 98.28 281.19 98.42 280.78 86.91 279.7 66.75 279.64"/><polygon class="cls-46" points="140.91 324.3 134.29 324.09 121.99 324.48 115.26 324.65 105.32 325.59 140.91 324.3"/><polygon class="cls-47" points="98.42 280.78 81.85 279.71 73.27 279.72 66.75 279.64 99.03 279.39 98.42 280.78"/><polygon class="cls-48" points="49.92 309.59 56.34 310.61 49.92 311.19 49.92 309.59"/><polygon class="cls-49" points="49.92 311.19 49.74 311.96 55.29 311.56 58.98 311.17 56.34 310.61 49.92 311.19"/><path class="cls-50" d="M341,325.56,413.45,327,445,326s-.07-48.34-21.35-51.52l-60.28,0S340.63,278.65,341,325.56Z"/><path class="cls-51" d="M406.71,326.86s-5.44-51.19,15.85-52.13c0,0,19.85-1.48,17.71,51.28Z"/><path class="cls-52" d="M338.81,326.37l1.28-11.24,1.28-.57,1.56,1.11s24.91,2.95,34.68,3.26,27.22-2.4,27.22-2.4l6,.25,30.77,1.89,2.93-.82,2.77.81,1.64,7.61-41.67,1.51Z"/><path class="cls-53" d="M376.41,274.49l-7.06.32s-9,4.94-10.42,7.12-5.61,11.53-6.17,14.27-1.44,30.42-1.44,30.42l-1.69,0-10.81-.22s2.44-21.84,3.72-31.6c0,0,3.39-11.62,10.38-18l13.34-4.52,9,.51.44.66Z"/><polygon class="cls-12" points="375.73 273.45 360.81 276.52 352.92 276.8 366.26 272.28 375.29 272.79 375.73 273.45"/><path class="cls-54" d="M448.92,326.27l-3.25-.06-1.15-8.36s-.79-9.93-1.46-14.27-5.2-17-8-21.76-9.54-6.6-9.54-6.6c-1.91-.21-11.23,3.54-13.51,7.75s-5.38,18.94-5.55,21.45.84,23.36.84,23.36l-3.48-.08-9.22-.19s1.27-20.41,1.59-22.57,2.39-17,4.2-22a13.62,13.62,0,0,1,2.27-3.93h0c4-4.93,10.62-7.51,10.62-7.51l12.18.67h0l0,0c.49.27,8.45,4.61,10.56,7.09s9.14,19.34,9.91,24.22c.74,4.72,2.82,21.57,3,22.68A.61.61,0,0,1,448.92,326.27Z"/><path class="cls-55" d="M376.41,274.49l-7.06.32s-9,4.94-10.42,7.12-5.61,11.53-6.17,14.27-1.44,30.42-1.44,30.42h-1.69s-1.74-.19-1.74-.21c0-1.13,1.81-23.46,2.89-30.74,1-7,7.08-16.82,10-19.16,2-1.59,10.17-4.25,14.48-3.72Z"/><path class="cls-56" d="M349.62,326.63l.64-11s21.46,2.34,28.54,2.61a118.85,118.85,0,0,0,16.41-.94l-.66,10.19Z"/><path class="cls-57" d="M351.65,297.23s.64-5.49,2-8.59l45.08.53-1.67,9.4-24.2-1.37Z"/><polygon class="cls-58" points="351.64 297.23 352.54 298.21 397.04 299 397.11 298.57 374.38 296.55 361.46 296.57 351.64 297.23"/><path class="cls-59" d="M439.15,326.5s.68-15.74-1.07-25.82-5.84-19.52-7.05-21.14-4.76-3.61-6.41-4.24c0,0,1,0,1.36.07,1.15.14,5.33,1.65,9.2,5.75s8.41,20.05,8.74,23.39,1.74,21.71,1.74,21.71Z"/><path class="cls-60" d="M406.79,326.86l-.08-10.34s3.61.08,5.24.26,23.56,1.09,24.91,1.18a40.67,40.67,0,0,1,5.3,1.3l.69,7.23-35.59,1.29Z"/><path class="cls-20" d="M406.71,318.23s19.84.62,23.64.62,11.81.41,11.81.41a14,14,0,0,0-5.19-1.51c-2.16,0-11.34-.79-19-.94s-11.21-.28-11.21-.28Z"/><path class="cls-61" d="M351.29,297.82l25.15,0,20.67.78s-1,5.77-1.16,8.36l-13.48-.37-27.67-1.24h-4A35,35,0,0,1,351.29,297.82Z"/><polygon class="cls-62" points="409.59 289.53 438.02 291.02 440.4 297.7 418.06 297.27 407.62 297.75 409.59 289.53"/><path class="cls-63" d="M406.4,306.3l34-.9v-6.89l-32.78-.76s-.94,4.33-1.14,5.68A14.69,14.69,0,0,0,406.4,306.3Z"/><polygon class="cls-64" points="440.4 297.7 439.55 298.49 407.62 297.75 417.68 297.06 435.64 297.57 440.4 297.7"/><path class="cls-65" d="M382.51,299.42a1.62,1.62,0,0,1,0,.28,7.94,7.94,0,0,1-5,5.35,18.37,18.37,0,0,1-8.82.88,9.24,9.24,0,0,1-3.88-2.22,17,17,0,0,1-2.85-3.37s6.86-10.24,9.24-10.76a14.43,14.43,0,0,1,8,.84C380.72,291.34,382.56,298.62,382.51,299.42Z"/><path class="cls-12" d="M425.49,272.21c-11.34,3.72-13.1,6.19-13.1,6.19l-9.77.65h0c4-4.93,10.62-7.51,10.62-7.51l12.18.67Z"/><path class="cls-12" d="M353.69,288.64l2.27-.83,12,.4s10.93.46,14.57.39,16.49-.43,16.49-.43l-.21,1-39.84-.38-3.29.6-1.09-.62Z"/><path class="cls-66" d="M414.06,277.08l-3.4,1.43-4.31,12.1s-2.65,9.27-2.93,12c-.44,4.29.36,25.17.36,25.17s1-24.09,1.17-25.78c.44-3.93,4.19-17.68,4.19-17.68l2.75-5.31Z"/><path class="cls-67" d="M350.26,315.66l1.46-.49,25.77,2.14,17.73,0s-5.9,1.23-17.41.9S350.26,315.66,350.26,315.66Z"/><path class="cls-68" d="M347.89,326.42l-.63-7.51,2-15.23A110.64,110.64,0,0,1,351.63,289c1.52-5.42,8.31-12.43,8.31-12.43a29.81,29.81,0,0,1,6.12-2.35s-4.87,1.83-6.12,3.17-6.28,9.16-7.59,12.72C350.23,295.82,347.74,324.36,347.89,326.42Z"/><path class="cls-69" d="M358.93,281.93l33.52-.34H401a16.83,16.83,0,0,1,6.63-7l-38.24.22S361,279.35,358.93,281.93Z"/><polygon class="cls-20" points="438.02 291.02 437.21 291.59 421.69 291.05 411.32 290.48 409.59 289.53 438.02 291.02"/><polygon class="cls-20" points="407.62 297.75 407.36 298.99 424.41 298.53 440.4 298.51 407.62 297.75"/><path class="cls-70" d="M382.46,299.7a7.94,7.94,0,0,1-5,5.35,18.37,18.37,0,0,1-8.82.88,9.24,9.24,0,0,1-3.88-2.22L380.67,300Z"/><path class="cls-71" d="M380.5,300.76c-1.36,3.48-9.37,6.21-13.34,4.64-2.52-1-5.61-4.95-5.66-6s2-7.85,5.28-9.18c1.58-.65,8.82-1.37,10.74,0a8,8,0,0,1,2.1,3.49,0,0,0,0,1,0,0C380.54,296.27,381.05,299.34,380.5,300.76Z"/><path class="cls-72" d="M372.16,300.44l0,.11h-3.42l.68-3s-1.25-1.16-1-2.36,1.55-1.4,2.65-1.21a2.05,2.05,0,0,1,1.42.78c.62,1.05-1.27,2.79-1.27,2.79Z"/><path class="cls-33" d="M371.27,297.54l.89,2.9h-1.74l.68-3s-1.25-1.16-1-2.36a1.5,1.5,0,0,1,1-1.09,2.05,2.05,0,0,1,1.42.78C373.16,295.8,371.27,297.54,371.27,297.54Z"/><path class="cls-12" d="M379.61,293.75a7.6,7.6,0,0,0-3.54-3.34c-2.48-1.08-8.38.55-9.3.75-1.7.38-3.44,4.19-3.44,4.19l-1.83,4.11c-.05-1,2-7.85,5.28-9.18,1.58-.65,8.82-1.37,10.74,0A8,8,0,0,1,379.61,293.75Z"/><polygon class="cls-73" points="354.56 288.77 356.65 288.77 355.65 289.38 354.56 288.77"/><polygon class="cls-74" points="340.29 313.39 347.25 318.9 347.89 326.42 338.81 326.37 340.29 313.39"/><polygon class="cls-36" points="350.26 315.66 352.99 326.41 349.63 326.63 350.26 315.66"/><path class="cls-75" d="M415.27,327.49l-2.49-9.07-3.15-1.79V306.21l2.18-.14.18-7.2-1-1.25,1.46-.2.31-6.84-.33-1.15s6-8.15,12.65-8.43,8,2.51,8,2.51l4.46,1.15L436,279.3l-9.78-4.58-10.9,1.59-6.71,11.42-3.22,21.35,1.29,18.72Z"/><path class="cls-76" d="M448.92,326.27l-3.26-.06-1.15-8.36s-.79-9.93-1.46-14.27-5.2-17-8-21.76-9.57-6.5-9.57-6.5c-1.91-.21-11.2,3.44-13.48,7.65s-5.38,18.94-5.54,21.45.84,23.35.84,23.35l-3.47,0s0,0,0-.09c0-1.54.21-21.44.67-26.9.48-5.69,5.13-19.26,7.94-22.41s13.07-6.2,13.07-6.2h0c.52.24,8.12,1.58,12.19,6.59,6.18,7.61,7.84,20.53,8.82,23.44s2.33,22.73,2.42,24C448.92,326.25,448.92,326.27,448.92,326.27Z"/><path class="cls-77" d="M396.15,304.95l7.27-2.31.36,25.08-9.22-.19S395.5,311,396.15,304.95Z"/><polygon class="cls-78" points="406.4 306.3 406.43 307.46 438.88 307.41 440.41 305.4 406.4 306.3"/><path class="cls-79" d="M350.82,305.32l1.16,3.36,29.49-1.19,14.35,1.14.14-1.7-28.33-1.07S355.9,305,350.82,305.32Z"/><path class="cls-42" d="M400.72,282.08a14.39,14.39,0,0,1,1.71-2.14c.34-.14,8.05-.63,8.29-.54s.16,1.33.16,1.33a8.77,8.77,0,0,1,3.18-3.65s-1.71.6-2.34.74-7.48-.09-7.48-.09l.62-1.2S401.6,279.51,400.72,282.08Z"/><path class="cls-42" d="M357.58,275.22l-2.85,1.22s5.57-.06,5.92-.23,3.2-1.1,3.2-1.1a21.17,21.17,0,0,0-3.42,1.84A22,22,0,0,0,358.7,279s.5-1.44.52-1.69-5.12-.67-5.81-.39a12,12,0,0,0-2,1.36s1-1.1,1.51-1.5A34.67,34.67,0,0,1,357.58,275.22Z"/><path class="cls-12" d="M342.9,293.65s.1.24,1.77.85a24.72,24.72,0,0,0,4.92.86h-7.12A16.35,16.35,0,0,1,342.9,293.65Z"/><path class="cls-43" d="M404.8,298.37s-2.6,4.08-6.5,4.51c-1.43.16-1.57-1.93-1.57-1.93l-.78,6a7.06,7.06,0,0,1,1.17-2.3,57.71,57.71,0,0,1,6.27-1.68l.87,1.15S404.5,299.6,404.8,298.37Z"/><path class="cls-12" d="M375.25,316.9l-3.85.86s8.84.6,11.14.54,5.94-.27,5.94-.27l.77-.71S378.7,317.76,375.25,316.9Z"/><polygon class="cls-80" points="349.63 326.63 354.62 325.83 370.12 326.2 392.04 326.57 394.67 325.77 394.56 327.52 349.63 326.63"/><polygon class="cls-81" points="368.68 281.83 379.59 283.1 384.82 283.09 394.73 282.98 400.21 283.38 400.35 282.97 388.84 281.89 368.68 281.83"/><polygon class="cls-82" points="442.85 326.49 436.23 326.28 423.92 326.67 417.19 326.84 407.25 327.78 442.85 326.49"/><polygon class="cls-83" points="400.35 282.97 383.78 281.9 375.19 281.91 368.68 281.83 400.96 281.58 400.35 282.97"/><polygon class="cls-84" points="351.85 311.78 358.27 312.8 351.85 313.38 351.85 311.78"/><polygon class="cls-85" points="351.85 313.38 351.67 314.15 357.22 313.75 360.91 313.36 358.27 312.8 351.85 313.38"/><path class="cls-86" d="M305.24,8.47s173.94-.14,180.95,3.08,4,215.11,4,215.11-.25,113.63-1.77,119.19-82.54,5-82.54,5h84.31V8.5Z"/><g class="cls-87"><rect class="cls-88" x="11.66" y="94.48" width="16.34" height="21.57"/><ellipse class="cls-88" cx="19.87" cy="105.38" rx="10.8" ry="7.59" transform="translate(-3.04 0.62) rotate(-1.66)"/><ellipse class="cls-89" cx="19.87" cy="105.38" rx="10.59" ry="7.44" transform="translate(-3.04 0.62) rotate(-1.66)"/><ellipse class="cls-90" cx="19.87" cy="105.38" rx="10.39" ry="7.29" transform="translate(-3.04 0.62) rotate(-1.66)"/><ellipse class="cls-91" cx="19.87" cy="105.38" rx="10.18" ry="7.15" transform="translate(-3.04 0.62) rotate(-1.66)"/><ellipse class="cls-92" cx="19.87" cy="105.38" rx="9.97" ry="7" transform="translate(-3.04 0.62) rotate(-1.66)"/><ellipse class="cls-93" cx="19.87" cy="105.38" rx="9.76" ry="6.86" transform="translate(-3.04 0.62) rotate(-1.66)"/><ellipse class="cls-94" cx="19.87" cy="105.38" rx="9.55" ry="6.71" transform="translate(-3.04 0.62) rotate(-1.66)"/><ellipse class="cls-95" cx="19.87" cy="105.38" rx="9.35" ry="6.56" transform="translate(-3.04 0.62) rotate(-1.66)"/><ellipse class="cls-96" cx="19.87" cy="105.38" rx="9.14" ry="6.42" transform="translate(-3.04 0.62) rotate(-1.66)"/><ellipse class="cls-97" cx="19.87" cy="105.38" rx="8.93" ry="6.27" transform="translate(-3.04 0.62) rotate(-1.66)"/><ellipse class="cls-98" cx="19.87" cy="105.38" rx="8.72" ry="6.12" transform="translate(-3.04 0.62) rotate(-1.66)"/><ellipse class="cls-99" cx="19.87" cy="105.38" rx="8.51" ry="5.98" transform="translate(-3.04 0.62) rotate(-1.66)"/><ellipse class="cls-100" cx="19.87" cy="105.38" rx="8.31" ry="5.83" transform="translate(-3.04 0.62) rotate(-1.66)"/><ellipse class="cls-101" cx="19.87" cy="105.38" rx="8.1" ry="5.69" transform="translate(-3.04 0.62) rotate(-1.66)"/><ellipse class="cls-102" cx="19.87" cy="105.38" rx="7.89" ry="5.54" transform="translate(-3.04 0.62) rotate(-1.66)"/><ellipse class="cls-103" cx="19.87" cy="105.38" rx="7.68" ry="5.39" transform="translate(-3.04 0.62) rotate(-1.66)"/><ellipse class="cls-104" cx="19.87" cy="105.38" rx="7.47" ry="5.25" transform="translate(-3.04 0.62) rotate(-1.66)"/><ellipse class="cls-105" cx="19.87" cy="105.38" rx="7.27" ry="5.1" transform="translate(-3.04 0.62) rotate(-1.66)"/><ellipse class="cls-106" cx="19.87" cy="105.38" rx="7.06" ry="4.96" transform="translate(-3.04 0.62) rotate(-1.66)"/><ellipse class="cls-106" cx="19.87" cy="105.38" rx="6.85" ry="4.81" transform="translate(-3.04 0.62) rotate(-1.66)"/><ellipse class="cls-106" cx="19.87" cy="105.38" rx="3.42" ry="2.4" transform="translate(-3.04 0.62) rotate(-1.66)"/></g><g class="cls-107"><rect class="cls-88" x="13.45" y="85.4" width="5.12" height="5.44"/><ellipse class="cls-88" cx="15.96" cy="88.14" rx="2.98" ry="2.09" transform="translate(-2.54 0.5) rotate(-1.66)"/><ellipse class="cls-89" cx="15.96" cy="88.14" rx="2.92" ry="2.05" transform="translate(-2.54 0.5) rotate(-1.66)"/><ellipse class="cls-90" cx="15.96" cy="88.14" rx="2.86" ry="2.01" transform="translate(-2.55 0.5) rotate(-1.66)"/><ellipse class="cls-91" cx="15.96" cy="88.14" rx="2.81" ry="1.97" transform="translate(-2.55 0.5) rotate(-1.66)"/><ellipse class="cls-92" cx="15.96" cy="88.14" rx="2.75" ry="1.93" transform="translate(-2.54 0.5) rotate(-1.66)"/><ellipse class="cls-93" cx="15.96" cy="88.14" rx="2.69" ry="1.89" transform="translate(-2.54 0.5) rotate(-1.66)"/><ellipse class="cls-94" cx="15.96" cy="88.14" rx="2.64" ry="1.85" transform="translate(-2.54 0.5) rotate(-1.66)"/><ellipse class="cls-95" cx="15.96" cy="88.14" rx="2.58" ry="1.81" transform="translate(-2.55 0.5) rotate(-1.66)"/><ellipse class="cls-96" cx="15.96" cy="88.14" rx="2.52" ry="1.77" transform="translate(-2.55 0.5) rotate(-1.66)"/><ellipse class="cls-97" cx="15.96" cy="88.14" rx="2.46" ry="1.73" transform="translate(-2.54 0.5) rotate(-1.66)"/><ellipse class="cls-98" cx="15.96" cy="88.14" rx="2.41" ry="1.69" transform="translate(-2.54 0.5) rotate(-1.66)"/><ellipse class="cls-99" cx="15.96" cy="88.14" rx="2.35" ry="1.65" transform="translate(-2.54 0.5) rotate(-1.66)"/><ellipse class="cls-100" cx="15.96" cy="88.14" rx="2.29" ry="1.61" transform="matrix(1, -0.03, 0.03, 1, -2.55, 0.5)"/><ellipse class="cls-101" cx="15.96" cy="88.14" rx="2.23" ry="1.57" transform="translate(-2.55 0.5) rotate(-1.66)"/><ellipse class="cls-102" cx="15.96" cy="88.14" rx="2.18" ry="1.53" transform="translate(-2.54 0.5) rotate(-1.66)"/><ellipse class="cls-103" cx="15.96" cy="88.14" rx="2.12" ry="1.49" transform="translate(-2.54 0.5) rotate(-1.66)"/><ellipse class="cls-104" cx="15.96" cy="88.14" rx="2.06" ry="1.45" transform="translate(-2.54 0.5) rotate(-1.66)"/><ellipse class="cls-105" cx="15.96" cy="88.14" rx="2" ry="1.41" transform="translate(-2.54 0.5) rotate(-1.66)"/><ellipse class="cls-106" cx="15.96" cy="88.14" rx="1.95" ry="1.37" transform="translate(-2.55 0.5) rotate(-1.66)"/><ellipse class="cls-106" cx="15.96" cy="88.14" rx="1.89" ry="1.33" transform="translate(-2.54 0.5) rotate(-1.66)"/><ellipse class="cls-106" cx="15.96" cy="88.14" rx="0.94" ry="0.66" transform="translate(-2.55 0.5) rotate(-1.66)"/></g><g class="cls-108"><rect class="cls-88" x="467.34" y="85.12" width="14.53" height="18.92"/><ellipse class="cls-88" cx="474.62" cy="94.65" rx="9.51" ry="6.68" transform="translate(-2.54 13.78) rotate(-1.66)"/><ellipse class="cls-89" cx="474.62" cy="94.65" rx="9.33" ry="6.55" transform="translate(-2.54 13.78) rotate(-1.66)"/><ellipse class="cls-90" cx="474.62" cy="94.65" rx="9.15" ry="6.42" transform="translate(-2.54 13.77) rotate(-1.66)"/><ellipse class="cls-91" cx="474.62" cy="94.65" rx="8.96" ry="6.29" transform="translate(-2.54 13.77) rotate(-1.66)"/><ellipse class="cls-92" cx="474.62" cy="94.65" rx="8.78" ry="6.16" transform="translate(-2.54 13.76) rotate(-1.66)"/><ellipse class="cls-93" cx="474.62" cy="94.65" rx="8.6" ry="6.04" transform="translate(-2.54 13.76) rotate(-1.66)"/><ellipse class="cls-94" cx="474.62" cy="94.65" rx="8.41" ry="5.91" transform="translate(-2.54 13.78) rotate(-1.66)"/><ellipse class="cls-95" cx="474.62" cy="94.65" rx="8.23" ry="5.78" transform="translate(-2.54 13.78) rotate(-1.66)"/><ellipse class="cls-96" cx="474.62" cy="94.65" rx="8.05" ry="5.65" transform="translate(-2.54 13.78) rotate(-1.66)"/><ellipse class="cls-97" cx="474.62" cy="94.65" rx="7.86" ry="5.52" transform="translate(-2.54 13.77) rotate(-1.66)"/><ellipse class="cls-98" cx="474.62" cy="94.65" rx="7.68" ry="5.39" transform="translate(-2.54 13.77) rotate(-1.66)"/><ellipse class="cls-99" cx="474.62" cy="94.65" rx="7.5" ry="5.26" transform="translate(-2.54 13.76) rotate(-1.66)"/><ellipse class="cls-100" cx="474.62" cy="94.65" rx="7.31" ry="5.14" transform="translate(-2.54 13.77) rotate(-1.66)"/><ellipse class="cls-101" cx="474.62" cy="94.65" rx="7.13" ry="5.01" transform="translate(-2.54 13.79) rotate(-1.66)"/><ellipse class="cls-102" cx="474.62" cy="94.65" rx="6.95" ry="4.88" transform="translate(-2.54 13.78) rotate(-1.66)"/><ellipse class="cls-103" cx="474.62" cy="94.65" rx="6.76" ry="4.75" transform="translate(-2.54 13.78) rotate(-1.66)"/><ellipse class="cls-104" cx="474.62" cy="94.65" rx="6.58" ry="4.62" transform="translate(-2.54 13.77) rotate(-1.66)"/><ellipse class="cls-105" cx="474.62" cy="94.65" rx="6.4" ry="4.49" transform="translate(-2.54 13.77) rotate(-1.66)"/><ellipse class="cls-106" cx="474.62" cy="94.65" rx="6.21" ry="4.36" transform="translate(-2.54 13.76) rotate(-1.66)"/><ellipse class="cls-106" cx="474.62" cy="94.65" rx="6.03" ry="4.24" transform="translate(-2.54 13.76) rotate(-1.66)"/><ellipse class="cls-106" cx="474.62" cy="94.65" rx="3.02" ry="2.12" transform="translate(-2.54 13.8) rotate(-1.66)"/></g><g class="cls-109"><rect class="cls-88" x="467.39" y="287.84" width="14.4" height="15"/><ellipse class="cls-88" cx="474.62" cy="294.68" rx="5.59" ry="7.96" transform="translate(10.11 605.06) rotate(-65.59)"/><ellipse class="cls-89" cx="474.62" cy="294.68" rx="5.48" ry="7.81" transform="translate(10.11 605.06) rotate(-65.59)"/><ellipse class="cls-90" cx="474.62" cy="294.68" rx="5.38" ry="7.66" transform="translate(10.12 605.07) rotate(-65.59)"/><ellipse class="cls-91" cx="474.62" cy="294.68" rx="5.27" ry="7.5" transform="translate(10.12 605.07) rotate(-65.59)"/><ellipse class="cls-92" cx="474.62" cy="294.68" rx="5.16" ry="7.35" transform="translate(10.12 605.08) rotate(-65.59)"/><ellipse class="cls-93" cx="474.62" cy="294.68" rx="5.05" ry="7.2" transform="translate(10.13 605.08) rotate(-65.59)"/><ellipse class="cls-94" cx="474.62" cy="294.68" rx="4.95" ry="7.04" transform="translate(10.11 605.06) rotate(-65.59)"/><ellipse class="cls-95" cx="474.62" cy="294.68" rx="4.84" ry="6.89" transform="translate(10.11 605.06) rotate(-65.59)"/><ellipse class="cls-96" cx="474.62" cy="294.68" rx="4.73" ry="6.74" transform="translate(10.12 605.07) rotate(-65.59)"/><ellipse class="cls-97" cx="474.62" cy="294.68" rx="4.62" ry="6.58" transform="translate(10.09 605.03) rotate(-65.58)"/><ellipse class="cls-98" cx="474.62" cy="294.68" rx="4.52" ry="6.43" transform="translate(10.1 605.04) rotate(-65.58)"/><ellipse class="cls-99" cx="474.62" cy="294.68" rx="4.41" ry="6.28" transform="translate(10.1 605.04) rotate(-65.58)"/><ellipse class="cls-100" cx="474.62" cy="294.68" rx="4.3" ry="6.12" transform="translate(10.1 605.05) rotate(-65.58)"/><ellipse class="cls-101" cx="474.62" cy="294.68" rx="4.19" ry="5.97" transform="translate(10.11 605.05) rotate(-65.58)"/><ellipse class="cls-102" cx="474.62" cy="294.68" rx="4.08" ry="5.82" transform="translate(10.11 605.06) rotate(-65.59)"/><ellipse class="cls-103" cx="474.62" cy="294.68" rx="3.98" ry="5.66" transform="translate(10.12 605.06) rotate(-65.59)"/><ellipse class="cls-104" cx="474.62" cy="294.68" rx="3.87" ry="5.51" transform="translate(10.12 605.07) rotate(-65.59)"/><ellipse class="cls-105" cx="474.62" cy="294.68" rx="3.76" ry="5.36" transform="translate(10.12 605.08) rotate(-65.59)"/><ellipse class="cls-106" cx="474.62" cy="294.68" rx="3.65" ry="5.2" transform="translate(10.13 605.09) rotate(-65.59)"/><ellipse class="cls-106" cx="474.62" cy="294.68" rx="3.55" ry="5.05" transform="translate(10.11 605.05) rotate(-65.58)"/><ellipse class="cls-106" cx="474.62" cy="294.68" rx="1.77" ry="2.52" transform="translate(10.07 605) rotate(-65.58)"/></g><g class="cls-110"><rect class="cls-88" x="473.35" y="110.01" width="8.08" height="10.36"/><ellipse class="cls-88" cx="477.4" cy="114.99" rx="5.12" ry="3.6" transform="translate(-3.13 13.86) rotate(-1.66)"/><ellipse class="cls-89" cx="477.4" cy="114.99" rx="5.02" ry="3.53" transform="translate(-3.13 13.86) rotate(-1.66)"/><ellipse class="cls-90" cx="477.4" cy="114.99" rx="4.92" ry="3.46" transform="translate(-3.12 13.85) rotate(-1.66)"/><ellipse class="cls-91" cx="477.4" cy="114.99" rx="4.83" ry="3.39" transform="translate(-3.12 13.84) rotate(-1.66)"/><ellipse class="cls-92" cx="477.4" cy="114.99" rx="4.73" ry="3.32" transform="translate(-3.13 13.89) rotate(-1.66)"/><ellipse class="cls-93" cx="477.4" cy="114.99" rx="4.63" ry="3.25" transform="translate(-3.13 13.87) rotate(-1.66)"/><ellipse class="cls-94" cx="477.4" cy="114.99" rx="4.53" ry="3.18" transform="translate(-3.13 13.87) rotate(-1.66)"/><ellipse class="cls-95" cx="477.4" cy="114.99" rx="4.43" ry="3.11" transform="translate(-3.13 13.86) rotate(-1.66)"/><ellipse class="cls-96" cx="477.4" cy="114.99" rx="4.33" ry="3.04" transform="translate(-3.13 13.85) rotate(-1.66)"/><ellipse class="cls-97" cx="477.4" cy="114.99" rx="4.23" ry="2.97" transform="translate(-3.12 13.84) rotate(-1.66)"/><ellipse class="cls-98" cx="477.4" cy="114.99" rx="4.13" ry="2.9" transform="translate(-3.12 13.83) rotate(-1.65)"/><ellipse class="cls-99" cx="477.4" cy="114.99" rx="4.04" ry="2.83" transform="translate(-3.13 13.88) rotate(-1.66)"/><ellipse class="cls-100" cx="477.4" cy="114.99" rx="3.94" ry="2.76" transform="translate(-3.13 13.87) rotate(-1.66)"/><ellipse class="cls-101" cx="477.4" cy="114.99" rx="3.84" ry="2.7" transform="translate(-3.13 13.86) rotate(-1.66)"/><ellipse class="cls-102" cx="477.4" cy="114.99" rx="3.74" ry="2.63" transform="translate(-3.13 13.85) rotate(-1.66)"/><ellipse class="cls-103" cx="477.4" cy="114.99" rx="3.64" ry="2.56" transform="translate(-3.12 13.84) rotate(-1.66)"/><ellipse class="cls-104" cx="477.4" cy="114.99" rx="3.54" ry="2.49" transform="translate(-3.12 13.83) rotate(-1.65)"/><ellipse class="cls-105" cx="477.4" cy="114.99" rx="3.44" ry="2.42" transform="translate(-3.13 13.89) rotate(-1.66)"/><ellipse class="cls-106" cx="477.4" cy="114.99" rx="3.35" ry="2.35" transform="translate(-3.13 13.87) rotate(-1.66)"/><ellipse class="cls-106" cx="477.4" cy="114.99" rx="3.25" ry="2.28" transform="translate(-3.13 13.87) rotate(-1.66)"/><ellipse class="cls-106" cx="477.4" cy="114.99" rx="1.62" ry="1.14" transform="matrix(1, -0.03, 0.03, 1, -3.13, 13.9)"/></g><path class="cls-106" d="M397.84,17.77a16.51,16.51,0,0,0,4.08,3.45c.25-.52.85-.22,1.27-.41a7.14,7.14,0,0,0,1.26-1c.6-.46.84-.67.69-1.43a5,5,0,0,0-2.81-3.08,4.9,4.9,0,0,0-4-.14c-1.91.91-1,2.35-.07,3.63Z"/></g></g></svg>