<?xml version="1.0" encoding="utf-8"?>
<!-- Generator: Adobe Illustrator 21.0.0, SVG Export Plug-In . SVG Version: 6.00 Build 0)  -->
<svg version="1.1" id="Layer_1" xmlns="http://www.w3.org/2000/svg" xmlns:xlink="http://www.w3.org/1999/xlink" x="0px" y="0px"
	 viewBox="0 0 57 52" style="enable-background:new 0 0 57 52;" xml:space="preserve">
<style type="text/css">
	.st0{fill:#20C5BA;}
</style>
<path class="st0" d="M38.7,3.7v-1c0-0.8-0.7-1.5-1.5-1.5s-1.5,0.7-1.5,1.5v1h-7.1v-1c0-0.8-0.7-1.5-1.5-1.5s-1.5,0.7-1.5,1.5v1h-6.9
	V2.9c0-0.8-0.7-1.5-1.5-1.5s-1.5,0.7-1.5,1.5v0.9C9.8,4.4,5.2,9.4,5.2,15.4v18.9c0,6.4,5.2,11.7,11.7,11.7h21.6
	c6.4,0,11.7-5.2,11.7-11.7V15.4C50.2,9,45,3.8,38.7,3.7z M15.6,6.8v0.8c0,0.8,0.7,1.5,1.5,1.5s1.5-0.7,1.5-1.5V6.7h6.9v0.8
	C25.5,8.3,26.2,9,27,9s1.5-0.7,1.5-1.5V6.7h7.1v0.8c0,0.8,0.7,1.5,1.5,1.5s1.5-0.7,1.5-1.5V6.7c4.7,0.1,8.5,3.9,8.5,8.7v1.4h-39
	v-1.4C8.2,11,11.4,7.4,15.6,6.8z M38.5,43H16.9c-4.8,0-8.7-3.9-8.7-8.7V19.8h39v14.6C47.2,39.1,43.3,43,38.5,43z"/>
</svg>
