<?xml version="1.0" encoding="utf-8"?>
<!-- Generator: Adobe Illustrator 21.0.0, SVG Export Plug-In . SVG Version: 6.00 Build 0)  -->
<svg version="1.1" id="Layer_1" xmlns="http://www.w3.org/2000/svg" xmlns:xlink="http://www.w3.org/1999/xlink" x="0px" y="0px"
	 viewBox="0 0 46 56" style="enable-background:new 0 0 46 56;" xml:space="preserve">
<style type="text/css">
	.st0{fill:#20C5BA;}
</style>
<g>
	<path class="st0" d="M35.3,50.5H12c-5.8,0-10.6-4.7-10.6-10.6V18.6C1.5,12.8,6.2,8.1,12,8.1h7.4c2.9,0,5.3,2.4,5.3,5.3
		c0,1.3,1,2.3,2.3,2.3h8.3c5.8,0,10.6,4.7,10.6,10.6v13.7C45.9,45.8,41.2,50.5,35.3,50.5z M12,11.1c-4.2,0-7.6,3.4-7.6,7.6v21.3
		c0,4.2,3.4,7.6,7.6,7.6h23.3c4.2,0,7.6-3.4,7.6-7.6V26.2c0-4.2-3.4-7.6-7.6-7.6H27c-2.9,0-5.3-2.4-5.3-5.3c0-1.3-1-2.3-2.3-2.3H12z
		"/>
</g>
</svg>
