<?xml version="1.0" encoding="utf-8"?>
<!-- Generator: Adobe Illustrator 21.0.0, SVG Export Plug-In . SVG Version: 6.00 Build 0)  -->
<svg version="1.1" id="Layer_1" xmlns="http://www.w3.org/2000/svg" xmlns:xlink="http://www.w3.org/1999/xlink" x="0px" y="0px"
	 viewBox="0 0 52 52" style="enable-background:new 0 0 52 52;" xml:space="preserve">
<style type="text/css">
	.st0{fill:#2E2842;}
</style>
<g>
	<path d="M16.8,6.1c-4.5,0.5-7.7,2-9.5,4.2c-2.2,2.8-2.6,5.9-3,8.7l-0.1,0.6C3.4,25.4,3.7,31.1,5,37c0.3,1.1,0.6,2.6,1.4,4
		c0,0,0,0,0,0c0.9,1.7,2.1,2.9,3.7,3.8c2.5,1.4,5.8,1.7,8.6,1.9c3,0.2,6.5,0.3,10.2,0.2c1.4,0,3-0.1,4.5-0.2c3.1-0.2,7-0.6,10.2-2.1
		c4.4-2.1,5.5-5.5,5.9-7.8c0.6-3.5,1.1-6.9,1.1-10.3c0-0.1,0-0.2,0-0.2c0-3.1-0.4-6.4-1.3-10.3c-0.6-2.7-1.5-5.5-4-7.4
		C42.6,6.4,38.7,6,34.8,5.8C29.4,5.6,23,5.3,16.8,6.1z M34.6,8.4c3.3,0.2,6.7,0.5,8.7,2c1.9,1.5,2.6,3.9,3,6
		c0.8,3.9,1.3,7.1,1.2,10.1c0,3.3-0.5,6.6-1,10c-0.5,3-1.8,4.8-4.3,5.9c-2.7,1.3-6.3,1.6-9,1.8c-1.5,0.1-3.1,0.1-4.4,0.2
		c-3.5,0.1-7-0.1-9.9-0.2c-2.5-0.1-5.3-0.4-7.2-1.5c-1.1-0.6-1.9-1.5-2.6-2.7c-0.6-1.2-0.9-2.4-1.2-3.4c-1.3-5.6-1.5-11.1-0.7-16.7
		l0.1-0.6c0.4-2.6,0.7-5.4,2.5-7.6c1.3-1.6,3.8-2.6,7.4-3.1C23.2,7.9,29.3,8.1,34.6,8.4z"/>
	<path d="M17.2,21.6c-0.6,0.5-0.6,1.3,0,1.8l9,7.6c0.3,0.3,0.7,0.4,1.1,0.4c0.4,0,0.8-0.1,1.1-0.4l8.9-7.7c0.3-0.3,0.4-0.6,0.4-0.9
		c0-0.3-0.2-0.7-0.4-0.9c-0.6-0.5-1.5-0.5-2.1,0l-7.8,6.8l-7.9-6.7C18.7,21.1,17.8,21.1,17.2,21.6z"/>
</g>
</svg>
