<?xml version="1.0" encoding="utf-8"?>
<!-- Generator: Adobe Illustrator 21.0.0, SVG Export Plug-In . SVG Version: 6.00 Build 0)  -->
<svg version="1.1" id="Layer_1" xmlns="http://www.w3.org/2000/svg" xmlns:xlink="http://www.w3.org/1999/xlink" x="0px" y="0px"
	 viewBox="0 0 65 46" style="enable-background:new 0 0 65 46;" xml:space="preserve">
<style type="text/css">
	.st0{fill:#20C5BA;}
</style>
<g>
	<path d="M13.5,3.9c-4.4,0-8,3.6-8,8s3.6,8,8,8s8-3.6,8-8S17.9,3.9,13.5,3.9z M13.5,16.9c-2.8,0-5-2.2-5-5s2.2-5,5-5s5,2.2,5,5
		S16.2,16.9,13.5,16.9z"/>
	<path d="M28.1,8.8h26.7c0.8,0,1.5-0.7,1.5-1.5s-0.7-1.5-1.5-1.5H28.1c-0.8,0-1.5,0.7-1.5,1.5S27.3,8.8,28.1,8.8z"/>
	<path d="M28.1,18.1h19.3c0.8,0,1.5-0.7,1.5-1.5s-0.7-1.5-1.5-1.5H28.1c-0.8,0-1.5,0.7-1.5,1.5S27.3,18.1,28.1,18.1z"/>
	<path d="M13.5,26.2c-4.4,0-8,3.6-8,8s3.6,8,8,8s8-3.6,8-8S17.9,26.2,13.5,26.2z M13.5,39.2c-2.8,0-5-2.2-5-5s2.2-5,5-5s5,2.2,5,5
		S16.2,39.2,13.5,39.2z"/>
	<path d="M54.8,28.1H28.1c-0.8,0-1.5,0.7-1.5,1.5s0.7,1.5,1.5,1.5h26.7c0.8,0,1.5-0.7,1.5-1.5S55.7,28.1,54.8,28.1z"/>
	<path d="M47.5,37.4H28.1c-0.8,0-1.5,0.7-1.5,1.5s0.7,1.5,1.5,1.5h19.3c0.8,0,1.5-0.7,1.5-1.5S48.3,37.4,47.5,37.4z"/>
</g>
</svg>
