<?xml version="1.0" encoding="utf-8"?>
<!-- Generator: Adobe Illustrator 21.0.0, SVG Export Plug-In . SVG Version: 6.00 Build 0)  -->
<svg version="1.1" id="Layer_1" xmlns="http://www.w3.org/2000/svg" xmlns:xlink="http://www.w3.org/1999/xlink" x="0px" y="0px"
	 viewBox="0 0 49 44" style="enable-background:new 0 0 49 44;" xml:space="preserve">
<style type="text/css">
	.st0{fill:#20C5BA;}
</style>
<g>
	<path class="st0" d="M34.2,44.4c-0.9,0-1.7-0.2-2.5-0.6l-6.5-3.4c-0.7-0.4-1.5-0.4-2.2,0l-6.5,3.4c-1.8,1-4,0.8-5.7-0.4
		c-1.7-1.2-2.5-3.2-2.1-5.3l1.3-7.3c0.1-0.8-0.1-1.6-0.7-2.1l-5.3-5.2c-1.5-1.4-2-3.6-1.4-5.5c0.6-2,2.3-3.4,4.4-3.7l7.3-1.1
		c0.8-0.1,1.5-0.6,1.8-1.3l3.3-6.6c0.9-1.9,2.8-3,4.8-3c2.1,0,3.9,1.2,4.8,3l3.3,6.6c0.3,0.7,1,1.2,1.8,1.3l7.3,1.1
		c2,0.3,3.7,1.7,4.4,3.7c0.6,2,0.1,4.1-1.4,5.5l-5.3,5.2c-0.6,0.6-0.8,1.3-0.7,2.1l1.3,7.3c0.3,2-0.5,4.1-2.1,5.3
		C36.4,44.1,35.3,44.4,34.2,44.4z M24,37.1c0.9,0,1.7,0.2,2.5,0.6l6.5,3.4c0.8,0.4,1.8,0.4,2.5-0.2c0.8-0.5,1.1-1.4,1-2.3l-1.3-7.3
		c-0.3-1.8,0.3-3.5,1.6-4.8l5.3-5.2c0.7-0.7,0.9-1.6,0.6-2.5s-1-1.5-1.9-1.6l-7.3-1.1c-1.8-0.3-3.3-1.4-4.1-3l-3.3-6.6
		c-0.4-0.8-1.2-1.3-2.2-1.3s-1.7,0.5-2.2,1.3l-3.3,6.6c-0.8,1.6-2.3,2.7-4.1,3l-7.3,1.1c-0.9,0.1-1.6,0.7-1.9,1.6
		c-0.3,0.9-0.1,1.8,0.6,2.5l5.3,5.2c1.3,1.2,1.9,3,1.6,4.8l-1.3,7.3c-0.2,0.9,0.2,1.8,1,2.3c0.8,0.5,1.7,0.6,2.5,0.2l6.5-3.4
		C22.3,37.3,23.1,37.1,24,37.1z"/>
</g>
</svg>
