<?xml version="1.0" encoding="utf-8"?>
<!-- Generator: Adobe Illustrator 21.0.0, SVG Export Plug-In . SVG Version: 6.00 Build 0)  -->
<svg version="1.1" id="Layer_1" xmlns="http://www.w3.org/2000/svg" xmlns:xlink="http://www.w3.org/1999/xlink" x="0px" y="0px"
	 viewBox="0 0 80 60" style="enable-background:new 0 0 80 60;" xml:space="preserve">
<style type="text/css">
	.st0{fill:#20C5BA;}
</style>
<g>
	<path class="st0" d="M21.9,28.7c7.4,0,13.4-6,13.4-13.4S29.3,2,21.9,2S8.6,8,8.6,15.3S14.6,28.7,21.9,28.7z M21.9,5
		c5.7,0,10.4,4.6,10.4,10.4s-4.6,10.4-10.4,10.4S11.6,21,11.6,15.3S16.2,5,21.9,5z"/>
	<path class="st0" d="M33.4,34.6h-23c-5.3,0-9.5,4.3-9.5,9.5v1c0,5.3,4.3,9.5,9.5,9.5h23c5.3,0,9.5-4.3,9.5-9.5v-1
		C43,38.9,38.7,34.6,33.4,34.6z M40,45.1c0,3.6-2.9,6.5-6.5,6.5h-23c-3.6,0-6.5-2.9-6.5-6.5v-1c0-3.6,2.9-6.5,6.5-6.5h23
		c3.6,0,6.5,2.9,6.5,6.5V45.1z"/>
</g>
<path class="st0" d="M72.1,33.1H50.2v-4c0-3.6,1.2-6.2,3.7-7.9c2.8-1.9,7.6-2.4,10.9-1.1c0.6,0.2,1.1,0.5,1.6,0.8
	c2.1,1.3,3,3.2,3.2,6c0,0.6,0.7,1.2,1.6,1.1c0.8,0,1.5-0.6,1.4-1.2c-0.1-2.2-0.7-5.4-4.2-7.7c-0.7-0.4-1.4-0.8-2.2-1.1
	c-4.4-1.7-10.5-1.1-14.2,1.5c-3.1,2.2-4.7,5.4-4.7,9.6v4c-4.1,0.2-7.3,2.8-7.3,6v8.2c0,4,4.2,7.2,9.3,7.2h21.4
	c5.1,0,9.3-3.2,9.3-7.2v-8.2C79.9,35.8,76.4,33.1,72.1,33.1z M76.9,47.4c0,2.7-2.8,4.9-6.3,4.9H49.2c-3.5,0-6.3-2.2-6.3-4.9v-8.2
	c0-2.1,2.2-3.7,4.8-3.7h24.4c2.7,0,4.8,1.7,4.8,3.7V47.4z"/>
</svg>
