<?xml version="1.0" encoding="utf-8"?>
<!-- Generator: Adobe Illustrator 21.0.0, SVG Export Plug-In . SVG Version: 6.00 Build 0)  -->
<svg version="1.1" id="Layer_1" xmlns="http://www.w3.org/2000/svg" xmlns:xlink="http://www.w3.org/1999/xlink" x="0px" y="0px"
	 viewBox="0 0 59 61" style="enable-background:new 0 0 59 61;" xml:space="preserve">
<style type="text/css">
	.st0{fill:#2E2842;}
</style>
<path d="M43.6,27.9l0-8.2c-0.1-2.8-0.7-6.9-4.2-9.9c-0.7-0.5-1.4-1-2.2-1.4C32.8,6.2,26.7,7,22.9,10.3c-3.1,2.8-4.7,7-4.7,12.4v5.2
	c-4.1,0.3-7.3,3.7-7.3,7.8v10.6c0,5.1,4.2,9.3,9.3,9.3h21.4c5.1,0,9.3-4.2,9.3-9.3V35.7C50.9,31.6,47.7,28.2,43.6,27.9z M24.9,12.5
	c2.8-2.5,7.6-3.1,10.9-1.5c0.6,0.3,1.1,0.6,1.6,1.1c2.1,1.7,3,4.1,3.2,7.6v8.1H21.2v-5.2C21.2,18.1,22.5,14.7,24.9,12.5z M47.9,46.3
	c0,3.5-2.8,6.3-6.3,6.3H20.2c-3.5,0-6.3-2.8-6.3-6.3V35.7c0-2.7,2.2-4.8,4.8-4.8h22.5c0.3,0.2,0.6,0.3,0.9,0.3s0.7-0.1,0.9-0.3h0.1
	c2.7,0,4.8,2.2,4.8,4.8V46.3z"/>
</svg>
