<?xml version="1.0" encoding="utf-8"?>
<!-- Generator: Adobe Illustrator 21.0.0, SVG Export Plug-In . SVG Version: 6.00 Build 0)  -->
<svg version="1.1" id="Layer_1" xmlns="http://www.w3.org/2000/svg" xmlns:xlink="http://www.w3.org/1999/xlink" x="0px" y="0px"
	 viewBox="0 0 61 60" style="enable-background:new 0 0 61 60;" xml:space="preserve">
<style type="text/css">
	.st0{fill:#20C5BA;}
</style>
<g>
	<path class="st0" d="M56.1,13.8c-0.5-3.3-1.9-5.6-4.2-6.9c-2.7-1.5-5.7-1.8-8.4-2.1L43,4.7c-5.6-0.6-11.1-0.5-16.8,0.4
		c-1.1,0.2-2.5,0.4-3.9,0.9c-1.7,0.6-2.9,1.5-3.8,2.6c-1.6,2-1.9,4.7-2,6.9l0,0.4c-0.2,2.2-0.2,4.3-0.2,6.3c0,0.9,0.1,1.9,0.1,2.9
		c0.2,2.2,0.6,5,2.1,7.3c1.6,2.6,4.2,3.1,6.2,3.4c1.1,0.1,15.2,0.2,21.9,0l7.2,5.6c0.3,0.2,0.6,0.3,0.9,0.3c0.2,0,0.4,0,0.6-0.1
		c0.5-0.2,0.8-0.7,0.9-1.3C56.1,39.4,56.8,17.9,56.1,13.8z M53.2,37.3l-5.3-4.1c-0.3-0.2-0.6-0.3-0.9-0.3c0,0,0,0,0,0
		c-6.6,0.2-21.1,0.1-22.1,0c-2.1-0.2-3.2-0.8-4-2c-1.1-1.8-1.5-4.1-1.6-5.9c-0.1-0.9-0.1-1.9-0.1-2.8c-0.1-1.9,0-3.8,0.2-5.9l0-0.4
		c0.2-1.9,0.3-3.9,1.4-5.2c0.6-0.7,1.4-1.2,2.5-1.7c1.1-0.4,2.3-0.6,3.3-0.8c5.4-0.9,10.7-1,16.1-0.4l0.6,0.1
		c2.5,0.3,5.1,0.5,7.3,1.7c1.4,0.8,2.3,2.4,2.7,4.8C53.6,17,53.4,29.9,53.2,37.3z"/>
	<path class="st0" d="M42.4,40.5c-0.7-0.4-1.6-0.2-2.1,0.5c-0.8,1.2-1.9,1.8-4,2c-1,0.1-15.5,0.2-22.1,0c-0.3,0-0.7,0.1-1,0.3
		l-5.3,4.1c-0.2-7.4-0.4-20.2,0-23c0.4-2.7,1.2-4.2,2.5-4.7c0.8-0.3,1.2-1.2,0.9-1.9c-0.3-0.8-1.2-1.2-1.9-0.9
		c-3.5,1.3-4.2,5.6-4.4,7c-0.7,4.1,0,25.6,0,26.5c0,0.6,0.3,1.1,0.9,1.3c0.2,0.1,0.4,0.1,0.6,0.1c0.3,0,0.7-0.1,0.9-0.3l7.2-5.6
		c6.7,0.2,20.8,0.1,21.9,0c2-0.2,4.6-0.8,6.2-3.4C43.4,41.9,43.1,40.9,42.4,40.5z"/>
	<path class="st0" d="M44.4,14.4H26.7c-0.8,0-1.5,0.7-1.5,1.5s0.7,1.5,1.5,1.5h17.8c0.8,0,1.5-0.7,1.5-1.5S45.2,14.4,44.4,14.4z"/>
	<path class="st0" d="M34.2,22.7h-7.5c-0.8,0-1.5,0.7-1.5,1.5s0.7,1.5,1.5,1.5h7.5c0.8,0,1.5-0.7,1.5-1.5S35,22.7,34.2,22.7z"/>
</g>
</svg>
