<?xml version="1.0" encoding="utf-8"?>
<!-- Generator: Adobe Illustrator 21.0.0, SVG Export Plug-In . SVG Version: 6.00 Build 0)  -->
<svg version="1.1" id="Layer_1" xmlns="http://www.w3.org/2000/svg" xmlns:xlink="http://www.w3.org/1999/xlink" x="0px" y="0px"
	 viewBox="0 0 48 50" style="enable-background:new 0 0 48 50;" xml:space="preserve">
<style type="text/css">
	.st0{fill:#2E2842;}
</style>
<g>
	<path d="M14.5,45.6c-1.2,0-2.5-0.3-3.6-1c-2.3-1.3-3.6-3.6-3.6-6.2V14.9c0-2.6,1.4-5,3.6-6.2c2.3-1.3,5-1.3,7.2,0.1L38,20.6
		c2.2,1.3,3.5,3.6,3.5,6.2S40.2,31.7,38,33L18.1,44.6C17,45.3,15.7,45.6,14.5,45.6z M14.5,10.7c-0.7,0-1.4,0.2-2.1,0.6
		c-1.3,0.8-2.1,2.1-2.1,3.6v23.5c0,1.5,0.8,2.9,2.1,3.6c1.3,0.8,2.9,0.7,4.2,0l19.9-11.7c1.3-0.8,2.1-2.1,2.1-3.6
		c0-1.5-0.8-2.8-2-3.6L16.6,11.3C15.9,10.9,15.2,10.7,14.5,10.7z"/>
</g>
</svg>
