<?xml version="1.0" encoding="utf-8"?>
<!-- Generator: Adobe Illustrator 21.0.0, SVG Export Plug-In . SVG Version: 6.00 Build 0)  -->
<svg version="1.1" id="Layer_1" xmlns="http://www.w3.org/2000/svg" xmlns:xlink="http://www.w3.org/1999/xlink" x="0px" y="0px"
	 viewBox="0 0 62 52" style="enable-background:new 0 0 62 52;" xml:space="preserve">
<style type="text/css">
	.st0{fill:#20C5BA;}
</style>
<g>
	<path class="st0" d="M28.1,13.5c0.8,0,1.5-0.7,1.5-1.5v-1.6c0-0.8-0.7-1.5-1.5-1.5s-1.5,0.7-1.5,1.5V12
		C26.6,12.8,27.3,13.5,28.1,13.5z"/>
	<path class="st0" d="M53.5,16.3c-0.6-4.6-2.2-7.8-4.8-9.5c-3.2-2.2-6.9-2.6-10.1-3l-0.7-0.1C32.7,3,23.8,3.9,17.2,4.7
		c-0.4,0-0.7,0.2-0.9,0.5L6.7,15.9c-0.2,0.3-0.4,0.6-0.4,0.9c-0.2,2.9-0.4,8.4-0.4,11.3l0,1.5C6,31,6,32.5,6.1,33.9
		c0,0.4,0,0.9,0.1,1.3c0.2,4.1,0.4,8.7,4.3,11.6c2.5,1.9,6.1,2.9,10.9,3l1,0c2.6,0.1,5.3,0.1,8,0.1c3.3,0,6.6-0.1,9.9-0.5
		c3.1-0.3,7.5-0.8,10.3-3.9c2.5-2.7,2.8-7.6,3.1-11.1l0-0.1C54,28.9,54.3,22.5,53.5,16.3z M37.5,6.6l0.7,0.1c0.1,0,0.3,0,0.4,0v6.4
		c0,0.7-0.5,1.3-1.1,1.3H24.7c-0.6,0-1.1-0.6-1.1-1.3V7C28.7,6.5,34.1,6.2,37.5,6.6z M39.9,46.5c-5.8,0.6-11.8,0.5-17.5,0.3l-1,0
		c-0.6,0-1.3-0.1-1.9-0.1V32.5c0-1.4,1.3-2.6,3-2.6h17c1.6,0,3,1.2,3,2.6v13.6C41.7,46.3,40.8,46.4,39.9,46.5z M50.6,34.1l0,0.1
		c-0.2,3.1-0.5,7.4-2.3,9.3c-0.7,0.8-1.7,1.4-2.7,1.8V32.5c0-3.1-2.7-5.6-6-5.6h-17c-3.3,0-6,2.5-6,5.6v13.7c-1.7-0.4-3.2-1-4.3-1.8
		c-2.8-2-2.9-5.6-3.1-9.3c0-0.5,0-0.9-0.1-1.3C9,32.4,9,30.9,9,29.5l0-1.5c-0.1-2.7,0.1-7.5,0.3-10.5l8.9-9.9
		c0.8-0.1,1.6-0.2,2.4-0.3v5.9c0,2.4,1.8,4.3,4.1,4.3h12.8c2.3,0,4.1-1.9,4.1-4.3v-6c1.9,0.4,3.8,0.9,5.4,2c1.8,1.3,3,3.8,3.5,7.5
		C51.3,22.6,51,28.8,50.6,34.1z"/>
</g>
</svg>
