<?xml version="1.0" encoding="utf-8"?>
<!-- Generator: Adobe Illustrator 21.0.0, SVG Export Plug-In . SVG Version: 6.00 Build 0)  -->
<svg version="1.1" id="Layer_1" xmlns="http://www.w3.org/2000/svg" xmlns:xlink="http://www.w3.org/1999/xlink" x="0px" y="0px"
	 viewBox="0 0 61 59" style="enable-background:new 0 0 61 59;" xml:space="preserve">
<style type="text/css">
	.st0{fill:#20C5BA;}
</style>
<g>
	<path class="st0" d="M31.9,12.3C20,12.3,10.4,22,10.4,33.8c0,11.9,9.6,21.5,21.5,21.5s21.5-9.6,21.5-21.5
		C53.4,22,43.7,12.3,31.9,12.3z M31.9,52.3c-10.2,0-18.5-8.3-18.5-18.5s8.3-18.5,18.5-18.5s18.5,8.3,18.5,18.5S42.1,52.3,31.9,52.3z
		"/>
	<path class="st0" d="M42.4,39.5l-9.1-6.5V22c0-0.8-0.7-1.5-1.5-1.5s-1.5,0.7-1.5,1.5v11.8c0,0.5,0.2,0.9,0.6,1.2l9.7,6.9
		c0.3,0.2,0.6,0.3,0.9,0.3c0.5,0,0.9-0.2,1.2-0.6C43.3,40.9,43.1,40,42.4,39.5z"/>
	<path class="st0" d="M27.1,9h9.6c0.8,0,1.5-0.7,1.5-1.5S37.5,6,36.7,6h-9.6c-0.8,0-1.5,0.7-1.5,1.5S26.3,9,27.1,9z"/>
</g>
</svg>
