<?xml version="1.0" encoding="utf-8"?>
<!-- Generator: Adobe Illustrator 21.0.0, SVG Export Plug-In . SVG Version: 6.00 Build 0)  -->
<svg version="1.1" id="Layer_1" xmlns="http://www.w3.org/2000/svg" xmlns:xlink="http://www.w3.org/1999/xlink" x="0px" y="0px"
	 viewBox="0 0 46 57" style="enable-background:new 0 0 46 57;" xml:space="preserve">
<style type="text/css">
	.st0{fill:#20C5BA;}
</style>
<g>
	<path class="st0" d="M22.9,29.7c7.4,0,13.4-6,13.4-13.4S30.3,3,22.9,3S9.6,9,9.6,16.3S15.6,29.7,22.9,29.7z M22.9,6
		c5.7,0,10.4,4.6,10.4,10.4s-4.6,10.4-10.4,10.4S12.6,22,12.6,16.3S17.2,6,22.9,6z"/>
	<path class="st0" d="M34.4,35.6h-23c-5.3,0-9.5,4.3-9.5,9.5v1c0,5.3,4.3,9.5,9.5,9.5h23c5.3,0,9.5-4.3,9.5-9.5v-1
		C44,39.9,39.7,35.6,34.4,35.6z M41,46.1c0,3.6-2.9,6.5-6.5,6.5h-23c-3.6,0-6.5-2.9-6.5-6.5v-1c0-3.6,2.9-6.5,6.5-6.5h23
		c3.6,0,6.5,2.9,6.5,6.5V46.1z"/>
</g>
</svg>
