<?xml version="1.0" encoding="utf-8"?>
<!-- Generator: Adobe Illustrator 21.0.0, SVG Export Plug-In . SVG Version: 6.00 Build 0)  -->
<svg version="1.1" id="Layer_1" xmlns="http://www.w3.org/2000/svg" xmlns:xlink="http://www.w3.org/1999/xlink" x="0px" y="0px"
	 viewBox="0 0 70 60" style="enable-background:new 0 0 70 60;" xml:space="preserve">
<style type="text/css">
	.st0{fill:#20C5BA;}
</style>
<g>
	<path class="st0" d="M64.7,24.7c-0.3-3.6-0.8-7.4-3.7-9.9c-0.2-0.2-0.4-0.3-0.5-0.4l-0.8-3.8c-0.6-2.9-2.4-5.4-5-6.9
		c-2.6-1.5-5.7-1.7-8.5-0.8l-25.6,8.6c-2.7,0.6-5.7,2-7.7,5c-2,3.1-2.6,6.8-2.8,9.7c-0.1,1.5-0.2,3-0.2,4.3
		c-0.1,3.5,0.1,6.8,0.4,9.6c0.2,2.7,0.7,5.8,2.6,8.2c1.2,1.5,2.9,2.5,5.1,3.4c1.9,0.7,3.8,1,5.3,1.2c4.8,0.7,9.4,1.1,14.1,1.1
		c3.1,0,6.2-0.2,9.3-0.5l0.8-0.1c3.9-0.4,7.9-0.8,11.6-2.8c3-1.7,4.9-4.7,5.6-9C65.5,35.7,65.2,29.8,64.7,24.7z M47.2,5.7
		c2-0.7,4.2-0.5,6,0.5c1.8,1,3.1,2.8,3.5,4.9l0.3,1.4c-1.8-0.7-3.9-1.1-5.8-1.4C45.7,10.3,41.3,9.9,37,10c-0.9,0-1.8,0-2.8,0.1
		L47.2,5.7z M57.6,48c-3.1,1.7-6.8,2.1-10.4,2.4l-0.8,0.1c-7.5,0.8-14.9,0.6-22.6-0.6c-1.4-0.2-3.1-0.5-4.7-1.1
		c-1.7-0.6-2.9-1.4-3.8-2.4c-1.4-1.7-1.8-4.2-2-6.6c-0.2-2.7-0.5-5.9-0.4-9.2c0-1.2,0.1-2.7,0.2-4.1c0.2-2.5,0.7-5.8,2.3-8.3
		c1.1-1.7,2.7-2.8,5-3.5c0.1,0,0.3,0,0.4-0.1l0.4-0.1c0.7-0.2,1.5-0.3,2.3-0.4c4.6-0.5,9-1,13.5-1c0.1,0,0.2,0,0.3,0
		c4,0,8.2,0.4,13.4,1.1c2.9,0.4,6.2,1,8.3,2.9c1.6,1.4,2.2,3.5,2.5,5.8h-5.6c-5.1,0-9.2,4.1-9.2,9.2s4.1,9.2,9.2,9.2h5.7
		C61.1,44.5,59.7,46.8,57.6,48z M62,38.2h-6c-3.4,0-6.2-2.8-6.2-6.2s2.8-6.2,6.2-6.2h5.9C62.1,29.6,62.4,33.9,62,38.2z"/>
	<path class="st0" d="M54.3,29.5c-1.4,0-2.5,1.1-2.5,2.5c0,1.4,1.1,2.5,2.5,2.5s2.5-1.1,2.5-2.5C56.7,30.6,55.6,29.5,54.3,29.5z
		 M54.3,32.5c-0.3,0-0.5-0.2-0.5-0.5s0.2-0.5,0.5-0.5s0.5,0.2,0.5,0.5S54.5,32.5,54.3,32.5z"/>
</g>
</svg>
