<?xml version="1.0" encoding="utf-8"?>
<!-- Generator: Adobe Illustrator 23.0.3, SVG Export Plug-In . SVG Version: 6.00 Build 0)  -->
<svg version="1.1" xmlns="http://www.w3.org/2000/svg" xmlns:xlink="http://www.w3.org/1999/xlink" x="0px" y="0px"
	 viewBox="0 0 401.8 371.5" style="enable-background:new 0 0 401.8 371.5;" xml:space="preserve">
<style type="text/css">
	.st0{opacity:0.5;}
	.st1{clip-path:url(#SVGID_2_);fill:none;stroke:#09A8E9;stroke-miterlimit:10;}
	.st2{clip-path:url(#SVGID_4_);fill:none;stroke:#54C5ED;stroke-miterlimit:10;}
	.st3{clip-path:url(#SVGID_6_);fill:none;stroke:#09A8E9;stroke-miterlimit:10;}
	.st4{clip-path:url(#SVGID_8_);fill:none;stroke:#09A8E9;stroke-miterlimit:10;}
	.st5{fill:#F9CA06;}
	.st6{fill:#FFF53B;}
	.st7{fill:#FFFFFF;}
	.st8{fill:none;stroke:#FFF53B;stroke-miterlimit:10;}
	.st9{fill:#3CE5E1;}
	.st10{fill:none;stroke:#FFFFFF;stroke-miterlimit:10;}
	.st11{clip-path:url(#SVGID_10_);fill:none;stroke:#09A8E9;stroke-miterlimit:10;}
	.st12{clip-path:url(#SVGID_12_);fill:none;stroke:#54C5ED;stroke-miterlimit:10;}
	.st13{clip-path:url(#SVGID_14_);fill:none;stroke:#09A8E9;stroke-miterlimit:10;}
	.st14{clip-path:url(#SVGID_16_);fill:none;stroke:#09A8E9;stroke-miterlimit:10;}
	.st15{fill:#101111;}
	.st16{fill:#E99D86;}
	.st17{fill:#20AFA4;}
	.st18{clip-path:url(#SVGID_18_);fill:#E99D86;}
	.st19{fill:#DC7B59;}
	.st20{fill:#F9CA06;stroke:#F9CA06;stroke-miterlimit:10;}
	.st21{fill:#F7C6B5;}
	.st22{fill:#0E3533;}
	.st23{clip-path:url(#SVGID_20_);}
	.st24{fill:#C94958;}
	.st25{fill:none;stroke:#F9CA06;stroke-width:2;stroke-miterlimit:10;}
	.st26{fill:#23A39F;}
	.st27{fill:#29B7B7;}
	.st28{fill:#178E8B;}
	.st29{fill:#147572;}
	.st30{fill:none;stroke:#FFFFFF;stroke-width:2;stroke-miterlimit:10;}
</style>
<g id="BACKGROUND">
</g>
<g id="OBJECTS">
	<g>
		<g>
			<g class="st0">
				<g>
					<defs>
						<path id="SVGID_1_" d="M209.9,188.7c-1.2,1.7-2.3,3.5-3.2,5.3c-9,17.5-4.5,39.9,5.5,56.5c-0.7-9.7,0.1-20.1,3.5-29.1
							c2.1-5.5,3.4-11.1,5.1-16.7c3.1-9.9,1.2-21.4-5-29.8C217,180,213,184.5,209.9,188.7z"/>
					</defs>
					<use xlink:href="#SVGID_1_"  style="overflow:visible;fill:#20C5BA;"/>
					<clipPath id="SVGID_2_">
						<use xlink:href="#SVGID_1_"  style="overflow:visible;"/>
					</clipPath>
					<path class="st1" d="M212.7,251.3c-3.6-13.5-3.1-27.6-1.2-41.2c1.8-12.6,7.3-26.6,3.7-39.5"/>
				</g>
				<g>
					<defs>
						<path id="SVGID_3_" d="M198.8,202.2c1.8,2,3.5,4.1,5,6.3c14.3,21.2,11.8,50.4,1.4,72.7c-0.5-12.5-3.1-25.6-8.9-36.7
							c-3.5-6.8-6-13.7-9.1-20.6c-5.5-12.2-4.8-27.1,2-38.7C188.3,192,194.2,197.3,198.8,202.2z"/>
					</defs>
					<use xlink:href="#SVGID_3_"  style="overflow:visible;fill:#129696;"/>
					<clipPath id="SVGID_4_">
						<use xlink:href="#SVGID_3_"  style="overflow:visible;"/>
					</clipPath>
					<path class="st2" d="M204.7,282.4c2.6-17.7-0.1-35.6-4.7-52.7c-4.2-15.9-13.4-33-10.8-49.9"/>
				</g>
				<g>
					<defs>
						<path id="SVGID_5_" d="M179.2,236.2c2,0.9,4,1.9,5.9,3.1c17.8,11.2,25.7,34,25.3,54.3c-4.5-9.2-10.9-18.2-18.9-24.7
							c-4.9-3.9-9.1-8.3-13.7-12.5c-8.2-7.4-12.6-18.8-11.4-29.8C167.9,232,174.1,234,179.2,236.2z"/>
					</defs>
					<use xlink:href="#SVGID_5_"  style="overflow:visible;fill:#20C5BA;"/>
					<clipPath id="SVGID_6_">
						<use xlink:href="#SVGID_5_"  style="overflow:visible;"/>
					</clipPath>
					<path class="st3" d="M210.3,294.6c-3.9-14.2-12-26.8-21.1-38.1c-8.5-10.5-21.1-20.4-24.8-34"/>
				</g>
				<g>
					<defs>
						<path id="SVGID_7_" d="M231.6,220.3c-2.2,1.6-4.2,3.3-6.2,5.2c-18.3,17.9-21.8,46.9-16.1,71c3-12.1,8.2-24.4,16.1-34.1
							c4.8-5.9,8.7-12.2,13.1-18.3c7.9-10.9,10.2-25.6,5.9-38.3C243.9,212.4,237.1,216.3,231.6,220.3z"/>
					</defs>
					<use xlink:href="#SVGID_7_"  style="overflow:visible;fill:#20C5BA;"/>
					<clipPath id="SVGID_8_">
						<use xlink:href="#SVGID_7_"  style="overflow:visible;"/>
					</clipPath>
					<path class="st4" d="M209.6,297.6c1-17.8,7.3-34.8,15.3-50.7c7.4-14.7,19.8-29.6,20.7-46.6"/>
				</g>
				<path class="st5" d="M228.7,292.6c-7.7,0-31.6,0-38.9,0c0,22,6.8,44,6.8,44h25.3C221.9,336.6,228.7,314.7,228.7,292.6z"/>
				<rect x="186.9" y="286.7" class="st5" width="44.8" height="5.9"/>
			</g>
			<g>
				<g>
					<path class="st6" d="M244.8,209.8h59.7c6.6,0,12-5.4,12-12v-26.6c0-6.6-5.4-12-12-12h-59.7c-6.6,0-12,5.4-12,12v26.6
						C232.8,204.4,238.2,209.8,244.8,209.8z"/>
					<polygon class="st6" points="242.3,209.8 217.9,209.8 232.8,193.1 					"/>
					<g>
						<path class="st7" d="M304.3,174.8h-59.4c-1.5,0-2.7-1.2-2.7-2.7v0c0-1.5,1.2-2.7,2.7-2.7h59.4c1.5,0,2.7,1.2,2.7,2.7v0
							C307,173.6,305.8,174.8,304.3,174.8z"/>
						<path class="st7" d="M304.3,187.2h-59.4c-1.5,0-2.7-1.2-2.7-2.7l0,0c0-1.5,1.2-2.7,2.7-2.7h59.4c1.5,0,2.7,1.2,2.7,2.7l0,0
							C307,186,305.8,187.2,304.3,187.2z"/>
						<path class="st7" d="M272,199.5h-27c-1.5,0-2.7-1.2-2.7-2.7l0,0c0-1.5,1.2-2.7,2.7-2.7h27c1.5,0,2.7,1.2,2.7,2.7l0,0
							C274.6,198.3,273.4,199.5,272,199.5z"/>
					</g>
				</g>
				<g>
					<g>
						<path class="st6" d="M101.5,157.4h21c6.6,0,12-5.4,12-12V140c0-6.6-5.4-12-12-12h-21c-6.6,0-12,5.4-12,12v5.4
							C89.5,152,94.9,157.4,101.5,157.4z"/>
						<path class="st7" d="M122.1,150.8H102c-1.1,0-2-0.9-2-2v-12.1c0-1.1,0.9-2,2-2h20.1c1.1,0,2,0.9,2,2v12.1
							C124.1,149.9,123.2,150.8,122.1,150.8z"/>
						<path class="st8" d="M100.4,135.2l10.5,10.2c0.6,0.6,1.6,0.6,2.2,0l10.5-10.2"/>
						<polygon class="st6" points="122.2,164.4 122.2,154.8 112,154.8 						"/>
					</g>
					<g>
						<path class="st9" d="M69.3,109.3H91c1.1,0,2-0.9,2-2V94.2c0-1.1-0.9-2-2-2H69.3c-1.1,0-2,0.9-2,2v13.2
							C67.3,108.4,68.2,109.3,69.3,109.3z"/>
						<path class="st10" d="M92.6,92.7l-11.3,10.9c-0.6,0.6-1.7,0.6-2.4,0L67.7,92.7"/>
					</g>
					<g>
						<path class="st9" d="M192.1,179.8h15.4c1.1,0,2-0.9,2-2v-8.9c0-1.1-0.9-2-2-2h-15.4c-1.1,0-2,0.9-2,2v8.9
							C190.1,178.9,190.9,179.8,192.1,179.8z"/>
						<path class="st10" d="M209.1,167.2l-8.5,8.2c-0.5,0.5-1.3,0.5-1.8,0l-8.5-8.2"/>
					</g>
					<g>
						<path class="st9" d="M226.8,102.7h15.4c1.1,0,2-0.9,2-2v-8.9c0-1.1-0.9-2-2-2h-15.4c-1.1,0-2,0.9-2,2v8.9
							C224.8,101.8,225.7,102.7,226.8,102.7z"/>
						<path class="st10" d="M243.9,90.2l-8.5,8.2c-0.5,0.5-1.3,0.5-1.8,0l-8.5-8.2"/>
					</g>
					<g>
						<g>
							<g>
								<path class="st9" d="M103.6,187.6l0.6-0.6c0.5-0.5,0.7-1.2,0.7-1.9c0-0.7-0.3-1.3-0.8-1.8l-0.9-0.9
									c-0.5-0.4-1.1-0.7-1.7-0.7c-0.7,0-1.4,0.3-1.9,0.8l-0.6,0.6c-0.1,0.1-0.1,0.2-0.2,0.3l0,0c-0.5,0.5-1,1.6-0.7,2.9
									c1.2,6.3,6.5,11.1,12.9,11.6c0.8,0.1,1.6-0.1,2.2-0.5c0.2-0.1,0.4-0.3,0.6-0.5l0.6-0.6c1-1.1,0.9-2.7-0.2-3.6L113,192
									c-0.5-0.4-1.1-0.7-1.7-0.7c-0.7,0-1.4,0.3-1.9,0.8l-0.6,0.6c-0.2,0.3-0.4,0.6-0.5,0.9l-0.1,0.2l-0.1-0.1
									c-2.5-1-4.5-2.9-5.7-5.3l-0.1-0.2l0.2-0.1C102.9,188.2,103.3,188,103.6,187.6z"/>
								<path class="st9" d="M106.7,180.2c0,0.3,0.3,0.6,0.6,0.6c4.2,0,7.6,3.4,7.6,7.6c0,0.3,0.3,0.6,0.6,0.6
									c0.3,0,0.6-0.3,0.6-0.6c0-4.9-4-8.8-8.8-8.8C107,179.6,106.7,179.8,106.7,180.2z"/>
								<path class="st9" d="M106.7,183.1c0,0.3,0.3,0.6,0.6,0.6c2.6,0,4.8,2.2,4.8,4.8c0,0.3,0.3,0.6,0.6,0.6
									c0.3,0,0.6-0.3,0.6-0.6c0-3.3-2.7-6-6-6C106.9,182.5,106.7,182.8,106.7,183.1z"/>
							</g>
						</g>
					</g>
					<g>
						<g>
							<g>
								<path class="st9" d="M261.2,235.7l0.7-0.8c0.6-0.6,0.9-1.4,0.8-2.3c0-0.8-0.4-1.6-1-2.2l-1.2-1.1c-0.6-0.5-1.3-0.8-2.1-0.8
									c-0.9,0-1.8,0.4-2.4,1l-0.7,0.8c-0.1,0.1-0.2,0.2-0.3,0.3l0,0c-0.7,0.6-1.2,1.9-0.9,3.6c1.5,7.7,8,13.6,15.9,14.3
									c1,0.1,2-0.1,2.7-0.6c0.3-0.2,0.6-0.4,0.8-0.6l0.7-0.8c1.2-1.3,1.1-3.3-0.2-4.5l-1.2-1.1c-0.6-0.5-1.3-0.8-2.1-0.8
									c-0.9,0-1.8,0.4-2.4,1l-0.7,0.8c-0.3,0.3,9.4,21.6,9.2,22.1l-10-20.8l-0.2-0.1c-3.1-1.2-5.6-3.5-7.1-6.5l-0.1-0.2l0.2-0.1
									C260.3,236.5,260.8,236.2,261.2,235.7z"/>
								<path class="st9" d="M265,226.6c0,0.4,0.3,0.7,0.7,0.7c5.2,0,9.4,4.2,9.4,9.4c0,0.4,0.3,0.7,0.7,0.7c0.4,0,0.7-0.3,0.7-0.7
									c0-6-4.9-10.9-10.9-10.9C265.4,225.8,265,226.2,265,226.6z"/>
								<path class="st9" d="M264.9,230.2c0,0.4,0.3,0.7,0.7,0.7c3.3,0,5.9,2.7,5.9,5.9c0,0.4,0.3,0.7,0.7,0.7
									c0.4,0,0.7-0.3,0.7-0.7c0-4.1-3.3-7.4-7.4-7.4C265.3,229.5,264.9,229.8,264.9,230.2z"/>
							</g>
						</g>
					</g>
					<g>
						<path class="st6" d="M207.7,147.7h-21c-6.6,0-12-5.4-12-12v-5.4c0-6.6,5.4-12,12-12h21c6.6,0,12,5.4,12,12v5.4
							C219.7,142.3,214.3,147.7,207.7,147.7z"/>
						<polygon class="st6" points="187.1,154.7 187.1,145 197.2,145 						"/>
						<g>
							<g>
								<path class="st7" d="M194.2,131.6l0.6-0.7c0.5-0.6,0.8-1.3,0.7-2c0-0.7-0.4-1.4-0.9-1.9l-1-0.9c-0.5-0.5-1.2-0.7-1.9-0.7
									c-0.8,0-1.5,0.3-2.1,0.9L189,127c-0.1,0.1-0.2,0.2-0.2,0.3l0,0c-0.6,0.5-1.1,1.7-0.8,3.1c1.3,6.8,7,11.9,13.9,12.5
									c0.9,0.1,1.7-0.1,2.4-0.5c0.3-0.1,0.5-0.3,0.7-0.5l0.6-0.7c1-1.1,0.9-2.9-0.2-3.9l-1-0.9c-0.5-0.5-1.2-0.7-1.9-0.7
									c-0.8,0-1.5,0.3-2.1,0.9l-0.6,0.7c-0.3,0.3-0.5,0.6-0.6,1l-0.1,0.2l-0.2-0.1c-2.7-1.1-4.9-3.1-6.2-5.7l-0.1-0.2l0.2-0.1
									C193.4,132.3,193.8,132,194.2,131.6z"/>
								<path class="st7" d="M197.6,123.6c0,0.4,0.3,0.6,0.6,0.6c4.5,0,8.2,3.7,8.2,8.2c0,0.4,0.3,0.6,0.6,0.6
									c0.4,0,0.6-0.3,0.6-0.6c0-5.3-4.3-9.5-9.5-9.5C197.8,122.9,197.6,123.2,197.6,123.6z"/>
								<path class="st7" d="M197.5,126.8c0,0.4,0.3,0.6,0.6,0.6c2.9,0,5.2,2.3,5.2,5.2c0,0.4,0.3,0.6,0.6,0.6
									c0.4,0,0.6-0.3,0.6-0.6c0-3.6-2.9-6.5-6.5-6.5C197.7,126.1,197.5,126.4,197.5,126.8z"/>
							</g>
						</g>
					</g>
				</g>
			</g>
			<g class="st0">
				<g>
					<defs>
						<path id="SVGID_9_" d="M98.9,212.5c1,1.4,1.9,2.9,2.7,4.4c7.5,14.7,3.8,33.5-4.6,47.4c0.6-8.1-0.1-16.8-2.9-24.4
							c-1.7-4.6-2.8-9.3-4.3-14c-2.6-8.3-1-17.9,4.2-25.1C92.9,205.2,96.3,209,98.9,212.5z"/>
					</defs>
					<use xlink:href="#SVGID_9_"  style="overflow:visible;fill:#20C5BA;"/>
					<clipPath id="SVGID_10_">
						<use xlink:href="#SVGID_9_"  style="overflow:visible;"/>
					</clipPath>
					<path class="st11" d="M96.6,265c3-11.3,2.6-23.1,1-34.6c-1.5-10.6-6.1-22.3-3.1-33.1"/>
				</g>
				<g>
					<defs>
						<path id="SVGID_11_" d="M108.2,223.8c-1.5,1.7-2.9,3.4-4.2,5.3c-12,17.8-9.9,42.3-1.2,61c0.4-10.5,2.6-21.5,7.4-30.8
							c2.9-5.7,5-11.5,7.7-17.3c4.6-10.3,4-22.7-1.6-32.5C117,215.2,112,219.7,108.2,223.8z"/>
					</defs>
					<use xlink:href="#SVGID_11_"  style="overflow:visible;fill:#129696;"/>
					<clipPath id="SVGID_12_">
						<use xlink:href="#SVGID_11_"  style="overflow:visible;"/>
					</clipPath>
					<path class="st12" d="M103.2,291.1c-2.2-14.8,0.1-29.9,3.9-44.2c3.5-13.3,11.3-27.7,9.1-41.8"/>
				</g>
				<g>
					<defs>
						<path id="SVGID_13_" d="M124.7,252.4c-1.7,0.7-3.4,1.6-4.9,2.6c-15,9.4-21.6,28.5-21.2,45.6c3.8-7.7,9.1-15.3,15.9-20.7
							c4.1-3.3,7.6-7,11.5-10.5c6.9-6.2,10.6-15.8,9.6-25C134.1,248.8,128.9,250.5,124.7,252.4z"/>
					</defs>
					<use xlink:href="#SVGID_13_"  style="overflow:visible;fill:#54C5ED;"/>
					<clipPath id="SVGID_14_">
						<use xlink:href="#SVGID_13_"  style="overflow:visible;"/>
					</clipPath>
					<path class="st13" d="M98.5,301.4c3.3-11.9,10-22.5,17.7-32c7.1-8.9,17.7-17.1,20.8-28.5"/>
				</g>
				<g>
					<defs>
						<path id="SVGID_15_" d="M80.6,239c1.8,1.3,3.6,2.8,5.2,4.4c15.3,15,18.3,39.4,13.5,59.5c-2.5-10.2-6.9-20.5-13.5-28.7
							c-4-5-7.3-10.2-11-15.4c-6.6-9.1-8.5-21.5-5-32.1C70.3,232.3,76.1,235.7,80.6,239z"/>
					</defs>
					<use xlink:href="#SVGID_15_"  style="overflow:visible;fill:#20C5BA;"/>
					<clipPath id="SVGID_16_">
						<use xlink:href="#SVGID_15_"  style="overflow:visible;"/>
					</clipPath>
					<path class="st14" d="M99.2,303.8c-0.9-15-6.2-29.2-12.8-42.5C80.2,249,69.7,236.5,69,222.2"/>
				</g>
				<path class="st5" d="M83.1,299.7c6.5,0,26.5,0,32.7,0c0,18.4-5.7,36.9-5.7,36.9H88.8C88.8,336.6,83.1,318.2,83.1,299.7z"/>
				
					<rect x="80.6" y="294.7" transform="matrix(-1 -1.224647e-16 1.224647e-16 -1 198.8294 594.4379)" class="st5" width="37.6" height="5"/>
			</g>
			<g>
				<g>
					<g>
						<path class="st15" d="M126,291.2c8.2,0.3,16.3,0.1,24.5-0.3c4.7-0.2,9.3-0.4,14-0.5c4.2-0.1,8.3,1.4,12.6,0.4
							c3.3-0.8,6.5-3,7.5-6.3c1.2-3.6-0.4-7.5,0.2-11.3c0.9-5.9,6.8-10.5,6.6-16.5c0-2.1-0.8-4.1-1.6-6c-1-2.4-2-4.9-3-7.3
							c-0.7-1.8-1.5-3.7-1.3-5.6c0.1-1.6,0.9-3.1,1.5-4.6c2.6-6.8,1.5-14.2-0.4-20.9c-1.8-6.4-3.4-12.8-7.5-18.2
							c-6.3-8.2-16.2-13.1-26.5-13.1c-9,0-17.8,3.7-24,10.2c-6.4,6.6-12.5,15.3-11.9,24.9c0.3,4.1,1.6,8.5,0,12.3
							c-1.7,4.1-6.5,6.8-6.7,11.2c-0.1,2.8,1.8,5.3,2.3,8c0.8,4.7-2.3,9-5,13c-4,6-7,13.7-4,20.2c1.8,4,5.6,6.8,9.8,8.3
							C117.2,290.7,121.7,291,126,291.2z"/>
						<g>
							<g>
								<g>
									<path class="st16" d="M250,331.6l-28.9-0.4c-10.7-0.2-24.1-0.3-32.7-10.4c-5.3-6.2-7.9-13.7-9.8-20.8
										c-2.1-7.7-4-15.5-5.7-23.3l9.8-2.1c1.6,7.6,3.5,15.2,5.5,22.8c1.6,6,3.7,12.2,7.7,16.9c5.7,6.6,15.6,6.8,25.3,6.9l28.9,0.4
										L250,331.6z"/>
								</g>
							</g>
							
								<rect x="142.4" y="246.8" transform="matrix(-1 -1.224647e-16 1.224647e-16 -1 299.7299 508.5302)" class="st16" width="15" height="15"/>
							<path class="st17" d="M166.1,260.7c21.5-0.3,23.4,49.4,39.7,57.4c-3.1,5.3-5.2,8.5-6.6,11.5
								C175,328.8,166.1,260.7,166.1,260.7z"/>
							<g>
								<defs>
									<path id="SVGID_17_" d="M118.1,348.4h63.5l-3-74.5c-0.3-7.6-7.1-13.6-15.4-13.6h-26.8c-8.3,0-15.1,6-15.4,13.6L118.1,348.4
										z"/>
								</defs>
								<use xlink:href="#SVGID_17_"  style="overflow:visible;fill:#3CE5E1;"/>
								<clipPath id="SVGID_18_">
									<use xlink:href="#SVGID_17_"  style="overflow:visible;"/>
								</clipPath>
								<ellipse class="st18" cx="149.9" cy="264.2" rx="14.6" ry="16.2"/>
							</g>
							<g>
								<g>
									<path class="st16" d="M184.5,331.6l-28.5-0.4c-5.9-0.1-12.6-0.2-18.9-2.1c-8.2-2.5-15.3-7.7-20.1-14.9
										c-3.8-5.7-5.9-12.2-6.1-18.7c-0.1-3.4,0.3-6.7,1.2-10l0.2-0.9c0.6-2.4,1.3-4.8,2.2-7.2l9.4,3.5c-0.8,2-1.3,4.2-2,6.4
										l-0.3,0.9c-0.6,2.3-0.9,4.6-0.8,7c0.2,4.7,1.7,9.4,4.4,13.5c3.4,5.1,8.8,9.1,14.6,10.8c5,1.5,10.7,1.6,16.2,1.7l28.5,0.4
										L184.5,331.6z"/>
								</g>
							</g>
							<path class="st17" d="M133.5,260.7c-11.1,0.1-23.7,12.6-24.9,23.6c-3.2,42.5,27,45.9,34.5,47.3c0-1.4,1.1-10.4,1.6-14.5
								c-7.4-2.4-18.7-9.8-19.5-21.5C124,279.2,133.5,260.7,133.5,260.7z"/>
						</g>
						<path class="st19" d="M124.9,230c1.3,2.9,4,4.6,6,3.7c2-0.9,2.5-4,1.2-6.9c-1.3-2.9-4-4.6-6-3.7
							C124.1,224,123.6,227.1,124.9,230z"/>
						
							<ellipse transform="matrix(0.4168 -0.909 0.909 0.4168 -102.4265 297.1595)" class="st19" cx="180.4" cy="228.4" rx="5.8" ry="3.9"/>
						<path class="st20" d="M176.8,231.4c0.1,1.7,0.6,3.5,2.3,4.2c4.2,1.7,6-3,6.5-6.3c0.3-1.8,0.4-3.8,0.2-5.7
							c-0.3-2.5-2.9-4.7-5.3-3.2c-3,1.9-3.7,6.5-3.7,9.8C176.8,230.6,176.8,231,176.8,231.4z"/>
						<ellipse class="st21" cx="154.6" cy="221.3" rx="25.8" ry="31.5"/>
						<ellipse class="st22" cx="148.2" cy="222.7" rx="2.9" ry="4.3"/>
						<g>
							<path class="st22" d="M151.5,212.8c-3.1-1.1-6.4-1.1-9.1,0.9"/>
							<g>
								<path class="st22" d="M151.8,211.9c-3.4-1.1-6.9-1-9.9,1c-1.1,0.7-0.1,2.4,1,1.7c2.6-1.7,5.4-1.7,8.4-0.8
									C152.4,214.2,153,212.2,151.8,211.9L151.8,211.9z"/>
							</g>
						</g>
						<path class="st16" d="M155.5,232.1c0,0.7,1.4,1.3,3.1,1.3c1.7,0,3.1-0.6,3.1-1.3c0-0.7-1.4-1.3-3.1-1.3
							C156.9,230.8,155.5,231.4,155.5,232.1z"/>
						<g>
							<g>
								<path class="st22" d="M148.2,218.1c-1.2,0-2.4,0-3.6,0c-1.3,0-1.3,2,0,2c1.2,0,2.4,0,3.6,0
									C149.5,220.1,149.5,218.1,148.2,218.1L148.2,218.1z"/>
							</g>
						</g>
						<path class="st22" d="M171.8,222.7c0,2.4-1.3,4.3-2.9,4.3s-2.9-1.9-2.9-4.3c0-2.4,1.3-4.3,2.9-4.3S171.8,220.3,171.8,222.7z"
							/>
						<g>
							<path class="st22" d="M165.7,212.8c3.1-1.1,6.4-1.1,9.1,0.9"/>
							<g>
								<path class="st22" d="M165.9,213.8c2.9-0.9,5.7-0.9,8.4,0.8c1.1,0.7,2.1-1,1-1.7c-3-2-6.5-2.1-9.9-1
									C164.2,212.2,164.7,214.2,165.9,213.8L165.9,213.8z"/>
							</g>
						</g>
						<g>
							<line class="st22" x1="168.2" y1="218.4" x2="171.9" y2="218.4"/>
							<g>
								<path class="st22" d="M168.2,219.4c1.2,0,2.4,0,3.6,0c1.3,0,1.3-2,0-2c-1.2,0-2.4,0-3.6,0
									C166.9,217.4,166.9,219.4,168.2,219.4L168.2,219.4z"/>
							</g>
						</g>
						<g>
							<defs>
								<path id="SVGID_19_" d="M168.6,237.8c0,5.5-4.5,10-10,10l0,0c-5.5,0-10-4.5-10-10"/>
							</defs>
							<use xlink:href="#SVGID_19_"  style="overflow:visible;fill:#333333;"/>
							<clipPath id="SVGID_20_">
								<use xlink:href="#SVGID_19_"  style="overflow:visible;"/>
							</clipPath>
							<g class="st23">
								<g>
									<path class="st24" d="M167,245.9c0,2-3.8,3.6-8.4,3.6c-4.6,0-8.4-1.6-8.4-3.6s3.8-3.6,8.4-3.6
										C163.2,242.3,167,243.9,167,245.9z"/>
								</g>
								<g>
									<rect x="148.6" y="237.3" class="st7" width="20.1" height="3.3"/>
								</g>
							</g>
						</g>
						<path class="st15" d="M167.4,190.3c-6.5-8.5-20.2-8.9-30.7-0.9c-10.5,8-13.6,21.6-7.3,29.9C135.6,227.6,174,198.9,167.4,190.3
							z"/>
						<path class="st20" d="M132.4,231.4c-0.1,1.7-0.6,3.5-2.3,4.2c-4.2,1.7-6-3-6.5-6.3c-0.3-1.8-0.4-3.8-0.2-5.7
							c0.3-2.5,2.9-4.7,5.3-3.2c3,1.9,3.7,6.5,3.7,9.8C132.4,230.6,132.4,231,132.4,231.4z"/>
						<path class="st5" d="M145.7,243.8c2.1,0.6,4.1,2.6,2.5,4.6c-1.5,2-5.8,1-6.8-1.2c-0.7-1.5,1-3.1,2.3-3.5
							C144.3,243.6,145,243.7,145.7,243.8z"/>
						<path class="st25" d="M128.8,231.9c1.8,7.7,8.9,11.5,15.4,14.8"/>
						<path class="st25" d="M154.9,183.6c-10.7,0.4-16.3,4.1-21.1,10.7c-3,4-4.7,8.9-5.6,13.8c-0.9,4.9-1,10-0.9,15"/>
						<path class="st25" d="M154.3,183.6c10.7,0.4,16.3,4.1,21.1,10.7c3,4,4.7,8.9,5.6,13.8s1,10,0.9,15"/>
					</g>
					<path class="st16" d="M199.2,327.8c0-6.4-5.2-11.6-11.6-11.6s-11.6,5.2-11.6,11.6"/>
					
						<rect x="176" y="327.9" transform="matrix(-1 -1.224647e-16 1.224647e-16 -1 463.6476 663.9073)" class="st26" width="111.6" height="8.2"/>
					<g>
						<path class="st26" d="M235.6,333.1H323c2.4,0,4.7-2.2,5.1-4.8l8.2-54.6c0.4-2.6-1.3-4.8-3.7-4.8h-88.7c-2.4,0-4.7,2.2-5,4.8
							l-7,54.6C231.5,330.9,233.2,333.1,235.6,333.1z"/>
						<path class="st27" d="M238.3,336.1h87.4c2.4,0,4.7-2.2,5.1-4.8l8.2-54.6c0.4-2.6-1.3-4.8-3.7-4.8h-88.7c-2.4,0-4.7,2.2-5,4.8
							l-7,54.6C234.2,333.9,235.9,336.1,238.3,336.1z"/>
					</g>
					<path class="st28" d="M292.5,304.6c0,3.1-2.5,5.7-5.7,5.7s-5.7-2.6-5.7-5.7c0-3.1,2.5-5.7,5.7-5.7S292.5,301.4,292.5,304.6z"/>
				</g>
				<g>
					<g>
						<g>
							<g>
								<path class="st29" d="M369.8,350.5H71.4c-3.5,0-6.3-2.8-6.3-6.3v-1.7c0-3.5,2.8-6.3,6.3-6.3h298.4c3.5,0,6.3,2.8,6.3,6.3
									v1.7C376.1,347.7,373.3,350.5,369.8,350.5z"/>
							</g>
						</g>
					</g>
				</g>
			</g>
			<g>
				<circle class="st30" cx="152.4" cy="104.9" r="4.2"/>
				<path class="st30" d="M258.7,132.8c0,2.3-1.9,4.2-4.2,4.2s-4.2-1.9-4.2-4.2c0-2.3,1.9-4.2,4.2-4.2S258.7,130.5,258.7,132.8z"/>
				<circle class="st30" cx="71.4" cy="185.1" r="4.2"/>
				<polygon class="st30" points="164.8,156.1 155.2,162.4 165.4,167.5 				"/>
				<polygon class="st30" points="61.5,133.5 61.5,145 71.4,139.3 				"/>
				<polygon class="st30" points="188.2,81.2 198.4,86.4 197.8,74.9 				"/>
			</g>
		</g>
	</g>
</g>
<g id="DESIGNED_BY_FREEPIK">
</g>
</svg>
