<?xml version="1.0" encoding="utf-8"?>
<!-- Generator: Adobe Illustrator 21.0.0, SVG Export Plug-In . SVG Version: 6.00 Build 0)  -->
<svg version="1.1" id="Layer_1" xmlns="http://www.w3.org/2000/svg" xmlns:xlink="http://www.w3.org/1999/xlink" x="0px" y="0px"
	 viewBox="0 0 90 72.6" style="enable-background:new 0 0 90 72.6;" xml:space="preserve">
<style type="text/css">
	.st0{fill:#FFFFFF;}
	.st1{fill:#100F0D;}
	.st2{fill:#F7C72B;}
	.st3{fill:#E01D25;}
	.st4{fill:none;stroke:#100F0D;stroke-width:13;stroke-linecap:round;stroke-linejoin:round;stroke-miterlimit:10;}
	.st5{fill:none;stroke:#100F0D;stroke-width:13;stroke-linecap:round;stroke-linejoin:round;stroke-miterlimit:2.6131;}
</style>
<g id="surface1">
	<rect x="-983.2" y="57.4" class="st0" width="612" height="792"/>
	<path class="st1" d="M142.8,350L142.8,350l0.7-3.5h1.2l-1.2,5.3h-1.2l-0.9-3.3h0l-0.9,3.3h-1.2l-1.2-5.3h1.2l0.7,3.5h0l0.9-3.5h0.9
		L142.8,350"/>
	<path class="st1" d="M148.5,349.5h-2.1v1.3h2.5v1h-3.7v-5.3h3.7v0.9h-2.5v1.1h2.1V349.5"/>
	<path class="st1" d="M150.7,349.5v1.3h0.9c0.3,0,0.5-0.1,0.6-0.2s0.2-0.3,0.2-0.5c0-0.2-0.1-0.4-0.2-0.5s-0.3-0.2-0.6-0.2H150.7z
		 M150.7,348.7h0.6c0.3,0,0.5-0.1,0.6-0.2c0.1-0.1,0.2-0.3,0.2-0.5c0-0.2-0.1-0.4-0.2-0.5c-0.1-0.1-0.4-0.2-0.7-0.2h-0.6V348.7z
		 M149.5,351.8v-5.3h1.8c0.7,0,1.2,0.1,1.6,0.4s0.6,0.6,0.6,1.1c0,0.3-0.1,0.5-0.2,0.7c-0.1,0.2-0.3,0.3-0.6,0.4
		c0.3,0.1,0.5,0.2,0.7,0.4c0.1,0.2,0.2,0.5,0.2,0.7c0,0.5-0.2,0.9-0.5,1.2c-0.4,0.3-0.9,0.4-1.5,0.4H149.5"/>
	<path class="st1" d="M157.1,350.4c0-0.2-0.1-0.3-0.2-0.4c-0.1-0.1-0.3-0.2-0.7-0.3c-0.7-0.2-1.2-0.4-1.5-0.7s-0.5-0.6-0.5-1.1
		c0-0.4,0.2-0.8,0.6-1.1c0.4-0.3,0.9-0.4,1.5-0.4c0.6,0,1.1,0.2,1.5,0.5c0.4,0.3,0.6,0.7,0.5,1.2l0,0h-1.2c0-0.2-0.1-0.4-0.2-0.5
		s-0.3-0.2-0.6-0.2c-0.3,0-0.4,0.1-0.6,0.2s-0.2,0.2-0.2,0.4c0,0.2,0.1,0.3,0.2,0.4c0.1,0.1,0.4,0.2,0.8,0.4
		c0.6,0.2,1.1,0.4,1.4,0.7c0.3,0.3,0.5,0.6,0.5,1.1c0,0.5-0.2,0.8-0.5,1.1c-0.4,0.3-0.8,0.4-1.5,0.4s-1.1-0.2-1.6-0.5
		c-0.4-0.3-0.7-0.7-0.6-1.3l0,0h1.2c0,0.3,0.1,0.5,0.3,0.7c0.2,0.1,0.4,0.2,0.8,0.2c0.3,0,0.4-0.1,0.6-0.2
		C157,350.7,157.1,350.6,157.1,350.4"/>
	<path class="st1" d="M160.3,351.8h-1.2v-5.3h1.2V351.8"/>
	<path class="st1" d="M164.9,347.4h-1.4v4.4h-1.2v-4.4h-1.4v-0.9h4V347.4"/>
	<path class="st1" d="M168.7,349.5h-2.1v1.3h2.5v1h-3.7v-5.3h3.7v0.9h-2.5v1.1h2.1V349.5"/>
	<path class="st1" d="M172.7,349h0.9c0.3,0,0.5-0.1,0.6-0.2s0.2-0.3,0.2-0.6s-0.1-0.4-0.2-0.6c-0.1-0.1-0.3-0.2-0.6-0.2h-0.9V349z
		 M172.7,350v1.8h-1.2v-5.3h2.2c0.6,0,1.1,0.2,1.5,0.5c0.4,0.3,0.6,0.7,0.6,1.3s-0.2,0.9-0.6,1.3s-0.9,0.5-1.5,0.5H172.7"/>
	<path class="st1" d="M177.7,348.8h0.8c0.3,0,0.4-0.1,0.6-0.2s0.2-0.3,0.2-0.5c0-0.2-0.1-0.4-0.2-0.5c-0.1-0.1-0.3-0.2-0.6-0.2h-0.8
		V348.8z M177.7,349.8v2h-1.2v-5.3h2.1c0.6,0,1.1,0.1,1.5,0.4c0.4,0.3,0.5,0.7,0.5,1.2c0,0.3-0.1,0.5-0.2,0.7
		c-0.1,0.2-0.4,0.4-0.6,0.5c0.3,0.1,0.6,0.2,0.7,0.5c0.1,0.2,0.2,0.5,0.2,0.8v0.3c0,0.1,0,0.3,0.1,0.5c0,0.2,0.1,0.3,0.2,0.4v0.1
		h-1.3c-0.1-0.1-0.2-0.2-0.2-0.4c0-0.2,0-0.4,0-0.5v-0.3c0-0.3-0.1-0.4-0.2-0.6s-0.3-0.2-0.6-0.2H177.7"/>
	<path class="st1" d="M184.5,348.7c0-0.4-0.1-0.7-0.3-0.9c-0.2-0.2-0.4-0.4-0.8-0.4c-0.3,0-0.6,0.1-0.8,0.4
		c-0.2,0.2-0.3,0.6-0.3,0.9v1c0,0.4,0.1,0.7,0.3,0.9c0.2,0.2,0.4,0.4,0.8,0.4c0.3,0,0.6-0.1,0.8-0.4c0.2-0.2,0.3-0.6,0.3-0.9V348.7z
		 M185.8,349.6c0,0.7-0.2,1.2-0.6,1.6c-0.4,0.4-1,0.6-1.6,0.6c-0.7,0-1.2-0.2-1.6-0.6c-0.4-0.4-0.6-1-0.6-1.6v-1
		c0-0.7,0.2-1.2,0.6-1.6c0.4-0.4,1-0.6,1.6-0.6c0.7,0,1.2,0.2,1.6,0.6c0.4,0.4,0.6,1,0.6,1.6V349.6"/>
	<path class="st1" d="M190.1,347.4h-1.4v4.4h-1.2v-4.4h-1.4v-0.9h4V347.4"/>
	<path class="st1" d="M193.9,349.5h-2.1v1.3h2.5v1h-3.7v-5.3h3.7v0.9h-2.5v1.1h2.1V349.5"/>
	<path class="st1" d="M199,350L199,350c0,0.6-0.2,1.1-0.6,1.5c-0.3,0.3-0.8,0.5-1.5,0.5c-0.7,0-1.2-0.2-1.6-0.6
		c-0.4-0.4-0.6-0.9-0.6-1.6v-1.1c0-0.6,0.2-1.2,0.6-1.6s0.9-0.6,1.5-0.6c0.7,0,1.2,0.2,1.5,0.5s0.6,0.8,0.6,1.4l0,0h-1.2
		c0-0.3-0.1-0.6-0.2-0.8c-0.1-0.2-0.4-0.3-0.7-0.3c-0.3,0-0.5,0.1-0.7,0.3c-0.2,0.2-0.2,0.5-0.2,0.9v1.1c0,0.4,0.1,0.7,0.3,0.9
		s0.4,0.3,0.7,0.3c0.3,0,0.5-0.1,0.6-0.2c0.1-0.2,0.2-0.4,0.2-0.8H199"/>
	<path class="st1" d="M203.3,347.4h-1.4v4.4h-1.2v-4.4h-1.4v-0.9h4V347.4"/>
	<path class="st1" d="M207.1,349.5h-2.1v1.3h2.5v1h-3.7v-5.3h3.7v0.9h-2.5v1.1h2.1V349.5"/>
	<path class="st1" d="M209.3,347.4v3.4h0.6c0.3,0,0.6-0.1,0.8-0.3c0.2-0.2,0.3-0.5,0.3-0.9v-1c0-0.4-0.1-0.7-0.3-0.9
		c-0.2-0.2-0.4-0.3-0.8-0.3H209.3z M208.1,351.8v-5.3h1.9c0.6,0,1.1,0.2,1.6,0.6c0.4,0.4,0.6,0.9,0.6,1.6v1c0,0.6-0.2,1.2-0.6,1.6
		c-0.4,0.4-0.9,0.6-1.6,0.6H208.1"/>
	<path class="st1" d="M26.6,350L26.6,350c0,0.6-0.2,1.1-0.5,1.5c-0.3,0.3-0.8,0.5-1.5,0.5c-0.7,0-1.2-0.2-1.6-0.6
		c-0.4-0.4-0.6-0.9-0.6-1.6v-1.1c0-0.6,0.2-1.2,0.6-1.6c0.4-0.4,0.9-0.6,1.5-0.6c0.7,0,1.2,0.2,1.5,0.5c0.4,0.3,0.6,0.8,0.6,1.4l0,0
		h-1.2c0-0.3-0.1-0.6-0.2-0.8c-0.1-0.2-0.4-0.3-0.7-0.3c-0.3,0-0.5,0.1-0.7,0.3c-0.2,0.2-0.2,0.5-0.2,0.9v1.1c0,0.4,0.1,0.7,0.3,0.9
		s0.4,0.3,0.7,0.3c0.3,0,0.5-0.1,0.6-0.2c0.1-0.2,0.2-0.4,0.2-0.8H26.6"/>
	<path class="st1" d="M28.5,348.8h0.8c0.3,0,0.4-0.1,0.6-0.2s0.2-0.3,0.2-0.5c0-0.2-0.1-0.4-0.2-0.5c-0.1-0.1-0.3-0.2-0.6-0.2h-0.8
		V348.8z M28.5,349.8v2h-1.2v-5.3h2.1c0.6,0,1.1,0.1,1.5,0.4s0.5,0.7,0.5,1.2c0,0.3-0.1,0.5-0.2,0.7c-0.1,0.2-0.4,0.4-0.6,0.5
		c0.3,0.1,0.6,0.2,0.7,0.5c0.1,0.2,0.2,0.5,0.2,0.8v0.3c0,0.1,0,0.3,0.1,0.5c0,0.2,0.1,0.3,0.2,0.4v0.1h-1.3
		c-0.1-0.1-0.2-0.2-0.2-0.4c0-0.2,0-0.4,0-0.5v-0.3c0-0.3-0.1-0.4-0.2-0.6c-0.1-0.1-0.3-0.2-0.6-0.2H28.5"/>
	<path class="st1" d="M35.6,349.5h-2.1v1.3h2.5v1h-3.7v-5.3h3.7v0.9h-2.5v1.1h2.1V349.5"/>
	<path class="st1" d="M37.7,347.4v3.4h0.6c0.3,0,0.6-0.1,0.8-0.3c0.2-0.2,0.3-0.5,0.3-0.9v-1c0-0.4-0.1-0.7-0.3-0.9
		c-0.2-0.2-0.4-0.3-0.8-0.3H37.7z M36.5,351.8v-5.3h1.9c0.6,0,1.2,0.2,1.6,0.6c0.4,0.4,0.6,0.9,0.6,1.6v1c0,0.6-0.2,1.2-0.6,1.6
		c-0.4,0.4-0.9,0.6-1.6,0.6H36.5"/>
	<path class="st1" d="M42.7,351.8h-1.2v-5.3h1.2V351.8"/>
	<path class="st1" d="M47.2,347.4h-1.4v4.4h-1.2v-4.4h-1.4v-0.9h4V347.4"/>
	<path class="st1" d="M53.8,350L53.8,350c0,0.6-0.2,1.1-0.5,1.5c-0.3,0.3-0.8,0.5-1.5,0.5c-0.7,0-1.2-0.2-1.6-0.6
		c-0.4-0.4-0.6-0.9-0.6-1.6v-1.1c0-0.6,0.2-1.2,0.6-1.6c0.4-0.4,0.9-0.6,1.6-0.6c0.7,0,1.2,0.2,1.5,0.5s0.6,0.8,0.6,1.4l0,0h-1.2
		c0-0.3-0.1-0.6-0.2-0.8c-0.1-0.2-0.4-0.3-0.7-0.3c-0.3,0-0.5,0.1-0.7,0.3c-0.2,0.2-0.2,0.5-0.2,0.9v1.1c0,0.4,0.1,0.7,0.3,0.9
		c0.2,0.2,0.4,0.3,0.7,0.3c0.3,0,0.5-0.1,0.6-0.2c0.1-0.2,0.2-0.4,0.2-0.8H53.8"/>
	<path class="st1" d="M55.9,349.8H57l-0.6-1.9h0L55.9,349.8z M57.3,350.8h-1.7l-0.3,1H54l1.7-5.3h1.3l1.7,5.3h-1.2L57.3,350.8"/>
	<path class="st1" d="M60.4,348.8h0.8c0.3,0,0.4-0.1,0.6-0.2c0.1-0.1,0.2-0.3,0.2-0.5c0-0.2-0.1-0.4-0.2-0.5
		c-0.1-0.1-0.3-0.2-0.6-0.2h-0.8V348.8z M60.4,349.8v2h-1.2v-5.3h2.1c0.6,0,1.1,0.1,1.5,0.4c0.4,0.3,0.5,0.7,0.5,1.2
		c0,0.3-0.1,0.5-0.2,0.7c-0.1,0.2-0.4,0.4-0.6,0.5c0.3,0.1,0.6,0.2,0.7,0.5c0.1,0.2,0.2,0.5,0.2,0.8v0.3c0,0.1,0,0.3,0.1,0.5
		c0,0.2,0.1,0.3,0.2,0.4v0.1h-1.3c-0.1-0.1-0.2-0.2-0.2-0.4c0-0.2,0-0.4,0-0.5v-0.3c0-0.3-0.1-0.4-0.2-0.6c-0.1-0.1-0.3-0.2-0.6-0.2
		H60.4"/>
	<path class="st1" d="M65.4,347.4v3.4H66c0.3,0,0.6-0.1,0.8-0.3c0.2-0.2,0.3-0.5,0.3-0.9v-1c0-0.4-0.1-0.7-0.3-0.9
		c-0.2-0.2-0.4-0.3-0.8-0.3H65.4z M64.1,351.8v-5.3h1.9c0.6,0,1.2,0.2,1.6,0.6c0.4,0.4,0.6,0.9,0.6,1.6v1c0,0.6-0.2,1.2-0.6,1.6
		c-0.4,0.4-0.9,0.6-1.6,0.6H64.1"/>
	<path class="st1" d="M-87.6,349.5h-2.1v1.3h2.5v1h-3.7v-5.3h3.7v0.9h-2.5v1.1h2.1V349.5"/>
	<path class="st1" d="M-84.7,348.8L-84.7,348.8l1.1-2.3h1.3l-1.8,3.5v1.9h-1.2v-1.9l-1.8-3.4h1.3L-84.7,348.8"/>
	<path class="st1" d="M-78.5,349.5h-2.1v1.3h2.5v1h-3.7v-5.3h3.7v0.9h-2.5v1.1h2.1V349.5"/>
	<path class="st1" d="M-227,350.9h2.3v1h-3.5v-5.3h1.2V350.9"/>
	<path class="st1" d="M-222.7,349.8h1.1l-0.6-1.9h0L-222.7,349.8z M-221.3,350.8h-1.7l-0.3,1h-1.2l1.7-5.3h1.3l1.7,5.3h-1.2
		L-221.3,350.8"/>
	<path class="st1" d="M-218.1,349h0.9c0.3,0,0.5-0.1,0.6-0.2c0.1-0.1,0.2-0.3,0.2-0.6s-0.1-0.4-0.2-0.6c-0.1-0.1-0.3-0.2-0.6-0.2
		h-0.9V349z M-218.1,350v1.8h-1.2v-5.3h2.2c0.6,0,1.1,0.2,1.5,0.5c0.4,0.3,0.6,0.7,0.6,1.3s-0.2,0.9-0.6,1.3s-0.9,0.5-1.5,0.5
		H-218.1"/>
	<path class="st1" d="M-210.7,347.4h-1.4v4.4h-1.2v-4.4h-1.4v-0.9h4V347.4"/>
	<path class="st1" d="M-207.1,348.7c0-0.4-0.1-0.7-0.3-0.9c-0.2-0.2-0.4-0.4-0.8-0.4c-0.3,0-0.6,0.1-0.8,0.4s-0.3,0.6-0.3,0.9v1
		c0,0.4,0.1,0.7,0.3,0.9c0.2,0.2,0.4,0.4,0.8,0.4c0.3,0,0.6-0.1,0.8-0.4c0.2-0.2,0.3-0.6,0.3-0.9V348.7z M-205.9,349.6
		c0,0.7-0.2,1.2-0.6,1.6c-0.4,0.4-1,0.6-1.6,0.6c-0.7,0-1.2-0.2-1.6-0.6c-0.4-0.4-0.6-1-0.6-1.6v-1c0-0.7,0.2-1.2,0.6-1.6
		c0.4-0.4,1-0.6,1.6-0.6c0.7,0,1.2,0.2,1.6,0.6c0.4,0.4,0.6,1,0.6,1.6V349.6"/>
	<path class="st1" d="M-203.9,349h0.9c0.3,0,0.5-0.1,0.6-0.2s0.2-0.3,0.2-0.6s-0.1-0.4-0.2-0.6c-0.1-0.1-0.3-0.2-0.6-0.2h-0.9V349z
		 M-203.9,350v1.8h-1.2v-5.3h2.2c0.6,0,1.1,0.2,1.5,0.5c0.4,0.3,0.6,0.7,0.6,1.3s-0.2,0.9-0.6,1.3s-0.9,0.5-1.5,0.5H-203.9"/>
	<path class="st1" d="M143.3,219h0.9c0.3,0,0.5-0.1,0.6-0.2s0.2-0.3,0.2-0.6s-0.1-0.4-0.2-0.6c-0.1-0.1-0.3-0.2-0.6-0.2h-0.9V219z
		 M143.3,220v1.8h-1.2v-5.3h2.2c0.6,0,1.1,0.2,1.5,0.5c0.4,0.3,0.6,0.7,0.6,1.3s-0.2,0.9-0.6,1.3s-0.9,0.5-1.5,0.5H143.3"/>
	<path class="st1" d="M148.2,218.8h0.8c0.3,0,0.4-0.1,0.6-0.2s0.2-0.3,0.2-0.5c0-0.2-0.1-0.4-0.2-0.5c-0.1-0.1-0.3-0.2-0.6-0.2h-0.8
		V218.8z M148.2,219.8v2H147v-5.3h2.1c0.6,0,1.1,0.1,1.5,0.4c0.4,0.3,0.5,0.7,0.5,1.2c0,0.3-0.1,0.5-0.2,0.7
		c-0.1,0.2-0.4,0.4-0.6,0.5c0.3,0.1,0.6,0.2,0.7,0.5c0.1,0.2,0.2,0.5,0.2,0.8v0.3c0,0.1,0,0.3,0.1,0.5c0,0.2,0.1,0.3,0.2,0.4v0.1
		h-1.3c-0.1-0.1-0.2-0.2-0.2-0.4c0-0.2,0-0.4,0-0.5v-0.3c0-0.3-0.1-0.4-0.2-0.6c-0.1-0.1-0.3-0.2-0.6-0.2H148.2"/>
	<path class="st1" d="M155.1,218.7c0-0.4-0.1-0.7-0.3-0.9c-0.2-0.2-0.4-0.4-0.8-0.4c-0.3,0-0.6,0.1-0.8,0.4
		c-0.2,0.2-0.3,0.6-0.3,0.9v1c0,0.4,0.1,0.7,0.3,0.9c0.2,0.2,0.4,0.4,0.8,0.4c0.3,0,0.6-0.1,0.8-0.4c0.2-0.2,0.3-0.6,0.3-0.9V218.7z
		 M156.3,219.6c0,0.7-0.2,1.2-0.6,1.6c-0.4,0.4-1,0.6-1.6,0.6c-0.7,0-1.2-0.2-1.6-0.6c-0.4-0.4-0.6-1-0.6-1.6v-1
		c0-0.7,0.2-1.2,0.6-1.6c0.4-0.4,1-0.6,1.6-0.6c0.7,0,1.2,0.2,1.6,0.6c0.4,0.4,0.6,1,0.6,1.6V219.6"/>
	<path class="st1" d="M160.7,217.4h-1.4v4.4H158v-4.4h-1.4v-0.9h4V217.4"/>
	<path class="st1" d="M164.5,219.5h-2.1v1.3h2.5v1h-3.7v-5.3h3.7v0.9h-2.5v1.1h2.1V219.5"/>
	<path class="st1" d="M169.6,220L169.6,220c0,0.6-0.2,1.1-0.5,1.5c-0.3,0.3-0.8,0.5-1.5,0.5c-0.7,0-1.2-0.2-1.6-0.6
		c-0.4-0.4-0.6-0.9-0.6-1.6v-1.1c0-0.6,0.2-1.2,0.6-1.6c0.4-0.4,0.9-0.6,1.6-0.6c0.7,0,1.2,0.2,1.5,0.5s0.6,0.8,0.6,1.4l0,0h-1.2
		c0-0.3-0.1-0.6-0.2-0.8s-0.4-0.3-0.7-0.3c-0.3,0-0.5,0.1-0.7,0.3c-0.2,0.2-0.2,0.5-0.2,0.9v1.1c0,0.4,0.1,0.7,0.3,0.9
		c0.2,0.2,0.4,0.3,0.7,0.3c0.3,0,0.5-0.1,0.6-0.2c0.1-0.2,0.2-0.4,0.2-0.8H169.6"/>
	<path class="st1" d="M173.9,217.4h-1.4v4.4h-1.2v-4.4h-1.4v-0.9h4V217.4"/>
	<path class="st1" d="M177.7,219.5h-2.1v1.3h2.5v1h-3.7v-5.3h3.7v0.9h-2.5v1.1h2.1V219.5"/>
	<path class="st1" d="M179.9,217.4v3.4h0.6c0.3,0,0.6-0.1,0.8-0.3c0.2-0.2,0.3-0.5,0.3-0.9v-1c0-0.4-0.1-0.7-0.3-0.9
		c-0.2-0.2-0.4-0.3-0.8-0.3H179.9z M178.7,221.8v-5.3h1.9c0.6,0,1.2,0.2,1.6,0.6c0.4,0.4,0.6,0.9,0.6,1.6v1c0,0.6-0.2,1.2-0.6,1.6
		c-0.4,0.4-0.9,0.6-1.6,0.6H178.7"/>
	<path class="st1" d="M189.6,220L189.6,220c0,0.6-0.2,1.1-0.5,1.5c-0.3,0.3-0.8,0.5-1.5,0.5c-0.7,0-1.2-0.2-1.6-0.6
		c-0.4-0.4-0.6-0.9-0.6-1.6v-1.1c0-0.6,0.2-1.2,0.6-1.6c0.4-0.4,0.9-0.6,1.6-0.6c0.7,0,1.2,0.2,1.5,0.5c0.4,0.3,0.6,0.8,0.6,1.4l0,0
		h-1.2c0-0.3-0.1-0.6-0.2-0.8s-0.4-0.3-0.7-0.3c-0.3,0-0.5,0.1-0.7,0.3c-0.2,0.2-0.2,0.5-0.2,0.9v1.1c0,0.4,0.1,0.7,0.3,0.9
		s0.4,0.3,0.7,0.3c0.3,0,0.5-0.1,0.6-0.2c0.1-0.2,0.2-0.4,0.2-0.8H189.6"/>
	<path class="st1" d="M191.5,220.9h2.3v1h-3.5v-5.3h1.2V220.9"/>
	<path class="st1" d="M197.4,218.7c0-0.4-0.1-0.7-0.3-0.9c-0.2-0.2-0.4-0.4-0.8-0.4c-0.3,0-0.6,0.1-0.8,0.4s-0.3,0.6-0.3,0.9v1
		c0,0.4,0.1,0.7,0.3,0.9c0.2,0.2,0.4,0.4,0.8,0.4c0.3,0,0.6-0.1,0.8-0.4c0.2-0.2,0.3-0.6,0.3-0.9V218.7z M198.6,219.6
		c0,0.7-0.2,1.2-0.6,1.6c-0.4,0.4-1,0.6-1.6,0.6c-0.7,0-1.2-0.2-1.6-0.6c-0.4-0.4-0.6-1-0.6-1.6v-1c0-0.7,0.2-1.2,0.6-1.6
		c0.4-0.4,1-0.6,1.6-0.6s1.2,0.2,1.6,0.6c0.4,0.4,0.6,1,0.6,1.6V219.6"/>
	<path class="st1" d="M203.7,216.5v3.5c0,0.6-0.2,1.1-0.6,1.4c-0.4,0.3-0.9,0.5-1.6,0.5c-0.7,0-1.2-0.2-1.6-0.5
		c-0.4-0.3-0.6-0.8-0.6-1.4v-3.5h1.2v3.5c0,0.3,0.1,0.6,0.3,0.7s0.4,0.2,0.7,0.2s0.5-0.1,0.7-0.2c0.2-0.2,0.2-0.4,0.2-0.7v-3.5
		H203.7"/>
	<path class="st1" d="M205.8,217.4v3.4h0.6c0.3,0,0.6-0.1,0.8-0.3c0.2-0.2,0.3-0.5,0.3-0.9v-1c0-0.4-0.1-0.7-0.3-0.9
		c-0.2-0.2-0.4-0.3-0.8-0.3H205.8z M204.5,221.8v-5.3h1.9c0.6,0,1.2,0.2,1.6,0.6c0.4,0.4,0.6,0.9,0.6,1.6v1c0,0.6-0.2,1.2-0.6,1.6
		c-0.4,0.4-0.9,0.6-1.6,0.6H204.5"/>
	<path class="st1" d="M31.6,219.7h-2.1v2.1h-1.2v-5.3h3.8v0.9h-2.5v1.3h2.1V219.7"/>
	<path class="st1" d="M33.8,221.8h-1.2v-5.3h1.2V221.8"/>
	<path class="st1" d="M36,218.8h0.8c0.3,0,0.4-0.1,0.6-0.2c0.1-0.1,0.2-0.3,0.2-0.5c0-0.2-0.1-0.4-0.2-0.5c-0.1-0.1-0.3-0.2-0.6-0.2
		H36V218.8z M36,219.8v2h-1.2v-5.3h2.1c0.6,0,1.1,0.1,1.5,0.4c0.4,0.3,0.5,0.7,0.5,1.2c0,0.3-0.1,0.5-0.2,0.7
		c-0.1,0.2-0.4,0.4-0.6,0.5c0.3,0.1,0.6,0.2,0.7,0.5c0.1,0.2,0.2,0.5,0.2,0.8v0.3c0,0.1,0,0.3,0.1,0.5c0,0.2,0.1,0.3,0.2,0.4v0.1
		h-1.3c-0.1-0.1-0.2-0.2-0.2-0.4c0-0.2,0-0.4,0-0.5v-0.3c0-0.3-0.1-0.4-0.2-0.6c-0.1-0.1-0.3-0.2-0.6-0.2H36"/>
	<path class="st1" d="M43,219.5h-2.1v1.3h2.5v1h-3.7v-5.3h3.7v0.9h-2.5v1.1H43V219.5"/>
	<path class="st1" d="M48.2,220L48.2,220l0.7-3.5h1.2l-1.2,5.3h-1.2l-0.9-3.3h0l-0.9,3.3h-1.2l-1.2-5.3h1.2l0.7,3.5h0l0.9-3.5h0.9
		L48.2,220"/>
	<path class="st1" d="M51.9,219.8H53l-0.6-1.9h0L51.9,219.8z M53.3,220.8h-1.7l-0.3,1h-1.2l1.7-5.3h1.3l1.7,5.3h-1.2L53.3,220.8"/>
	<path class="st1" d="M56.4,220.9h2.3v1h-3.5v-5.3h1.2V220.9"/>
	<path class="st1" d="M60.5,220.9h2.3v1h-3.5v-5.3h1.2V220.9"/>
	<path class="st1" d="M-89.5,221.1c-0.2,0.2-0.4,0.4-0.8,0.6c-0.3,0.2-0.8,0.2-1.3,0.2c-0.7,0-1.2-0.2-1.6-0.6
		c-0.4-0.4-0.6-0.9-0.6-1.6v-1.1c0-0.6,0.2-1.2,0.6-1.6c0.4-0.4,0.9-0.6,1.6-0.6c0.7,0,1.2,0.2,1.5,0.5c0.3,0.3,0.5,0.8,0.6,1.3l0,0
		h-1.2c0-0.3-0.1-0.5-0.3-0.6s-0.4-0.2-0.6-0.2c-0.3,0-0.5,0.1-0.7,0.3c-0.2,0.2-0.3,0.5-0.3,0.9v1.1c0,0.4,0.1,0.7,0.3,0.9
		c0.2,0.2,0.4,0.3,0.7,0.3c0.2,0,0.4,0,0.5-0.1c0.1,0,0.2-0.1,0.3-0.1v-0.8h-0.8v-0.8h2.1V221.1"/>
	<path class="st1" d="M-85.4,219.5h-2.1v1.3h2.5v1h-3.7v-5.3h3.7v0.9h-2.5v1.1h2.1V219.5"/>
	<path class="st1" d="M-83.1,219.8h1.1l-0.6-1.9h0L-83.1,219.8z M-81.7,220.8h-1.7l-0.3,1h-1.2l1.7-5.3h1.3l1.7,5.3h-1.2
		L-81.7,220.8"/>
	<path class="st1" d="M-78.5,218.8h0.8c0.3,0,0.4-0.1,0.6-0.2c0.1-0.1,0.2-0.3,0.2-0.5c0-0.2-0.1-0.4-0.2-0.5
		c-0.1-0.1-0.3-0.2-0.6-0.2h-0.8V218.8z M-78.5,219.8v2h-1.2v-5.3h2.1c0.6,0,1.1,0.1,1.5,0.4c0.4,0.3,0.5,0.7,0.5,1.2
		c0,0.3-0.1,0.5-0.2,0.7c-0.1,0.2-0.4,0.4-0.6,0.5c0.3,0.1,0.6,0.2,0.7,0.5c0.1,0.2,0.2,0.5,0.2,0.8v0.3c0,0.1,0,0.3,0.1,0.5
		c0,0.2,0.1,0.3,0.2,0.4v0.1h-1.3c-0.1-0.1-0.2-0.2-0.2-0.4c0-0.2,0-0.4,0-0.5v-0.3c0-0.3-0.1-0.4-0.2-0.6c-0.1-0.1-0.3-0.2-0.6-0.2
		H-78.5"/>
	<path class="st1" d="M-252,221.8h-1.2v-5.3h1.2V221.8"/>
	<path class="st1" d="M-246.6,221.8h-1.2l-2-3.4l0,0v3.4h-1.2v-5.3h1.2l1.9,3.4l0,0v-3.4h1.2V221.8"/>
	<path class="st1" d="M-242.1,217.4h-1.4v4.4h-1.2v-4.4h-1.4v-0.9h4V217.4"/>
	<path class="st1" d="M-238.3,219.5h-2.1v1.3h2.5v1h-3.7v-5.3h3.7v0.9h-2.5v1.1h2.1V219.5"/>
	<path class="st1" d="M-236.1,218.8h0.8c0.2,0,0.4-0.1,0.6-0.2s0.2-0.3,0.2-0.5c0-0.2-0.1-0.4-0.2-0.5c-0.1-0.1-0.3-0.2-0.6-0.2
		h-0.8V218.8z M-236.1,219.8v2h-1.2v-5.3h2.1c0.6,0,1.1,0.1,1.5,0.4c0.4,0.3,0.5,0.7,0.5,1.2c0,0.3-0.1,0.5-0.2,0.7
		c-0.1,0.2-0.4,0.4-0.6,0.5c0.3,0.1,0.6,0.2,0.7,0.5c0.1,0.2,0.2,0.5,0.2,0.8v0.3c0,0.1,0,0.3,0.1,0.5c0,0.2,0.1,0.3,0.2,0.4v0.1
		h-1.3c-0.1-0.1-0.2-0.2-0.2-0.4c0-0.2,0-0.4,0-0.5v-0.3c0-0.3-0.1-0.4-0.2-0.6c-0.1-0.1-0.3-0.2-0.6-0.2H-236.1"/>
	<path class="st1" d="M-228,221.8h-1.2l-1.9-3.4l0,0v3.4h-1.2v-5.3h1.2l2,3.4l0,0v-3.4h1.2V221.8"/>
	<path class="st1" d="M-223.8,219.5h-2.1v1.3h2.5v1h-3.7v-5.3h3.7v0.9h-2.5v1.1h2.1V219.5"/>
	<path class="st1" d="M-219.1,217.4h-1.4v4.4h-1.2v-4.4h-1.4v-0.9h4V217.4"/>
	<path class="st1" d="M-215.5,219h0.9c0.3,0,0.5-0.1,0.6-0.2s0.2-0.3,0.2-0.6s-0.1-0.4-0.2-0.6c-0.1-0.1-0.3-0.2-0.6-0.2h-0.9V219z
		 M-215.5,220v1.8h-1.2v-5.3h2.2c0.6,0,1.1,0.2,1.5,0.5c0.4,0.3,0.6,0.7,0.6,1.3s-0.2,0.9-0.6,1.3s-0.9,0.5-1.5,0.5H-215.5"/>
	<path class="st1" d="M-210.5,218.8h0.8c0.2,0,0.4-0.1,0.6-0.2s0.2-0.3,0.2-0.5c0-0.2-0.1-0.4-0.2-0.5c-0.1-0.1-0.3-0.2-0.6-0.2
		h-0.8V218.8z M-210.5,219.8v2h-1.2v-5.3h2.1c0.6,0,1.1,0.1,1.5,0.4c0.4,0.3,0.5,0.7,0.5,1.2c0,0.3-0.1,0.5-0.2,0.7
		c-0.1,0.2-0.4,0.4-0.6,0.5c0.3,0.1,0.6,0.2,0.7,0.5c0.1,0.2,0.2,0.5,0.2,0.8v0.3c0,0.1,0,0.3,0.1,0.5c0,0.2,0.1,0.3,0.2,0.4v0.1
		h-1.3c-0.1-0.1-0.2-0.2-0.2-0.4c0-0.2,0-0.4,0-0.5v-0.3c0-0.3-0.1-0.4-0.2-0.6c-0.1-0.1-0.3-0.2-0.6-0.2H-210.5"/>
	<path class="st1" d="M-203.7,218.7c0-0.4-0.1-0.7-0.3-0.9c-0.2-0.2-0.4-0.4-0.8-0.4c-0.3,0-0.6,0.1-0.8,0.4
		c-0.2,0.2-0.3,0.6-0.3,0.9v1c0,0.4,0.1,0.7,0.3,0.9c0.2,0.2,0.4,0.4,0.8,0.4c0.3,0,0.6-0.1,0.8-0.4c0.2-0.2,0.3-0.6,0.3-0.9V218.7z
		 M-202.4,219.6c0,0.7-0.2,1.2-0.6,1.6c-0.4,0.4-1,0.6-1.6,0.6c-0.7,0-1.2-0.2-1.6-0.6c-0.4-0.4-0.6-1-0.6-1.6v-1
		c0-0.7,0.2-1.2,0.6-1.6c0.4-0.4,1-0.6,1.6-0.6c0.7,0,1.2,0.2,1.6,0.6c0.4,0.4,0.6,1,0.6,1.6V219.6"/>
	<path class="st1" d="M-198.1,217.4h-1.4v4.4h-1.2v-4.4h-1.4v-0.9h4V217.4"/>
	<path class="st1" d="M-194.2,219.5h-2.1v1.3h2.5v1h-3.7v-5.3h3.7v0.9h-2.5v1.1h2.1V219.5"/>
	<path class="st1" d="M-189.2,220L-189.2,220c0,0.6-0.2,1.1-0.5,1.5c-0.3,0.3-0.8,0.5-1.5,0.5c-0.7,0-1.2-0.2-1.6-0.6
		c-0.4-0.4-0.6-0.9-0.6-1.6v-1.1c0-0.6,0.2-1.2,0.6-1.6c0.4-0.4,0.9-0.6,1.5-0.6c0.7,0,1.2,0.2,1.5,0.5s0.6,0.8,0.6,1.4l0,0h-1.2
		c0-0.3-0.1-0.6-0.2-0.8c-0.1-0.2-0.4-0.3-0.7-0.3c-0.3,0-0.5,0.1-0.7,0.3c-0.2,0.2-0.2,0.5-0.2,0.9v1.1c0,0.4,0.1,0.7,0.3,0.9
		s0.4,0.3,0.7,0.3c0.3,0,0.5-0.1,0.6-0.2c0.1-0.2,0.2-0.4,0.2-0.8H-189.2"/>
	<path class="st1" d="M-184.9,217.4h-1.4v4.4h-1.2v-4.4h-1.4v-0.9h4V217.4"/>
	<path class="st1" d="M-181,219.5h-2.1v1.3h2.5v1h-3.7v-5.3h3.7v0.9h-2.5v1.1h2.1V219.5"/>
	<path class="st1" d="M-178.9,217.4v3.4h0.6c0.3,0,0.6-0.1,0.8-0.3c0.2-0.2,0.3-0.5,0.3-0.9v-1c0-0.4-0.1-0.7-0.3-0.9
		c-0.2-0.2-0.4-0.3-0.8-0.3H-178.9z M-180.1,221.8v-5.3h1.9c0.6,0,1.2,0.2,1.6,0.6c0.4,0.4,0.6,0.9,0.6,1.6v1c0,0.6-0.2,1.2-0.6,1.6
		c-0.4,0.4-0.9,0.6-1.6,0.6H-180.1"/>
	<path class="st1" d="M149.8,90.9h2.3v1h-3.5v-5.3h1.2V90.9"/>
	<path class="st1" d="M155.7,88.7c0-0.4-0.1-0.7-0.3-0.9c-0.2-0.2-0.4-0.4-0.8-0.4c-0.3,0-0.6,0.1-0.8,0.4s-0.3,0.6-0.3,0.9v1
		c0,0.4,0.1,0.7,0.3,0.9c0.2,0.2,0.4,0.4,0.8,0.4c0.3,0,0.6-0.1,0.8-0.4c0.2-0.2,0.3-0.6,0.3-0.9V88.7z M156.9,89.6
		c0,0.7-0.2,1.2-0.6,1.6c-0.4,0.4-1,0.6-1.6,0.6c-0.7,0-1.2-0.2-1.6-0.6c-0.4-0.4-0.6-1-0.6-1.6v-1c0-0.7,0.2-1.2,0.6-1.6
		c0.4-0.4,1-0.6,1.6-0.6c0.7,0,1.2,0.2,1.6,0.6c0.4,0.4,0.6,1,0.6,1.6V89.6"/>
	<path class="st1" d="M161.8,90L161.8,90c0,0.6-0.2,1.1-0.6,1.5c-0.3,0.3-0.8,0.5-1.5,0.5s-1.2-0.2-1.6-0.6
		c-0.4-0.4-0.6-0.9-0.6-1.6v-1.1c0-0.6,0.2-1.2,0.6-1.6s0.9-0.6,1.5-0.6c0.7,0,1.2,0.2,1.5,0.5c0.4,0.3,0.6,0.8,0.6,1.4l0,0h-1.2
		c0-0.3-0.1-0.6-0.2-0.8c-0.1-0.2-0.4-0.3-0.7-0.3c-0.3,0-0.5,0.1-0.7,0.3c-0.2,0.2-0.2,0.5-0.2,0.9v1.1c0,0.4,0.1,0.7,0.3,0.9
		s0.4,0.3,0.7,0.3c0.3,0,0.5-0.1,0.6-0.2c0.1-0.2,0.2-0.4,0.2-0.8H161.8"/>
	<path class="st1" d="M164.3,89.7h-0.6v2.1h-1.2v-5.3h1.2v2.1h0.4l1.2-2.1h1.5l-1.7,2.4l1.8,2.9h-1.5L164.3,89.7"/>
	<path class="st1" d="M170.6,89.5h-2.1v1.3h2.5v1h-3.7v-5.3h3.7v0.9h-2.5v1.1h2.1V89.5"/>
	<path class="st1" d="M172.8,87.4v3.4h0.6c0.3,0,0.6-0.1,0.8-0.3c0.2-0.2,0.3-0.5,0.3-0.9v-1c0-0.4-0.1-0.7-0.3-0.9
		c-0.2-0.2-0.4-0.3-0.8-0.3H172.8z M171.6,91.8v-5.3h1.9c0.6,0,1.1,0.2,1.6,0.6c0.4,0.4,0.6,0.9,0.6,1.6v1c0,0.6-0.2,1.2-0.6,1.6
		c-0.4,0.4-0.9,0.6-1.6,0.6H171.6"/>
	<path class="st1" d="M182.8,91.8h-1.2v-2.1h-2v2.1h-1.2v-5.3h1.2v2.2h2v-2.2h1.2V91.8"/>
	<path class="st1" d="M186.8,88.7c0-0.4-0.1-0.7-0.3-0.9c-0.2-0.2-0.4-0.4-0.8-0.4c-0.3,0-0.6,0.1-0.8,0.4s-0.3,0.6-0.3,0.9v1
		c0,0.4,0.1,0.7,0.3,0.9c0.2,0.2,0.4,0.4,0.8,0.4c0.3,0,0.6-0.1,0.8-0.4c0.2-0.2,0.3-0.6,0.3-0.9V88.7z M188,89.6
		c0,0.7-0.2,1.2-0.6,1.6c-0.4,0.4-1,0.6-1.6,0.6c-0.7,0-1.2-0.2-1.6-0.6c-0.4-0.4-0.6-1-0.6-1.6v-1c0-0.7,0.2-1.2,0.6-1.6
		c0.4-0.4,1-0.6,1.6-0.6c0.7,0,1.2,0.2,1.6,0.6c0.4,0.4,0.6,1,0.6,1.6V89.6"/>
	<path class="st1" d="M193.1,86.5V90c0,0.6-0.2,1.1-0.6,1.4c-0.4,0.3-0.9,0.5-1.6,0.5c-0.7,0-1.2-0.2-1.6-0.5
		c-0.4-0.3-0.6-0.8-0.6-1.4v-3.5h1.2V90c0,0.3,0.1,0.6,0.3,0.7s0.4,0.2,0.7,0.2s0.5-0.1,0.7-0.2c0.2-0.2,0.3-0.4,0.3-0.7v-3.5H193.1
		"/>
	<path class="st1" d="M196.8,90.4c0-0.2-0.1-0.3-0.2-0.4c-0.1-0.1-0.4-0.2-0.7-0.3c-0.7-0.2-1.2-0.4-1.5-0.7
		c-0.3-0.2-0.5-0.6-0.5-1.1c0-0.4,0.2-0.8,0.6-1.1s0.9-0.4,1.5-0.4c0.6,0,1.1,0.2,1.4,0.5c0.4,0.3,0.6,0.7,0.6,1.2l0,0h-1.2
		c0-0.2-0.1-0.4-0.2-0.5s-0.3-0.2-0.6-0.2c-0.3,0-0.4,0.1-0.6,0.2s-0.2,0.2-0.2,0.4c0,0.2,0.1,0.3,0.2,0.4c0.1,0.1,0.4,0.2,0.8,0.4
		c0.6,0.2,1.1,0.4,1.4,0.7c0.3,0.3,0.5,0.6,0.5,1.1c0,0.5-0.2,0.8-0.5,1.1c-0.4,0.3-0.8,0.4-1.5,0.4s-1.1-0.2-1.6-0.5
		c-0.4-0.3-0.7-0.7-0.6-1.3l0,0h1.2c0,0.3,0.1,0.5,0.2,0.7c0.2,0.1,0.4,0.2,0.8,0.2c0.3,0,0.4-0.1,0.6-0.2
		C196.7,90.7,196.8,90.6,196.8,90.4"/>
	<path class="st1" d="M202,89.5h-2.1v1.3h2.5v1h-3.7v-5.3h3.7v0.9h-2.5v1.1h2.1V89.5"/>
	<path class="st1" d="M24.1,90.4c0-0.2-0.1-0.3-0.2-0.4c-0.1-0.1-0.3-0.2-0.7-0.3c-0.7-0.2-1.2-0.4-1.5-0.7
		c-0.3-0.2-0.5-0.6-0.5-1.1c0-0.4,0.2-0.8,0.6-1.1s0.9-0.4,1.5-0.4s1.1,0.2,1.5,0.5c0.4,0.3,0.6,0.7,0.5,1.2l0,0h-1.2
		c0-0.2-0.1-0.4-0.2-0.5s-0.3-0.2-0.6-0.2c-0.3,0-0.4,0.1-0.6,0.2c-0.1,0.1-0.2,0.2-0.2,0.4c0,0.2,0.1,0.3,0.2,0.4
		c0.1,0.1,0.4,0.2,0.8,0.4c0.6,0.2,1.1,0.4,1.4,0.7c0.3,0.3,0.5,0.6,0.5,1.1c0,0.5-0.2,0.8-0.5,1.1c-0.4,0.3-0.8,0.4-1.5,0.4
		s-1.1-0.2-1.6-0.5c-0.4-0.3-0.7-0.7-0.6-1.3l0,0h1.2c0,0.3,0.1,0.5,0.3,0.7c0.2,0.1,0.4,0.2,0.8,0.2c0.3,0,0.4-0.1,0.6-0.2
		C24.1,90.7,24.1,90.6,24.1,90.4"/>
	<path class="st1" d="M29.4,89.5h-2.1v1.3h2.5v1H26v-5.3h3.7v0.9h-2.5v1.1h2.1V89.5"/>
	<path class="st1" d="M34.4,90L34.4,90c0,0.6-0.2,1.1-0.5,1.5c-0.3,0.3-0.8,0.5-1.5,0.5c-0.7,0-1.2-0.2-1.6-0.6
		c-0.4-0.4-0.6-0.9-0.6-1.6v-1.1c0-0.6,0.2-1.2,0.6-1.6c0.4-0.4,0.9-0.6,1.6-0.6c0.7,0,1.2,0.2,1.5,0.5s0.6,0.8,0.6,1.4l0,0h-1.2
		c0-0.3-0.1-0.6-0.2-0.8c-0.1-0.2-0.4-0.3-0.7-0.3c-0.3,0-0.5,0.1-0.7,0.3c-0.2,0.2-0.2,0.5-0.2,0.9v1.1c0,0.4,0.1,0.7,0.3,0.9
		c0.2,0.2,0.4,0.3,0.7,0.3c0.3,0,0.5-0.1,0.6-0.2c0.1-0.2,0.2-0.4,0.2-0.8H34.4"/>
	<path class="st1" d="M39.5,86.5V90c0,0.6-0.2,1.1-0.6,1.4c-0.4,0.3-0.9,0.5-1.6,0.5c-0.7,0-1.2-0.2-1.6-0.5
		c-0.4-0.3-0.6-0.8-0.6-1.4v-3.5h1.2V90c0,0.3,0.1,0.6,0.3,0.7s0.4,0.2,0.7,0.2c0.3,0,0.5-0.1,0.7-0.2c0.2-0.2,0.3-0.4,0.3-0.7v-3.5
		H39.5"/>
	<path class="st1" d="M41.5,88.8h0.8c0.2,0,0.4-0.1,0.6-0.2s0.2-0.3,0.2-0.5c0-0.2-0.1-0.4-0.2-0.5c-0.1-0.1-0.3-0.2-0.6-0.2h-0.8
		V88.8z M41.5,89.8v2h-1.2v-5.3h2.1c0.6,0,1.1,0.1,1.5,0.4c0.4,0.3,0.5,0.7,0.5,1.2c0,0.3-0.1,0.5-0.2,0.7c-0.1,0.2-0.4,0.4-0.6,0.5
		c0.3,0.1,0.6,0.2,0.7,0.5c0.1,0.2,0.2,0.5,0.2,0.8v0.3c0,0.1,0,0.3,0.1,0.5c0,0.2,0.1,0.3,0.2,0.4v0.1h-1.3
		c-0.1-0.1-0.2-0.2-0.2-0.4c0-0.2,0-0.4,0-0.5v-0.3c0-0.3-0.1-0.4-0.2-0.6c-0.1-0.1-0.3-0.2-0.6-0.2H41.5"/>
	<path class="st1" d="M48.6,89.5h-2.1v1.3H49v1h-3.7v-5.3H49v0.9h-2.5v1.1h2.1V89.5"/>
	<path class="st1" d="M55.5,90L55.5,90c0,0.6-0.2,1.1-0.5,1.5c-0.3,0.3-0.8,0.5-1.5,0.5c-0.7,0-1.2-0.2-1.6-0.6
		c-0.4-0.4-0.6-0.9-0.6-1.6v-1.1c0-0.6,0.2-1.2,0.6-1.6c0.4-0.4,0.9-0.6,1.5-0.6c0.7,0,1.2,0.2,1.5,0.5s0.6,0.8,0.6,1.4l0,0h-1.2
		c0-0.3-0.1-0.6-0.2-0.8s-0.4-0.3-0.7-0.3c-0.3,0-0.5,0.1-0.7,0.3c-0.2,0.2-0.2,0.5-0.2,0.9v1.1c0,0.4,0.1,0.7,0.3,0.9
		s0.4,0.3,0.7,0.3c0.3,0,0.5-0.1,0.6-0.2c0.1-0.2,0.2-0.4,0.2-0.8H55.5"/>
	<path class="st1" d="M60.6,91.8h-1.2v-2.1h-2v2.1h-1.2v-5.3h1.2v2.2h2v-2.2h1.2V91.8"/>
	<path class="st1" d="M63,89.8h1.1l-0.6-1.9h0L63,89.8z M64.4,90.8h-1.7l-0.3,1h-1.2l1.7-5.3h1.3l1.7,5.3h-1.2L64.4,90.8"/>
	<path class="st1" d="M69.7,87.4h-1.4v4.4h-1.2v-4.4h-1.4v-0.9h4V87.4"/>
	<path class="st1" d="M-118.5,89h0.9c0.3,0,0.5-0.1,0.6-0.2s0.2-0.3,0.2-0.6s-0.1-0.4-0.2-0.6c-0.1-0.1-0.3-0.2-0.6-0.2h-0.9V89z
		 M-118.5,90v1.8h-1.2v-5.3h2.2c0.6,0,1.1,0.2,1.5,0.5c0.4,0.3,0.6,0.7,0.6,1.3s-0.2,0.9-0.6,1.3s-0.9,0.5-1.5,0.5H-118.5"/>
	<path class="st1" d="M-113.6,88.8h0.8c0.3,0,0.4-0.1,0.6-0.2s0.2-0.3,0.2-0.5c0-0.2-0.1-0.4-0.2-0.5c-0.1-0.1-0.3-0.2-0.6-0.2h-0.8
		V88.8z M-113.6,89.8v2h-1.2v-5.3h2.1c0.6,0,1.1,0.1,1.5,0.4c0.4,0.3,0.5,0.7,0.5,1.2c0,0.3-0.1,0.5-0.2,0.7
		c-0.1,0.2-0.4,0.4-0.6,0.5c0.3,0.1,0.6,0.2,0.7,0.5c0.1,0.2,0.2,0.5,0.2,0.8v0.3c0,0.1,0,0.3,0.1,0.5c0,0.2,0.1,0.3,0.2,0.4v0.1
		h-1.3c-0.1-0.1-0.2-0.2-0.2-0.4c0-0.2,0-0.4,0-0.5v-0.3c0-0.3-0.1-0.4-0.2-0.6c-0.1-0.1-0.3-0.2-0.6-0.2H-113.6"/>
	<path class="st1" d="M-106.7,88.7c0-0.4-0.1-0.7-0.3-0.9c-0.2-0.2-0.4-0.4-0.8-0.4c-0.3,0-0.6,0.1-0.8,0.4
		c-0.2,0.2-0.3,0.6-0.3,0.9v1c0,0.4,0.1,0.7,0.3,0.9c0.2,0.2,0.4,0.4,0.8,0.4c0.3,0,0.6-0.1,0.8-0.4c0.2-0.2,0.3-0.6,0.3-0.9V88.7z
		 M-105.5,89.6c0,0.7-0.2,1.2-0.6,1.6c-0.4,0.4-1,0.6-1.6,0.6c-0.7,0-1.2-0.2-1.6-0.6c-0.4-0.4-0.6-1-0.6-1.6v-1
		c0-0.7,0.2-1.2,0.6-1.6c0.4-0.4,1-0.6,1.6-0.6c0.7,0,1.2,0.2,1.6,0.6c0.4,0.4,0.6,1,0.6,1.6V89.6"/>
	<path class="st1" d="M-101.1,87.4h-1.4v4.4h-1.2v-4.4h-1.4v-0.9h4V87.4"/>
	<path class="st1" d="M-97.3,89.5h-2.1v1.3h2.5v1h-3.7v-5.3h3.7v0.9h-2.5v1.1h2.1V89.5"/>
	<path class="st1" d="M-92.2,90L-92.2,90c0,0.6-0.2,1.1-0.5,1.5c-0.3,0.3-0.8,0.5-1.5,0.5c-0.7,0-1.2-0.2-1.6-0.6
		c-0.4-0.4-0.6-0.9-0.6-1.6v-1.1c0-0.6,0.2-1.2,0.6-1.6c0.4-0.4,0.9-0.6,1.6-0.6c0.7,0,1.2,0.2,1.5,0.5s0.6,0.8,0.6,1.4l0,0h-1.2
		c0-0.3-0.1-0.6-0.2-0.8c-0.1-0.2-0.4-0.3-0.7-0.3c-0.3,0-0.5,0.1-0.7,0.3c-0.2,0.2-0.2,0.5-0.2,0.9v1.1c0,0.4,0.1,0.7,0.3,0.9
		s0.4,0.3,0.7,0.3c0.3,0,0.5-0.1,0.6-0.2c0.1-0.2,0.2-0.4,0.2-0.8H-92.2"/>
	<path class="st1" d="M-87.9,87.4h-1.4v4.4h-1.2v-4.4H-92v-0.9h4V87.4"/>
	<path class="st1" d="M-84.1,89.5h-2.1v1.3h2.5v1h-3.7v-5.3h3.7v0.9h-2.5v1.1h2.1V89.5"/>
	<path class="st1" d="M-81.9,87.4v3.4h0.6c0.3,0,0.6-0.1,0.8-0.3c0.2-0.2,0.3-0.5,0.3-0.9v-1c0-0.4-0.1-0.7-0.3-0.9
		c-0.2-0.2-0.4-0.3-0.8-0.3H-81.9z M-83.1,91.8v-5.3h1.9c0.6,0,1.2,0.2,1.6,0.6c0.4,0.4,0.6,0.9,0.6,1.6v1c0,0.6-0.2,1.2-0.6,1.6
		c-0.4,0.4-0.9,0.6-1.6,0.6H-83.1"/>
	<path class="st1" d="M-73,89.7h-2.1v2.1h-1.2v-5.3h3.8v0.9h-2.5v1.3h2.1V89.7"/>
	<path class="st1" d="M-68.9,88.7c0-0.4-0.1-0.7-0.3-0.9c-0.2-0.2-0.4-0.4-0.8-0.4c-0.3,0-0.6,0.1-0.8,0.4c-0.2,0.2-0.3,0.6-0.3,0.9
		v1c0,0.4,0.1,0.7,0.3,0.9c0.2,0.2,0.4,0.4,0.8,0.4c0.3,0,0.6-0.1,0.8-0.4c0.2-0.2,0.3-0.6,0.3-0.9V88.7z M-67.7,89.6
		c0,0.7-0.2,1.2-0.6,1.6c-0.4,0.4-1,0.6-1.6,0.6c-0.7,0-1.2-0.2-1.6-0.6c-0.4-0.4-0.6-1-0.6-1.6v-1c0-0.7,0.2-1.2,0.6-1.6
		c0.4-0.4,1-0.6,1.6-0.6c0.7,0,1.2,0.2,1.6,0.6c0.4,0.4,0.6,1,0.6,1.6V89.6"/>
	<path class="st1" d="M-65.7,90.9h2.3v1h-3.5v-5.3h1.2V90.9"/>
	<path class="st1" d="M-61.6,87.4v3.4h0.6c0.3,0,0.6-0.1,0.8-0.3c0.2-0.2,0.3-0.5,0.3-0.9v-1c0-0.4-0.1-0.7-0.3-0.9
		c-0.2-0.2-0.4-0.3-0.8-0.3H-61.6z M-62.9,91.8v-5.3h1.9c0.6,0,1.2,0.2,1.6,0.6c0.4,0.4,0.6,0.9,0.6,1.6v1c0,0.6-0.2,1.2-0.6,1.6
		c-0.4,0.4-0.9,0.6-1.6,0.6H-62.9"/>
	<path class="st1" d="M-54.6,89.5h-2.1v1.3h2.5v1H-58v-5.3h3.7v0.9h-2.5v1.1h2.1V89.5"/>
	<path class="st1" d="M-52.5,88.8h0.8c0.3,0,0.4-0.1,0.6-0.2s0.2-0.3,0.2-0.5c0-0.2-0.1-0.4-0.2-0.5c-0.1-0.1-0.3-0.2-0.6-0.2h-0.8
		V88.8z M-52.5,89.8v2h-1.2v-5.3h2.1c0.6,0,1.1,0.1,1.5,0.4s0.5,0.7,0.5,1.2c0,0.3-0.1,0.5-0.2,0.7c-0.1,0.2-0.4,0.4-0.6,0.5
		c0.3,0.1,0.6,0.2,0.7,0.5c0.1,0.2,0.2,0.5,0.2,0.8v0.3c0,0.1,0,0.3,0.1,0.5c0,0.2,0.1,0.3,0.2,0.4v0.1h-1.3
		c-0.1-0.1-0.2-0.2-0.2-0.4c0-0.2,0-0.4,0-0.5v-0.3c0-0.3-0.1-0.4-0.2-0.6c-0.1-0.1-0.3-0.2-0.6-0.2H-52.5"/>
	<path class="st1" d="M-236.8,89.5h-2.1v1.3h2.5v1h-3.7v-5.3h3.7v0.9h-2.5v1.1h2.1V89.5"/>
	<path class="st1" d="M-234.2,86.5l1.2,3.7h0l1.2-3.7h1.6v5.3h-1.2v-1.3l0.1-2.4l0,0l-1.3,3.8h-0.8l-1.3-3.7l0,0l0.1,2.4v1.3h-1.2
		v-5.3H-234.2"/>
	<path class="st1" d="M-227.8,89.8h1.1l-0.6-1.9h0L-227.8,89.8z M-226.4,90.8h-1.7l-0.3,1h-1.2l1.7-5.3h1.3l1.7,5.3h-1.2
		L-226.4,90.8"/>
	<path class="st1" d="M-223.2,91.8h-1.2v-5.3h1.2V91.8"/>
	<path class="st1" d="M-221,90.9h2.3v1h-3.5v-5.3h1.2V90.9"/>
	<path class="st1" d="M-215.1,90.9h2.3v1h-3.5v-5.3h1.2V90.9"/>
	<path class="st1" d="M-209.2,88.7c0-0.4-0.1-0.7-0.3-0.9c-0.2-0.2-0.4-0.4-0.8-0.4c-0.3,0-0.6,0.1-0.8,0.4s-0.3,0.6-0.3,0.9v1
		c0,0.4,0.1,0.7,0.3,0.9c0.2,0.2,0.4,0.4,0.8,0.4c0.3,0,0.6-0.1,0.8-0.4c0.2-0.2,0.3-0.6,0.3-0.9V88.7z M-207.9,89.6
		c0,0.7-0.2,1.2-0.6,1.6c-0.4,0.4-1,0.6-1.6,0.6c-0.7,0-1.2-0.2-1.6-0.6c-0.4-0.4-0.6-1-0.6-1.6v-1c0-0.7,0.2-1.2,0.6-1.6
		c0.4-0.4,1-0.6,1.6-0.6s1.2,0.2,1.6,0.6c0.4,0.4,0.6,1,0.6,1.6V89.6"/>
	<path class="st1" d="M-203.1,90L-203.1,90c0,0.6-0.2,1.1-0.5,1.5c-0.3,0.3-0.8,0.5-1.5,0.5c-0.7,0-1.2-0.2-1.6-0.6
		c-0.4-0.4-0.6-0.9-0.6-1.6v-1.1c0-0.6,0.2-1.2,0.6-1.6c0.4-0.4,0.9-0.6,1.5-0.6c0.7,0,1.2,0.2,1.5,0.5s0.6,0.8,0.6,1.4l0,0h-1.2
		c0-0.3-0.1-0.6-0.2-0.8c-0.1-0.2-0.4-0.3-0.7-0.3c-0.3,0-0.5,0.1-0.7,0.3c-0.2,0.2-0.2,0.5-0.2,0.9v1.1c0,0.4,0.1,0.7,0.3,0.9
		s0.4,0.3,0.7,0.3c0.3,0,0.5-0.1,0.6-0.2c0.1-0.2,0.2-0.4,0.2-0.8H-203.1"/>
	<path class="st1" d="M-200.6,89.7h-0.6v2.1h-1.2v-5.3h1.2v2.1h0.4l1.2-2.1h1.5l-1.7,2.4l1.8,2.9h-1.5L-200.6,89.7"/>
	<path class="st1" d="M-194.2,89.5h-2.1v1.3h2.5v1h-3.7v-5.3h3.7v0.9h-2.5v1.1h2.1V89.5"/>
	<path class="st1" d="M-192.1,87.4v3.4h0.6c0.3,0,0.6-0.1,0.8-0.3c0.2-0.2,0.3-0.5,0.3-0.9v-1c0-0.4-0.1-0.7-0.3-0.9
		c-0.2-0.2-0.4-0.3-0.8-0.3H-192.1z M-193.3,91.8v-5.3h1.9c0.6,0,1.2,0.2,1.6,0.6c0.4,0.4,0.6,0.9,0.6,1.6v1c0,0.6-0.2,1.2-0.6,1.6
		c-0.4,0.4-0.9,0.6-1.6,0.6H-193.3"/>
	<path class="st1" d="M170.6-40L170.6-40c0,0.6-0.2,1.1-0.5,1.5c-0.3,0.3-0.8,0.5-1.5,0.5c-0.7,0-1.2-0.2-1.6-0.6
		c-0.4-0.4-0.6-0.9-0.6-1.6v-1.1c0-0.6,0.2-1.2,0.6-1.6c0.4-0.4,0.9-0.6,1.5-0.6c0.7,0,1.2,0.2,1.5,0.5s0.6,0.8,0.6,1.4l0,0h-1.2
		c0-0.3-0.1-0.6-0.2-0.8s-0.4-0.3-0.7-0.3c-0.3,0-0.5,0.1-0.7,0.3c-0.2,0.2-0.2,0.5-0.2,0.9v1.1c0,0.4,0.1,0.7,0.3,0.9
		s0.4,0.3,0.7,0.3c0.3,0,0.5-0.1,0.6-0.2c0.1-0.2,0.2-0.4,0.2-0.8H170.6"/>
	<path class="st1" d="M175.4-40L175.4-40c0,0.6-0.2,1.1-0.5,1.5c-0.3,0.3-0.8,0.5-1.5,0.5c-0.7,0-1.2-0.2-1.6-0.6
		c-0.4-0.4-0.6-0.9-0.6-1.6v-1.1c0-0.6,0.2-1.2,0.6-1.6c0.4-0.4,0.9-0.6,1.6-0.6c0.7,0,1.2,0.2,1.5,0.5s0.6,0.8,0.6,1.4l0,0h-1.2
		c0-0.3-0.1-0.6-0.2-0.8c-0.1-0.2-0.4-0.3-0.7-0.3c-0.3,0-0.5,0.1-0.7,0.3c-0.2,0.2-0.2,0.5-0.2,0.9v1.1c0,0.4,0.1,0.7,0.3,0.9
		c0.2,0.2,0.4,0.3,0.7,0.3c0.3,0,0.5-0.1,0.6-0.2c0.1-0.2,0.2-0.4,0.2-0.8H175.4"/>
	<path class="st1" d="M179.7-42.6h-1.4v4.4h-1.2v-4.4h-1.4v-0.9h4V-42.6"/>
	<path class="st1" d="M182.2-39.6l0,0.2h0L182.2-39.6l1.2-3.9h1.3l-1.7,5.3h-1.3l-1.7-5.3h1.3L182.2-39.6"/>
	<path class="st1" d="M35.8-39.6c0-0.2-0.1-0.3-0.2-0.4s-0.3-0.2-0.7-0.3c-0.7-0.2-1.2-0.4-1.5-0.7c-0.3-0.2-0.5-0.6-0.5-1.1
		c0-0.4,0.2-0.8,0.6-1.1s0.9-0.4,1.5-0.4c0.6,0,1.1,0.2,1.4,0.5c0.4,0.3,0.6,0.7,0.6,1.2l0,0h-1.2c0-0.2-0.1-0.4-0.2-0.5
		s-0.3-0.2-0.6-0.2c-0.3,0-0.4,0.1-0.6,0.2s-0.2,0.2-0.2,0.4c0,0.2,0.1,0.3,0.2,0.4c0.1,0.1,0.4,0.2,0.8,0.4
		c0.6,0.2,1.1,0.4,1.4,0.7c0.3,0.3,0.5,0.6,0.5,1.1c0,0.5-0.2,0.8-0.5,1.1c-0.4,0.3-0.8,0.4-1.5,0.4s-1.1-0.2-1.6-0.5
		c-0.4-0.3-0.7-0.7-0.6-1.3l0,0h1.2c0,0.3,0.1,0.5,0.3,0.7c0.2,0.1,0.4,0.2,0.8,0.2c0.3,0,0.4-0.1,0.6-0.2
		C35.8-39.3,35.8-39.4,35.8-39.6"/>
	<path class="st1" d="M42.2-38.2H41v-2.1h-2v2.1h-1.2v-5.3H39v2.2h2v-2.2h1.2V-38.2"/>
	<path class="st1" d="M44.3-38.2h-1.2v-5.3h1.2V-38.2"/>
	<path class="st1" d="M48.6-40.5h-2.1v1.3H49v1h-3.7v-5.3H49v0.9h-2.5v1.1h2.1V-40.5"/>
	<path class="st1" d="M50.8-39.1h2.3v1h-3.5v-5.3h1.2V-39.1"/>
	<path class="st1" d="M54.8-42.6v3.4h0.6c0.3,0,0.6-0.1,0.8-0.3c0.2-0.2,0.3-0.5,0.3-0.9v-1c0-0.4-0.1-0.7-0.3-0.9
		c-0.2-0.2-0.4-0.3-0.8-0.3H54.8z M53.6-38.2v-5.3h1.9c0.6,0,1.2,0.2,1.6,0.6c0.4,0.4,0.6,0.9,0.6,1.6v1c0,0.6-0.2,1.2-0.6,1.6
		c-0.4,0.4-0.9,0.6-1.6,0.6H53.6"/>
	<path class="st1" d="M-99.3-43.5l1.2,3.7h0l1.2-3.7h1.6v5.3h-1.2v-1.3l0.1-2.4l0,0l-1.3,3.8h-0.8l-1.3-3.7l0,0l0.1,2.4v1.3h-1.2
		v-5.3H-99.3"/>
	<path class="st1" d="M-91.2-41.3c0-0.4-0.1-0.7-0.3-0.9c-0.2-0.2-0.4-0.4-0.8-0.4c-0.3,0-0.6,0.1-0.8,0.4s-0.3,0.6-0.3,0.9v1
		c0,0.4,0.1,0.7,0.3,0.9c0.2,0.2,0.4,0.4,0.8,0.4c0.3,0,0.6-0.1,0.8-0.4c0.2-0.2,0.3-0.6,0.3-0.9V-41.3z M-90-40.4
		c0,0.7-0.2,1.2-0.6,1.6c-0.4,0.4-1,0.6-1.6,0.6c-0.7,0-1.2-0.2-1.6-0.6c-0.4-0.4-0.6-1-0.6-1.6v-1c0-0.7,0.2-1.2,0.6-1.6
		c0.4-0.4,1-0.6,1.6-0.6c0.7,0,1.2,0.2,1.6,0.6c0.4,0.4,0.6,1,0.6,1.6V-40.4"/>
	<path class="st1" d="M-84.8-38.2H-86l-1.9-3.4l0,0v3.4h-1.2v-5.3h1.2l2,3.4l0,0v-3.4h1.2V-38.2"/>
	<path class="st1" d="M-82.6-38.2h-1.2v-5.3h1.2V-38.2"/>
	<path class="st1" d="M-78.1-42.6h-1.4v4.4h-1.2v-4.4h-1.4v-0.9h4V-42.6"/>
	<path class="st1" d="M-74.5-41.3c0-0.4-0.1-0.7-0.3-0.9c-0.2-0.2-0.4-0.4-0.8-0.4c-0.3,0-0.6,0.1-0.8,0.4c-0.2,0.2-0.3,0.6-0.3,0.9
		v1c0,0.4,0.1,0.7,0.3,0.9c0.2,0.2,0.4,0.4,0.8,0.4c0.3,0,0.6-0.1,0.8-0.4c0.2-0.2,0.3-0.6,0.3-0.9V-41.3z M-73.3-40.4
		c0,0.7-0.2,1.2-0.6,1.6c-0.4,0.4-1,0.6-1.6,0.6c-0.7,0-1.2-0.2-1.6-0.6c-0.4-0.4-0.6-1-0.6-1.6v-1c0-0.7,0.2-1.2,0.6-1.6
		c0.4-0.4,1-0.6,1.6-0.6c0.7,0,1.2,0.2,1.6,0.6c0.4,0.4,0.6,1,0.6,1.6V-40.4"/>
	<path class="st1" d="M-71.3-41.2h0.8c0.3,0,0.4-0.1,0.6-0.2c0.1-0.1,0.2-0.3,0.2-0.5c0-0.2-0.1-0.4-0.2-0.5
		c-0.1-0.1-0.3-0.2-0.6-0.2h-0.8V-41.2z M-71.3-40.2v2h-1.2v-5.3h2.1c0.6,0,1.1,0.1,1.5,0.4c0.4,0.3,0.5,0.7,0.5,1.2
		c0,0.3-0.1,0.5-0.2,0.7c-0.1,0.2-0.4,0.4-0.6,0.5c0.3,0.1,0.6,0.2,0.7,0.5c0.1,0.2,0.2,0.5,0.2,0.8v0.3c0,0.1,0,0.3,0.1,0.5
		c0,0.2,0.1,0.3,0.2,0.4v0.1h-1.3c-0.1-0.1-0.2-0.2-0.2-0.4c0-0.2,0-0.4,0-0.5v-0.3c0-0.3-0.1-0.4-0.2-0.6c-0.1-0.1-0.3-0.2-0.6-0.2
		H-71.3"/>
	<path class="st1" d="M-225.9-40L-225.9-40c0,0.6-0.2,1.1-0.5,1.5c-0.3,0.3-0.8,0.5-1.5,0.5c-0.7,0-1.2-0.2-1.6-0.6
		c-0.4-0.4-0.6-0.9-0.6-1.6v-1.1c0-0.6,0.2-1.2,0.6-1.6c0.4-0.4,0.9-0.6,1.5-0.6c0.7,0,1.2,0.2,1.5,0.5c0.4,0.3,0.6,0.8,0.6,1.4l0,0
		h-1.2c0-0.3-0.1-0.6-0.2-0.8c-0.1-0.2-0.4-0.3-0.7-0.3c-0.3,0-0.5,0.1-0.7,0.3c-0.2,0.2-0.2,0.5-0.2,0.9v1.1c0,0.4,0.1,0.7,0.3,0.9
		s0.4,0.3,0.7,0.3c0.3,0,0.5-0.1,0.6-0.2c0.1-0.2,0.2-0.4,0.2-0.8H-225.9"/>
	<path class="st1" d="M-223.8-40.2h1.1l-0.6-1.9h0L-223.8-40.2z M-222.4-39.2h-1.7l-0.3,1h-1.2l1.7-5.3h1.3l1.7,5.3h-1.2
		L-222.4-39.2"/>
	<path class="st1" d="M-216.1-43.5v3.5c0,0.6-0.2,1.1-0.6,1.4s-0.9,0.5-1.6,0.5c-0.7,0-1.2-0.2-1.6-0.5s-0.6-0.8-0.6-1.4v-3.5h1.2
		v3.5c0,0.3,0.1,0.6,0.3,0.7s0.4,0.2,0.7,0.2c0.3,0,0.5-0.1,0.7-0.2c0.2-0.2,0.2-0.4,0.2-0.7v-3.5H-216.1"/>
	<path class="st1" d="M-211.6-42.6h-1.4v4.4h-1.2v-4.4h-1.4v-0.9h4V-42.6"/>
	<path class="st1" d="M-209.8-38.2h-1.2v-5.3h1.2V-38.2"/>
	<path class="st1" d="M-205.7-41.3c0-0.4-0.1-0.7-0.3-0.9c-0.2-0.2-0.4-0.4-0.8-0.4c-0.3,0-0.6,0.1-0.8,0.4s-0.3,0.6-0.3,0.9v1
		c0,0.4,0.1,0.7,0.3,0.9c0.2,0.2,0.4,0.4,0.8,0.4c0.3,0,0.6-0.1,0.8-0.4c0.2-0.2,0.3-0.6,0.3-0.9V-41.3z M-204.5-40.4
		c0,0.7-0.2,1.2-0.6,1.6c-0.4,0.4-1,0.6-1.6,0.6c-0.7,0-1.2-0.2-1.6-0.6c-0.4-0.4-0.6-1-0.6-1.6v-1c0-0.7,0.2-1.2,0.6-1.6
		c0.4-0.4,1-0.6,1.6-0.6s1.2,0.2,1.6,0.6c0.4,0.4,0.6,1,0.6,1.6V-40.4"/>
	<path class="st1" d="M-199.3-38.2h-1.2l-2-3.4l0,0v3.4h-1.2v-5.3h1.2l2,3.4l0,0v-3.4h1.2V-38.2"/>
	<path class="st1" d="M168.1-170.5H166v1.3h2.5v1h-3.7v-5.3h3.7v0.9H166v1.1h2.1V-170.5"/>
	<path class="st1" d="M170.7-173.5l1.2,3.7h0l1.2-3.7h1.6v5.3h-1.2v-1.3l0.1-2.4l0,0l-1.3,3.8h-0.8l-1.3-3.7l0,0l0.1,2.4v1.3h-1.2
		v-5.3H170.7"/>
	<path class="st1" d="M177.1-170.2h1.1l-0.6-1.9h0L177.1-170.2z M178.5-169.2h-1.7l-0.3,1h-1.2l1.7-5.3h1.3l1.7,5.3h-1.2
		L178.5-169.2"/>
	<path class="st1" d="M181.7-168.2h-1.2v-5.3h1.2V-168.2"/>
	<path class="st1" d="M183.9-169.1h2.3v1h-3.5v-5.3h1.2V-169.1"/>
	<path class="st1" d="M26.6-170L26.6-170c0,0.6-0.2,1.1-0.5,1.5c-0.3,0.3-0.8,0.5-1.5,0.5c-0.7,0-1.2-0.2-1.6-0.6
		c-0.4-0.4-0.6-0.9-0.6-1.6v-1.1c0-0.6,0.2-1.2,0.6-1.6c0.4-0.4,0.9-0.6,1.5-0.6c0.7,0,1.2,0.2,1.5,0.5c0.4,0.3,0.6,0.8,0.6,1.4l0,0
		h-1.2c0-0.3-0.1-0.6-0.2-0.8c-0.1-0.2-0.4-0.3-0.7-0.3c-0.3,0-0.5,0.1-0.7,0.3c-0.2,0.2-0.2,0.5-0.2,0.9v1.1c0,0.4,0.1,0.7,0.3,0.9
		s0.4,0.3,0.7,0.3c0.3,0,0.5-0.1,0.6-0.2c0.1-0.2,0.2-0.4,0.2-0.8H26.6"/>
	<path class="st1" d="M28.5-171.2h0.8c0.3,0,0.4-0.1,0.6-0.2s0.2-0.3,0.2-0.5c0-0.2-0.1-0.4-0.2-0.5c-0.1-0.1-0.3-0.2-0.6-0.2h-0.8
		V-171.2z M28.5-170.2v2h-1.2v-5.3h2.1c0.6,0,1.1,0.1,1.5,0.4s0.5,0.7,0.5,1.2c0,0.3-0.1,0.5-0.2,0.7c-0.1,0.2-0.4,0.4-0.6,0.5
		c0.3,0.1,0.6,0.2,0.7,0.5c0.1,0.2,0.2,0.5,0.2,0.8v0.3c0,0.1,0,0.3,0.1,0.5c0,0.2,0.1,0.3,0.2,0.4v0.1h-1.3
		c-0.1-0.1-0.2-0.2-0.2-0.4c0-0.2,0-0.4,0-0.5v-0.3c0-0.3-0.1-0.4-0.2-0.6c-0.1-0.1-0.3-0.2-0.6-0.2H28.5"/>
	<path class="st1" d="M35.6-170.5h-2.1v1.3h2.5v1h-3.7v-5.3h3.7v0.9h-2.5v1.1h2.1V-170.5"/>
	<path class="st1" d="M37.7-172.6v3.4h0.6c0.3,0,0.6-0.1,0.8-0.3c0.2-0.2,0.3-0.5,0.3-0.9v-1c0-0.4-0.1-0.7-0.3-0.9
		c-0.2-0.2-0.4-0.3-0.8-0.3H37.7z M36.5-168.2v-5.3h1.9c0.6,0,1.2,0.2,1.6,0.6c0.4,0.4,0.6,0.9,0.6,1.6v1c0,0.6-0.2,1.2-0.6,1.6
		c-0.4,0.4-0.9,0.6-1.6,0.6H36.5"/>
	<path class="st1" d="M42.7-168.2h-1.2v-5.3h1.2V-168.2"/>
	<path class="st1" d="M47.2-172.6h-1.4v4.4h-1.2v-4.4h-1.4v-0.9h4V-172.6"/>
	<path class="st1" d="M53.8-170L53.8-170c0,0.6-0.2,1.1-0.5,1.5c-0.3,0.3-0.8,0.5-1.5,0.5c-0.7,0-1.2-0.2-1.6-0.6
		c-0.4-0.4-0.6-0.9-0.6-1.6v-1.1c0-0.6,0.2-1.2,0.6-1.6c0.4-0.4,0.9-0.6,1.6-0.6c0.7,0,1.2,0.2,1.5,0.5s0.6,0.8,0.6,1.4l0,0h-1.2
		c0-0.3-0.1-0.6-0.2-0.8c-0.1-0.2-0.4-0.3-0.7-0.3c-0.3,0-0.5,0.1-0.7,0.3c-0.2,0.2-0.2,0.5-0.2,0.9v1.1c0,0.4,0.1,0.7,0.3,0.9
		c0.2,0.2,0.4,0.3,0.7,0.3c0.3,0,0.5-0.1,0.6-0.2c0.1-0.2,0.2-0.4,0.2-0.8H53.8"/>
	<path class="st1" d="M55.9-170.2H57l-0.6-1.9h0L55.9-170.2z M57.3-169.2h-1.7l-0.3,1H54l1.7-5.3h1.3l1.7,5.3h-1.2L57.3-169.2"/>
	<path class="st1" d="M60.4-171.2h0.8c0.3,0,0.4-0.1,0.6-0.2c0.1-0.1,0.2-0.3,0.2-0.5c0-0.2-0.1-0.4-0.2-0.5
		c-0.1-0.1-0.3-0.2-0.6-0.2h-0.8V-171.2z M60.4-170.2v2h-1.2v-5.3h2.1c0.6,0,1.1,0.1,1.5,0.4c0.4,0.3,0.5,0.7,0.5,1.2
		c0,0.3-0.1,0.5-0.2,0.7c-0.1,0.2-0.4,0.4-0.6,0.5c0.3,0.1,0.6,0.2,0.7,0.5c0.1,0.2,0.2,0.5,0.2,0.8v0.3c0,0.1,0,0.3,0.1,0.5
		c0,0.2,0.1,0.3,0.2,0.4v0.1h-1.3c-0.1-0.1-0.2-0.2-0.2-0.4c0-0.2,0-0.4,0-0.5v-0.3c0-0.3-0.1-0.4-0.2-0.6c-0.1-0.1-0.3-0.2-0.6-0.2
		H60.4"/>
	<path class="st1" d="M65.4-172.6v3.4H66c0.3,0,0.6-0.1,0.8-0.3c0.2-0.2,0.3-0.5,0.3-0.9v-1c0-0.4-0.1-0.7-0.3-0.9
		c-0.2-0.2-0.4-0.3-0.8-0.3H65.4z M64.1-168.2v-5.3h1.9c0.6,0,1.2,0.2,1.6,0.6c0.4,0.4,0.6,0.9,0.6,1.6v1c0,0.6-0.2,1.2-0.6,1.6
		c-0.4,0.4-0.9,0.6-1.6,0.6H64.1"/>
	<path class="st1" d="M-97.5-168.2h-1.2l-1.9-3.4l0,0v3.4h-1.2v-5.3h1.2l2,3.4l0,0v-3.4h1.2V-168.2"/>
	<path class="st1" d="M-93.4-170.5h-2.1v1.3h2.5v1h-3.7v-5.3h3.7v0.9h-2.5v1.1h2.1V-170.5"/>
	<path class="st1" d="M-88.6-172.6h-1.4v4.4h-1.2v-4.4h-1.4v-0.9h4V-172.6"/>
	<path class="st1" d="M-83.8-170L-83.8-170l0.7-3.5h1.2l-1.2,5.3h-1.2l-0.9-3.3h0l-0.9,3.3h-1.2l-1.2-5.3h1.2l0.7,3.5h0l0.9-3.5h0.9
		L-83.8-170"/>
	<path class="st1" d="M-78.3-171.3c0-0.4-0.1-0.7-0.3-0.9c-0.2-0.2-0.4-0.4-0.8-0.4c-0.3,0-0.6,0.1-0.8,0.4
		c-0.2,0.2-0.3,0.6-0.3,0.9v1c0,0.4,0.1,0.7,0.3,0.9c0.2,0.2,0.4,0.4,0.8,0.4c0.3,0,0.6-0.1,0.8-0.4c0.2-0.2,0.3-0.6,0.3-0.9V-171.3
		z M-77-170.4c0,0.7-0.2,1.2-0.6,1.6c-0.4,0.4-1,0.6-1.6,0.6c-0.7,0-1.2-0.2-1.6-0.6c-0.4-0.4-0.6-1-0.6-1.6v-1
		c0-0.7,0.2-1.2,0.6-1.6s1-0.6,1.6-0.6c0.7,0,1.2,0.2,1.6,0.6c0.4,0.4,0.6,1,0.6,1.6V-170.4"/>
	<path class="st1" d="M-75.1-171.2h0.8c0.3,0,0.4-0.1,0.6-0.2s0.2-0.3,0.2-0.5c0-0.2-0.1-0.4-0.2-0.5c-0.1-0.1-0.3-0.2-0.6-0.2h-0.8
		V-171.2z M-75.1-170.2v2h-1.2v-5.3h2.1c0.6,0,1.1,0.1,1.5,0.4c0.4,0.3,0.5,0.7,0.5,1.2c0,0.3-0.1,0.5-0.2,0.7
		c-0.1,0.2-0.4,0.4-0.6,0.5c0.3,0.1,0.6,0.2,0.7,0.5c0.1,0.2,0.2,0.5,0.2,0.8v0.3c0,0.1,0,0.3,0.1,0.5c0,0.2,0.1,0.3,0.2,0.4v0.1
		h-1.3c-0.1-0.1-0.2-0.2-0.2-0.4c0-0.2,0-0.4,0-0.5v-0.3c0-0.3-0.1-0.4-0.2-0.6c-0.1-0.1-0.3-0.2-0.6-0.2H-75.1"/>
	<path class="st1" d="M-69.5-170.3h-0.6v2.1h-1.2v-5.3h1.2v2.1h0.4l1.2-2.1h1.5l-1.7,2.4l1.8,2.9h-1.5L-69.5-170.3"/>
	<path class="st1" d="M-233-170L-233-170l0.7-3.5h1.2l-1.2,5.3h-1.2l-0.9-3.3h0l-0.9,3.3h-1.2l-1.2-5.3h1.2l0.7,3.5h0l0.9-3.5h0.9
		L-233-170"/>
	<path class="st1" d="M-229.3-168.2h-1.2v-5.3h1.2V-168.2"/>
	<path class="st1" d="M-225-170.3h-2.1v2.1h-1.2v-5.3h3.8v0.9h-2.5v1.3h2.1V-170.3"/>
	<path class="st1" d="M-222.7-168.2h-1.2v-5.3h1.2V-168.2"/>
	<path class="st1" d="M-218.7-171.2h0.8c0.3,0,0.4-0.1,0.6-0.2c0.1-0.1,0.2-0.3,0.2-0.5c0-0.2-0.1-0.4-0.2-0.5
		c-0.1-0.1-0.3-0.2-0.6-0.2h-0.8V-171.2z M-218.7-170.2v2h-1.2v-5.3h2.1c0.6,0,1.1,0.1,1.5,0.4c0.4,0.3,0.5,0.7,0.5,1.2
		c0,0.3-0.1,0.5-0.2,0.7c-0.1,0.2-0.4,0.4-0.6,0.5c0.3,0.1,0.6,0.2,0.7,0.5c0.1,0.2,0.2,0.5,0.2,0.8v0.3c0,0.1,0,0.3,0.1,0.5
		c0,0.2,0.1,0.3,0.2,0.4v0.1h-1.3c-0.1-0.1-0.2-0.2-0.2-0.4c0-0.2,0-0.4,0-0.5v-0.3c0-0.3-0.1-0.4-0.2-0.6c-0.1-0.1-0.3-0.2-0.6-0.2
		H-218.7"/>
	<path class="st1" d="M-211.8-171.3c0-0.4-0.1-0.7-0.3-0.9c-0.2-0.2-0.4-0.4-0.8-0.4c-0.3,0-0.6,0.1-0.8,0.4s-0.3,0.6-0.3,0.9v1
		c0,0.4,0.1,0.7,0.3,0.9c0.2,0.2,0.4,0.4,0.8,0.4c0.3,0,0.6-0.1,0.8-0.4c0.2-0.2,0.3-0.6,0.3-0.9V-171.3z M-210.6-170.4
		c0,0.7-0.2,1.2-0.6,1.6s-1,0.6-1.6,0.6c-0.7,0-1.2-0.2-1.6-0.6c-0.4-0.4-0.6-1-0.6-1.6v-1c0-0.7,0.2-1.2,0.6-1.6s1-0.6,1.6-0.6
		s1.2,0.2,1.6,0.6c0.4,0.4,0.6,1,0.6,1.6V-170.4"/>
	<path class="st1" d="M-205.5-173.5v3.5c0,0.6-0.2,1.1-0.6,1.4c-0.4,0.3-0.9,0.5-1.6,0.5c-0.7,0-1.2-0.2-1.6-0.5
		c-0.4-0.3-0.6-0.8-0.6-1.4v-3.5h1.2v3.5c0,0.3,0.1,0.6,0.3,0.7s0.4,0.2,0.7,0.2s0.5-0.1,0.7-0.2s0.2-0.4,0.2-0.7v-3.5H-205.5"/>
	<path class="st1" d="M-201-172.6h-1.4v4.4h-1.2v-4.4h-1.4v-0.9h4V-172.6"/>
	<path class="st1" d="M-197.1-170.5h-2.1v1.3h2.5v1h-3.7v-5.3h3.7v0.9h-2.5v1.1h2.1V-170.5"/>
	<path class="st1" d="M-194.9-171.2h0.8c0.3,0,0.4-0.1,0.6-0.2c0.1-0.1,0.2-0.3,0.2-0.5c0-0.2-0.1-0.4-0.2-0.5
		c-0.1-0.1-0.3-0.2-0.6-0.2h-0.8V-171.2z M-194.9-170.2v2h-1.2v-5.3h2.1c0.6,0,1.1,0.1,1.5,0.4s0.5,0.7,0.5,1.2
		c0,0.3-0.1,0.5-0.2,0.7c-0.1,0.2-0.4,0.4-0.6,0.5c0.3,0.1,0.6,0.2,0.7,0.5c0.1,0.2,0.2,0.5,0.2,0.8v0.3c0,0.1,0,0.3,0.1,0.5
		c0,0.2,0.1,0.3,0.2,0.4v0.1h-1.3c-0.1-0.1-0.2-0.2-0.2-0.4c0-0.2,0-0.4,0-0.5v-0.3c0-0.3-0.1-0.4-0.2-0.6c-0.1-0.1-0.3-0.2-0.6-0.2
		H-194.9"/>
	<path class="st2" d="M146.1-318.3h-500.8v-43.3h500.8V-318.3"/>
	<path class="st3" d="M445.4-306H146.3v-68h299.1V-306"/>
	<path class="st0" d="M190.9-340.5h7.8c2.4,0,4.3-0.6,5.5-1.9s1.8-2.8,1.8-4.7c0-1.9-0.6-3.5-1.8-4.7c-1.2-1.3-3.1-1.9-5.5-1.9h-7.8
		V-340.5z M190.9-338.5v12.3h-2.4v-29.6h10.2c3.1,0,5.5,0.8,7.2,2.4s2.5,3.7,2.5,6.3c0,2.6-0.8,4.7-2.5,6.3s-4.1,2.4-7.2,2.4H190.9"
		/>
	<path class="st0" d="M214.5-336.6h11.9l-5.9-16h-0.1L214.5-336.6z M227.3-334.4h-13.5l-3,8.2h-2.5l11.2-29.6h2.3l11.1,29.6h-2.5
		L227.3-334.4"/>
	<path class="st0" d="M257.5-335.4l0,0.1c-0.3,3-1.3,5.3-3.2,7c-1.9,1.7-4.3,2.5-7.5,2.5c-3.3,0-5.9-1.2-8-3.6c-2-2.4-3-5.5-3-9.2
		v-4.8c0-3.8,1-6.8,3-9.2c2-2.4,4.7-3.6,8-3.6c3.1,0,5.6,0.8,7.5,2.5c1.8,1.7,2.9,4,3.1,7l0,0.1h-2.3c-0.3-2.4-1.2-4.3-2.5-5.6
		c-1.4-1.3-3.3-1.9-5.8-1.9c-2.6,0-4.7,1-6.2,3c-1.6,2-2.3,4.6-2.3,7.7v4.8c0,3.2,0.8,5.7,2.3,7.7c1.6,2,3.6,3,6.2,3
		c2.5,0,4.4-0.6,5.8-1.9c1.4-1.3,2.2-3.2,2.5-5.7H257.5"/>
	<path class="st1" d="M2.5-332.8c0-0.9-0.3-1.7-1-2.3c-0.7-0.6-1.9-1.1-3.7-1.6c-2.5-0.7-4.4-1.5-5.8-2.6s-2-2.5-2-4.3
		c0-1.8,0.7-3.3,2.2-4.5c1.5-1.2,3.4-1.8,5.8-1.8c2.5,0,4.4,0.7,5.9,2s2.2,2.9,2.2,4.8l0,0.1H2.5c0-1.2-0.4-2.1-1.2-2.8
		c-0.8-0.7-1.9-1.1-3.3-1.1c-1.4,0-2.4,0.3-3.2,0.9c-0.7,0.6-1.1,1.4-1.1,2.3c0,0.9,0.4,1.6,1.2,2.1c0.8,0.6,2.1,1.1,4,1.6
		c2.4,0.6,4.3,1.5,5.5,2.7c1.3,1.1,1.9,2.6,1.9,4.4c0,1.9-0.8,3.4-2.2,4.5s-3.5,1.7-5.9,1.7c-2.3,0-4.4-0.6-6.2-1.9
		c-1.8-1.3-2.6-3-2.6-5.1l0-0.1H-7c0,1.4,0.5,2.4,1.4,3.1c0.9,0.7,2.2,1,3.7,1c1.4,0,2.5-0.3,3.2-0.8C2.1-331.1,2.5-331.8,2.5-332.8
		"/>
	<path class="st1" d="M23.8-337.1H14v7.1h11.4v3H10.2v-22.5h15v3H14v6.3h9.8V-337.1"/>
	<path class="st1" d="M44.9-334.4L44.9-334.4c0.1,2.4-0.7,4.2-2.2,5.6c-1.5,1.4-3.6,2.1-6.2,2.1c-2.6,0-4.8-0.9-6.4-2.6
		c-1.6-1.8-2.5-4-2.5-6.8v-4.3c0-2.7,0.8-5,2.4-6.8c1.6-1.8,3.7-2.7,6.3-2.7c2.7,0,4.7,0.7,6.3,2.1c1.5,1.4,2.3,3.3,2.2,5.6l0,0.1
		h-3.6c0-1.5-0.4-2.7-1.2-3.5s-2-1.3-3.6-1.3c-1.5,0-2.8,0.6-3.6,1.8c-0.9,1.2-1.4,2.7-1.4,4.6v4.3c0,1.8,0.5,3.4,1.4,4.6
		c0.9,1.2,2.2,1.8,3.7,1.8c1.6,0,2.7-0.4,3.5-1.2s1.2-2,1.2-3.5H44.9"/>
	<path class="st1" d="M65.7-349.5v15.1c0,2.5-0.8,4.4-2.4,5.7c-1.6,1.3-3.8,2-6.4,2c-2.6,0-4.7-0.7-6.2-2c-1.6-1.3-2.4-3.2-2.4-5.7
		v-15.1H52v15c0,1.6,0.4,2.8,1.3,3.5c0.9,0.8,2.1,1.2,3.6,1.2c1.5,0,2.8-0.4,3.7-1.2c0.9-0.8,1.4-2,1.4-3.5v-15H65.7"/>
	<path class="st1" d="M73.9-339.3h4.3c1.5,0,2.6-0.3,3.3-0.9c0.7-0.6,1-1.5,1-2.6c0-1.1-0.3-2-1-2.7c-0.7-0.6-1.7-1-3.1-1h-4.6
		V-339.3z M73.9-336.3v9.3h-3.8v-22.5h8.3c2.5,0,4.4,0.6,5.8,1.7c1.4,1.1,2.1,2.7,2.1,4.8c0,1.2-0.3,2.2-0.9,3
		c-0.6,0.8-1.5,1.5-2.6,2c1.3,0.4,2.2,1.1,2.7,2c0.6,0.9,0.8,2,0.8,3.4v1.9c0,0.7,0.1,1.3,0.2,1.9c0.2,0.6,0.4,1.1,0.8,1.4v0.4h-3.9
		c-0.4-0.3-0.7-0.9-0.8-1.6s-0.2-1.4-0.2-2.1v-1.8c0-1.1-0.3-2.1-1-2.7c-0.7-0.7-1.6-1-2.7-1H73.9"/>
	<path class="st1" d="M95-327h-3.8v-22.5H95V-327"/>
	<path class="st1" d="M115.5-346.4h-6.8v19.4h-3.8v-19.4h-6.8v-3h17.3V-346.4"/>
	<path class="st1" d="M126-338.5l5.4-10.9h4.2l-7.8,14.6v7.9h-3.7v-8.1l-7.7-14.4h4.2L126-338.5"/>
	<path class="st1" d="M140.5,258.1c-0.6,0-1.1,0.7-1.1,1.6v54.9c0,0.9,0.5,1.6,1.1,1.6h45.7v-1.3c0-0.4,0.3-0.6,0.6-0.6h2.8v-2.7
		c0-5.4,4.4-9.8,9.7-9.8c1.6,0,3.1,0.4,4.5,1.1v-43.3c0-0.9-0.5-1.6-1.2-1.6H140.5z M186.9,317.5h-46.4c-1.4,0-2.5-1.3-2.5-2.9
		v-54.9c0-1.6,1.1-2.9,2.5-2.9h62.3c1.4,0,2.5,1.3,2.5,2.9v44.4c0,0.2-0.1,0.5-0.3,0.6c-0.2,0.1-0.5,0.1-0.7,0
		c-1.4-1-3.1-1.5-4.8-1.5c-4.7,0-8.4,3.8-8.4,8.4v3.3c0,0.4-0.3,0.7-0.7,0.7h-2.8v1.3C187.6,317.2,187.3,317.5,186.9,317.5"/>
	<path class="st1" d="M139.4,272.9H204v-13.2c0-0.9-0.5-1.6-1.2-1.6h-62.3c-0.6,0-1.1,0.7-1.1,1.6V272.9z M204.7,274.2h-65.9
		c-0.4,0-0.7-0.3-0.7-0.7v-13.8c0-1.6,1.1-2.9,2.5-2.9h62.3c1.4,0,2.5,1.3,2.5,2.9v13.8C205.3,273.9,205,274.2,204.7,274.2"/>
	<path class="st1" d="M186.5,299h-29.9c-0.4,0-0.6-0.3-0.6-0.6s0.3-0.6,0.6-0.6h29.9c0.4,0,0.7,0.3,0.7,0.6S186.8,299,186.5,299"/>
	<path class="st1" d="M186.5,306.6h-29.9c-0.4,0-0.6-0.3-0.6-0.7s0.3-0.6,0.6-0.6h29.9c0.4,0,0.7,0.3,0.7,0.6
		S186.8,306.6,186.5,306.6"/>
	<path class="st1" d="M157.2,292.2h8.6v-7.1h-8.6V292.2z M166.5,293.5h-9.9c-0.4,0-0.6-0.3-0.6-0.7v-8.4c0-0.4,0.3-0.6,0.6-0.6h9.9
		c0.4,0,0.6,0.3,0.6,0.6v8.4C167.1,293.2,166.8,293.5,166.5,293.5"/>
	<path class="st1" d="M144.4,267.8h3.7v-3.1h-3.7V267.8z M148.8,269.1h-5c-0.4,0-0.7-0.3-0.7-0.6V264c0-0.4,0.3-0.7,0.7-0.7h5
		c0.4,0,0.7,0.3,0.7,0.7v4.4C149.4,268.8,149.2,269.1,148.8,269.1"/>
	<path class="st1" d="M154.5,267.8h3.7v-3.1h-3.7V267.8z M158.9,269.1h-5c-0.4,0-0.7-0.3-0.7-0.6V264c0-0.4,0.3-0.7,0.7-0.7h5
		c0.4,0,0.7,0.3,0.7,0.7v4.4C159.6,268.8,159.3,269.1,158.9,269.1"/>
	<path class="st1" d="M164.7,267.8h3.7v-3.1h-3.7V267.8z M169.1,269.1h-5c-0.4,0-0.6-0.3-0.6-0.6V264c0-0.4,0.3-0.7,0.6-0.7h5
		c0.4,0,0.7,0.3,0.7,0.7v4.4C169.7,268.8,169.4,269.1,169.1,269.1"/>
	<path class="st1" d="M187.6,315.5v15c0,2.2,1.8,4,4,4h16.1c2,0,3.7-1.7,3.7-3.7v-15.3H187.6z M207.7,335.9h-16.1
		c-2.9,0-5.3-2.4-5.3-5.3v-15.7c0-0.4,0.3-0.6,0.6-0.6h25.1c0.4,0,0.7,0.3,0.7,0.6v16C212.7,333.6,210.5,335.9,207.7,335.9"/>
	<path class="st1" d="M198.2,330h2.8l-1.1-4.1c-0.1-0.3,0.1-0.7,0.4-0.8c0.7-0.3,1.2-1,1.2-1.7c0-1-0.8-1.9-1.8-1.9
		c-1,0-1.9,0.8-1.9,1.9c0,0.8,0.5,1.4,1.2,1.7c0.3,0.1,0.5,0.5,0.4,0.8L198.2,330z M201.8,331.3h-4.5c-0.2,0-0.4-0.1-0.5-0.3
		s-0.2-0.4-0.1-0.6l1.2-4.4c-0.9-0.6-1.5-1.6-1.5-2.7c0-1.7,1.4-3.2,3.2-3.2c1.7,0,3.1,1.4,3.1,3.2c0,1.1-0.6,2.1-1.5,2.7l1.2,4.5
		c0.1,0.2,0,0.4-0.1,0.6C202.2,331.2,202,331.3,201.8,331.3"/>
	<path class="st1" d="M191,314.2h16.9v-2.7c0-4.7-3.8-8.4-8.4-8.4c-4.7,0-8.4,3.8-8.4,8.4V314.2z M208.6,315.5h-18.2
		c-0.4,0-0.6-0.3-0.6-0.7v-3.3c0-5.4,4.4-9.8,9.7-9.8c5.4,0,9.7,4.4,9.7,9.8v3.3C209.2,315.3,208.9,315.5,208.6,315.5"/>
	<path class="st1" d="M10.5,271.3c-1.9,0-3.4,1.5-3.4,3.4V318c0,1.9,1.5,3.4,3.4,3.4h69.8c1.9,0,3.4-1.5,3.4-3.4v-43.4
		c0-1.8-1.5-3.4-3.4-3.4H10.5z M80.3,322.7H10.5c-2.6,0-4.7-2.1-4.7-4.7v-43.4c0-2.6,2.1-4.7,4.7-4.7h69.8c2.6,0,4.7,2.1,4.7,4.7
		V318C84.9,320.6,82.9,322.7,80.3,322.7"/>
	<path class="st1" d="M84.3,291.1H6.5c-0.4,0-0.6-0.3-0.6-0.6c0-0.4,0.3-0.7,0.6-0.7h77.8c0.4,0,0.7,0.3,0.7,0.7
		C84.9,290.8,84.7,291.1,84.3,291.1"/>
	<path class="st1" d="M84.3,302.6H6.5c-0.4,0-0.6-0.3-0.6-0.6s0.3-0.7,0.6-0.7h77.8c0.4,0,0.7,0.3,0.7,0.7S84.7,302.6,84.3,302.6"/>
	<path class="st1" d="M22,314.5h-7.9c-0.4,0-0.7-0.3-0.7-0.6s0.3-0.6,0.7-0.6H22c0.4,0,0.7,0.3,0.7,0.6S22.4,314.5,22,314.5"/>
	<path class="st1" d="M36.5,314.5h-7.9c-0.4,0-0.6-0.3-0.6-0.6s0.3-0.6,0.6-0.6h7.9c0.4,0,0.7,0.3,0.7,0.6S36.9,314.5,36.5,314.5"/>
	<path class="st1" d="M51,314.5h-7.9c-0.4,0-0.7-0.3-0.7-0.6s0.3-0.6,0.7-0.6H51c0.4,0,0.7,0.3,0.7,0.6S51.3,314.5,51,314.5"/>
	<path class="st1" d="M63.8,310.6c-1.3,0-2.3,1-2.3,2.3s1,2.3,2.3,2.3c0.1,0,0.3,0,0.4,0c-0.5-0.6-0.8-1.4-0.8-2.2
		c0-0.8,0.3-1.6,0.8-2.2C64.1,310.6,63.9,310.6,63.8,310.6z M63.8,316.5c-2,0-3.6-1.6-3.6-3.6s1.6-3.6,3.6-3.6c0.7,0,1.4,0.2,2,0.6
		c0.2,0.1,0.3,0.3,0.3,0.5s-0.1,0.4-0.3,0.5c-0.6,0.4-1,1.1-1,1.9s0.4,1.5,1,1.9c0.2,0.1,0.3,0.3,0.3,0.5s-0.1,0.4-0.3,0.5
		C65.1,316.3,64.5,316.5,63.8,316.5"/>
	<path class="st1" d="M55.9,282.4h18v-3.8h-18V282.4z M74.5,283.7H55.3c-0.4,0-0.7-0.3-0.7-0.6V278c0-0.4,0.3-0.6,0.7-0.6h19.3
		c0.4,0,0.7,0.3,0.7,0.6v5.1C75.2,283.4,74.9,283.7,74.5,283.7"/>
	<path class="st1" d="M67,310.6c-1.3,0-2.3,1-2.3,2.3s1,2.3,2.3,2.3c1.3,0,2.3-1,2.3-2.3S68.3,310.6,67,310.6z M67,316.5
		c-2,0-3.6-1.6-3.6-3.6s1.6-3.6,3.6-3.6s3.6,1.6,3.6,3.6S69,316.5,67,316.5"/>
	<path class="st1" d="M-122.7,287.5c8.3,13.1,21.8,20.9,36.2,20.9c4.1,0,8.1-0.6,12-1.8v-2.7c0-0.4,0.3-0.7,0.6-0.7h3.2v-3.1
		c0-6,4.9-10.8,10.8-10.8c2.4,0,4.7,0.8,6.6,2.3c1.1-1.3,2-2.7,2.9-4.1c-8.3-13.1-21.8-20.9-36.2-20.9
		C-101,266.6-114.5,274.4-122.7,287.5z M-86.5,309.7c-15,0-29-8.2-37.5-21.9c-0.1-0.2-0.1-0.5,0-0.7c8.5-13.7,22.5-21.9,37.5-21.9
		c15,0,29.1,8.2,37.5,21.9c0.1,0.2,0.1,0.5,0,0.7c-1,1.7-2.2,3.4-3.6,5.1c-0.1,0.1-0.3,0.2-0.4,0.2c-0.2,0-0.4,0-0.5-0.2
		c-1.7-1.5-4-2.4-6.3-2.4c-5.3,0-9.5,4.3-9.5,9.5v3.8c0,0.4-0.3,0.6-0.6,0.6h-3.2v2.5c0,0.3-0.2,0.5-0.4,0.6
		C-77.9,309-82.2,309.7-86.5,309.7"/>
	<path class="st1" d="M-86.5,272.8c-8.1,0-14.7,6.6-14.7,14.7s6.6,14.7,14.7,14.7c8.1,0,14.7-6.6,14.7-14.7S-78.4,272.8-86.5,272.8z
		 M-86.5,303.5c-8.8,0-16-7.2-16-16c0-8.8,7.2-16,16-16c8.8,0,16,7.2,16,16C-70.5,296.3-77.7,303.5-86.5,303.5"/>
	<path class="st1" d="M-92.4,283.8c-0.7,1.1-1.1,2.4-1.1,3.7c0,3.8,3.1,7,6.9,7c3.8,0,7-3.1,7-7s-3.1-7-7-7c-0.1,0-0.1,0-0.2,0
		c0,0.1,0,0.2,0,0.3c0,2-1.6,3.6-3.6,3.6C-91.1,284.4-91.8,284.2-92.4,283.8z M-86.5,295.8c-4.5,0-8.2-3.7-8.2-8.3
		c0-1.9,0.6-3.7,1.8-5.1c0.1-0.2,0.3-0.2,0.5-0.2c0.2,0,0.4,0.1,0.5,0.2c0.4,0.5,1.1,0.8,1.7,0.8c1.2,0,2.3-1,2.3-2.3
		c0-0.3,0-0.5-0.1-0.7c-0.1-0.2,0-0.4,0.1-0.6c0.1-0.2,0.3-0.3,0.5-0.3c0.3,0,0.7-0.1,1-0.1c4.6,0,8.3,3.7,8.3,8.3
		C-78.3,292-82,295.8-86.5,295.8"/>
	<path class="st1" d="M-90.3,278.6c-1.3,0-2.3,1-2.3,2.3c0,1.3,1,2.3,2.3,2.3c1.2,0,2.3-1,2.3-2.3C-88,279.6-89,278.6-90.3,278.6z
		 M-90.3,284.4c-2,0-3.6-1.6-3.6-3.6c0-2,1.6-3.6,3.6-3.6c2,0,3.6,1.6,3.6,3.6C-86.7,282.8-88.3,284.4-90.3,284.4"/>
	<path class="st1" d="M-73.2,304.6v16.9c0,2.5,2.1,4.6,4.6,4.6h18.1c2.3,0,4.2-1.9,4.2-4.2v-17.3H-73.2z M-50.6,327.4h-18.1
		c-3.2,0-5.9-2.6-5.9-5.9v-17.6c0-0.4,0.3-0.7,0.6-0.7h28.2c0.4,0,0.7,0.3,0.7,0.7v17.9C-45.1,324.9-47.5,327.4-50.6,327.4"/>
	<path class="st1" d="M-61.4,320.9h3.4l-1.3-4.7c-0.1-0.3,0.1-0.7,0.4-0.8c0.8-0.3,1.4-1.1,1.4-2c0-1.2-1-2.2-2.2-2.2
		s-2.2,1-2.2,2.2c0,0.9,0.5,1.7,1.4,2c0.3,0.1,0.5,0.5,0.4,0.8L-61.4,320.9z M-57.2,322.2h-5c-0.2,0-0.4-0.1-0.5-0.3
		c-0.1-0.2-0.2-0.4-0.1-0.6l1.3-5.1c-1-0.6-1.6-1.7-1.6-2.9c0-1.9,1.6-3.5,3.5-3.5s3.5,1.6,3.5,3.5c0,1.2-0.6,2.3-1.7,2.9l1.3,5
		c0.1,0.2,0,0.4-0.1,0.6C-56.8,322.1-57,322.2-57.2,322.2"/>
	<path class="st1" d="M-69.3,303.3h19.1v-3.1c0-5.3-4.3-9.5-9.5-9.5c-5.3,0-9.5,4.3-9.5,9.5V303.3z M-49.6,304.6H-70
		c-0.4,0-0.7-0.3-0.7-0.6v-3.8c0-6,4.9-10.8,10.8-10.8c6,0,10.8,4.9,10.8,10.8v3.8C-48.9,304.3-49.2,304.6-49.6,304.6"/>
	<path class="st1" d="M-248.7,314h68.1v-41c0-1.5-1.2-2.7-2.7-2.7H-246c-1.5,0-2.7,1.2-2.7,2.7V314z M-179.9,315.3h-69.4
		c-0.4,0-0.7-0.3-0.7-0.6v-41.7c0-2.2,1.8-4,4-4h62.8c2.2,0,4,1.8,4,4v41.7C-179.2,315-179.5,315.3-179.9,315.3"/>
	<path class="st1" d="M-242.8,308.7h56.3v-33.2h-56.3V308.7z M-185.8,310h-57.6c-0.4,0-0.6-0.3-0.6-0.6v-34.5c0-0.4,0.3-0.7,0.6-0.7
		h57.6c0.4,0,0.7,0.3,0.7,0.7v34.5C-185.1,309.8-185.4,310-185.8,310"/>
	<path class="st1" d="M-252.9,315.3v3.5c0,2,1.6,3.5,3.5,3.5h69.4c1.9,0,3.5-1.6,3.5-3.5v-3.5H-252.9z M-179.9,323.7h-69.4
		c-2.7,0-4.8-2.2-4.8-4.8v-4.2c0-0.4,0.3-0.6,0.6-0.6h77.8c0.4,0,0.6,0.3,0.6,0.6v4.2C-175.1,321.5-177.2,323.7-179.9,323.7"/>
	<path class="st1" d="M-214.6,317.7c-0.6,0-1.1,0.5-1.1,1.1c0,0.6,0.5,1.1,1.1,1.1c0.6,0,1.1-0.5,1.1-1.1S-214,317.7-214.6,317.7z
		 M-214.6,321.2c-1.3,0-2.4-1.1-2.4-2.4s1.1-2.4,2.4-2.4c1.3,0,2.4,1.1,2.4,2.4S-213.3,321.2-214.6,321.2"/>
	<path class="st1" d="M-233,300.7h36.8v-4.7H-233V300.7z M-195.6,302h-38.1c-0.4,0-0.7-0.3-0.7-0.6v-6c0-0.4,0.3-0.7,0.7-0.7h38.1
		c0.4,0,0.7,0.3,0.7,0.7v6C-194.9,301.8-195.2,302-195.6,302"/>
	<path class="st1" d="M-224.6,302c-0.4,0-0.6-0.3-0.6-0.6v-6c0-0.4,0.3-0.7,0.6-0.7s0.7,0.3,0.7,0.7v6
		C-224,301.8-224.3,302-224.6,302"/>
	<path class="st1" d="M-233,288.2h36.8v-4.7H-233V288.2z M-195.6,289.5h-38.1c-0.4,0-0.7-0.3-0.7-0.6v-6c0-0.4,0.3-0.7,0.7-0.7h38.1
		c0.4,0,0.7,0.3,0.7,0.7v6C-194.9,289.2-195.2,289.5-195.6,289.5"/>
	<path class="st1" d="M-224.6,289.5c-0.4,0-0.6-0.3-0.6-0.6v-6c0-0.4,0.3-0.7,0.6-0.7s0.7,0.3,0.7,0.7v6
		C-224,289.2-224.3,289.5-224.6,289.5"/>
	<path class="st1" d="M188.1,183.9h16.1c5.2,0,9.4-4.2,9.4-9.4c0-4.1-2.6-7.6-6.5-8.9c-0.3-0.1-0.4-0.3-0.4-0.6l0-0.5
		c0-7.9-6.4-14.4-14.4-14.4c-0.2,0-0.4,0-0.6,0c-0.3,0-0.6-0.1-0.7-0.4c-3.3-8.1-11.1-13.3-19.8-13.3c-11.5,0-20.9,9-21.4,20.5
		c0,0.3-0.2,0.6-0.5,0.6c-4.2,0.8-7.4,4.4-7.8,8.7c0,0.2-0.1,0.4-0.3,0.5c-2.6,1.8-4.2,4.7-4.2,7.8c0,5.2,4.2,9.4,9.4,9.4h16.1v-6.7
		c0-0.4,0.3-0.7,0.7-0.7h2.7V174c0-5.2,4.2-9.4,9.4-9.4c5.2,0,9.4,4.2,9.4,9.4v2.6h2.7c0.4,0,0.7,0.3,0.7,0.7V183.9z M204.3,185.2
		h-16.8c-0.4,0-0.6-0.3-0.6-0.7v-6.7h-2.7c-0.4,0-0.7-0.3-0.7-0.6V174c0-4.5-3.6-8.1-8.1-8.1s-8.1,3.6-8.1,8.1v3.2
		c0,0.4-0.3,0.6-0.6,0.6h-2.7v6.7c0,0.4-0.3,0.7-0.6,0.7h-16.8c-5.9,0-10.7-4.8-10.7-10.7c0-3.4,1.7-6.7,4.5-8.7
		c0.5-4.6,3.9-8.3,8.3-9.4c0.8-12,10.6-21.2,22.7-21.2c9.1,0,17.2,5.3,20.8,13.7c0.1,0,0.2,0,0.2,0c8.6,0,15.7,7,15.7,15.7v0
		c4.2,1.6,6.9,5.5,6.9,10C214.9,180.4,210.2,185.2,204.3,185.2"/>
	<path class="st1" d="M163.9,177.8v14.4c0,2.1,1.7,3.8,3.8,3.8h15.5c1.9,0,3.5-1.6,3.5-3.5v-14.8H163.9z M183.3,197.4h-15.5
		c-2.8,0-5.1-2.3-5.1-5.1v-15.1c0-0.4,0.3-0.7,0.7-0.7h24.2c0.4,0,0.7,0.3,0.7,0.7v15.4C188.1,195.3,186,197.4,183.3,197.4"/>
	<path class="st1" d="M174.2,191.7h2.6l-1.1-4c-0.1-0.3,0.1-0.7,0.4-0.8c0.7-0.3,1.1-0.9,1.1-1.6c0-1-0.8-1.8-1.8-1.8
		c-1,0-1.8,0.8-1.8,1.8c0,0.7,0.4,1.4,1.1,1.6c0.3,0.1,0.5,0.5,0.4,0.8L174.2,191.7z M177.7,193h-4.3c-0.2,0-0.4-0.1-0.5-0.3
		c-0.1-0.2-0.2-0.4-0.1-0.6l1.1-4.3c-0.9-0.6-1.4-1.5-1.4-2.6c0-1.7,1.4-3.1,3.1-3.1c1.7,0,3.1,1.4,3.1,3.1c0,1.1-0.5,2-1.4,2.6
		l1.1,4.3c0.1,0.2,0,0.4-0.1,0.6C178,192.9,177.9,193,177.7,193"/>
	<path class="st1" d="M167.3,176.5h16.2V174c0-4.5-3.6-8.1-8.1-8.1s-8.1,3.6-8.1,8.1V176.5z M184.1,177.8h-17.5
		c-0.4,0-0.7-0.3-0.7-0.6V174c0-5.2,4.2-9.4,9.4-9.4c5.2,0,9.4,4.2,9.4,9.4v3.2C184.8,177.6,184.5,177.8,184.1,177.8"/>
	<path class="st1" d="M201.4,163.6c-0.4,0-0.7-0.3-0.7-0.7v-0.2c0-3.8-3.1-6.9-6.9-6.9c-0.1,0-0.2,0-0.3,0c-0.4,0-0.7-0.2-0.7-0.6
		c0-0.4,0.2-0.7,0.6-0.7c0.1,0,0.3,0,0.4,0c4.5,0,8.2,3.7,8.2,8.2v0.2C202.1,163.3,201.8,163.6,201.4,163.6"/>
	<path class="st1" d="M158.1,148.2c-0.1,0-0.3,0-0.4-0.1c-0.3-0.2-0.3-0.6-0.1-0.9c3.5-4.5,8.8-7.1,14.5-7.1c0.4,0,0.7,0.3,0.7,0.6
		s-0.3,0.7-0.7,0.7c-5.3,0-10.2,2.4-13.5,6.6C158.5,148.1,158.3,148.2,158.1,148.2"/>
	<path class="st1" d="M147.6,180.4c-3.1,0-5.6-2.5-5.6-5.6c0-1.9,0.9-3.6,2.5-4.7c0.3-0.2,0.7-0.1,0.9,0.2s0.1,0.7-0.2,0.9
		c-1.2,0.8-1.9,2.2-1.9,3.6c0,2.4,1.9,4.3,4.3,4.3c0.4,0,0.6,0.3,0.6,0.6S147.9,180.4,147.6,180.4"/>
	<path class="st1" d="M53.8,151.7h25.7v-17H53.8V151.7z M80.1,153h-27c-0.4,0-0.6-0.3-0.6-0.7v-18.3c0-0.4,0.3-0.6,0.6-0.6h27
		c0.4,0,0.6,0.3,0.6,0.6v18.3C80.8,152.7,80.5,153,80.1,153"/>
	<path class="st1" d="M26.8,151.7h25.7v-17H26.8V151.7z M53.1,153h-27c-0.4,0-0.7-0.3-0.7-0.7v-18.3c0-0.4,0.3-0.6,0.7-0.6h27
		c0.4,0,0.7,0.3,0.7,0.6v18.3C53.8,152.7,53.5,153,53.1,153"/>
	<path class="st1" d="M7.1,151.7h18.4v-17H7.1V151.7z M26.2,153H6.5c-0.4,0-0.6-0.3-0.6-0.7v-18.3c0-0.4,0.3-0.6,0.6-0.6h19.7
		c0.4,0,0.6,0.3,0.6,0.6v18.3C26.8,152.7,26.5,153,26.2,153"/>
	<path class="st1" d="M7.1,170h25.7v-17H7.1V170z M33.5,171.3h-27c-0.4,0-0.6-0.3-0.6-0.6v-18.3c0-0.4,0.3-0.6,0.6-0.6h27
		c0.4,0,0.6,0.3,0.6,0.6v18.3C34.1,171,33.8,171.3,33.5,171.3"/>
	<path class="st1" d="M34.1,170h25.7v-17H34.1V170z M60.4,171.3h-27c-0.4,0-0.7-0.3-0.7-0.6v-18.3c0-0.4,0.3-0.6,0.7-0.6h27
		c0.4,0,0.7,0.3,0.7,0.6v18.3C61.1,171,60.8,171.3,60.4,171.3"/>
	<path class="st1" d="M61.1,170h3.5c1.8-2.4,4.6-3.8,7.6-3.8c2.9,0,5.6,1.3,7.3,3.5V153H61.1V170z M80.1,171.3h-0.7
		c-0.2,0-0.4-0.1-0.5-0.3c-1.5-2.2-4-3.6-6.7-3.6c-2.7,0-5.2,1.3-6.7,3.6c-0.1,0.2-0.3,0.3-0.5,0.3h-4.4c-0.4,0-0.6-0.3-0.6-0.6
		v-18.3c0-0.4,0.3-0.6,0.6-0.6h19.7c0.4,0,0.6,0.3,0.6,0.6v18.3C80.8,171,80.5,171.3,80.1,171.3"/>
	<path class="st1" d="M80.1,172.6c-0.3,0-0.5-0.1-0.6-0.4c-0.2-0.4-0.4-0.8-0.7-1.2c-0.1-0.2-0.2-0.5,0-0.7c0.1-0.2,0.3-0.3,0.6-0.3
		h0.7c0.4,0,0.6,0.3,0.6,0.6v1.3c0,0.3-0.2,0.6-0.5,0.6C80.2,172.6,80.2,172.6,80.1,172.6z M53.8,188.3h5.5v-9.4
		c0-0.4,0.3-0.7,0.7-0.7h2.7v-2.6c0-1.5,0.4-3,1-4.3h-9.9V188.3z M60,189.6h-6.8c-0.4,0-0.6-0.3-0.6-0.7v-18.3
		c0-0.4,0.3-0.6,0.6-0.6h11.7c0.2,0,0.5,0.1,0.6,0.3c0.1,0.2,0.1,0.5,0,0.7c-0.9,1.4-1.4,2.9-1.4,4.6v3.2c0,0.4-0.3,0.6-0.7,0.6
		h-2.7v9.4C60.6,189.3,60.3,189.6,60,189.6"/>
	<path class="st1" d="M26.8,188.3h25.7v-17H26.8V188.3z M53.1,189.6h-27c-0.4,0-0.7-0.3-0.7-0.7v-18.3c0-0.4,0.3-0.6,0.7-0.6h27
		c0.4,0,0.7,0.3,0.7,0.6V189C53.8,189.3,53.5,189.6,53.1,189.6"/>
	<path class="st1" d="M7.1,188.3h18.4v-17H7.1V188.3z M26.2,189.6H6.5c-0.4,0-0.6-0.3-0.6-0.7v-18.3c0-0.4,0.3-0.6,0.6-0.6h19.7
		c0.4,0,0.6,0.3,0.6,0.6V189C26.8,189.3,26.5,189.6,26.2,189.6"/>
	<path class="st1" d="M60.6,179.5V194c0,2.1,1.7,3.9,3.9,3.9h15.6c2,0,3.6-1.6,3.6-3.5v-14.8H60.6z M80.1,199.2H64.5
		c-2.8,0-5.2-2.3-5.2-5.2v-15.2c0-0.4,0.3-0.7,0.7-0.7h24.3c0.4,0,0.7,0.3,0.7,0.7v15.5C84.9,197,82.8,199.2,80.1,199.2"/>
	<path class="st1" d="M70.9,193.4h2.7l-1.1-4c-0.1-0.3,0.1-0.6,0.4-0.8c0.7-0.3,1.1-0.9,1.1-1.6c0-1-0.8-1.8-1.8-1.8
		s-1.8,0.8-1.8,1.8c0,0.7,0.4,1.4,1.1,1.6c0.3,0.1,0.5,0.5,0.4,0.8L70.9,193.4z M74.4,194.7H70c-0.2,0-0.4-0.1-0.5-0.3
		c-0.1-0.2-0.2-0.4-0.1-0.6l1.1-4.3c-0.9-0.6-1.4-1.5-1.4-2.6c0-1.7,1.4-3.1,3.1-3.1c1.7,0,3.1,1.4,3.1,3.1c0,1.1-0.5,2-1.4,2.6
		l1.1,4.3c0.1,0.2,0,0.4-0.1,0.6C74.8,194.7,74.6,194.7,74.4,194.7"/>
	<path class="st1" d="M64,178.2h16.3v-2.6c0-4.5-3.7-8.1-8.1-8.1c-4.5,0-8.1,3.7-8.1,8.1V178.2z M80.9,179.5H63.3
		c-0.4,0-0.6-0.3-0.6-0.6v-3.2c0-5.2,4.2-9.4,9.4-9.4s9.4,4.2,9.4,9.4v3.2C81.6,179.2,81.3,179.5,80.9,179.5"/>
	<path class="st1" d="M-105.5,188h4.1v-4.2c0-0.3,0.2-0.6,0.5-0.6c2.1-0.4,4.1-1.2,5.9-2.4c0.3-0.2,0.6-0.2,0.8,0.1l3,3l2.9-2.9
		l-3-3c-0.2-0.2-0.3-0.6-0.1-0.8c1.2-1.7,2.1-3.8,2.4-5.9c0.1-0.3,0.3-0.5,0.6-0.5h4.2v-4.1h-4.2c-0.3,0-0.6-0.2-0.6-0.5
		c-0.4-2.1-1.2-4.1-2.4-5.9c-0.2-0.3-0.1-0.6,0.1-0.8l3-3l-2.9-2.9l-3,3c-0.2,0.2-0.6,0.3-0.8,0.1c-1.7-1.2-3.8-2.1-5.9-2.4
		c-0.3-0.1-0.5-0.3-0.5-0.6v-4.2h-4.1v4.2c0,0.3-0.2,0.6-0.5,0.6c-2.1,0.4-4.1,1.2-5.9,2.4c-0.3,0.2-0.6,0.2-0.8-0.1l-3-3l-2.9,2.9
		l3,3c0.2,0.2,0.3,0.6,0.1,0.8c-1.2,1.8-2.1,3.7-2.4,5.9c-0.1,0.3-0.3,0.5-0.6,0.5h-4.2v4.1h4.2c0.3,0,0.6,0.2,0.6,0.5
		c0.4,2.1,1.2,4.1,2.4,5.9c0.2,0.3,0.1,0.6-0.1,0.8l-3,3l2.9,2.9l3-3c0.2-0.2,0.6-0.3,0.8-0.1c1.8,1.2,3.7,2.1,5.9,2.4
		c0.3,0.1,0.5,0.3,0.5,0.6V188z M-100.8,189.3h-5.4c-0.4,0-0.6-0.3-0.6-0.6v-4.4c-1.9-0.4-3.7-1.2-5.4-2.2l-3.1,3.1
		c-0.3,0.3-0.7,0.3-0.9,0l-3.8-3.8c-0.1-0.1-0.2-0.3-0.2-0.5s0.1-0.3,0.2-0.5l3.1-3.1c-1.1-1.6-1.8-3.5-2.2-5.4h-4.4
		c-0.4,0-0.6-0.3-0.6-0.7v-5.4c0-0.4,0.3-0.6,0.6-0.6h4.4c0.4-1.9,1.2-3.7,2.2-5.4l-3.1-3.1c-0.1-0.1-0.2-0.3-0.2-0.5
		s0.1-0.3,0.2-0.5l3.8-3.8c0.1-0.1,0.3-0.2,0.5-0.2c0.2,0,0.3,0.1,0.5,0.2l3.1,3.1c1.7-1.1,3.5-1.8,5.4-2.2v-4.3
		c0-0.4,0.3-0.6,0.6-0.6h5.4c0.4,0,0.6,0.3,0.6,0.6v4.3c1.9,0.4,3.8,1.2,5.4,2.2l3.1-3.1c0.1-0.1,0.3-0.2,0.5-0.2s0.3,0.1,0.5,0.2
		l3.8,3.8c0.1,0.1,0.2,0.3,0.2,0.5c0,0.2-0.1,0.3-0.2,0.5l-3.1,3.1c1.1,1.7,1.8,3.5,2.2,5.4h4.3c0.4,0,0.7,0.3,0.7,0.6v5.4
		c0,0.4-0.3,0.7-0.7,0.7h-4.3c-0.4,1.9-1.2,3.8-2.2,5.4l3.1,3.1c0.1,0.1,0.2,0.3,0.2,0.5s-0.1,0.3-0.2,0.5l-3.8,3.8
		c-0.3,0.3-0.7,0.3-0.9,0l-3.1-3.1c-1.6,1.1-3.5,1.8-5.4,2.2v4.4C-100.2,189-100.4,189.3-100.8,189.3"/>
	<path class="st1" d="M-103.5,158.1c-5.8,0-10.5,4.7-10.5,10.5c0,5.8,4.7,10.5,10.5,10.5c5.8,0,10.5-4.7,10.5-10.5
		C-93,162.8-97.7,158.1-103.5,158.1z M-103.5,180.4c-6.5,0-11.8-5.3-11.8-11.8c0-6.5,5.3-11.8,11.8-11.8c6.5,0,11.8,5.3,11.8,11.8
		C-91.7,175.1-97,180.4-103.5,180.4"/>
	<path class="st1" d="M-63,175.1h2.9v-3.2c0-0.3,0.2-0.6,0.5-0.6c1.7-0.3,3.2-0.9,4.6-1.9c0.3-0.2,0.6-0.1,0.8,0.1l2.3,2.3l2.1-2.1
		l-2.3-2.3c-0.2-0.2-0.3-0.6-0.1-0.8c1-1.4,1.6-3,1.9-4.6c0.1-0.3,0.3-0.5,0.6-0.5h3.2v-2.9h-3.2c-0.3,0-0.6-0.2-0.6-0.5
		c-0.3-1.6-0.9-3.2-1.9-4.6c-0.2-0.3-0.1-0.6,0.1-0.8l2.3-2.3l-2.1-2.1l-2.3,2.3c-0.2,0.2-0.6,0.3-0.8,0.1c-1.4-1-2.9-1.6-4.6-1.9
		c-0.3-0.1-0.5-0.3-0.5-0.6v-3.2H-63v3.2c0,0.3-0.2,0.6-0.5,0.6c-1.7,0.3-3.2,0.9-4.6,1.9c-0.3,0.2-0.6,0.2-0.8-0.1l-2.3-2.3
		l-2.1,2.1l2.3,2.3c0.2,0.2,0.3,0.6,0.1,0.8c-1,1.4-1.6,2.9-1.9,4.6c-0.1,0.3-0.3,0.5-0.6,0.5h-3.2v2.9h3.2c0.3,0,0.6,0.2,0.6,0.5
		c0.3,1.7,0.9,3.2,1.9,4.6c0.2,0.3,0.1,0.6-0.1,0.8l-2.3,2.3l2.1,2.1l2.3-2.3c0.2-0.2,0.6-0.3,0.8-0.1c1.4,1,2.9,1.6,4.6,1.9
		c0.3,0.1,0.5,0.3,0.5,0.6V175.1z M-59.4,176.4h-4.2c-0.4,0-0.7-0.3-0.7-0.7v-3.3c-1.5-0.3-2.9-0.9-4.1-1.7l-2.4,2.4
		c-0.3,0.3-0.7,0.3-0.9,0l-3-3c-0.1-0.1-0.2-0.3-0.2-0.5s0.1-0.3,0.2-0.5l2.4-2.4c-0.8-1.3-1.4-2.7-1.7-4.1h-3.3
		c-0.4,0-0.7-0.3-0.7-0.6v-4.2c0-0.4,0.3-0.6,0.7-0.6h3.3c0.3-1.5,0.9-2.9,1.7-4.1l-2.4-2.4c-0.1-0.1-0.2-0.3-0.2-0.5
		c0-0.2,0.1-0.3,0.2-0.5l3-3c0.3-0.3,0.7-0.3,0.9,0l2.4,2.4c1.3-0.8,2.6-1.4,4.1-1.7V144c0-0.4,0.3-0.6,0.7-0.6h4.2
		c0.4,0,0.6,0.3,0.6,0.6v3.3c1.5,0.3,2.9,0.9,4.1,1.7l2.4-2.4c0.3-0.3,0.7-0.3,0.9,0l3,3c0.1,0.1,0.2,0.3,0.2,0.5
		c0,0.2-0.1,0.3-0.2,0.5l-2.4,2.4c0.8,1.3,1.4,2.7,1.7,4.1h3.3c0.4,0,0.7,0.3,0.7,0.6v4.2c0,0.4-0.3,0.6-0.7,0.6H-49
		c-0.3,1.5-0.9,2.8-1.7,4.1l2.4,2.4c0.1,0.1,0.2,0.3,0.2,0.5s-0.1,0.3-0.2,0.5l-3,3c-0.3,0.3-0.7,0.3-0.9,0l-2.4-2.4
		c-1.3,0.8-2.6,1.4-4.1,1.7v3.3C-58.8,176.1-59.1,176.4-59.4,176.4"/>
	<path class="st1" d="M-61.6,151.7c-4.5,0-8.2,3.7-8.2,8.2c0,4.5,3.7,8.2,8.2,8.2s8.2-3.7,8.2-8.2C-53.4,155.3-57,151.7-61.6,151.7z
		 M-61.6,169.4c-5.2,0-9.5-4.3-9.5-9.5c0-5.2,4.3-9.5,9.5-9.5s9.5,4.3,9.5,9.5C-52.1,165.1-56.3,169.4-61.6,169.4"/>
	<path class="st1" d="M-108.1,167.6v5.9c0,0.7,0.6,1.3,1.3,1.3h6.7c0.6,0,1.1-0.5,1.1-1.2v-6H-108.1z M-100.1,176.1h-6.7
		c-1.4,0-2.6-1.2-2.6-2.6V167c0-0.4,0.3-0.7,0.6-0.7h10.5c0.4,0,0.7,0.3,0.7,0.7v6.7C-97.6,175-98.7,176.1-100.1,176.1"/>
	<path class="st1" d="M-106.6,166.3h6.3v-0.7c0-1.7-1.4-3.1-3.1-3.1c-1.7,0-3.1,1.4-3.1,3.1V166.3z M-99.7,167.6h-7.6
		c-0.4,0-0.7-0.3-0.7-0.6v-1.4c0-2.4,2-4.4,4.4-4.4c2.4,0,4.4,2,4.4,4.4v1.4C-99.1,167.3-99.4,167.6-99.7,167.6"/>
	<path class="st1" d="M-103.5,170.7c-0.3,0-0.5,0.2-0.5,0.5c0,0.3,0.2,0.5,0.5,0.5c0.3,0,0.5-0.2,0.5-0.5
		C-103,170.9-103.2,170.7-103.5,170.7z M-103.5,173c-1,0-1.8-0.8-1.8-1.8s0.8-1.8,1.8-1.8c1,0,1.8,0.8,1.8,1.8S-102.5,173-103.5,173
		"/>
	<path class="st1" d="M-64.6,159.4v3.9c0,0.4,0.3,0.7,0.7,0.7h4.7c0.3,0,0.6-0.3,0.6-0.6v-4H-64.6z M-59.2,165.3h-4.7
		c-1.1,0-2-0.9-2-2v-4.5c0-0.4,0.3-0.6,0.7-0.6h7.3c0.4,0,0.6,0.3,0.6,0.6v4.6C-57.3,164.4-58.1,165.3-59.2,165.3"/>
	<path class="st1" d="M-63.5,158.1h4v-0.3c0-1.1-0.9-2-2-2c-1.1,0-2,0.9-2,2V158.1z M-58.9,159.4h-5.3c-0.4,0-0.7-0.3-0.7-0.7v-1
		c0-1.8,1.5-3.3,3.3-3.3s3.3,1.5,3.3,3.3v1C-58.3,159.1-58.6,159.4-58.9,159.4"/>
	<path class="st1" d="M-214.6,128.1c-19.9,0-36.1,16.2-36.1,36.1c0,19.9,16.2,36.1,36.1,36.1c2.9,0,5.8-0.3,8.6-1v-16.2
		c0-0.4,0.3-0.6,0.6-0.6h3.1v-3c0-5.8,4.7-10.5,10.5-10.5c5.4,0,9.8,4,10.4,9.2c1.8-4.4,2.8-9.2,2.8-14
		C-178.5,144.3-194.7,128.1-214.6,128.1z M-214.6,201.6c-20.6,0-37.4-16.8-37.4-37.4s16.8-37.4,37.4-37.4
		c20.6,0,37.4,16.8,37.4,37.4c0,5.9-1.4,11.8-4.1,17c-0.1,0.3-0.4,0.4-0.7,0.3c-0.3-0.1-0.5-0.3-0.5-0.6v-1.4c0-5.1-4.1-9.2-9.2-9.2
		c-5.1,0-9.2,4.1-9.2,9.2v3.6c0,0.4-0.3,0.6-0.7,0.6h-3.1v16c0,0.3-0.2,0.6-0.5,0.6C-208.3,201.2-211.4,201.6-214.6,201.6"/>
	<path class="st1" d="M-214.6,128.1c-8.8,0-16,16.2-16,36.1c0,19.9,7.2,36.1,16,36.1c3,0,6-2,8.6-5.7v-11.5c0-0.4,0.3-0.6,0.6-0.6
		h3.1v-3c0-2.9,1.2-5.6,3.3-7.6c0.2-2.5,0.4-5.1,0.4-7.7C-198.6,144.3-205.8,128.1-214.6,128.1z M-214.6,201.6
		c-9.5,0-17.3-16.8-17.3-37.4s7.8-37.4,17.3-37.4c9.7,0,17.3,16.4,17.3,37.4c0,2.8-0.1,5.5-0.4,8.1c0,0.2-0.1,0.3-0.2,0.4
		c-1.9,1.8-3,4.2-3,6.8v3.6c0,0.4-0.3,0.6-0.7,0.6h-3.1v11c0,0.1,0,0.3-0.1,0.4C-207.7,199.4-211.1,201.6-214.6,201.6"/>
	<path class="st1" d="M-189.3,138.1h-50.6c-0.4,0-0.6-0.3-0.6-0.6s0.3-0.7,0.6-0.7h50.6c0.4,0,0.6,0.3,0.6,0.7
		S-189,138.1-189.3,138.1"/>
	<path class="st1" d="M-177.8,164.9h-73.6c-0.4,0-0.7-0.3-0.7-0.6s0.3-0.7,0.7-0.7h73.6c0.4,0,0.7,0.3,0.7,0.7
		S-177.5,164.9-177.8,164.9"/>
	<path class="st1" d="M-205.4,191.6h-34.5c-0.4,0-0.6-0.3-0.6-0.6c0-0.4,0.3-0.7,0.6-0.7h34.5c0.4,0,0.6,0.3,0.6,0.7
		C-204.7,191.3-205,191.6-205.4,191.6"/>
	<path class="st1" d="M-204.7,183.8v16.4c0,2.4,2,4.4,4.4,4.4h17.5c2.2,0,4.1-1.8,4.1-4.1v-16.7H-204.7z M-182.8,205.9h-17.5
		c-3.1,0-5.7-2.6-5.7-5.7v-17c0-0.4,0.3-0.6,0.6-0.6h27.3c0.4,0,0.7,0.3,0.7,0.6v17.4C-177.4,203.5-179.8,205.9-182.8,205.9"/>
	<path class="st1" d="M-193.2,199.6h3.2l-1.2-4.6c-0.1-0.3,0.1-0.6,0.4-0.8c0.8-0.3,1.3-1.1,1.3-1.9c0-1.1-0.9-2.1-2.1-2.1
		c-1.1,0-2.1,0.9-2.1,2.1c0,0.8,0.5,1.6,1.3,1.9c0.3,0.1,0.5,0.5,0.4,0.8L-193.2,199.6z M-189.2,200.9h-4.9c-0.2,0-0.4-0.1-0.5-0.3
		c-0.1-0.2-0.2-0.4-0.1-0.6l1.3-4.9c-1-0.6-1.6-1.7-1.6-2.9c0-1.9,1.5-3.4,3.4-3.4c1.9,0,3.4,1.5,3.4,3.4c0,1.2-0.6,2.3-1.6,2.9
		l1.3,4.9c0.1,0.2,0,0.4-0.1,0.6C-188.8,200.8-189,200.9-189.2,200.9"/>
	<path class="st1" d="M-200.9,182.5h18.5v-3c0-5.1-4.1-9.2-9.2-9.2c-5.1,0-9.2,4.1-9.2,9.2V182.5z M-181.8,183.8h-19.8
		c-0.4,0-0.6-0.3-0.6-0.6v-3.6c0-5.8,4.7-10.5,10.5-10.5s10.5,4.7,10.5,10.5v3.6C-181.2,183.5-181.5,183.8-181.8,183.8"/>
	<path class="st1" d="M149.9,74.6h51.1V39c0-0.4,0.3-0.7,0.6-0.7h10L175.4-1.6l-36.2,39.9h10c0.4,0,0.7,0.3,0.7,0.7V74.6z
		 M201.6,75.9h-52.4c-0.4,0-0.6-0.3-0.6-0.7V39.6h-10.8c-0.3,0-0.5-0.2-0.6-0.4s-0.1-0.5,0.1-0.7L174.9-3c0.2-0.3,0.7-0.3,1,0
		l37.6,41.4c0.2,0.1,0.3,0.3,0.3,0.5c0,0.4-0.3,0.7-0.6,0.7c0,0,0,0,0,0h-10.8v35.6C202.2,75.6,201.9,75.9,201.6,75.9"/>
	<path class="st1" d="M175.4,17.6c-4.4,0-8,3.6-8,8c0,4.4,3.6,8,8,8c4.4,0,8-3.6,8-8C183.4,21.2,179.8,17.6,175.4,17.6z M175.4,34.9
		c-5.1,0-9.3-4.2-9.3-9.3s4.2-9.3,9.3-9.3c5.1,0,9.3,4.2,9.3,9.3S180.5,34.9,175.4,34.9"/>
	<path class="st1" d="M163.5,74.6h23.8V45.5h-23.8V74.6z M187.9,75.9h-25.1c-0.4,0-0.6-0.3-0.6-0.7V44.8c0-0.4,0.3-0.6,0.6-0.6h25.1
		c0.4,0,0.6,0.3,0.6,0.6v30.4C188.6,75.6,188.3,75.9,187.9,75.9"/>
	<path class="st1" d="M169.9,58.8v7c0,0.9,0.7,1.6,1.6,1.6h7.9c0.8,0,1.5-0.7,1.5-1.5v-7.2H169.9z M179.4,68.7h-7.9
		c-1.6,0-2.9-1.3-2.9-2.9v-7.7c0-0.4,0.3-0.7,0.7-0.7h12.3c0.4,0,0.7,0.3,0.7,0.7v7.8C182.2,67.5,180.9,68.7,179.4,68.7"/>
	<path class="st1" d="M171.6,57.5h7.6v-1c0-2.1-1.7-3.8-3.8-3.8s-3.8,1.7-3.8,3.8V57.5z M179.8,58.8h-8.9c-0.4,0-0.6-0.3-0.6-0.6
		v-1.6c0-2.8,2.3-5.1,5.1-5.1s5.1,2.3,5.1,5.1v1.6C180.5,58.5,180.2,58.8,179.8,58.8"/>
	<path class="st1" d="M175.4,61.8c-0.7,0-1.3,0.6-1.3,1.3s0.6,1.3,1.3,1.3c0.7,0,1.3-0.6,1.3-1.3S176.1,61.8,175.4,61.8z
		 M175.4,65.7c-1.4,0-2.6-1.2-2.6-2.6s1.2-2.6,2.6-2.6s2.6,1.2,2.6,2.6S176.8,65.7,175.4,65.7"/>
	<path class="st1" d="M66.2,60.6c0.1,0,0.2,0,0.3,0.1l7.7,4.4v-7c0-0.2,0.1-0.4,0.3-0.6c5.8-3.3,9.1-8.1,9.1-13.2
		c0-9.4-10.9-17-24.4-17s-24.4,7.6-24.4,17c0,9.4,10.9,17,24.4,17c2.3,0,4.6-0.2,6.8-0.7C66.1,60.6,66.2,60.6,66.2,60.6z M74.9,66.9
		c-0.1,0-0.2,0-0.3-0.1l-8.5-4.9c-2.2,0.4-4.5,0.7-6.8,0.7c-14.1,0-25.7-8.2-25.7-18.3c0-10.1,11.5-18.3,25.7-18.3
		s25.7,8.2,25.7,18.3c0,5.5-3.4,10.7-9.4,14.2v7.8c0,0.2-0.1,0.4-0.3,0.6C75.1,66.8,75,66.9,74.9,66.9"/>
	<path class="st1" d="M31.5,7.1c-13.4,0-24.4,7.6-24.4,17c0,5.2,3.3,10,9.1,13.2c0.2,0.1,0.3,0.3,0.3,0.6v7l7.7-4.4
		c0.1-0.1,0.3-0.1,0.5-0.1c3,0.6,6.3,0.8,9.3,0.6c1.9-7.7,10.7-13.8,21.6-14.9c0.1-0.7,0.2-1.4,0.2-2C55.8,14.7,44.9,7.1,31.5,7.1z
		 M15.9,46.7c-0.1,0-0.2,0-0.3-0.1c-0.2-0.1-0.3-0.3-0.3-0.6v-7.8c-6-3.5-9.4-8.6-9.4-14.2C5.8,14,17.3,5.8,31.5,5.8
		c14.1,0,25.7,8.2,25.7,18.3c0,0.9-0.1,1.9-0.3,2.8c-0.1,0.3-0.3,0.5-0.6,0.5c-10.8,0.9-19.5,6.8-21.1,14.4
		c-0.1,0.3-0.3,0.5-0.6,0.5c-3.2,0.3-6.7,0.1-9.9-0.5l-8.5,4.9C16.1,46.7,16,46.7,15.9,46.7"/>
	<path class="st1" d="M18.4,22.2c-0.7,0-1.3,0.6-1.3,1.3c0,0.7,0.6,1.3,1.3,1.3s1.3-0.6,1.3-1.3C19.6,22.8,19.1,22.2,18.4,22.2z
		 M18.4,26.1c-1.4,0-2.6-1.2-2.6-2.6c0-1.4,1.2-2.6,2.6-2.6c1.4,0,2.6,1.2,2.6,2.6C21,24.9,19.8,26.1,18.4,26.1"/>
	<path class="st1" d="M29.4,22.2c-0.7,0-1.3,0.6-1.3,1.3c0,0.7,0.6,1.3,1.3,1.3c0.7,0,1.3-0.6,1.3-1.3
		C30.7,22.8,30.1,22.2,29.4,22.2z M29.4,26.1c-1.4,0-2.6-1.2-2.6-2.6c0-1.4,1.2-2.6,2.6-2.6c1.4,0,2.6,1.2,2.6,2.6
		C32,24.9,30.8,26.1,29.4,26.1"/>
	<path class="st1" d="M40.4,22.2c-0.7,0-1.3,0.6-1.3,1.3c0,0.7,0.6,1.3,1.3,1.3s1.3-0.6,1.3-1.3C41.7,22.8,41.1,22.2,40.4,22.2z
		 M40.4,26.1c-1.4,0-2.6-1.2-2.6-2.6c0-1.4,1.2-2.6,2.6-2.6s2.6,1.2,2.6,2.6C43,24.9,41.8,26.1,40.4,26.1"/>
	<path class="st1" d="M-104.8,21.5h41c0.2,0,0.5,0.1,0.6,0.3l16.8,31V6h-47.7c-0.3,0-0.6-0.2-0.6-0.5l-1-4.2h-9.1v7.2
		c0,0.1,0,0.1,0,0.2V21.5z M-45.7,56.1c-0.2,0-0.5-0.1-0.6-0.3l-17.9-32.9h-41.3c-0.4,0-0.6-0.3-0.6-0.6V8.9c0-0.1,0-0.1,0-0.2v-8
		c0-0.4,0.3-0.7,0.7-0.7h10.3c0.3,0,0.6,0.2,0.6,0.5l1,4.2h47.9c0.4,0,0.7,0.3,0.7,0.6v50.1c0,0.3-0.2,0.6-0.5,0.6
		C-45.6,56.1-45.7,56.1-45.7,56.1"/>
	<path class="st1" d="M-60.6,54.8h13.8l-17.4-32h-58.3l17.4,32h18.8v-2.5c0-0.4,0.3-0.7,0.6-0.7h2.7V49c0-5.2,4.2-9.5,9.5-9.5
		c5.2,0,9.5,4.2,9.5,9.5v2.6h2.7c0.4,0,0.6,0.3,0.6,0.7V54.8z M-45.7,56.1h-15.5c-0.4,0-0.7-0.3-0.7-0.7v-2.5h-2.7
		c-0.4,0-0.6-0.3-0.6-0.6V49c0-4.5-3.7-8.2-8.2-8.2c-4.5,0-8.2,3.7-8.2,8.2v3.2c0,0.4-0.3,0.6-0.6,0.6h-2.7v2.5
		c0,0.4-0.3,0.7-0.7,0.7h-19.9c-0.2,0-0.5-0.1-0.6-0.3l-18.1-33.3c-0.1-0.2-0.1-0.4,0-0.6c0.1-0.2,0.3-0.3,0.6-0.3h59.7
		c0.2,0,0.5,0.1,0.6,0.3l18.1,33.3c0.1,0.2,0.1,0.4,0,0.6C-45.3,55.9-45.5,56.1-45.7,56.1"/>
	<path class="st1" d="M-84.9,52.9v14.5c0,2.1,1.7,3.9,3.9,3.9h15.6c2,0,3.5-1.6,3.5-3.6V52.9H-84.9z M-65.4,72.6h-15.6
		c-2.9,0-5.2-2.3-5.2-5.2V52.3c0-0.4,0.3-0.7,0.6-0.7h24.4c0.4,0,0.6,0.3,0.6,0.7v15.5C-60.6,70.5-62.7,72.6-65.4,72.6"/>
	<path class="st1" d="M-74.6,66.9h2.7l-1.1-4c-0.1-0.3,0.1-0.6,0.4-0.8c0.7-0.3,1.1-0.9,1.1-1.7c0-1-0.8-1.8-1.8-1.8
		c-1,0-1.8,0.8-1.8,1.8c0,0.7,0.4,1.4,1.1,1.7c0.3,0.1,0.5,0.5,0.4,0.8L-74.6,66.9z M-71.1,68.2h-4.4c-0.2,0-0.4-0.1-0.5-0.3
		c-0.1-0.2-0.2-0.4-0.1-0.6L-75,63c-0.9-0.6-1.4-1.5-1.4-2.6c0-1.7,1.4-3.1,3.1-3.1c1.7,0,3.1,1.4,3.1,3.1c0,1.1-0.5,2-1.4,2.6
		l1.1,4.3c0.1,0.2,0,0.4-0.1,0.6C-70.7,68.1-70.9,68.2-71.1,68.2"/>
	<path class="st1" d="M-81.6,51.6h16.3V49c0-4.5-3.7-8.2-8.2-8.2c-4.5,0-8.2,3.7-8.2,8.2V51.6z M-64.6,52.9h-17.6
		c-0.4,0-0.6-0.3-0.6-0.6V49c0-5.2,4.2-9.5,9.5-9.5c5.2,0,9.5,4.2,9.5,9.5v3.2C-63.9,52.6-64.2,52.9-64.6,52.9"/>
	<path class="st1" d="M-250.4,6.6c-1.4,0-2.5,1.1-2.5,2.5v43.6c0,1.4,1.1,2.5,2.5,2.5h45.6V43.7c0-0.4,0.3-0.7,0.7-0.7h3.3v-3.1
		c0-6,4.9-10.9,10.9-10.9c4.2,0,7.8,2.3,9.6,5.8V9.1c0-1.4-1.1-2.5-2.5-2.5H-250.4z M-204.1,56.5h-46.3c-2.1,0-3.8-1.7-3.8-3.8V9.1
		c0-2.1,1.7-3.8,3.8-3.8h67.6c2.1,0,3.8,1.7,3.8,3.8v34.6c0,0.4-0.3,0.6-0.6,0.6s-0.7-0.3-0.7-0.6v-3.8c0-5.3-4.3-9.6-9.6-9.6
		s-9.6,4.3-9.6,9.6v3.8c0,0.4-0.3,0.6-0.6,0.6h-3.3v11.5C-203.4,56.2-203.7,56.5-204.1,56.5"/>
	<path class="st1" d="M-216.6,39.5c-0.2,0-0.3-0.1-0.4-0.2l-36.1-31.8c-0.3-0.2-0.3-0.6-0.1-0.9c0.2-0.3,0.6-0.3,0.9-0.1l35.7,31.5
		l35.5-31.6c0.3-0.2,0.7-0.2,0.9,0.1c0.2,0.3,0.2,0.7-0.1,0.9l-35.9,32C-216.2,39.4-216.4,39.5-216.6,39.5"/>
	<path class="st1" d="M-252.7,55.5c-0.2,0-0.4-0.1-0.5-0.3c-0.2-0.3-0.1-0.7,0.2-0.9l29.3-20.5c0.3-0.2,0.7-0.1,0.9,0.2
		c0.2,0.3,0.1,0.7-0.2,0.9l-29.3,20.5C-252.4,55.4-252.5,55.5-252.7,55.5"/>
	<path class="st1" d="M-200.2,41.8c-0.1,0-0.3,0-0.4-0.1l-9.7-6.8c-0.3-0.2-0.4-0.6-0.2-0.9c0.2-0.3,0.6-0.4,0.9-0.2l9.7,6.8
		c0.3,0.2,0.4,0.6,0.2,0.9C-199.8,41.7-200,41.8-200.2,41.8"/>
	<path class="st1" d="M-203.4,44.4v17.1c0,2.5,2.1,4.6,4.6,4.6h18.2c2.3,0,4.2-1.9,4.2-4.2V44.4H-203.4z M-180.6,67.3h-18.2
		c-3.3,0-5.9-2.7-5.9-5.9V43.7c0-0.4,0.3-0.7,0.7-0.7h28.4c0.4,0,0.6,0.3,0.6,0.7v18.1C-175.1,64.8-177.5,67.3-180.6,67.3"/>
	<path class="st1" d="M-199.5,43.1h19.2v-3.1c0-5.3-4.3-9.6-9.6-9.6s-9.6,4.3-9.6,9.6V43.1z M-179.6,44.4h-20.5
		c-0.4,0-0.7-0.3-0.7-0.6v-3.8c0-6,4.9-10.9,10.9-10.9c6,0,10.9,4.9,10.9,10.9v3.8C-179,44.1-179.3,44.4-179.6,44.4"/>
	<path class="st1" d="M-189.9,51.9c-1.8,0-3.3,1.5-3.3,3.3c0,1.8,1.5,3.3,3.3,3.3c1.8,0,3.3-1.5,3.3-3.3
		C-186.6,53.4-188.1,51.9-189.9,51.9z M-189.9,59.8c-2.5,0-4.6-2-4.6-4.6c0-2.5,2-4.6,4.6-4.6c2.5,0,4.6,2,4.6,4.6
		C-185.3,57.7-187.4,59.8-189.9,59.8"/>
	<path class="st1" d="M137.1-122.9l0.1,6.4l76.4-0.9l-0.1-6.4L137.1-122.9z M136.6-115.1c-0.2,0-0.3-0.1-0.5-0.2
		c-0.1-0.1-0.2-0.3-0.2-0.5l-0.1-7.7c0-0.4,0.3-0.7,0.6-0.7l77.7-0.9c0.2,0,0.3,0.1,0.5,0.2c0.1,0.1,0.2,0.3,0.2,0.5l0.1,7.7
		c0,0.4-0.3,0.7-0.6,0.7L136.6-115.1C136.6-115.1,136.6-115.1,136.6-115.1"/>
	<path class="st1" d="M144.3-115.2l0.1,4.4l62.3-0.8l-0.1-4.4L144.3-115.2z M143.7-109.5c-0.4,0-0.6-0.3-0.6-0.6l-0.1-5.7
		c0-0.2,0.1-0.3,0.2-0.5c0.1-0.1,0.3-0.2,0.5-0.2l63.6-0.8c0.4,0,0.7,0.3,0.7,0.6l0.1,5.7c0,0.2-0.1,0.3-0.2,0.5
		c-0.1,0.1-0.3,0.2-0.5,0.2L143.7-109.5C143.7-109.5,143.7-109.5,143.7-109.5"/>
	<path class="st1" d="M150.3-109.5l0.3,21.1c0.2,13.7,11.5,24.9,25.2,24.9l0.3,0c6.7-0.1,13-2.8,17.7-7.6c4.7-4.8,7.3-11.2,7.2-17.9
		l-0.3-21.1L150.3-109.5z M175.8-62.3c-14.4,0-26.3-11.7-26.5-26.2l-0.3-21.8c0-0.4,0.3-0.7,0.6-0.7l51.7-0.6c0.2,0,0.3,0.1,0.5,0.2
		c0.1,0.1,0.2,0.3,0.2,0.5l0.3,21.8c0.1,7.1-2.6,13.7-7.6,18.8s-11.6,7.9-18.6,8L175.8-62.3"/>
	<path class="st1" d="M179.4-86.7c-4.3,0.1-7.7,3.5-7.6,7.7c0.1,4.1,3.5,7.5,7.6,7.5h0.1c4.2-0.1,7.5-3.5,7.5-7.7
		C186.9-83.3,183.5-86.7,179.4-86.7z M179.4-70.2c-4.8,0-8.8-3.9-8.9-8.8c0-2.4,0.9-4.6,2.5-6.3s3.9-2.7,6.3-2.7h0.1
		c4.8,0,8.8,3.9,8.9,8.8c0.1,4.9-3.9,8.9-8.8,9H179.4"/>
	<path class="st1" d="M179.4-81.8c-1.5,0-2.7,1.3-2.7,2.8c0,1.5,1.2,2.7,2.7,2.7v0.7l0-0.7c1.5,0,2.7-1.3,2.7-2.8
		C182.1-80.6,180.8-81.8,179.4-81.8z M179.4-75c-2.2,0-4-1.8-4-4c0-2.2,1.8-4,4-4.1c2.2,0,4,1.8,4.1,4
		C183.4-76.9,181.6-75.1,179.4-75C179.4-75,179.4-75,179.4-75"/>
	<path class="st1" d="M7.1-130.8c0,30.9,0.2,53.4,33.1,74.2c3.6-2.2,6.8-4.6,9.7-6.9c-0.2-0.7-0.3-1.4-0.3-2.1v-21.2
		c0-0.4,0.3-0.7,0.6-0.7h4.1v-3.9c0-7.1,5.8-13,13-13c1.7,0,3.4,0.3,4.9,1c1.1-8.5,1.2-17.7,1.2-27.5H7.1z M40.2-55.2
		c-0.1,0-0.2,0-0.3-0.1C5.8-76.7,5.8-99.7,5.8-131.5c0-0.4,0.3-0.6,0.6-0.6H74c0.4,0,0.7,0.3,0.7,0.6c0,10.4,0,20.2-1.3,29.2
		c0,0.2-0.2,0.4-0.3,0.5c-0.2,0.1-0.4,0.1-0.6,0c-1.6-0.8-3.3-1.2-5.1-1.2c-6.4,0-11.7,5.2-11.7,11.7v4.5c0,0.4-0.3,0.7-0.6,0.7
		h-4.1v20.6c0,0.7,0.1,1.4,0.4,2c0.1,0.3,0,0.6-0.2,0.7c-3.1,2.6-6.6,5.1-10.5,7.5C40.5-55.3,40.4-55.2,40.2-55.2"/>
	<path class="st1" d="M16.2-123.3c0,23.6,0.2,40.7,24.1,56.6c3.6-2.4,6.7-4.8,9.4-7.4v-12.7c0-0.4,0.3-0.7,0.6-0.7h4.1v-3.9
		c0-5.8,3.8-10.8,9.3-12.4c0.7-6.1,0.7-12.6,0.7-19.6H16.2z M40.2-65.3c-0.1,0-0.3,0-0.4-0.1c-25-16.5-25-34.1-25-58.5
		c0-0.4,0.3-0.6,0.7-0.6h49.4c0.4,0,0.7,0.3,0.7,0.6c0,7.4,0,14.3-0.7,20.8c0,0.3-0.2,0.5-0.5,0.6c-5.2,1.3-8.8,6-8.8,11.3v4.5
		c0,0.4-0.3,0.7-0.6,0.7h-4.1v12.3c0,0.2-0.1,0.3-0.2,0.5c-2.8,2.7-6.3,5.4-10.1,7.9C40.5-65.4,40.4-65.3,40.2-65.3"/>
	<path class="st1" d="M50.9-86.2v20.6c0,3.1,2.5,5.7,5.7,5.7h21.8c2.9,0,5.2-2.3,5.2-5.2v-21H50.9z M78.4-58.6H56.6
		c-3.8,0-7-3.1-7-7v-21.2c0-0.4,0.3-0.7,0.6-0.7h34c0.4,0,0.7,0.3,0.7,0.7v21.7C84.9-61.6,82-58.6,78.4-58.6"/>
	<path class="st1" d="M65.2-66.2h4.4L68-72.1c-0.1-0.3,0.1-0.7,0.4-0.8c1-0.4,1.7-1.4,1.7-2.5c0-1.5-1.2-2.7-2.7-2.7
		s-2.7,1.2-2.7,2.7c0,1.1,0.7,2.1,1.7,2.5c0.3,0.1,0.5,0.5,0.4,0.8L65.2-66.2z M70.5-64.9h-6.1c-0.2,0-0.4-0.1-0.5-0.3
		c-0.1-0.2-0.2-0.4-0.1-0.6l1.6-6.2c-1.2-0.7-2-2-2-3.5c0-2.2,1.8-4,4-4s4,1.8,4,4c0,1.5-0.8,2.8-2,3.5l1.7,6.2
		c0.1,0.2,0,0.4-0.1,0.6C70.8-65,70.7-64.9,70.5-64.9"/>
	<path class="st1" d="M55.6-87.5h23.3v-3.9c0-6.4-5.2-11.7-11.7-11.7c-6.4,0-11.7,5.2-11.7,11.7V-87.5z M79.6-86.2H55
		c-0.4,0-0.7-0.3-0.7-0.7v-4.5c0-7.1,5.8-13,13-13c7.1,0,13,5.8,13,13v4.5C80.2-86.5,79.9-86.2,79.6-86.2"/>
	<path class="st1" d="M-120.7-129.7c-1.2,0-2.2,1-2.2,2.2v53.1c0,1.2,1,2.2,2.2,2.2h72.1c1.2,0,2.2-1,2.2-2.2v-53.1
		c0-1.2-1-2.2-2.2-2.2H-120.7z M-48.5-70.9h-72.1c-1.9,0-3.5-1.6-3.5-3.5v-53.1c0-1.9,1.6-3.5,3.5-3.5h72.1c1.9,0,3.5,1.6,3.5,3.5
		v53.1C-45.1-72.5-46.6-70.9-48.5-70.9"/>
	<path class="st1" d="M-93.3-62.6h17.4l-1.3-8.3H-92L-93.3-62.6z M-75.1-61.3C-75.1-61.3-75.2-61.3-75.1-61.3h-18.9
		c-0.2,0-0.4-0.1-0.5-0.2c-0.1-0.1-0.2-0.3-0.1-0.5l1.5-9.6c0.1-0.3,0.3-0.5,0.6-0.5h15.8c0.3,0,0.6,0.2,0.6,0.5l1.5,9.4
		c0,0.1,0.1,0.2,0.1,0.3C-74.5-61.6-74.8-61.3-75.1-61.3"/>
	<path class="st1" d="M-99.5-57.7h29.8v-3.6h-29.8V-57.7z M-69.1-56.4h-31.1c-0.4,0-0.7-0.3-0.7-0.7V-62c0-0.4,0.3-0.7,0.7-0.7h31.1
		c0.4,0,0.7,0.3,0.7,0.7v4.9C-68.4-56.7-68.7-56.4-69.1-56.4"/>
	<path class="st1" d="M-45.7-83h-77.8c-0.4,0-0.6-0.3-0.6-0.7s0.3-0.6,0.6-0.6h77.8c0.4,0,0.7,0.3,0.7,0.6S-45.3-83-45.7-83"/>
	<path class="st1" d="M-84.6-79.8c-1.2,0-2.2,1-2.2,2.2s1,2.2,2.2,2.2c1.2,0,2.2-1,2.2-2.2S-83.4-79.8-84.6-79.8z M-84.6-74.1
		c-1.9,0-3.5-1.6-3.5-3.5c0-1.9,1.6-3.5,3.5-3.5c1.9,0,3.5,1.6,3.5,3.5C-81.1-75.7-82.7-74.1-84.6-74.1"/>
	<path class="st1" d="M-95.1-110.1v13.3c0,1.9,1.6,3.5,3.5,3.5h14.3c1.8,0,3.2-1.4,3.2-3.2v-13.6H-95.1z M-77.3-92.1h-14.3
		c-2.6,0-4.8-2.2-4.8-4.8v-13.9c0-0.4,0.3-0.7,0.6-0.7h22.3c0.4,0,0.6,0.3,0.6,0.7v14.2C-72.8-94.1-74.8-92.1-77.3-92.1"/>
	<path class="st1" d="M-85.7-97.5h2.3l-1-3.6c-0.1-0.3,0.1-0.6,0.4-0.8c0.6-0.2,1-0.8,1-1.5c0-0.9-0.7-1.6-1.6-1.6
		c-0.9,0-1.6,0.7-1.6,1.6c0,0.6,0.4,1.2,1,1.5c0.3,0.1,0.5,0.5,0.4,0.8L-85.7-97.5z M-82.5-96.2h-4c-0.2,0-0.4-0.1-0.5-0.3
		c-0.1-0.2-0.2-0.4-0.1-0.6l1-3.9c-0.8-0.5-1.3-1.4-1.3-2.4c0-1.6,1.3-2.9,2.9-2.9c1.6,0,2.9,1.3,2.9,2.9c0,1-0.5,1.9-1.3,2.4l1,3.9
		c0.1,0.2,0,0.4-0.1,0.6C-82.1-96.3-82.3-96.2-82.5-96.2"/>
	<path class="st1" d="M-92-111.4h14.8v-2.3c0-4.1-3.3-7.4-7.4-7.4c-4.1,0-7.4,3.3-7.4,7.4V-111.4z M-76.5-110.1h-16.1
		c-0.4,0-0.7-0.3-0.7-0.6v-3c0-4.8,3.9-8.7,8.7-8.7c4.8,0,8.7,3.9,8.7,8.7v3C-75.9-110.4-76.2-110.1-76.5-110.1"/>
	<path class="st1" d="M-252.4-68h54.5v-5.2c0-0.4,0.3-0.7,0.7-0.7h2.3v-2.2c0-3.4,2.1-6.5,5.2-7.8l-26.8-46.4L-252.4-68z
		 M-197.2-66.7h-56.3c-0.2,0-0.4-0.1-0.6-0.3s-0.1-0.4,0-0.7l37.1-64.2c0.1-0.2,0.3-0.3,0.6-0.3c0.2,0,0.4,0.1,0.6,0.3l27.7,48
		c0.1,0.2,0.1,0.4,0,0.6c-0.1,0.2-0.2,0.3-0.4,0.4c-3,0.9-5.1,3.7-5.1,6.8v2.9c0,0.4-0.3,0.6-0.6,0.6h-2.3v5.2
		C-196.6-67-196.9-66.7-197.2-66.7"/>
	<path class="st1" d="M-218.2-75.8h3.5v-3.4h-3.5V-75.8z M-214.1-74.5h-4.8c-0.4,0-0.6-0.3-0.6-0.7v-4.7c0-0.4,0.3-0.6,0.6-0.6h4.8
		c0.4,0,0.6,0.3,0.6,0.6v4.7C-213.4-74.8-213.7-74.5-214.1-74.5"/>
	<path class="st1" d="M-217.1-84.1h1.4l1.1-24h-3.8L-217.1-84.1z M-215.1-82.8h-2.7c-0.3,0-0.6-0.3-0.6-0.6l-1.3-25.3
		c0-0.2,0.1-0.4,0.2-0.5c0.1-0.1,0.3-0.2,0.5-0.2h5.1c0.2,0,0.3,0.1,0.5,0.2c0.1,0.1,0.2,0.3,0.2,0.5l-1.2,25.3
		C-214.4-83.1-214.7-82.8-215.1-82.8"/>
	<path class="st1" d="M-196.6-72.6v12.8c0,1.8,1.5,3.3,3.3,3.3h13.8c1.7,0,3.1-1.4,3.1-3.1v-13.1H-196.6z M-179.4-55.2h-13.8
		c-2.6,0-4.6-2.1-4.6-4.6v-13.4c0-0.4,0.3-0.7,0.7-0.7h21.5c0.4,0,0.6,0.3,0.6,0.7v13.7C-175.1-57.1-177-55.2-179.4-55.2"/>
	<path class="st1" d="M-187.5-60.4h2.2l-0.9-3.4c-0.1-0.3,0.1-0.6,0.4-0.8c0.6-0.2,0.9-0.8,0.9-1.4c0-0.8-0.7-1.5-1.5-1.5
		s-1.5,0.7-1.5,1.5c0,0.6,0.4,1.2,0.9,1.4c0.3,0.1,0.5,0.5,0.4,0.8L-187.5-60.4z M-184.5-59.1h-3.9c-0.2,0-0.4-0.1-0.5-0.3
		c-0.1-0.2-0.2-0.4-0.1-0.6l1-3.8c-0.8-0.5-1.2-1.4-1.2-2.3c0-1.5,1.3-2.8,2.8-2.8c1.5,0,2.8,1.3,2.8,2.8c0,0.9-0.5,1.8-1.2,2.3
		l1,3.8c0.1,0.2,0,0.4-0.1,0.6C-184.1-59.2-184.3-59.1-184.5-59.1"/>
	<path class="st1" d="M-193.6-73.9h14.3v-2.2c0-3.9-3.2-7.1-7.1-7.1c-3.9,0-7.1,3.2-7.1,7.1V-73.9z M-178.7-72.6h-15.6
		c-0.4,0-0.6-0.3-0.6-0.6v-2.9c0-4.7,3.8-8.4,8.4-8.4s8.4,3.8,8.4,8.4v2.9C-178-72.9-178.3-72.6-178.7-72.6"/>
	<path class="st4" d="M181-206l-5.6,4.8l-5.6-4.8l-0.3-0.3L150.3-223l50.2-0.5v0.3l-19.3,16.9L181-206z"/>
	<path class="st4" d="M210.2-185.7l-28.3-19.8l-0.7-0.7l19.3-16.9l9.6-9c0.6,0.6,1,1.3,1,2.2v42.1
		C211.1-187,210.8-186.3,210.2-185.7L210.2-185.7z"/>
	<path class="st4" d="M208.1-233c0.8,0,1.5,0.3,2.1,0.8l-9.6,9v-9.8H208.1z"/>
	<path class="st4" d="M175.4-230.8c-3.3,0-6-2.7-6-6c0-0.5,0.1-1,0.2-1.5c0.1-0.5,0.3-1,0.6-1.4c0.3-0.6,0.8-1.1,1.3-1.6
		c0.3-0.2,0.5-0.4,0.9-0.6c-0.9-0.8-1.5-2-1.5-3.4c0-2.5,2.1-4.6,4.6-4.6s4.6,2.1,4.6,4.6c0,1.3-0.6,2.5-1.5,3.4
		c0.3,0.2,0.6,0.4,0.9,0.6c1.3,1.1,2.1,2.7,2.1,4.5C181.4-233.5,178.7-230.8,175.4-230.8z"/>
	<path class="st4" d="M181.9-205.5l28.3,19.8l0,0c-0.5,0.6-1.3,0.9-2.2,0.9h-65.3c-0.9,0-1.7-0.4-2.2-1l28.3-19.8l0.7-0.8l0.3,0.3
		l5.6,4.8l5.6-4.8l0.3-0.2L181.9-205.5z"/>
	<path class="st4" d="M169.4-236.8c0,3.3,2.7,6,6,6c3.3,0,6-2.7,6-6c0-1.8-0.8-3.4-2.1-4.5c-0.3-0.2-0.5-0.4-0.9-0.6
		c0.9-0.8,1.5-2,1.5-3.4c0-2.5-2.1-4.6-4.6-4.6s-4.6,2.1-4.6,4.6c0,1.3,0.6,2.5,1.5,3.4c-0.3,0.2-0.6,0.4-0.9,0.6
		c-0.5,0.4-0.9,1-1.3,1.6c-0.2,0.4-0.4,0.9-0.6,1.4C169.4-237.9,169.4-237.4,169.4-236.8z M200.5-223.5l-50.2,0.5v-39.6h50.2V-223.5
		z"/>
	<path class="st4" d="M150.3-223l-9.8-9c0.6-0.6,1.4-1,2.2-1h7.6V-223z"/>
	<path class="st4" d="M139.7-229.9c0-0.8,0.3-1.5,0.8-2.1l9.8,9l19.2,16.6l-0.7,0.8l-28.3,19.8c-0.5-0.5-0.8-1.3-0.8-2.1V-229.9z"/>
	<path class="st4" d="M200.5-233h7.6c0.8,0,1.5,0.3,2.1,0.8c0.6,0.6,1,1.3,1,2.2v42.1c0,0.8-0.3,1.6-0.9,2.1
		c-0.5,0.6-1.3,0.9-2.2,0.9h-65.3c-0.9,0-1.7-0.4-2.2-1c-0.5-0.5-0.8-1.3-0.8-2.1v-42.1c0-0.8,0.3-1.5,0.8-2.1c0.6-0.6,1.4-1,2.2-1
		h7.6"/>
	<path class="st4" d="M150.3-223l19.2,16.6l0.3,0.3l5.6,4.8l5.6-4.8l0.3-0.2l19.3-16.9v-0.3"/>
	<path class="st5" d="M200.5-223.1l9.6-9"/>
	<path class="st5" d="M140.5-232l9.8,9"/>
	<path class="st5" d="M140.5-185.7l28.3-19.8"/>
	<path class="st5" d="M210.2-185.7l-28.3-19.8"/>
	<path class="st4" d="M150.3-223v-39.6h50.2v39.1"/>
	<path class="st5" d="M171.4-241.3c0.3-0.2,0.5-0.4,0.9-0.6c-0.9-0.8-1.5-2-1.5-3.4c0-2.5,2.1-4.6,4.6-4.6s4.6,2.1,4.6,4.6
		c0,1.3-0.6,2.5-1.5,3.4c0.3,0.2,0.6,0.4,0.9,0.6c1.3,1.1,2.1,2.7,2.1,4.5c0,3.3-2.7,6-6,6c-3.3,0-6-2.7-6-6c0-0.5,0.1-1,0.2-1.5
		c0.1-0.5,0.3-1,0.6-1.4C170.5-240.4,170.9-240.9,171.4-241.3z"/>
	<path class="st5" d="M166.9-252.1c-5.6,6.6,1.9,10.3,4.5,10.8"/>
	<path class="st5" d="M183.9-252.1c5.6,6.6-1.9,10.3-4.5,10.8"/>
	<path class="st5" d="M162.3-226.4l5-9.6l2.1-0.2"/>
	<path class="st5" d="M188.5-226.4l-5-9.6l-2.1-0.2"/>
	<path class="st5" d="M156.4-239.4l7.7-0.9l5.4,2"/>
	<path class="st5" d="M194.4-239.4l-7.7-0.9l-5.4,2"/>
	<path class="st1" d="M9.9-252.5c-1.5,0-2.7,1.2-2.7,2.7v36.6c0,1.5,1.2,2.7,2.7,2.7h51.8v-1.6c0-0.4,0.3-0.6,0.6-0.6h2.4v-2.3
		c0-4.1,2.9-7.6,6.8-8.4v-26.4c0-1.5-1.2-2.7-2.7-2.7H9.9z M62.3-209.1H9.9c-2.2,0-4-1.8-4-4v-36.6c0-2.2,1.8-4,4-4h58.9
		c2.2,0,4,1.8,4,4v27c0,0.3-0.2,0.6-0.6,0.6c-3.6,0.5-6.3,3.6-6.3,7.2v2.9c0,0.4-0.3,0.6-0.7,0.6h-2.4v1.6
		C62.9-209.4,62.6-209.1,62.3-209.1"/>
	<path class="st1" d="M72.1-235.8H6.5c-0.4,0-0.6-0.3-0.6-0.6s0.3-0.6,0.6-0.6h65.7c0.4,0,0.7,0.3,0.7,0.6S72.5-235.8,72.1-235.8"/>
	<path class="st1" d="M72.1-226H6.5c-0.4,0-0.6-0.3-0.6-0.6s0.3-0.7,0.6-0.7h65.7c0.4,0,0.7,0.3,0.7,0.7S72.5-226,72.1-226"/>
	<path class="st1" d="M19.6-216h-6.7c-0.4,0-0.7-0.3-0.7-0.6s0.3-0.6,0.7-0.6h6.7c0.4,0,0.6,0.3,0.6,0.6S20-216,19.6-216"/>
	<path class="st1" d="M31.8-216h-6.7c-0.4,0-0.6-0.3-0.6-0.6s0.3-0.6,0.6-0.6h6.7c0.4,0,0.7,0.3,0.7,0.6S32.2-216,31.8-216"/>
	<path class="st1" d="M44.1-216h-6.7c-0.4,0-0.7-0.3-0.7-0.6s0.3-0.6,0.7-0.6h6.7c0.4,0,0.6,0.3,0.6,0.6S44.4-216,44.1-216"/>
	<path class="st1" d="M54.8-219.3c-1,0-1.8,0.8-1.8,1.8c0,1.1,1,1.9,2,1.8c-0.4-0.5-0.6-1.2-0.6-1.8c0-0.7,0.2-1.3,0.6-1.8
		C54.9-219.3,54.9-219.3,54.8-219.3z M54.8-214.4c-1.7,0-3.1-1.4-3.1-3.1c0-1.7,1.4-3.1,3.1-3.1c0.6,0,1.2,0.2,1.7,0.5
		c0.2,0.1,0.3,0.3,0.3,0.5c0,0.2-0.1,0.4-0.3,0.5c-0.5,0.3-0.8,0.9-0.8,1.5c0,0.6,0.3,1.2,0.8,1.5c0.2,0.1,0.3,0.3,0.3,0.5
		s-0.1,0.4-0.3,0.5C56-214.5,55.4-214.4,54.8-214.4"/>
	<path class="st1" d="M48.3-243.3h14.9v-3H48.3V-243.3z M63.9-242H47.7c-0.4,0-0.7-0.3-0.7-0.7v-4.3c0-0.4,0.3-0.7,0.7-0.7h16.2
		c0.4,0,0.7,0.3,0.7,0.7v4.3C64.6-242.3,64.3-242,63.9-242"/>
	<path class="st1" d="M57.5-219.3c-1,0-1.8,0.8-1.8,1.8c0,1,0.8,1.8,1.8,1.8c1,0,1.8-0.8,1.8-1.8C59.4-218.5,58.6-219.3,57.5-219.3z
		 M57.5-214.4c-1.7,0-3.1-1.4-3.1-3.1c0-1.7,1.4-3.1,3.1-3.1s3.1,1.4,3.1,3.1C60.7-215.8,59.3-214.4,57.5-214.4"/>
	<path class="st1" d="M62.9-211.4v13.1c0,1.9,1.5,3.4,3.4,3.4h14.1c1.7,0,3.2-1.4,3.2-3.1v-13.4H62.9z M80.5-193.5H66.4
		c-2.6,0-4.7-2.1-4.7-4.7V-212c0-0.4,0.3-0.6,0.6-0.6h22c0.4,0,0.7,0.3,0.7,0.6v14C84.9-195.5,82.9-193.5,80.5-193.5"/>
	<path class="st1" d="M72.2-198.9h2.3l-0.9-3.5c-0.1-0.3,0.1-0.6,0.4-0.8c0.6-0.2,1-0.8,1-1.4c0-0.9-0.7-1.5-1.5-1.5
		s-1.5,0.7-1.5,1.5c0,0.6,0.4,1.2,1,1.4c0.3,0.1,0.5,0.5,0.4,0.8L72.2-198.9z M75.3-197.6h-3.9c-0.2,0-0.4-0.1-0.5-0.3
		c-0.1-0.2-0.2-0.4-0.1-0.6l1-3.8c-0.8-0.5-1.3-1.4-1.3-2.4c0-1.6,1.3-2.8,2.8-2.8c1.6,0,2.8,1.3,2.8,2.8c0,1-0.5,1.8-1.3,2.4l1,3.9
		c0.1,0.2,0,0.4-0.1,0.6C75.7-197.7,75.5-197.6,75.3-197.6"/>
	<path class="st1" d="M66-212.7h14.6v-2.3c0-4-3.3-7.3-7.3-7.3c-4,0-7.3,3.3-7.3,7.3V-212.7z M81.2-211.4H65.3
		c-0.4,0-0.6-0.3-0.6-0.6v-2.9c0-4.8,3.9-8.6,8.6-8.6c4.7,0,8.6,3.9,8.6,8.6v2.9C81.9-211.7,81.6-211.4,81.2-211.4"/>
	<path class="st1" d="M-102.8-257.2c-1.9,0-3.5,1.6-3.5,3.5v64.7c0,1.9,1.6,3.5,3.5,3.5h26.3c1.9,0,3.5-1.6,3.5-3.5v-47.7
		c-0.6,0.1-1.3,0.1-1.9,0.1c-7.4,0-13.3-6-13.3-13.3c0-2.6,0.7-5.1,2.2-7.3H-102.8z M-76.5-184.1h-26.3c-2.7,0-4.8-2.2-4.8-4.8
		v-64.7c0-2.7,2.2-4.8,4.8-4.8h18c0.3,0,0.5,0.1,0.6,0.4c0.1,0.2,0.1,0.5-0.1,0.7c-1.7,2.2-2.6,4.8-2.6,7.5c0,6.6,5.4,12,12,12
		c0.8,0,1.6-0.1,2.4-0.3c0.2,0,0.4,0,0.5,0.1c0.2,0.1,0.2,0.3,0.2,0.5v48.5C-71.7-186.3-73.9-184.1-76.5-184.1"/>
	<path class="st1" d="M-72.3-223.7H-107c-0.4,0-0.6-0.3-0.6-0.6s0.3-0.6,0.6-0.6h34.6c0.4,0,0.7,0.3,0.7,0.6S-72-223.7-72.3-223.7"
		/>
	<path class="st1" d="M-96.2-241.5c-0.3,0-0.6,0-0.9,0.1c-0.9,0.2-1.6,0.8-2,1.5c-0.4,0.8-0.6,1.6-0.3,2.5c0.5,1.7,2.3,2.8,4,2.3
		c1.7-0.5,2.8-2.3,2.3-4C-93.4-240.5-94.7-241.5-96.2-241.5z M-96.2-233.7c-2.1,0-3.9-1.4-4.4-3.4c-0.3-1.2-0.2-2.4,0.5-3.5
		c0.6-1.1,1.6-1.8,2.8-2.1c0.4-0.1,0.8-0.2,1.2-0.2c2.1,0,3.9,1.4,4.4,3.4c0.6,2.4-0.8,5-3.2,5.6C-95.4-233.7-95.8-233.7-96.2-233.7
		"/>
	<path class="st1" d="M-88.4-249.1c-0.3,0-0.6,0-0.9,0.1c-0.9,0.2-1.6,0.8-2,1.5c-0.4,0.8-0.6,1.6-0.3,2.5c0.4,1.4,1.7,2.4,3.2,2.4
		c0.3,0,0.6,0,0.8-0.1c0.4-0.1,0.8-0.3,1.1-0.6c-1-1.8-1.6-3.8-1.8-5.9C-88.3-249.1-88.4-249.1-88.4-249.1z M-88.4-241.3
		c-2.1,0-3.9-1.4-4.4-3.4c-0.3-1.2-0.2-2.4,0.5-3.5s1.6-1.8,2.8-2.1c0.7-0.2,1.5-0.2,2.2-0.1c0.3,0.1,0.5,0.3,0.5,0.6
		c0,2.2,0.7,4.4,1.9,6.3c0.2,0.3,0.1,0.6-0.1,0.8c-0.6,0.6-1.3,1-2.1,1.2C-87.7-241.3-88-241.3-88.4-241.3"/>
	<path class="st1" d="M-84.2-240.3c-0.8,0.8-1.1,2-0.8,3.1c0.4,1.4,1.7,2.4,3.2,2.4c0.3,0,0.6,0,0.8-0.1c1.1-0.3,2-1.2,2.3-2.3
		C-80.7-237.7-82.6-238.8-84.2-240.3z M-81.8-233.4c-2.1,0-3.9-1.4-4.4-3.4c-0.5-1.8,0.2-3.8,1.7-4.9c0.3-0.2,0.6-0.2,0.9,0.1
		c1.6,1.7,3.6,2.9,5.9,3.4c0.3,0.1,0.5,0.4,0.5,0.7c-0.2,1.9-1.6,3.4-3.4,3.9C-81-233.5-81.4-233.4-81.8-233.4"/>
	<path class="st1" d="M-89.7-214.2c-5.3,0-9.6,4.3-9.6,9.6s4.3,9.6,9.6,9.6c5.3,0,9.6-4.3,9.6-9.6S-84.4-214.2-89.7-214.2z
		 M-89.7-193.7c-6,0-10.9-4.9-10.9-10.9c0-6,4.9-10.9,10.9-10.9c6,0,10.9,4.9,10.9,10.9C-78.8-198.6-83.7-193.7-89.7-193.7"/>
	<path class="st1" d="M-74.9-261.9c-6.6,0-12,5.4-12,12c0,6.6,5.4,12,12,12c6.6,0,12-5.4,12-12C-62.9-256.5-68.3-261.9-74.9-261.9z
		 M-74.9-236.6c-7.4,0-13.3-6-13.3-13.3s6-13.3,13.3-13.3s13.3,6,13.3,13.3S-67.6-236.6-74.9-236.6"/>
	<path class="st1" d="M-75.7-247.3h1.5v-9.8h-1.5V-247.3z M-73.5-246h-2.8c-0.4,0-0.7-0.3-0.7-0.6v-11.1c0-0.4,0.3-0.6,0.7-0.6h2.8
		c0.4,0,0.6,0.3,0.6,0.6v11.1C-72.9-246.3-73.1-246-73.5-246"/>
	<path class="st1" d="M-75.7-242.5h1.5v-1.2h-1.5V-242.5z M-73.5-241.2h-2.8c-0.4,0-0.7-0.3-0.7-0.7v-2.5c0-0.4,0.3-0.7,0.7-0.7h2.8
		c0.4,0,0.6,0.3,0.6,0.7v2.5C-72.9-241.5-73.1-241.2-73.5-241.2"/>
	<path class="st1" d="M-249.9-220.7c-1.6,0-3,1.3-3,3v15.7c0,1.6,1.3,3,3,3h52.6v-7.4c0-0.4,0.3-0.7,0.7-0.7h2.3v-2.1
		c0-4.5,3.7-8.2,8.2-8.2c1.5,0,3,0.4,4.3,1.2v-1.4c0-1.6-1.3-3-3-3H-249.9z M-196.7-197.8h-53.3c-2.4,0-4.3-1.9-4.3-4.3v-15.7
		c0-2.4,1.9-4.3,4.3-4.3h65.1c2.3,0,4.3,1.9,4.3,4.3v2.7c0,0.3-0.1,0.5-0.4,0.6c-0.2,0.1-0.5,0.1-0.7-0.1c-1.3-1.1-2.9-1.7-4.6-1.7
		c-3.8,0-6.9,3.1-6.9,6.9v2.8c0,0.4-0.3,0.6-0.7,0.6h-2.3v7.4C-196-198.1-196.3-197.8-196.7-197.8"/>
	<path class="st1" d="M-242.4-220.7c-0.4,0-0.6-0.3-0.6-0.6v-36.5c0-0.4,0.3-0.6,0.6-0.6s0.7,0.3,0.7,0.6v36.5
		C-241.7-221-242-220.7-242.4-220.7"/>
	<path class="st1" d="M-243.4-205.9h9.2v-8.3h-9.2V-205.9z M-233.5-204.6H-244c-0.4,0-0.6-0.3-0.6-0.6v-9.6c0-0.4,0.3-0.7,0.6-0.7
		h10.5c0.4,0,0.7,0.3,0.7,0.7v9.6C-232.8-204.9-233.1-204.6-233.5-204.6"/>
	<path class="st1" d="M-221.4-205.9h9.2v-8.3h-9.2V-205.9z M-211.5-204.6H-222c-0.4,0-0.6-0.3-0.6-0.6v-9.6c0-0.4,0.3-0.7,0.6-0.7
		h10.5c0.4,0,0.6,0.3,0.6,0.7v9.6C-210.8-204.9-211.1-204.6-211.5-204.6"/>
	<path class="st1" d="M-196-205.9v12.4c0,1.8,1.5,3.3,3.2,3.3h13.4c1.6,0,3-1.3,3-3v-12.7H-196z M-179.3-188.9h-13.4
		c-2.5,0-4.5-2-4.5-4.5v-13.1c0-0.4,0.3-0.7,0.7-0.7h20.9c0.4,0,0.6,0.3,0.6,0.7v13.3C-175.1-190.8-177-188.9-179.3-188.9"/>
	<path class="st1" d="M-193.1-207.2h13.8v-2.1c0-3.8-3.1-6.9-6.9-6.9c-3.8,0-6.9,3.1-6.9,6.9V-207.2z M-178.6-205.9h-15.1
		c-0.4,0-0.6-0.3-0.6-0.6v-2.8c0-4.5,3.7-8.2,8.2-8.2c4.5,0,8.2,3.7,8.2,8.2v2.8C-177.9-206.2-178.2-205.9-178.6-205.9"/>
	<path class="st1" d="M-186.2-200.3c-1.2,0-2.2,1-2.2,2.2c0,1.2,1,2.2,2.2,2.2s2.2-1,2.2-2.2C-183.9-199.3-184.9-200.3-186.2-200.3z
		 M-186.2-194.5c-1.9,0-3.5-1.6-3.5-3.5s1.6-3.5,3.5-3.5s3.5,1.6,3.5,3.5S-184.2-194.5-186.2-194.5"/>
	<path class="st1" d="M-245.7-195.2h3.2v-2.6h-3.2V-195.2z M-241.8-193.9h-4.5c-0.4,0-0.7-0.3-0.7-0.6v-3.9c0-0.4,0.3-0.7,0.7-0.7
		h4.5c0.4,0,0.6,0.3,0.6,0.7v3.9C-241.2-194.2-241.5-193.9-241.8-193.9"/>
</g>
</svg>
