<?xml version="1.0" encoding="utf-8"?>
<!-- Generator: Adobe Illustrator 16.0.0, SVG Export Plug-In . SVG Version: 6.00 Build 0)  -->
<!DOCTYPE svg PUBLIC "-//W3C//DTD SVG 1.0//EN" "http://www.w3.org/TR/2001/REC-SVG-20010904/DTD/svg10.dtd" [
	<!ENTITY ns_flows "http://ns.adobe.com/Flows/1.0/">
	<!ENTITY ns_extend "http://ns.adobe.com/Extensibility/1.0/">
	<!ENTITY ns_ai "http://ns.adobe.com/AdobeIllustrator/10.0/">
	<!ENTITY ns_graphs "http://ns.adobe.com/Graphs/1.0/">
]>
<svg version="1.0" id="_96" xmlns:x="&ns_extend;" xmlns:i="&ns_ai;" xmlns:graph="&ns_graphs;"
	 xmlns="http://www.w3.org/2000/svg" xmlns:xlink="http://www.w3.org/1999/xlink" xmlns:a="http://ns.adobe.com/AdobeSVGViewerExtensions/3.0/"
	 x="0px" y="0px" width="612px" height="792px" viewBox="0 0 612 792" enable-background="new 0 0 612 792" xml:space="preserve">
<title>Artboard 4</title>
<path stroke="#000000" stroke-width="7" stroke-miterlimit="10" d="M95.422,701.928c-1.407,0.009-2.746-0.639-3.655-1.78
	l-72.313-90.022c-0.733-0.88-1.155-2.035-1.166-3.231V135.428c0.169-24.211,18.733-43.752,41.598-43.812h63.461
	c22.963,0.061,41.56,19.736,41.597,44.049v471.301c0.005,1.097-0.325,2.167-0.942,3.016l-64.784,90.022
	c-0.864,1.222-2.214,1.952-3.655,1.996L95.422,701.928z M27.864,605.113l67.407,83.803l60.321-83.659V135.428
	c-0.042-18.751-14.403-33.941-32.111-33.981H59.886c-17.697,0.04-32.022,15.241-32.022,33.981V605.113z"/>
<path stroke="#000000" stroke-width="7" stroke-miterlimit="10" d="M160.19,180.711H23.11c-2.618,0.002-4.755-2.257-4.758-5.029
	c-0.002-2.793,2.132-5.036,4.749-5.039c0.003,0,0.006,0,0.009,0H160.19c2.617-0.002,4.756,2.236,4.759,5.029
	c0.002,2.772-2.132,5.036-4.75,5.039C160.197,180.711,160.194,180.711,160.19,180.711z"/>
<path stroke="#000000" stroke-width="7" stroke-miterlimit="10" d="M160.19,611.979H23.11c-2.618,0-4.753-2.22-4.753-5.013
	s2.136-5.013,4.753-5.013H160.19c2.617,0,4.754,2.22,4.754,5.013S162.808,611.979,160.19,611.979L160.19,611.979z"/>
<path stroke="#000000" stroke-width="7" stroke-miterlimit="10" d="M91.617,611.979c-2.617,0-4.754-2.22-4.754-5.013l0,0V175.677
	c0-2.792,2.137-5.034,4.754-5.034c2.617,0,4.754,2.241,4.754,5.034v431.289C96.371,609.759,94.233,611.979,91.617,611.979
	L91.617,611.979z"/>
<path stroke="#000000" stroke-width="7" stroke-miterlimit="10" d="M183.668,646.835c-2.638,0-4.754-2.262-4.754-5.055l0,0
	l-1.546-456.581C177.5,132.675,217.689,90.119,267.29,90h321.7c2.596,0,4.732,2.262,4.732,5.034l0,0v491.87
	c0,2.793-2.137,5.054-4.732,5.054c-2.639,0-4.775-2.261-4.775-5.054V99.759H267.29c-44.412,0-80.414,38.102-80.414,85.13
	l1.528,456.604c0,2.751-2.118,5.012-4.736,5.012l0,0V646.835z"/>
<path stroke="#000000" stroke-width="7" stroke-miterlimit="10" d="M246.458,591.627c-2.617,0-4.754-2.219-4.754-5.013l0,0V97.504
	c0.002-2.771,2.141-5.031,4.758-5.028c2.614,0.002,4.747,2.261,4.75,5.028v489.399C251.047,589.583,248.973,591.633,246.458,591.627
	z"/>
<path stroke="#000000" stroke-width="7" stroke-miterlimit="10" d="M516.874,344.231H320.145c-2.637-0.002-4.73-2.267-4.728-5.039
	c0.002-2.768,2.125-5.026,4.728-5.029h196.729c2.639,0.002,4.772,2.267,4.771,5.039
	C521.643,341.971,519.509,344.229,516.874,344.231z"/>
<path stroke="#000000" stroke-width="7" stroke-miterlimit="10" d="M345.685,321.698c-2.639,0-4.774-2.241-4.774-5.013l0,0v-23.841
	c-0.003-2.772,2.131-5.036,4.77-5.039c2.597-0.002,4.735,2.237,4.737,5.029c0,0.003,0,0.007,0,0.01v24.15
	C350.274,319.632,348.179,321.702,345.685,321.698z"/>
<path stroke="#000000" stroke-width="7" stroke-miterlimit="10" d="M394.212,321.698c-2.64,0-4.748-2.241-4.748-5.013l0,0v-49.153
	c0.005-2.773,2.113-5.032,4.753-5.029c2.635,0.002,4.725,2.261,4.727,5.029v49.153C398.943,319.457,396.851,321.698,394.212,321.698
	z"/>
<path stroke="#000000" stroke-width="7" stroke-miterlimit="10" d="M442.808,321.698c-2.597,0-4.733-2.241-4.733-5.013l0,0v-63.164
	c-0.002-2.771,2.132-5.036,4.729-5.039c2.638-0.002,4.777,2.257,4.779,5.029c0,0.003,0,0.007,0,0.01v63.164
	C447.582,319.457,445.444,321.698,442.808,321.698z"/>
<path stroke="#000000" stroke-width="7" stroke-miterlimit="10" d="M491.377,321.698c-2.64,0-4.775-2.241-4.775-5.013l0,0v-82.188
	c0-2.793,2.136-5.033,4.775-5.033c2.639,0,4.733,2.24,4.733,5.033v82.188C496.11,319.457,494.016,321.698,491.377,321.698z"/>
<path stroke="#000000" stroke-width="7" stroke-miterlimit="10" d="M516.874,379.756H320.145c-2.637-0.003-4.73-2.267-4.728-5.039
	c0.002-2.772,2.125-5.026,4.728-5.028h196.729c2.639,0.002,4.772,2.266,4.771,5.038
	C521.643,377.495,519.509,379.753,516.874,379.756z"/>
<path stroke="#000000" stroke-width="7" stroke-miterlimit="10" d="M578.383,646.835H223.787c-2.617,0-4.75-2.262-4.75-5.055
	c0-2.752,2.133-5.013,4.75-5.013h354.596c2.597,0,4.732,2.261,4.732,5.013C583.115,644.573,580.979,646.835,578.383,646.835
	L578.383,646.835z"/>
<path stroke="#000000" stroke-width="7" stroke-miterlimit="10" d="M588.813,701.856H236.007c-31.38,0-56.802-26.919-56.802-60.147
	c0-33.187,25.422-60.149,56.802-60.149h352.669c2.638-0.008,4.781,2.247,4.789,5.04c0.002,0.613-0.137,1.221-0.326,1.795
	c-13.1,33.711-13.312,71.55-0.517,105.392c0.617,0.89,0.969,1.959,0.964,3.016C593.587,699.594,591.449,701.856,588.813,701.856z
	 M236.007,591.627c-26.105,1.096-46.427,24.378-45.414,52.001c0.981,26.121,20.745,47.05,45.414,48.089h345.67
	c-10.929-32.351-10.929-67.696,0-100.09H236.007z"/>
</svg>
