<svg id="_96" data-name="96" xmlns="http://www.w3.org/2000/svg" viewBox="0 0 89.5 89.5"><title>Artboard 4</title><path d="M14.77,84.86a.65.65,0,0,1-.5-.23L4.38,73a.65.65,0,0,1-.16-.42V11.66A5.7,5.7,0,0,1,9.91,6h8.68a5.7,5.7,0,0,1,5.69,5.69V72.59a.64.64,0,0,1-.13.39L15.29,84.61a.65.65,0,0,1-.5.26ZM5.53,72.35l9.22,10.83L23,72.37V11.66a4.4,4.4,0,0,0-4.39-4.39H9.91a4.39,4.39,0,0,0-4.38,4.39Z"/><path d="M23.63,17.51H4.88a.65.65,0,1,1,0-1.3H23.63a.65.65,0,1,1,0,1.3Z"/><path d="M23.63,73.24H4.88a.65.65,0,1,1,0-1.3H23.63a.65.65,0,0,1,0,1.3Z"/><path d="M14.25,73.24a.65.65,0,0,1-.65-.65V16.86a.65.65,0,1,1,1.3,0V72.59A.65.65,0,0,1,14.25,73.24Z"/><path d="M26.84,77.74a.65.65,0,0,1-.65-.65l-.21-59a12.33,12.33,0,0,1,12.3-12.3h44a.65.65,0,0,1,.65.65V70a.65.65,0,1,1-1.3,0V7.05H38.28a11,11,0,0,0-11,11l.21,59a.65.65,0,0,1-.65.65Z"/><path d="M35.43,70.61a.65.65,0,0,1-.65-.65V6.76a.65.65,0,0,1,1.3,0V70A.65.65,0,0,1,35.43,70.61Z"/><path d="M72.42,38.64H45.51a.65.65,0,0,1,0-1.3H72.42a.65.65,0,0,1,0,1.3Z"/><path d="M49,35.73a.65.65,0,0,1-.65-.65V32a.65.65,0,1,1,1.3,0v3.12A.65.65,0,0,1,49,35.73Z"/><path d="M55.64,35.73a.65.65,0,0,1-.65-.65V28.73a.65.65,0,0,1,1.3,0v6.35A.65.65,0,0,1,55.64,35.73Z"/><path d="M62.29,35.73a.65.65,0,0,1-.65-.65V26.92a.65.65,0,1,1,1.3,0v8.16A.65.65,0,0,1,62.29,35.73Z"/><path d="M68.93,35.73a.65.65,0,0,1-.65-.65V24.46a.65.65,0,1,1,1.3,0V35.08A.65.65,0,0,1,68.93,35.73Z"/><path d="M72.42,43.23H45.51a.65.65,0,0,1,0-1.3H72.42a.65.65,0,0,1,0,1.3Z"/><path d="M80.83,77.74H32.33a.65.65,0,0,1,0-1.3h48.5a.65.65,0,0,1,0,1.3Z"/><path d="M82.26,84.85H34a7.77,7.77,0,0,1,0-15.54H82.24a.65.65,0,0,1,.61.88,18.12,18.12,0,0,0-.07,13.62.64.64,0,0,1,.13.39A.65.65,0,0,1,82.26,84.85ZM34,70.61a6.47,6.47,0,0,0,0,12.93H81.28a19.24,19.24,0,0,1,0-12.93Z"/></svg>