<svg id="_38" data-name="38" xmlns="http://www.w3.org/2000/svg" viewBox="0 0 87.53 75.6"><title>Artboard 9</title><path d="M71.48,72.08H11.74A9.72,9.72,0,0,1,2,62.37V16a9.72,9.72,0,0,1,9.7-9.71h3.92A.65.65,0,0,1,16.3,7V9.12a3,3,0,1,0,6.08,0V7A.65.65,0,0,1,23,6.32H60.18a.65.65,0,0,1,.65.65V9.12a3,3,0,0,0,6.09,0V7a.65.65,0,0,1,.65-.65h3.91A9.72,9.72,0,0,1,81.18,16V62.37A9.72,9.72,0,0,1,71.48,72.08ZM11.74,7.62A8.41,8.41,0,0,0,3.33,16V62.37a8.41,8.41,0,0,0,8.4,8.41H71.48a8.41,8.41,0,0,0,8.4-8.41V16a8.41,8.41,0,0,0-8.4-8.4H68.22v1.5a4.34,4.34,0,0,1-8.69,0V7.62H23.68v1.5a4.34,4.34,0,1,1-8.68,0V7.62Z"/><path d="M80.53,21H2.68a.65.65,0,0,1,0-1.3H80.53a.65.65,0,0,1,0,1.3Z"/><path d="M70.94,36.2a2.15,2.15,0,0,1-1.55-.65l-4.33-4.33a2.19,2.19,0,0,1,0-3.09L69.4,23.8a2.24,2.24,0,0,1,3.09,0l4.34,4.34a2.19,2.19,0,0,1,0,3.09l-4.34,4.33A2.15,2.15,0,0,1,70.94,36.2Zm0-11.75a.87.87,0,0,0-.62.26L66,29.06a.89.89,0,0,0,0,1.25l4.33,4.33a.89.89,0,0,0,1.25,0l4.35-4.33a.88.88,0,0,0,.26-.63.87.87,0,0,0-.26-.62l-4.34-4.34A.87.87,0,0,0,70.94,24.46Z"/><path d="M56.34,63.48h0a5.82,5.82,0,1,1,5.82-5.82A5.82,5.82,0,0,1,56.33,63.48Zm0-10.34a4.52,4.52,0,1,0,0,9h0a4.52,4.52,0,0,0,0-9Z"/><path d="M56.33,36.2a2.15,2.15,0,0,1-1.54-.65l-4.34-4.33a2.19,2.19,0,0,1,0-3.09l4.34-4.34a2.23,2.23,0,0,1,3.08,0l4.34,4.34a2.19,2.19,0,0,1,0,3.09l-4.34,4.33A2.15,2.15,0,0,1,56.33,36.2Zm0-11.75a.87.87,0,0,0-.62.26l-4.34,4.34a.87.87,0,0,0-.26.62.88.88,0,0,0,.26.63l4.34,4.33a.88.88,0,0,0,1.24,0l4.35-4.33a.89.89,0,0,0,0-1.25L57,24.72A.87.87,0,0,0,56.33,24.46Z"/><path d="M70.94,50.19a2.17,2.17,0,0,1-1.54-.63l-4.34-4.34a2.19,2.19,0,0,1,0-3.09l4.33-4.34a2.24,2.24,0,0,1,3.09,0l4.34,4.34a2.19,2.19,0,0,1,0,3.09l-4.34,4.34A2.19,2.19,0,0,1,70.94,50.19Zm0-11.74a.87.87,0,0,0-.62.26L66,43a.89.89,0,0,0,0,1.25l4.33,4.34a.92.92,0,0,0,1.25,0l4.34-4.34a.88.88,0,0,0,0-1.25l-4.34-4.34A.88.88,0,0,0,70.94,38.45Z"/><path d="M41.72,36.2a2.16,2.16,0,0,1-1.55-.65l-4.34-4.33a2.19,2.19,0,0,1,0-3.09l4.34-4.34a2.24,2.24,0,0,1,3.09,0l4.33,4.34a2.19,2.19,0,0,1,0,3.09l-4.33,4.33A2.16,2.16,0,0,1,41.72,36.2Zm0-11.75a.88.88,0,0,0-.62.26l-4.34,4.34a.87.87,0,0,0-.26.62.88.88,0,0,0,.26.63l4.34,4.33a.89.89,0,0,0,1.25,0l4.33-4.33a.89.89,0,0,0,0-1.25l-4.33-4.34A.88.88,0,0,0,41.72,24.46Z"/><path d="M27.1,36.2a2.15,2.15,0,0,1-1.55-.65l-4.33-4.33a2.19,2.19,0,0,1,0-3.09l4.33-4.34a2.24,2.24,0,0,1,3.09,0L33,28.14a2.19,2.19,0,0,1,0,3.09l-4.34,4.33A2.16,2.16,0,0,1,27.1,36.2Zm0-11.75a.87.87,0,0,0-.62.26l-4.33,4.34a.89.89,0,0,0,0,1.25l4.33,4.33a.89.89,0,0,0,1.25,0l4.35-4.33a.89.89,0,0,0,0-1.25l-4.34-4.34A.87.87,0,0,0,27.1,24.46Z"/><path d="M12.49,36.2a2.16,2.16,0,0,1-1.54-.65L6.61,31.23a2.19,2.19,0,0,1,0-3.09L11,23.8a2.23,2.23,0,0,1,3.08,0l4.34,4.34a2.19,2.19,0,0,1,0,3.09L14,35.56A2.15,2.15,0,0,1,12.49,36.2Zm0-11.75a.88.88,0,0,0-.62.26L7.53,29.06a.87.87,0,0,0-.26.62.88.88,0,0,0,.26.63l4.34,4.33a.88.88,0,0,0,1.24,0l4.35-4.33a.89.89,0,0,0,0-1.25l-4.34-4.34A.87.87,0,0,0,12.49,24.46Z"/><path d="M56.33,50.19a2.18,2.18,0,0,1-1.54-.63l-4.34-4.34a2.19,2.19,0,0,1,0-3.09l4.34-4.34a2.24,2.24,0,0,1,3.08,0l4.34,4.34a2.19,2.19,0,0,1,0,3.09l-4.34,4.34A2.18,2.18,0,0,1,56.33,50.19Zm0-11.74a.87.87,0,0,0-.62.26L51.37,43a.89.89,0,0,0,0,1.25l4.34,4.34a.92.92,0,0,0,1.25,0l4.34-4.34a.9.9,0,0,0,0-1.25L57,38.71A.87.87,0,0,0,56.33,38.45Z"/><path d="M41.72,50.19a2.18,2.18,0,0,1-1.54-.63l-4.34-4.34a2.19,2.19,0,0,1,0-3.09l4.34-4.34a2.25,2.25,0,0,1,3.09,0l4.33,4.34a2.19,2.19,0,0,1,0,3.09l-4.33,4.34A2.18,2.18,0,0,1,41.72,50.19Zm0-11.74a.88.88,0,0,0-.62.26L36.75,43a.89.89,0,0,0,0,1.25l4.34,4.34a.93.93,0,0,0,1.25,0l4.33-4.34a.89.89,0,0,0,0-1.25l-4.33-4.34A.88.88,0,0,0,41.72,38.45Z"/><path d="M27.1,50.19a2.17,2.17,0,0,1-1.54-.63l-4.34-4.34a2.19,2.19,0,0,1,0-3.09l4.33-4.34a2.24,2.24,0,0,1,3.09,0L33,42.13a2.19,2.19,0,0,1,0,3.09l-4.34,4.34A2.18,2.18,0,0,1,27.1,50.19Zm0-11.74a.88.88,0,0,0-.62.26L22.15,43a.89.89,0,0,0,0,1.25l4.33,4.34a.93.93,0,0,0,1.25,0l4.34-4.34a.89.89,0,0,0,0-1.25l-4.34-4.34A.88.88,0,0,0,27.1,38.45Z"/><path d="M12.49,50.19A2.18,2.18,0,0,1,11,49.57L6.61,45.22a2.19,2.19,0,0,1,0-3.09L11,37.79a2.23,2.23,0,0,1,3.08,0l4.34,4.34a2.19,2.19,0,0,1,0,3.09L14,49.56A2.18,2.18,0,0,1,12.49,50.19Zm0-11.74a.88.88,0,0,0-.62.26L7.53,43a.88.88,0,0,0,0,1.25l4.34,4.34a.92.92,0,0,0,1.25,0l4.34-4.34a.89.89,0,0,0,0-1.25l-4.34-4.34A.87.87,0,0,0,12.49,38.45Z"/><path d="M12.49,64.19A2.18,2.18,0,0,1,11,63.56L6.61,59.21a2.18,2.18,0,0,1,0-3.09L11,51.78a2.23,2.23,0,0,1,3.08,0l4.34,4.34a2.19,2.19,0,0,1,0,3.09L14,63.56A2.17,2.17,0,0,1,12.49,64.19Zm0-11.75a.88.88,0,0,0-.62.26L7.53,57a.88.88,0,0,0,0,1.25l4.34,4.34a.91.91,0,0,0,1.25,0l4.34-4.34a.89.89,0,0,0,0-1.25L13.11,52.7A.87.87,0,0,0,12.49,52.44Z"/><path d="M19.34,13.47A4.35,4.35,0,0,1,15,9.12V4.34a4.34,4.34,0,0,1,8.68,0V9.12A4.35,4.35,0,0,1,19.34,13.47Zm0-12.17a3,3,0,0,0-3,3V9.12a3,3,0,1,0,6.08,0V4.34A3,3,0,0,0,19.34,1.3Z"/><path d="M63.88,13.47a4.35,4.35,0,0,1-4.35-4.34V4.34a4.34,4.34,0,0,1,8.69,0V9.12A4.35,4.35,0,0,1,63.88,13.47Zm0-12.17a3,3,0,0,0-3,3V9.12a3,3,0,0,0,6.09,0V4.34A3,3,0,0,0,63.88,1.3Z"/><path d="M27.1,64.19a2.17,2.17,0,0,1-1.54-.64l-4.33-4.34a2.19,2.19,0,0,1,0-3.09l4.33-4.34a2.24,2.24,0,0,1,3.09,0L33,56.12a2.19,2.19,0,0,1,0,3.09l-4.34,4.34A2.18,2.18,0,0,1,27.1,64.19Zm0-11.75a.88.88,0,0,0-.62.26L22.15,57a.89.89,0,0,0,0,1.25l4.33,4.34a.92.92,0,0,0,1.25,0l4.34-4.34a.89.89,0,0,0,0-1.25L27.73,52.7A.88.88,0,0,0,27.1,52.44Z"/><path d="M41.72,64.19a2.17,2.17,0,0,1-1.54-.63l-4.34-4.34a2.19,2.19,0,0,1,0-3.09l4.34-4.34a2.25,2.25,0,0,1,3.09,0l4.33,4.34a2.19,2.19,0,0,1,0,3.09l-4.33,4.34A2.17,2.17,0,0,1,41.72,64.19Zm0-11.75a.88.88,0,0,0-.62.26L36.75,57a.89.89,0,0,0,0,1.25l4.34,4.34a.92.92,0,0,0,1.25,0l4.33-4.34a.89.89,0,0,0,0-1.25L42.35,52.7A.88.88,0,0,0,41.72,52.44Z"/><path d="M70.94,64.19a2.17,2.17,0,0,1-1.54-.64l-4.33-4.34a2.19,2.19,0,0,1,0-3.09l4.33-4.34a2.24,2.24,0,0,1,3.09,0l4.34,4.34a2.18,2.18,0,0,1,0,3.09l-4.34,4.34A2.18,2.18,0,0,1,70.94,64.19Zm0-11.75a.87.87,0,0,0-.62.26L66,57a.89.89,0,0,0,0,1.25l4.33,4.34a.91.91,0,0,0,1.25,0l4.34-4.34a.88.88,0,0,0,0-1.25L71.57,52.7A.88.88,0,0,0,70.94,52.44Z"/></svg>