<svg id="_38" data-name="38" xmlns="http://www.w3.org/2000/svg" viewBox="0 0 79.15 100"><title>Artboard 3</title><path d="M70.48,93.9H8.66A.65.65,0,0,1,8,93.25V15.4a.65.65,0,0,1,.65-.65H57.39a.65.65,0,0,1,.46.19L70.94,28a.65.65,0,0,1,.19.46V93.25A.65.65,0,0,1,70.48,93.9ZM9.31,92.6H69.83V28.77L57.12,16.05H9.31Z"/><path d="M69.18,29.15H57.39a.65.65,0,0,1-.65-.65V16.15a.65.65,0,1,1,1.3,0v11.7H69.18a.65.65,0,0,1,0,1.3Z"/><path d="M51.48,32H29.54a.65.65,0,0,1,0-1.3H51.48a.65.65,0,0,1,0,1.3Z"/><path d="M64,41.21H29.54a.65.65,0,0,1,0-1.3H64a.65.65,0,0,1,0,1.3Z"/><path d="M64,50.38H29.54a.65.65,0,0,1,0-1.3H64a.65.65,0,0,1,0,1.3Z"/><path d="M64,59.56H29.54a.65.65,0,0,1,0-1.3H64a.65.65,0,0,1,0,1.3Z"/><path d="M64,68.74H29.54a.65.65,0,0,1,0-1.3H64a.65.65,0,0,1,0,1.3Z"/><path d="M64,77.92H29.54a.65.65,0,0,1,0-1.3H64a.65.65,0,0,1,0,1.3Z"/><path d="M64,87.09H29.54a.65.65,0,0,1,0-1.3H64a.65.65,0,0,1,0,1.3Z"/><path d="M51.48,22.85H29.54a.65.65,0,0,1,0-1.3H51.48a.65.65,0,0,1,0,1.3Z"/><path d="M24.34,32H15.16a.65.65,0,0,1-.65-.65V22.2a.65.65,0,0,1,.65-.65h9.18a.65.65,0,0,1,.65.65v9.18A.65.65,0,0,1,24.34,32Zm-8.53-1.3h7.88V22.85H15.81Z"/><path d="M24.34,50.38H15.16a.65.65,0,0,1-.65-.65V40.56a.65.65,0,0,1,.65-.65h9.18a.65.65,0,0,1,.65.65v9.17A.65.65,0,0,1,24.34,50.38Zm-8.53-1.3h7.88V41.21H15.81Z"/><path d="M24.34,68.74H15.16a.65.65,0,0,1-.65-.65V58.91a.65.65,0,0,1,.65-.65h9.18a.65.65,0,0,1,.65.65v9.18A.65.65,0,0,1,24.34,68.74Zm-8.53-1.3h7.88V59.56H15.81Z"/><path d="M24.34,87.09H15.16a.65.65,0,0,1-.65-.65V77.27a.65.65,0,0,1,.65-.65h9.18a.65.65,0,0,1,.65.65v9.17A.65.65,0,0,1,24.34,87.09Zm-8.53-1.3h7.88V77.92H15.81Z"/></svg>