<?xml version="1.0" encoding="UTF-8" standalone="no"?><!-- Generator: Gravit.io --><svg xmlns="http://www.w3.org/2000/svg" xmlns:xlink="http://www.w3.org/1999/xlink" style="isolation:isolate" viewBox="0 0 427 338" width="427pt" height="338pt"><defs><clipPath id="_clipPath_L8pc4bYh6m7Bop2Kqyp63STKBAI2xFWV"><rect width="427" height="338"/></clipPath></defs><g clip-path="url(#_clipPath_L8pc4bYh6m7Bop2Kqyp63STKBAI2xFWV)"><ellipse vector-effect="non-scaling-stroke" cx="210.49124611860137" cy="169.00000000000003" rx="180.5087538813985" ry="169" fill="rgb(248,252,251)"/><linearGradient id="_lgradient_3" x1="0.23657450726881157" y1="0.5213365921615976" x2="1.0008501595872041" y2="0.06167232752852991" gradientTransform="matrix(77.033,0,0,81.9,110.204,173.624)" gradientUnits="userSpaceOnUse"><stop offset="0%" stop-opacity="0" style="stop-color:rgb(255,255,255)"/><stop offset="25%" stop-opacity="0.25" style="stop-color:rgb(253,254,254)"/><stop offset="39%" stop-opacity="0.39" style="stop-color:rgb(244,252,252)"/><stop offset="51%" stop-opacity="0.51" style="stop-color:rgb(230,249,247)"/><stop offset="61%" stop-opacity="0.61" style="stop-color:rgb(211,243,241)"/><stop offset="70%" stop-opacity="0.7" style="stop-color:rgb(185,237,233)"/><stop offset="79%" stop-opacity="0.79" style="stop-color:rgb(153,229,224)"/><stop offset="87%" stop-opacity="0.87" style="stop-color:rgb(116,219,212)"/><stop offset="94%" stop-opacity="0.94" style="stop-color:rgb(73,208,199)"/><stop offset="100%" stop-opacity="1" style="stop-color:rgb(32,197,186)"/></linearGradient><path d=" M 122.491 182.292 C 125.052 180.132 127.958 178.437 131.081 177.281 C 143.68 172.73 166.855 168.992 176.489 188.302 C 178.947 186.296 180.165 179.287 180.165 179.287 C 180.165 179.287 203.485 202.334 165.435 230.354 C 127.384 258.374 116.337 255.436 116.337 255.436 L 110.204 243.409 C 110.204 243.409 120.585 239.013 127.384 234.395 C 134.67 229.436 143.166 222.553 143.332 222.376 C 147.5 218.971 151.748 214.642 154.38 210.349 C 156.837 206.345 160.512 199.329 160.512 196.287 C 160.512 193.245 158.055 189.271 155.605 187.273 C 153.155 185.275 153.162 181.285 122.491 182.292 Z " fill="url(#_lgradient_3)"/><radialGradient id="_rgradient_1" fx="0.4671459743586417" fy="0.3909167467025359" cx="0.4671459743586417" cy="0.3909167467025359" r="1" gradientTransform="matrix(205.722,0,0,220.763,53,32)" gradientUnits="userSpaceOnUse"><stop offset="0%" stop-opacity="1" style="stop-color:rgb(32,197,186)"/><stop offset="35%" stop-opacity="1" style="stop-color:rgb(32,194,183)"/><stop offset="60%" stop-opacity="1" style="stop-color:rgb(30,185,174)"/><stop offset="82%" stop-opacity="1" style="stop-color:rgb(27,169,160)"/><stop offset="96%" stop-opacity="1" style="stop-color:rgb(25,154,145)"/></radialGradient><path d=" M 255.033 75.089 C 252.575 115.165 213.3 132.195 203.485 136.206 C 182.847 142.83 161.948 149.15 142.122 157.247 C 127.392 163.257 131.074 166.261 129.849 169.274 C 113.372 173.714 117.576 186.296 120.027 184.298 C 122.853 182.037 126.254 180.648 129.827 180.294 C 138.787 179.072 144.92 180.486 149.458 182.299 C 155.619 184.749 159.374 188.96 160.505 193.319 C 162.187 199.773 159.28 206.345 159.28 206.345 C 158.505 208.092 156.844 209.824 155.656 211.378 C 147.718 221.465 137.482 230.835 124.956 237.407 C 111.183 244.623 95.474 253.393 78.214 252.727 C 58.359 251.987 53.872 232.382 53.133 219.852 C 51.393 190.648 67.014 159.778 85.789 135.214 C 126.442 82.068 191.973 53.463 229.618 40.578 C 247.218 34.568 258.722 32 258.722 32 C 258.722 32.984 258.722 33.954 258.722 34.916 C 258.063 84.739 209.69 101.133 213.3 101.133 C 228.037 99.127 250.125 79.093 255.033 75.089 Z " fill="url(#_rgradient_1)"/><path d=" M 143.854 163.915 C 143.854 163.915 138.439 165.255 137.018 165.632 C 135.851 165.936 137.917 166.846 137.917 166.846 C 137.917 166.846 140.288 167.32 143.854 163.915 Z " fill="rgb(32,197,186)"/><linearGradient id="_lgradient_4" x1="0.18999155378503285" y1="0.015018465326220629" x2="1.2500488420132467" y2="0.9260221045716829" gradientTransform="matrix(160.783,0,0,90.181,97.932,32)" gradientUnits="userSpaceOnUse"><stop offset="30%" stop-opacity="0" style="stop-color:rgb(32,197,186)"/><stop offset="32%" stop-opacity="0.04" style="stop-color:rgb(49,201,191)"/><stop offset="41%" stop-opacity="0.18" style="stop-color:rgb(103,215,208)"/><stop offset="50%" stop-opacity="0.32" style="stop-color:rgb(150,228,222)"/><stop offset="59%" stop-opacity="0.46" style="stop-color:rgb(188,237,234)"/><stop offset="67%" stop-opacity="0.6" style="stop-color:rgb(217,245,243)"/><stop offset="76%" stop-opacity="0.74" style="stop-color:rgb(238,251,250)"/><stop offset="84%" stop-opacity="0.87" style="stop-color:rgb(251,254,254)"/><stop offset="92%" stop-opacity="1" style="stop-color:rgb(255,255,255)"/></linearGradient><path d=" M 258.708 32 C 258.708 32 262.39 73.083 97.932 122.181 C 97.932 122.181 121.36 90.549 177.671 62.063 C 199.694 50.947 225.66 39.875 258.708 32 Z " fill="url(#_lgradient_4)"/><linearGradient id="_lgradient_5" x1="0.20406115230256539" y1="0.0681623060610499" x2="1.2359961053512771" y2="0.9550598761817551" gradientTransform="matrix(108.258,0,0,65.147,146.779,75.089)" gradientUnits="userSpaceOnUse"><stop offset="30%" stop-opacity="0" style="stop-color:rgb(32,197,186)"/><stop offset="31%" stop-opacity="0.02" style="stop-color:rgb(40,199,189)"/><stop offset="40%" stop-opacity="0.17" style="stop-color:rgb(97,214,206)"/><stop offset="50%" stop-opacity="0.32" style="stop-color:rgb(145,226,221)"/><stop offset="59%" stop-opacity="0.46" style="stop-color:rgb(185,237,233)"/><stop offset="68%" stop-opacity="0.61" style="stop-color:rgb(215,245,243)"/><stop offset="76%" stop-opacity="0.75" style="stop-color:rgb(237,250,250)"/><stop offset="85%" stop-opacity="0.88" style="stop-color:rgb(251,254,254)"/><stop offset="92%" stop-opacity="1" style="stop-color:rgb(255,255,255)"/></linearGradient><path d=" M 255.033 75.089 C 255.033 75.089 257.49 110.154 147.022 140.217 C 142.114 141.224 213.293 101.14 213.293 101.14 C 215.605 100.785 221.564 99.386 230.69 93.68 C 239.491 88.248 251.357 78.086 255.033 75.089 Z " fill="url(#_lgradient_5)"/><path d=" M 184.195 215.915 L 443 198.892 L 443 331 L 184.195 331 L 184.195 215.915 L 184.195 215.915 Z " fill="none"/><path d=" M 202.035 241.973 L 202.035 250.455 L 198.193 250.455 Q 192.611 250.455 190.328 246.414 Q 188.602 243.328 188.595 237.007 C 188.595 236.008 188.595 234.787 188.682 233.44 C 188.955 226.622 189.72 219.834 190.973 213.132 L 198.164 215.411 C 196.885 221.118 196.051 226.918 195.67 232.759 C 195.591 234.358 195.554 235.564 195.554 236.386 Q 195.554 239.502 196.344 240.671 Q 197.193 241.996 199.541 241.988 L 202.035 241.988 L 202.035 241.973 Z " fill="rgb(83,157,150)"/><path d=" M 219.382 250.455 L 200.194 250.455 L 200.194 241.973 L 219.382 241.973 L 219.382 250.455 Z " fill="rgb(83,157,150)"/><path d=" M 236.577 250.455 L 217.388 250.455 L 217.388 241.973 L 236.577 241.973 L 236.577 250.455 Z " fill="rgb(83,157,150)"/><path d=" M 251.981 250.455 C 251.128 250.495 250.298 250.17 249.69 249.56 C 249.278 249.085 248.958 248.535 248.748 247.939 C 248.516 247.339 248.32 247.043 248.161 247.043 C 247.538 247.574 246.95 248.145 246.399 248.753 C 245.573 249.748 244.39 250.364 243.115 250.462 L 235.018 250.462 L 235.018 241.981 L 241.97 241.981 Q 245.877 241.981 248.864 233.174 L 254.967 236.082 C 254.625 236.882 254.208 237.645 253.721 238.362 C 253.128 239.166 252.721 240.097 252.532 241.085 C 252.532 241.685 252.952 241.981 253.793 241.981 L 259.723 241.981 L 259.723 250.462 L 251.981 250.462 L 251.981 250.455 Z  M 238.208 264.517 L 238.208 256.746 L 245.747 256.746 L 245.747 264.502 L 238.208 264.517 Z  M 248.008 264.517 L 248.008 256.746 L 255.555 256.746 L 255.555 264.502 L 248.008 264.517 Z " fill="rgb(83,157,150)"/><path d=" M 263.362 250.455 L 258.635 250.455 L 258.635 241.973 L 264.181 241.973 C 265.128 242.023 266.078 241.933 267.001 241.707 C 268.059 241.285 268.588 240.382 268.588 238.983 C 268.489 236.529 267.836 234.13 266.682 231.975 L 273.815 229.066 C 274.305 231.065 274.549 233.119 274.54 235.179 Q 274.54 241.796 271.93 245.874 C 270.072 248.844 266.811 250.587 263.362 250.455 L 263.362 250.455 Z  M 263.891 223.937 L 263.891 216.181 L 271.43 216.181 L 271.43 223.937 L 263.891 223.937 Z " fill="rgb(83,157,150)"/><path d=" M 303.007 241.973 L 303.007 250.455 L 301.274 250.455 C 299.476 250.455 298.143 250.137 297.287 249.5 Q 297.287 258.67 292.09 264.835 C 288.924 268.453 284.812 271.072 280.238 272.384 L 280.238 263.932 Q 291.655 260.002 291.655 251.232 C 291.593 249.057 291.1 246.917 290.205 244.941 C 289.377 242.905 288.226 241.022 286.798 239.368 L 293.634 235.742 C 293.866 235.905 294.359 237.037 295.221 239.154 C 295.946 241.034 296.715 241.973 297.541 241.973 L 302.992 241.973 L 303.007 241.973 Z " fill="rgb(83,157,150)"/><path d=" M 320.644 250.455 L 301.455 250.455 L 301.455 241.973 L 320.644 241.973 L 320.644 250.455 Z " fill="rgb(83,157,150)"/><path d=" M 337.838 250.455 L 318.65 250.455 L 318.65 241.973 L 337.838 241.973 L 337.838 250.455 Z " fill="rgb(83,157,150)"/><path d=" M 350.336 234.846 C 350.432 238.698 349.333 242.483 347.197 245.659 Q 343.884 250.455 338.947 250.455 L 336.28 250.455 L 336.28 241.973 L 339.179 241.973 Q 343.529 241.973 343.529 236.852 C 343.564 229.676 343.133 222.506 342.238 215.389 L 349.372 213.11 Q 350.328 227.749 350.336 234.846 Z " fill="rgb(83,157,150)"/></g></svg>