<svg id="_96" data-name="96" xmlns="http://www.w3.org/2000/svg" viewBox="0 0 74.6 85.5"><title>Artboard 2</title><path d="M37.36,81.36A34.78,34.78,0,1,1,72.14,46.57,34.83,34.83,0,0,1,37.36,81.36Zm0-68.27A33.48,33.48,0,1,0,70.84,46.57,33.52,33.52,0,0,0,37.36,13.09Z"/><path d="M37.36,78.3A31.73,31.73,0,1,1,69.08,46.57,31.76,31.76,0,0,1,37.36,78.3Zm0-62.15A30.42,30.42,0,1,0,67.78,46.57,30.46,30.46,0,0,0,37.36,16.15Z"/><path d="M37.11,23.68a.65.65,0,0,1-.65-.65V16.91a.65.65,0,1,1,1.3,0V23A.65.65,0,0,1,37.11,23.68Z"/><path d="M48.92,26.71a.64.64,0,0,1-.32-.09.65.65,0,0,1-.24-.89l3.06-5.29a.65.65,0,1,1,1.12.65l-3.06,5.29A.65.65,0,0,1,48.92,26.71Z"/><path d="M57.63,35.25A.65.65,0,0,1,57.3,34L62.6,31a.65.65,0,0,1,.65,1.13L58,35.16A.64.64,0,0,1,57.63,35.25Z"/><path d="M67,47H60.9a.65.65,0,0,1,0-1.3H67A.65.65,0,1,1,67,47Z"/><path d="M63.16,61.85a.64.64,0,0,1-.32-.09L57.54,58.7a.65.65,0,0,1,.65-1.12l5.29,3.06a.65.65,0,0,1-.33,1.21Z"/><path d="M52.39,72.8a.65.65,0,0,1-.56-.33l-3.06-5.29a.65.65,0,0,1,1.12-.65L53,71.82a.65.65,0,0,1-.24.89A.64.64,0,0,1,52.39,72.8Z"/><path d="M37.59,76.9a.65.65,0,0,1-.65-.65V70.12a.65.65,0,1,1,1.3,0v6.12A.65.65,0,0,1,37.59,76.9Z"/><path d="M22.72,73a.65.65,0,0,1-.56-1l3.06-5.3a.65.65,0,1,1,1.12.65l-3.06,5.3A.65.65,0,0,1,22.72,73Z"/><path d="M11.78,62.27a.65.65,0,0,1-.33-1.21L16.75,58a.65.65,0,0,1,.65,1.13l-5.29,3.06A.64.64,0,0,1,11.78,62.27Z"/><path d="M13.81,47.47H7.69a.65.65,0,0,1,0-1.3h6.12a.65.65,0,0,1,0,1.3Z"/><path d="M16.84,35.66a.65.65,0,0,1-.32-.09l-5.3-3.05a.65.65,0,0,1,.65-1.13l5.3,3.05a.65.65,0,0,1-.33,1.21Z"/><path d="M25.37,27a.65.65,0,0,1-.56-.33l-3.06-5.3a.65.65,0,0,1,1.12-.65L25.94,26a.65.65,0,0,1-.24.89A.64.64,0,0,1,25.37,27Z"/><path d="M39.29,13.09H35.41a.65.65,0,0,1-.65-.65V5.14a.65.65,0,0,1,.65-.65h3.88a.65.65,0,0,1,.65.65v7.3A.65.65,0,0,1,39.29,13.09Zm-3.23-1.3h2.58v-6H36.06Z"/><path d="M42.65,5.79H32.06a.65.65,0,0,1-.65-.65V2.9a.65.65,0,0,1,.65-.65H42.65a.65.65,0,0,1,.65.65V5.14A.65.65,0,0,1,42.65,5.79Zm-9.94-1.3H42V3.55H32.71Z"/><path d="M50.39,47.22h-13a.65.65,0,0,1-.53-.27L26.55,32.56a.65.65,0,1,1,1.06-.76L37.69,45.92h12.7a.65.65,0,0,1,0,1.3Z"/><path d="M57.25,19.44h-.06a.65.65,0,0,1-.38-.12,34.2,34.2,0,0,0-4.15-2.54.65.65,0,0,1-.35-.58V12.66A.65.65,0,0,1,53,12h4.29a.65.65,0,0,1,.65.65v6.13A.65.65,0,0,1,57.25,19.44Zm-3.64-3.63c1,.54,2,1.14,3,1.79V13.31h-3Z"/></svg>