<?xml version="1.0" encoding="utf-8"?>
<!-- Generator: Adobe Illustrator 16.0.0, SVG Export Plug-In . SVG Version: 6.00 Build 0)  -->
<!DOCTYPE svg PUBLIC "-//W3C//DTD SVG 1.1//EN" "http://www.w3.org/Graphics/SVG/1.1/DTD/svg11.dtd">
<svg version="1.1" xmlns="http://www.w3.org/2000/svg" xmlns:xlink="http://www.w3.org/1999/xlink" x="0px" y="0px" width="500px"
	 height="500px" viewBox="0 0 500 500" enable-background="new 0 0 500 500" xml:space="preserve">
<g id="Floor">
	<path id="Floor_6_" fill="#F5F5F5" d="M404.118,257.815c87.885,50.741,87.885,133.008-0.001,183.75
		c-87.887,50.741-230.377,50.741-318.263,0c-87.885-50.741-87.885-133.008,0.001-183.749
		C173.741,207.075,316.232,207.075,404.118,257.815z"/>
</g>
<g id="Shadows">
	<path id="Shadow_11_" fill="#E0E0E0" d="M312.766,380.347c16.159,9.33,16.159,24.456,0,33.786c-16.16,9.33-42.359,9.33-58.519,0
		s-16.159-24.456,0-33.785S296.606,371.018,312.766,380.347z"/>
	<path id="Shadow_28_" fill="#E0E0E0" d="M420.418,366.201c16.159,9.33,16.159,24.456,0,33.785c-16.16,9.33-42.359,9.33-58.519,0
		c-16.159-9.329-16.159-24.456,0.001-33.785C378.06,356.872,404.259,356.872,420.418,366.201z"/>
	<path id="Shadow_29_" fill="#E0E0E0" d="M194.08,416.168c16.159,9.33,16.159,24.456,0,33.785c-16.159,9.33-42.358,9.33-58.518,0
		c-16.159-9.33-16.159-24.456,0-33.786C151.721,406.839,177.92,406.839,194.08,416.168z"/>
</g>
<g id="Plants">
	<g id="Plants_1_">
		<g id="XMLID_3168_">
			<path id="XMLID_3172_" fill="#37474F" d="M96.982,354.5c0,0-1.085-25.262-11.671-39.316
				c-10.585-14.054-23.572-16.082-30.015-12.125c-4.695,2.883-4.062,11.44,4.066,17.033c8.128,5.593,23.797,19.812,26.245,29.103
				L96.982,354.5z"/>
			<g id="XMLID_3169_">
				<path id="XMLID_3170_" fill="#FFFFFF" d="M90.032,350.818c-0.356-0.022-0.631-0.327-0.614-0.685
					c1.088-22.919-19.024-37.211-24.471-39.784c-0.328-0.155-0.467-0.546-0.313-0.873c0.155-0.329,0.546-0.463,0.872-0.313
					c5.613,2.652,26.342,17.386,25.221,41.031c-0.018,0.362-0.325,0.642-0.685,0.624C90.042,350.819,90.035,350.819,90.032,350.818z
					"/>
			</g>
		</g>
		<g id="XMLID_3162_">
			<path id="XMLID_3167_" fill="#455A64" d="M91.952,346.523c-1.472-0.211-2.896-0.472-3.863-1.539
				c-1.233-1.358-1.128-3.423-1.696-5.168c-0.93-2.859-3.751-4.797-6.693-5.411c-2.943-0.615-6.001-0.11-8.921,0.606
				c-5.898,1.448-11.568-2.183-17.48-1.753c-2.111,0.153-4.255,0.655-5.986,1.873c-1.73,1.218-2.984,3.25-2.865,5.363
				c0.1,1.762,1.123,3.37,2.436,4.55c1.313,1.18,2.905,1.995,4.478,2.797c1.729,0.881,3.458,1.763,5.186,2.644
				c0.857,0.437,1.729,0.885,2.411,1.564c1.282,1.278,2.171,3.75,1.813,5.525c-0.4,1.979-2.023,3.524-2.506,5.484
				c-0.633,2.574,0.939,5.322,3.196,6.713s5.037,1.653,7.683,1.5s5.266-0.683,7.916-0.729c1.786-0.032,3.646,0.18,5.164,1.122
				c1.851,1.149,2.928,3.216,3.627,5.279c0.45,1.327,0.796,2.725,1.623,3.857c0.856,1.172,2.16,1.951,3.523,2.45
				c2.613,0.956,5.65,0.985,8.258-0.015c2.187-0.838,3.256-3.309,4.072-5.447c0.82-2.146,1.209-4.708,1.151-6.985
				c-0.151-5.95-1.491-12.37-4.068-17.74c-1.23-2.564-3.018-5.123-5.72-6.01C93.826,346.771,92.88,346.657,91.952,346.523z"/>
			<g id="XMLID_3165_">
				<path id="XMLID_3166_" fill="#FFFFFF" d="M97.681,373.989c-0.242,0-0.467-0.151-0.551-0.391
					c-6.165-17.687-35.363-33.082-46.039-34.846c-0.318-0.052-0.534-0.352-0.481-0.67c0.052-0.319,0.36-0.536,0.67-0.481
					c10.88,1.797,40.648,17.526,46.951,35.612c0.107,0.305-0.053,0.638-0.358,0.744C97.81,373.979,97.745,373.989,97.681,373.989z"
					/>
			</g>
			<g id="XMLID_3163_">
				<path id="XMLID_3164_" fill="#FFFFFF" d="M71.444,364.305c-0.175,0-0.348-0.079-0.463-0.228
					c-0.196-0.255-0.148-0.623,0.107-0.819c0.266-0.204,6.609-4.994,16.217-5.21h0.012c0.317,0,0.577,0.253,0.584,0.571
					c0.007,0.322-0.249,0.59-0.571,0.597c-9.229,0.206-15.469,4.92-15.531,4.968C71.694,364.265,71.568,364.305,71.444,364.305z"/>
			</g>
		</g>
	</g>
</g>
<g id="Window">
	<g id="XMLID_3538_">
		<g id="XMLID_4068_">
			<path id="XMLID_4261_" fill="#455A64" d="M97.988,387.679c-1.168-0.675-2.116-2.388-2.116-3.826l-0.001-208.397
				c0-1.438,1.01-3.188,2.256-3.907l245.17-141.54c1.246-0.719,3.203-0.755,4.372-0.081s2.116,2.388,2.116,3.826l0.001,208.397
				c0,1.438-1.01,3.188-2.256,3.907l-245.172,141.54C101.113,388.318,99.156,388.354,97.988,387.679z"/>
			<path id="XMLID_4259_" fill="#27DEBF" d="M101.93,387.794c-0.031,0.01-0.063,0.031-0.094,0.031
				c-0.073,0.042-0.146,0.063-0.219,0.083c-0.052,0.021-0.104,0.042-0.167,0.052c-0.094,0.031-0.198,0.063-0.313,0.073
				c-0.063,0.021-0.136,0.042-0.208,0.042c-0.104,0.021-0.229,0.042-0.344,0.052c-0.927,0.104-1.896-0.042-2.594-0.448
				c-1.177-0.677-2.115-2.386-2.115-3.824l-0.01-181.683l4.24,2.448v181.673c0,1.021,0.511,1.615,1.25,1.615
				c0.104,0,0.198-0.01,0.302-0.042c0.021,0,0.031,0,0.052-0.01C101.784,387.846,101.857,387.825,101.93,387.794z"/>
			<path id="XMLID_2826_" opacity="0.81" fill="#E0E0E0" d="M101.93,387.794c-0.031,0.01-0.063,0.031-0.094,0.031
				c-0.073,0.042-0.146,0.063-0.219,0.083c-0.052,0.021-0.104,0.042-0.167,0.052c-0.094,0.031-0.198,0.063-0.313,0.073
				c-0.063,0.021-0.136,0.042-0.208,0.042c-0.104,0.021-0.229,0.042-0.344,0.052c-0.927,0.104-1.896-0.042-2.594-0.448
				c-1.177-0.677-2.115-2.386-2.115-3.824l-0.01-181.683l4.24,2.448v181.673c0,1.021,0.511,1.615,1.25,1.615
				c0.104,0,0.198-0.01,0.302-0.042c0.021,0,0.031,0,0.052-0.01C101.784,387.846,101.857,387.825,101.93,387.794z"/>
			<polygon id="XMLID_2360_" fill="#27DEBF" points="100.107,204.621 95.867,202.172 95.867,242.523 100.107,244.991 			"/>
			<polygon id="XMLID_2359_" opacity="0.15" points="100.107,204.621 95.867,202.172 95.867,242.523 100.107,244.991 			"/>
			<path id="XMLID_4258_" fill="#263238" d="M100.763,175.678c-0.406,0.698-0.656,1.5-0.656,2.219v26.723l-4.24-2.448v-26.713
				c0-0.094,0-0.177,0.01-0.271c0.021-0.188,0.052-0.375,0.094-0.563c0.114-0.469,0.312-0.958,0.563-1.396L100.763,175.678z"/>
			<path id="XMLID_4257_" fill="#37474F" d="M349.78,33.752v12.054L170.067,149.559c-1.24,0.719-2.25,0.135-2.25-1.302v-4.563
				c0-1.438-1.01-2.021-2.261-1.302l-54.729,31.599c-1.25,0.719-2.261,2.469-2.261,3.907v4.563c0,1.438-1.011,3.188-2.25,3.907
				l-6.209,3.584v-12.054c0-1.438,1.011-3.188,2.25-3.907L347.53,32.449C348.77,31.73,349.78,32.314,349.78,33.752z"/>
			<path id="XMLID_4256_" fill="#27DEBF" d="M349.791,242.148c0,1.438-1.011,3.188-2.261,3.907L102.357,387.596
				c-1.24,0.719-2.25,0.136-2.25-1.302V189.952l6.209-3.584c1.24-0.719,3.261-11.658,4.511-12.377l53.813-31.071
				c1.25-0.719,4.187,7.358,5.427,6.64L349.78,45.806v14.669L349.791,242.148z"/>
			<path id="XMLID_2824_" opacity="0.9" fill="#FFFFFF" d="M349.791,242.148c0,1.438-1.011,3.188-2.261,3.907L102.357,387.596
				c-1.24,0.719-2.25,0.136-2.25-1.302V189.952l6.209-3.584c1.24-0.719,3.261-11.658,4.511-12.377l53.813-31.071
				c1.25-0.719,4.187,7.358,5.427,6.64L349.78,45.806v14.669L349.791,242.148z"/>
			<g id="XMLID_3171_" opacity="0.4">
				<path fill="#27DEBF" d="M348.78,47.538v12.937l0.011,181.673c0,1.081-0.822,2.501-1.761,3.041L101.856,386.731
					c-0.269,0.156-0.44,0.173-0.502,0.173c-0.235,0-0.247-0.508-0.247-0.61V190.529l5.711-3.296
					c0.886-0.514,1.446-2.262,2.707-6.762c0.567-2.023,1.418-5.062,1.876-5.657L164.769,144c0.461,0.519,1.235,1.88,1.725,2.741
					c1.442,2.538,2.249,3.863,3.406,3.863c0.235,0,0.466-0.063,0.668-0.18L348.78,47.538 M349.78,45.806L170.067,149.559
					c-0.053,0.031-0.109,0.045-0.168,0.045c-1.261,0-3.82-6.73-5.09-6.73c-0.059,0-0.115,0.015-0.169,0.045l-53.813,31.071
					c-1.25,0.719-3.271,11.658-4.511,12.377l-6.209,3.584v196.342c0,1.02,0.509,1.61,1.247,1.61c0.302,0,0.643-0.099,1.003-0.308
					L347.53,246.055c1.25-0.719,2.261-2.469,2.261-3.907L349.78,60.475V45.806L349.78,45.806z"/>
			</g>
			<polygon id="XMLID_2357_" fill="#27DEBF" points="100.107,204.621 100.107,244.991 349.78,100.861 349.78,60.475 			"/>
			<path id="XMLID_4249_" fill="#F0F0F0" d="M349.78,45.806v14.669L100.107,204.621v-14.669l4.637-2.686
				c1.24-0.719,1.657-1.812,2.25-3.907l1.572-5.461c0.496-1.896,1.011-3.188,2.261-3.907l53.813-31.071
				c1.25-0.719,2.226-0.798,3.176,0.774l1.929,3.501c0.708,1.223,1.062,1.942,2.302,1.223L349.78,45.806z"/>
			<g id="XMLID_4245_">
				<path id="XMLID_4248_" fill="#27DEBF" d="M339.205,41.312c1.567-0.905,2.838-0.171,2.838,1.639s-1.271,4.011-2.838,4.916
					c-1.568,0.905-2.839,0.171-2.839-1.639S337.637,42.216,339.205,41.312z"/>
				<path id="XMLID_4247_" fill="#27DEBF" d="M328.985,47.203c1.568-0.905,2.839-0.171,2.839,1.639s-1.271,4.011-2.839,4.917
					c-1.567,0.905-2.838,0.171-2.838-1.639C326.147,50.309,327.418,48.108,328.985,47.203z"/>
				<path id="XMLID_4246_" fill="#27DEBF" d="M318.767,53.095c1.567-0.905,2.839-0.171,2.839,1.639s-1.271,4.011-2.839,4.916
					c-1.567,0.905-2.838,0.171-2.838-1.639S317.199,54,318.767,53.095z"/>
			</g>
			<path id="XMLID_4244_" opacity="0.5" fill="#455A64" d="M110.454,191.009l-3.541,2.044l1.35-2.597
				c0.119-0.228,0.131-0.512,0.027-0.635c-0.104-0.124-0.284-0.036-0.402,0.19l-1.921,3.695c-0.002,0.004-0.003,0.01-0.005,0.014
				c-0.021,0.043-0.037,0.089-0.051,0.137c-0.005,0.015-0.012,0.029-0.016,0.045c-0.016,0.063-0.025,0.127-0.025,0.191
				c0,0.063,0.009,0.117,0.025,0.162c0.004,0.011,0.011,0.017,0.016,0.027c0.015,0.031,0.03,0.059,0.051,0.077
				c0.002,0.002,0.003,0.006,0.005,0.008l1.921,1.477c0.054,0.042,0.121,0.039,0.187,0c0.079-0.046,0.158-0.142,0.215-0.273
				c0.104-0.243,0.092-0.513-0.027-0.604l-1.35-1.038l3.541-2.044c0.157-0.091,0.285-0.361,0.285-0.603
				S110.611,190.918,110.454,191.009z"/>
			<path id="XMLID_4223_" opacity="0.5" fill="#455A64" d="M113.412,189.301l3.541-2.044l-1.35-1.038
				c-0.119-0.091-0.131-0.361-0.027-0.604c0.104-0.243,0.284-0.364,0.402-0.273l1.921,1.477c0.002,0.001,0.003,0.006,0.005,0.008
				c0.021,0.018,0.037,0.046,0.052,0.077c0.004,0.01,0.012,0.016,0.016,0.027c0.016,0.045,0.024,0.099,0.024,0.162
				c0,0.063-0.009,0.127-0.024,0.191c-0.004,0.015-0.011,0.029-0.016,0.045c-0.015,0.047-0.03,0.094-0.052,0.136
				c-0.002,0.004-0.003,0.01-0.005,0.014l-1.921,3.695c-0.054,0.104-0.121,0.178-0.188,0.217c-0.079,0.045-0.158,0.041-0.214-0.026
				c-0.104-0.123-0.092-0.407,0.027-0.634l1.35-2.597l-3.541,2.044c-0.158,0.091-0.285-0.032-0.285-0.274
				C113.127,189.662,113.254,189.393,113.412,189.301z"/>
			<path id="XMLID_4222_" opacity="0.5" fill="#455A64" d="M125.028,179.104c-0.022-0.213-0.208-0.186-0.302,0.045l-0.485,1.186
				c-0.827-0.09-1.829,0.718-2.506,2.151c-0.877,1.856-0.877,4.053,0,4.897c0.438,0.422,1.014,0.427,1.591,0.094
				c0.576-0.332,1.152-1.002,1.59-1.93c0.112-0.236,0.112-0.513,0-0.62c-0.111-0.107-0.292-0.003-0.403,0.232
				c-0.655,1.384-1.72,2.002-2.375,1.372s-0.655-2.271,0-3.658c0.466-0.986,1.136-1.57,1.722-1.605l-0.366,0.894
				c-0.095,0.231-0.008,0.448,0.141,0.351l1.444-0.942c0.101-0.066,0.176-0.25,0.161-0.396L125.028,179.104z"/>
			<path id="XMLID_4221_" opacity="0.5" fill="#455A64" d="M163.088,149.615l1.291-2.732c0.153-0.323,0.153-0.704,0-0.851
				c-0.153-0.147-0.4-0.004-0.552,0.319l-1.291,2.732l-1.291-1.242c-0.153-0.147-0.4-0.004-0.553,0.319
				c-0.152,0.323-0.152,0.704,0,0.851l1.291,1.242l-1.291,2.732c-0.152,0.323-0.152,0.704,0,0.851
				c0.077,0.074,0.176,0.075,0.276,0.017c0.1-0.058,0.2-0.174,0.276-0.336l1.291-2.732l1.291,1.242
				c0.076,0.073,0.176,0.074,0.276,0.017c0.1-0.058,0.2-0.174,0.276-0.336c0.153-0.323,0.153-0.704,0-0.851L163.088,149.615z"/>
			<path id="XMLID_4220_" fill="#FFFFFF" d="M129.728,182.463v-4.564c0-1.438,1.01-3.188,2.255-3.907l202.85-117.055
				c1.246-0.719,2.256-0.136,2.256,1.302l-0.001,4.564c0,1.438-1.01,3.188-2.256,3.907L131.983,183.766
				C130.737,184.485,129.728,183.902,129.728,182.463z"/>
			<g id="XMLID_4216_">
				<path id="XMLID_4217_" fill="#E0E0E0" d="M331.764,66.967c-0.061,0-0.117-0.012-0.166-0.032
					c-0.161-0.067-0.32-0.256-0.281-0.584l0.226-1.89c0.001-0.009,0.002-0.014,0.004-0.016l-0.915-0.661
					c-0.126-0.091-0.197-0.243-0.2-0.428c-0.005-0.269,0.13-0.556,0.335-0.714l1.325-1.021c0.028-0.022,0.068-0.078,0.091-0.151
					l0.592-1.942c0.097-0.319,0.332-0.545,0.585-0.564c0.181-0.016,0.347,0.085,0.429,0.258v0l0.534,1.135l1.2-0.46
					c0.184-0.069,0.372-0.026,0.494,0.112c0.166,0.188,0.174,0.513,0.017,0.806l-0.958,1.799c-0.035,0.066-0.047,0.133-0.042,0.166
					l0.226,1.627c0.04,0.287-0.1,0.575-0.256,0.734c-0.133,0.134-0.291,0.198-0.446,0.177l-1.185-0.146l-1.153,1.541
					C332.072,66.9,331.906,66.967,331.764,66.967z M331.024,63.334l0.914,0.66c0.15,0.11,0.222,0.305,0.194,0.537l-0.188,1.56
					l0.988-1.257c0.142-0.181,0.324-0.272,0.509-0.25l1.186,0.147c-0.019-0.02,0.054-0.156,0.042-0.24l-0.227-1.628
					c-0.022-0.166,0.017-0.357,0.105-0.526l0.957-1.796l-1.096,0.42c-0.233,0.088-0.466-0.005-0.569-0.228l-0.493-1.048
					c-0.002,0.005-0.004,0.011-0.006,0.017l-0.592,1.942c-0.057,0.183-0.164,0.346-0.297,0.448l-1.324,1.021
					C331.066,63.161,331.027,63.273,331.024,63.334z"/>
			</g>
			<g id="XMLID_4071_" opacity="0.5">
				<g id="XMLID_4207_">
					<path id="XMLID_4214_" fill="#455A64" d="M339.748,56.381c-0.27,0-0.532-0.14-0.677-0.391
						c-0.216-0.374-0.088-0.852,0.285-1.067l6.349-3.666c0.375-0.216,0.852-0.087,1.067,0.286c0.215,0.374,0.087,0.852-0.286,1.067
						l-6.348,3.666C340.016,56.347,339.881,56.381,339.748,56.381z"/>
				</g>
				<g id="XMLID_4201_">
					<path id="XMLID_4203_" fill="#455A64" d="M339.748,60.047c-0.27,0-0.532-0.14-0.677-0.391
						c-0.216-0.374-0.088-0.852,0.285-1.067l6.349-3.665c0.375-0.218,0.852-0.088,1.067,0.286c0.215,0.374,0.087,0.852-0.286,1.067
						l-6.348,3.666C340.016,60.013,339.881,60.047,339.748,60.047z"/>
				</g>
				<g id="XMLID_4072_">
					<path id="XMLID_4073_" fill="#455A64" d="M339.748,63.713c-0.27,0-0.532-0.14-0.677-0.391
						c-0.216-0.374-0.088-0.852,0.285-1.067l6.349-3.666c0.375-0.218,0.852-0.087,1.067,0.286c0.215,0.374,0.087,0.852-0.286,1.067
						l-6.348,3.665C340.016,63.68,339.881,63.713,339.748,63.713z"/>
				</g>
			</g>
			<polygon id="XMLID_4070_" fill="#E0E0E0" points="100.107,189.952 100.107,204.621 95.867,202.172 95.867,187.514 			"/>
		</g>
		<g id="XMLID_3542_">
			<polygon id="XMLID_3210_" opacity="0.1" fill="#27DEBF" points="110.939,254.511 179.994,214.642 179.994,327.213 
				110.739,366.967 			"/>
			<g id="XMLID_3281_">
				<path id="XMLID_3211_" opacity="0.15" fill="#27DEBF" d="M195.211,207.93l83.303-48.095c1.674-0.966,3.031-0.232,3.031,1.639
					c0,1.872-1.354,4.179-3.022,5.154l-83.322,48.636c-1.669,0.975-3.022,0.198-3.022-1.735l0-0.349
					C192.179,211.247,193.537,208.896,195.211,207.93z"/>
				<path id="XMLID_3279_" opacity="0.1" fill="#27DEBF" d="M194.344,222.501l137.841-79.583c1.196-0.69,2.165-0.2,2.165,1.096
					s-0.97,2.905-2.165,3.596l-137.841,79.582c-1.196,0.69-2.166,0.2-2.166-1.095S193.147,223.192,194.344,222.501z"/>
				<path id="XMLID_3283_" opacity="0.1" fill="#27DEBF" d="M194.344,231.918l137.841-79.582c1.196-0.69,2.165-0.2,2.165,1.095
					c0,1.295-0.97,2.905-2.165,3.596l-137.841,79.582c-1.196,0.69-2.166,0.2-2.166-1.095
					C192.178,234.218,193.147,232.608,194.344,231.918z"/>
				<path id="XMLID_3291_" opacity="0.1" fill="#27DEBF" d="M194.344,241.335l137.841-79.583c1.196-0.69,2.165-0.2,2.165,1.096
					s-0.97,2.905-2.165,3.595l-137.841,79.582c-1.196,0.69-2.166,0.2-2.166-1.095C192.178,243.635,193.147,242.025,194.344,241.335z
					"/>
				<path id="XMLID_3292_" opacity="0.1" fill="#27DEBF" d="M194.344,250.751l137.841-79.583c1.196-0.69,2.165-0.2,2.165,1.096
					s-0.97,2.905-2.165,3.596l-137.841,79.582c-1.196,0.69-2.166,0.2-2.166-1.095S193.147,251.442,194.344,250.751z"/>
				<path id="XMLID_3293_" opacity="0.1" fill="#27DEBF" d="M194.344,260.168l96.172-55.966c1.195-0.69,2.165-0.2,2.165,1.096
					c-0.001,1.295-0.97,2.905-2.166,3.595l-96.171,55.966c-1.196,0.69-2.166,0.2-2.166-1.095
					C192.178,262.468,193.147,260.858,194.344,260.168z"/>
				<path id="XMLID_3543_" opacity="0.1" fill="#27DEBF" d="M194.344,279.001l137.841-79.583c1.196-0.69,2.165-0.2,2.165,1.096
					s-0.97,2.905-2.165,3.596l-137.841,79.582c-1.196,0.69-2.166,0.2-2.166-1.095S193.147,279.692,194.344,279.001z"/>
				<path id="XMLID_3544_" opacity="0.1" fill="#27DEBF" d="M194.344,288.418l137.841-79.582c1.196-0.69,2.165-0.2,2.165,1.095
					c0,1.295-0.97,2.905-2.165,3.596l-137.841,79.582c-1.196,0.69-2.166,0.2-2.166-1.095
					C192.178,290.718,193.147,289.108,194.344,288.418z"/>
				<path id="XMLID_3553_" opacity="0.1" fill="#27DEBF" d="M194.344,297.835l137.841-79.583c1.196-0.69,2.165-0.2,2.165,1.096
					s-0.97,2.905-2.165,3.595l-137.841,79.582c-1.196,0.69-2.166,0.2-2.166-1.095C192.178,300.135,193.147,298.525,194.344,297.835z
					"/>
				<path id="XMLID_3554_" opacity="0.1" fill="#27DEBF" d="M194.344,307.251l50.643-29.56c1.196-0.69,2.165-0.2,2.165,1.095
					s-0.97,2.905-2.165,3.596l-50.643,29.559c-1.196,0.69-2.166,0.2-2.166-1.095S193.147,307.942,194.344,307.251z"/>
			</g>
		</g>
	</g>
</g>
<g id="Character_3">
	<g id="XMLID_3461_">
		<g id="XMLID_3988_">
			<path id="XMLID_3991_" fill="#FFA8A7" d="M378.539,253.201c7.327-23.784,14.459-39.446,7.194-44.296l0,0
				c-6.767,1.253-9.798,4.6-11.235,13.521c-1.509,9.357-4.645,22.39-6.475,29.917c-1.461,6.009-4.313,13.564-6.755,18.163
				c-0.433,0.814-1.155,1.429-1.997,1.758c-2.258,0.884-3.343,2.038-5.185,3.354c-1.442,1.03-2.505,1.145-2.438,1.578
				c0.084,0.556,0.735,1.559,2.264,1.394c0.769-0.083,1.825-0.479,3.151-1.013c0,0-1.334,3.578-3.947,5.764
				c-3.542,2.963-3.013,5.926,2.69,6.271c2.043,0.124,6.775-1.739,11.161-9.209c1.263-2.152,2.729-5.675,3.907-8.612
				C373.942,264.142,377.073,257.96,378.539,253.201z"/>
			<path id="XMLID_3990_" fill="#27DEBF" d="M387.027,208.623c0,0-5.639-0.294-9.055,3.474c-3.415,3.768-7.407,26.291-7.407,26.291
				s3.743,5.143,13.608,3.038L387.027,208.623z"/>
			<path id="XMLID_3989_" opacity="0.3" d="M387.027,208.623c0,0-5.639-0.294-9.055,3.474c-3.415,3.768-7.407,26.291-7.407,26.291
				s3.743,5.143,13.608,3.038L387.027,208.623z"/>
		</g>
		<g id="XMLID_3945_">
			<rect id="XMLID_3987_" x="405.839" y="368.384" fill="#FFA8A7" width="7.571" height="13.5"/>
			<polygon id="XMLID_3986_" fill="#FFA8A7" points="387.158,367.664 379.592,367.935 379.213,353.647 387.158,353.376 			"/>
			<path id="XMLID_3985_" fill="#37474F" d="M414.477,251.499c0,7.531-1.108,68.135-1.108,68.135
				c0.176,2.167,2.127,6.162,1.704,14.485c-0.573,11.306-1.338,41.015-1.338,41.015s-3.676,2.237-8.431,0.173
				c0,0-7.161-41.149-8.519-52.354c-1.184-9.778-3.192-42.699-3.192-42.699l-4.104,38.279c0,0,1.396,5.832,0.938,12.533
				c-0.354,5.183-2.789,32.171-2.789,32.171s-3.564,2.519-8.742,0.697c0,0-4.308-40.646-4.395-45.401
				c-0.1-5.421,2.518-67.115,2.518-67.115L414.477,251.499z"/>
			<path id="XMLID_3984_" fill="#263238" d="M405.839,377.991v-1.127c-0.725,0.329-2.407,7.018-5.412,9.872
				c-2.388,2.269-5.646,4.89-6.475,7.419c-0.862,2.631,4.537,4.083,6.769,3.671c2.593-0.478,7.086-2.379,8.214-4.142
				c1.128-1.762,1.656-4.362,2.573-5.654c0.916-1.292,3.029-2.734,3.525-4.229c0.271-0.821-0.052-2.62-0.434-4.14
				c-0.352-1.395-0.731-2.927-1.189-2.796c-0.001,0.17,0,0.86,0,0.86c-0.549,0.634-2.07,1.264-3.785,1.333
				C408.518,379.101,405.83,378.872,405.839,377.991z"/>
			<path id="XMLID_3983_" fill="#263238" d="M379.511,365.503c-0.393,0.014-0.713,0.592-1.58,1.569
				c-1.048,1.182-2.763,2.456-4.454,3.338c-2.835,1.478-8.348,3.752-10.842,4.923c-1.559,0.731-1.485,2.692,0.125,3.808
				c1.611,1.116,5.501,1.92,10.171,0.832c2.544-0.593,5.855-3.04,7.952-2.908c2.097,0.132,6.019,0.101,7.566-1.01
				c1.547-1.111,0.928-3.483,0.49-5.522c-0.477-2.225-1.074-5.694-1.781-5.542v0.767c-0.91,1.436-5.607,2.02-7.607,0.963
				L379.511,365.503z"/>
			<path id="XMLID_3980_" fill="#263238" d="M393.593,280.255c0,0-6.052-1.775-10.544-6.296c0,0,2.034,3.967,8.084,7.66
				l-1.294,34.184L393.593,280.255z"/>
		</g>
		<g id="XMLID_3920_">
			<path id="XMLID_3931_" fill="#27DEBF" d="M410.537,210.423c0,0,5.926,0.542,5.504,11.83l-1.309,17.98l0.036,26.983
				c-5.568,6.309-30.251,5.847-38.702-0.505c0,0,0.958-31.933,1.528-44.22c0.405-8.735,2.415-13.133,11.001-14.096l10.559,0.465
				L410.537,210.423z"/>
			<polygon id="XMLID_3921_" opacity="0.3" points="393.712,216.344 392.354,225.823 389.186,225.764 392.759,226.328 			"/>
		</g>
		<g id="XMLID_3860_">
			<path id="XMLID_3880_" fill="#263238" d="M401.608,184.985c0,6.484-5.047,11.741-11.272,11.741s-10.991-5.262-11.272-11.74
				c-0.497-11.465,5.047-11.741,11.272-11.741S401.608,178.501,401.608,184.985z"/>
			<g id="XMLID_3871_">
				<path id="XMLID_3879_" fill="#263238" d="M408.033,190.808c0,0-1.729,8.46-2.422,9.85c-0.693,1.39-2.126,1.785-2.126,1.785
					l0.121-5.951L408.033,190.808z"/>
				<path id="XMLID_3878_" fill="#263238" d="M405.863,178.688c0,0,1.24-0.31,2.557,1.748c1.129,1.764,1.386,5.726-0.387,10.373
					l-3.257,0.389L405.863,178.688z"/>
				<path id="XMLID_3877_" fill="#FFA8A7" d="M403.8,191.2c0.653,0.406,1.585-0.9,2.391-1.778c0.805-0.877,3.434-2.077,4.745,0.801
					c1.337,2.933-1.157,6.809-3.228,7.485c-3.566,1.166-4.102-1.217-4.102-1.217l-0.272,13.4c-4.735,7.325-15.462,7.06-11.604-0.354
					l0.01-4.078c0,0-3.232,0.511-4.809,0.257c-2.623-0.422-4.273-2.578-5.069-5.535c-1.278-4.75-1.764-8.585-0.679-17.927
					c1.188-10.239,12.622-10.346,18.797-6.298S403.8,191.2,403.8,191.2z"/>
				<path id="XMLID_3876_" fill="#263238" d="M403.395,206.889c0,0-1.665,3.602-4.638,5.811c-2.731,2.03-5.61,2.385-5.61,2.385
					s2.777,1.84,3.959,4.445c1.181,2.605,9.513-4.566,9.438-9.654c0,0-1.308-5.111-3.099-5.439L403.395,206.889z"/>
				<path id="XMLID_3875_" fill="#263238" d="M393.146,215.084c0,0-2.569-1.276-1.417-5.546l0.01-4.078l-1.126,0.15
					c-0.877,0.79-2.256,2.647-2.707,4.69c-0.258,1.167-0.892,7.084,0.237,8.26C389.171,219.63,390.844,215.402,393.146,215.084z"/>
				<path id="XMLID_3874_" fill="#263238" d="M399.417,180.036c0.297-0.036,0.61-0.065,0.883,0.058
					c0.969,0.44,1.177,3.453,1.348,4.324c0.573,2.933,1.049,7.904,2.152,7.927c0.329,0.006,1.577-2.152,2.391-2.922
					c1.126-1.067-0.327-10.734-0.327-10.734s1.082-2.402-1.087-4.889c-2.026-2.324-5.214-2.837-8.125-2.998
					c-3.43-0.189-6.913,0.071-10.292-0.68c-1.074-0.239-2.13-0.579-3.225-0.691c-0.102-0.011-0.215-0.016-0.294,0.049
					c-0.11,0.09-0.095,0.26-0.065,0.4c0.21,1.012,0.571,1.993,1.069,2.899c-2.012-0.16-4.005-0.551-5.927-1.165
					c-0.11-0.035-0.229-0.071-0.338-0.037c-0.227,0.072-0.266,0.372-0.253,0.609c0.136,2.428,1.287,6.082,3.257,7.508
					c1.539,1.115,3.954,1.796,5.852,1.845C391.738,181.675,395.03,180.556,399.417,180.036z"/>
				<path id="XMLID_3873_" fill="#263238" d="M405.857,179.198l3.948-2.208c-0.561-1.178-1.898-1.64-2.989-1.03
					C405.727,176.571,405.297,178.02,405.857,179.198z"/>
				<path id="XMLID_3872_" fill="#F28F8F" d="M391.738,205.46c0,0,5.856-1.229,7.903-2.362c1.37-0.758,2.498-2.073,2.83-2.916
					c0,0-0.384,1.81-1.608,3.439c-1.497,1.994-9.124,3.461-9.124,3.461L391.738,205.46z"/>
			</g>
			<g id="XMLID_3861_">
				<path id="XMLID_3870_" fill="#263238" d="M393.146,189.675c0,0.702,0.525,1.269,1.173,1.267
					c0.648-0.002,1.174-0.572,1.174-1.273c0-0.702-0.525-1.269-1.174-1.267C393.672,188.404,393.146,188.974,393.146,189.675z"/>
				<path id="XMLID_3869_" fill="#263238" d="M395.03,184.615l2.511,1.443c0.37-0.751,0.108-1.683-0.585-2.082
					C396.263,183.578,395.4,183.864,395.03,184.615z"/>
				<path id="XMLID_3868_" fill="#F28F8F" d="M392.27,198.118l-2.68,1.047c0.266,0.8,1.08,1.213,1.82,0.925
					C392.149,199.8,392.534,198.917,392.27,198.118z"/>
				<path id="XMLID_3864_" fill="#263238" d="M382.382,185.691l2.289-1.836c-0.468-0.683-1.358-0.825-1.99-0.318
					C382.049,184.044,381.914,185.008,382.382,185.691z"/>
				<path id="XMLID_3863_" fill="#263238" d="M383.387,189.328c0,0.701,0.525,1.268,1.174,1.266s1.173-0.572,1.173-1.273
					s-0.524-1.268-1.173-1.267C383.912,188.056,383.387,188.626,383.387,189.328z"/>
				<polygon id="XMLID_3862_" fill="#F28F8F" points="389.666,188.346 389.53,195.758 385.324,194.793 				"/>
			</g>
		</g>
		<g id="XMLID_3463_">
			<path id="XMLID_3856_" fill="#27DEBF" d="M422.059,195.796c1.688-2.241,5.109,2.734,6.692,6.163
				c1.582,3.429,1.604,5.372,0.312,6.732c-1.294,1.361-3.748,0.536-6.203-2.713S421.094,197.452,422.059,195.796z"/>
			<path id="XMLID_3854_" opacity="0.5" d="M422.059,195.796c1.688-2.241,5.109,2.734,6.692,6.163
				c1.582,3.429,1.604,5.372,0.312,6.732c-1.294,1.361-3.748,0.536-6.203-2.713S421.094,197.452,422.059,195.796z"/>
			<g id="XMLID_3852_">
				<path id="XMLID_3853_" fill="#FFA8A7" d="M433.953,196.463c-5.963,14.039-14.349,21.888-18.1,30.896
					c-4.917-0.334-8.744-12.195-5.084-17.269c0,0,14.383-15.569,15.686-21.688c1.155-5.432,2.709-14.392,2.572-18.979
					c-0.023-0.766-0.363-1.474-0.885-2.035c-1.509-1.625-1.511-2.929-2.48-4.722c-0.756-1.398-1.582-1.921-1.347-2.236
					c0.304-0.404,1.26-0.932,2.45-0.181c0.598,0.378,0.987,0.821,1.855,1.781c0,0,0.387-2.474-0.849-5.26
					c-1.674-3.776-1.267-5.703,3.831-4.358c3.194,0.843,5.2,3.503,5.678,11.181c0.139,2.212,0.318,6.792,0.056,9.588
					c-0.553,5.909-0.908,12.068-1.635,16.96C435.38,192.313,434.813,194.443,433.953,196.463z"/>
			</g>
			<path id="XMLID_3683_" fill="#27DEBF" d="M409.315,210.255l12.69-14.498c0,0-1.507,3.536,1.793,8.678
				c3.301,5.142,5.264,4.256,5.264,4.256s-7.487,10.931-9.496,14.589c-2.01,3.659-4.091,6.744-4.091,6.744s-0.501,1.292-2.366,1.292
				C411.243,231.317,406.311,223.058,409.315,210.255z"/>
			<path id="XMLID_3464_" opacity="0.3" d="M409.315,210.255l12.69-14.498c0,0-1.507,3.536,1.793,8.678
				c3.301,5.142,5.264,4.256,5.264,4.256s-7.487,10.931-9.496,14.589c-2.01,3.659-4.091,6.744-4.091,6.744s-0.501,1.292-2.366,1.292
				C411.243,231.317,406.311,223.058,409.315,210.255z"/>
		</g>
	</g>
</g>
<g id="Character_2">
	<g id="XMLID_3992_">
		<g id="XMLID_4622_">
			<g id="XMLID_4625_">
				<polygon id="XMLID_4626_" fill="#F28F8F" points="306.415,242.846 312.389,250.8 305.973,258.154 297.704,248.484 				"/>
			</g>
			<g id="XMLID_4623_">
				<path id="XMLID_4624_" fill="#455A64" d="M286.871,224.767c5.21,0.244,7.693,1.049,10.42,4.262
					c2.662,3.136,16.369,22.94,16.369,22.94s-2.411,6.759-7.688,6.185l-9.594-9.89L286.871,224.767z"/>
			</g>
		</g>
		<g id="XMLID_4609_">
			<g id="XMLID_4617_">
				<path id="XMLID_4619_" fill="#263238" d="M261.309,389.893c-0.17,1.255-0.53,2.721-0.598,6.273
					c-0.072,3.808-0.771,5.159-0.864,8.284c-0.105,3.571,0.511,4.907,1.96,6.914c1.449,2.007,5.252,3.829,6.859,0.436
					c1.627-3.434,1.4-5.615,0.887-9.118c-0.531-3.622-0.599-5.622-0.906-8.383c-0.271-2.435-0.597-4.284-0.597-4.284
					L261.309,389.893z"/>
				<path id="XMLID_4618_" fill="#FFBDA7" d="M272.118,359.951l-12.544-0.228c0.187,8.374,1.518,22.313,1.734,30.169
					c0.041,1.479-0.037,11.492,0.521,14.535c0.839,4.571,6.265,3.954,6.553,1.218s-0.349-14.426-0.332-15.631
					c-0.048-5.038,2.313-18.188,3.552-27.234C271.663,362.336,272.061,360.384,272.118,359.951z"/>
			</g>
			<g id="XMLID_4612_">
				<path id="XMLID_4614_" fill="#263238" d="M290.554,383.377c0,0-0.648,0.037-0.751,0.565c-0.121,0.629-0.148,1.622-0.41,2.654
					c-0.363,1.435-0.665,3.797-0.447,4.967c0.218,1.169,2.887,2.911,4.712,3.217c1.825,0.307,4.401,2.11,5.832,3.457
					c1.753,1.649,5.534,3.207,8.109,3.188c3.047-0.022,5.171-1.015,6.175-2.646c1.049-1.704-0.914-1.829-4.397-4.089
					c-0.791-0.513-1.69-1.093-2.703-1.754c-5.518-3.604-7.537-5.535-9.098-9.14L290.554,383.377z"/>
				<path id="XMLID_4613_" fill="#FFBDA7" d="M297.618,381.416c-0.093-2.593,1.236-21.693,1.236-21.693l-10.79,1.215
					c2.551,15.226,2.758,20.414,2.467,22.629l0,0c-0.02,0.058-0.07,0.27-0.067,0.638c0.011,2.958,3.349,4.554,5.953,6.525
					c1.028,0.779,3.672,3.18,6.771,4.235c2.005,0.683,5.711,0.941,6.187-0.276c-3.169-2.42-7.481-5.582-10.002-8.345
					C298.169,385.024,297.711,384.009,297.618,381.416z"/>
			</g>
			<path id="XMLID_4611_" fill="#27DEBF" d="M262.484,273.359c-5.887,12.856,0.212,58.143,0.212,58.143
				c-0.177,2.086-2.563,6.191-3.451,15.373c-1.05,10.849,1.938,39.893,1.938,39.893s2.866,2.144,7.023,0.15
				c0,0,7.595-42.675,8.955-53.462c1.188-9.414,3.467-30.113,3.467-30.113l6.478,30.063c0,0-1.662,5.274-2.052,9.292
				c-0.614,6.345,5.563,38.189,5.563,38.189s2.892,1.526,6.999-0.137c0,0,2.738-41.14,3.311-48.784
				c0.963-12.836-2.446-52.889-4.801-60.487L262.484,273.359z"/>
			<path id="XMLID_3191_" opacity="0.5" d="M262.484,273.359c-5.887,12.856,0.212,58.143,0.212,58.143
				c-0.177,2.086-2.563,6.191-3.451,15.373c-1.05,10.849,1.938,39.893,1.938,39.893s2.866,2.144,7.023,0.15
				c0,0,7.595-42.675,8.955-53.462c1.188-9.414,3.467-30.113,3.467-30.113l6.478,30.063c0,0-1.662,5.274-2.052,9.292
				c-0.614,6.345,5.563,38.189,5.563,38.189s2.892,1.526,6.999-0.137c0,0,2.738-41.14,3.311-48.784
				c0.963-12.836-2.446-52.889-4.801-60.487L262.484,273.359z"/>
			<path id="XMLID_4610_" opacity="0.2" d="M280.629,303.342l1.911-11.94c0,0,8.085-1.675,11.751-5.122c0,0-3.847,4.785-9.561,6.352
				l-2.146,9.193l3.752,27.836L280.629,303.342z"/>
		</g>
		<g id="XMLID_4360_">
			<g id="XMLID_4362_">
				<path id="XMLID_4377_" fill="#27DEBF" d="M265.503,233.425l8.009,2.085v-16.926l0,0c-4.423-1.152-8.009,1.399-8.009,5.698
					V233.425z"/>
				<path id="XMLID_6_" opacity="0.6" d="M265.503,233.425l8.009,2.085v-16.926l0,0c-4.423-1.152-8.009,1.399-8.009,5.698V233.425z"
					/>
				<path id="XMLID_4608_" fill="#27DEBF" d="M281.343,220.991l-2.874-0.066c-8.757-0.201-15.699-7.757-15.506-16.877l0,0
					c-0.05-9.939,7.694-18.038,17.237-18.09l0,0c9.544-0.052,17.32,7.964,17.37,17.903l-0.024,1.027
					C297.328,213.99,290.081,221.192,281.343,220.991z"/>
				<path id="XMLID_5_" opacity="0.6" d="M281.343,220.991l-2.874-0.066c-8.757-0.201-15.699-7.757-15.506-16.877l0,0
					c-0.05-9.939,7.694-18.038,17.237-18.09l0,0c9.544-0.052,17.32,7.964,17.37,17.903l-0.024,1.027
					C297.328,213.99,290.081,221.192,281.343,220.991z"/>
				<path id="XMLID_2865_" fill="#27DEBF" d="M267.934,190.121c-0.323-1.245-1.563-1.941-2.771-1.557l0.767,2.956
					c-0.163-0.195-0.352-0.371-0.577-0.503c-1.077-0.635-2.425-0.205-3.01,0.961l3.9,2.297c0.204-0.406,0.282-0.848,0.26-1.279
					C267.603,192.544,268.24,191.303,267.934,190.121z"/>
				<path id="XMLID_1_" opacity="0.6" d="M267.934,190.121c-0.323-1.245-1.563-1.941-2.771-1.557l0.767,2.956
					c-0.163-0.195-0.352-0.371-0.577-0.503c-1.077-0.635-2.425-0.205-3.01,0.961l3.9,2.297c0.204-0.406,0.282-0.848,0.26-1.279
					C267.603,192.544,268.24,191.303,267.934,190.121z"/>
				<g id="XMLID_4372_">
					<path id="XMLID_4374_" fill="#37474F" d="M272.663,225.457c0,0-5.792,0.821-8.009,1.54c3.1,7.604-1.764,19.348-1.764,19.348
						l4.588,14.126c-3.164,6.492-5.781,9.713-6.854,14.988c2.917,5.701,23.528,11.144,36.945,0.751c0,0-0.434-14.433-2.144-22.842
						c4.396-8.573,3.679-11.087,2.781-14.076c-2.087-6.951-6.306-9.626-11.337-14.524l-3.033-0.318L272.663,225.457z"/>
				</g>
				<path id="XMLID_1928_" fill="#263238" d="M268.011,266.133c2.486-2.555,7.766-3.282,7.766-3.282l-4.842-2.763l-5.432-13.098
					c3.769-7.244,3.264-14.414,3.264-14.414l-3.114-0.747c0.378,6.927-2.762,14.516-2.762,14.516l4.588,14.126
					c-3.164,6.492-5.781,9.713-6.854,14.988c1.996,3.903,12.285,7.682,22.881,6.345
					C269.309,280.855,265.613,268.596,268.011,266.133z"/>
				<g id="XMLID_3196_">
					<path id="XMLID_3198_" fill="#E6E6E6" d="M282.353,281.93c0.193-0.018,0.387-0.042,0.58-0.063
						C282.772,281.871,282.585,281.889,282.353,281.93z"/>
				</g>
				<g id="XMLID_4363_">
					<path id="XMLID_4371_" fill="#FFBDA7" d="M291.127,194.833c1.722,1.581,3.873,5.012,3.7,15.037
						c-0.146,8.496-2.779,10.609-4.104,11.221c-1.324,0.612-3.887,0.258-6.378-0.161l-0.029,3.519c0,0,3.284,3.643,3.079,5.982
						c-0.204,2.339-4.673,3.31-7.903,1.043c-3.23-2.266-5.98-6.05-5.98-6.05l-0.034-10.689c0,0-1.458,1.49-3.952-0.758
						c-2.061-1.856-2.767-5.001-1.178-6.699c1.59-1.698,4.545-1.254,5.69,1.148c0,0,5.681-0.475,10.92-3.214
						C289.603,202.783,291.462,198.394,291.127,194.833z"/>
					
						<ellipse id="XMLID_4370_" transform="matrix(0.9985 -0.0545 0.0545 0.9985 -10.9177 15.7561)" fill="#263238" cx="283.32" cy="207.979" rx="1.025" ry="1.11"/>
					<path id="XMLID_4369_" fill="#F79776" d="M284.727,215.042l2.669,0.871c-0.218,0.795-0.991,1.246-1.728,1.005
						C284.931,216.677,284.51,215.837,284.727,215.042z"/>
					<path id="XMLID_4368_" fill="#263238" d="M293.956,204.088l-2.422-0.827c0.182-0.701,0.872-1.084,1.541-0.856
						C293.743,202.634,294.138,203.387,293.956,204.088z"/>
					<path id="XMLID_4367_" fill="#27DEBF" d="M274.052,207.416l-0.027,3.594c0.96,0.045,1.745-0.722,1.752-1.715
						C275.784,208.303,275.012,207.461,274.052,207.416z"/>
					<path id="XMLID_7_" opacity="0.6" d="M274.052,207.416l-0.027,3.594c0.96,0.045,1.745-0.722,1.752-1.715
						C275.784,208.303,275.012,207.461,274.052,207.416z"/>
					
						<ellipse id="XMLID_4366_" transform="matrix(0.9985 -0.0548 0.0548 0.9985 -10.931 16.306)" fill="#263238" cx="292.094" cy="207.627" rx="1.025" ry="1.11"/>
					<polygon id="XMLID_4365_" fill="#F79776" points="287.422,206.115 287.396,213.077 290.64,212.011 					"/>
					<path id="XMLID_4364_" fill="#F79776" d="M284.346,220.93c-2.625-0.344-8.029-1.929-8.881-4.147c0,0,0.287,1.395,1.906,2.826
						c1.619,1.43,6.96,3.036,6.96,3.036L284.346,220.93z"/>
				</g>
			</g>
		</g>
		<g id="XMLID_4067_">
			<path id="XMLID_4359_" fill="#FFBDA7" d="M252.35,261.029c0,0,6.418,9.116,7.521,10.309s1.854,0.795,3.047,0.265
				c1.192-0.531,3.458-1.209,4.461-1.458c1.962-0.486,2.385,1.325,0.441,2.617c-1.405,0.934-3.014,1.342-2.341,2.109
				c0.673,0.767,2.75,2.109,4.682,2.87c4.736,1.868,4.37,2.806,3.498,4.34c-0.76,1.336-2.973,4.217-11.444,0.814
				c-3.494-1.403-8.418-5.393-10.739-7.965c-3.35-3.711-8.575-10.362-8.575-10.362L252.35,261.029z"/>
			<path id="XMLID_4358_" fill="#455A64" d="M265.89,226.669c-2.324,0.155-6.691,0.715-12.171,9.813
				c-4.807,7.98-12.255,18.811-13.64,22.683c-0.559,1.561,1.625,4.816,4.429,8.146c3.836-0.168,7.326-2.818,9.136-4.938
				c-0.84-1.943-1.77-3.213-1.77-3.213l11.242-12.82c0,0,4.271-3.911,5.165-9.031C269.24,231.824,268.941,227.48,265.89,226.669z"/>
		</g>
		<g id="XMLID_3993_">
			<g id="XMLID_4063_">
				<polygon id="XMLID_4065_" fill="#27DEBF" points="328.819,243.928 301.106,251.227 293.478,282.583 319.826,274.931 				"/>
				<polygon id="XMLID_4064_" opacity="0.25" points="328.819,243.928 301.106,251.227 293.478,282.583 319.826,274.931 				"/>
			</g>
			<g id="XMLID_4061_" opacity="0.1">
				<path id="XMLID_4062_" d="M316.297,266.133c0.258,0.703,1.956,3.25,5.183,3.097l0.201-0.693L316.297,266.133z"/>
			</g>
			<g id="XMLID_4055_" opacity="0.1">
				<path id="XMLID_4056_" d="M320.472,248.908c0,0,0.102-0.473,0.229-1.057c0.126-0.583-1.501-0.608-3.633-0.056l-4.083,1.059
					c-2.133,0.553-3.964,1.475-4.09,2.058l-0.229,1.057L320.472,248.908z"/>
			</g>
			<g id="XMLID_4000_">
				<path id="XMLID_4001_" fill="#37474F" d="M322.6,244.936c0.08-0.365-0.578-0.461-1.472-0.214l-1.617,0.446
					c0,0,0.482-2.286-3.105-1.487c-3.588,0.799-4.372,3.395-4.372,3.395s-0.773,0.22-1.727,0.49
					c-0.953,0.271-1.817,0.785-1.93,1.148l-0.205,0.658l14.276-3.759C322.448,245.613,322.52,245.3,322.6,244.936z"/>
			</g>
			<g id="XMLID_3998_">
				<path id="XMLID_3999_" fill="#37474F" d="M320.634,246.063c-1.309,0.315-1.852,0.49-2.047,1.389
					c-0.224,1.028-0.314,1.782-0.314,1.782l-6.318,1.669c0,0,0.306-1.301,0.402-1.808c0.099-0.507-0.117-0.813-1.122-0.547
					l-0.086-0.403l9.9-2.521L320.634,246.063z"/>
			</g>
			<g id="XMLID_3996_">
				<path id="XMLID_3997_" fill="#37474F" d="M320.852,249.008c0,0,0.102-0.473,0.229-1.057c0.126-0.583-1.5-0.609-3.633-0.056
					l-4.083,1.059c-2.133,0.553-3.964,1.475-4.09,2.058l-0.229,1.057L320.852,249.008z"/>
			</g>
			<g id="XMLID_3994_">
				<path id="XMLID_3995_" fill="#FFBDA7" d="M325.899,253.994c0,0-1.036,3.545-1.273,4.391c-0.237,0.845-3.343,2.364-5.38,2.923
					s-4.265,1.223-3.301,4.071c0.889,2.626,4.241,3.226,5.947,3.152c1.707-0.074,4.044-1.706,4.964-4.335
					c1.175-3.354,0.542-6.937,1.008-8.896C328.331,253.342,326.92,252.826,325.899,253.994z"/>
			</g>
		</g>
	</g>
</g>
<g id="Character_1_1_">
	<g id="XMLID_4627_">
		<g id="XMLID_4729_">
			<path id="XMLID_4731_" fill="#914F4E" d="M220.931,254.828c-3.801-3.83-5.16-2.341-5.64,1.859
				c-0.354,3.099-1.269,5.132-1.269,5.132c-0.269-1.297-0.382-1.89-0.714-2.534c-0.661-1.279-1.778-1.31-2.255-1.11
				c-0.371,0.155,0.087,1.045,0.029,2.671c-0.075,2.084-0.748,3.235-0.261,5.448c0.183,0.829,0.03,1.693-0.373,2.439
				c-2.051,3.794-8.594,10.821-13.205,15.875c-4.076-3.683-13.193-11.92-17.558-15.853c-5.988-5.395-7.941-7.828-13.732-7.432
				c0,0,2.243,0.683,4.927,2.953c2.684,2.27,2.045,15.262,2.045,15.262s19.922,14.286,21.97,15.645
				c0.301,0.2,0.608,0.38,0.914,0.542c2,1.065,4.477,0.559,5.968-1.146c4.254-4.862,10.45-14.428,14.035-19.402
				c1.681-2.332,3.306-5.518,4.331-7.541C223.703,260.615,223.313,257.228,220.931,254.828z"/>
			<path id="XMLID_4730_" fill="#27DEBF" d="M166.545,260.969c0,0,4.036-1.055,8.013,1.963c3.419,2.595,17.963,15.969,17.963,15.969
				s0.396,7.084-6.996,11.313l-17.879-12.608L166.545,260.969z"/>
			<path id="XMLID_2372_" opacity="0.3" d="M166.545,260.969c0,0,4.036-1.055,8.013,1.963c3.419,2.595,17.963,15.969,17.963,15.969
				s0.396,7.084-6.996,11.313l-17.879-12.608L166.545,260.969z"/>
		</g>
		<g id="XMLID_4680_">
			<rect id="XMLID_4728_" x="141.73" y="420.957" fill="#914F4E" width="7.572" height="13.5"/>
			<polygon id="XMLID_4727_" fill="#914F4E" points="167.982,420.236 175.55,420.508 175.929,406.221 167.982,405.95 			"/>
			<path id="XMLID_4726_" fill="#37474F" d="M140.664,304.072c0,7.53,1.109,68.135,1.109,68.135
				c-0.177,2.167-2.127,6.162-1.705,14.485c0.574,11.306,1.338,41.015,1.338,41.015s3.675,2.237,8.43,0.173
				c0,0,7.162-41.149,8.519-52.354c1.184-9.778,3.193-42.699,3.193-42.699l4.104,38.279c0,0-1.396,5.832-0.938,12.533
				c0.354,5.183,2.789,32.171,2.789,32.171s3.564,2.519,8.742,0.697c0,0,4.307-40.646,4.395-45.401
				c0.1-5.421-2.518-67.115-2.518-67.115L140.664,304.072z"/>
			<path id="XMLID_4725_" fill="#263238" d="M149.302,430.564v-1.128c0.724,0.329,2.408,7.018,5.412,9.872
				c2.389,2.269,5.646,4.89,6.475,7.419c0.862,2.631-4.537,4.083-6.768,3.671c-2.592-0.478-7.086-2.379-8.214-4.142
				c-1.128-1.763-1.656-4.363-2.573-5.655c-0.917-1.292-3.029-2.734-3.525-4.229c-0.272-0.821,0.051-2.62,0.434-4.14
				c0.351-1.395,0.731-2.928,1.188-2.797c0.001,0.17,0,0.86,0,0.86c0.55,0.634,2.07,1.264,3.785,1.333
				C146.624,431.673,149.311,431.444,149.302,430.564z"/>
			<path id="XMLID_4682_" fill="#263238" d="M175.63,418.076c0.394,0.014,0.713,0.592,1.581,1.57
				c1.048,1.182,2.762,2.456,4.454,3.338c2.835,1.478,8.347,3.752,10.842,4.922c1.559,0.731,1.485,2.692-0.125,3.808
				c-1.611,1.116-5.5,1.92-10.171,0.832c-2.544-0.593-5.855-3.04-7.952-2.908c-2.096,0.132-6.019,0.101-7.566-1.01
				c-1.547-1.11-0.928-3.483-0.491-5.521c0.477-2.225,1.074-5.695,1.781-5.542v0.767c0.91,1.436,5.608,2.02,7.607,0.963
				L175.63,418.076z"/>
			<path id="XMLID_4681_" fill="#263238" d="M161.548,332.828c0,0,6.052-1.776,10.544-6.297c0,0-2.035,3.968-8.084,7.66
				l1.294,34.184L161.548,332.828z"/>
		</g>
		<g id="XMLID_4677_">
			<path id="XMLID_4679_" fill="#27DEBF" d="M144.604,262.996c0,0-5.925,0.542-5.504,11.83l1.309,17.98l-0.123,26.983
				c5.568,6.309,30.251,5.847,38.702-0.505c0,0-0.871-31.933-1.441-44.22c-0.406-8.735-2.416-13.133-11.001-14.096l-10.558,0.464
				L144.604,262.996z"/>
			<polygon id="XMLID_4678_" opacity="0.3" points="161.429,268.917 162.788,278.396 165.955,278.336 162.382,278.901 			"/>
		</g>
		<g id="XMLID_4674_">
			<path id="XMLID_4676_" fill="#914F4E" d="M125.811,301.757c3.072-24.697,10.138-36.974,18.752-38.417l-0.611,15.802
				c0,0-5.786,13.192-8.198,26.145c-1.132,6.08-2.445,16.65-2.104,21.846c0.061,0.92,0.467,1.777,1.1,2.423
				c1.698,1.732,2.213,3.23,3.354,5.185c0.893,1.53,1.815,2.072,1.577,2.439c-0.305,0.473-1.31,1.12-2.637,0.343
				c-0.667-0.391-1.468-1.186-2.458-2.216c0,0-0.251,3.811,1.236,6.876c2.015,4.154,1.68,6.346-3.901,5.122
				c-3.498-0.767-6.02-4.455-6.956-13.067c-0.27-2.481-0.304-6.493-0.173-9.655C125.13,316.349,125.196,306.698,125.811,301.757z"/>
			<path id="XMLID_4675_" fill="#27DEBF" d="M145.054,262.932c-4.474-0.017-8.554,0.769-11.799,7.019
				c-3.112,5.995-5.505,18.692-6.713,22.837c0,0,6.532,3.86,12.537,3.767l4.233-14.685
				C143.312,281.87,146.168,275.016,145.054,262.932z"/>
			<path id="XMLID_2361_" opacity="0.3" d="M145.054,262.932c-4.474-0.017-8.554,0.769-11.799,7.019
				c-3.112,5.995-5.505,18.692-6.713,22.837c0,0,6.532,3.86,12.537,3.767l4.233-14.685
				C143.312,281.87,146.168,275.016,145.054,262.932z"/>
		</g>
		<g id="XMLID_4646_">
			<ellipse id="XMLID_4673_" fill="#263238" cx="165.551" cy="237.507" rx="11.272" ry="11.741"/>
			<g id="XMLID_4654_">
				<path id="XMLID_4672_" fill="#263238" d="M147.107,243.381c0,0,1.729,8.46,2.422,9.85c0.693,1.391,2.126,1.785,2.126,1.785
					l-0.121-5.951L147.107,243.381z"/>
				<path id="XMLID_4671_" fill="#263238" d="M149.277,231.261c0,0-1.24-0.311-2.557,1.747c-1.129,1.764-1.386,5.726,0.387,10.373
					l3.257,0.39L149.277,231.261z"/>
				<path id="XMLID_4670_" fill="#914F4E" d="M151.341,243.773c-0.653,0.406-1.584-0.9-2.39-1.778
					c-0.806-0.877-3.435-2.077-4.746,0.801c-1.336,2.933,1.158,6.809,3.228,7.485c3.567,1.167,4.103-1.217,4.103-1.217l0.272,13.4
					c4.735,7.325,15.461,7.06,11.605-0.354l-0.01-4.079c0,0,3.231,0.511,4.808,0.257c2.624-0.422,4.273-2.578,5.069-5.536
					c1.278-4.75,1.763-8.585,0.679-17.927c-1.189-10.239-12.623-10.346-18.798-6.298S151.341,243.773,151.341,243.773z"/>
				<path id="XMLID_4659_" fill="#263238" d="M151.746,259.461c0,0,1.666,3.602,4.638,5.811c2.732,2.03,5.611,2.385,5.611,2.385
					s-2.778,1.84-3.959,4.445c-1.181,2.605-9.513-4.566-9.438-9.654c0,0,1.309-5.111,3.099-5.439L151.746,259.461z"/>
				<path id="XMLID_4658_" fill="#263238" d="M161.995,267.657c0,0,2.569-1.277,1.417-5.546l-0.01-4.079l1.126,0.151
					c0.876,0.789,2.255,2.646,2.707,4.689c0.258,1.167,0.891,7.085-0.237,8.26C165.97,272.204,164.297,267.975,161.995,267.657z"/>
				<path id="XMLID_4657_" fill="#263238" d="M151.341,244.917c-0.328,0.006-1.577-2.152-2.39-2.922
					c-1.126-1.067,0.326-10.734,0.326-10.734s-1.082-2.403,1.087-4.89c1.543-1.769,4.122-1.965,8.525-2.686
					c1.715-0.281,3.547-0.467,5.219-0.941c1.79-0.507,3.552-1.695,5.219-2.541c0.552-0.28,1.169-0.567,1.766-0.407
					c0.574,0.155,0.974,0.702,1.123,1.277s0.092,1.181,0.034,1.772c1.02-1.126,3.013-0.961,4.055,0.145
					c1.042,1.106,1.186,2.857,0.633,4.273c-0.553,1.415-1.695,2.528-2.954,3.378c-5.534,3.735-12.065,2.699-18.259,1.965
					c-0.296-0.035-0.611-0.065-0.883,0.059c-0.969,0.44-1.177,3.453-1.347,4.323C152.92,239.924,152.445,244.896,151.341,244.917z"
					/>
				<path id="XMLID_4656_" fill="#263238" d="M149.284,231.771l-3.948-2.208c0.56-1.178,1.898-1.639,2.989-1.029
					C149.415,229.144,149.844,230.593,149.284,231.771z"/>
				<path id="XMLID_4655_" fill="#783736" d="M163.402,258.033c0,0-5.856-1.229-7.903-2.362c-1.37-0.759-2.499-2.074-2.83-2.917
					c0,0,0.384,1.81,1.608,3.44c1.497,1.993,9.125,3.461,9.125,3.461V258.033z"/>
			</g>
			<g id="XMLID_4647_">
				<path id="XMLID_4653_" fill="#263238" d="M161.284,241.9c0,0.701-0.525,1.269-1.173,1.266c-0.648-0.001-1.173-0.572-1.173-1.273
					s0.525-1.268,1.173-1.267C160.758,240.629,161.284,241.199,161.284,241.9z"/>
				<path id="XMLID_4652_" fill="#263238" d="M159.269,236.821l-2.51,1.443c-0.37-0.751-0.108-1.683,0.585-2.081
					C158.037,235.784,158.899,236.07,159.269,236.821z"/>
				<path id="XMLID_4651_" fill="#783736" d="M162.872,250.691l2.679,1.047c-0.265,0.8-1.08,1.214-1.82,0.925
					C162.991,252.374,162.606,251.491,162.872,250.691z"/>
				<path id="XMLID_4650_" fill="#263238" d="M173.006,238.221l-2.638-1.285c0.304-0.769,1.142-1.104,1.87-0.75
					C172.967,236.541,173.311,237.452,173.006,238.221z"/>
				<path id="XMLID_4649_" fill="#263238" d="M171.267,241.9c0,0.701-0.525,1.269-1.174,1.266c-0.648-0.001-1.173-0.571-1.173-1.273
					c0-0.701,0.525-1.268,1.173-1.267C170.741,240.629,171.267,241.199,171.267,241.9z"/>
				<polygon id="XMLID_4648_" fill="#783736" points="164.618,240.993 164.754,248.404 168.961,247.439 				"/>
			</g>
		</g>
		<g id="XMLID_4628_">
			<g id="XMLID_4638_">
				<path id="XMLID_4642_" fill="#263238" d="M159.468,238.836c-1.586,0-2.877,1.315-2.877,2.931s1.291,2.931,2.877,2.931h0.534
					c1.586,0,2.876-1.314,2.876-2.931s-1.291-2.931-2.876-2.931H159.468z M156.007,241.768c0-1.944,1.552-3.525,3.46-3.525h0.534
					c1.908,0,3.46,1.581,3.46,3.525c0,1.944-1.552,3.525-3.46,3.525h-0.534C157.56,245.292,156.007,243.711,156.007,241.768z"/>
			</g>
			<g id="XMLID_4634_">
				<path id="XMLID_4635_" fill="#263238" d="M170.018,238.836c-1.586,0-2.877,1.315-2.877,2.931s1.291,2.931,2.877,2.931h0.535
					c1.585,0,2.876-1.314,2.876-2.931s-1.291-2.931-2.876-2.931H170.018z M166.558,241.768c0-1.944,1.552-3.525,3.46-3.525h0.535
					c1.908,0,3.459,1.581,3.459,3.525c0,1.944-1.552,3.525-3.459,3.525h-0.535C168.109,245.292,166.558,243.711,166.558,241.768z"/>
			</g>
			<path id="XMLID_4633_" fill="#263238" d="M163.419,241.072c0.32-0.536,1.038-0.908,1.828-0.949
				c0.681-0.036,1.281,0.193,1.595,0.613l0.465-0.359c-0.436-0.585-1.196-0.895-2.089-0.848c-0.993,0.052-1.872,0.524-2.296,1.233
				L163.419,241.072z"/>
			<rect id="XMLID_4632_" x="150.364" y="241.043" fill="#263238" width="5.964" height="0.594"/>
		</g>
	</g>
</g>
</svg>
