<?xml version="1.0"?>
<svg xmlns="http://www.w3.org/2000/svg" id="copyright" enable-background="new 0 0 300 300" height="512px" viewBox="0 0 300 300" width="512px" class=""><g><path d="m205.595 218 .169-15.662c-5.006-10.013-15.24-8.338-26.435-8.338h-21.734l-8-8h-32l-48 8v56l56 8h88l51.136-31.96c6.581-4.113 7.625-13.279 2.137-18.766-3.232-3.232-8.013-4.361-12.349-2.915l-40.924 13.641h-72l-8 8" fill="#ffdea2" data-original="#FFDEA2" class=""/><path d="m213.595 266h-88c-.375 0-.758-.023-1.133-.078l-56-8c-3.938-.562-6.867-3.938-6.867-7.922v-56c0-3.914 2.828-7.25 6.687-7.891l48-8c.43-.07.875-.109 1.312-.109h32c2.125 0 4.156.844 5.656 2.344l5.656 5.656 22.492-.055c10.18-.195 22.891-.445 29.523 12.812.57 1.133.859 2.391.844 3.664l-.078 7.117 38.297-12.766c7.266-2.422 15.125-.57 20.539 4.844 4.352 4.352 6.445 10.352 5.75 16.469-.703 6.109-4.094 11.484-9.312 14.742l-51.125 31.953c-1.273.798-2.741 1.22-4.241 1.22zm-87.43-16h85.133l49.188-30.742c1.453-.906 1.805-2.258 1.891-2.992.086-.727.039-2.125-1.164-3.336-1.094-1.102-2.68-1.477-4.164-.984l-40.922 13.641c-.82.273-1.672.414-2.531.414h-7.984c-.008 0-.008 0-.016 0 0 0 0 0-.008 0h-60.68l-5.656 5.656c-3.125 3.125-8.188 3.125-11.313 0s-3.125-8.188 0-11.312l8-8c1.5-1.5 3.531-2.344 5.656-2.344h56.086l.062-5.477c-1.938-2.438-5.258-2.719-14.039-2.578-1.438.023-2.898.055-4.375.055h-21.734c-2.125 0-4.156-.844-5.656-2.344l-5.657-5.657h-28.023l-40.664 6.773v42.289z" fill="#5c128d" data-original="#5C128D" class="" data-old_color="#5c128d" style="fill:#60927C"/><path d="m29.595 178h40v88h-40z" fill="#fff" data-original="#FFF" class=""/><g fill="#5c128d"><path d="m69.595 274h-40c-4.422 0-8-3.578-8-8v-88c0-4.422 3.578-8 8-8h40c4.422 0 8 3.578 8 8v88c0 4.422-3.578 8-8 8zm-32-16h24v-72h-24z" data-original="#000000" class="active-path" style="fill:#6D928C" data-old_color="#000000"/><path d="m149.595 170c-39.703 0-72-32.297-72-72s32.297-72 72-72 72 32.297 72 72-32.297 72-72 72zm0-128c-30.875 0-56 25.125-56 56s25.125 56 56 56 56-25.125 56-56-25.125-56-56-56z" data-original="#000000" class="active-path" style="fill:#6D928C" data-old_color="#000000"/><path d="m165.595 138h-21.539c-10.18 0-18.461-8.281-18.461-18.461v-43.078c0-10.18 8.281-18.461 18.461-18.461h21.539c4.422 0 8 3.578 8 8s-3.578 8-8 8h-21.539c-1.359 0-2.461 1.102-2.461 2.461v43.078c0 1.359 1.102 2.461 2.461 2.461h21.539c4.422 0 8 3.578 8 8s-3.578 8-8 8z" data-original="#000000" class="active-path" style="fill:#6D928C" data-old_color="#000000"/></g></g> </svg>
