<svg xmlns="http://www.w3.org/2000/svg" xmlns:xlink="http://www.w3.org/1999/xlink" viewBox="0 0 750 500"><defs><style>.cls-1{isolation:isolate;}.cls-2,.cls-27,.cls-28{fill:#fff;}.cls-3,.cls-4{fill:#f2f1ef;}.cls-10,.cls-26,.cls-4,.cls-9{mix-blend-mode:multiply;}.cls-5{fill:url(#Degradado_sin_nombre_4);}.cls-6{fill:#20c5ba;}.cls-7{fill:#1e44c1;}.cls-8{fill:url(#linear-gradient);}.cls-9{fill:url(#linear-gradient-2);}.cls-10{fill:#728bf2;}.cls-11{fill:#ededed;}.cls-12{fill:#20b9b9;}.cls-13{fill:#21b7af;}.cls-14{fill:#f8c49a;}.cls-15{fill:#fda939;}.cls-16{fill:#20a4ad;}.cls-17{fill:#fffff5;}.cls-18{fill:url(#linear-gradient-3);}.cls-19{fill:#22afaf;}.cls-20{fill:#3e6afa;}.cls-21{fill:#004725;stroke:#1c0000;}.cls-21,.cls-33{stroke-miterlimit:10;}.cls-22{fill:#0b008f;}.cls-23{fill:url(#linear-gradient-4);}.cls-24{fill:url(#linear-gradient-5);}.cls-25{fill:#20dcc3;}.cls-26{opacity:0.3;fill:url(#linear-gradient-6);}.cls-27,.cls-28,.cls-29,.cls-30,.cls-31{stroke:#2e3062;stroke-linejoin:round;}.cls-27{stroke-linecap:square;}.cls-27,.cls-28{stroke-width:1.3px;}.cls-28,.cls-29,.cls-30,.cls-31,.cls-33{stroke-linecap:round;}.cls-29,.cls-30,.cls-31,.cls-33{fill:none;}.cls-29,.cls-30,.cls-31{stroke-width:1.5px;}.cls-30{stroke-dasharray:5.03 3.02;}.cls-31{stroke-dasharray:5 3;}.cls-32{fill:url(#linear-gradient-7);}.cls-33{stroke:#f9962b;stroke-width:0.57px;}.cls-34{fill:url(#linear-gradient-8);}.cls-35{fill:url(#linear-gradient-9);}</style><linearGradient id="Degradado_sin_nombre_4" x1="368.43" y1="229.57" x2="542.77" y2="229.57" gradientUnits="userSpaceOnUse"><stop offset="0.03" stop-color="#eebe2d"/><stop offset="1" stop-color="#e48a20"/></linearGradient><linearGradient id="linear-gradient" x1="481.43" y1="268.08" x2="576.99" y2="268.08" gradientUnits="userSpaceOnUse"><stop offset="0" stop-color="#f4ba38"/><stop offset="1" stop-color="#ffd349"/></linearGradient><linearGradient id="linear-gradient-2" x1="501.41" y1="279.81" x2="559.96" y2="279.81" xlink:href="#linear-gradient"/><linearGradient id="linear-gradient-3" x1="290.48" y1="283.5" x2="464.83" y2="283.5" xlink:href="#linear-gradient"/><linearGradient id="linear-gradient-4" x1="220.09" y1="295" x2="258.42" y2="295" xlink:href="#linear-gradient"/><linearGradient id="linear-gradient-5" x1="226.14" y1="281.37" x2="294" y2="281.37" xlink:href="#linear-gradient"/><linearGradient id="linear-gradient-6" x1="378.17" y1="269.5" x2="378.17" y2="446.21" xlink:href="#linear-gradient"/><linearGradient id="linear-gradient-7" x1="463.88" y1="397.94" x2="467.7" y2="384.34" gradientTransform="matrix(-1, 0, 0, 1, 823.5, 0)" gradientUnits="userSpaceOnUse"><stop offset="0" stop-color="#f4a238"/><stop offset="1" stop-color="#ffc949"/></linearGradient><linearGradient id="linear-gradient-8" x1="463.21" y1="398.4" x2="458.49" y2="388.62" gradientTransform="matrix(-1, 0, 0, 1, 823.5, 0)" xlink:href="#linear-gradient"/><linearGradient id="linear-gradient-9" x1="469.09" y1="399.04" x2="470.78" y2="392.75" gradientTransform="matrix(-1, 0, 0, 1, 823.5, 0)" xlink:href="#linear-gradient"/></defs><title>B</title><g class="cls-1"><g id="BACKGROUND"><rect id="_Rectangle_" data-name="&lt;Rectangle&gt;" class="cls-2" width="750" height="500"/></g><g id="OBJECTS"><g id="_Group_" data-name="&lt;Group&gt;"><path id="_Path_" data-name="&lt;Path&gt;" class="cls-3" d="M428.51,355.27s-134.22.93-142.15,17.66-151,4.81-146.26,32.38,187.77,13.19,203.07,25.78S314.61,452.84,396,458.16,608.76,465,611.12,428.32s-65.61-39.11-89.72-39.11C469.85,389.21,500,359.67,428.51,355.27Z"/><ellipse id="_Path_2" data-name="&lt;Path&gt;" class="cls-4" cx="298.24" cy="382.92" rx="34.66" ry="4.39"/><path id="_Path_3" data-name="&lt;Path&gt;" class="cls-3" d="M490.53,319.31s141.08,16.47,132.67-110S493.89,6.43,373.27,54.86c-69.55,27.92-74.2,77.59-188.33,114.37s-60.2,173.59,72.48,170.32S461.49,278.46,490.53,319.31Z"/><path id="_Path_4" data-name="&lt;Path&gt;" class="cls-5" d="M539,228.74l1.8,1.65A8.84,8.84,0,0,0,539,228.74Z"/><g id="_Group_2" data-name="&lt;Group&gt;"><path id="_Path_5" data-name="&lt;Path&gt;" class="cls-6" d="M246.26,265s.41.32,1.13,1,1.75,1.62,3,2.89,2.75,2.89,4.37,4.79,3.34,4.14,5.18,6.61,3.66,5.25,5.48,8.26,3.61,6.25,5.32,9.68,3.31,7,4.88,10.75,2.92,7.56,4.13,11.46c.63,1.94,1.25,3.89,1.77,5.85l.82,2.93.72,2.94.71,2.92.62,2.91c.42,1.93.84,3.83,1.15,5.72s.72,3.73,1,5.56.52,3.61.8,5.35c.41,3.49.89,6.78,1.11,9.85l.41,4.39.27,4c.17,2.49.32,4.67.35,6.46l.14,4.17a10.64,10.64,0,0,0,.06,1.1,1.68,1.68,0,0,0,.72.28l.55.1.55-.09a1.61,1.61,0,0,0,.72-.28,10.78,10.78,0,0,0,0-1.11c0-1,0-2.4,0-4.21s0-4-.07-6.55l-.1-4-.28-4.46c-.16-3.11-.58-6.47-.92-10s-1-7.28-1.75-11.11c-.32-1.93-.75-3.86-1.18-5.83l-.67-3-.77-3-.79-3-.89-3c-.57-2-1.23-4-1.91-5.94-1.34-3.95-2.9-7.81-4.51-11.58s-3.45-7.38-5.35-10.79-3.89-6.62-5.88-9.59-4.05-5.65-6-8.08a88.82,88.82,0,0,0-10.43-10.82A42.39,42.39,0,0,0,246.26,265Z"/><path id="_Path_6" data-name="&lt;Path&gt;" class="cls-6" d="M261.5,282.17s1.29-3.16-4.15-11-8.4-20.38-2.79-19.52S264.63,275.25,261.5,282.17Z"/><path id="_Path_7" data-name="&lt;Path&gt;" class="cls-6" d="M272.43,299.26a87.91,87.91,0,0,0-1.35-17.19c-1.8-10.44-3.38-15.45,1.9-12.83S276.7,293.5,272.43,299.26Z"/><path id="_Path_8" data-name="&lt;Path&gt;" class="cls-6" d="M254.44,273S241,255.62,231.74,260,251.07,269.1,254.44,273Z"/><path id="_Path_9" data-name="&lt;Path&gt;" class="cls-7" d="M265.56,285.92S243.09,267.28,236.71,275,263.53,282.48,265.56,285.92Z"/><path id="_Path_10" data-name="&lt;Path&gt;" class="cls-6" d="M273.53,297.36s-23.17-13.85-26.26-5.59C243.84,301,270.1,292.86,273.53,297.36Z"/><path id="_Path_11" data-name="&lt;Path&gt;" class="cls-6" d="M281.08,318.7s-.44-27.65,2.14-32S290.82,294.36,281.08,318.7Z"/><path id="_Path_12" data-name="&lt;Path&gt;" class="cls-6" d="M276.58,307.24s-19-10.87-23-9.29S256,310.23,276.58,307.24Z"/><path id="_Path_13" data-name="&lt;Path&gt;" class="cls-6" d="M289.52,349.45s-17.2-15.29-21.31-14.69S269,347.46,289.52,349.45Z"/><path id="_Path_14" data-name="&lt;Path&gt;" class="cls-6" d="M290.41,368.67s-10.3-18.34-14.31-17.34S272.2,367.3,290.41,368.67Z"/><path id="_Path_15" data-name="&lt;Path&gt;" class="cls-6" d="M291.2,374.25s7-33.22,11.63-36.74S310.83,351.45,291.2,374.25Z"/><path id="_Path_16" data-name="&lt;Path&gt;" class="cls-6" d="M287.38,343.23s1.47-31.62,6.08-35.18S305.41,320.71,287.38,343.23Z"/><path id="_Path_17" data-name="&lt;Path&gt;" class="cls-6" d="M283.48,330.16s-13.71-18.54-20.27-11.61C257.35,324.74,283.48,330.16,283.48,330.16Z"/></g><g id="_Group_3" data-name="&lt;Group&gt;"><g id="_Group_4" data-name="&lt;Group&gt;"><path id="_Path_18" data-name="&lt;Path&gt;" class="cls-8" d="M573.82,211.58c-2.73-19-7.48-38.09-4.12-60.07A145,145,0,0,0,537,224.68c-2.35,16.9-1.89,34.91-10.29,49.76-5.94,10.5-15.68,18.22-23.52,27.39a93,93,0,0,0-21.43,68.11,14.54,14.54,0,0,0,13.85,13.13h0c17.39,5.8,38.5-5,43.93-22.54,2.6-8.39,1.93-17.48,4.05-26,3.25-13,12.62-23.49,19.4-35.08C579,272.21,579.23,249.15,573.82,211.58Z"/></g><path id="_Path_19" data-name="&lt;Path&gt;" class="cls-9" d="M560,175.06l-.6,2.43c-.34,1.59-.9,3.91-1.35,6.91a78.38,78.38,0,0,0-.86,10.86,141,141,0,0,0,.69,14.14c.46,5.19.87,10.86.86,16.88a148.84,148.84,0,0,1-1.21,18.89,92.68,92.68,0,0,1-4.76,19.78,117.65,117.65,0,0,1-9.07,18.92C536.53,296,528.09,307,521.55,318.17a133.05,133.05,0,0,0-8.38,16.55,119.9,119.9,0,0,0-5.26,15.72c-.59,2.5-1.19,4.89-1.58,7.21s-.77,4.5-1.05,6.58-.43,4-.63,5.83-.24,3.47-.32,5c-.19,3-.15,5.38-.17,7l0,2.48-2.7.06V382c0-1.64-.07-4.05.09-7.12.07-1.53.09-3.23.27-5.08s.26-3.85.57-6,.54-4.39,1-6.75,1-4.84,1.54-7.42a113.76,113.76,0,0,1,5.35-16.19,136.23,136.23,0,0,1,8.56-16.95c3.34-5.66,7.08-11.32,11-17s7.78-11.35,11.32-17.26a114.74,114.74,0,0,0,9-18.37,91.54,91.54,0,0,0,4.78-19.16,146.29,146.29,0,0,0,1.59-18.55c.13-5.93-.17-11.54-.38-16.75a142.41,142.41,0,0,1-.13-14.29,71.52,71.52,0,0,1,1.46-10.93c.63-3,1.32-5.29,1.79-6.85Z"/></g><g id="_Group_5" data-name="&lt;Group&gt;"><path id="_Path_20" data-name="&lt;Path&gt;" class="cls-10" d="M606.59,239.1l-.27.47c-.17.32-.46.76-.75,1.4a32,32,0,0,0-2.14,5.6,77.14,77.14,0,0,0-1.93,9.13c-.58,3.56-1.1,7.6-1.87,12A75,75,0,0,1,596,281.56a43.85,43.85,0,0,1-8.29,13.71,27,27,0,0,1-6.57,5.45,49,49,0,0,1-7.9,3.72c-5.45,2.11-11.24,3.65-16.19,6.71a20.68,20.68,0,0,0-6.24,5.81,22.57,22.57,0,0,0-3.32,7.79,41.72,41.72,0,0,0-.95,8.44,29.82,29.82,0,0,1-1.57,8.54A30.66,30.66,0,0,1,535.39,355a131.88,131.88,0,0,1-11.75,8.41,47.5,47.5,0,0,0-9.11,7.48,17.76,17.76,0,0,0-4.11,7.61,18.86,18.86,0,0,0-.47,5.58c0,.65.09,1.16.13,1.5l.06.51-2.68.35-.06-.57c0-.37-.09-.93-.12-1.66a21.46,21.46,0,0,1,.63-6.35,20.31,20.31,0,0,1,4.79-8.61,49.69,49.69,0,0,1,9.67-7.74,130.44,130.44,0,0,0,11.68-8.1,28.71,28.71,0,0,0,9.15-12.27,28,28,0,0,0,1.59-8,43.17,43.17,0,0,1,1.13-8.72,24.06,24.06,0,0,1,3.68-8.24,22,22,0,0,1,6.74-6.08c5.24-3.11,11.08-4.54,16.51-6.54s10.64-4.57,14.29-8.72a43.24,43.24,0,0,0,8.33-13.43,74.57,74.57,0,0,0,3.8-13.76c.82-4.36,1.38-8.39,2-11.95a77.28,77.28,0,0,1,2-9.12,32,32,0,0,1,2.21-5.59c.3-.63.59-1.07.76-1.39Z"/><path id="_Path_21" data-name="&lt;Path&gt;" class="cls-10" d="M606.59,239.1l-.27.47c-.17.32-.46.76-.75,1.4a32,32,0,0,0-2.14,5.6,77.14,77.14,0,0,0-1.93,9.13c-.58,3.56-1.1,7.6-1.87,12A75,75,0,0,1,596,281.56a43.85,43.85,0,0,1-8.29,13.71,27,27,0,0,1-6.57,5.45,49,49,0,0,1-7.9,3.72c-5.45,2.11-11.24,3.65-16.19,6.71a20.68,20.68,0,0,0-6.24,5.81,22.57,22.57,0,0,0-3.32,7.79,41.72,41.72,0,0,0-.95,8.44,29.82,29.82,0,0,1-1.57,8.54A30.66,30.66,0,0,1,535.39,355a131.88,131.88,0,0,1-11.75,8.41,47.5,47.5,0,0,0-9.11,7.48,17.76,17.76,0,0,0-4.11,7.61,18.86,18.86,0,0,0-.47,5.58c0,.65.09,1.16.13,1.5l.06.51-2.68.35-.06-.57c0-.37-.09-.93-.12-1.66a21.46,21.46,0,0,1,.63-6.35,20.31,20.31,0,0,1,4.79-8.61,49.69,49.69,0,0,1,9.67-7.74,130.44,130.44,0,0,0,11.68-8.1,28.71,28.71,0,0,0,9.15-12.27,28,28,0,0,0,1.59-8,43.17,43.17,0,0,1,1.13-8.72,24.06,24.06,0,0,1,3.68-8.24,22,22,0,0,1,6.74-6.08c5.24-3.11,11.08-4.54,16.51-6.54s10.64-4.57,14.29-8.72a43.24,43.24,0,0,0,8.33-13.43,74.57,74.57,0,0,0,3.8-13.76c.82-4.36,1.38-8.39,2-11.95a77.28,77.28,0,0,1,2-9.12,32,32,0,0,1,2.21-5.59c.3-.63.59-1.07.76-1.39Z"/></g><g id="_Group_6" data-name="&lt;Group&gt;"><rect id="_Rectangle_2" data-name="&lt;Rectangle&gt;" class="cls-6" x="406.43" y="177.9" width="128.34" height="213.21" rx="4.66" ry="4.66"/><rect id="_Rectangle_3" data-name="&lt;Rectangle&gt;" class="cls-2" x="413.47" y="193.79" width="114.26" height="179.83"/><path id="_Path_22" data-name="&lt;Path&gt;" class="cls-2" d="M490.37,187.22H450.84a1,1,0,0,1-1-1h0a1,1,0,0,1,1-1h39.53a1,1,0,0,1,1,1h0A1,1,0,0,1,490.37,187.22Z"/><rect id="_Rectangle_4" data-name="&lt;Rectangle&gt;" class="cls-11" x="417.82" y="203.61" width="58.84" height="57.32"/><rect id="_Rectangle_5" data-name="&lt;Rectangle&gt;" class="cls-11" x="417.82" y="268.08" width="104.85" height="8.55"/><rect id="_Rectangle_6" data-name="&lt;Rectangle&gt;" class="cls-11" x="417.82" y="283.51" width="104.85" height="8.55"/><rect id="_Rectangle_7" data-name="&lt;Rectangle&gt;" class="cls-11" x="417.82" y="298.93" width="104.85" height="8.55"/><rect id="_Rectangle_8" data-name="&lt;Rectangle&gt;" class="cls-11" x="417.82" y="330.2" width="104.85" height="8.55"/><rect id="_Rectangle_9" data-name="&lt;Rectangle&gt;" class="cls-11" x="417.82" y="361.47" width="104.85" height="8.55"/><rect id="_Rectangle_10" data-name="&lt;Rectangle&gt;" class="cls-11" x="417.82" y="314.36" width="81.33" height="8.55"/><rect id="_Rectangle_11" data-name="&lt;Rectangle&gt;" class="cls-11" x="484.25" y="204.21" width="38.42" height="14.15"/><rect id="_Rectangle_12" data-name="&lt;Rectangle&gt;" class="cls-11" x="484.25" y="225.45" width="38.42" height="14.15"/><rect id="_Rectangle_13" data-name="&lt;Rectangle&gt;" class="cls-11" x="484.25" y="246.7" width="38.42" height="14.15"/></g><g id="_Group_7" data-name="&lt;Group&gt;"><path id="_Compound_Path_" data-name="&lt;Compound Path&gt;" class="cls-6" d="M307.34,118.58c0,7.21-3,11.55-8,11.55-2.67,0-4.59-1.25-5.29-3.63a8.56,8.56,0,0,1-7.51,3.63c-5.75,0-10-4.38-10-10.63s4.25-10.55,10-10.55a8.68,8.68,0,0,1,7,3V109.2h4.63v14.18c0,2.13,1,2.84,2.17,2.84,2.25,0,3.5-2.63,3.5-7.55,0-8.92-6.51-14.93-16-14.93-9.68,0-16.1,6.46-16.1,15.55s6.34,15.64,15.93,15.64a18.42,18.42,0,0,0,8.09-1.84l1.13,3.34a21.73,21.73,0,0,1-9.22,2c-11.84,0-19.77-8-19.77-19.1s8-19,19.93-19C299.29,100.32,307.34,107.95,307.34,118.58Zm-13.76.92c0-4.13-2.67-6.5-6.17-6.5s-6.17,2.5-6.17,6.5,2.54,6.59,6.17,6.59S293.58,123.67,293.58,119.5Z"/></g><g id="_Group_8" data-name="&lt;Group&gt;"><g id="_Group_9" data-name="&lt;Group&gt;"><path id="_Path_23" data-name="&lt;Path&gt;" class="cls-6" d="M482.35,147.64c4.5,0,4.51-7,0-7s-4.51,7,0,7Z"/></g></g><g id="_Group_10" data-name="&lt;Group&gt;"><g id="_Group_11" data-name="&lt;Group&gt;"><rect id="_Rectangle_14" data-name="&lt;Rectangle&gt;" class="cls-6" x="200.51" y="156.34" width="129.16" height="75.93" rx="5.97" ry="5.97"/><path id="_Path_24" data-name="&lt;Path&gt;" class="cls-12" d="M320.87,232.27a8.75,8.75,0,0,0,4.78-1.42l-58.59-39.38-62.4,39.47a8.74,8.74,0,0,0,4.64,1.33Z"/><path id="_Path_25" data-name="&lt;Path&gt;" class="cls-13" d="M328.08,159.18a7.4,7.4,0,0,0-5.83-2.84H207.93a7.41,7.41,0,0,0-1.87.25l51.9,40a12.43,12.43,0,0,0,14.57.43Z"/></g><g id="_Group_12" data-name="&lt;Group&gt;"><g id="_Group_13" data-name="&lt;Group&gt;"><rect class="cls-6" x="141.03" y="177.58" width="55.87" height="3.82"/></g><g id="_Group_14" data-name="&lt;Group&gt;"><rect class="cls-6" x="161.26" y="189.88" width="37.43" height="3.82"/></g><g id="_Group_15" data-name="&lt;Group&gt;"><rect class="cls-6" x="133.73" y="201.57" width="51.56" height="3.82"/></g></g></g><ellipse id="_Path_26" data-name="&lt;Path&gt;" class="cls-4" cx="239.77" cy="407.98" rx="60.89" ry="4.63"/><ellipse id="_Path_27" data-name="&lt;Path&gt;" class="cls-4" cx="467.77" cy="390.86" rx="89.22" ry="5.43"/><g id="_Group_16" data-name="&lt;Group&gt;"><path id="_Path_28" data-name="&lt;Path&gt;" class="cls-14" d="M287.59,251.71s.49-2,1-3.34c.39-1.08,1.16.63,1.18.86l0,.23s1.79-3.73,3-3.1,2.07,1.45,2.38,4c.25,2.07-.2,1.32-1.58,2.79a20,20,0,0,1-3.08,2.62Z"/><path id="_Path_29" data-name="&lt;Path&gt;" class="cls-15" d="M245,263.77s11.84,2.21,22.19-1,20.33-12.43,20.33-12.43l4.72,4.6s-9.66,18.43-25.09,26.48c-11.45,6-27.89,9.84-32.78,8.43S237.76,262.77,245,263.77Z"/></g><g id="_Group_17" data-name="&lt;Group&gt;"><g id="_Group_18" data-name="&lt;Group&gt;"><path id="_Path_30" data-name="&lt;Path&gt;" class="cls-6" d="M249.29,150.63c8.32,0,8.33-12.3,0-12.3s-8.33,12.3,0,12.3Z"/></g></g><g id="_Group_19" data-name="&lt;Group&gt;"><path id="_Path_31" data-name="&lt;Path&gt;" class="cls-15" d="M461,233.54l-77.31-70.7a8.77,8.77,0,0,0-12,.14l-75.46,69.55-5,4.59,86.36,50.66,85.16-52.59Z"/><g id="_Group_20" data-name="&lt;Group&gt;"><rect id="_Rectangle_15" data-name="&lt;Rectangle&gt;" class="cls-16" x="334.82" y="154.43" width="127.46" height="144.3" rx="4.4" ry="4.4" transform="translate(29.61 -45.57) rotate(6.8)"/><g id="_Group_21" data-name="&lt;Group&gt;"><rect id="_Path_32" data-name="&lt;Path&gt;" class="cls-6" x="400.21" y="126.72" width="7.96" height="105.1" transform="translate(178.36 559.41) rotate(-83.2)"/><rect id="_Path_33" data-name="&lt;Path&gt;" class="cls-6" x="398.09" y="144.52" width="7.96" height="105.1" transform="translate(158.81 573) rotate(-83.2)"/><rect id="_Path_34" data-name="&lt;Path&gt;" class="cls-7" x="363.21" y="191.42" width="7.96" height="39.11" transform="translate(114.25 550.62) rotate(-83.2)"/><rect id="_Path_35" data-name="&lt;Path&gt;" class="cls-7" x="384.99" y="187.06" width="7.96" height="87" transform="translate(114.01 589.51) rotate(-83.2)"/><rect id="_Path_36" data-name="&lt;Path&gt;" class="cls-7" x="391.98" y="195.83" width="7.96" height="105.1" transform="translate(102.48 612.16) rotate(-83.2)"/></g></g><g id="_Group_22" data-name="&lt;Group&gt;"><rect id="_Rectangle_16" data-name="&lt;Rectangle&gt;" class="cls-17" x="313.92" y="170.81" width="127.46" height="144.3" rx="4.4" ry="4.4"/><g id="_Group_23" data-name="&lt;Group&gt;"><rect id="_Path_37" data-name="&lt;Path&gt;" class="cls-6" x="325.11" y="191.34" width="105.1" height="7.96"/><rect id="_Path_38" data-name="&lt;Path&gt;" class="cls-6" x="325.11" y="209.27" width="105.1" height="7.96"/><rect id="_Path_39" data-name="&lt;Path&gt;" class="cls-6" x="325.11" y="227.2" width="39.11" height="7.96"/><rect id="_Path_40" data-name="&lt;Path&gt;" class="cls-6" x="325.11" y="244.07" width="87" height="7.96"/><rect id="_Path_41" data-name="&lt;Path&gt;" class="cls-6" x="325.11" y="260.93" width="105.1" height="7.96"/></g></g><path id="_Path_42" data-name="&lt;Path&gt;" class="cls-18" d="M462.82,235.19l-85.16,52.59-86.36-50.66,5-4.59a8.79,8.79,0,0,0-5.79,8.26v84.89a8.8,8.8,0,0,0,8.8,8.8H456a8.8,8.8,0,0,0,8.8-8.8V240.79A8.76,8.76,0,0,0,462.82,235.19Z"/></g><g id="_Group_24" data-name="&lt;Group&gt;"><g id="_Group_25" data-name="&lt;Group&gt;"><polygon id="_Path_43" data-name="&lt;Path&gt;" class="cls-6" points="249.29 392.97 251.68 402.8 259.41 402.8 257.92 391.33 249.29 392.97"/><path id="_Path_44" data-name="&lt;Path&gt;" class="cls-14" d="M251.68,402.8l.64,6.51s11.33.72,13,.73c8.16.07-5.93-7.25-5.93-7.25Z"/></g><g id="_Group_26" data-name="&lt;Group&gt;"><polygon id="_Path_45" data-name="&lt;Path&gt;" class="cls-6" points="211.45 381.28 204.18 388.32 208.11 394.98 217.24 387.87 211.45 381.28"/><path id="_Path_46" data-name="&lt;Path&gt;" class="cls-14" d="M204.18,388.32l-5.29,3.86s5.13,10.13,6,11.6c4.08,7.07,3.23-8.79,3.23-8.79Z"/></g><path id="_Path_47" data-name="&lt;Path&gt;" class="cls-19" d="M226.42,322.94s-3-1.4-3,0,4,35.09,3,37-20.36,25-20.36,25l7.25,7.49s28.43-19.19,32.23-27.61S226.42,322.94,226.42,322.94Z"/><path id="_Path_48" data-name="&lt;Path&gt;" class="cls-20" d="M220.34,313.35s-.47,10.06,2.57,18.48,16.61,38.37,19,44.45,6.55,20.82,6.55,20.82h11V343.53c0-11.93-1.17-24.57-5.62-31.35S220.34,313.35,220.34,313.35Z"/><path id="_Path_49" data-name="&lt;Path&gt;" class="cls-13" d="M220.34,313.35s-.47,10.06,2.57,18.48,16.61,38.37,19,44.45,6.55,20.82,6.55,20.82h11V343.53c0-11.93-1.17-24.57-5.62-31.35S220.34,313.35,220.34,313.35Z"/><path id="_Path_50" data-name="&lt;Path&gt;" class="cls-21" d="M240.87,313.88s3.38,27.2,7.69,49.49,5.79,33.74,5.79,33.74"/><g id="_Group_27" data-name="&lt;Group&gt;"><path id="_Path_51" data-name="&lt;Path&gt;" class="cls-14" d="M246.65,259.15s-2,3.41,0,8.87c0,0-9.28-3.15-10.37-4.49,0,0,3.16-4.16,4.68-5.64Z"/><path id="_Path_52" data-name="&lt;Path&gt;" class="cls-22" d="M249.22,248.63s2.08-2.37,2.05-4.58-3.14,0-4.34,0c-1.38,0-6.1-2.87-8.32.63s-3.6,2.32-4.13,4.91,1.17,3.23,1,5.61,2.38,2.47,2.79,4.87c.27,1.57,1.69.23,3.15-.94.95-.76,3.14-.7,3.33-1.21C245.19,256.64,249.22,248.63,249.22,248.63Z"/><path id="_Path_53" data-name="&lt;Path&gt;" class="cls-14" d="M249.56,247.75s1.33,1.15,1.91,6.61c0,0,1.61-.1,1.45,1.34-.09.82-1.07.75-1.07.75s.33,5-2.2,5.55-5.61.07-7.15-1.12-1.6-3.62-.4-4,1.75,1.63,1.75,1.63.73-1.49-.56-3.85-1.05-3.44.61-3.43.51-2.31,1.91-3.16S248.25,250.21,249.56,247.75Z"/></g><path id="_Path_54" data-name="&lt;Path&gt;" class="cls-23" d="M236.28,263.53a82,82,0,0,0-13.82,33.38c-3.12,19.39-3,25.81-.75,26.54s26.8,6.42,36.7,0c0,0-1.24-25.89-5.94-39.45s-5.83-16.69-5.83-16.69Z"/></g><g id="_Group_28" data-name="&lt;Group&gt;"><path id="_Path_55" data-name="&lt;Path&gt;" class="cls-14" d="M291.3,277.15s1.34-1.6,2.36-2.56c.84-.79.75,1.09.67,1.3l-.08.22s3.27-2.53,4.05-1.43,1.2,2.23.33,4.65c-.7,2-.77,1.09-2.66,1.79a20,20,0,0,1-3.93,1Z"/><path id="_Path_56" data-name="&lt;Path&gt;" class="cls-24" d="M247.82,268.8s9.59,7.29,20.28,9.07,23.75-2,23.75-2l2.15,6.23s-16.9,12.13-34.3,12.39c-12.92.19-29.34-3.73-33.08-7.19S241.81,264.66,247.82,268.8Z"/></g><g id="_Group_29" data-name="&lt;Group&gt;"><rect id="_Rectangle_17" data-name="&lt;Rectangle&gt;" class="cls-25" x="375.58" y="87.52" width="96.12" height="56.51" rx="5.97" ry="5.97"/><path id="_Path_57" data-name="&lt;Path&gt;" class="cls-6" d="M379.45,142.52a8.76,8.76,0,0,0,4.93,1.51h78.53a8.75,8.75,0,0,0,5-1.56l-42.85-28.8Z"/><path id="_Path_58" data-name="&lt;Path&gt;" class="cls-6" d="M468.77,89.81a8.93,8.93,0,0,0-1.25-.94l0,0a8.79,8.79,0,0,0-1.38-.7l-.08,0a8.68,8.68,0,0,0-1.48-.43h-.09a8.77,8.77,0,0,0-1.6-.15H384.35a8.7,8.7,0,0,0-1.14.08l-.26,0a8.72,8.72,0,0,0-1,.22l-.08,0a8.86,8.86,0,0,0-2.17,1h0l37.13,28.58a9.37,9.37,0,0,0,10.84.32l1.71-1.17,39.38-26.79Z"/></g><path id="_Path_59" data-name="&lt;Path&gt;" class="cls-26" d="M441.21,310.06l-9.33-6.86-36.17-26.58-18.06,11.15-15.8-9.27-19.14,14.07-27.34,20.09-23.7,17.42a8.79,8.79,0,0,0,7.61,4.39H456a8.8,8.8,0,0,0,8.64-7.18Z"/><g id="_Group_30" data-name="&lt;Group&gt;"><g id="_Group_31" data-name="&lt;Group&gt;"><polygon id="_Path_60" data-name="&lt;Path&gt;" class="cls-27" points="501.88 224.44 486.5 211.28 456.11 249.25 501.88 224.44"/><polygon id="_Path_61" data-name="&lt;Path&gt;" class="cls-27" points="512.12 228.68 534.46 239.2 456.11 249.25 512.12 228.68"/></g><polygon id="_Path_62" data-name="&lt;Path&gt;" class="cls-28" points="457.2 247.88 501.88 224.44 501.29 232.65 457.2 247.88"/></g><g id="_Group_32" data-name="&lt;Group&gt;"><g id="_Group_33" data-name="&lt;Group&gt;"><path id="_Path_63" data-name="&lt;Path&gt;" class="cls-29" d="M317,144.3a23.19,23.19,0,0,1,1.43-2"/><path id="_Path_64" data-name="&lt;Path&gt;" class="cls-30" d="M320.32,139.94c8.29-9.24,32.43-27.76,77.43.15,68,42.15,154.1,13.62,150.42-19.63-5.35-48.34-82.35-.91-35.36,52.87,27.89,31.92,6.76,44.54-2.51,48.24"/><path id="_Path_65" data-name="&lt;Path&gt;" class="cls-29" d="M508.89,222.1c-1.46.51-2.38.74-2.38.74"/></g></g><path id="_Path_66" data-name="&lt;Path&gt;" class="cls-31" d="M224.71,255.9S214.37,281,198.6,286.53,155.84,308.94,180.82,338"/><ellipse id="_Path_67" data-name="&lt;Path&gt;" class="cls-3" cx="214.02" cy="120.48" rx="42.01" ry="25.01" transform="translate(-18.22 40.59) rotate(-10.39)"/><g id="_Group_34" data-name="&lt;Group&gt;"><path id="_Path_68" data-name="&lt;Path&gt;" class="cls-32" d="M361.63,394.88s-.39-13.7-5.11-14.71-5.39,8.54,0,18Z"/><path id="_Path_69" data-name="&lt;Path&gt;" class="cls-33" d="M356,383.77s1,3.33,3.23,12.68"/><path id="_Path_70" data-name="&lt;Path&gt;" class="cls-34" d="M363.27,398.15s7.19-7,4.5-10.34-9.44,2.47-11.24,10.34Z"/><path id="_Path_71" data-name="&lt;Path&gt;" class="cls-33" d="M365.74,389.73a25.52,25.52,0,0,0-5.28,7.42"/><path id="_Path_72" data-name="&lt;Path&gt;" class="cls-35" d="M357.18,398.15s-1.84-7.92-5.54-7.25,0,7.19,0,7.19Z"/><line id="_Path_73" data-name="&lt;Path&gt;" class="cls-33" x1="352.31" y1="392.48" x2="353.55" y2="397.09"/></g></g></g><g id="DESIGNED_BY_FREEPIK" data-name="DESIGNED BY FREEPIK"><g id="_Group_35" data-name="&lt;Group&gt;"><g id="_Group_36" data-name="&lt;Group&gt;"><g id="_Group_37" data-name="&lt;Group&gt;"><g id="_Group_38" data-name="&lt;Group&gt;"><path id="_Path_74" data-name="&lt;Path&gt;" class="cls-2" d="M385.1,465.47a7.49,7.49,0,0,0-1.11,1.45l-.46-.24a.6.6,0,1,0-.52.73.57.57,0,0,0,.18-.05l.45.23a7.27,7.27,0,0,0-.54,1.74l.75.13a6.6,6.6,0,0,1,1.79-3.47Z"/><path id="_Path_75" data-name="&lt;Path&gt;" class="cls-2" d="M390.59,463.17l-.51,0-.07-.63a.72.72,0,1,0-.75.09l.07.62a7.61,7.61,0,0,0-2.06.65l.33.68a7,7,0,0,1,4.47-.52l.16-.74A7.72,7.72,0,0,0,390.59,463.17Z"/><path id="_Path_76" data-name="&lt;Path&gt;" class="cls-2" d="M397.19,465.72a.6.6,0,1,0-.68-.59l-.42.36a7.71,7.71,0,0,0-1.41-1.14l-.4.64a6.75,6.75,0,0,1,2.56,2.92l.69-.31a7.43,7.43,0,0,0-.94-1.54l.4-.35A.59.59,0,0,0,397.19,465.72Z"/><path id="_Path_77" data-name="&lt;Path&gt;" class="cls-2" d="M390,473.38c-.39,0-.78,0-1.16,0a16,16,0,0,1-2.48-.18,8.51,8.51,0,0,1-1.27-.29,6.19,6.19,0,0,0,11.34-1.38,9.7,9.7,0,0,1-2.46,1.12A17,17,0,0,1,390,473.38Z"/><path id="_Compound_Path_2" data-name="&lt;Compound Path&gt;" class="cls-2" d="M390.59,464.69a6,6,0,0,0-6.08,5.94,5.86,5.86,0,0,0,.14,1.26c.67.48,2.71.89,5.35.73,2.88-.17,5.3-1,6.67-2.16a5.76,5.76,0,0,0,0-.58A6,6,0,0,0,390.59,464.69Zm-2.16,6.51a1.85,1.85,0,1,1,1.85-1.85A1.85,1.85,0,0,1,388.43,471.2Zm4.74-.91a1.36,1.36,0,1,1,1.36-1.36A1.36,1.36,0,0,1,393.17,470.29Z"/></g><path id="_Compound_Path_3" data-name="&lt;Compound Path&gt;" class="cls-2" d="M406.6,466.55a2.82,2.82,0,0,0-1.38-.24c-.55.07-.84.34-.84,1v.87h2.23v1.72h-2.23v5.45h-1.93V469.9H401.1v-1.72h1.34v-.89a2.46,2.46,0,0,1,2.57-2.78,3.94,3.94,0,0,1,1.59.31Z"/><path id="_Compound_Path_4" data-name="&lt;Compound Path&gt;" class="cls-2" d="M411.3,469.88a3.27,3.27,0,0,0-.53,0,1.43,1.43,0,0,0-1.51,1.61v3.91h-1.93v-7.17h1.87V469a2.26,2.26,0,0,1,2-1,1.8,1.8,0,0,1,1.09.34Z"/><path id="_Compound_Path_5" data-name="&lt;Compound Path&gt;" class="cls-2" d="M419,471.76a5.73,5.73,0,0,1,0,.65h-5.08a1.73,1.73,0,0,0,1.84,1.49,2.9,2.9,0,0,0,1.81-.69l1.13,1.24a4.35,4.35,0,0,1-3.06,1.09,3.78,3.78,0,0,1-.1-7.55A3.47,3.47,0,0,1,419,471.76Zm-5.11-.67H417a1.6,1.6,0,0,0-3.17,0Z"/><path id="_Compound_Path_6" data-name="&lt;Compound Path&gt;" class="cls-2" d="M426.62,471.76a5.7,5.7,0,0,1,0,.65H421.5a1.73,1.73,0,0,0,1.84,1.49,2.9,2.9,0,0,0,1.81-.69l1.13,1.24a4.35,4.35,0,0,1-3.06,1.09,3.78,3.78,0,0,1-.1-7.55A3.47,3.47,0,0,1,426.62,471.76Zm-5.11-.67h3.17a1.6,1.6,0,0,0-3.17,0Z"/><path id="_Compound_Path_7" data-name="&lt;Compound Path&gt;" class="cls-2" d="M435,471.77a3.55,3.55,0,0,1-3.47,3.78,2.63,2.63,0,0,1-2.11-.93v3.71h-1.92V468.19h1.89V469a2.6,2.6,0,0,1,2.14-1A3.55,3.55,0,0,1,435,471.77Zm-5.68,0a1.85,1.85,0,1,0,1.84-2A1.84,1.84,0,0,0,429.29,471.77Z"/><path id="_Compound_Path_8" data-name="&lt;Compound Path&gt;" class="cls-2" d="M438.07,465.84a1.23,1.23,0,1,1-1.24-1.24A1.21,1.21,0,0,1,438.07,465.84Zm-.26,9.52h-1.93v-7.17h1.93Z"/><path id="_Compound_Path_9" data-name="&lt;Compound Path&gt;" class="cls-2" d="M441,470.74l2.7-2.55h2.37l-3.48,3.38,3.5,3.8h-2.38l-2.72-2.9v2.9H439.1V464.7H441Z"/></g><g id="_Group_39" data-name="&lt;Group&gt;"><path id="_Compound_Path_10" data-name="&lt;Compound Path&gt;" class="cls-2" d="M309.41,475.29v-1.05a3,3,0,0,1-2.39,1.23c-1.85,0-3.15-1.41-3.15-3.71S305.16,468,307,468a3,3,0,0,1,2.39,1.25v-3.76h1.1v9.77Zm0-1.92v-3.21a2.65,2.65,0,0,0-2.12-1.14c-1.42,0-2.27,1.17-2.27,2.74s.85,2.72,2.27,2.72A2.63,2.63,0,0,0,309.41,473.38Z"/><path id="_Compound_Path_11" data-name="&lt;Compound Path&gt;" class="cls-2" d="M311.93,471.75a3.54,3.54,0,0,1,3.49-3.71c2.14,0,3.4,1.67,3.4,3.79v.28h-5.73a2.49,2.49,0,0,0,2.55,2.45,3.09,3.09,0,0,0,2.18-.89l.53.72a3.84,3.84,0,0,1-2.81,1.08A3.51,3.51,0,0,1,311.93,471.75Zm3.47-2.8a2.36,2.36,0,0,0-2.31,2.36h4.64A2.29,2.29,0,0,0,315.4,469Z"/><path id="_Compound_Path_12" data-name="&lt;Compound Path&gt;" class="cls-2" d="M319.61,474.36l.57-.79a3.21,3.21,0,0,0,2.33,1c1.08,0,1.67-.51,1.67-1.22,0-1.71-4.38-.66-4.38-3.28,0-1.1,1-2,2.64-2a3.58,3.58,0,0,1,2.62,1l-.51.76a2.75,2.75,0,0,0-2.11-.89c-1,0-1.57.48-1.57,1.11,0,1.55,4.38.53,4.38,3.28,0,1.19-1,2.14-2.78,2.14A3.76,3.76,0,0,1,319.61,474.36Z"/><path id="_Compound_Path_13" data-name="&lt;Compound Path&gt;" class="cls-2" d="M326.48,466.48a.74.74,0,1,1,1.48,0,.74.74,0,0,1-1.48,0Zm.19,8.82v-7.08h1.1v7.08Z"/><path id="_Compound_Path_14" data-name="&lt;Compound Path&gt;" class="cls-2" d="M329.58,477.11l.56-.82a2.7,2.7,0,0,0,2.3,1,2,2,0,0,0,2.27-2.12v-1a3,3,0,0,1-2.37,1.26c-1.85,0-3.15-1.38-3.15-3.66s1.29-3.68,3.15-3.68a2.93,2.93,0,0,1,2.37,1.25v-1.07h1.1v6.87c0,2.34-1.64,3.08-3.37,3.08A3.62,3.62,0,0,1,329.58,477.11Zm5.13-3.85v-3.09A2.61,2.61,0,0,0,332.6,469c-1.42,0-2.27,1.13-2.27,2.7s.85,2.7,2.27,2.7A2.62,2.62,0,0,0,334.71,473.26Z"/><path id="_Compound_Path_15" data-name="&lt;Compound Path&gt;" class="cls-2" d="M342.41,475.29v-4.63c0-1.25-.63-1.64-1.58-1.64a2.73,2.73,0,0,0-2.09,1.1v5.17h-1.1v-7.08h1.1v1a3.51,3.51,0,0,1,2.52-1.2,2,2,0,0,1,2.26,2.29v5Z"/><path id="_Compound_Path_16" data-name="&lt;Compound Path&gt;" class="cls-2" d="M344.93,471.75a3.54,3.54,0,0,1,3.49-3.71c2.14,0,3.4,1.67,3.4,3.79v.28h-5.73a2.49,2.49,0,0,0,2.55,2.45,3.09,3.09,0,0,0,2.18-.89l.53.72a3.84,3.84,0,0,1-2.81,1.08A3.51,3.51,0,0,1,344.93,471.75Zm3.47-2.8a2.36,2.36,0,0,0-2.31,2.36h4.64A2.29,2.29,0,0,0,348.4,469Z"/><path id="_Compound_Path_17" data-name="&lt;Compound Path&gt;" class="cls-2" d="M358.35,475.29v-1.05a3,3,0,0,1-2.39,1.23c-1.85,0-3.15-1.41-3.15-3.71S354.1,468,356,468a3,3,0,0,1,2.39,1.25v-3.76h1.1v9.77Zm0-1.92v-3.21a2.66,2.66,0,0,0-2.12-1.14c-1.42,0-2.27,1.17-2.27,2.74s.85,2.72,2.27,2.72A2.63,2.63,0,0,0,358.35,473.38Z"/><path id="_Compound_Path_18" data-name="&lt;Compound Path&gt;" class="cls-2" d="M364.69,475.29v-9.77h1.1v3.76a2.94,2.94,0,0,1,2.39-1.25c1.85,0,3.15,1.46,3.15,3.72s-1.3,3.71-3.15,3.71a3,3,0,0,1-2.39-1.23v1.05Zm3.21-.81c1.44,0,2.29-1.16,2.29-2.72s-.85-2.74-2.29-2.74a2.63,2.63,0,0,0-2.11,1.14v3.21A2.6,2.6,0,0,0,367.9,474.49Z"/><path id="_Compound_Path_19" data-name="&lt;Compound Path&gt;" class="cls-2" d="M372.53,477.07a1.69,1.69,0,0,0,.6.12,1,1,0,0,0,1.05-.75l.47-1.07-3-7.15h1.19l2.36,5.8,2.34-5.8h1.2l-3.54,8.51a2.1,2.1,0,0,1-2.08,1.44,3.52,3.52,0,0,1-.81-.1Z"/></g></g></g></g></g></svg>