<?xml version="1.0" encoding="UTF-8" standalone="no"?><!-- Generator: Gravit.io --><svg xmlns="http://www.w3.org/2000/svg" xmlns:xlink="http://www.w3.org/1999/xlink" style="isolation:isolate" viewBox="0 0 750 500" width="750pt" height="500pt"><defs><clipPath id="_clipPath_YKBFah0E8CC07hHQhwHLEGJhqme7d3QJ"><rect width="750" height="500"/></clipPath></defs><g clip-path="url(#_clipPath_YKBFah0E8CC07hHQhwHLEGJhqme7d3QJ)"><g><rect x="-769" y="5" width="750" height="500" transform="matrix(1,0,0,1,0,0)" fill="rgb(255,255,255)"/></g><g><g><path d=" M 428.51 355.27 C 428.51 355.27 294.29 356.2 286.36 372.93 C 286.36 372.93 135.36 377.74 140.1 405.31 C 140.1 405.31 327.87 418.5 343.17 431.09 C 358.47 443.68 314.61 452.84 396 458.16 C 477.39 463.48 608.76 465 611.12 428.32 C 613.48 391.64 545.51 389.21 521.4 389.21 C 469.85 389.21 500 359.67 428.51 355.27 Z " fill="rgb(242,241,239)"/><ellipse vector-effect="non-scaling-stroke" cx="298.24" cy="382.92" rx="34.65999999999997" ry="4.389999999999986" fill="rgb(242,241,239)"/><path d=" M 490.53 319.31 C 490.53 319.31 631.61 335.78 623.2 209.31 C 614.79 82.84 493.89 6.43 373.27 54.86 C 303.72 82.78 299.07 132.45 184.94 169.23 C 70.81 206.01 124.74 342.82 257.42 339.55 C 390.1 336.28 461.49 278.46 490.53 319.31 Z " fill="rgb(242,241,239)"/><linearGradient id="_lgradient_0" x1="-94.76111111111351" y1="0.5030303030303003" x2="2.094444444444491" y2="0.5030303030303003" gradientTransform="matrix(1.8,0,0,1.65,539,228.74)" gradientUnits="userSpaceOnUse"><stop offset="3%" stop-opacity="1" style="stop-color:rgb(238,190,45)"/><stop offset="100%" stop-opacity="1" style="stop-color:rgb(228,138,32)"/></linearGradient><path d=" M 539 228.74 L 540.8 230.39 C 540.279 229.759 539.673 229.204 539 228.74 L 539 228.74 Z " fill="url(#_lgradient_0)"/><g><path d=" M 246.26 265 C 246.26 265 246.67 265.32 247.39 266 C 247.39 266 249.14 267.62 250.39 268.89 C 250.39 268.89 253.14 271.78 254.76 273.68 C 254.76 273.68 258.1 277.82 259.94 280.29 C 259.94 280.29 263.6 285.54 265.42 288.55 C 265.42 288.55 269.03 294.8 270.74 298.23 C 270.74 298.23 274.05 305.23 275.62 308.98 C 275.62 308.98 278.54 316.54 279.75 320.44 C 280.38 322.38 281 324.33 281.52 326.29 L 282.34 329.22 L 283.06 332.16 L 283.77 335.08 L 284.39 337.99 C 284.81 339.92 285.23 341.82 285.54 343.71 C 285.85 345.6 286.26 347.44 286.54 349.27 C 286.82 351.1 287.06 352.88 287.34 354.62 C 287.75 358.11 288.23 361.4 288.45 364.47 L 288.86 368.86 L 289.13 372.86 C 289.3 375.35 289.45 377.53 289.48 379.32 L 289.62 383.49 C 289.621 383.857 289.641 384.225 289.68 384.59 C 289.895 384.738 290.142 384.834 290.4 384.87 L 290.95 384.97 L 291.5 384.88 C 291.759 384.846 292.006 384.75 292.22 384.6 C 292.239 384.23 292.239 383.86 292.22 383.49 C 292.22 382.49 292.22 381.09 292.22 379.28 C 292.22 377.47 292.22 375.28 292.15 372.73 L 292.05 368.73 L 291.77 364.27 C 291.61 361.16 291.19 357.8 290.85 354.27 C 290.51 350.74 289.85 346.99 289.1 343.16 C 288.78 341.23 288.35 339.3 287.92 337.33 L 287.25 334.33 L 286.48 331.33 L 285.69 328.33 L 284.8 325.33 C 284.23 323.33 283.57 321.33 282.89 319.39 C 281.55 315.44 279.99 311.58 278.38 307.81 C 276.77 304.04 274.93 300.43 273.03 297.02 C 271.13 293.61 269.14 290.4 267.15 287.43 C 265.16 284.46 263.1 281.78 261.15 279.35 C 257.985 275.455 254.496 271.836 250.72 268.53 C 249.314 267.255 247.824 266.075 246.26 265 L 246.26 265 Z " fill="rgb(32,197,186)"/><path d=" M 261.5 282.17 C 261.5 282.17 262.79 279.01 257.35 271.17 C 257.35 271.17 248.95 250.79 254.56 251.65 C 260.17 252.51 264.63 275.25 261.5 282.17 Z " fill="rgb(32,197,186)"/><path d=" M 272.43 299.26 C 272.544 293.5 272.092 287.742 271.08 282.07 C 269.28 271.63 267.7 266.62 272.98 269.24 C 278.26 271.86 276.7 293.5 272.43 299.26 Z " fill="rgb(32,197,186)"/><path d=" M 254.44 273 C 254.44 273 241 255.62 231.74 260 C 231.74 260 251.07 269.1 254.44 273 Z " fill="rgb(32,197,186)"/><path d=" M 265.56 285.92 C 265.56 285.92 243.09 267.28 236.71 275 C 236.71 275 263.53 282.48 265.56 285.92 Z " fill="rgb(30,68,193)"/><path d=" M 273.53 297.36 C 273.53 297.36 250.36 283.51 247.27 291.77 C 243.84 301 270.1 292.86 273.53 297.36 Z " fill="rgb(32,197,186)"/><path d=" M 281.08 318.7 C 281.08 318.7 280.64 291.05 283.22 286.7 C 285.8 282.35 290.82 294.36 281.08 318.7 Z " fill="rgb(32,197,186)"/><path d=" M 276.58 307.24 C 276.58 307.24 257.58 296.37 253.58 297.95 C 249.58 299.53 256 310.23 276.58 307.24 Z " fill="rgb(32,197,186)"/><path d=" M 289.52 349.45 C 289.52 349.45 272.32 334.16 268.21 334.76 C 264.1 335.36 269 347.46 289.52 349.45 Z " fill="rgb(32,197,186)"/><path d=" M 290.41 368.67 C 290.41 368.67 280.11 350.33 276.1 351.33 C 272.09 352.33 272.2 367.3 290.41 368.67 Z " fill="rgb(32,197,186)"/><path d=" M 291.2 374.25 C 291.2 374.25 298.2 341.03 302.83 337.51 C 307.46 333.99 310.83 351.45 291.2 374.25 Z " fill="rgb(32,197,186)"/><path d=" M 287.38 343.23 C 287.38 343.23 288.85 311.61 293.46 308.05 C 298.07 304.49 305.41 320.71 287.38 343.23 Z " fill="rgb(32,197,186)"/><path d=" M 283.48 330.16 C 283.48 330.16 269.77 311.62 263.21 318.55 C 257.35 324.74 283.48 330.16 283.48 330.16 Z " fill="rgb(32,197,186)"/></g><g><g><linearGradient id="_lgradient_1" x1="0.0004152188676567192" y1="0.5000063785034206" x2="0.999927041691727" y2="0.5000063785034206" gradientTransform="matrix(95.607,0,0,233.137,481.39,151.51)" gradientUnits="userSpaceOnUse"><stop offset="0%" stop-opacity="1" style="stop-color:rgb(244,186,56)"/><stop offset="100%" stop-opacity="1" style="stop-color:rgb(255,211,73)"/></linearGradient><path d=" M 573.82 211.58 C 571.09 192.58 566.34 173.49 569.7 151.51 C 552.142 172.343 540.809 197.702 537 224.68 C 534.65 241.58 535.11 259.59 526.71 274.44 C 520.77 284.94 511.03 292.66 503.19 301.83 C 487.269 320.778 479.556 345.29 481.76 369.94 C 482.457 377.158 488.365 382.759 495.61 383.07 L 495.61 383.07 C 513 388.87 534.11 378.07 539.54 360.53 C 542.14 352.14 541.47 343.05 543.59 334.53 C 546.84 321.53 556.21 311.04 562.99 299.45 C 579 272.21 579.23 249.15 573.82 211.58 Z " fill="url(#_lgradient_1)"/></g><linearGradient id="_lgradient_2" x1="0" y1="0.5" x2="1" y2="0.5" gradientTransform="matrix(58.555,0,0,209.54,501.445,175.06)" gradientUnits="userSpaceOnUse"><stop offset="100%" stop-opacity="1" style="stop-color:rgb(244,186,56)"/><stop offset="100%" stop-opacity="1" style="stop-color:rgb(244,186,56)"/></linearGradient><path d=" M 560 175.06 L 559.4 177.49 C 559.06 179.08 558.5 181.4 558.05 184.4 C 557.512 187.996 557.224 191.624 557.19 195.26 C 557.183 199.982 557.413 204.701 557.88 209.4 C 558.34 214.59 558.75 220.26 558.74 226.28 C 558.738 232.596 558.334 238.905 557.53 245.17 C 556.674 251.918 555.078 258.551 552.77 264.95 C 550.316 271.514 547.281 277.846 543.7 283.87 C 536.53 296 528.09 307 521.55 318.17 C 518.375 323.485 515.575 329.015 513.17 334.72 C 511.056 339.832 509.299 345.085 507.91 350.44 C 507.32 352.94 506.72 355.33 506.33 357.65 C 505.94 359.97 505.56 362.15 505.28 364.23 C 505 366.31 504.85 368.23 504.65 370.06 C 504.45 371.89 504.41 373.53 504.33 375.06 C 504.14 378.06 504.18 380.44 504.16 382.06 L 504.16 384.54 L 501.46 384.6 L 501.46 382 C 501.46 380.36 501.39 377.95 501.55 374.88 C 501.62 373.35 501.64 371.65 501.82 369.8 C 502 367.95 502.08 365.95 502.39 363.8 C 502.7 361.65 502.93 359.41 503.39 357.05 C 503.85 354.69 504.39 352.21 504.93 349.63 C 506.306 344.107 508.094 338.695 510.28 333.44 C 512.736 327.598 515.596 321.934 518.84 316.49 C 522.18 310.83 525.92 305.17 529.84 299.49 C 533.76 293.81 537.62 288.14 541.16 282.23 C 544.701 276.387 547.713 270.239 550.16 263.86 C 552.44 257.664 554.042 251.24 554.94 244.7 C 555.863 238.557 556.394 232.361 556.53 226.15 C 556.66 220.22 556.36 214.61 556.15 209.4 C 555.868 204.642 555.824 199.873 556.02 195.11 C 556.225 191.435 556.713 187.78 557.48 184.18 C 558.11 181.18 558.8 178.89 559.27 177.33 L 560 175.06 Z " fill="url(#_lgradient_2)"/></g><g><path d=" M 606.59 239.1 L 606.32 239.57 C 606.15 239.89 605.86 240.33 605.57 240.97 C 604.683 242.766 603.967 244.64 603.43 246.57 C 602.603 249.572 601.958 252.621 601.5 255.7 C 600.92 259.26 600.4 263.3 599.63 267.7 C 598.865 272.425 597.65 277.066 596 281.56 C 594.102 286.6 591.292 291.248 587.71 295.27 C 585.823 297.424 583.605 299.263 581.14 300.72 C 578.623 302.193 575.979 303.438 573.24 304.44 C 567.79 306.55 562 308.09 557.05 311.15 C 554.589 312.632 552.464 314.611 550.81 316.96 C 549.222 319.324 548.095 321.967 547.49 324.75 C 546.887 327.524 546.569 330.352 546.54 333.19 C 546.436 336.098 545.907 338.975 544.97 341.73 C 543.038 346.94 539.727 351.526 535.39 355 C 531.63 358.016 527.707 360.824 523.64 363.41 C 520.305 365.515 517.244 368.028 514.53 370.89 C 512.554 373.049 511.142 375.663 510.42 378.5 C 509.987 380.326 509.828 382.207 509.95 384.08 C 509.95 384.73 510.04 385.24 510.08 385.58 L 510.14 386.09 L 507.46 386.44 L 507.4 385.87 C 507.4 385.5 507.31 384.94 507.28 384.21 C 507.172 382.074 507.385 379.933 507.91 377.86 C 508.776 374.64 510.421 371.683 512.7 369.25 C 515.588 366.277 518.836 363.677 522.37 361.51 C 526.408 359.024 530.307 356.32 534.05 353.41 C 538.154 350.223 541.317 345.983 543.2 341.14 C 544.118 338.565 544.653 335.87 544.79 333.14 C 544.869 330.202 545.248 327.281 545.92 324.42 C 546.616 321.466 547.865 318.67 549.6 316.18 C 551.4 313.707 553.695 311.636 556.34 310.1 C 561.58 306.99 567.42 305.56 572.85 303.56 C 578.28 301.56 583.49 298.99 587.14 294.84 C 590.718 290.913 593.542 286.36 595.47 281.41 C 597.174 276.955 598.446 272.348 599.27 267.65 C 600.09 263.29 600.65 259.26 601.27 255.7 C 601.752 252.622 602.42 249.577 603.27 246.58 C 603.83 244.651 604.57 242.78 605.48 240.99 C 605.78 240.36 606.07 239.92 606.24 239.6 L 606.59 239.1 Z " fill="rgb(114,139,242)"/><path d=" M 606.59 239.1 L 606.32 239.57 C 606.15 239.89 605.86 240.33 605.57 240.97 C 604.683 242.766 603.967 244.64 603.43 246.57 C 602.603 249.572 601.958 252.621 601.5 255.7 C 600.92 259.26 600.4 263.3 599.63 267.7 C 598.865 272.425 597.65 277.066 596 281.56 C 594.102 286.6 591.292 291.248 587.71 295.27 C 585.823 297.424 583.605 299.263 581.14 300.72 C 578.623 302.193 575.979 303.438 573.24 304.44 C 567.79 306.55 562 308.09 557.05 311.15 C 554.589 312.632 552.464 314.611 550.81 316.96 C 549.222 319.324 548.095 321.967 547.49 324.75 C 546.887 327.524 546.569 330.352 546.54 333.19 C 546.436 336.098 545.907 338.975 544.97 341.73 C 543.038 346.94 539.727 351.526 535.39 355 C 531.63 358.016 527.707 360.824 523.64 363.41 C 520.305 365.515 517.244 368.028 514.53 370.89 C 512.554 373.049 511.142 375.663 510.42 378.5 C 509.987 380.326 509.828 382.207 509.95 384.08 C 509.95 384.73 510.04 385.24 510.08 385.58 L 510.14 386.09 L 507.46 386.44 L 507.4 385.87 C 507.4 385.5 507.31 384.94 507.28 384.21 C 507.172 382.074 507.385 379.933 507.91 377.86 C 508.776 374.64 510.421 371.683 512.7 369.25 C 515.588 366.277 518.836 363.677 522.37 361.51 C 526.408 359.024 530.307 356.32 534.05 353.41 C 538.154 350.223 541.317 345.983 543.2 341.14 C 544.118 338.565 544.653 335.87 544.79 333.14 C 544.869 330.202 545.248 327.281 545.92 324.42 C 546.616 321.466 547.865 318.67 549.6 316.18 C 551.4 313.707 553.695 311.636 556.34 310.1 C 561.58 306.99 567.42 305.56 572.85 303.56 C 578.28 301.56 583.49 298.99 587.14 294.84 C 590.718 290.913 593.542 286.36 595.47 281.41 C 597.174 276.955 598.446 272.348 599.27 267.65 C 600.09 263.29 600.65 259.26 601.27 255.7 C 601.752 252.622 602.42 249.577 603.27 246.58 C 603.83 244.651 604.57 242.78 605.48 240.99 C 605.78 240.36 606.07 239.92 606.24 239.6 L 606.59 239.1 Z " fill="rgb(114,139,242)"/></g><g><path d="M 411.09 177.9 L 530.11 177.9 C 532.682 177.9 534.77 179.988 534.77 182.56 L 534.77 386.45 C 534.77 389.022 532.682 391.11 530.11 391.11 L 411.09 391.11 C 408.518 391.11 406.43 389.022 406.43 386.45 L 406.43 182.56 C 406.43 179.988 408.518 177.9 411.09 177.9 Z" style="stroke:none;fill:#20C5BA;stroke-miterlimit:10;"/><rect x="413.47" y="193.79" width="114.26" height="179.83" transform="matrix(1,0,0,1,0,0)" fill="rgb(255,255,255)"/><path d=" M 490.37 187.22 L 450.84 187.22 C 450.288 187.22 449.84 186.772 449.84 186.22 L 449.84 186.22 C 449.84 185.668 450.288 185.22 450.84 185.22 L 490.37 185.22 C 490.922 185.22 491.37 185.668 491.37 186.22 L 491.37 186.22 C 491.37 186.772 490.922 187.22 490.37 187.22 Z " fill="rgb(255,255,255)"/><rect x="417.82" y="203.61" width="58.84" height="57.32" transform="matrix(1,0,0,1,0,0)" fill="rgb(237,237,237)"/><rect x="417.82" y="268.08" width="104.85" height="8.55" transform="matrix(1,0,0,1,0,0)" fill="rgb(237,237,237)"/><rect x="417.82" y="283.51" width="104.85" height="8.55" transform="matrix(1,0,0,1,0,0)" fill="rgb(237,237,237)"/><rect x="417.82" y="298.93" width="104.85" height="8.55" transform="matrix(1,0,0,1,0,0)" fill="rgb(237,237,237)"/><rect x="417.82" y="330.2" width="104.85" height="8.55" transform="matrix(1,0,0,1,0,0)" fill="rgb(237,237,237)"/><rect x="417.82" y="361.47" width="104.85" height="8.55" transform="matrix(1,0,0,1,0,0)" fill="rgb(237,237,237)"/><rect x="417.82" y="314.36" width="81.33" height="8.55" transform="matrix(1,0,0,1,0,0)" fill="rgb(237,237,237)"/><rect x="484.25" y="204.21" width="38.42" height="14.15" transform="matrix(1,0,0,1,0,0)" fill="rgb(237,237,237)"/><rect x="484.25" y="225.45" width="38.42" height="14.15" transform="matrix(1,0,0,1,0,0)" fill="rgb(237,237,237)"/><rect x="484.25" y="246.7" width="38.42" height="14.15" transform="matrix(1,0,0,1,0,0)" fill="rgb(237,237,237)"/></g><g><path d=" M 307.34 118.58 C 307.34 125.79 304.34 130.13 299.34 130.13 C 296.67 130.13 294.75 128.88 294.05 126.5 C 292.345 128.93 289.503 130.304 286.54 130.13 C 280.79 130.13 276.54 125.75 276.54 119.5 C 276.54 113.25 280.79 108.95 286.54 108.95 C 289.211 108.818 291.793 109.925 293.54 111.95 L 293.54 109.2 L 298.17 109.2 L 298.17 123.38 C 298.17 125.51 299.17 126.22 300.34 126.22 C 302.59 126.22 303.84 123.59 303.84 118.67 C 303.84 109.75 297.33 103.74 287.84 103.74 C 278.16 103.74 271.74 110.2 271.74 119.29 C 271.74 128.38 278.08 134.93 287.67 134.93 C 290.472 134.94 293.238 134.311 295.76 133.09 L 296.89 136.43 C 294 137.764 290.853 138.447 287.67 138.43 C 275.83 138.43 267.9 130.43 267.9 119.33 C 267.9 108.23 275.9 100.33 287.83 100.33 C 299.29 100.32 307.34 107.95 307.34 118.58 Z  M 293.58 119.5 C 293.58 115.37 290.91 113 287.41 113 C 283.91 113 281.24 115.5 281.24 119.5 C 281.24 123.5 283.78 126.09 287.41 126.09 C 291.04 126.09 293.58 123.67 293.58 119.5 Z " fill="rgb(32,197,186)"/></g><g><g><path d=" M 482.35 147.64 C 486.85 147.64 486.86 140.64 482.35 140.64 C 477.84 140.64 477.84 147.64 482.35 147.64 Z " fill="rgb(32,197,186)"/></g></g><g><g><path d="M 206.48 156.34 L 323.7 156.34 C 326.995 156.34 329.67 159.015 329.67 162.31 L 329.67 226.3 C 329.67 229.595 326.995 232.27 323.7 232.27 L 206.48 232.27 C 203.185 232.27 200.51 229.595 200.51 226.3 L 200.51 162.31 C 200.51 159.015 203.185 156.34 206.48 156.34 Z" style="stroke:none;fill:#20C5BA;stroke-miterlimit:10;"/><path d=" M 320.87 232.27 C 322.567 232.27 324.228 231.777 325.65 230.85 L 267.06 191.47 L 204.66 230.94 C 206.051 231.81 207.659 232.271 209.3 232.27 L 320.87 232.27 Z " fill="rgb(32,185,185)"/><path d=" M 328.08 159.18 C 326.677 157.387 324.527 156.339 322.25 156.34 L 207.93 156.34 C 207.299 156.343 206.67 156.427 206.06 156.59 L 257.96 196.59 C 262.214 199.865 268.09 200.038 272.53 197.02 L 328.08 159.18 Z " fill="rgb(33,183,175)"/></g><g><g><rect x="141.03" y="177.58" width="55.87" height="3.82" transform="matrix(1,0,0,1,0,0)" fill="rgb(32,197,186)"/></g><g><rect x="161.26" y="189.88" width="37.43" height="3.82" transform="matrix(1,0,0,1,0,0)" fill="rgb(32,197,186)"/></g><g><rect x="133.73" y="201.57" width="51.56" height="3.82" transform="matrix(1,0,0,1,0,0)" fill="rgb(32,197,186)"/></g></g></g><ellipse vector-effect="non-scaling-stroke" cx="239.76999999999998" cy="407.98" rx="60.889999999999986" ry="4.6299999999999955" fill="rgb(242,241,239)"/><ellipse vector-effect="non-scaling-stroke" cx="467.77" cy="390.86" rx="89.22000000000003" ry="5.430000000000007" fill="rgb(242,241,239)"/><g><path d=" M 287.59 251.71 C 287.59 251.71 288.08 249.71 288.59 248.37 C 288.98 247.29 289.75 249 289.77 249.23 L 289.77 249.46 C 289.77 249.46 291.56 245.73 292.77 246.36 C 292.77 246.36 294.84 247.81 295.15 250.36 C 295.4 252.43 294.95 251.68 293.57 253.15 C 292.634 254.125 291.603 255.003 290.49 255.77 L 287.59 251.71 Z " fill="rgb(248,196,154)"/><path d=" M 245 263.77 C 245 263.77 256.84 265.98 267.19 262.77 C 267.19 262.77 287.52 250.34 287.52 250.34 L 292.24 254.94 C 292.24 254.94 282.58 273.37 267.15 281.42 C 255.7 287.42 239.26 291.26 234.37 289.85 C 229.48 288.44 237.76 262.77 245 263.77 Z " fill="rgb(253,169,57)"/></g><g><g><path d=" M 249.29 150.63 C 257.61 150.63 257.62 138.33 249.29 138.33 C 240.96 138.33 240.96 150.63 249.29 150.63 Z " fill="rgb(32,197,186)"/></g></g><g><path d=" M 461 233.54 L 383.69 162.84 C 380.279 159.714 375.027 159.775 371.69 162.98 L 296.23 232.53 L 291.23 237.12 L 377.59 287.78 L 462.75 235.19 L 461 233.54 Z " fill="rgb(253,169,57)"/><g><path d="M 348.159 147.939 L 465.984 161.988 C 468.395 162.276 470.12 164.467 469.832 166.878 L 453.788 301.425 C 453.501 303.837 451.31 305.561 448.898 305.273 L 331.073 291.224 C 328.662 290.936 326.937 288.745 327.225 286.334 L 343.269 151.787 C 343.556 149.375 345.747 147.651 348.159 147.939 Z" style="stroke:none;fill:#20A4AD;stroke-miterlimit:10;"/><g><rect x="400.247" y="126.74" width="7.96" height="105.1" transform="matrix(0.118,-0.993,0.993,0.118,178.336,559.444)" fill="rgb(32,197,186)"/><rect x="398.12" y="144.542" width="7.96" height="105.1" transform="matrix(0.118,-0.993,0.993,0.118,158.784,573.028)" fill="rgb(32,197,186)"/><rect x="363.238" y="191.438" width="7.96" height="39.11" transform="matrix(0.118,-0.993,0.993,0.118,114.229,550.645)" fill="rgb(30,68,193)"/><rect x="385.024" y="187.075" width="7.96" height="87" transform="matrix(0.118,-0.993,0.993,0.118,113.991,589.542)" fill="rgb(30,68,193)"/><rect x="392.016" y="195.845" width="7.96" height="105.1" transform="matrix(0.118,-0.993,0.993,0.118,102.461,612.194)" fill="rgb(30,68,193)"/></g></g><g><path d="M 318.32 170.81 L 436.98 170.81 C 439.408 170.81 441.38 172.782 441.38 175.21 L 441.38 310.71 C 441.38 313.138 439.408 315.11 436.98 315.11 L 318.32 315.11 C 315.892 315.11 313.92 313.138 313.92 310.71 L 313.92 175.21 C 313.92 172.782 315.892 170.81 318.32 170.81 Z" style="stroke:none;fill:#FFFFF5;stroke-miterlimit:10;"/><g><rect x="325.11" y="191.34" width="105.1" height="7.96" transform="matrix(1,0,0,1,0,0)" fill="rgb(32,197,186)"/><rect x="325.11" y="209.27" width="105.1" height="7.96" transform="matrix(1,0,0,1,0,0)" fill="rgb(32,197,186)"/><rect x="325.11" y="227.2" width="39.11" height="7.96" transform="matrix(1,0,0,1,0,0)" fill="rgb(32,197,186)"/><rect x="325.11" y="244.07" width="87" height="7.96" transform="matrix(1,0,0,1,0,0)" fill="rgb(32,197,186)"/><rect x="325.11" y="260.93" width="105.1" height="7.96" transform="matrix(1,0,0,1,0,0)" fill="rgb(32,197,186)"/></g></g><linearGradient id="_lgradient_3" x1="0" y1="0.5" x2="1" y2="0.5" gradientTransform="matrix(174.29,0,0,101.95,290.51,232.53)" gradientUnits="userSpaceOnUse"><stop offset="100%" stop-opacity="1" style="stop-color:rgb(244,186,56)"/><stop offset="100%" stop-opacity="1" style="stop-color:rgb(244,186,56)"/></linearGradient><path d=" M 462.82 235.19 L 377.66 287.78 L 291.3 237.12 L 296.3 232.53 C 292.825 233.792 290.511 237.093 290.51 240.79 L 290.51 325.68 C 290.51 328.014 291.437 330.252 293.087 331.903 C 294.738 333.553 296.976 334.48 299.31 334.48 L 456 334.48 C 458.334 334.48 460.572 333.553 462.223 331.903 C 463.873 330.252 464.8 328.014 464.8 325.68 L 464.8 240.79 C 464.812 238.75 464.112 236.769 462.82 235.19 L 462.82 235.19 Z " fill="url(#_lgradient_3)"/></g><g><g><path d=" M 249.29 392.97 L 251.68 402.8 L 259.41 402.8 L 257.92 391.33 L 249.29 392.97 L 249.29 392.97 Z " fill="rgb(32,197,186)"/><path d=" M 251.68 402.8 L 252.32 409.31 C 252.32 409.31 263.65 410.03 265.32 410.04 C 273.48 410.11 259.39 402.79 259.39 402.79 L 251.68 402.8 Z " fill="rgb(248,196,154)"/></g><g><path d=" M 211.45 381.28 L 204.18 388.32 L 208.11 394.98 L 217.24 387.87 L 211.45 381.28 L 211.45 381.28 Z " fill="rgb(32,197,186)"/><path d=" M 204.18 388.32 L 198.89 392.18 C 198.89 392.18 204.02 402.31 204.89 403.78 C 208.97 410.85 208.12 394.99 208.12 394.99 L 204.18 388.32 Z " fill="rgb(248,196,154)"/></g><path d=" M 226.42 322.94 C 226.42 322.94 223.42 321.54 223.42 322.94 C 223.42 322.94 227.42 358.03 226.42 359.94 C 226.42 359.94 206.06 384.94 206.06 384.94 L 213.31 392.43 C 213.31 392.43 241.74 373.24 245.54 364.82 C 249.34 356.4 226.42 322.94 226.42 322.94 Z " fill="rgb(34,175,175)"/><path d=" M 220.34 313.35 C 220.34 313.35 219.87 323.41 222.91 331.83 C 222.91 331.83 239.52 370.2 241.91 376.28 C 241.91 376.28 248.46 397.1 248.46 397.1 L 259.46 397.1 L 259.46 343.53 C 259.46 331.6 258.29 318.96 253.84 312.18 C 249.39 305.4 220.34 313.35 220.34 313.35 Z " fill="rgb(62,106,250)"/><path d=" M 220.34 313.35 C 220.34 313.35 219.87 323.41 222.91 331.83 C 222.91 331.83 239.52 370.2 241.91 376.28 C 241.91 376.28 248.46 397.1 248.46 397.1 L 259.46 397.1 L 259.46 343.53 C 259.46 331.6 258.29 318.96 253.84 312.18 C 249.39 305.4 220.34 313.35 220.34 313.35 Z " fill="rgb(33,183,175)"/><mask id="_mask_BgcFCe6w2bXmVq08TvyF0gQ5a5d9kEUY" x="-200%" y="-200%" width="400%" height="400%"><rect x="-200%" y="-200%" width="400%" height="400%" style="fill:white;"/><path d=" M 240.87 313.88 C 240.87 313.88 244.25 341.08 248.56 363.37 C 248.56 363.37 254.35 397.11 254.35 397.11" fill="black" stroke="none"/></mask><path d=" M 240.87 313.88 C 240.87 313.88 244.25 341.08 248.56 363.37 C 248.56 363.37 254.35 397.11 254.35 397.11" fill="rgb(0,71,37)" mask="url(#_mask_BgcFCe6w2bXmVq08TvyF0gQ5a5d9kEUY)" vector-effect="non-scaling-stroke" stroke-width="2" stroke="rgb(28,0,0)" stroke-linejoin="miter" stroke-linecap="butt" stroke-miterlimit="10"/><path d=" M 240.87 313.88 C 240.87 313.88 244.25 341.08 248.56 363.37 C 248.56 363.37 254.35 397.11 254.35 397.11" fill="rgb(0,71,37)"/><g><path d=" M 246.65 259.15 C 246.65 259.15 244.65 262.56 246.65 268.02 C 246.65 268.02 237.37 264.87 236.28 263.53 C 236.28 263.53 239.44 259.37 240.96 257.89 L 246.65 259.15 Z " fill="rgb(248,196,154)"/><path d=" M 249.22 248.63 C 249.22 248.63 251.3 246.26 251.27 244.05 C 251.27 244.05 248.13 244.05 246.93 244.05 C 245.55 244.05 240.83 241.18 238.61 244.68 C 236.39 248.18 235.01 247 234.48 249.59 C 233.95 252.18 235.65 252.82 235.48 255.2 C 235.31 257.58 237.86 257.67 238.27 260.07 C 238.54 261.64 239.96 260.3 241.42 259.13 C 242.37 258.37 244.56 258.43 244.75 257.92 C 245.19 256.64 249.22 248.63 249.22 248.63 Z " fill="rgb(11,0,143)"/><path d=" M 249.56 247.75 C 249.56 247.75 250.89 248.9 251.47 254.36 C 251.47 254.36 253.08 254.26 252.92 255.7 C 252.83 256.52 251.85 256.45 251.85 256.45 C 251.85 256.45 252.18 261.45 249.65 262 C 247.12 262.55 244.04 262.07 242.5 260.88 C 240.96 259.69 240.9 257.26 242.1 256.88 C 243.3 256.5 243.85 258.51 243.85 258.51 C 243.85 258.51 244.58 257.02 243.29 254.66 C 242 252.3 242.24 251.22 243.9 251.23 C 245.56 251.24 244.41 248.92 245.81 248.07 C 247.21 247.22 248.25 250.21 249.56 247.75 Z " fill="rgb(248,196,154)"/></g><linearGradient id="_lgradient_4" x1="0" y1="0.5" x2="1" y2="0.5" gradientTransform="matrix(38.346,0,0,62.943,220.064,263.53)" gradientUnits="userSpaceOnUse"><stop offset="100%" stop-opacity="1" style="stop-color:rgb(244,186,56)"/><stop offset="100%" stop-opacity="1" style="stop-color:rgb(244,187,56)"/></linearGradient><path d=" M 236.28 263.53 C 229.249 273.491 224.528 284.894 222.46 296.91 C 219.34 316.3 219.46 322.72 221.71 323.45 C 223.96 324.18 248.51 329.87 258.41 323.45 C 258.41 323.45 257.17 297.56 252.47 284 C 247.77 270.44 246.64 267.31 246.64 267.31 L 236.28 263.53 Z " fill="url(#_lgradient_4)"/></g><g><path d=" M 291.3 277.15 C 291.3 277.15 292.64 275.55 293.66 274.59 C 294.5 273.8 294.41 275.68 294.33 275.89 L 294.25 276.11 C 294.25 276.11 297.52 273.58 298.3 274.68 C 298.3 274.68 299.5 276.91 298.63 279.33 C 297.93 281.33 297.86 280.42 295.97 281.12 C 294.697 281.586 293.38 281.921 292.04 282.12 L 291.3 277.15 Z " fill="rgb(248,196,154)"/><linearGradient id="_lgradient_5" x1="0" y1="0.5" x2="1" y2="0.5" gradientTransform="matrix(67.865,0,0,26.279,226.135,268.218)" gradientUnits="userSpaceOnUse"><stop offset="100%" stop-opacity="1" style="stop-color:rgb(244,186,56)"/><stop offset="100%" stop-opacity="1" style="stop-color:rgb(244,186,56)"/></linearGradient><path d=" M 247.82 268.8 C 247.82 268.8 257.41 276.09 268.1 277.87 C 268.1 277.87 291.85 275.87 291.85 275.87 L 294 282.1 C 294 282.1 277.1 294.23 259.7 294.49 C 246.78 294.68 230.36 290.76 226.62 287.3 C 222.88 283.84 241.81 264.66 247.82 268.8 Z " fill="url(#_lgradient_5)"/></g><g><path d="M 381.55 87.52 L 465.73 87.52 C 469.025 87.52 471.7 90.195 471.7 93.49 L 471.7 138.06 C 471.7 141.355 469.025 144.03 465.73 144.03 L 381.55 144.03 C 378.255 144.03 375.58 141.355 375.58 138.06 L 375.58 93.49 C 375.58 90.195 378.255 87.52 381.55 87.52 Z" style="stroke:none;fill:#20DCC3;stroke-miterlimit:10;"/><path d=" M 379.45 142.52 C 380.905 143.507 382.622 144.033 384.38 144.03 L 462.91 144.03 C 464.697 144.033 466.442 143.488 467.91 142.47 L 425.06 113.67 L 379.45 142.52 Z " fill="rgb(32,197,186)"/><path d=" M 468.77 89.81 C 468.382 89.461 467.963 89.146 467.52 88.87 L 467.52 88.87 C 467.081 88.597 466.62 88.362 466.14 88.17 L 466.06 88.17 C 465.58 87.983 465.085 87.839 464.58 87.74 L 464.49 87.74 C 463.962 87.641 463.427 87.591 462.89 87.59 L 384.35 87.59 C 383.969 87.592 383.588 87.618 383.21 87.67 L 382.95 87.67 C 382.613 87.724 382.279 87.797 381.95 87.89 L 381.87 87.89 C 381.105 88.124 380.375 88.46 379.7 88.89 L 379.7 88.89 L 416.83 117.47 C 420.008 119.869 424.356 119.998 427.67 117.79 L 429.38 116.62 L 468.76 89.83 L 468.77 89.81 Z " fill="rgb(32,197,186)"/></g><g opacity="0.3"><linearGradient id="_lgradient_6" x1="0" y1="0.5" x2="6.123233995736766e-17" y2="1.5" gradientTransform="matrix(172.97,0,0,57.85,291.67,276.62)" gradientUnits="userSpaceOnUse"><stop offset="100%" stop-opacity="1" style="stop-color:rgb(244,186,56)"/><stop offset="100%" stop-opacity="1" style="stop-color:rgb(244,186,56)"/></linearGradient><path d=" M 441.21 310.06 L 431.88 303.2 L 395.71 276.62 L 377.65 287.77 L 361.85 278.5 L 342.71 292.57 L 315.37 312.66 L 291.67 330.08 C 293.241 332.797 296.142 334.47 299.28 334.47 L 456 334.47 C 460.232 334.465 463.861 331.449 464.64 327.29 L 441.21 310.06 Z " fill="url(#_lgradient_6)"/></g><g><g><mask id="_mask_9zCks7rCr6l9EUeJubYTpWgorMHadm6f" x="-200%" y="-200%" width="400%" height="400%"><rect x="-200%" y="-200%" width="400%" height="400%" style="fill:white;"/><path d=" M 501.88 224.44 L 486.5 211.28 L 456.11 249.25 L 501.88 224.44 L 501.88 224.44 Z " fill="black" stroke="none"/></mask><path d=" M 501.88 224.44 L 486.5 211.28 L 456.11 249.25 L 501.88 224.44 L 501.88 224.44 Z " fill="rgb(255,255,255)" mask="url(#_mask_9zCks7rCr6l9EUeJubYTpWgorMHadm6f)" vector-effect="non-scaling-stroke" stroke-width="2.6" stroke="rgb(46,48,98)" stroke-linejoin="round" stroke-linecap="square" stroke-miterlimit="4"/><path d=" M 501.88 224.44 L 486.5 211.28 L 456.11 249.25 L 501.88 224.44 L 501.88 224.44 Z " fill="rgb(255,255,255)"/><mask id="_mask_bQhNuFPlX5ZtkWUcKuPr5ygME9NhB9VH" x="-200%" y="-200%" width="400%" height="400%"><rect x="-200%" y="-200%" width="400%" height="400%" style="fill:white;"/><path d=" M 512.12 228.68 L 534.46 239.2 L 456.11 249.25 L 512.12 228.68 L 512.12 228.68 Z " fill="black" stroke="none"/></mask><path d=" M 512.12 228.68 L 534.46 239.2 L 456.11 249.25 L 512.12 228.68 L 512.12 228.68 Z " fill="rgb(255,255,255)" mask="url(#_mask_bQhNuFPlX5ZtkWUcKuPr5ygME9NhB9VH)" vector-effect="non-scaling-stroke" stroke-width="2.6" stroke="rgb(46,48,98)" stroke-linejoin="round" stroke-linecap="square" stroke-miterlimit="4"/><path d=" M 512.12 228.68 L 534.46 239.2 L 456.11 249.25 L 512.12 228.68 L 512.12 228.68 Z " fill="rgb(255,255,255)"/></g><mask id="_mask_gWw4mH5OE67bQ6iO1pfJRIc5T1KijdEf" x="-200%" y="-200%" width="400%" height="400%"><rect x="-200%" y="-200%" width="400%" height="400%" style="fill:white;"/><path d=" M 457.2 247.88 L 501.88 224.44 L 501.29 232.65 L 457.2 247.88 L 457.2 247.88 Z " fill="black" stroke="none"/></mask><path d=" M 457.2 247.88 L 501.88 224.44 L 501.29 232.65 L 457.2 247.88 L 457.2 247.88 Z " fill="rgb(255,255,255)" mask="url(#_mask_gWw4mH5OE67bQ6iO1pfJRIc5T1KijdEf)" vector-effect="non-scaling-stroke" stroke-width="2.6" stroke="rgb(46,48,98)" stroke-linejoin="round" stroke-linecap="round" stroke-miterlimit="4"/><path d=" M 457.2 247.88 L 501.88 224.44 L 501.29 232.65 L 457.2 247.88 L 457.2 247.88 Z " fill="rgb(255,255,255)"/></g><g><g><mask id="_mask_3SRL5KU81u8b8QN7v2uztddrtO2WxDLW" x="-200%" y="-200%" width="400%" height="400%"><rect x="-200%" y="-200%" width="400%" height="400%" style="fill:white;"/><path d=" M 317 144.3 C 317.441 143.609 317.918 142.941 318.43 142.3" fill="black" stroke="none"/></mask><path d=" M 317 144.3 C 317.441 143.609 317.918 142.941 318.43 142.3" fill="none" mask="url(#_mask_3SRL5KU81u8b8QN7v2uztddrtO2WxDLW)" vector-effect="non-scaling-stroke" stroke-width="3" stroke="rgb(46,48,98)" stroke-linejoin="round" stroke-linecap="round" stroke-miterlimit="4"/><path d=" M 317 144.3 C 317.441 143.609 317.918 142.941 318.43 142.3" fill="none"/><mask id="_mask_SYMOszJHR0YIeE16UWRvAZo2Tx8qtfui" x="-200%" y="-200%" width="400%" height="400%"><rect x="-200%" y="-200%" width="400%" height="400%" style="fill:white;"/><path d=" M 320.32 139.94 C 328.61 130.7 352.75 112.18 397.75 140.09 C 465.75 182.24 551.85 153.71 548.17 120.46 C 542.82 72.12 465.82 119.55 512.81 173.33 C 540.7 205.25 519.57 217.87 510.3 221.57" fill="black" stroke="none"/></mask><path d=" M 320.32 139.94 C 328.61 130.7 352.75 112.18 397.75 140.09 C 465.75 182.24 551.85 153.71 548.17 120.46 C 542.82 72.12 465.82 119.55 512.81 173.33 C 540.7 205.25 519.57 217.87 510.3 221.57" fill="none" mask="url(#_mask_SYMOszJHR0YIeE16UWRvAZo2Tx8qtfui)" vector-effect="non-scaling-stroke" stroke-width="3" stroke="rgb(46,48,98)" stroke-linejoin="round" stroke-linecap="round" stroke-miterlimit="4"/><path d=" M 320.32 139.94 C 328.61 130.7 352.75 112.18 397.75 140.09 C 465.75 182.24 551.85 153.71 548.17 120.46 C 542.82 72.12 465.82 119.55 512.81 173.33 C 540.7 205.25 519.57 217.87 510.3 221.57" fill="none"/><mask id="_mask_fUvTuRTYjHr3FyWNHosaf6RZH640OrPb" x="-200%" y="-200%" width="400%" height="400%"><rect x="-200%" y="-200%" width="400%" height="400%" style="fill:white;"/><path d=" M 508.89 222.1 C 507.43 222.61 506.51 222.84 506.51 222.84" fill="black" stroke="none"/></mask><path d=" M 508.89 222.1 C 507.43 222.61 506.51 222.84 506.51 222.84" fill="none" mask="url(#_mask_fUvTuRTYjHr3FyWNHosaf6RZH640OrPb)" vector-effect="non-scaling-stroke" stroke-width="3" stroke="rgb(46,48,98)" stroke-linejoin="round" stroke-linecap="round" stroke-miterlimit="4"/><path d=" M 508.89 222.1 C 507.43 222.61 506.51 222.84 506.51 222.84" fill="none"/></g></g><mask id="_mask_ohsEdNZTYf3yx7QpPsmkjyMA9zctLQmF" x="-200%" y="-200%" width="400%" height="400%"><rect x="-200%" y="-200%" width="400%" height="400%" style="fill:white;"/><path d=" M 224.71 255.9 C 224.71 255.9 214.37 281 198.6 286.53 C 198.6 286.53 155.84 308.94 180.82 338" fill="black" stroke="none"/></mask><path d=" M 224.71 255.9 C 224.71 255.9 214.37 281 198.6 286.53 C 198.6 286.53 155.84 308.94 180.82 338" fill="none" mask="url(#_mask_ohsEdNZTYf3yx7QpPsmkjyMA9zctLQmF)" vector-effect="non-scaling-stroke" stroke-width="3" stroke="rgb(46,48,98)" stroke-linejoin="round" stroke-linecap="round" stroke-miterlimit="4"/><path d=" M 224.71 255.9 C 224.71 255.9 214.37 281 198.6 286.53 C 198.6 286.53 155.84 308.94 180.82 338" fill="none"/><path d=" M 172.698 128.073 C 170.208 114.496 186.703 100.078 209.508 95.897 C 232.314 91.715 252.851 99.343 255.34 112.92 C 257.83 126.497 241.335 140.915 218.529 145.096 C 195.724 149.278 175.187 141.65 172.698 128.073 Z " fill="rgb(242,241,239)"/><g><linearGradient id="_lgradient_7" x1="0.7321983715766152" y1="0.987222222222222" x2="0.4858509836804976" y2="0.1101739302360415" gradientTransform="matrix(7.506,0,0,18,354.124,380.17)" gradientUnits="userSpaceOnUse"><stop offset="0%" stop-opacity="1" style="stop-color:rgb(244,162,56)"/><stop offset="100%" stop-opacity="1" style="stop-color:rgb(255,201,73)"/></linearGradient><path d=" M 361.63 394.88 C 361.63 394.88 361.24 381.18 356.52 380.17 C 356.52 380.17 351.13 388.71 356.52 398.17 L 361.63 394.88 Z " fill="url(#_lgradient_7)"/><mask id="_mask_9AICHfjAJVkXUT6pXKKlhYINksfwYHFp" x="-200%" y="-200%" width="400%" height="400%"><rect x="-200%" y="-200%" width="400%" height="400%" style="fill:white;"/><path d=" M 356 383.77 C 356 383.77 357 387.1 359.23 396.45" fill="black" stroke="none"/></mask><path d=" M 356 383.77 C 356 383.77 357 387.1 359.23 396.45" fill="none" mask="url(#_mask_9AICHfjAJVkXUT6pXKKlhYINksfwYHFp)" vector-effect="non-scaling-stroke" stroke-width="1.14" stroke="rgb(249,150,43)" stroke-linejoin="miter" stroke-linecap="round" stroke-miterlimit="10"/><path d=" M 356 383.77 C 356 383.77 357 387.1 359.23 396.45" fill="none"/><linearGradient id="_lgradient_8" x1="0" y1="0.5" x2="0.4837619081785556" y2="-0.3751996436216384" gradientTransform="matrix(11.842,0,0,10.34,356.53,387.81)" gradientUnits="userSpaceOnUse"><stop offset="0%" stop-opacity="1" style="stop-color:rgb(255,211,73)"/></linearGradient><path d=" M 363.27 398.15 C 363.27 398.15 370.46 391.15 367.77 387.81 C 367.77 387.81 358.33 390.28 356.53 398.15 L 363.27 398.15 Z " fill="url(#_lgradient_8)"/><mask id="_mask_IRFBJO1fAOiOkjguIE7fNjEjTFYCxtHw" x="-200%" y="-200%" width="400%" height="400%"><rect x="-200%" y="-200%" width="400%" height="400%" style="fill:white;"/><path d=" M 365.74 389.73 C 363.549 391.867 361.761 394.38 360.46 397.15" fill="black" stroke="none"/></mask><path d=" M 365.74 389.73 C 363.549 391.867 361.761 394.38 360.46 397.15" fill="none" mask="url(#_mask_IRFBJO1fAOiOkjguIE7fNjEjTFYCxtHw)" vector-effect="non-scaling-stroke" stroke-width="1.14" stroke="rgb(249,150,43)" stroke-linejoin="miter" stroke-linecap="round" stroke-miterlimit="10"/><path d=" M 365.74 389.73 C 363.549 391.867 361.761 394.38 360.46 397.15" fill="none"/><linearGradient id="_lgradient_9" x1="0" y1="0.5" x2="0.20004866041818986" y2="1.4797859630883103" gradientTransform="matrix(5.54,0,0,7.29,351.64,390.86)" gradientUnits="userSpaceOnUse"><stop offset="100%" stop-opacity="1" style="stop-color:rgb(255,211,73)"/><stop offset="100%" stop-opacity="1" style="stop-color:rgb(253,207,70)"/></linearGradient><path d=" M 357.18 398.15 C 357.18 398.15 355.34 390.23 351.64 390.9 C 351.64 390.9 351.64 398.09 351.64 398.09 L 357.18 398.15 Z " fill="url(#_lgradient_9)"/><mask id="_mask_vkVXh8BUlnLm8Zf6DA4CzFgRS63eNZ2V" x="-200%" y="-200%" width="400%" height="400%"><rect x="-200%" y="-200%" width="400%" height="400%" style="fill:white;"/><line x1="352.31" y1="392.48" x2="353.55" y2="397.09" fill="black" stroke="none"/></mask><line x1="352.31" y1="392.48" x2="353.55" y2="397.09" mask="url(#_mask_vkVXh8BUlnLm8Zf6DA4CzFgRS63eNZ2V)" vector-effect="non-scaling-stroke" stroke-width="1.14" stroke="rgb(249,150,43)" stroke-linejoin="miter" stroke-linecap="round" stroke-miterlimit="10"/></g></g></g><g><g><g><g><g><path d=" M 385.1 465.47 C 384.672 465.906 384.299 466.393 383.99 466.92 L 383.53 466.68 C 383.458 466.366 383.151 466.164 382.834 466.224 C 382.517 466.283 382.304 466.583 382.352 466.901 C 382.399 467.22 382.69 467.445 383.01 467.41 C 383.072 467.403 383.133 467.386 383.19 467.36 L 383.64 467.59 C 383.388 468.145 383.206 468.73 383.1 469.33 L 383.85 469.46 C 384.083 468.149 384.707 466.94 385.64 465.99 L 385.1 465.47 Z " fill="rgb(255,255,255)"/><path d=" M 390.59 463.17 L 390.08 463.17 L 390.01 462.54 C 390.262 462.34 390.35 461.996 390.226 461.699 C 390.102 461.402 389.796 461.223 389.476 461.262 C 389.156 461.3 388.901 461.546 388.851 461.864 C 388.801 462.182 388.968 462.495 389.26 462.63 L 389.33 463.25 C 388.616 463.368 387.922 463.586 387.27 463.9 L 387.6 464.58 C 388.992 463.919 390.563 463.737 392.07 464.06 L 392.23 463.32 C 391.69 463.212 391.14 463.161 390.59 463.17 Z " fill="rgb(255,255,255)"/><path d=" M 397.19 465.72 C 397.509 465.677 397.737 465.391 397.707 465.07 C 397.678 464.75 397.401 464.51 397.08 464.526 C 396.759 464.542 396.508 464.808 396.51 465.13 L 396.09 465.49 C 395.666 465.056 395.193 464.673 394.68 464.35 L 394.28 464.99 C 395.401 465.692 396.291 466.707 396.84 467.91 L 397.53 467.6 C 397.28 467.05 396.965 466.533 396.59 466.06 L 396.99 465.71 C 397.056 465.725 397.123 465.728 397.19 465.72 Z " fill="rgb(255,255,255)"/><path d=" M 390 473.38 C 389.61 473.38 389.22 473.38 388.84 473.38 C 388.01 473.384 387.181 473.324 386.36 473.2 C 385.93 473.136 385.505 473.039 385.09 472.91 C 386.324 475.081 388.741 476.298 391.22 475.997 C 393.698 475.695 395.753 473.933 396.43 471.53 C 395.666 472.016 394.838 472.393 393.97 472.65 C 392.68 473.05 391.348 473.295 390 473.38 Z " fill="rgb(255,255,255)"/><path d=" M 390.59 464.69 C 388.995 464.669 387.458 465.283 386.317 466.398 C 385.176 467.512 384.526 469.035 384.51 470.63 C 384.511 471.054 384.558 471.476 384.65 471.89 C 385.32 472.37 387.36 472.78 390 472.62 C 392.88 472.45 395.3 471.62 396.67 470.46 C 396.68 470.267 396.68 470.073 396.67 469.88 C 396.259 466.855 393.642 464.621 390.59 464.69 Z  M 388.43 471.2 C 387.408 471.2 386.58 470.372 386.58 469.35 C 386.58 468.328 387.408 467.5 388.43 467.5 C 389.452 467.5 390.28 468.328 390.28 469.35 C 390.28 470.372 389.452 471.2 388.43 471.2 L 388.43 471.2 Z  M 393.17 470.29 C 392.419 470.29 391.81 469.681 391.81 468.93 C 391.81 468.179 392.419 467.57 393.17 467.57 C 393.921 467.57 394.53 468.179 394.53 468.93 C 394.53 469.291 394.387 469.637 394.132 469.892 C 393.877 470.147 393.531 470.29 393.17 470.29 L 393.17 470.29 Z " fill="rgb(255,255,255)"/></g><path d=" M 406.6 466.55 C 406.168 466.355 405.693 466.273 405.22 466.31 C 404.67 466.38 404.38 466.65 404.38 467.31 L 404.38 468.18 L 406.61 468.18 L 406.61 469.9 L 404.38 469.9 L 404.38 475.35 L 402.45 475.35 L 402.45 469.9 L 401.1 469.9 L 401.1 468.18 L 402.44 468.18 L 402.44 467.29 C 402.344 466.565 402.575 465.834 403.072 465.297 C 403.569 464.759 404.279 464.471 405.01 464.51 C 405.556 464.502 406.097 464.608 406.6 464.82 L 406.6 466.55 Z " fill="rgb(255,255,255)"/><path d=" M 411.3 469.88 C 411.124 469.866 410.946 469.866 410.77 469.88 C 410.344 469.853 409.927 470.017 409.635 470.329 C 409.343 470.64 409.205 471.066 409.26 471.49 L 409.26 475.4 L 407.33 475.4 L 407.33 468.23 L 409.2 468.23 L 409.2 469 C 409.644 468.337 410.404 467.957 411.2 468 C 411.591 467.992 411.973 468.111 412.29 468.34 L 411.3 469.88 Z " fill="rgb(255,255,255)"/><path d=" M 419 471.76 C 419.012 471.976 419.012 472.194 419 472.41 L 413.92 472.41 C 414.044 473.314 414.85 473.967 415.76 473.9 C 416.425 473.884 417.064 473.641 417.57 473.21 L 418.7 474.45 C 417.859 475.195 416.762 475.585 415.64 475.54 C 413.627 475.467 412.025 473.827 411.998 471.813 C 411.971 469.798 413.529 468.117 415.54 467.99 C 416.513 467.989 417.442 468.397 418.1 469.114 C 418.757 469.831 419.084 470.791 419 471.76 L 419 471.76 Z  M 413.89 471.09 L 417 471.09 C 416.891 470.298 416.214 469.709 415.415 469.709 C 414.616 469.709 413.939 470.298 413.83 471.09 L 413.89 471.09 Z " fill="rgb(255,255,255)"/><path d=" M 426.62 471.76 C 426.632 471.976 426.632 472.194 426.62 472.41 L 421.5 472.41 C 421.624 473.314 422.43 473.967 423.34 473.9 C 424.005 473.884 424.644 473.641 425.15 473.21 L 426.28 474.45 C 425.439 475.195 424.342 475.585 423.22 475.54 C 421.207 475.467 419.605 473.827 419.578 471.813 C 419.551 469.798 421.109 468.117 423.12 467.99 C 424.1 467.978 425.039 468.381 425.706 469.099 C 426.373 469.817 426.705 470.784 426.62 471.76 Z  M 421.51 471.09 L 424.68 471.09 C 424.571 470.298 423.894 469.709 423.095 469.709 C 422.296 469.709 421.619 470.298 421.51 471.09 Z " fill="rgb(255,255,255)"/><path d=" M 435 471.77 C 435.063 472.737 434.728 473.688 434.073 474.401 C 433.417 475.115 432.499 475.53 431.53 475.55 C 430.721 475.581 429.943 475.238 429.42 474.62 L 429.42 478.33 L 427.5 478.33 L 427.5 468.19 L 429.39 468.19 L 429.39 469 C 429.902 468.343 430.698 467.971 431.53 468 C 432.497 468.02 433.414 468.433 434.069 469.145 C 434.724 469.857 435.06 470.805 435 471.77 Z  M 429.32 471.77 C 429.401 472.769 430.264 473.522 431.265 473.467 C 432.267 473.412 433.042 472.57 433.013 471.567 C 432.985 470.565 432.163 469.768 431.16 469.77 C 430.638 469.759 430.136 469.971 429.779 470.353 C 429.422 470.734 429.244 471.25 429.29 471.77 L 429.32 471.77 Z " fill="rgb(255,255,255)"/><path d=" M 438.07 465.84 C 438.064 466.517 437.513 467.062 436.837 467.06 C 436.16 467.058 435.612 466.51 435.61 465.833 C 435.608 465.157 436.153 464.606 436.83 464.6 C 437.161 464.592 437.482 464.72 437.716 464.954 C 437.95 465.188 438.078 465.509 438.07 465.84 Z  M 437.81 475.36 L 435.88 475.36 L 435.88 468.19 L 437.81 468.19 L 437.81 475.36 Z " fill="rgb(255,255,255)"/><path d=" M 441 470.74 L 443.7 468.19 L 446.07 468.19 L 442.59 471.57 L 446.09 475.37 L 443.71 475.37 L 440.99 472.47 L 440.99 475.37 L 439.1 475.37 L 439.1 464.7 L 441 464.7 L 441 470.74 Z " fill="rgb(255,255,255)"/></g><g><path d=" M 309.41 475.29 L 309.41 474.24 C 308.852 475.004 307.966 475.46 307.02 475.47 C 305.17 475.47 303.87 474.06 303.87 471.76 C 303.87 469.46 305.16 468 307 468 C 307.95 468.015 308.836 468.479 309.39 469.25 L 309.39 465.49 L 310.49 465.49 L 310.49 475.26 L 309.41 475.29 Z  M 309.41 473.37 L 309.41 470.16 C 308.927 469.462 308.138 469.039 307.29 469.02 C 305.87 469.02 305.02 470.19 305.02 471.76 C 305.02 473.33 305.87 474.48 307.29 474.48 C 308.132 474.474 308.92 474.065 309.41 473.38 L 309.41 473.37 Z " fill="rgb(255,255,255)"/><path d=" M 311.93 471.75 C 311.884 470.791 312.229 469.854 312.887 469.154 C 313.546 468.455 314.46 468.052 315.42 468.04 C 317.56 468.04 318.82 469.71 318.82 471.83 L 318.82 472.11 L 313.09 472.11 C 313.1 472.774 313.376 473.406 313.855 473.866 C 314.333 474.326 314.976 474.576 315.64 474.56 C 316.456 474.563 317.239 474.243 317.82 473.67 L 318.35 474.39 C 317.599 475.117 316.585 475.507 315.54 475.47 C 314.554 475.5 313.601 475.114 312.915 474.406 C 312.228 473.698 311.871 472.734 311.93 471.75 Z  M 315.4 468.95 C 314.116 468.977 313.09 470.026 313.09 471.31 L 317.73 471.31 C 317.735 470.692 317.491 470.098 317.052 469.663 C 316.614 469.228 316.018 468.989 315.4 469 L 315.4 468.95 Z " fill="rgb(255,255,255)"/><path d=" M 319.61 474.36 L 320.18 473.57 C 320.787 474.209 321.629 474.571 322.51 474.57 C 323.59 474.57 324.18 474.06 324.18 473.35 C 324.18 471.64 319.8 472.69 319.8 470.07 C 319.8 468.97 320.8 468.07 322.44 468.07 C 323.413 468.033 324.359 468.394 325.06 469.07 L 324.55 469.83 C 324.01 469.241 323.239 468.916 322.44 468.94 C 321.44 468.94 320.87 469.42 320.87 470.05 C 320.87 471.6 325.25 470.58 325.25 473.33 C 325.25 474.52 324.25 475.47 322.47 475.47 C 321.402 475.523 320.362 475.12 319.61 474.36 Z " fill="rgb(255,255,255)"/><path d=" M 326.48 466.48 C 326.48 466.071 326.811 465.74 327.22 465.74 C 327.629 465.74 327.96 466.071 327.96 466.48 C 327.96 466.889 327.629 467.22 327.22 467.22 C 326.811 467.22 326.48 466.889 326.48 466.48 Z  M 326.67 475.3 L 326.67 468.22 L 327.77 468.22 L 327.77 475.3 L 326.67 475.3 Z " fill="rgb(255,255,255)"/><path d=" M 329.58 477.11 L 330.14 476.29 C 330.696 476.981 331.556 477.355 332.44 477.29 C 333.037 477.373 333.639 477.182 334.08 476.771 C 334.52 476.359 334.752 475.771 334.71 475.17 L 334.71 474.17 C 334.162 474.94 333.284 475.407 332.34 475.43 C 330.49 475.43 329.19 474.05 329.19 471.77 C 329.19 469.49 330.48 468.09 332.34 468.09 C 333.285 468.1 334.168 468.565 334.71 469.34 L 334.71 468.27 L 335.81 468.27 L 335.81 475.14 C 335.81 477.48 334.17 478.22 332.44 478.22 C 331.369 478.292 330.322 477.886 329.58 477.11 Z  M 334.71 473.26 L 334.71 470.17 C 334.24 469.459 333.452 469.022 332.6 469 C 331.18 469 330.33 470.13 330.33 471.7 C 330.33 473.27 331.18 474.4 332.6 474.4 C 333.446 474.383 334.232 473.958 334.71 473.26 Z " fill="rgb(255,255,255)"/><path d=" M 342.41 475.29 L 342.41 470.66 C 342.41 469.41 341.78 469.02 340.83 469.02 C 340.003 469.051 339.234 469.455 338.74 470.12 L 338.74 475.29 L 337.64 475.29 L 337.64 468.21 L 338.74 468.21 L 338.74 469.21 C 339.378 468.479 340.29 468.044 341.26 468.01 C 341.888 467.92 342.522 468.133 342.968 468.585 C 343.414 469.037 343.618 469.673 343.52 470.3 L 343.52 475.3 L 342.41 475.29 Z " fill="rgb(255,255,255)"/><path d=" M 344.93 471.75 C 344.884 470.791 345.229 469.854 345.887 469.154 C 346.546 468.455 347.46 468.052 348.42 468.04 C 350.56 468.04 351.82 469.71 351.82 471.83 L 351.82 472.11 L 346.09 472.11 C 346.1 472.774 346.376 473.406 346.855 473.866 C 347.333 474.326 347.976 474.576 348.64 474.56 C 349.456 474.563 350.239 474.243 350.82 473.67 L 351.35 474.39 C 350.599 475.117 349.585 475.507 348.54 475.47 C 347.554 475.5 346.601 475.114 345.915 474.406 C 345.228 473.698 344.871 472.734 344.93 471.75 Z  M 348.4 468.95 C 347.116 468.977 346.09 470.026 346.09 471.31 L 350.73 471.31 C 350.735 470.692 350.491 470.098 350.052 469.663 C 349.614 469.228 349.018 468.989 348.4 469 L 348.4 468.95 Z " fill="rgb(255,255,255)"/><path d=" M 358.35 475.29 L 358.35 474.24 C 357.792 475.004 356.906 475.46 355.96 475.47 C 354.11 475.47 352.81 474.06 352.81 471.76 C 352.81 469.46 354.1 468 356 468 C 356.95 468.015 357.836 468.479 358.39 469.25 L 358.39 465.49 L 359.49 465.49 L 359.49 475.26 L 358.35 475.29 Z  M 358.35 473.37 L 358.35 470.16 C 357.866 469.464 357.078 469.04 356.23 469.02 C 354.81 469.02 353.96 470.19 353.96 471.76 C 353.96 473.33 354.81 474.48 356.23 474.48 C 357.072 474.474 357.86 474.065 358.35 473.38 L 358.35 473.37 Z " fill="rgb(255,255,255)"/><path d=" M 364.69 475.29 L 364.69 465.52 L 365.79 465.52 L 365.79 469.28 C 366.337 468.501 367.228 468.035 368.18 468.03 C 370.03 468.03 371.33 469.49 371.33 471.75 C 371.33 474.01 370.03 475.46 368.18 475.46 C 367.234 475.45 366.348 474.994 365.79 474.23 L 365.79 475.28 L 364.69 475.29 Z  M 367.9 474.48 C 369.34 474.48 370.19 473.32 370.19 471.76 C 370.19 470.2 369.34 469.02 367.9 469.02 C 367.054 469.039 366.269 469.463 365.79 470.16 L 365.79 473.37 C 366.27 474.063 367.057 474.481 367.9 474.49 L 367.9 474.48 Z " fill="rgb(255,255,255)"/><path d=" M 372.53 477.07 C 372.721 477.146 372.924 477.187 373.13 477.19 C 373.616 477.229 374.06 476.913 374.18 476.44 L 374.65 475.37 L 371.65 468.22 L 372.84 468.22 L 375.2 474.02 L 377.54 468.22 L 378.74 468.22 L 375.2 476.73 C 374.906 477.621 374.057 478.208 373.12 478.17 C 372.847 478.168 372.575 478.135 372.31 478.07 L 372.53 477.07 Z " fill="rgb(255,255,255)"/></g></g></g></g></g></svg>