<svg id="_38" data-name="38" xmlns="http://www.w3.org/2000/svg" viewBox="0 0 87.05 93"><defs><style>.cls-1{fill:none;stroke:#000;stroke-linecap:round;stroke-linejoin:round;stroke-width:1.3px;}</style></defs><title>Artboard 4</title><g id="_Group_" data-name="&lt;Group&gt;"><polygon class="cls-1" points="42.71 71.65 45 71.65 48.61 71.65 48.61 80.34 37.01 80.34 37.01 71.65 41.09 71.65 42.71 71.65"/><path class="cls-1" d="M53.84,35.63a2,2,0,1,1-.91-.21A2.06,2.06,0,0,1,53.84,35.63Z"/><path class="cls-1" d="M45.46,27.25a2,2,0,1,1-2,2A2,2,0,0,1,45.46,27.25Z"/><path class="cls-1" d="M42.71,59.83H81.53v4.5c-.29,6.79-27,7.28-36.53,7.31H42.71V68a2.27,2.27,0,1,0,0-4.53Z"/><path class="cls-1" d="M42.71,63.47a2.27,2.27,0,1,1-2.26,2.27A2.26,2.26,0,0,1,42.71,63.47Z"/><path class="cls-1" d="M42,44.57a2,2,0,1,1-2,2,2,2,0,0,1,.54-1.37A2,2,0,0,1,42,44.57Z"/><path class="cls-1" d="M24.7,59.83h18v3.64a2.27,2.27,0,0,0,0,4.53v3.64H41.09c-9,0-37-.4-37.2-7.31v-4.5Z"/><path class="cls-1" d="M33.71,40.9a2,2,0,1,0-1-.25A2,2,0,0,0,33.71,40.9Zm10.35,5.69a2,2,0,0,0-3.52-1.37A2,2,0,0,0,40,46.59a2,2,0,0,0,4.05,0Zm3.43-17.31a2,2,0,1,0-2,2A2,2,0,0,0,47.49,29.28Zm6.35,6.36a2,2,0,0,0-2.93,1.81,2,2,0,1,0,2.93-1.81ZM24.7,8.71H75.89a5.65,5.65,0,0,1,5.65,5.65V59.83H24.7V8.71Z"/><path class="cls-1" d="M35.19,40.25a2,2,0,1,1,.54-1.38A2,2,0,0,1,35.19,40.25Z"/><path class="cls-1" d="M24.7,55.38v4.45H3.89V14.36A5.64,5.64,0,0,1,9.53,8.71H24.7V55.38Z"/><path class="cls-1" d="M41.09,71.65c-9,0-37-.4-37.2-7.31v-50A5.64,5.64,0,0,1,9.53,8.71H75.89a5.65,5.65,0,0,1,5.65,5.65v50c-.29,6.79-27,7.28-36.53,7.31"/><polyline class="cls-1" points="3.69 59.83 3.89 59.83 24.7 59.83 42.71 59.83 81.53 59.83 81.54 59.83"/><path class="cls-1" d="M42.71,63.47a2.27,2.27,0,1,1-2.26,2.27A2.26,2.26,0,0,1,42.71,63.47Z"/><polygon class="cls-1" points="37.01 80.34 37.01 71.65 41.09 71.65 42.71 71.65 45 71.65 48.61 71.65 48.61 80.34 37.01 80.34"/><line class="cls-1" x1="37.01" y1="80.34" x2="16.15" y2="85.94"/><line class="cls-1" x1="48.61" y1="80.34" x2="69.48" y2="85.94"/><polyline class="cls-1" points="24.7 14.63 24.7 55.38 65.49 55.38"/><line class="cls-1" x1="53.84" y1="35.63" x2="61.46" y2="20.55"/><line class="cls-1" x1="46.83" y1="30.77" x2="51.57" y2="35.95"/><line class="cls-1" x1="42.43" y1="44.6" x2="45.07" y2="31.27"/><line class="cls-1" x1="35.19" y1="40.25" x2="40.55" y2="45.22"/><line class="cls-1" x1="24.7" y1="55.38" x2="32.74" y2="40.65"/><polyline class="cls-1" points="61.88 24.38 61.46 20.55 58.15 22.49"/><path class="cls-1" d="M32.74,40.65a2,2,0,1,1,1,.25A2,2,0,0,1,32.74,40.65Z"/><path class="cls-1" d="M42,44.57a2,2,0,1,1-2,2,2,2,0,0,1,.54-1.37A2,2,0,0,1,42,44.57Z"/><path class="cls-1" d="M45.46,27.25a2,2,0,1,1-2,2A2,2,0,0,1,45.46,27.25Z"/><path class="cls-1" d="M51.57,35.95A2,2,0,0,1,55,37.44a2,2,0,1,1-3.39-1.49Z"/></g></svg>