<svg id="_120" data-name="120" xmlns="http://www.w3.org/2000/svg" viewBox="0 0 75.83 38.56"><defs><style>.cls-1{fill:none;}.cls-1,.cls-2{stroke:#000;}.cls-1,.cls-2,.cls-3{stroke-linecap:round;stroke-linejoin:round;stroke-width:1.3px;}.cls-2{fill:#eb1d25;}.cls-3{fill:#231f20;stroke:#cc1515;}</style></defs><title>Artboard 2</title><g id="_Group_" data-name="&lt;Group&gt;"><path class="cls-1" d="M23.3,17c.14,9.92.57,10.58-4.75,15.41-1.48,1.34-3.4,3-5.9,5.29C.61,26.83,2,30.63,2,13.28a14,14,0,0,0,10.67-2.11c2.64,2.22,6.28,2.75,10.62,2.11,0,1,0,2,0,2.87C23.29,16.46,23.29,16.74,23.3,17Z"/><path class="cls-1" d="M54.66,10.9a1.58,1.58,0,1,0-1.58-1.58A1.58,1.58,0,0,0,54.66,10.9ZM23.27,13.28c-4.34.63-8,.11-10.62-2.11V3.29A1.69,1.69,0,0,1,14.33,1.6H72.87a1.7,1.7,0,0,1,1.68,1.69V15.35A1.7,1.7,0,0,1,72.87,17H23.3c0-.28,0-.57,0-.87C23.28,15.27,23.27,14.32,23.27,13.28Zm38.4-4a1.59,1.59,0,1,0-1.58,1.58A1.58,1.58,0,0,0,61.67,9.32Zm3.84-1.58A1.58,1.58,0,1,0,67.1,9.32,1.58,1.58,0,0,0,65.51,7.73Z"/><path class="cls-1" d="M23.3,17H72.87a1.69,1.69,0,0,1,1.68,1.67V30.76a1.69,1.69,0,0,1-1.68,1.68H18.55C23.86,27.61,23.43,26.95,23.3,17Zm38.37,7.71a1.59,1.59,0,1,0-1.58,1.57A1.58,1.58,0,0,0,61.67,24.74Zm-7-1.58a1.58,1.58,0,1,0,1.58,1.58A1.58,1.58,0,0,0,54.66,23.15Zm9.26,1.58a1.59,1.59,0,1,0,1.59-1.58A1.58,1.58,0,0,0,63.92,24.74Z"/><path class="cls-1" d="M23.29,16.16c0,.3,0,.59,0,.87"/><path class="cls-1" d="M72.87,17a1.7,1.7,0,0,0,1.68-1.68V3.29A1.7,1.7,0,0,0,72.87,1.6H14.33a1.69,1.69,0,0,0-1.68,1.69v7.88"/><path class="cls-1" d="M23.3,17H72.87a1.69,1.69,0,0,1,1.68,1.67V30.76a1.69,1.69,0,0,1-1.68,1.68"/><path class="cls-1" d="M72.87,32.44H33.73"/><polyline class="cls-1" points="33.73 32.44 20.55 32.44 18.55 32.44"/><path class="cls-1" d="M23.29,16.16c0-.89,0-1.84,0-2.87-4.34.63-8,.11-10.62-2.11A14,14,0,0,1,2,13.28C2,30.63.61,26.83,12.64,37.73c2.5-2.28,4.42-3.95,5.9-5.29,5.32-4.83,4.88-5.49,4.75-15.41C23.29,16.74,23.29,16.46,23.29,16.16Z"/><polyline class="cls-1" points="9.51 27.54 12.64 24.45 15.78 21.36"/><polyline class="cls-2" points="15.78 27.54 12.64 24.45 9.52 21.36"/><path class="cls-1" d="M65.51,7.73a1.58,1.58,0,1,1-1.59,1.58A1.58,1.58,0,0,1,65.51,7.73Z"/><path class="cls-1" d="M60.09,7.73a1.58,1.58,0,1,1-1.59,1.58A1.58,1.58,0,0,1,60.09,7.73Z"/><circle class="cls-1" cx="54.66" cy="9.31" r="1.58"/><path class="cls-1" d="M65.51,23.15a1.58,1.58,0,1,1-1.59,1.58A1.58,1.58,0,0,1,65.51,23.15Z"/><path class="cls-1" d="M60.09,23.15a1.58,1.58,0,1,1-1.59,1.58A1.58,1.58,0,0,1,60.09,23.15Z"/><ellipse class="cls-1" cx="54.66" cy="24.73" rx="1.58" ry="1.58"/></g><line class="cls-3" x1="15.78" y1="21.36" x2="9.51" y2="27.54"/><line class="cls-3" x1="9.52" y1="21.36" x2="15.78" y2="27.54"/></svg>