<svg id="_98" data-name="98" xmlns="http://www.w3.org/2000/svg" viewBox="0 0 93.64 79.88"><defs><style>.cls-1{fill:#fff;}.cls-2{fill:none;stroke:#000;stroke-linecap:round;stroke-linejoin:round;stroke-width:1.3px;}</style></defs><title>discount</title><rect class="cls-1" x="-481.52" y="-139.33" width="800" height="800"/><g id="_Group_" data-name="&lt;Group&gt;"><polygon class="cls-2" points="48.53 72.25 34.44 25.06 48.53 25.06 62.67 25.06 55.6 48.66 48.53 72.25"/><polygon class="cls-2" points="72.39 9.69 87.44 25.06 67.33 9.69 72.39 9.69"/><polygon class="cls-2" points="87.44 25.06 67.98 48.44 48.53 72.25 62.71 25.06 87.44 25.06"/><polygon class="cls-2" points="87.44 25.06 62.71 25.06 67.33 9.69 87.44 25.06"/><polygon class="cls-2" points="29.85 9.69 67.33 9.69 62.71 25.06 62.67 25.06 48.53 25.06 34.44 25.06 29.85 9.69"/><polygon class="cls-2" points="41.46 48.66 48.53 72.25 9.63 25.06 34.38 25.06 41.46 48.66"/><polygon class="cls-2" points="34.44 25.06 48.53 72.25 41.46 48.66 34.38 25.06 34.44 25.06"/><polygon class="cls-2" points="29.85 9.69 34.44 25.06 34.38 25.06 9.63 25.06 29.85 9.69"/><polygon class="cls-2" points="29.85 9.69 9.63 25.06 24.67 9.69 29.85 9.69"/><polyline class="cls-2" points="9.63 25.06 48.53 72.25 34.44 25.06"/><polyline class="cls-2" points="87.44 25.06 67.98 48.44 48.53 72.25 62.71 25.06"/><polyline class="cls-2" points="34.38 25.06 9.63 25.06 24.67 9.69 29.85 9.69 67.33 9.69 72.39 9.69 87.44 25.06 62.71 25.06 62.67 25.06"/><polygon class="cls-2" points="48.53 72.25 55.6 48.66 62.67 25.06 48.53 25.06 34.44 25.06 34.38 25.06 41.46 48.66 48.53 72.25"/></g></svg>