<svg id="_96" data-name="96" xmlns="http://www.w3.org/2000/svg" viewBox="0 0 80.11 82.25"><title>Artboard 7</title><path d="M21.92,67.79a5.09,5.09,0,0,1-3.63-1.5l-5.45-5.45a5.12,5.12,0,0,1,0-7.25L51.15,15.27a.65.65,0,0,1,.37-.18L64.4,13.34a.66.66,0,0,1,.54.17.65.65,0,0,1,.2.52L64,27.57a.65.65,0,0,1-.19.41L25.54,66.29A5.08,5.08,0,0,1,21.92,67.79Zm30-51.45L13.75,54.51a3.82,3.82,0,0,0,0,5.41l5.45,5.45a3.92,3.92,0,0,0,5.41,0l2.62-2.61L62.77,27.23l1-12.5Z"/><path d="M28.36,63.21A.65.65,0,0,1,27.9,63L16.11,51.23a.65.65,0,0,1,.92-.92L28.82,62.1a.65.65,0,0,1-.46,1.11Z"/><path d="M63.4,28.17a.65.65,0,0,1-.46-.19L51.15,16.19a.65.65,0,0,1,.92-.92L63.86,27.06a.65.65,0,0,1-.46,1.11Z"/><path d="M22.46,57.31A.65.65,0,0,1,22,56.2l35-35a.65.65,0,1,1,.92.92l-35,35A.65.65,0,0,1,22.46,57.31Z"/><path d="M40.75,80.11h-.14a.67.67,0,0,1-.28,0,.64.64,0,0,1-.28,0h-.17l-.11,0h-.17l-.11,0h-.16l-.12,0H39.1V80h0a.64.64,0,0,1-.25.05V80a.64.64,0,0,1-.27.06V80a.62.62,0,0,1-.31.06l-.14,0H38l-.14,0h-.14l-.14,0h-.18l-.11,0H37.1l-.11,0h-.17l-.11,0H36.6v-.05h0a.62.62,0,0,1-.25,0v-.07a.63.63,0,0,1-.27,0v-.07a.62.62,0,0,1-.31,0v-.06a.61.61,0,0,1-.28,0v-.06a.61.61,0,0,1-.28,0v-.06a.64.64,0,0,1-.31,0l-.11,0h-.16l-.11,0h-.16l-.12,0h-.11v0h0a.6.6,0,0,1-.25,0v-.07a.59.59,0,0,1-.28,0v-.07a.66.66,0,0,1-.31,0v-.06a.63.63,0,0,1-.28,0v-.06a.64.64,0,0,1-.28,0v-.06a.66.66,0,0,1-.31,0l-.11,0h0l-.16,0-.12,0-.15,0-.12,0h-.12v-.05l0,0a.62.62,0,0,1-.25,0V79a.62.62,0,0,1-.29,0V78.9a.63.63,0,0,1-.31,0l-.12,0-.14,0-.13,0-.14,0-.13,0-.17,0-.1,0-.17,0-.1,0-.16,0-.11,0-.15,0-.11,0-.12,0v-.05h0a.68.68,0,0,1-.25,0v-.07a.66.66,0,0,1-.28,0v-.07a.66.66,0,0,1-.33,0L28,78.06l-.14,0L27.74,78l-.14,0-.12-.06-.18,0-.09,0-.16,0L27,77.69l-.15,0-.11-.05-.11,0v-.05l0,0a.58.58,0,0,1-.26,0l0-.07a.64.64,0,0,1-.27,0l0-.07a.63.63,0,0,1-.31,0l-.12-.07-.13,0-.12-.07-.14,0L25.14,77l-.13,0-.12-.07-.16-.05-.1-.06-.15-.05-.1-.06-.15-.05-.11-.07-.11,0,0,0,0,0h0a.64.64,0,0,1-.25-.05l0-.06a.69.69,0,0,1-.27-.05l0-.07a.67.67,0,0,1-.27-.05l0-.07A.67.67,0,0,1,23,76l-.12-.08-.13-.05-.11-.07-.13-.05-.11-.08-.16-.07-.09-.06L22,75.49l-.1-.07-.14-.06-.1-.07-.11,0,0,0v0a.63.63,0,0,1-.25-.07l0-.06A.65.65,0,0,1,21,75l0-.06a.64.64,0,0,1-.26-.07l0-.06a.66.66,0,0,1-.31-.1l-.1-.08-.13-.06-.1-.08-.13-.06L20,74.31l-.15-.07-.09-.07-.14-.07-.1-.08-.14-.07-.1-.08-.14-.08L19,73.72l-.11-.05,0,0h0a.66.66,0,0,1-.24-.09l0-.06a.64.64,0,0,1-.27-.1l0-.06a.65.65,0,0,1-.26-.1l0-.06A.65.65,0,0,1,18,73l-.1-.09-.12-.06,0,0h0a.64.64,0,0,1-.25-.1l0-.05a.65.65,0,0,1-.29-.13l-.08-.08L17,72.36,17,72.28l-.13-.08-.08-.08L16.59,72l-.08-.08-.11-.07,0,0h0a.65.65,0,0,1-.24-.11l0-.05a.64.64,0,0,1-.24-.11l0-.06a.63.63,0,0,1-.25-.11l0-.06a.64.64,0,0,1-.29-.14l-.1-.1L15.3,71l-.1-.1-.12-.08-.09-.1-.12-.08-.09-.1-.14-.1-.07-.08-.13-.09-.09-.1-.12-.09-.09-.1L14,69.9l-.08-.09-.1-.07,0,0h0a.65.65,0,0,1-.24-.14l0,0a.65.65,0,0,1-.24-.14l0-.05a.65.65,0,0,1-.24-.14l0-.05A.65.65,0,0,1,13,69l0,0a.66.66,0,0,1-.24-.14l0,0a.65.65,0,0,1-.25-.15l-.09-.11-.1-.09-.09-.11a.64.64,0,0,1-.13-.12l-.06-.08a.63.63,0,0,1-.13-.11L12,67.86l-.11-.1-.08-.1-.11-.1-.08-.11-.12-.11-.07-.1-.09-.08,0,0h0a.65.65,0,0,1-.23-.16l0,0a.65.65,0,0,1-.22-.16l0,0a.64.64,0,0,1-.23-.16l0,0a.65.65,0,0,1-.23-.17l0,0a.64.64,0,0,1-.23-.18L10.28,66l-.1-.1-.08-.12L10,65.67l-.07-.11-.1-.1-.07-.11-.11-.11-.07-.11-.1-.1-.07-.11-.11-.12-.06-.11-.1-.11-.06-.11a.66.66,0,0,1-.11-.12l-.06-.1-.09-.1,0,0h0a.64.64,0,0,1-.2-.17l.05,0a.64.64,0,0,1-.21-.17l.05,0a.64.64,0,0,1-.22-.19l.05,0a.64.64,0,0,1-.21-.18l.05,0A.65.65,0,0,1,8,63l-.06-.11-.1-.12-.06-.11-.08-.1,0,0h0a.65.65,0,0,1-.2-.18l.05,0a.64.64,0,0,1-.21-.2A.68.68,0,0,1,7.3,62a.63.63,0,0,1-.11-.14l0-.1a.65.65,0,0,1-.1-.13l0-.1-.09-.12a.66.66,0,0,1-.06-.12l-.08-.11A.65.65,0,0,1,6.71,61a.67.67,0,0,1-.09-.12l-.05-.12-.09-.12a.66.66,0,0,1-.05-.12l-.08-.11,0,0a.66.66,0,0,1-.19-.21l.05,0a.63.63,0,0,1-.18-.19l.06,0a.65.65,0,0,1-.2-.21l.05,0a.65.65,0,0,1-.19-.21l.06,0a.64.64,0,0,1-.2-.22l.05,0a.66.66,0,0,1-.19-.23.67.67,0,0,1,0-.12L5.4,58.7l0,0h0a.65.65,0,0,1-.18-.22.66.66,0,0,1,0-.13l-.08-.12a.72.72,0,0,1,0-.13A.67.67,0,0,1,5,57.93a.64.64,0,0,1,0-.12.63.63,0,0,1-.08-.13.66.66,0,0,1,0-.12l-.07-.11,0,0h0a.64.64,0,0,1-.18-.24.68.68,0,0,1,0-.12.67.67,0,0,1-.08-.13.66.66,0,0,1,0-.12.65.65,0,0,1-.08-.15.69.69,0,0,1,0-.11.66.66,0,0,1-.08-.14.65.65,0,0,1,0-.12.61.61,0,0,1-.07-.12l.05,0a.65.65,0,0,1-.17-.24.69.69,0,0,1,0-.12A.63.63,0,0,1,4,55.64a.65.65,0,0,1,0-.13.64.64,0,0,1-.07-.13.63.63,0,0,1,0-.13.63.63,0,0,1-.07-.12.7.7,0,0,1,0-.13l-.06-.1,0,0v0a.65.65,0,0,1-.15-.23l.06,0a.63.63,0,0,1-.15-.23l.06,0a.65.65,0,0,1-.16-.25.72.72,0,0,1,0-.13l-.05-.11,0,0v0a.64.64,0,0,1-.14-.22l.06,0a.65.65,0,0,1-.17-.26.68.68,0,0,1,0-.13A.68.68,0,0,1,3,53a.67.67,0,0,1,0-.14.64.64,0,0,1-.06-.14.69.69,0,0,1,0-.12.66.66,0,0,1-.05-.12l.05,0h0a.65.65,0,0,1-.14-.23l.06,0a.66.66,0,0,1-.17-.4.63.63,0,0,1-.06-.14.63.63,0,0,1,0-.12.65.65,0,0,1-.05-.14.63.63,0,0,1,0-.13.64.64,0,0,1,0-.12l.05,0h0a.65.65,0,0,1-.13-.25.67.67,0,0,1,0-.14.67.67,0,0,1-.07-.27.68.68,0,0,1-.07-.27.62.62,0,0,1,0-.12l.05,0h0a.65.65,0,0,1-.12-.25l.06,0A.66.66,0,0,1,2,49.39a.68.68,0,0,1,0-.16.67.67,0,0,1,0-.12.67.67,0,0,1-.06-.27.67.67,0,0,1,0-.13l.06,0h0a.65.65,0,0,1-.12-.27.66.66,0,0,1,0-.13.69.69,0,0,1,0-.14.68.68,0,0,1,0-.14.65.65,0,0,1,0-.15.68.68,0,0,1,0-.27H1.63a.66.66,0,0,1,0-.13.61.61,0,0,1,0-.12h.06a.64.64,0,0,1-.11-.27.68.68,0,0,1,0-.14.66.66,0,0,1,0-.13.68.68,0,0,1,0-.14.65.65,0,0,1,0-.15.71.71,0,0,1,0-.12.64.64,0,0,1,0-.13h.06a.66.66,0,0,1-.1-.25h.06a.64.64,0,0,1-.1-.28.7.7,0,0,1,0-.14.65.65,0,0,1,0-.15.64.64,0,0,1,0-.12.65.65,0,0,1,0-.28.66.66,0,0,1,0-.12h.06a.65.65,0,0,1-.09-.27h.06a.66.66,0,0,1-.09-.26h.06A.65.65,0,0,1,1.15,44a.68.68,0,0,1,0-.13.66.66,0,0,1,0-.12h.06a.65.65,0,0,1-.08-.25h.07a.65.65,0,0,1-.09-.29h.06a.65.65,0,0,1-.08-.29.69.69,0,0,1,0-.12.66.66,0,0,1,0-.15.66.66,0,0,1,0-.13.68.68,0,0,1,0-.12H1.1A.65.65,0,0,1,1,42.07h.06A.64.64,0,0,1,1,41.8h.06A.65.65,0,0,1,1,41.5a.67.67,0,0,1,.06-.27H1a.67.67,0,0,1,0-.13A.61.61,0,0,1,1,41h.06A28,28,0,0,1,1,40.4a.67.67,0,0,1,0-.14.62.62,0,0,1,0-.15A.61.61,0,0,1,1,40a.64.64,0,0,1,0-.13h.06A.64.64,0,0,1,1,39.58h.07A.63.63,0,0,1,1,39.29a.69.69,0,0,1,0-.14,2.45,2.45,0,0,0,0-.43.57.57,0,0,0,0-.25h.06a.65.65,0,0,1,0-.28.68.68,0,0,1,0-.13.67.67,0,0,1,0-.28.66.66,0,0,1,0-.16.7.7,0,0,1,0-.12.65.65,0,0,1,0-.13h.06a.65.65,0,0,1,0-.27h.06a.65.65,0,0,1,0-.29.67.67,0,0,1,0-.13.67.67,0,0,1,0-.16.73.73,0,0,1,0-.12.66.66,0,0,1,0-.16.68.68,0,0,1,0-.12.7.7,0,0,1,0-.13h.06a.65.65,0,0,1,0-.28h.06a.65.65,0,0,1,0-.28H1.4a.65.65,0,0,1,0-.3.68.68,0,0,1,.1-.26h0a.65.65,0,0,1,0-.26h.07a.65.65,0,0,1,0-.29h.06a.65.65,0,0,1,0-.28H1.6a.65.65,0,0,1,0-.3.64.64,0,0,1,0-.12.61.61,0,0,1,0-.13H1.7a.65.65,0,0,1,0-.26h.07a.65.65,0,0,1,0-.29H1.8a.66.66,0,0,1,0-.42.63.63,0,0,1,0-.14.66.66,0,0,1,0-.13.61.61,0,0,1,0-.12H2a.65.65,0,0,1,0-.28H2a.64.64,0,0,1,0-.28h.06a.66.66,0,0,1,.05-.42.65.65,0,0,1,0-.13h.06a.65.65,0,0,1,0-.27h.06a.63.63,0,0,1,0-.29.68.68,0,0,1,0-.13.62.62,0,0,1,0-.15.63.63,0,0,1,0-.12.64.64,0,0,1,0-.15.66.66,0,0,1,0-.12.63.63,0,0,1,0-.13h.06a.65.65,0,0,1,0-.27h.06a.65.65,0,0,1,0-.29A.67.67,0,0,1,2.73,29a.66.66,0,0,1,0-.15.65.65,0,0,1,.05-.12.65.65,0,0,1,0-.14.7.7,0,0,1,.05-.12.65.65,0,0,1,0-.12H3a.65.65,0,0,1,.09-.41.65.65,0,0,1,.09-.26.65.65,0,0,1,0-.16l.05-.1a.65.65,0,0,1,0-.14l.06,0a.65.65,0,0,1,0-.27l.06,0a.64.64,0,0,1,0-.29l.06-.12a.66.66,0,0,1,0-.14l.06-.12a.67.67,0,0,1,0-.16l.06-.11a.64.64,0,0,1,0-.13l.06,0h0a.64.64,0,0,1,0-.26l.07,0a.64.64,0,0,1,0-.29l.06,0a.64.64,0,0,1,0-.27l.06,0a.65.65,0,0,1,.05-.29l.07-.12a.65.65,0,0,1,0-.11l0,0h0a.63.63,0,0,1,0-.25l.07,0a.64.64,0,0,1,.06-.3l.07-.12a.64.64,0,0,1,0-.13.66.66,0,0,1,.07-.12.66.66,0,0,1,.05-.14l.07-.11a.6.6,0,0,1,0-.12l.05,0H5A.64.64,0,0,1,5,23.19l.06,0a.64.64,0,0,1,.07-.29l.08-.12a.67.67,0,0,1,0-.13l.08-.12a.66.66,0,0,1,.23-.35v0l0,0,.07-.09a.66.66,0,0,1,.05-.13l.08-.11a.66.66,0,0,1,.06-.14l.07-.1a.7.7,0,0,1,.06-.14l.07-.1a.64.64,0,0,1,.07-.15l.07-.09a.66.66,0,0,1,.07-.14l.07-.09,0-.11,0,0h0a.65.65,0,0,1,.08-.26l.06,0a.65.65,0,0,1,.08-.26l.06,0A.64.64,0,0,1,6.76,20l.05,0a.64.64,0,0,1,.09-.26l.06,0A.63.63,0,0,1,7,19.56l.06,0a.65.65,0,0,1,.09-.28l.06,0a.64.64,0,0,1,.1-.27L7.44,19a.63.63,0,0,1,.06-.12l.09-.11a.7.7,0,0,1,.07-.13l.08-.1a.64.64,0,0,1,.06-.11l0,0h0A.65.65,0,0,1,8,18.13l.09-.1a.65.65,0,0,1,.08-.14l.08-.09a.62.62,0,0,1,.08-.13l.08-.09a.66.66,0,0,1,.09-.14l.08-.08a.65.65,0,0,1,.08-.14l.08-.08A.66.66,0,0,1,8.78,17l.09-.1.06-.1,0,0H9a.65.65,0,0,1,.11-.25l.06,0a.65.65,0,0,1,.11-.25l.06,0a.65.65,0,0,1,.12-.26l.05,0a.65.65,0,0,1,.12-.25l.05,0a.65.65,0,0,1,.12-.26l.05,0a.65.65,0,0,1,.12-.25l.05,0a.65.65,0,0,1,.13-.26l.1-.1.07-.11.11-.1a.68.68,0,0,1,.1-.14l.08-.07a.68.68,0,0,1,.1-.14l.08-.07.09-.12.1-.09.09-.12.1-.09.09-.12.09-.08.07-.1,0,0h0a.65.65,0,0,1,.14-.24l0,0a.65.65,0,0,1,.14-.24l.05,0A.64.64,0,0,1,12,13.2l.06,0a.64.64,0,0,1,.13-.24l.06,0a.65.65,0,0,1,.16-.27l.11-.09.09-.11.11-.09.09-.11.1-.08.09-.11.11-.08a.64.64,0,0,1,.1-.12l.1-.07.1-.11.1-.08a.62.62,0,0,1,.11-.12l.1-.07.11-.12.1-.07.08-.09,0,0h0a.66.66,0,0,1,.16-.22l0,0a.65.65,0,0,1,.16-.23l0,0a.63.63,0,0,1,.15-.22l.05,0a.64.64,0,0,1,.18-.25l0,0a.65.65,0,0,1,.18-.23l.11-.08.1-.1.12-.08.1-.11.11-.07a.62.62,0,0,1,.13-.12l.09-.05L16,9.59,16,9.53l.11-.11.11-.07.11-.1.11-.07.09-.09,0,0h0a.65.65,0,0,1,.17-.21l0,.05A.65.65,0,0,1,17,8.77l0,.05a.66.66,0,0,1,.18-.22l0,0a.65.65,0,0,1,.2-.23l.11-.06.1-.09,0,0h0a.64.64,0,0,1,.18-.2l0,0A.65.65,0,0,1,18.16,8l0,0a.65.65,0,0,1,.22-.23l.1-.05.13-.1.11-.05.12-.1L19,7.41l.1-.08,0,0h0a.65.65,0,0,1,.19-.19l0,.05A.62.62,0,0,1,19.55,7l0,.06a.62.62,0,0,1,.19-.2l0,.06A.65.65,0,0,1,20,6.73l0,0a.65.65,0,0,1,.21-.2l.13-.06.11-.08.13-.06.14-.1.1,0,.14-.1.1,0,.14-.1.1,0,.14-.09.1,0,.1-.07,0,0h0A.63.63,0,0,1,22,5.64l0,.06a.64.64,0,0,1,.2-.19l0,.06a.64.64,0,0,1,.24-.21l.13,0,.12-.08.13,0L23,5.11l.14-.05L23.23,5l.14-.05.15-.09.1,0,.15-.09.11,0L24,4.62l.11,0,.1-.06,0,0h0a.63.63,0,0,1,.2-.16l0,.06a.62.62,0,0,1,.21-.17l0,.06A.65.65,0,0,1,25,4.17l0,.05a.64.64,0,0,1,.23-.16l.13,0L25.53,4l.14,0,.12-.06.14,0,.16-.08.1,0,.15-.08.11,0,.15-.07.11,0,.11-.06,0,.05h0a.64.64,0,0,1,.22-.15l0,.06a.64.64,0,0,1,.21-.15l0,.07a.64.64,0,0,1,.26-.17l0,.06a.64.64,0,0,1,.25-.15L28,3,28.16,3l.14,0,.16-.07.1,0,.16-.06.12,0L29,2.73l.11,0,.11,0,0,0h0a.63.63,0,0,1,.22-.13l0,.07a.62.62,0,0,1,.24-.14l0,.07A.64.64,0,0,1,30,2.42l.14,0,.13,0,.14,0,.13,0,.14,0,.16-.06H31l.17-.06h.11l.16-.05h.11l.12,0,0,.06h0A.65.65,0,0,1,31.91,2l0,.06a.65.65,0,0,1,.25-.12l0,.06a.66.66,0,0,1,.29-.13h.13l.14,0h.13l.14,0h.14l.17,0h.1l.16,0h.11l.16,0H34l.16,0h.12l.12,0v.05h0a.64.64,0,0,1,.24-.1l0,.07a.63.63,0,0,1,.25-.11l0,.07a.64.64,0,0,1,.29-.11h.14l.13,0a.68.68,0,0,1,.28,0V1.29h.14l.17,0h.11l.16,0h.12l.16,0h.12l.11,0v0h0a.63.63,0,0,1,.24-.08v.07a.64.64,0,0,1,.26-.09V1.2a.64.64,0,0,1,.3-.1v.06A.63.63,0,0,1,38,1.09v.06a.64.64,0,0,1,.27-.08v.06a.66.66,0,0,1,.42-.07,41.15,41.15,0,0,1,.56,0l.11,0v.05h0A.64.64,0,0,1,39.64,1v.07A.61.61,0,0,1,39.92,1v.07A2.67,2.67,0,0,1,40.64,1a.69.69,0,0,1,.27,0h.18l.11,0h.17l.11,0h.16l.12,0h.12v.05h0A.65.65,0,0,1,42.14,1v.07A.64.64,0,0,1,42.41,1v.07a.67.67,0,0,1,.31-.06l.13,0H43l.13,0h.14l.14,0h.18l.1,0h.17l.1,0h.17l.11,0h.12v.05h0a.6.6,0,0,1,.26,0v.07a.59.59,0,0,1,.27,0v.07a.63.63,0,0,1,.31,0l.13,0h.14v.06a.61.61,0,0,1,.28,0v.06a.64.64,0,0,1,.31,0l.11,0h.16l.11,0h.16l.12,0h.16l.12,0h.12V1.6h0a.6.6,0,0,1,.25,0v.08a.6.6,0,0,1,.28,0v.07a.66.66,0,0,1,.31,0v.06a.63.63,0,0,1,.28,0v.06a.66.66,0,0,1,.28,0v.06a.65.65,0,0,1,.31,0l.11,0,.15,0,.12,0,.15,0,.12,0h.11v0l0,0a.59.59,0,0,1,.25,0v.08a.66.66,0,0,1,.28,0v.07a.66.66,0,0,1,.31,0l.13,0,.14,0,.13,0,.13,0,.13.05.17,0,.1,0,.16,0,.11,0,.16,0,.11,0,.12,0v.05h0a.65.65,0,0,1,.26,0v.07a.65.65,0,0,1,.28,0v.07a.64.64,0,0,1,.33,0L53,3l.15,0,.12.05.14,0,.12.06.18,0,.09,0,.17,0,.09,0,.17,0,.09,0,.16,0,.09,0,.12,0,0,.05h0a.65.65,0,0,1,.26,0l0,.07a.61.61,0,0,1,.26,0l0,.07a.62.62,0,0,1,.31,0l0,.06a.56.56,0,0,1,.27,0l0,.06a.54.54,0,0,1,.27,0l0,.06a.58.58,0,0,1,.3.06l.11.06.15,0,.11.06.14,0,.11.07.15.05.1.06.12,0,0,.05h0a.64.64,0,0,1,.25.05l0,.07a.68.68,0,0,1,.27.05l0,.07a.71.71,0,0,1,.3.07l.12.07.13,0,.12.08.13,0,.12.08a.64.64,0,0,1,.17.07l.08.05.17.07.08.06.16.07.08.06.16.07.08.06.12.05,0,.05h0a.64.64,0,0,1,.26.08l0,.06a.61.61,0,0,1,.25.07l.09,0,.08.06.1,0,0,0,0,0a.65.65,0,0,1,.24.08l0,.06a.65.65,0,0,1,.26.08l0,.06a.65.65,0,0,1,.26.08l0,.06a.65.65,0,0,1,.29.1l.1.08.15.08.09.07.14.08.09.07.11.05,0,0h0a.64.64,0,0,1,.25.09l0,.06a.64.64,0,0,1,.26.09l0,.06a.64.64,0,0,1,.26.09l0,.06A.64.64,0,0,1,63,8l.09.08.14.08.09.08.13.08.09.08.13.08.1.09a.63.63,0,0,1,.15.09l.07.07.13.08.1.09.12.07.1.09.12.07.1.1.09.05.08.06.07.07.06,0,.08.06.07.07.08.05,0,0,0,0a.63.63,0,0,1,.24.13l.09.09.12.08.1.1.12.08.1.1.11.07.1.1a.66.66,0,0,1,.15.11l.06.07a.67.67,0,0,1,.15.11l.06.07.14.11.06.08.14.11.07.08.11.08,0,0a.62.62,0,0,1,.22.12l.08.07.06.07.06,0,.08.07.06.07.06,0,.08.07.06.08.06,0,.08.07.07.08.1.08.08.1.11.09.09.11.11.08.09.11.1.08.09.11.12.1.07.1a.62.62,0,0,1,.14.12l.06.08a.64.64,0,0,1,.13.12l.06.08a.64.64,0,0,1,.13.12l.06.09.11.09.08.11.08.07.07.08.05.07.06.05.07.08.05.08.06.05.07.08.06.08.05,0,.07.08.06.09.09.09.08.11.1.1.08.11.1.1.08.12.1.1a.6.6,0,0,1,.08.12.62.62,0,0,1,.13.14l0,.08a.65.65,0,0,1,.12.13l0,.08a.65.65,0,0,1,.12.13l.05.09a.65.65,0,0,1,.12.13l.05.09.1.1,0,0h0a.61.61,0,0,1,.2.16l.06.08,0,.08.05.06.06.08,0,.08,0,.05.06.08.05.09.07.08,0,0v0a.65.65,0,0,1,.18.16l-.05,0A.64.64,0,0,1,73,18a.66.66,0,0,1,.07.12.68.68,0,0,1,.11.13l0,.1a.69.69,0,0,1,.1.13l.05.1a.71.71,0,0,1,.1.13l.05.11a.69.69,0,0,1,.1.13l.05.11.08.09,0,0v0a.64.64,0,0,1,.2.2l0,0a.66.66,0,0,1,.2.2l-.05,0a.64.64,0,0,1,.2.2l-.05,0a.64.64,0,0,1,.21.23l.05.11a.66.66,0,0,1,.09.12.68.68,0,0,1,.08.26h0l0,0a.69.69,0,0,1,.05.12.7.7,0,0,1,.09.13l0,.12a.66.66,0,0,1,.09.12.7.7,0,0,1,0,.12.66.66,0,0,1,.09.12.67.67,0,0,1,.05.12l.08.12a.69.69,0,0,1,.05.13l.06.08,0,.09,0,.09,0,.06,0,.09,0,.1.05.08,0,0v0a.64.64,0,0,1,.17.21.62.62,0,0,1,0,.13l.08.12a.68.68,0,0,1,0,.13L76,23a.65.65,0,0,1,.05.13.68.68,0,0,1,.09.15.64.64,0,0,1,0,.1.62.62,0,0,1,.08.14.64.64,0,0,1,0,.11.63.63,0,0,1,.09.15l0,.1a.66.66,0,0,1,.08.15.65.65,0,0,1,0,.1l.07.12-.05,0h0a.64.64,0,0,1,.17.22l-.06,0a.66.66,0,0,1,.17.22l-.06,0a.65.65,0,0,1,.18.25.69.69,0,0,1,0,.12.65.65,0,0,1,.07.13.63.63,0,0,1,0,.12l.06.12-.05,0h0a.66.66,0,0,1,.17.26.61.61,0,0,1,0,.11.64.64,0,0,1,.07.14.63.63,0,0,1,0,.12.66.66,0,0,1,.07.14.7.7,0,0,1,0,.12.67.67,0,0,1,.07.13.65.65,0,0,1,0,.13l.05.09,0,0v0a.64.64,0,0,1,.14.2l-.07,0a.62.62,0,0,1,.16.22l-.07,0a.65.65,0,0,1,.17.26l-.06,0a.63.63,0,0,1,.15.25.6.6,0,0,1,0,.14.61.61,0,0,1,.06.13.64.64,0,0,1,0,.14.63.63,0,0,1,.07.16.7.7,0,0,1,0,.11.66.66,0,0,1,.06.16.79.79,0,0,1,0,.11.69.69,0,0,1,.06.15.73.73,0,0,1,0,.11.67.67,0,0,1,0,.11l0,0v0a.63.63,0,0,1,.13.22l-.07,0a.64.64,0,0,1,.14.24l-.07,0a.65.65,0,0,1,.17.41.63.63,0,0,1,0,.13.61.61,0,0,1,0,.14.6.6,0,0,1,0,.13.74.74,0,0,1,0,.14.7.7,0,0,1,.06.16.83.83,0,0,1,0,.11.68.68,0,0,1,.07.27.67.67,0,0,1,.05.16.69.69,0,0,1,0,.11.67.67,0,0,1,0,.12l-.05,0h0a.64.64,0,0,1,.12.24l-.06,0a.65.65,0,0,1,.12.25l-.06,0a8.58,8.58,0,0,1,.18.55.69.69,0,0,1,0,.13.62.62,0,0,1,0,.14.66.66,0,0,1,0,.14.63.63,0,0,1,0,.17.56.56,0,0,1,0,.11.62.62,0,0,1,0,.16.57.57,0,0,1,0,.11.64.64,0,0,1,0,.16.6.6,0,0,1,0,.11.63.63,0,0,1,0,.12h-.06a.65.65,0,0,1,.1.24l-.07,0a.64.64,0,0,1,.11.25l-.07,0a.65.65,0,0,1,.11.29.69.69,0,0,1,0,.13.65.65,0,0,1,0,.14.71.71,0,0,1,0,.14.69.69,0,0,1,0,.14.66.66,0,0,1,0,.28l0,0h0a.63.63,0,0,1,0,.11.67.67,0,0,1,0,.17.6.6,0,0,1,0,.11.63.63,0,0,1,0,.16.69.69,0,0,1,0,.26h0a.63.63,0,0,1,.07.22h-.07a.63.63,0,0,1,.09.26H79.9a.64.64,0,0,1,.09.26h-.07a.64.64,0,0,1,.1.3H80a.63.63,0,0,1,.08.27H80a.64.64,0,0,1,.08.27H80a.65.65,0,0,1,.08.31.66.66,0,0,1,0,.11.63.63,0,0,1,0,.28.61.61,0,0,1,0,.16.64.64,0,0,1,0,.12.63.63,0,0,1,0,.12H80v0a.63.63,0,0,1,.07.25H80a.61.61,0,0,1,.08.26H80a.64.64,0,0,1,.08.31.65.65,0,0,1,0,.14.63.63,0,0,1,0,.14.66.66,0,0,1,0,.14.62.62,0,0,1,0,.13.66.66,0,0,1,0,.14.63.63,0,0,1,0,.18.64.64,0,0,1,0,.11.67.67,0,0,1,0,.17.58.58,0,0,1,0,.11.66.66,0,0,1,0,.16.61.61,0,0,1,0,.11.67.67,0,0,1,0,.12H80v0a.64.64,0,0,1,.05.25H80a.64.64,0,0,1,.06.27H80a.65.65,0,0,1,.06.31.71.71,0,0,1,0,.13.7.7,0,0,1,0,.14.63.63,0,0,1,0,.14.71.71,0,0,1,0,.14.89.89,0,0,0,0,.32.77.77,0,0,1,0,.1.64.64,0,0,1,0,.28.61.61,0,0,1,0,.17.69.69,0,0,1,0,.11.61.61,0,0,1,0,.12h-.05v0a.65.65,0,0,1,0,.26h-.07a.63.63,0,0,1,0,.27h-.07a.65.65,0,0,1,0,.31h-.06a.63.63,0,0,1,0,.28h-.06a.63.63,0,0,1,0,.28H79.7a.65.65,0,0,1,0,.32.61.61,0,0,1,0,.11.61.61,0,0,1,0,.16.65.65,0,0,1,0,.11.67.67,0,0,1,0,.16.56.56,0,0,1,0,.11.55.55,0,0,1,0,.12h-.05v0a.62.62,0,0,1,0,.26h-.07a.62.62,0,0,1,0,.27h-.07a.65.65,0,0,1,0,.31h-.06a.64.64,0,0,1,0,.28h-.06a.64.64,0,0,1,0,.28h-.06a.65.65,0,0,1,0,.31.66.66,0,0,0-.06.27.74.74,0,0,1,0,.11.65.65,0,0,1,0,.15.68.68,0,0,1-.12.24h0a.63.63,0,0,1,0,.24H79a.64.64,0,0,1,0,.29h-.07a.65.65,0,0,1,0,.28h-.07a.65.65,0,0,1,0,.31.62.62,0,0,1,0,.13.64.64,0,0,1,0,.14.72.72,0,0,1-.05.13.66.66,0,0,1,0,.13.7.7,0,0,1-.05.13.64.64,0,0,1,0,.17l0,.1a.6.6,0,0,1,0,.16.56.56,0,0,1,0,.11.62.62,0,0,1,0,.16.55.55,0,0,1,0,.11.61.61,0,0,1,0,.12h-.05v0a.64.64,0,0,1,0,.26h-.07a.63.63,0,0,1,0,.28h-.07a.64.64,0,0,1,0,.33l-.05.11a.67.67,0,0,1,0,.15L78,53.3a.64.64,0,0,1,0,.14l-.06.12a.68.68,0,0,1,0,.18l0,.09a.66.66,0,0,1,0,.17l0,.09a.66.66,0,0,1,0,.17l0,.09a.71.71,0,0,1,0,.13l-.06,0h0a.65.65,0,0,1,0,.27l-.06,0a.64.64,0,0,1,0,.27l-.07,0a.62.62,0,0,1,0,.26l-.07,0a.64.64,0,0,1,0,.31l-.06,0a.64.64,0,0,1,0,.27l-.06,0A.66.66,0,0,1,77,56l-.06,0a.65.65,0,0,1-.06.3l-.06.11a.68.68,0,0,1,0,.14l-.07.11a.64.64,0,0,1-.05.16l-.06.1a.58.58,0,0,1,0,.12l-.05,0h0a.63.63,0,0,1-.05.25l-.07,0a.63.63,0,0,1-.05.27l-.07,0a.64.64,0,0,1-.05.27l-.07,0a.65.65,0,0,1-.07.3l-.08.12a.6.6,0,0,1,0,.13.61.61,0,0,1-.08.12.63.63,0,0,1-.06.14l-.07.1a.65.65,0,0,1-.07.17l-.06.08a.65.65,0,0,1-.07.17l-.06.08a.64.64,0,0,1-.07.16l-.06.08a.65.65,0,0,1-.07.16l-.06.09a.61.61,0,0,1,0,.12l-.05,0h0A.66.66,0,0,1,75,60l-.06,0a.61.61,0,0,1-.07.25l0,.09-.06.08,0,.1,0,0,0,0a.66.66,0,0,1-.08.23l-.06,0a.65.65,0,0,1-.08.26l-.06,0a.65.65,0,0,1-.08.26l-.06,0a.65.65,0,0,1-.1.29l-.08.1a.64.64,0,0,1-.08.15l-.07.09a.65.65,0,0,1-.07.14l-.08.09-.05.11,0,0h0a.64.64,0,0,1-.09.25l-.06,0a.64.64,0,0,1-.09.26l-.06,0a.65.65,0,0,1-.09.26l-.06,0a.64.64,0,0,1-.12.31L73,63.2a.65.65,0,0,1-.08.14l-.08.09a.63.63,0,0,1-.08.13l-.08.09a.62.62,0,0,1-.1.15l-.07.07a.62.62,0,0,1-.09.15l-.07.07a.67.67,0,0,1-.08.13l-.09.1a.67.67,0,0,1-.07.12l-.09.1-.05.09-.06.08-.06.07,0,.07-.06.08-.07.07,0,.06-.06.08-.07.07-.05.08,0,0,0,0a.65.65,0,0,1-.13.24l-.1.1-.08.11-.1.1-.08.11-.1.1-.08.11-.11.1a.67.67,0,0,1-.11.15l-.07.06a.65.65,0,0,1-.11.15l-.07.06a.67.67,0,0,1-.11.14L70,66.9a.7.7,0,0,1-.1.14l-.08.07-.08.11,0,0h0a.63.63,0,0,1-.12.22l-.07.08-.07.06,0,.07-.07.08-.08.06,0,.06-.07.08-.08.07L69,68l0,0,0,0a.65.65,0,0,1-.15.22l-.11.09-.09.11-.11.09-.09.11-.11.09a.66.66,0,0,1-.1.12l-.09.07a.65.65,0,0,1-.13.14l-.08.06a.66.66,0,0,1-.12.13l-.08.06a.62.62,0,0,1-.12.13l-.08.06a.67.67,0,0,1-.12.13l-.09.06-.09.11-.11.08-.07.08-.08.07-.08.05-.05.06-.08.07-.08.06,0,.05-.08.07-.08.06-.07.07,0,0h0a.64.64,0,0,1-.17.21l-.11.08-.1.1-.12.08-.09.1-.12.08-.09.09-.12.08a.63.63,0,0,1-.14.13l-.08,0a.63.63,0,0,1-.13.12l-.09.05a.65.65,0,0,1-.13.12l-.09.05a.67.67,0,0,1-.13.12l-.09.05-.1.09,0,0h0a.63.63,0,0,1-.16.19l-.08.06-.08,0-.05.05-.08.06-.08,0-.08.07,0,0h0a.63.63,0,0,1-.17.18l0,0a.64.64,0,0,1-.18.21l0-.05a.65.65,0,0,1-.2.22l-.12.07-.13.11-.1.05-.13.1-.1,0-.13.1-.11.05-.12.09-.11.05-.11.09,0,0a.65.65,0,0,1-.2.2l0,0a.66.66,0,0,1-.2.2l0-.05a.65.65,0,0,1-.23.21l-.11.05-.12.09-.11.05-.12.09-.12.05-.1.08,0,0h0a.64.64,0,0,1-.22.2l-.11,0L60,75l-.12,0-.12.09-.12,0-.09.07-.09,0-.09,0-.06,0-.09,0-.09,0-.08.05,0,0h0a.63.63,0,0,1-.18.15l0-.06a.65.65,0,0,1-.24.2l-.13,0-.12.08-.13,0-.12.07-.14.05-.15.09-.11,0-.14.08-.11,0-.15.09a.67.67,0,0,1-.25,0l0,0,0,0-.11,0-.11.07,0-.05h0a.64.64,0,0,1-.22.16l0-.06a.64.64,0,0,1-.22.17l0-.06A.65.65,0,0,1,56,77l-.12,0-.13.07-.13,0-.11.06,0-.05h0a.64.64,0,0,1-.26.17l-.12,0-.14.07-.12,0-.14.07-.12,0-.1.05,0,0h0a.63.63,0,0,1-.21.14l0-.07a.64.64,0,0,1-.22.16l0-.07a.64.64,0,0,1-.26.18l0-.06a.65.65,0,0,1-.25.15l-.14,0-.13.06-.14,0-.12.06-.14,0-.16.07-.11,0-.15.06-.11,0-.15.06-.12,0-.11,0,0,0h0a.63.63,0,0,1-.22.13l0-.07a.62.62,0,0,1-.24.14l0-.07a.64.64,0,0,1-.28.15l-.14,0-.13,0-.14,0-.13,0-.14,0-.16.06H50l-.16.05h-.11l-.16.05h-.11l-.12,0,0-.05h0a.64.64,0,0,1-.24.12l0-.06a.65.65,0,0,1-.25.12l0-.07a.64.64,0,0,1-.29.13h-.13l-.14,0h-.13l-.14,0h-.14l-.17,0h-.11l-.16,0h-.11l-.16,0H47l-.12,0v-.05h0a.65.65,0,0,1-.24.1l0-.07a.64.64,0,0,1-.25.11l0-.07a.64.64,0,0,1-.29.11h-.13l-.14,0h-.14l-.13,0h-.14l-.17,0h-.11l-.16,0h-.11l-.16,0h-.12l-.12,0v-.05h0a.64.64,0,0,1-.24.08v-.07a.63.63,0,0,1-.26.09V79.9a.64.64,0,0,1-.3.1v-.06a.63.63,0,0,1-.27.08V80A.64.64,0,0,1,43,80V80a.67.67,0,0,1-.41.07.65.65,0,0,1-.28,0,.66.66,0,0,1-.28,0l-.12,0V80h0a.64.64,0,0,1-.25.07V80a.61.61,0,0,1-.26.08V80a.68.68,0,0,1-.44.06ZM42.87,79v-.19h0v-.06a.69.69,0,0,1,.23,0v0h0v-.06a.66.66,0,0,1,.23,0v0h0V78.7a.66.66,0,0,1,.23,0v0h0v0a.6.6,0,0,1,.27,0v0h0v-.06a.61.61,0,0,1,.26,0h0v0h.11l.11,0h.17l.1,0h.17l.1,0h.16l.1,0h.16l.11,0h.16l.11,0h0a.61.61,0,0,1,.23,0l0,.2,0-.2h0v0a.65.65,0,0,1,.26,0l0,.19,0-.19h0v-.06a.68.68,0,0,1,.26,0h0v0h.12l.1,0h.09s0,0,.09,0l.09,0h.18l.09,0h.17l.1,0h.16l.11,0h.16l.11,0h.05a.62.62,0,0,1,.23,0l0,.19,0-.19h0v0a.63.63,0,0,1,.26,0l0,.19,0-.19h0v-.05a.65.65,0,0,1,.26,0h0v0l.12,0,.09,0,.09,0h.08l.09,0,.09,0h.08l.09,0,.08,0h.08l.1,0h0l.12,0,.1,0h0l.12,0,.11,0h0a.67.67,0,0,1,.23,0l.05.19-.05-.19h0v0a.7.7,0,0,1,.26,0l0,.19,0-.19h0v-.06a.68.68,0,0,1,.27,0h0v0l.12,0,.1,0,.08,0,.09,0,.09,0,.08,0,.09,0,.09,0,.08,0,.08,0,.1,0h0l.11,0,.1,0h0l.11,0,.1,0h0a.5.5,0,0,1,.23,0l.06.19-.06-.19h0l0-.05a.55.55,0,0,1,.25,0l.06.19-.06-.19h0l0,0a.7.7,0,0,1,.27,0l.06.18-.06-.18h0l0-.06a.66.66,0,0,1,.26,0h0v0l.11,0,.1-.05.07,0,.1,0,.09,0,.07,0,.09,0,.1,0,.07,0a.66.66,0,0,1,.2,0v0h0l0,0,.12,0,.09,0,.06,0,.1,0,.09-.05.06,0a.64.64,0,0,1,.21,0l.08.18-.08-.18h0l0,0a.65.65,0,0,1,.25-.06l.08.18-.08-.18h0l0,0a.65.65,0,0,1,.25-.06h0l0,0,.12,0,.11-.06,0,0h0a.63.63,0,0,1,.19-.14l.09,0,.07,0,.09-.05.08,0,.09,0,.09-.05.08,0,.08,0,.09-.06,0,0,.11,0,.1-.06,0,0,.1,0,.1-.06,0,0a.65.65,0,0,1,.22-.07l.09.18-.09-.18h0l0,0a.64.64,0,0,1,.25-.07h0l0,0,.11,0,.12-.08,0,0h0l0,0,.11,0,.12-.08,0,0h0l0,0,.1,0,.1-.07.05,0,.1,0,.09-.06.05,0,.09,0,.09-.07.05,0a.65.65,0,0,1,.21-.07h0l0,0,.12-.06.08-.06.06,0,.09,0,.09-.06.06,0,.09,0,.09-.07.06,0a.67.67,0,0,1,.2-.07l.1.17-.1-.17h0l0,0A.65.65,0,0,1,61,73l.1.17L61,73h0l0,0a.65.65,0,0,1,.23-.09h0v0l0,0,.1-.05.08-.06.07,0,.09,0,.07-.06.07,0,.08,0,.08-.07.07,0,.08,0,.08-.07.07,0,.07,0,.09-.07,0,0a.65.65,0,0,1,.21-.1l.11.16-.11-.16h0l0,0a.65.65,0,0,1,.23-.11l.11.16-.11-.16h0l0,0a.65.65,0,0,1,.23-.11h0l0,0,.1-.06.1-.09,0,0h0l0,0,.1-.06.11-.1,0,0h0l0-.05a.69.69,0,0,1,.22-.1h0v0l0,0,.1-.06.06-.06.08-.06.07,0,.07-.06.08-.06.07,0,.07-.07.08-.06.06,0,.07-.07.08-.06.06,0,.08-.07,0,0,.1-.07.08-.08,0,0L65,70l.08-.08,0,0,.09-.06.08-.08,0,0a.66.66,0,0,1,.2-.12h0l0,0,.1-.07.09-.1,0,0h0l0,0,.1-.07.1-.1,0,0h0l0,0,.09-.07.1-.11,0,0h0l0,0,.09-.07.08-.09,0,0,.09-.07.06-.07.08-.07.06,0,.06-.07.08-.07.06,0,.06-.07.08-.07.06,0,.07-.08.08-.07.05,0,.07-.08.05-.05.07-.06.07-.08,0,0,.09-.08.07-.09,0,0,.09-.07.07-.09,0,0a.65.65,0,0,1,.19-.13h0l0,0,.09-.08.08-.1,0,0h0l0,0,.09-.08.09-.11,0,0h0l0,0,.08-.07.1-.12,0,0h0l0,0a.65.65,0,0,1,.2-.14h0v0l0,0,.08-.08.05-.07.07-.08.06-.05.05-.07.07-.08.06,0,.06-.08.07-.08,0,0,.06-.08.07-.08,0,0,.06-.09,0,0,.08-.08.06-.09,0,0L70,65,70,65l0,0,.08-.08.07-.09,0,0a.64.64,0,0,1,.18-.15h0l0,0,.09-.09.08-.11,0,0h0l0,0,.08-.09a.67.67,0,0,1,.08-.12l0,0h0l0,0,.08-.08a.63.63,0,0,1,.08-.13l0,0h0l0,0L71,63.8l.06-.1,0,0,.07-.08.06-.1,0,0,.07-.08,0-.08.06-.08,0-.05,0-.08.06-.08,0-.05.05-.09,0-.06.06-.08.05-.09,0-.06.06-.07.05-.1,0-.06a.63.63,0,0,1,.15-.14l.16.11-.16-.11h0l0,0a.67.67,0,0,1,.18-.19l.16.11L72.32,62h0l0,0a.66.66,0,0,1,.18-.19l.17.12-.17-.12h0l0,0a.65.65,0,0,1,.19-.19h0l0,0,.07-.09,0-.09,0-.07.06-.07,0-.09,0-.07.05-.07,0-.1,0,0a.65.65,0,0,1,.15-.16l.17.1-.17-.1h0l0,0a.66.66,0,0,1,.17-.19l.17.1-.17-.1h0l0,0a.64.64,0,0,1,.17-.19l.17.1-.17-.1h0l0,0a.67.67,0,0,1,.17-.19h0l0,0,.07-.1a.67.67,0,0,1,.06-.12l0,0h0l0,0a.65.65,0,0,1,.17-.19l.16.09-.16-.09,0,0-.05,0a.65.65,0,0,1,.16-.19h0l0,0,.07-.1,0-.08,0-.09,0-.06,0-.09,0-.09,0-.06,0-.09,0-.09,0-.06,0-.09,0-.09,0-.05,0-.1,0-.06.05-.08a.57.57,0,0,1,0-.1l0,0,.06-.1,0-.11,0,0A.64.64,0,0,1,75,57.3l.17.09L75,57.3h0l0,0a.66.66,0,0,1,.16-.21l.17.08-.17-.08h0l0,0a.65.65,0,0,1,.16-.21l.19.09-.19-.09h0l-.05,0a.65.65,0,0,1,.16-.21h0l0,0,.06-.1a.61.61,0,0,1,0-.1l0-.08,0-.08,0-.1,0-.06,0-.09,0-.1,0-.06a.63.63,0,0,1,.12-.17l.17.08-.17-.08,0,0,0,0a.65.65,0,0,1,.13-.21l.18.08-.18-.08,0,0,0,0a.66.66,0,0,1,.13-.21l.18.08L76,55.09l0,0,0,0a.65.65,0,0,1,.13-.21l.18.08-.18-.08h0l0,0a.65.65,0,0,1,.14-.21l.17.07-.17-.07,0,0-.06,0a.65.65,0,0,1,.13-.22l.2.08-.2-.08v0l0,0a.67.67,0,0,1,.13-.22h0l0,0,.05-.11a.48.48,0,0,1,0-.09l0-.09,0-.07,0-.09,0-.09,0-.07a.56.56,0,0,1,0-.1l0-.09,0-.06a.62.62,0,0,1,0-.1l0-.06,0-.09a.55.55,0,0,1,0-.11l0-.06,0-.09a.67.67,0,0,1,0-.11l0-.06A.65.65,0,0,1,77,52.3l.19.06L77,52.3h0l0,0a.67.67,0,0,1,.13-.23l.18.06L77.11,52h0l-.05,0a.66.66,0,0,1,.13-.23h0l0,0a.59.59,0,0,1,0-.11.58.58,0,0,1,0-.1l0-.08,0-.09a.5.5,0,0,1,0-.09l0-.08,0-.08a.61.61,0,0,1,0-.1l0-.08,0-.08a.71.71,0,0,1,0-.11v0a.62.62,0,0,1,0-.12.68.68,0,0,1,0-.11v0l0-.1a.65.65,0,0,1,0-.12v0a.64.64,0,0,1,.1-.21l.19.05L77.69,50h0a.67.67,0,0,1,.11-.24l.19,0-.19,0h0l-.06,0a.67.67,0,0,1,.12-.24l.2.05-.2-.05h0l-.06,0a.66.66,0,0,1,.11-.23h0a.63.63,0,0,1,0-.24l0-.07,0-.09a.62.62,0,0,1,0-.1l0-.07,0-.09a.68.68,0,0,1,0-.11l0-.07a.65.65,0,0,1,.08-.19l.19,0-.19,0,0,0h-.05a.64.64,0,0,1,.09-.22l.19,0-.19,0,0,0h-.05a.65.65,0,0,1,.09-.22l.19,0-.19,0,0,0-.06,0a.62.62,0,0,1,.09-.22l.2,0-.2,0h0a.66.66,0,0,1,.1-.25l.19,0-.19,0h-.05a.67.67,0,0,1,.1-.24h-.05a.5.5,0,0,0,0-.22v-.08a.59.59,0,0,1,0-.09.69.69,0,0,1,0-.1v-.08l0-.09a.66.66,0,0,1,0-.11v-.08a.64.64,0,0,1,.07-.19l.19,0-.19,0,0,0h-.06a.65.65,0,0,1,.07-.23l.2,0-.2,0,0,0h-.05a.63.63,0,0,1,.07-.23l.19,0-.19,0,0,0h-.06a.63.63,0,0,1,.07-.22l.19,0-.19,0h0a.65.65,0,0,1,.08-.25l.19,0-.19,0h0a.67.67,0,0,1,.08-.25h-.05a.72.72,0,0,1,0-.12.6.6,0,0,1,0-.1V44l0-.08a.66.66,0,0,1,0-.1v-.09l0-.08a.62.62,0,0,1,0-.1v-.16a.56.56,0,0,1,0-.11v0a.72.72,0,0,1,0-.12.6.6,0,0,1,0-.11v0a.64.64,0,0,1,0-.11.6.6,0,0,1,0-.12v0a.64.64,0,0,1,.05-.22h0a.66.66,0,0,1,.06-.26h-.05a.64.64,0,0,1,.06-.25h-.05a.57.57,0,0,1,0-.12.61.61,0,0,1,0-.1s0-.08,0-.09a.44.44,0,0,0,0-.18s0-.08,0-.09a.76.76,0,0,1,0-.09.66.66,0,0,1,0-.1s0-.08,0-.09V41a.7.7,0,0,1,0-.11v0a.67.67,0,0,1,0-.12.7.7,0,0,1,0-.11v0a.61.61,0,0,0,0-.23v0a.64.64,0,0,1,0-.23h0a.67.67,0,0,1,0-.26H78.8a.67.67,0,0,1,0-.26H78.8a.74.74,0,0,1,0-.12.63.63,0,0,1,0-.11s0-.07,0-.09a.73.73,0,0,1,0-.09.59.59,0,0,1,0-.09s0-.07,0-.09a.64.64,0,0,1,0-.09.67.67,0,0,1,0-.1s0-.07,0-.09a.64.64,0,0,1,0-.19h0v0h-.05a.64.64,0,0,1,0-.23h0v0h-.06a.64.64,0,0,1,0-.23h0v0h-.06a.63.63,0,0,1,0-.23h0a.65.65,0,0,1,0-.26h-.05a.67.67,0,0,1,0-.26h-.06a.65.65,0,0,1,0-.26h0a.62.62,0,0,1-.07-.23v-.08a.62.62,0,0,1,0-.09.6.6,0,0,1,0-.1v-.08a.6.6,0,0,1,0-.08.56.56,0,0,1,0-.11h0v0a.64.64,0,0,1-.08-.23v0a.65.65,0,0,1,0-.11.67.67,0,0,1,0-.11v0a.6.6,0,0,1,0-.11.65.65,0,0,1,0-.11v0a.66.66,0,0,1,0-.23h0a.67.67,0,0,1,0-.26h-.05a.67.67,0,0,1,0-.26h-.05a.67.67,0,0,1,0-.12.64.64,0,0,1,0-.1V34.1a.62.62,0,0,1,0-.09l0-.09v-.09a.6.6,0,0,1,0-.08l0-.1v-.09a.65.65,0,0,1,0-.08l0-.1v-.05a.71.71,0,0,1,0-.11.72.72,0,0,1,0-.11v-.05a.66.66,0,0,1,0-.11.64.64,0,0,1,0-.11v-.05a.64.64,0,0,1,0-.22h0v0h0a.65.65,0,0,1,0-.26h0v0h-.05a.66.66,0,0,1,0-.26h-.05a.7.7,0,0,1,0-.12l0-.09,0-.09a.79.79,0,0,1,0-.08l0-.09,0-.09a.55.55,0,0,1,0-.08l0-.1,0-.08a.79.79,0,0,1,0-.08l0-.1v0a.61.61,0,0,1,0-.12l0-.1v0a.66.66,0,0,1,0-.11.56.56,0,0,1,0-.11v0a.65.65,0,0,1,0-.23h0a.66.66,0,0,1,0-.26h-.05a.66.66,0,0,1,0-.26h-.06a.66.66,0,0,1,0-.11.51.51,0,0,1,0-.1l0-.08a.75.75,0,0,1,0-.09l0-.09,0-.08a.61.61,0,0,1,0-.08l0-.1,0-.08a.57.57,0,0,1,0-.08l0-.1v0a.66.66,0,0,1,0-.11l0-.1v0a.63.63,0,0,1,0-.23h0v0h-.05a.65.65,0,0,1,0-.25h0a.67.67,0,0,1,0-.27l-.05,0,.05,0h0l-.06,0a.68.68,0,0,1,0-.26h0l-.05,0,.05,0h0l0,0a.69.69,0,0,1,0-.11l-.05-.1,0-.07,0-.1,0-.09,0-.07,0-.09,0-.1,0-.07,0-.09,0-.1,0-.07a.67.67,0,0,1,0-.21l0,0,0,0v0H76a.7.7,0,0,1,0-.12l-.05-.1,0-.06a.66.66,0,0,1,0-.1l-.05-.1,0-.06a.65.65,0,0,1,0-.21l0,0,0,0v0l0,0a.64.64,0,0,1-.06-.25l0,0,0,0v0l0,0a.65.65,0,0,1-.06-.25l0,0,0,0h0l0,0a.61.61,0,0,1,0-.11l0-.08,0-.09,0-.08,0-.08,0-.09,0-.07-.05-.09,0-.08,0-.08L75,23.91l0-.08,0-.08-.06-.09,0,0a.61.61,0,0,1,0-.11l-.06-.09,0,0,0-.1-.06-.1,0,0a.64.64,0,0,1-.07-.22l0,0,0,0h0l0,0a.65.65,0,0,1,0-.12l-.07-.12,0,0h0l0,0a.66.66,0,0,1,0-.11.67.67,0,0,1-.08-.12l0,0h0l0,0,0-.11-.07-.09,0-.05,0-.1L74,22l0-.05,0-.09-.06-.09,0-.05,0-.09-.06-.09,0-.05,0-.08-.07-.1,0,0h0l0,0,0,0h0a.62.62,0,0,1-.16-.18l0-.06,0-.09-.06-.09,0-.06a.67.67,0,0,1-.07-.2l0,0,0,0v0l0,0a.63.63,0,0,1-.09-.23l0,0,0,0v0l0,0a.67.67,0,0,1-.09-.23l0,0,0,0v0l0,0a.65.65,0,0,1-.09-.23l0,0,0,0h0l0,0-.06-.11-.06-.08,0-.07,0-.08-.06-.08,0-.07,0-.08-.07-.08,0-.07,0-.08L72.16,19l0-.07,0-.07L72,18.77l0,0a.65.65,0,0,1-.1-.21l0,0,0,0v0l0,0a.64.64,0,0,1-.11-.23l0,0,0,0h0l0,0-.06-.11-.08-.1,0,0h0l0,0-.06-.1-.1-.11,0,0h0l0,0-.06-.1-.1-.11,0,0h0l-.05,0a.68.68,0,0,1-.1-.22l0,0,0,0h0l0,0-.06-.1-.06-.06-.06-.08,0-.07-.06-.06L70.67,17l0-.06-.07-.07-.06-.08,0-.06-.07-.07-.06-.08,0-.06-.08-.08,0,0-.07-.1L70,16.2l0,0L70,16.07,69.87,16l0,0-.06-.09-.08-.09,0,0-.06-.09-.09-.09,0,0h0l0,0-.07-.1-.1-.1,0,0h0l0,0-.07-.09-.11-.1,0,0h0l0,0-.07-.09L69,15l0,0h0l0,0-.07-.09-.09-.08,0,0-.07-.09-.07-.06-.07-.08,0-.06-.07-.06-.07-.08,0-.06-.07-.06-.07-.08,0-.06L68.07,14,68,13.94,68,13.86l-.08-.07,0,0-.08-.09-.08-.07,0,0-.08-.09-.09-.07,0,0-.07-.08-.09-.08,0,0-.07-.08L67.1,13l0,0h0l0,0L67,12.92l-.11-.09,0,0h0l0,0-.08-.09-.12-.09,0,0h0l0,0-.08-.09-.12-.09,0,0h0l0,0a.65.65,0,0,1-.14-.2l0,0,0,0h0l0,0-.08-.08-.07-.05-.08-.07L66,12l-.08-.05-.08-.07,0-.06-.08-.06-.08-.07,0-.05-.08-.06-.08-.07,0,0-.09-.06,0,0-.08-.08-.09-.06,0,0L65,11.12l-.1-.07,0,0-.08-.08-.1-.07,0,0a.64.64,0,0,1-.15-.18l0,0,0,0h0l0,0-.09-.08-.12-.08,0,0h0l0,0-.08-.08L64,10.37l0,0h0l0,0L64,10.28l-.1-.06,0,0-.08-.08-.09-.06,0,0-.08-.07-.1-.06,0,0-.08-.07-.08,0-.08-.06-.05-.05-.08,0-.06,0-.08-.06-.09-.05-.06,0-.07-.06-.09-.05-.06,0-.07-.06-.1-.05-.06,0a.63.63,0,0,1-.14-.15l0,0,0,0h0l0,0a.65.65,0,0,1-.19-.19l0,0,0,0h0l0,0a.65.65,0,0,1-.19-.19l0,0,0,0h0l0,0a.66.66,0,0,1-.19-.18l0,0,0,0h0l0,0-.09-.07-.1,0-.07,0-.07-.06-.09,0-.07,0-.07-.05-.1,0,0,0a.65.65,0,0,1-.16-.15l0,0,0,0v0l0,0a.64.64,0,0,1-.19-.17l0,0,0,0v0l0,0a.66.66,0,0,1-.19-.17l0,0,0,0v0l0,0a.66.66,0,0,1-.19-.17l0,0,0,0h0l0,0-.1-.07-.12-.06,0,0h0l0,0a.66.66,0,0,1-.19-.17l0,0,0,0,0,0,0,.05a.67.67,0,0,1-.19-.16l0,0,0,0h0l0,0L59,7l-.08,0-.09,0-.06,0-.09,0-.09,0-.06,0-.09,0-.09,0-.06,0-.1,0-.09,0-.05,0-.1,0,0,0-.1-.06-.1,0,0,0-.1-.06-.11,0,0,0a.64.64,0,0,1-.18-.14l0,0,0,0h0l0,0A.66.66,0,0,1,57,6l0,0,0,0h0l0,0a.65.65,0,0,1-.21-.16l0,0,0,0h0l0,0-.1-.06-.1,0-.08,0-.08,0-.09,0-.06,0-.09-.05-.1,0-.06,0-.09,0-.1,0-.06,0a.65.65,0,0,1-.17-.12l0,0,0,0,0,0,0,0a.64.64,0,0,1-.21-.13l0,0,0,0,0,0,0,0A.65.65,0,0,1,55,5.09l0,0,0,0,0,0,0,0A.64.64,0,0,1,54.77,5l0,0,0,0h0l0,0a.66.66,0,0,1-.21-.14l0,0,0,0,0,0,0,.06a.66.66,0,0,1-.22-.13l0,0,0,0h0l0,0-.11-.05-.09,0-.09,0-.08,0-.09,0-.09,0-.07,0-.09,0-.09,0-.07,0-.1,0-.09,0-.06,0-.1,0-.06,0-.09,0-.11,0-.06,0-.09,0-.11,0-.06,0a.63.63,0,0,1-.19-.11v0h0l0,0A.66.66,0,0,1,52,4l0,0,0,0h0l0,.05a.66.66,0,0,1-.23-.13l0,0,0,0h0l0,0-.11,0-.1,0-.08,0-.09,0-.09,0-.08,0-.08,0-.11,0-.08,0-.08,0-.11,0h0l-.11,0-.11,0h0l-.11,0-.11,0h0a.64.64,0,0,1-.21-.1v0h0v0a.65.65,0,0,1-.24-.12v0h0l0,.05a.65.65,0,0,1-.24-.11h0v0h0v0l-.11,0h-.11l-.07,0-.09,0h-.1l-.07,0-.09,0h-.1l-.07,0a.66.66,0,0,1-.19-.08v0l0,0v.05A.64.64,0,0,1,48.05,3V3l0,0V3a.64.64,0,0,1-.22-.09v0l0,0V3a.62.62,0,0,1-.22-.09v0h0v0a.69.69,0,0,1-.25-.1v0h0v.06a.67.67,0,0,1-.24-.1h0v0h0v0l-.11,0h-.19l-.09,0h-.18l-.09,0h-.18l-.08,0h-.19a.67.67,0,0,1-.19-.07v0l0,0v.05a.66.66,0,0,1-.23-.07v0h0v0l-.11,0h-.17a.66.66,0,0,1-.22-.07v0h0v0a.66.66,0,0,1-.25-.08v0h0v.06a.67.67,0,0,1-.25-.08v0h0v0l-.12,0H44l-.08,0H43.7l-.08,0h-.42l-.11,0h-.16l-.11,0h-.16a.63.63,0,0,1-.22-.06v0h0v0a.66.66,0,0,1-.26-.06v0h0v.06a.64.64,0,0,1-.25-.06v0h0v0l-.12,0H40.23a.64.64,0,0,1-.23,0v0h0v0a.73.73,0,0,1-.26,0v0h0v.06a.5.5,0,0,1-.26,0h0v0h0v0h-.77a.89.89,0,0,1-.28,0v0h0v.05a.72.72,0,0,1-.23,0v0h0v.06a.65.65,0,0,1-.23,0v0h0V2.4a.62.62,0,0,1-.23,0v0h0v0a.62.62,0,0,1-.26,0v0h0v.06a.6.6,0,0,1-.26,0h0v0H36.9l-.1,0h-.18l-.09,0h-.17l-.1,0h-.16l-.11,0v0h0v0h0a.62.62,0,0,1-.23.08h-.16l-.11,0h0a.6.6,0,0,1-.23,0l0-.19,0,.19h0v0a.71.71,0,0,1-.26,0l0-.19,0,.19h0v.05a.72.72,0,0,1-.26,0h0v0h-.12l-.09,0h-.18l-.09,0H34a.15.15,0,0,1-.09,0l-.09,0h-.17l-.1,0h-.16l-.1,0h-.16L33,3h-.16l-.11,0h-.05a.62.62,0,0,1-.22,0l0-.19,0,.19h0v0a.6.6,0,0,1-.26,0l0-.19,0,.19h0v.05a.61.61,0,0,1-.26,0h0v0l-.11,0-.1,0-.09,0h-.08l-.09,0-.09,0h-.08l-.1,0-.08,0h-.08l-.1,0h0l-.12,0-.1,0h0l-.11,0-.11,0h0a.61.61,0,0,1-.23,0l-.05-.19.05.19h0v0a.76.76,0,0,1-.27,0l0-.19,0,.19h0v.06a.75.75,0,0,1-.26,0h0v0l-.11,0-.1,0-.08,0-.09,0-.09,0-.08,0-.08,0-.1,0-.08,0-.08,0-.11,0h0l-.12,0-.1,0h0a.5.5,0,0,1-.23,0L28,4.15l.06.19h0l0,.05a.59.59,0,0,1-.24,0l-.06-.19.06.19h0v0a.65.65,0,0,1-.26,0l-.06-.18.06.18h0l0,.06a.82.82,0,0,1-.26,0h0v0l-.12,0-.09,0-.09,0-.09,0-.08,0-.09,0-.08,0-.09,0L26.5,5l-.08,0-.09,0,0,0-.12,0-.1,0,0,0-.11,0-.1.05,0,0a.63.63,0,0,1-.23,0l-.08-.18.08.18h0l0,.05a.63.63,0,0,1-.24.05l-.08-.19.08.19h0l0,0a.69.69,0,0,1-.26.05L25,5.34l.07.18h0l0,.06a.68.68,0,0,1-.26.05h0l0,0-.11,0-.09.05-.08,0-.08,0-.08,0-.08,0-.08,0L24.1,6l-.08,0-.07,0-.09.05,0,0-.11,0-.09.06,0,0-.11,0-.1.06,0,0-.1,0-.1.06,0,0a.64.64,0,0,1-.22.07l-.09-.18.09.18h0l0,0a.69.69,0,0,1-.26.07l-.09-.17.09.17h0l0,.05a.67.67,0,0,1-.25.07h0l0,0-.1,0L22.18,7,22.1,7l-.08,0-.08.05-.08,0-.07,0-.08.06-.08,0-.07,0-.09.06-.07,0-.08,0-.09.06,0,0-.1,0L21,7.68l0,0a.64.64,0,0,1-.22.08l-.1-.17.1.17h0l0,0a.65.65,0,0,1-.23.09l-.1-.17.1.17h0l0,0a.67.67,0,0,1-.25.09l-.1-.17.1.17h0l0,.05a.67.67,0,0,1-.24.09L19.93,8l.11.18h0l0,.05a.67.67,0,0,1-.24.1h0l0,0-.11.06-.08.06-.07,0-.09,0-.08.06-.07,0-.08,0-.08.07-.07,0a.66.66,0,0,1-.18.08l-.11-.16.11.16h0l0,0a.65.65,0,0,1-.22.1L18.59,9l.11.16h0l0,0a.65.65,0,0,1-.22.1h0l0,0-.1.06-.08.07,0,0a.66.66,0,0,1-.2.09l-.11-.16.11.16h0l0,0a.66.66,0,0,1-.23.11l-.12-.16.12.16h0l0,0a.65.65,0,0,1-.24.11l-.11-.16.11.16h0l0,0a.64.64,0,0,1-.24.11h0l0,0-.1.06-.08.08-.05,0-.09.06-.08.07-.05,0-.08.05-.07.07-.07.06-.07,0-.07.07-.07.06-.06,0-.08.08,0,0-.09.06-.08.08,0,0L16,11.2l-.08.08,0,0a.66.66,0,0,1-.2.12l-.13-.15.13.15h0l0,0a.65.65,0,0,1-.21.12l-.13-.15.13.15h0l0,0a.65.65,0,0,1-.22.13l-.12-.14.12.14h0l0,0a.64.64,0,0,1-.21.13l-.14-.16.14.16h0l0,0a.66.66,0,0,1-.21.13h0l0,0-.1.08-.07.08-.06.05-.08.06-.07.08-.06.05-.07.06-.07.08,0,0-.08.06-.07.08,0,0L14,13l-.07.08,0,0-.08.07-.07.08,0,0-.08.07-.07.08,0,0-.09.07-.07.09,0,0a.65.65,0,0,1-.19.13L13,13.69l.14.14h0l0,0a.66.66,0,0,1-.22.15l-.14-.14.14.14h0l0,0a.66.66,0,0,1-.21.15l-.15-.14.15.14h0l0,0a.65.65,0,0,1-.2.15l-.16-.15.16.15h0l0,0a.64.64,0,0,1-.2.15h0l0,0-.09.08-.06.08,0,.06-.07.06-.06.08,0,0-.08.07-.07.09,0,0-.08.07-.06.08-.06.07-.06.05-.06.09-.06.07-.06.05-.06.09,0,0-.08.08-.06.09,0,0a.65.65,0,0,1-.18.15l-.15-.12.15.12h0l0,0a.66.66,0,0,1-.19.16l-.15-.13.15.13h0l0,0a.65.65,0,0,1-.17.15l-.15-.12.15.12,0,0,0,0a.63.63,0,0,1-.18.16l-.15-.12.15.12,0,0,0,0a.63.63,0,0,1-.18.16L10.15,17l.15.12h0l0,0a.65.65,0,0,1-.19.17L10,17.17l.15.12h0l0,0a.65.65,0,0,1-.19.17h0l0,0-.08.09-.06.1,0,0-.07.08,0,.08L9.65,18l-.06.07,0,.09-.05.07-.06.06-.05.09,0,.06-.06.07-.05.09,0,.06-.06.07-.06.1,0,0a.64.64,0,0,1-.16.16h0l0,0-.08.1-.05.09,0,.05-.07.08-.05.09,0,0-.07.09-.05.1,0,0a.65.65,0,0,1-.16.17l-.16-.11.16.11,0,0,0,0a.64.64,0,0,1-.17.18L8,20.06l.16.11h0l0,0a.64.64,0,0,1-.17.18l-.16-.1.16.1,0,0,.05,0a.64.64,0,0,1-.16.18l-.18-.11.18.11,0,0,0,0a.64.64,0,0,1-.16.18l-.17-.1.17.1h0l0,0a.65.65,0,0,1-.16.19L7.4,21l.17.1h0l0,0a.66.66,0,0,1-.17.19h0l0,0-.07.1,0,.1,0,.07-.05.08,0,.09,0,.07-.05.07,0,.09,0,.06L7,22.17l0,.1,0,.06-.05.08,0,.1,0,0-.06.09,0,.11,0,0h0l0,0,0,0h0a.63.63,0,0,1-.06.23l0,.07,0,.07,0,.1,0,0-.06.1,0,.1,0,0a.65.65,0,0,1-.14.18L6,23.6l.17.09,0,0,0,0a.65.65,0,0,1-.15.2H6l0,0-.06.1,0,.1,0,.06-.05.08,0,.1,0,0-.06.1a.63.63,0,0,1,0,.11l0,0a.63.63,0,0,1-.13.19l-.18-.08.18.08h0l0,0a.67.67,0,0,1-.15.22h0l0,0-.06.11a.69.69,0,0,1,0,.11l0,0a.64.64,0,0,1-.13.19l-.19-.08.19.08,0,0,0,0a.64.64,0,0,1-.13.21L5,25.82l.18.08,0,0,0,0a.64.64,0,0,1-.13.21l-.18-.08.18.08h0l0,0a.66.66,0,0,1-.13.21H5v0l0,0-.05.1,0,.09,0,.08,0,.08a.64.64,0,0,1,0,.1l0,.06,0,.1a.62.62,0,0,1,0,.1l0,.06a.66.66,0,0,1-.11.19l-.18-.07.18.07,0,0,.05,0a.65.65,0,0,1-.12.21h0v0l0,0,0,.1a.68.68,0,0,1,0,.1l0,.08,0,.08a.61.61,0,0,1,0,.1l0,.06,0,.09a.63.63,0,0,1,0,.11l0,.06a.65.65,0,0,1-.11.19h0v0h0l0,0a.66.66,0,0,1,0,.12.65.65,0,0,1,0,.1l0,.06,0,.1a.62.62,0,0,1,0,.1l0,.06,0,.09a.67.67,0,0,1,0,.11v0a.65.65,0,0,1-.11.21l-.19-.06.19.06,0,0,0,0a.65.65,0,0,1-.11.23h0a.68.68,0,0,1,0,.12.68.68,0,0,1,0,.1l0,.06,0,.09a.61.61,0,0,1,0,.11l0,.06,0,.09a.59.59,0,0,1,0,.11v0a.64.64,0,0,1-.1.21L3.27,31l.19.05v0l0,0a.64.64,0,0,1-.1.23h0a.64.64,0,0,1,0,.12.64.64,0,0,1,0,.11v.05a.64.64,0,0,1-.09.2l-.19,0,.19,0,0,0H3.3a.64.64,0,0,1-.09.22L3,32l.19,0,0,0,.05,0a.64.64,0,0,1-.09.22h0a.61.61,0,0,1,0,.12.64.64,0,0,1,0,.11v.06a.65.65,0,0,1,0,.1.66.66,0,0,1,0,.11v.06a.64.64,0,0,1-.08.21l-.19,0,.19,0,0,0H3a.65.65,0,0,1-.09.22l-.19,0,.19,0v0H3a.65.65,0,0,1-.09.24h0a.64.64,0,0,1,0,.12.61.61,0,0,1,0,.11V34a.65.65,0,0,1-.08.21l-.2,0,.2,0,0,0h.05a.64.64,0,0,1-.08.22l-.19,0,.19,0,0,0h.06a.65.65,0,0,1-.08.22l-.19,0,.19,0v0h0a.65.65,0,0,1-.08.25h0a.63.63,0,0,1,0,.24v.06a.65.65,0,0,1-.07.21L2,35.44l.6.08,0,0h.06a.64.64,0,0,1-.07.23l-.2,0,.2,0,0,0h.06a.65.65,0,0,1-.07.22h0v0h0a.66.66,0,0,1,0,.12.62.62,0,0,1,0,.1v.07a.67.67,0,0,1,0,.09.64.64,0,0,1,0,.11v.07a.68.68,0,0,1,0,.09.61.61,0,0,1,0,.11v0a.64.64,0,0,1-.06.22l-.19,0,.19,0v0h.05a.65.65,0,0,1-.06.24h0v0h0a.63.63,0,0,1,0,.12.64.64,0,0,1,0,.11v.07a.52.52,0,0,0,0,.2v0a.63.63,0,0,0,0,.23v0a.66.66,0,0,1-.05.22h0v0h0a.61.61,0,0,1,0,.12.65.65,0,0,1,0,.1v.07a.64.64,0,0,1,0,.1.68.68,0,0,1,0,.11v.07a.54.54,0,0,0,0,.21v0a.63.63,0,0,1,0,.22h0v0h.05a.64.64,0,0,1,0,.25h0v0h0a.65.65,0,0,1,0,.12.66.66,0,0,1,0,.1s0,.06,0,.07a.54.54,0,0,0,0,.21v0a.66.66,0,0,0,0,.23v0a.65.65,0,0,1,0,.23h0v0H2.3a.78.78,0,0,0,0,.25h0a.63.63,0,0,1,.05.24v.07a.64.64,0,0,1,0,.21h0l0,0h.06a.65.65,0,0,1,0,.23h0l0,0h.06a.64.64,0,0,1,0,.23h0v0h.05a.63.63,0,0,1,0,.13.64.64,0,0,1,0,.1v.07a.61.61,0,0,1,0,.1.63.63,0,0,1,0,.11v.07a.63.63,0,0,1,0,.21h0v0h.06a.65.65,0,0,1,0,.23h0v0H2.4a.65.65,0,0,1,0,.25h0a.68.68,0,0,1,0,.12.59.59,0,0,1,0,.11v.06a.65.65,0,0,1,0,.21h0v0h.06a.66.66,0,0,1,0,.24h0v0H2.5a.65.65,0,0,1,0,.23h0v0h.05a.71.71,0,0,1,0,.12.71.71,0,0,1,0,.11V45a.65.65,0,0,1,0,.1.66.66,0,0,1,0,.1v.07a.57.57,0,0,1,0,.1.66.66,0,0,1,0,.11v0a.65.65,0,0,1,0,.23h0v0h.05a.64.64,0,0,1,0,.25h0v0h.05a.68.68,0,0,1,0,.12.75.75,0,0,1,0,.1v.07a.66.66,0,0,1,0,.1.63.63,0,0,1,0,.1v.05a.64.64,0,0,1,0,.11.6.6,0,0,1,0,.11v.05a.64.64,0,0,1,0,.23h0v0h.05a.62.62,0,0,1,0,.12.61.61,0,0,1,0,.12h0a.63.63,0,0,1,.09.22v.07a.66.66,0,0,1,0,.09.63.63,0,0,1,0,.1v.05A.62.62,0,0,1,3,48a.62.62,0,0,1,0,.11v.05a.64.64,0,0,1,0,.22h0v0h.05a.66.66,0,0,1,0,.12l0,.1,0,.07a.59.59,0,0,1,0,.1.63.63,0,0,1,0,.1l0,.07a.75.75,0,0,1,0,.09.67.67,0,0,1,0,.11v.05a.64.64,0,0,1,0,.22h0v0h.05a.64.64,0,0,1,0,.24h0v0h.05a.63.63,0,0,1,0,.12l0,.1,0,.06a.61.61,0,0,1,0,.1.61.61,0,0,1,0,.1v0a.65.65,0,0,1,0,.12l0,.11v0a.65.65,0,0,1,0,.23h0v0h.05a.66.66,0,0,1,0,.12l0,.1,0,.06a.65.65,0,0,1,0,.1l0,.1,0,.06a.61.61,0,0,1,0,.1l0,.1v0a.64.64,0,0,1,0,.23h0v0H4a.64.64,0,0,1,0,.25H4v0h.05a.64.64,0,0,1,0,.12l0,.1,0,.06a.68.68,0,0,1,0,.1l0,.1v0a.63.63,0,0,1,0,.11l0,.11v0a.64.64,0,0,1,0,.23h0v0h0a.65.65,0,0,1,0,.26l0,0,0,0H4.5a.64.64,0,0,1,0,.12l.05.11,0,0a.65.65,0,0,1,0,.23h0s0,0,0,0l.05,0a.65.65,0,0,1,0,.24h0a.3.3,0,0,1,0,0l.05,0a.65.65,0,0,1,0,.24l0,0,0,0h0l0,0a.63.63,0,0,1,0,.12l.05.11,0,0a.63.63,0,0,1,0,.11l.05.1,0,0a.62.62,0,0,1,0,.1l0,.09,0,.06a.66.66,0,0,1,0,.1l.05.09,0,.06a.65.65,0,0,1,0,.21l0,0,0,0v0h0l0,0a.66.66,0,0,1,0,.11l0,.08,0,.07,0,.09.05.09,0,.07,0,.08.05.09,0,.06,0,.1.06.1,0,.06a.66.66,0,0,1,.05.21l0,0,0,0v0h0l0,0A.66.66,0,0,1,6,57l.05.09,0,.06,0,.1.05.09,0,.06,0,.09.06.09,0,0,0,.11.06.1,0,0a.66.66,0,0,1,.07.22l0,0,0,0v0h0l0,0,0,.11.06.09,0,.06a.65.65,0,0,1,.06.2l0,0,0,0v0l.05,0a.65.65,0,0,1,.07.22l0,0,0,0v0l0,0A.65.65,0,0,1,7,59l0,0,0,0v0l0,0a.65.65,0,0,1,.08.24l0,0,0,0h0l0,0a.67.67,0,0,1,.08.24l0,0,0,0v0l.06,0a.66.66,0,0,1,.08.22l0,0,0,0v0h0l0,0,0,.1.06.08,0,.06,0,.1.06.08,0,.06,0,.09.07.09,0,0,.05.1.07.09,0,0,0,.09.06.08,0,.07,0,.08.06.08,0,.07,0,.07.07.09,0,0a.64.64,0,0,1,.09.21l0,0,0,0v0l0,0a.64.64,0,0,1,.1.23l0,0,0,0v0h0l0,0,.06.11.07.08,0,.05,0,.09.07.09,0,.05a.64.64,0,0,1,.09.2l0,0,0,0v0l0,0a.65.65,0,0,1,.11.23l0,0,0,0v0l0,0a.65.65,0,0,1,.11.23l0,0,0,0h0l0,0a.66.66,0,0,1,.11.24l0,0,0,0h0l.05,0a.66.66,0,0,1,.1.23l0,0,0,0h0l0,0,.06.1.07.07.05.07,0,.07.07.08,0,.06.05.08.07.08,0,.06,0,.08.08.08,0,0,.06.09.08.08,0,0,.06.08.07.07,0,0,.06.09.08.08,0,0,.06.08.08.08,0,0,.06.09.08.08,0,0a.64.64,0,0,1,.11.2l0,0,0,0v0l0,0a.66.66,0,0,1,.12.21l0,0,0,0v0l0,0a.66.66,0,0,1,.13.21l0,0,0,0v0l0,0a.65.65,0,0,1,.13.21l0,0,0,0v0l0,0a.66.66,0,0,1,.13.21l0,0,0,0h0l0,0,.08.1.08.07,0,.05.06.08.08.07,0,0,.07.08.08.07,0,0,.06.08.07.06.06.07,0,.06.08.07.06.07,0,.06.08.07,0,0,.08.09.09.07,0,0a.66.66,0,0,1,.13.19l0,0,0,0v0l0,0a.64.64,0,0,1,.14.2l0,0,0,0v0l0,0a.66.66,0,0,1,.14.19l0,0,0,0v0l0,0a.64.64,0,0,1,.15.2l0,0,0,0v0l0,0a.65.65,0,0,1,.15.2l0,0,0,0v0l0,0a.65.65,0,0,1,.15.2l0,0,0,0h0l0,0,.08.09.09.06.06.05L15,69l.08.06,0,0,.07.08.09.06,0,0,.06.07.08.06.07.06.06.06.09.06,0,0,.08.08.09.06,0,0,.07.07.09.07,0,0,.08.08.1.07,0,0a.63.63,0,0,1,.15.18l0,0,0,0h0l0,0a.66.66,0,0,1,.17.21l0,0,0,0h0l0,0a.65.65,0,0,1,.16.19l0,0,0,0v0l0,0a.63.63,0,0,1,.17.19l0,0,0,0h0l0,0,.09.08.08,0,.07.06.06.06.09.05.06,0,.07.06.09.05.06,0,.07.06.09.06.06,0a.64.64,0,0,1,.13.15l0,0,0,0,0,0,0,0a.64.64,0,0,1,.17.17l0,0,0,0v0h0l0,0,.09.08.09.05,0,0a.64.64,0,0,1,.15.16l0,0,0,0v0l0,0a.63.63,0,0,1,.18.18l0,0,0,0v0l0,0a.64.64,0,0,1,.18.18l0,0,0,0h0l0,0a.66.66,0,0,1,.19.18l0,0,0,0h0l0,0,.09.07.09,0,.07,0,.07.06.09,0,.06,0,.08.06.09,0,.06,0,.07.06.1,0,.06,0,.07.05.09,0,0,0,.09.06.1,0,0,0,.09.06.1,0,0,0a.64.64,0,0,1,.17.15l0,0,0,0h0l0,0a.66.66,0,0,1,.2.17l0,0,0,0h0l0,0a.66.66,0,0,1,.2.17l0,0,0,0h0l0,0a.66.66,0,0,1,.2.17h0l0,0,0,0h0l0,0,.09.07.1,0,.06,0,.08.06.1,0,.06,0,.08.05.09,0,.08,0,.06,0,.1,0,0,0,.09.06.1,0,0,0,.09.06.1,0,0,0a.63.63,0,0,1,.19.14l0,0,0,0h0l0,0a.66.66,0,0,1,.21.16l0,0,0,0h0l0,0a.66.66,0,0,1,.21.16l0,0,0,0h0l0-.05a.67.67,0,0,1,.21.16h0l0,0,0,0h0l0,0,.1.06.1,0,.07,0,.08,0,.1,0,.07,0,.08,0,.11,0,.07,0,.08,0,.1,0,0,0,.1.05.1,0,0,0,.1.05.11,0,0,0,.1.05.11,0,0,0a.64.64,0,0,1,.19.13l0,0,0,0h0l0,0a.68.68,0,0,1,.22.14l0,0,0,0h0l0-.05a.67.67,0,0,1,.22.14h0l0,0,0,0h0l0,0,.1.05.11,0,.07,0,.09,0,.1,0,.07,0,.08,0,.1,0,.09,0,.06,0,.1,0,.06,0,.1,0,.1,0,.06,0,.1,0,.11,0,.06,0a.65.65,0,0,1,.19.11v0h0l0,0a.66.66,0,0,1,.23.13l0,0,0,0h0L29,77a.66.66,0,0,1,.23.13l0-.05,0,.05h0l0,0,.11,0,.1,0,.08,0,.09,0,.09,0,.08,0,.08,0,.1,0,.08,0,.08,0,.11,0,.08,0,.07,0,.11,0h0l.11,0,.12,0h0l.1,0,.12,0h0a.66.66,0,0,1,.21.1v0h0v0a.67.67,0,0,1,.24.12v0h0l0-.06a.66.66,0,0,1,.24.11h0v0h0v0l.11,0h.11l.07,0,.09,0h.1l.07,0,.09,0h.11l.07,0a.65.65,0,0,1,.19.08v0l0,0v-.05a.64.64,0,0,1,.22.09v0l0,0v-.05a.64.64,0,0,1,.22.09v0l0,0v-.06a.62.62,0,0,1,.22.09v0h0v0a.67.67,0,0,1,.25.1v0h0v-.06a.67.67,0,0,1,.24.1h0v0h0v0l.11,0h.19l.09,0h.18l.09,0h.18a.67.67,0,0,1,.19.07v0l0,0v-.05a.63.63,0,0,1,.23.07v0l0,0V78.5a.65.65,0,0,1,.23.07v0l0,0v-.06a.65.65,0,0,1,.22.07v0h0v0a.66.66,0,0,1,.25.08v0h0v-.06a.66.66,0,0,1,.25.08v0h0v0l.12,0H37l.09,0h.19l.08,0h.42l.11,0H38l.11,0h.16a.65.65,0,0,1,.22.05v0h0v0a.66.66,0,0,1,.26.06v0h0v-.06a.65.65,0,0,1,.26.06v0h0v0l.12,0H41a.64.64,0,0,1,.23,0v0h0v0a.5.5,0,0,1,.26,0v0h0V78.8a.51.51,0,0,1,.26,0h0v0h0v0h.11l.11,0h.44l.11,0a.89.89,0,0,1,.28,0Z"/></svg>