<svg id="_96" data-name="96" xmlns="http://www.w3.org/2000/svg" viewBox="0 0 81.11 75.89"><title>Artboard 6</title><path d="M57.49,74.43H6.74A4.74,4.74,0,0,1,2,69.69V10.19A5.51,5.51,0,0,1,7.51,4.68h50a.65.65,0,0,1,.65.65V20.28a.65.65,0,0,1-.18.45L42.69,36.65l-.55,9.21,8.7-1.37L57,38a.65.65,0,0,1,1.12.45V73.78A.65.65,0,0,1,57.49,74.43ZM7.51,6A4.21,4.21,0,0,0,3.3,10.19v59.5a3.44,3.44,0,0,0,3.43,3.44H56.84v-33l-5.23,5.45a.65.65,0,0,1-.37.19l-9.71,1.52a.67.67,0,0,1-.54-.16.65.65,0,0,1-.21-.52l.62-10.26a.64.64,0,0,1,.18-.41L56.84,20V6Z"/><path d="M13.15,74.21a.65.65,0,0,1-.65-.65V5.48a.65.65,0,1,1,1.3,0V73.56A.65.65,0,0,1,13.15,74.21Z"/><path d="M7.9,19.49a2.89,2.89,0,1,1,2.88-2.89A2.89,2.89,0,0,1,7.9,19.49ZM7.9,15A1.59,1.59,0,1,0,9.48,16.6,1.59,1.59,0,0,0,7.9,15Z"/><path d="M7.9,31a2.88,2.88,0,1,1,2.88-2.89A2.89,2.89,0,0,1,7.9,31Zm0-4.47a1.58,1.58,0,1,0,1.58,1.58A1.58,1.58,0,0,0,7.9,26.49Z"/><path d="M7.9,42.44a2.88,2.88,0,1,1,2.88-2.88A2.89,2.89,0,0,1,7.9,42.44ZM7.9,38a1.58,1.58,0,1,0,1.58,1.59A1.59,1.59,0,0,0,7.9,38Z"/><path d="M7.9,53.91A2.88,2.88,0,1,1,10.79,51,2.89,2.89,0,0,1,7.9,53.91Zm0-4.47a1.58,1.58,0,1,0,0,3.16A1.57,1.57,0,0,0,9.48,51,1.58,1.58,0,0,0,7.9,49.44Z"/><path d="M7.9,65.39a2.88,2.88,0,1,1,2.88-2.88A2.89,2.89,0,0,1,7.9,65.39Zm0-4.47A1.58,1.58,0,1,0,9.48,62.5,1.59,1.59,0,0,0,7.9,60.92Z"/><path d="M37.85,19H22.29a.65.65,0,1,1,0-1.3H37.85a.65.65,0,1,1,0,1.3Z"/><path d="M37.85,33.13H22.29a.65.65,0,1,1,0-1.3H37.85a.65.65,0,1,1,0,1.3Z"/><path d="M41.4,47.28H22.29a.65.65,0,1,1,0-1.3H41.4a.65.65,0,0,1,0,1.3Z"/><path d="M50.25,61.42h-28a.65.65,0,1,1,0-1.3h28a.65.65,0,0,1,0,1.3Z"/><path d="M41.43,47.28a.65.65,0,0,1-.65-.69l.62-10.26a.64.64,0,0,1,.18-.41L70,6.35a4,4,0,0,1,5.71-.12l4.21,4A4,4,0,0,1,80,16L51.61,45.55a.65.65,0,0,1-.37.19l-9.71,1.52Zm1.25-10.63-.55,9.21,8.7-1.37L79.05,15.08A2.75,2.75,0,0,0,79,11.21l-4.21-4a2.81,2.81,0,0,0-3.87.08Z"/><path d="M77.1,18.7a.65.65,0,0,1-.45-.18l-9.1-8.73a.65.65,0,0,1,.9-.94l9.11,8.73a.65.65,0,0,1-.45,1.12Z"/><path d="M51.15,45.75a.65.65,0,0,1-.45-.18L41.6,36.84a.65.65,0,0,1,.9-.94l9.09,8.73a.65.65,0,0,1-.45,1.12Z"/><path d="M46.6,41.38a.65.65,0,0,1-.47-1.1l25.95-27a.65.65,0,1,1,.94.9l-25.95,27A.65.65,0,0,1,46.6,41.38Z"/></svg>