<svg id="Layer_1" data-name="Layer 1" xmlns="http://www.w3.org/2000/svg" viewBox="0 0 81.17 79.17"><defs><style>.cls-1{fill:#100f0d;}</style></defs><title>Artboard 1</title><g id="surface1"><path class="cls-1" d="M2.92,65.24h54.5V60a.65.65,0,0,1,.65-.65H60.4V57.14a8.52,8.52,0,0,1,5.23-7.8L38.87,3Zm55.16,1.3H1.8a.65.65,0,0,1-.56-1L38.3,1.35A.65.65,0,0,1,38.87,1a.64.64,0,0,1,.56.32l27.72,48a.65.65,0,0,1-.37.95,7.21,7.21,0,0,0-5.08,6.84V60a.65.65,0,0,1-.65.65H58.73v5.25a.65.65,0,0,1-.65.65"/><path class="cls-1" d="M37.14,57.45h3.45V54H37.14Zm4.11,1.3H36.49a.65.65,0,0,1-.65-.65V53.4a.65.65,0,0,1,.65-.65h4.75a.65.65,0,0,1,.65.65v4.7a.65.65,0,0,1-.65.65"/><path class="cls-1" d="M38.2,49.08h1.44l1.12-24H37Zm2.06,1.3H37.57a.65.65,0,0,1-.65-.62L35.66,24.45a.64.64,0,0,1,.18-.48.66.66,0,0,1,.47-.2h5.13a.65.65,0,0,1,.65.68L40.91,49.76a.66.66,0,0,1-.65.62"/><path class="cls-1" d="M58.73,60.65V73.42a3.35,3.35,0,0,0,3.34,3.35H75.89A3.06,3.06,0,0,0,79,73.71V60.65ZM75.89,78.06H62.07a4.65,4.65,0,0,1-4.64-4.65V60a.65.65,0,0,1,.65-.65H79.61a.65.65,0,0,1,.65.65V73.71a4.36,4.36,0,0,1-4.36,4.36"/><path class="cls-1" d="M67.84,72.81H70l-.91-3.43a.65.65,0,0,1,.39-.77,1.48,1.48,0,0,0,.94-1.38,1.5,1.5,0,0,0-3,0,1.48,1.48,0,0,0,.94,1.38.65.65,0,0,1,.38.77Zm3,1.3H67a.66.66,0,0,1-.63-.82l1-3.75a2.77,2.77,0,0,1-1.23-2.32,2.79,2.79,0,1,1,4.36,2.32l1,3.75a.66.66,0,0,1-.63.82"/><path class="cls-1" d="M61.7,59.35H76V57.14a7.14,7.14,0,1,0-14.28,0Zm14.93,1.3H61.05A.65.65,0,0,1,60.4,60V57.14a8.44,8.44,0,1,1,16.87,0V60a.65.65,0,0,1-.65.65"/></g></svg>