<svg id="Flat" height="512" viewBox="0 0 512 512" width="512" xmlns="http://www.w3.org/2000/svg"><path d="m360 320h-304l-32-160h368z" fill="none"/><path d="m360 320h-304l-32-160h368z" fill="#a3d4f7"/><circle cx="320" cy="424" fill="#6a7073" r="24"/><circle cx="96" cy="424" fill="#6a7073" r="24"/><path d="m464 64h-48a15.989 15.989 0 0 0 -15.947 14.94l-14.611 73.06h-361.442a8 8 0 0 0 -7.845 9.569l16 80.013.011.055 15.986 79.932a8 8 0 0 0 7.848 6.431h304a16 16 0 0 1 0 32h-304a8 8 0 0 0 -8 8v32a8 8 0 0 0 8 8h304a8 8 0 0 0 8-8v-25.013a32 32 0 0 0 1.472-61.555l14.359-71.8.011-.055 16-80.013 13.171-65.857a16.033 16.033 0 0 0 2.987.293h48a16 16 0 0 0 0-32zm-112 328h-288v-16h288zm17.442-160h-44.152l9.6-64h47.352zm-16 80h-40.152l9.6-64h43.351zm-105.032 0 3.2-64h55.1l-9.6 64zm-129.52 0-9.6-64h55.1l3.2 64zm136.72-144h63.1l-9.6 64h-56.7zm-92.02 64h-56.7l-9.6-64h63.1zm12.82-64h63.18l-3.2 64h-56.78zm4 80h55.18l-3.2 64h-48.78zm-99.3-80 9.6 64h-44.152l-12.8-64zm-31.351 80h43.351l9.6 64h-40.151z" fill="#1261a0"/><circle cx="96" cy="424" fill="#9aa3a8" r="8"/><circle cx="320" cy="424" fill="#9aa3a8" r="8"/><circle cx="208" cy="128" fill="#ffb632" r="64"/><path d="m193 160a8 8 0 0 1 -5.657-2.343l-16-16a8 8 0 0 1 11.314-11.314l9.806 9.805 34.391-41.269a8 8 0 0 1 12.292 10.242l-40 48a8 8 0 0 1 -5.784 2.871c-.121.008-.242.008-.362.008z" fill="#35a872"/></svg>