<svg height="512" viewBox="0 0 64 64" width="512" xmlns="http://www.w3.org/2000/svg"><g id="Wallet-2" data-name="Wallet"><path d="m54 27h-42a4 4 0 0 0 0 8h44v-6a2.006 2.006 0 0 0 -2-2z" fill="#c49a6c"/><path d="m15.36 23 2.31 4 2.31 4h25.52l6.93-4 8.57-4.95-11-19.05z" fill="#5eac24"/><path d="m54.3 22.45-7.88 4.55-6.92 4h-16.06l-2.31-4-.17-.3a3 3 0 0 0 1.1-4.1l24.24-14a3 3 0 0 0 4.1 1.1l5 8.66a2.987 2.987 0 0 0 -1.1 4.09z" fill="#91dc5a"/><path d="m26.99 35h.95a2.529 2.529 0 0 0 -.95 0z" fill="#9bc9ff"/><path d="m12 35a4 4 0 0 1 -4-4v26a4 4 0 0 0 4 4h42a2 2 0 0 0 2-2v-24z" fill="#754c29"/><path d="m8.359 32.641a3.984 3.984 0 0 1 -.359-1.641v1.446c.118.068.234.138.359.195z" fill="#603913"/><path d="m54 35v22a2 2 0 0 1 -2 2h-42a3.961 3.961 0 0 1 -1.64-.36 3.994 3.994 0 0 0 3.64 2.36h42a2 2 0 0 0 2-2v-24z" fill="#603913"/><path d="m24.99 35h.95a2.529 2.529 0 0 0 -.95 0z" fill="#a97c50"/><path d="m54 27h-1.57l-.064.037a2.006 2.006 0 0 1 1.634 1.963v6h2v-6a2.006 2.006 0 0 0 -2-2z" fill="#a97c50"/><path d="m48 47v2a2 2 0 0 0 2 2h6a2 2 0 0 0 2-2v-2a2 2 0 0 0 -2-2h-6a2 2 0 0 0 -2 2z" fill="#ee8700"/><path d="m45.108 18.526a8 8 0 0 0 -10.895-2.945l-.065.037a8 8 0 0 0 7.981 13.862l.1-.057a8 8 0 0 0 2.879-10.897z" fill="#f1f2f2"/><path d="m34.18 15.6-.032.02.065-.037z" fill="#9bc9ff"/><path d="m42.18 29.454c.016-.009.031-.021.048-.031l-.1.057c.018-.009.035-.016.052-.026z" fill="#9bc9ff"/><rect fill="#a97c50" height="2" rx="1" width="42" x="11" y="30"/><path d="m34.581 22.3a3.006 3.006 0 0 0 4.1 1.1 1 1 0 1 1 -.368 1.366 1 1 0 0 0 -1.732 1 3.005 3.005 0 0 0 2.6 1.5 2.927 2.927 0 0 0 .531-.069l.1.168a1 1 0 1 0 1.733-1l-.091-.157a2.994 2.994 0 0 0 -3.771-4.54 1 1 0 1 1 -1-1.732 1 1 0 0 1 1.365.366 1 1 0 1 0 1.732-1 2.963 2.963 0 0 0 -3.14-1.442l-.091-.157a1 1 0 0 0 -1.733 1l.093.16a3 3 0 0 0 -.328 3.437z" fill="#ff9811"/><path d="m48.937 15.161-.865.5a1 1 0 0 0 1 1.731l.865-.5a1 1 0 1 0 -1-1.731z" fill="#f1f2f2"/><path d="m26.937 27.161-.865.5a1 1 0 0 0 1 1.731l.865-.5a1 1 0 1 0 -1-1.731z" fill="#f1f2f2"/><path d="m52 47h-1a1 1 0 0 0 0 2h1a1 1 0 0 0 0-2z" fill="#ff5023"/><path d="m20 56h-6a1 1 0 0 1 -1-1v-6a1 1 0 0 0 -2 0v6a3 3 0 0 0 3 3h6a1 1 0 0 0 0-2z" fill="#8b5e3c"/><path d="m31 2h2v2h-2z" fill="#ff6243"/><path d="m33 4h2v2h-2z" fill="#ff6243"/><path d="m29 4h2v2h-2z" fill="#ff6243"/><path d="m31 6h2v2h-2z" fill="#ff6243"/><g fill="#ff5023"><path d="m22 8h2v2h-2z"/><path d="m24 10h2v2h-2z"/><path d="m20 10h2v2h-2z"/><path d="m22 12h2v2h-2z"/><path d="m13 2h2v2h-2z"/><path d="m15 4h2v2h-2z"/><path d="m11 4h2v2h-2z"/><path d="m13 6h2v2h-2z"/></g></g></svg>