<?xml version="1.0" encoding="iso-8859-1"?>
<!-- Generator: Adobe Illustrator 19.0.0, SVG Export Plug-In . SVG Version: 6.00 Build 0)  -->
<svg version="1.1" id="Capa_1" xmlns="http://www.w3.org/2000/svg" xmlns:xlink="http://www.w3.org/1999/xlink" x="0px" y="0px"
	 viewBox="0 0 432.002 432.002" style="enable-background:new 0 0 432.002 432.002;" xml:space="preserve">
<g>
	<polygon style="fill:#F9CD74;" points="216,8.002 392,112.002 392,320.002 216,424.002 40,320.002 40,112.002 	"/>
	<polygon style="fill:#F9B659;" points="392,112.002 216,216.002 40,112.002 216,8.002 	"/>
	<polygon style="fill:#EB9850;" points="216,216.002 216,424.002 392,320.002 392,112.002 	"/>
	<polygon style="fill:#6B968B;" points="334.664,145.882 334.664,217.882 277.336,251.762 277.336,179.762 101.336,75.762 
		158.664,41.882 	"/>
	<polygon style="fill:#608778;" points="334.664,145.882 334.664,217.882 277.336,251.762 277.336,179.762 	"/>
	<g>
		<path style="fill:#EB9850;" d="M72,312.002c-4.418,0-8-3.582-8-8v-32c0-4.418,3.582-8,8-8s8,3.582,8,8v32
			C80,308.42,76.418,312.002,72,312.002z"/>
		<path style="fill:#EB9850;" d="M104,328.002c-4.418,0-8-3.582-8-8v-32c0-4.418,3.582-8,8-8s8,3.582,8,8v32
			C112,324.42,108.418,328.002,104,328.002z"/>
	</g>
</g>
<g>
	<path style="fill:#294F61;" d="M216,224.002c-1.432,0.001-2.839-0.383-4.072-1.112l-148.92-88
		c-3.804-2.249-5.065-7.156-2.816-10.96c2.249-3.804,7.156-5.065,10.96-2.816L216,206.706l171.928-101.6
		c3.804-2.249,8.711-0.988,10.96,2.816c2.249,3.804,0.988,8.711-2.816,10.96l0,0l-176,104C218.839,223.613,217.433,224,216,224.002z
		"/>
	<path style="fill:#294F61;" d="M216,360.002c-4.418,0-8-3.582-8-8v-136c0-4.418,3.582-8,8-8s8,3.582,8,8v136
		C224,356.42,220.418,360.002,216,360.002z"/>
	<path style="fill:#294F61;" d="M216,432.002c-4.418,0-8-3.582-8-8v-40c0-4.418,3.582-8,8-8s8,3.582,8,8v40
		C224,428.42,220.418,432.002,216,432.002z"/>
	<path style="fill:#294F61;" d="M232,93.21c-1.43-0.001-2.833-0.385-4.064-1.112l-73.344-43.296
		c-3.804-2.249-5.065-7.156-2.816-10.96c2.249-3.804,7.156-5.065,10.96-2.816l73.336,43.336c3.8,2.255,5.052,7.163,2.798,10.962
		c-1.441,2.428-4.054,3.917-6.878,3.918L232,93.21z"/>
	<path style="fill:#294F61;" d="M277.336,259.762c-4.418,0-8-3.582-8-8V184.33L97.264,82.65c-3.804-2.249-5.065-7.156-2.816-10.96
		c2.249-3.804,7.156-5.065,10.96-2.816l0,0l176,104c2.435,1.44,3.929,4.059,3.928,6.888v57.984l41.328-24.424V150.45l-74.736-44.168
		c-3.804-2.249-5.065-7.156-2.816-10.96c2.249-3.804,7.156-5.065,10.96-2.816l0,0l78.664,46.488c2.435,1.44,3.929,4.059,3.928,6.888
		v72c0.001,2.829-1.493,5.448-3.928,6.888l-57.328,33.88C280.174,259.378,278.768,259.762,277.336,259.762z"/>
	<path style="fill:#294F61;" d="M216,432.002c-1.432,0.001-2.839-0.383-4.072-1.112l-176-104c-2.435-1.44-3.929-4.059-3.928-6.888
		v-208c-0.001-2.829,1.493-5.448,3.928-6.888l176-104c2.512-1.485,5.632-1.485,8.144,0l176,104c2.435,1.44,3.929,4.059,3.928,6.888
		v208c0.001,2.829-1.493,5.448-3.928,6.888l-176,104C218.838,431.618,217.432,432.002,216,432.002z M48,315.434l168,99.272
		l168-99.272V116.57L216,17.298L48,116.57V315.434z"/>
</g>
<g>
</g>
<g>
</g>
<g>
</g>
<g>
</g>
<g>
</g>
<g>
</g>
<g>
</g>
<g>
</g>
<g>
</g>
<g>
</g>
<g>
</g>
<g>
</g>
<g>
</g>
<g>
</g>
<g>
</g>
</svg>
