<svg height="512pt" viewBox="0 -12 512 512" width="512pt" xmlns="http://www.w3.org/2000/svg"><path d="m280 131.351562c-7.441406 2.960938-15.519531 4.640626-24 4.640626s-16.558594-1.679688-24-4.640626c-23.441406-9.511718-40-32.480468-40-59.359374v32c0 26.800781 16.480469 49.761718 39.839844 59.28125 7.441406 3.039062 15.59375 4.71875 24.160156 4.71875 8.480469 0 16.558594-1.679688 24-4.640626 23.441406-9.511718 40-32.480468 40-59.359374v-32c0 26.878906-16.558594 49.839843-40 59.359374zm0 0" fill="#f6bb42"/><path d="m320 71.992188c0 26.878906-16.558594 49.839843-40 59.359374-7.441406 2.960938-15.519531 4.640626-24 4.640626s-16.558594-1.679688-24-4.640626c-23.441406-9.511718-40-32.480468-40-59.359374 0-35.359376 28.640625-64 64-64s64 28.640624 64 64zm0 0" fill="#ffce54"/><path d="m152 455.921875v24.078125h-144v-24.078125c0-13.28125 10.71875-24 24-24v.078125h24v-.078125l24 16 24-16v.078125h24v-.078125c13.28125 0 24 10.71875 24 24zm0 0" fill="#a0d468"/><path d="m128 431.921875v.078125h-24v-.078125l-1.503906 1c10.089844 2.839844 17.503906 11.980469 17.503906 23v24.078125h32v-24.078125c0-13.28125-10.71875-24-24-24zm0 0" fill="#8cc152"/><path d="m104 402.480469v29.449219l-24 16-24-16v-29.449219c7.28125 3.519531 15.359375 5.449219 24 5.449219s16.71875-1.929688 24-5.449219zm0 0" fill="#eac6bb"/><path d="m88 327.921875c19.121094 0 36.320312 8.390625 48 21.671875v2.40625c0 22.3125-13.121094 41.59375-32 50.480469-7.28125 3.519531-15.359375 5.449219-24 5.449219s-16.71875-1.921876-24-5.449219c-18.878906-8.878907-32-28.167969-32-50.480469v-24.078125c13.28125 0 24-10.722656 24-24 0 13.277344 10.71875 24 24 24zm0 0" fill="#eac6bb"/><path d="m104 330.015625v21.984375c0 22.3125-13.121094 41.59375-32 50.480469-2.558594 1.238281-5.246094 2.199219-8 3.03125 5.0625 1.519531 10.398438 2.417969 16 2.417969 8.640625 0 16.71875-1.921876 24-5.449219 18.878906-8.878907 32-28.167969 32-50.480469v-2.40625c-8.296875-9.433594-19.425781-16.328125-32-19.578125zm0 0" fill="#d3b1a9"/><path d="m48 263.921875v40c0 13.277344-10.71875 24-24 24v-40c0-13.28125 10.71875-24 24-24zm0 0" fill="#da4453"/><path d="m152 311.921875v80c0-16.242187-6-31.050781-16-42.328125-11.679688-13.28125-28.878906-21.671875-48-21.671875h-16c-13.28125 0-24-10.722656-24-24v-40c10.960938-8.808594 24.878906-16 40-16 35.359375 0 64 28.636719 64 64zm0 0" fill="#ed5565"/><path d="m88 247.921875c-5.167969 0-10.183594.886719-15.007812 2.34375 27.097656 7.453125 47.007812 32.191406 47.007812 61.65625v24.597656c6.023438 3.488281 11.449219 7.886719 16 13.074219 10 11.277344 16 26.085938 16 42.328125v-80c0-35.363281-28.640625-64-64-64zm0 0" fill="#da4453"/><path d="m488 315.921875v11.03125c-13.761719-18-22.078125-21.273437-32-19.191406l16-32.480469c9.921875 10.640625 16 24.949219 16 40.640625zm0 0" fill="#edab37"/><path d="m472 275.28125-16 32.480469c-14.960938 3.117187-33.519531 18.71875-80 13.277343-2.558594-.320312-5.199219-.640624-8-1.117187v-4c0-33.128906 26.878906-59.921875 60-59.921875 17.441406 0 33.121094 7.441406 44 19.28125zm0 0" fill="#ffce54"/><path d="m428 256c-2.625 0-5.191406.207031-7.726562.542969-.378907.058593-.746094.128906-1.121094.167969-2.449219.378906-4.847656.855468-7.191406 1.511718 10.917968 3.023438 20.613281 8.976563 28.039062 17.058594 8.199219 8.789062 13.710938 20.117188 15.398438 32.621094.195312-.046875.410156-.109375.601562-.148438l16-32.480468c-10.878906-11.832032-26.558594-19.273438-44-19.273438zm0 0" fill="#f6bb42"/><path d="m488 351.921875v.078125c0 22.3125-13.121094 41.59375-32 50.480469-7.28125 3.519531-15.359375 5.449219-24 5.449219s-16.71875-1.921876-24-5.449219c-18.878906-8.878907-32-28.167969-32-50.480469v-30.960938c46.480469 5.441407 65.039062-10.167968 80-13.277343 9.921875-2.082031 18.238281 1.191406 32 19.191406zm0 0" fill="#eac6bb"/><path d="m456 307.761719v44.246093c0 22.3125-13.121094 41.59375-32 50.480469-2.558594 1.238281-5.246094 2.199219-8 3.03125 5.0625 1.519531 10.398438 2.417969 16 2.417969 8.640625 0 16.71875-1.921875 24-5.449219 18.878906-8.878906 32-28.167969 32-50.480469v-25.046874c-13.761719-18.007813-22.078125-21.28125-32-19.199219zm0 0" fill="#d3b1a9"/><path d="m408 432 8 7.921875 16-8 16 8 8-7.921875h24v-.078125c13.28125 0 24 10.71875 24 24v24.078125h-144v-24.078125c0-13.28125 10.71875-24 24-24v.078125zm0 0" fill="#e6e9ed"/><path d="m480 431.921875v.078125h-24l-1.0625 1.046875c9.863281 2.984375 17.0625 12.015625 17.0625 22.875v24.078125h32v-24.078125c0-13.28125-10.71875-24-24-24zm0 0" fill="#ccd1d9"/><path d="m456 431.921875v.078125l-8 7.921875-16-8-16 8-8-7.921875v-29.519531c7.28125 3.519531 15.359375 5.449219 24 5.449219s16.71875-1.921876 24-5.449219zm0 0" fill="#f5f7fa"/><path d="m272 439.921875 8-7.921875h24v-.078125c13.28125 0 24 10.71875 24 24v24.078125h-144v-24.078125c0-13.28125 10.71875-24 24-24v.078125h24l8 7.921875 16-8zm0 0" fill="#5d9cec"/><path d="m304 431.921875v.078125h-24l-1.0625 1.046875c9.863281 2.984375 17.0625 12.015625 17.0625 22.875v24.078125h32v-24.078125c0-13.28125-10.71875-24-24-24zm0 0" fill="#4a89dc"/><path d="m280 431.921875v.078125l-8 7.921875-16-8-16 8-8-7.921875v-29.519531c7.28125 3.519531 15.359375 5.449219 24 5.449219s16.71875-1.921876 24-5.449219zm0 0" fill="#f5f7fa"/><path d="m312 328v24c0 22.3125-13.121094 41.59375-32 50.480469-7.28125 3.519531-15.359375 5.449219-24 5.449219s-16.71875-1.921876-24-5.449219c-18.878906-8.878907-32-28.167969-32-50.480469v-23.839844l16-16.082031v-.15625s17.761719 8.15625 39.519531 8.15625c20.320313 0 38.082031-7.125 40.234375-8l.246094.082031zm0 0" fill="#eac6bb"/><path d="m296 312.160156-.238281-.082031c-1.195313.488281-7.242188 2.859375-15.761719 4.90625v35.015625c0 22.3125-13.121094 41.59375-32 50.480469-2.558594 1.238281-5.246094 2.199219-8 3.03125 5.0625 1.519531 10.398438 2.417969 16 2.417969 8.640625 0 16.71875-1.921876 24-5.449219 18.878906-8.878907 32-28.167969 32-50.480469v-24zm0 0" fill="#d3b1a9"/><path d="m200 311.921875c0-30.882813 25.039062-55.921875 56-55.921875s56 25.039062 56 55.921875v16.078125l-16-15.839844-.238281-.082031c-2.160157.875-19.914063 8-40.234375 8-21.765625 0-39.519532-8.15625-39.519532-8.15625v.15625l-16 16.082031v-16.238281zm0 0" fill="#965353"/><path d="m256 256c-5.558594 0-10.929688.832031-16 2.34375 23.144531 6.871094 40 28.25 40 53.578125v5.0625c8.511719-2.046875 14.558594-4.425781 15.761719-4.90625l.238281.082031 16 15.839844v-16.078125c0-30.882813-25.039062-55.921875-56-55.921875zm0 0" fill="#844747"/><path d="m256 144c-39.703125 0-72-32.296875-72-72s32.296875-72 72-72 72 32.296875 72 72-32.296875 72-72 72zm0-128c-30.871094 0-56 25.128906-56 56s25.128906 56 56 56 56-25.128906 56-56-25.128906-56-56-56zm0 0"/><path d="m256 176c-39.703125 0-72-32.304688-72-72.007812 0-4.425782 3.574219-8 8-8s8 3.574218 8 8c0 30.878906 25.128906 56.007812 56 56.007812s56-25.128906 56-56.007812c0-4.425782 3.574219-8 8-8s8 3.574218 8 8c0 39.703124-32.296875 72.007812-72 72.007812zm0 0"/><path d="m232 170.910156c-4.425781 0-8-3.574218-8-8v-31.574218c0-4.425782 3.574219-8 8-8s8 3.574218 8 8v31.574218c0 4.425782-3.574219 8-8 8zm0 0"/><path d="m280 171.34375c-4.425781 0-8-3.574219-8-8v-32.007812c0-4.425782 3.574219-8 8-8s8 3.574218 8 8v32.007812c0 4.425781-3.574219 8-8 8zm0 0"/><path d="m320 111.992188c-4.425781 0-8-3.578126-8-8v-31.992188c0-4.425781 3.574219-8 8-8s8 3.574219 8 8v31.992188c0 4.421874-3.574219 8-8 8zm0 0"/><path d="m192 111.992188c-4.425781 0-8-3.578126-8-8v-31.992188c0-4.425781 3.574219-8 8-8s8 3.574219 8 8v31.992188c0 4.421874-3.574219 8-8 8zm0 0"/><path d="m256 95.992188c-4.425781 0-8-3.578126-8-8v-31.992188c0-4.425781 3.574219-8 8-8s8 3.574219 8 8v31.992188c0 4.421874-3.574219 8-8 8zm0 0"/><path d="m256 224c-4.425781 0-8-3.574219-8-8v-16c0-4.425781 3.574219-8 8-8s8 3.574219 8 8v16c0 4.425781-3.574219 8-8 8zm0 0"/><path d="m432 224c-4.425781 0-8-3.574219-8-8v-128c0-4.425781 3.574219-8 8-8s8 3.574219 8 8v128c0 4.425781-3.574219 8-8 8zm0 0"/><path d="m432 96h-80c-4.425781 0-8-3.574219-8-8s3.574219-8 8-8h80c4.425781 0 8 3.574219 8 8s-3.574219 8-8 8zm0 0"/><path d="m80 224c-4.425781 0-8-3.574219-8-8v-128c0-4.425781 3.574219-8 8-8s8 3.574219 8 8v128c0 4.425781-3.574219 8-8 8zm0 0"/><path d="m160 96h-80c-4.425781 0-8-3.574219-8-8s3.574219-8 8-8h80c4.425781 0 8 3.574219 8 8s-3.574219 8-8 8zm0 0"/><path d="m376 360c-4.425781 0-8-3.574219-8-8v-30.945312c0-4.421876 3.574219-8 8-8s8 3.578124 8 8v30.945312c0 4.425781-3.574219 8-8 8zm0 0"/><path d="m488 360c-4.425781 0-8-3.574219-8-8v-36.007812c0-4.425782 3.574219-8 8-8s8 3.574218 8 8v36.007812c0 4.425781-3.574219 8-8 8zm0 0"/><path d="m488 323.992188c-4.425781 0-8-3.578126-8-8 0-28.671876-23.328125-51.992188-52.007812-51.992188-28.671876 0-51.992188 23.320312-51.992188 51.992188 0 4.421874-3.574219 8-8 8s-8-3.578126-8-8c0-37.496094 30.503906-67.992188 67.992188-67.992188 37.503906 0 68.007812 30.503906 68.007812 67.992188 0 4.421874-3.574219 8-8 8zm0 0"/><path d="m488.007812 334.960938c-2.40625 0-4.785156-1.082032-6.359374-3.136719-15.449219-20.175781-19.648438-18.519531-35.3125-12.304688-15.015626 5.960938-37.71875 14.960938-79.582032 8.335938-4.363281-.6875-7.347656-4.785157-6.648437-9.152344.679687-4.359375 4.796875-7.359375 9.152343-6.648437 37.527344 5.921874 56.988282-1.78125 71.191407-7.414063 19.292969-7.640625 32.214843-10.878906 53.902343 17.449219 2.6875 3.503906 2.023438 8.527344-1.488281 11.214844-1.449219 1.121093-3.160156 1.65625-4.855469 1.65625zm0 0"/><path d="m455.992188 315.808594c-1.175782 0-2.382813-.265625-3.519532-.824219-3.960937-1.945313-5.59375-6.746094-3.648437-10.703125l16-32.570312c1.945312-3.96875 6.710937-5.605469 10.710937-3.65625 3.960938 1.945312 5.59375 6.746093 3.648438 10.707031l-16 32.566406c-1.390625 2.839844-4.238282 4.480469-7.191406 4.480469zm0 0"/><path d="m360 463.960938c-4.425781 0-8-3.578126-8-8 0-17.640626 14.351562-31.992188 32-31.992188 4.425781 0 8 3.574219 8 8 0 4.421875-3.574219 8-8 8-8.824219 0-16 7.167969-16 15.992188 0 4.421874-3.574219 8-8 8zm0 0"/><path d="m408 440.015625h-24c-4.425781 0-8-3.574219-8-8 0-4.421875 3.574219-8 8-8h24c4.425781 0 8 3.578125 8 8 0 4.425781-3.574219 8-8 8zm0 0"/><path d="m360 488c-4.425781 0-8-3.574219-8-8v-24.039062c0-4.425782 3.574219-8 8-8s8 3.574218 8 8v24.039062c0 4.425781-3.574219 8-8 8zm0 0"/><path d="m504 463.960938c-4.425781 0-8-3.578126-8-8 0-8.824219-7.175781-15.992188-16-15.992188-4.425781 0-8-3.578125-8-8 0-4.425781 3.574219-8 8-8 17.648438 0 32 14.351562 32 31.992188 0 4.421874-3.574219 8-8 8zm0 0"/><path d="m480 440.015625h-24c-4.425781 0-8-3.574219-8-8 0-4.421875 3.574219-8 8-8h24c4.425781 0 8 3.578125 8 8 0 4.425781-3.574219 8-8 8zm0 0"/><path d="m504 488c-4.425781 0-8-3.574219-8-8v-24.039062c0-4.425782 3.574219-8 8-8s8 3.574218 8 8v24.039062c0 4.425781-3.574219 8-8 8zm0 0"/><path d="m504 488h-144c-4.425781 0-8-3.574219-8-8s3.574219-8 8-8h144c4.425781 0 8 3.574219 8 8s-3.574219 8-8 8zm0 0"/><path d="m408 440.015625c-4.425781 0-8-3.574219-8-8v-29.472656c0-4.421875 3.574219-8 8-8s8 3.578125 8 8v29.472656c0 4.425781-3.574219 8-8 8zm0 0"/><path d="m456 439.960938c-4.425781 0-8-3.578126-8-8v-29.417969c0-4.421875 3.574219-8 8-8s8 3.578125 8 8v29.417969c0 4.421874-3.574219 8-8 8zm0 0"/><path d="m432 415.9375c-35.289062 0-64-28.707031-64-63.976562 0-4.425782 3.574219-8 8-8s8 3.574218 8 8c0 26.453124 21.527344 47.976562 48 47.976562s48-21.523438 48-47.976562c0-4.425782 3.574219-8 8-8s8 3.574218 8 8c0 35.269531-28.710938 63.976562-64 63.976562zm0 0"/><path d="m416.007812 447.960938c-2.9375 0-5.761718-1.617188-7.167968-4.425782-1.976563-3.949218-.375-8.757812 3.574218-10.734375l16-8c3.960938-1.96875 8.753907-.375 10.738282 3.574219 1.976562 3.953125.375 8.761719-3.578125 10.738281l-16 8c-1.140625.574219-2.367188.847657-3.566407.847657zm0 0"/><path d="m448 447.960938c-2.046875 0-4.097656-.785157-5.65625-2.34375-3.128906-3.128907-3.128906-8.183594 0-11.3125l8-8c3.128906-3.128907 8.183594-3.128907 11.3125 0 3.128906 3.128906 3.128906 8.183593 0 11.3125l-8 8c-1.558594 1.558593-3.609375 2.34375-5.65625 2.34375zm0 0"/><path d="m416 447.960938c-2.046875 0-4.097656-.785157-5.65625-2.34375l-8-8c-3.128906-3.128907-3.128906-8.183594 0-11.3125 3.128906-3.128907 8.183594-3.128907 11.3125 0l8 8c3.128906 3.128906 3.128906 8.183593 0 11.3125-1.558594 1.558593-3.609375 2.34375-5.65625 2.34375zm0 0"/><path d="m447.992188 447.960938c-1.199219 0-2.425782-.273438-3.566407-.839844l-16-8c-3.953125-1.976563-5.554687-6.785156-3.578125-10.738282 1.976563-3.949218 6.785156-5.542968 10.738282-3.574218l16 8c3.949218 1.976562 5.550781 6.785156 3.574218 10.734375-1.40625 2.800781-4.230468 4.417969-7.167968 4.417969zm0 0"/><path d="m200 360c-4.425781 0-8-3.574219-8-8v-40.03125c0-4.425781 3.574219-8 8-8s8 3.574219 8 8v40.03125c0 4.425781-3.574219 8-8 8zm0 0"/><path d="m312 360c-4.425781 0-8-3.574219-8-8v-40.03125c0-4.425781 3.574219-8 8-8s8 3.574219 8 8v40.03125c0 4.425781-3.574219 8-8 8zm0 0"/><path d="m184 463.960938c-4.425781 0-8-3.578126-8-8 0-17.640626 14.351562-31.992188 32-31.992188 4.425781 0 8 3.574219 8 8 0 4.421875-3.574219 8-8 8-8.824219 0-16 7.167969-16 15.992188 0 4.421874-3.574219 8-8 8zm0 0"/><path d="m232 440.015625h-24c-4.425781 0-8-3.574219-8-8 0-4.421875 3.574219-8 8-8h24c4.425781 0 8 3.578125 8 8 0 4.425781-3.574219 8-8 8zm0 0"/><path d="m184 488c-4.425781 0-8-3.574219-8-8v-24.039062c0-4.425782 3.574219-8 8-8s8 3.574218 8 8v24.039062c0 4.425781-3.574219 8-8 8zm0 0"/><path d="m328 463.960938c-4.425781 0-8-3.578126-8-8 0-8.824219-7.175781-15.992188-16-15.992188-4.425781 0-8-3.578125-8-8 0-4.425781 3.574219-8 8-8 17.648438 0 32 14.351562 32 31.992188 0 4.421874-3.574219 8-8 8zm0 0"/><path d="m304 440.015625h-24c-4.425781 0-8-3.574219-8-8 0-4.421875 3.574219-8 8-8h24c4.425781 0 8 3.578125 8 8 0 4.425781-3.574219 8-8 8zm0 0"/><path d="m328 488c-4.425781 0-8-3.574219-8-8v-24.039062c0-4.425782 3.574219-8 8-8s8 3.574218 8 8v24.039062c0 4.425781-3.574219 8-8 8zm0 0"/><path d="m328 488h-144c-4.425781 0-8-3.574219-8-8s3.574219-8 8-8h144c4.425781 0 8 3.574219 8 8s-3.574219 8-8 8zm0 0"/><path d="m232 440.015625c-4.425781 0-8-3.574219-8-8v-29.472656c0-4.421875 3.574219-8 8-8s8 3.578125 8 8v29.472656c0 4.425781-3.574219 8-8 8zm0 0"/><path d="m280 439.960938c-4.425781 0-8-3.578126-8-8v-29.417969c0-4.421875 3.574219-8 8-8s8 3.578125 8 8v29.417969c0 4.421874-3.574219 8-8 8zm0 0"/><path d="m256 415.9375c-35.289062 0-64-28.707031-64-63.976562 0-4.425782 3.574219-8 8-8s8 3.574218 8 8c0 26.453124 21.527344 47.976562 48 47.976562s48-21.523438 48-47.976562c0-4.425782 3.574219-8 8-8s8 3.574218 8 8c0 35.269531-28.710938 63.976562-64 63.976562zm0 0"/><path d="m312 319.96875c-4.425781 0-8-3.578125-8-8 0-26.457031-21.527344-47.96875-48-47.96875s-48 21.511719-48 47.96875c0 4.421875-3.574219 8-8 8s-8-3.578125-8-8c0-35.273438 28.710938-63.96875 64-63.96875s64 28.695312 64 63.96875c0 4.421875-3.574219 8-8 8zm0 0"/><path d="m240.007812 447.960938c-2.9375 0-5.761718-1.617188-7.167968-4.425782-1.976563-3.949218-.375-8.757812 3.574218-10.734375l16-8c3.953126-1.96875 8.753907-.375 10.738282 3.574219 1.976562 3.953125.375 8.761719-3.578125 10.738281l-16 8c-1.140625.574219-2.367188.847657-3.566407.847657zm0 0"/><path d="m272 447.960938c-2.046875 0-4.097656-.785157-5.65625-2.34375-3.128906-3.128907-3.128906-8.183594 0-11.3125l8-8c3.128906-3.128907 8.183594-3.128907 11.3125 0 3.128906 3.128906 3.128906 8.183593 0 11.3125l-8 8c-1.558594 1.558593-3.609375 2.34375-5.65625 2.34375zm0 0"/><path d="m240 447.960938c-2.046875 0-4.097656-.785157-5.65625-2.34375l-8-8c-3.128906-3.128907-3.128906-8.183594 0-11.3125 3.128906-3.128907 8.183594-3.128907 11.3125 0l8 8c3.128906 3.128906 3.128906 8.183593 0 11.3125-1.558594 1.558593-3.609375 2.34375-5.65625 2.34375zm0 0"/><path d="m271.992188 447.960938c-1.199219 0-2.425782-.273438-3.566407-.839844l-16-8c-3.953125-1.976563-5.554687-6.785156-3.578125-10.738282 1.976563-3.949218 6.785156-5.542968 10.738282-3.574218l16 8c3.949218 1.976562 5.550781 6.785156 3.574218 10.734375-1.40625 2.800781-4.230468 4.417969-7.167968 4.417969zm0 0"/><path d="m24 360c-4.425781 0-8-3.574219-8-8v-64.039062c0-4.425782 3.574219-8 8-8s8 3.574218 8 8v64.039062c0 4.425781-3.574219 8-8 8zm0 0"/><path d="m136 360c-4.425781 0-8-3.574219-8-8v-2.351562c0-4.425782 3.574219-8 8-8s8 3.574218 8 8v2.351562c0 4.425781-3.574219 8-8 8zm0 0"/><path d="m8 463.960938c-4.425781 0-8-3.578126-8-8 0-17.640626 14.351562-31.992188 32-31.992188 4.425781 0 8 3.574219 8 8 0 4.421875-3.574219 8-8 8-8.824219 0-16 7.167969-16 15.992188 0 4.421874-3.574219 8-8 8zm0 0"/><path d="m56 440.015625h-24c-4.425781 0-8-3.574219-8-8 0-4.421875 3.574219-8 8-8h24c4.425781 0 8 3.578125 8 8 0 4.425781-3.574219 8-8 8zm0 0"/><path d="m8 488c-4.425781 0-8-3.574219-8-8v-24.039062c0-4.425782 3.574219-8 8-8s8 3.574218 8 8v24.039062c0 4.425781-3.574219 8-8 8zm0 0"/><path d="m152 463.960938c-4.425781 0-8-3.578126-8-8 0-8.824219-7.175781-15.992188-16-15.992188-4.425781 0-8-3.578125-8-8 0-4.425781 3.574219-8 8-8 17.648438 0 32 14.351562 32 31.992188 0 4.421874-3.574219 8-8 8zm0 0"/><path d="m128 440.015625h-24c-4.425781 0-8-3.574219-8-8 0-4.421875 3.574219-8 8-8h24c4.425781 0 8 3.578125 8 8 0 4.425781-3.574219 8-8 8zm0 0"/><path d="m152 488c-4.425781 0-8-3.574219-8-8v-24.039062c0-4.425782 3.574219-8 8-8s8 3.574218 8 8v24.039062c0 4.425781-3.574219 8-8 8zm0 0"/><path d="m152 488h-144c-4.425781 0-8-3.574219-8-8s3.574219-8 8-8h144c4.425781 0 8 3.574219 8 8s-3.574219 8-8 8zm0 0"/><path d="m56 440.015625c-4.425781 0-8-3.574219-8-8v-29.472656c0-4.421875 3.574219-8 8-8s8 3.578125 8 8v29.472656c0 4.425781-3.574219 8-8 8zm0 0"/><path d="m104 439.960938c-4.425781 0-8-3.578126-8-8v-29.417969c0-4.421875 3.574219-8 8-8s8 3.578125 8 8v29.417969c0 4.421874-3.574219 8-8 8zm0 0"/><path d="m80 415.9375c-35.289062 0-64-28.707031-64-63.976562 0-4.425782 3.574219-8 8-8s8 3.574218 8 8c0 26.453124 21.527344 47.976562 48 47.976562s48-21.523438 48-47.976562c0-4.425782 3.574219-8 8-8s8 3.574218 8 8c0 35.269531-28.710938 63.976562-64 63.976562zm0 0"/><path d="m79.992188 455.960938c-1.519532 0-3.0625-.441407-4.433594-1.34375l-24-16c-3.679688-2.457032-4.671875-7.417969-2.214844-11.097657 2.449219-3.679687 7.398438-4.664062 11.097656-2.214843l24 16c3.679688 2.457031 4.671875 7.414062 2.214844 11.09375-1.535156 2.3125-4.082031 3.5625-6.664062 3.5625zm0 0"/><path d="m80.007812 455.960938c-2.582031 0-5.128906-1.25-6.664062-3.5625-2.457031-3.679688-1.464844-8.636719 2.214844-11.09375l24-16c3.679687-2.449219 8.640625-1.464844 11.097656 2.214843 2.457031 3.679688 1.464844 8.640625-2.214844 11.097657l-24 16c-1.371094.902343-2.914062 1.34375-4.433594 1.34375zm0 0"/><path d="m152 319.960938c-4.425781 0-8-3.578126-8-8 0-30.871094-25.128906-56-56-56-14.238281 0-26.886719 7.742187-34.992188 14.238281-3.449218 2.769531-8.496093 2.199219-11.246093-1.230469-2.769531-3.457031-2.210938-8.488281 1.230469-11.25 14.496093-11.613281 30.054687-17.757812 45.007812-17.757812 39.703125 0 72 32.296874 72 72 0 4.421874-3.574219 8-8 8zm0 0"/><path d="m152 399.960938c-4.425781 0-8-3.578126-8-8 0-30.871094-25.128906-56-56-56-4.425781 0-8-3.578126-8-8 0-4.425782 3.574219-8 8-8 39.703125 0 72 32.296874 72 72 0 4.421874-3.574219 8-8 8zm0 0"/><path d="m24 335.960938c-4.425781 0-8-3.578126-8-8 0-4.425782 3.574219-8 8-8 8.824219 0 16-7.175782 16-16 0-4.425782 3.574219-8 8-8s8 3.574218 8 8c0 17.648437-14.351562 32-32 32zm0 0"/><path d="m24 295.960938c-4.425781 0-8-3.578126-8-8 0-17.648438 14.351562-32 32-32 4.425781 0 8 3.574218 8 8 0 4.421874-3.574219 8-8 8-8.824219 0-16 7.175781-16 16 0 4.421874-3.574219 8-8 8zm0 0"/><path d="m72 335.960938c-17.648438 0-32-14.351563-32-32 0-4.425782 3.574219-8 8-8s8 3.574218 8 8c0 8.824218 7.175781 16 16 16 4.425781 0 8 3.574218 8 8 0 4.421874-3.574219 8-8 8zm0 0"/><path d="m48 311.960938c-4.425781 0-8-3.578126-8-8v-40c0-4.425782 3.574219-8 8-8s8 3.574218 8 8v40c0 4.421874-3.574219 8-8 8zm0 0"/><path d="m152 399.960938c-4.425781 0-8-3.578126-8-8v-80c0-4.425782 3.574219-8 8-8s8 3.574218 8 8v80c0 4.421874-3.574219 8-8 8zm0 0"/><path d="m88 335.960938h-16c-4.425781 0-8-3.578126-8-8 0-4.425782 3.574219-8 8-8h16c4.425781 0 8 3.574218 8 8 0 4.421874-3.574219 8-8 8zm0 0"/><path d="m255.496094 328.121094c-23.207032 0-42.054688-8.5625-42.839844-8.929688-4.007812-1.847656-5.753906-6.582031-3.914062-10.597656 1.832031-4 6.59375-5.769531 10.601562-3.9375.167969.078125 16.585938 7.472656 36.160156 7.472656 19.710938 0 37.167969-7.394531 37.34375-7.464844 4.082032-1.777343 8.769532.136719 10.503906 4.175782 1.746094 4.054687-.121093 8.761718-4.167968 10.503906-.839844.359375-20.566406 8.777344-43.6875 8.777344zm0 0"/><path d="m312 336c-2.03125 0-4.070312-.777344-5.632812-2.3125l-16-15.839844c-3.136719-3.113281-3.167969-8.175781-.054688-11.320312 3.121094-3.136719 8.167969-3.160156 11.320312-.054688l16 15.839844c3.136719 3.113281 3.167969 8.175781.054688 11.320312-1.566406 1.574219-3.625 2.367188-5.6875 2.367188zm0 0"/><path d="m200 336.160156c-2.039062 0-4.089844-.777344-5.640625-2.328125-3.136719-3.121093-3.152344-8.175781-.03125-11.3125l16-16.078125c3.121094-3.128906 8.191406-3.152344 11.3125-.035156 3.136719 3.121094 3.152344 8.179688.03125 11.3125l-16 16.082031c-1.558594 1.566407-3.617187 2.359375-5.671875 2.359375zm0 0"/><path d="m368 327.960938c-4.425781 0-8-3.578126-8-8v-3.96875c0-4.425782 3.574219-8 8-8s8 3.574218 8 8v3.96875c0 4.421874-3.574219 8-8 8zm0 0"/></svg>