<svg height="512pt" viewBox="0 0 512 512" width="512pt" xmlns="http://www.w3.org/2000/svg"><path d="m328 180v9.761719c-15.601562-20.320313-26.878906-24.722657-40-23.042969v-.078125l24-33.28125c10.078125 12.878906 16 29.121094 16 46.640625zm0 0" fill="#f6bb42"/><path d="m312 133.359375-24 33.28125v.078125c-21.28125 2.722656-47.28125 21.359375-104 14.402344-2.640625-.320313-5.28125-.722656-8-1.121094 0-42 34-76 76-76 24.398438 0 46.160156 11.519531 60 29.359375zm0 0" fill="#ffce54"/><path d="m312 133.359375-18.894531 26.207031c.636719 2.289063 1.261719 4.59375 1.6875 6.96875h.023437c4.800782.296875 9.511719 1.761719 14.429688 4.832032.570312.351562 1.144531.695312 1.730468 1.097656.800782.558594 1.617188 1.191406 2.429688 1.839844.785156.617187 1.570312 1.28125 2.371094 1.984374.71875.640626 1.445312 1.304688 2.175781 2.015626 1 .976562 2.03125 2.0625 3.0625 3.175781.601563.640625 1.183594 1.238281 1.800781 1.933593 1.6875 1.921876 3.40625 4 5.191406 6.328126v-9.742188c-.007812-17.519531-5.929687-33.761719-16.007812-46.640625zm0 0" fill="#edab37"/><path d="m243.566406 104.496094c-2.605468.296875-5.167968.710937-7.695312 1.257812h-.007813c17.832031 3.796875 33.382813 13.757813 44.136719 27.605469 6.007812 7.679687 10.433594 16.585937 13.105469 26.207031l18.894531-26.207031c-13.839844-17.839844-35.601562-29.359375-60-29.359375-2.761719 0-5.488281.160156-8.167969.457031-.089843.007813-.175781.03125-.265625.039063zm0 0" fill="#f6bb42"/><path d="m256 312-16 8-16-8v-31.519531c9.601562 4.800781 20.558594 7.519531 32 7.519531s22.398438-2.71875 32-7.519531v31.519531l-16 8zm0 0" fill="#f5f7fa"/><path d="m328 189.761719v26.238281c0 28.238281-16.320312 52.71875-40 64.480469-9.601562 4.800781-20.558594 7.519531-32 7.519531s-22.398438-2.71875-32-7.519531c-23.679688-11.761719-40-36.234375-40-64.480469v-34.878906c56.71875 6.957031 82.71875-11.679688 104-14.402344 13.121094-1.679688 24.398438 2.722656 40 23.042969zm0 0" fill="#eac6bb"/><path d="m296 166.632812v49.367188c0 28.238281-16.320312 52.71875-40 64.480469-5 2.503906-10.382812 4.40625-16 5.6875 5.167969 1.175781 10.519531 1.832031 16 1.832031 11.441406 0 22.398438-2.71875 32-7.519531 23.679688-11.761719 40-36.234375 40-64.480469v-26.238281c-12.351562-16.097657-22.007812-22.121094-32-23.128907zm0 0" fill="#d3b1a9"/><path d="m33.28125 232.078125c12.71875.640625 22.71875 11.042969 22.71875 23.921875s-10 23.28125-22.71875 23.921875c-.402344.078125-.882812.078125-1.28125.078125-13.28125 0-24-10.71875-24-24s10.71875-24 24-24c.398438 0 .878906 0 1.28125.078125zm0 0" fill="#ac92ec"/><path d="m121.761719 76.640625c10.957031 12.558594 10.398437 31.679687-1.515625 43.597656-11.917969 11.914063-31.039063 12.480469-43.597656 1.441407-.558594-.398438-1.121094-.878907-1.601563-1.441407-12.566406-12.476562-12.566406-32.796875-.085937-45.277343 12.558593-12.488282 32.800781-12.488282 45.277343 0 .5625.558593 1.042969 1.117187 1.523438 1.679687zm0 0" fill="#ed5565"/><path d="m280 32c0 .398438 0 .878906-.078125 1.28125-.640625 12.71875-11.042969 22.71875-23.921875 22.71875s-23.28125-10-23.921875-22.71875c-.078125-.402344-.078125-.882812-.078125-1.28125 0-13.28125 10.71875-24 24-24s24 10.71875 24 24zm0 0" fill="#ac92ec"/><path d="m434.160156 77.761719c10.960938 10.957031 10.960938 28.71875 0 39.679687-.398437.40625-.871094.804688-1.273437 1.199219-10.957031 9.679687-27.765625 9.28125-38.320313-1.28125-10.488281-10.480469-10.878906-27.28125-1.125-38.238281.320313-.402344.71875-.875 1.125-1.273438 10.953125-10.96875 28.714844-10.96875 39.59375-.085937zm0 0" fill="#ed5565"/><path d="m480 232c13.28125 0 24 10.71875 24 24s-10.71875 24-24 24c-.398438 0-.878906 0-1.28125-.078125-12.71875-.640625-22.71875-11.042969-22.71875-23.921875s10-23.28125 22.71875-23.921875c.402344-.078125.882812-.078125 1.28125-.078125zm0 0" fill="#ac92ec"/><path d="m437.039062 391.761719c12.488282 12.484375 12.488282 32.71875 0 45.277343-12.480468 12.488282-32.71875 12.488282-45.277343 0-.554688-.558593-1.042969-1.117187-1.515625-1.679687-10.957032-12.558594-10.398438-31.679687 1.515625-43.597656 12-11.914063 31.039062-12.480469 43.597656-1.515625.5625.472656 1.121094.953125 1.679687 1.515625zm0 0" fill="#ed5565"/><path d="m279.921875 478.71875c.078125.402344.078125.882812.078125 1.28125 0 13.28125-10.71875 24-24 24s-24-10.71875-24-24c0-.398438 0-.878906.078125-1.28125.640625-12.71875 11.042969-22.71875 23.921875-22.71875s23.28125 10 23.921875 22.71875zm0 0" fill="#ac92ec"/><path d="m76.640625 390.238281c12.558594-10.957031 31.679687-10.398437 43.597656 1.515625 11.914063 11.917969 12.480469 31.039063 1.441407 43.597656-.398438.558594-.878907 1.121094-1.441407 1.601563-12.558593 12.558594-32.804687 12.558594-45.277343.078125-12.488282-12.558594-12.488282-32.800781 0-45.277344.558593-.554687 1.117187-1.035156 1.679687-1.515625zm0 0" fill="#ed5565"/><path d="m344 352v24c0 4.398438-3.601562 8-8 8h-160c-4.398438 0-8-3.601562-8-8v-24c0-22.078125 17.921875-40 40-40h16l16 8 16-8 16 8 16-8h16c22.160156 0 40 17.921875 40 40zm0 0" fill="#e6e9ed"/><path d="m304 312h-16l-4.039062 2.015625c16.238281 5.113281 28.039062 20.097656 28.039062 37.984375v24c0 4.398438-3.601562 8-8 8h32c4.398438 0 8-3.601562 8-8v-24c0-22.078125-17.839844-40-40-40zm0 0" fill="#ccd1d9"/><path d="m184.015625 223.679688c-4.421875 0-8-3.582032-8-8v-34.558594c0-4.417969 3.578125-8 8-8 4.425781 0 8 3.582031 8 8v34.558594c0 4.417968-3.574219 8-8 8zm0 0"/><path d="m328.015625 224c-4.421875 0-8-3.585938-8-8v-36.007812c0-4.417969 3.578125-8 8-8 4.425781 0 8 3.582031 8 8v36.007812c0 4.414062-3.574219 8-8 8zm0 0"/><path d="m328.015625 187.992188c-4.421875 0-8-3.585938-8-8 0-37.496094-30.503906-67.992188-68.015625-67.992188-37.488281 0-67.984375 30.503906-67.984375 67.992188 0 4.414062-3.574219 8-8 8-4.421875 0-8-3.585938-8-8 0-46.3125 37.671875-83.992188 83.984375-83.992188 46.328125 0 84.015625 37.679688 84.015625 83.992188 0 4.414062-3.574219 8-8 8zm0 0"/><path d="m328.023438 197.726562c-2.40625 0-4.785157-1.078124-6.359376-3.132812-19.398437-25.320312-28.121093-22.503906-51.382812-14.960938-20.480469 6.625-48.480469 15.703126-95.511719 8.261719-4.363281-.6875-7.34375-4.78125-6.648437-9.152343.6875-4.359376 4.789062-7.34375 9.152344-6.652344 43.183593 6.8125 69.160156-1.554688 88.085937-7.683594 23.878906-7.726562 42.753906-13.832031 69.015625 20.457031 2.6875 3.503907 2.023438 8.527344-1.488281 11.214844-1.453125 1.105469-3.167969 1.648437-4.863281 1.648437zm0 0"/><path d="m288.007812 174.679688c-1.617187 0-3.246093-.488282-4.664062-1.503907-3.582031-2.582031-4.398438-7.582031-1.824219-11.167969l24-33.335937c2.578125-3.574219 7.578125-4.398437 11.167969-1.816406 3.585938 2.585937 4.402344 7.585937 1.824219 11.167969l-24 33.335937c-1.566407 2.160156-4.015625 3.320313-6.503907 3.320313zm0 0"/><path d="m168.015625 360c-4.421875 0-8-3.574219-8-8 0-26.472656 21.527344-48 48-48 4.425781 0 8 3.574219 8 8s-3.574219 8-8 8c-17.648437 0-32 14.351562-32 32 0 4.425781-3.574219 8-8 8zm0 0"/><path d="m224.015625 320h-16c-4.421875 0-8-3.574219-8-8s3.578125-8 8-8h16c4.425781 0 8 3.574219 8 8s-3.574219 8-8 8zm0 0"/><path d="m168.015625 384c-4.421875 0-8-3.574219-8-8v-24c0-4.425781 3.578125-8 8-8 4.425781 0 8 3.574219 8 8v24c0 4.425781-3.574219 8-8 8zm0 0"/><path d="m176.015625 392c-8.824219 0-16-7.175781-16-16 0-4.246094 3.34375-7.3125 7.585937-7.542969 4.503907-.199219 7.933594 3.328125 8.414063 7.535157 4.417969 0 8 3.582031 8 8 0 4.421874-3.574219 8.007812-8 8.007812zm0 0"/><path d="m344.015625 360c-4.421875 0-8-3.574219-8-8 0-17.648438-14.351563-32-32-32-4.421875 0-8-3.574219-8-8s3.578125-8 8-8c26.472656 0 48 21.527344 48 48 0 4.425781-3.574219 8-8 8zm0 0"/><path d="m304.015625 320h-16c-4.421875 0-8-3.574219-8-8s3.578125-8 8-8h16c4.425781 0 8 3.574219 8 8s-3.574219 8-8 8zm0 0"/><path d="m344.015625 384c-4.421875 0-8-3.574219-8-8v-24c0-4.425781 3.578125-8 8-8 4.425781 0 8 3.574219 8 8v24c0 4.425781-3.574219 8-8 8zm0 0"/><path d="m336.015625 392c-4.421875 0-8-3.574219-8-8s3.578125-8 8-8c0-4.425781 3.578125-8 8-8 4.425781 0 8 3.574219 8 8 0 8.824219-7.183594 16-16 16zm0 0"/><path d="m336.015625 392h-160c-4.421875 0-8-3.574219-8-8s3.578125-8 8-8h160c4.425781 0 8 3.574219 8 8s-3.574219 8-8 8zm0 0"/><path d="m224.015625 320c-4.421875 0-8-3.574219-8-8v-31.488281c0-4.421875 3.578125-8 8-8 4.425781 0 8 3.578125 8 8v31.488281c0 4.425781-3.574219 8-8 8zm0 0"/><path d="m288.015625 320c-4.421875 0-8-3.574219-8-8v-31.488281c0-4.421875 3.578125-8 8-8 4.425781 0 8 3.578125 8 8v31.488281c0 4.425781-3.574219 8-8 8zm0 0"/><path d="m256 296c-44.105469 0-79.984375-35.878906-79.984375-79.984375 0-4.414063 3.578125-8 8-8 4.425781 0 8 3.585937 8 8 0 35.28125 28.703125 63.984375 63.984375 63.984375 35.296875 0 64.015625-28.703125 64.015625-63.984375 0-4.414063 3.578125-8 8-8 4.425781 0 8 3.585937 8 8 0 44.105469-35.894531 79.984375-80.015625 79.984375zm0 0"/><path d="m240.007812 328c-1.199218 0-2.421874-.273438-3.566406-.839844l-16-8c-3.953125-1.976562-5.554687-6.785156-3.578125-10.734375 1.984375-3.960937 6.777344-5.546875 10.738281-3.578125l16 8c3.949219 1.976563 5.550782 6.785156 3.574219 10.738282-1.40625 2.796874-4.230469 4.414062-7.167969 4.414062zm0 0"/><path d="m240.023438 328c-2.933594 0-5.757813-1.617188-7.167969-4.425781-1.976563-3.949219-.375-8.757813 3.578125-10.734375l16-8c3.941406-1.96875 8.75-.382813 10.734375 3.574218 1.976562 3.953126.375 8.761719-3.574219 10.738282l-16 8c-1.144531.574218-2.371094.847656-3.570312.847656zm0 0"/><path d="m272.023438 328c-2.933594 0-5.757813-1.617188-7.167969-4.425781-1.976563-3.949219-.375-8.757813 3.578125-10.734375l16-8c3.949218-1.96875 8.75-.382813 10.734375 3.574218 1.976562 3.953126.375 8.761719-3.574219 10.738282l-16 8c-1.144531.574218-2.371094.847656-3.570312.847656zm0 0"/><path d="m272.007812 328c-1.199218 0-2.421874-.273438-3.566406-.839844l-16-8c-3.953125-1.976562-5.554687-6.785156-3.578125-10.734375 1.984375-3.960937 6.792969-5.546875 10.738281-3.578125l16 8c3.949219 1.976563 5.550782 6.785156 3.574219 10.738282-1.40625 2.796874-4.230469 4.414062-7.167969 4.414062zm0 0"/><path d="m256.015625 64c-17.648437 0-32-14.351562-32-32s14.351563-32 32-32 32 14.351562 32 32-14.351563 32-32 32zm0-48c-8.824219 0-16 7.175781-16 16s7.175781 16 16 16 16-7.175781 16-16-7.183594-16-16-16zm0 0"/><path d="m256.015625 512c-17.648437 0-32-14.351562-32-32s14.351563-32 32-32 32 14.351562 32 32-14.351563 32-32 32zm0-48c-8.824219 0-16 7.175781-16 16s7.175781 16 16 16 16-7.175781 16-16-7.183594-16-16-16zm0 0"/><path d="m97.625 137.601562c-10.6875 0-20.738281-4.160156-28.28125-11.714843-7.550781-7.550781-11.71875-17.597657-11.726562-28.277344-.007813-10.6875 4.160156-20.730469 11.710937-28.289063 7.550781-7.558593 17.601563-11.710937 28.289063-11.710937s20.734374 4.160156 28.285156 11.71875c7.554687 7.542969 11.722656 17.59375 11.722656 28.273437 0 10.6875-4.167969 20.734376-11.722656 28.285157-7.550782 7.554687-17.597656 11.714843-28.277344 11.714843zm-.007812-63.992187c-6.417969 0-12.441407 2.496094-16.976563 7.03125-4.527344 4.527344-7.023437 10.550781-7.023437 16.960937 0 6.40625 2.503906 12.4375 7.039062 16.972657 9.054688 9.050781 24.863281 9.066406 33.9375 0 4.527344-4.527344 7.03125-10.558594 7.03125-16.972657 0-6.410156-2.496094-12.433593-7.03125-16.960937-4.539062-4.535156-10.5625-7.03125-16.976562-7.03125zm0 0"/><path d="m414.40625 454.390625c-10.679688 0-20.726562-4.167969-28.277344-11.71875-15.59375-15.59375-15.59375-40.96875 0-56.558594 7.550782-7.554687 17.597656-11.722656 28.285156-11.722656 10.675782 0 20.722657 4.160156 28.273438 11.714844 15.59375 15.589843 15.59375 40.972656 0 56.566406-7.550781 7.550781-17.597656 11.71875-28.28125 11.71875zm.007812-64c-6.414062 0-12.4375 2.503906-16.972656 7.035156-9.363281 9.359375-9.363281 24.574219 0 33.933594 9.078125 9.066406 24.871094 9.066406 33.933594 0 9.359375-9.359375 9.359375-24.582031 0-33.945313-4.535156-4.535156-10.550781-7.023437-16.960938-7.023437zm0 0"/><path d="m32.03125 287.984375c-17.664062 0-32.03125-14.351563-32.03125-31.984375 0-17.648438 14.351562-32.007812 32-32.007812 8.550781 0 16.59375 3.328124 22.632812 9.375 6.039063 6.039062 9.367188 14.082031 9.367188 22.625 0 17.640624-14.34375 31.992187-31.96875 31.992187zm-.015625-47.992187c-8.832031 0-16.015625 7.175781-16.015625 16.007812 0 8.816406 7.183594 15.984375 16.015625 15.984375h.015625c8.800781 0 15.96875-7.167969 15.96875-15.992187 0-8.824219-7.167969-16-15.984375-16zm0 0"/><path d="m480 287.992188c-17.632812 0-31.984375-14.351563-31.984375-31.992188 0-17.648438 14.351563-32.007812 31.984375-32.007812 17.648438 0 32 14.351562 32 32 0 17.648437-14.351562 32-32 32zm0-48c-8.816406 0-15.984375 7.175781-15.984375 16.007812 0 8.824219 7.167969 15.992188 15.984375 15.992188 8.824219 0 16-7.175782 16-16 0-8.824219-7.175781-16-16-16zm0 0"/><path d="m97.585938 454.382812c-10.683594 0-20.722657-4.160156-28.265626-11.710937-15.585937-15.59375-15.585937-40.96875.007813-56.558594 7.535156-7.554687 17.582031-11.722656 28.273437-11.722656 10.6875 0 20.726563 4.160156 28.285157 11.714844 7.554687 7.550781 11.722656 17.597656 11.722656 28.277343 0 10.6875-4.167969 20.730469-11.722656 28.28125-7.566407 7.550782-17.613281 11.71875-28.300781 11.71875zm.015624-63.992187c-6.410156 0-12.433593 2.496094-16.953124 7.023437-9.367188 9.371094-9.367188 24.585938-.007813 33.945313 9.070313 9.082031 24.847656 9.046875 33.933594-.015625 4.539062-4.527344 7.035156-10.550781 7.035156-16.960938 0-6.40625-2.503906-12.429687-7.035156-16.96875-4.527344-4.535156-10.558594-7.023437-16.972657-7.023437zm0 0"/><path d="m414.398438 133.601562c-9.605469 0-18.65625-3.746093-25.460938-10.546874-6.808594-6.808594-10.546875-15.839844-10.546875-25.460938 0-9.617188 3.746094-18.65625 10.546875-25.457031 6.796875-6.800781 15.847656-10.535157 25.453125-10.535157 9.617187 0 18.648437 3.742188 25.457031 10.535157 6.808594 6.808593 10.542969 15.847656 10.542969 25.464843 0 9.613282-3.742187 18.664063-10.542969 25.460938-6.800781 6.792969-15.832031 10.539062-25.449218 10.539062zm-.007813-56c-5.335937 0-10.359375 2.078126-14.144531 5.855469-3.78125 3.773438-5.855469 8.800781-5.855469 14.136719 0 5.34375 2.082031 10.359375 5.855469 14.140625 7.578125 7.570313 20.746094 7.554687 28.28125.007813 3.785156-3.78125 5.855468-8.804688 5.855468-14.148438 0-5.347656-2.078124-10.371094-5.855468-14.152344-3.765625-3.761718-8.792969-5.839844-14.136719-5.839844zm0 0"/><path d="m279.960938 486.734375c-4.039063 0-7.503907-3.046875-7.945313-7.160156-.472656-4.390625 2.710937-8.328125 7.113281-8.796875 38.503906-4.105469 75.253906-18.570313 106.3125-41.839844 3.527344-2.648438 8.542969-1.945312 11.191406 1.597656 2.65625 3.527344 1.933594 8.542969-1.601562 11.191406-33.351562 25.007813-72.847656 40.554688-114.214844 44.953126-.289062.039062-.578125.054687-.855468.054687zm0 0"/><path d="m435.335938 398.199219c-1.671876 0-3.351563-.519531-4.792969-1.597657-3.535157-2.648437-4.253907-7.664062-1.597657-11.195312 23.261719-31.039062 37.734376-67.796875 41.832032-106.292969.46875-4.402343 4.46875-7.632812 8.796875-7.113281 4.402343.472656 7.578125 4.40625 7.113281 8.800781-4.40625 41.375-19.945312 80.863281-44.945312 114.199219-1.574219 2.105469-3.964844 3.199219-6.40625 3.199219zm0 0"/><path d="m478.726562 240.046875c-4.039062 0-7.503906-3.046875-7.941406-7.160156-4.234375-39.839844-19.511718-77.664063-44.183594-109.367188-2.714843-3.488281-2.089843-8.511719 1.398438-11.222656 3.503906-2.710937 8.519531-2.082031 11.222656 1.398437 26.503906 34.066407 42.921875 74.695313 47.472656 117.503907.472657 4.394531-2.710937 8.335937-7.109374 8.800781-.296876.03125-.578126.046875-.859376.046875zm0 0"/><path d="m393.398438 87.089844c-1.710938 0-3.445313-.554688-4.902344-1.683594-31.710938-24.664062-69.527344-39.941406-109.367188-44.183594-4.402344-.460937-7.578125-4.40625-7.113281-8.796875.464844-4.394531 4.449219-7.617187 8.800781-7.105469 42.808594 4.550782 83.441406 20.96875 117.503906 47.457032 3.488282 2.710937 4.121094 7.734375 1.398438 11.222656-1.574219 2.023438-3.933594 3.089844-6.320312 3.089844zm0 0"/><path d="m121.792969 84.648438c-2.441407 0-4.832031-1.105469-6.410157-3.199219-2.65625-3.539063-1.933593-8.546875 1.601563-11.203125 33.367187-25.007813 72.863281-40.542969 114.230469-44.933594 4.488281-.402344 8.335937 2.726562 8.800781 7.113281.472656 4.390625-2.71875 8.335938-7.113281 8.796875-38.503906 4.082032-75.261719 18.546875-106.328125 41.832032-1.429688 1.074218-3.117188 1.59375-4.78125 1.59375zm0 0"/><path d="m33.273438 240.03125c-.28125 0-.570313-.015625-.847657-.046875-4.402343-.464844-7.578125-4.410156-7.113281-8.800781 4.40625-41.382813 19.953125-80.886719 44.960938-114.230469 2.648437-3.527344 7.664062-4.257813 11.191406-1.601563 3.535156 2.648438 4.253906 7.664063 1.597656 11.199219-23.277344 31.042969-37.75 67.808594-41.847656 106.328125-.429688 4.105469-3.902344 7.152344-7.941406 7.152344zm0 0"/><path d="m76.761719 398.351562c-2.433594 0-4.832031-1.105468-6.410157-3.191406-25.0625-33.382812-40.632812-72.929687-45.039062-114.367187-.472656-4.394531 2.710938-8.328125 7.113281-8.800781 4.367188-.472657 8.328125 2.71875 8.796875 7.113281 4.105469 38.558593 18.601563 75.367187 41.929688 106.445312 2.648437 3.539063 1.9375 8.546875-1.59375 11.203125-1.445313 1.078125-3.125 1.597656-4.796875 1.597656zm0 0"/><path d="m232.054688 486.734375c-.277344 0-.566407-.015625-.847657-.046875-41.390625-4.40625-80.886719-19.945312-114.230469-44.953125-3.535156-2.644531-4.257812-7.664063-1.601562-11.191406 2.648438-3.535157 7.671875-4.238281 11.191406-1.597657 31.042969 23.269532 67.808594 37.742188 106.328125 41.839844 4.402344.472656 7.578125 4.40625 7.113281 8.800782-.449218 4.101562-3.910156 7.148437-7.953124 7.148437zm0 0"/></svg>