<?xml version="1.0" encoding="utf-8"?>
<!-- Generator: Adobe Illustrator 16.0.0, SVG Export Plug-In . SVG Version: 6.00 Build 0)  -->
<!DOCTYPE svg PUBLIC "-//W3C//DTD SVG 1.1//EN" "http://www.w3.org/Graphics/SVG/1.1/DTD/svg11.dtd">
<svg version="1.1" id="_118" xmlns="http://www.w3.org/2000/svg" xmlns:xlink="http://www.w3.org/1999/xlink" x="0px" y="0px"
	 width="612px" height="792px" viewBox="0 0 612 792" enable-background="new 0 0 612 792" xml:space="preserve">
<title>nav_aboutUs</title>
<path fill="#20C5BA" stroke="#000000" stroke-width="2" stroke-miterlimit="10" d="M42.461,526.407
	c-2.137-0.162-3.925-1.774-4.441-3.989L3.719,387.345c-0.708-2.844,0.875-5.732,3.531-6.492c0.049-0.012,0.096-0.023,0.143-0.034
	l52.063-14.858c2.65-0.777,5.387,0.882,6.115,3.698c0.005,0.012,0.008,0.023,0.012,0.037L99.27,504.85
	c0.726,2.815-0.833,5.763-3.483,6.519c-0.013,0.003-0.024,0.006-0.039,0.01l-51.986,14.76L42.461,526.407z M14.667,389.793
	l31.005,124.771l42.419-12.067L57.083,377.555L14.667,389.793z"/>
<path fill="#20C5BA" stroke="#000000" stroke-width="2" stroke-miterlimit="10" d="M356.898,505.418L356.898,505.418l-265.592-7.171
	c-2.2-0.058-4.096-1.652-4.67-3.952L59.075,385.713c-0.621-2.191,0.148-4.566,1.91-5.883l226.625-147.79
	c2.307-1.599,5.386-0.916,6.884,1.562c0.632,1.018,0.904,2.267,0.773,3.506c-3.109,45.664,1.295,91.558,13.017,135.626
	c10.521,43.93,28.071,85.647,51.912,123.191c2.064,1.946,2.282,5.289,0.471,7.494c-0.941,1.155-2.313,1.854-3.77,1.849V505.418
	L356.898,505.418z M94.98,487.768l252.118,6.798c-22.019-36.704-38.465-76.902-48.77-119.062
	c-10.953-41.943-15.656-85.443-13.935-128.927L69.636,386.851L94.98,487.768z"/>
<path fill="#20C5BA" stroke="#000000" stroke-width="2" stroke-miterlimit="10" d="M432.93,560.599L432.93,560.599
	c-49.61,0-107.768-79.853-135.256-185.664c-30.495-117.579-13.513-221.116,38.797-235.578c3.985-1.092,8.1-1.64,12.236-1.631
	c49.691,0,107.834,79.853,135.179,185.688c30.492,117.556,13.499,221.018-38.721,235.555
	C441.17,560.06,437.062,560.607,432.93,560.599z M348.707,148.332c-3.222,0.003-6.445,0.451-9.558,1.31
	c-45.107,12.486-59.566,114.316-31.599,222.523c25.904,99.285,80.974,177.851,125.378,177.851l0,0
	c3.251,0.003,6.493-0.444,9.638-1.333c45.104-12.484,59.479-114.313,31.596-222.5C448.172,226.479,393.105,148.332,348.707,148.332z
	"/>
<path fill="#20C5BA" stroke="#000000" stroke-width="2" stroke-miterlimit="10" d="M465.464,542.426c-0.551,0.096-1.12,0.096-1.68,0
	c-44.031-17.65-88.896-90.752-111.856-182.2c-22.971-91.448-18.374-178.644,11.628-217.11c1.343-1.741,3.536-2.386,5.523-1.631
	c44.092,17.231,88.959,90.384,111.931,181.93c22.971,91.521,18.3,178.816-11.717,217.111
	C468.335,541.713,466.938,542.435,465.464,542.426z M369.004,153.001c-25.584,37.062-28.793,120.103-7.657,204.627
	c21.121,84.524,62.929,155.156,102.438,173.179c25.569-36.887,28.778-119.929,7.657-204.55
	C450.307,241.68,408.424,171.274,369.004,153.001z"/>
<path fill="#20C5BA" stroke="#000000" stroke-width="2" stroke-miterlimit="10" d="M363.332,388.333
	c-2.168,0.005-4.083-1.491-4.747-3.683c-2.688-8.976-4.896-16.984-6.731-24.5c-1.851-7.517-3.836-16.341-5.521-24.5
	c-0.459-2.425,0.717-4.861,2.836-5.885c14.876-7.176,30.978-11.055,47.315-11.347c19.986,0,33.688,7.021,36.674,18.788
	c2.298,9.072-2.148,19.012-12.554,28.159c-11.125,9.141-23.901,15.742-37.523,19.356c-6.292,1.804-12.722,3.067-19.21,3.758
	L363.332,388.333z M356.898,337.53c1.463,6.945,2.911,13.473,4.598,19.926c1.688,6.452,3.284,12.583,5.358,19.753
	c4.597-0.686,9.136-1.675,13.628-2.942c12.216-3.178,23.676-9.021,33.688-17.134c7.12-6.205,10.492-12.485,9.26-17.23
	c-1.603-6.527-12.559-10.951-27.021-10.951c-8.929,0.124-17.808,1.469-26.42,4.004c-4.449,1.245-8.833,2.797-13.091,4.648
	L356.898,337.53L356.898,337.53z"/>
<path fill="#20C5BA" stroke="#000000" stroke-width="2" stroke-miterlimit="10" d="M218.473,685.47
	c-1.82-0.004-3.49-1.069-4.359-2.77L117.72,495.926c-0.917-1.658-0.917-3.707,0-5.389c0.989-1.529,2.666-2.466,4.44-2.426
	l59.107,3.188c1.717,0.067,3.286,1.092,4.135,2.694l84.215,161.758c1.332,2.577,0.455,5.807-1.95,7.193
	c-0.141,0.072-0.277,0.14-0.423,0.247l-47.16,21.437C219.596,685.018,219.051,685.316,218.473,685.47z M130.736,499.534
	l89.886,173.868L258.9,656.05l-80.697-153.97L130.736,499.534z"/>
<path fill="#20C5BA" stroke="#000000" stroke-width="2" stroke-miterlimit="10" d="M119.938,431.867
	c-2.747,0.043-5.012-2.326-5.055-5.236c-0.036-2.479,1.517-4.644,3.755-5.243l155.957-44.575c2.664-0.77,5.404,0.906,6.127,3.759
	c0.716,2.829-0.859,5.757-3.521,6.526l-155.957,44.574L119.938,431.867z"/>
<path fill="#20C5BA" stroke="#000000" stroke-width="2" stroke-miterlimit="10" d="M540.342,299.235
	c-2.753,0.042-5.005-2.28-5.053-5.214c-0.044-2.457,1.515-4.623,3.755-5.243l51.523-14.686c2.658-0.771,5.405,0.906,6.12,3.757
	c0.72,2.829-0.851,5.757-3.521,6.527l-51.525,14.687L540.342,299.235z"/>
<path fill="#20C5BA" stroke="#000000" stroke-width="2" stroke-miterlimit="10" d="M604.584,366.678h-53.601
	c-2.753-0.003-4.969-2.386-4.965-5.297c0.003-2.93,2.216-5.307,4.965-5.31h53.601c2.738,0.003,4.969,2.386,4.966,5.319
	C609.547,364.299,607.319,366.675,604.584,366.678z"/>
<path fill="#20C5BA" stroke="#000000" stroke-width="2" stroke-miterlimit="10" d="M596.39,449.548h-1.3l-51.763-14.836
	c-2.657-0.793-4.237-3.698-3.522-6.527c0.716-2.874,3.463-4.551,6.13-3.757l51.755,14.342c2.656,0.749,4.272,3.621,3.6,6.449
	c-0.566,2.412-2.592,4.065-4.898,4.03L596.39,449.548L596.39,449.548z"/>
<path fill="#20C5BA" stroke="#000000" stroke-width="2" stroke-miterlimit="10" d="M472.89,184.276
	c-2.753,0.003-4.973-2.375-4.977-5.309c-0.002-1.406,0.523-2.76,1.454-3.763l37.674-40.174c1.94-2.082,5.091-2.082,7.046,0
	c1.939,2.082,1.939,5.434,0,7.515l-37.675,40.174C475.474,183.712,474.206,184.278,472.89,184.276z"/>
<path fill="#20C5BA" stroke="#000000" stroke-width="2" stroke-miterlimit="10" d="M513.698,237.01c-2.754,0-4.971-2.38-4.971-5.292
	c0-1.88,0.925-3.632,2.448-4.574l45.929-28.429c2.392-1.456,5.445-0.584,6.821,1.953c1.369,2.561,0.553,5.813-1.836,7.269
	l-45.942,28.429C515.4,236.791,514.553,237.02,513.698,237.01z"/>
</svg>
