<svg id="_118" data-name="118" xmlns="http://www.w3.org/2000/svg" viewBox="0 0 84.5 84.89"><title>Artboard 2</title><path d="M74,59.17H7.58a.65.65,0,0,1-.65-.65V19.62A.65.65,0,0,1,7.58,19H74a.65.65,0,0,1,.65.65V58.52A.65.65,0,0,1,74,59.17ZM8.23,57.87H73.37V20.27H8.23Z"/><path d="M79.7,20.27H1.89a.65.65,0,0,1-.65-.65V14a.65.65,0,0,1,.65-.65H79.7a.65.65,0,0,1,.65.65v5.6A.65.65,0,0,1,79.7,20.27ZM2.54,19H79.05v-4.3H2.54Z"/><path d="M43.33,14.67h-5a.65.65,0,0,1-.65-.65v-4a3.18,3.18,0,1,1,6.35,0v4A.65.65,0,0,1,43.33,14.67Zm-4.4-1.3h3.75V10.06a1.87,1.87,0,1,0-3.75,0Z"/><path d="M71.47,83.79a.65.65,0,0,1-.65-.65v-3a4.24,4.24,0,0,0-4.23-4.23h-7a4.24,4.24,0,0,0-4.23,4.23v3a.65.65,0,1,1-1.3,0v-3a5.54,5.54,0,0,1,5.54-5.54h7a5.54,5.54,0,0,1,5.53,5.54v3A.65.65,0,0,1,71.47,83.79Zm-23.12,0a.65.65,0,0,1-.65-.65v-3a4.24,4.24,0,0,0-4.23-4.23h-7a4.24,4.24,0,0,0-4.23,4.23v3a.65.65,0,1,1-1.3,0v-3a5.54,5.54,0,0,1,5.54-5.54h7A5.54,5.54,0,0,1,49,80.14v3A.65.65,0,0,1,48.35,83.79Zm-21.4,0a.65.65,0,0,1-.65-.65v-3a4.24,4.24,0,0,0-4.23-4.23H15a4.24,4.24,0,0,0-4.23,4.23v3a.65.65,0,0,1-1.3,0v-3A5.54,5.54,0,0,1,15,74.61h7.05a5.54,5.54,0,0,1,5.53,5.54v3A.65.65,0,0,1,26.95,83.79Zm36-10a5.23,5.23,0,1,1,5.23-5.22A5.23,5.23,0,0,1,62.94,73.76ZM59,68.87a3.93,3.93,0,0,0,7.85-.33,3.88,3.88,0,0,0,0-.44,5.16,5.16,0,0,1-3.21-.77A5.2,5.2,0,0,1,59,68.87Zm.11-1.3A3.91,3.91,0,0,0,63,66.06a.65.65,0,0,1,.93-.12,4.11,4.11,0,0,0,2.54.88,3.93,3.93,0,0,0-7.35.75ZM39.82,73.76a5.23,5.23,0,1,1,5-6.64.66.66,0,0,1,0,.12v0a5.23,5.23,0,0,1-5.08,6.48ZM35.9,68.87a3.93,3.93,0,0,0,7.85-.33,3.86,3.86,0,0,0,0-.44,5.18,5.18,0,0,1-3.2-.78A5.24,5.24,0,0,1,35.9,68.87Zm.11-1.3a3.93,3.93,0,0,0,3.89-1.51.65.65,0,0,1,.93-.12,3.91,3.91,0,0,0,2.53.88,3.93,3.93,0,0,0-7.35.75ZM18.42,73.76a5.23,5.23,0,1,1,5.23-5.22A5.23,5.23,0,0,1,18.42,73.76ZM14.5,68.87a3.93,3.93,0,0,0,7.85-.33,3.89,3.89,0,0,0,0-.44,5.16,5.16,0,0,1-3.21-.77A5.17,5.17,0,0,1,14.5,68.87Zm.11-1.3a3.89,3.89,0,0,0,3.88-1.51.65.65,0,0,1,.44-.26.64.64,0,0,1,.49.14,4.1,4.1,0,0,0,2.54.88,3.93,3.93,0,0,0-7.35.75Z"/></svg>