<?xml version="1.0" encoding="utf-8"?>
<!-- Generator: Adobe Illustrator 16.0.0, SVG Export Plug-In . SVG Version: 6.00 Build 0)  -->
<!DOCTYPE svg PUBLIC "-//W3C//DTD SVG 1.0//EN" "http://www.w3.org/TR/2001/REC-SVG-20010904/DTD/svg10.dtd" [
	<!ENTITY ns_flows "http://ns.adobe.com/Flows/1.0/">
	<!ENTITY ns_extend "http://ns.adobe.com/Extensibility/1.0/">
	<!ENTITY ns_ai "http://ns.adobe.com/AdobeIllustrator/10.0/">
	<!ENTITY ns_graphs "http://ns.adobe.com/Graphs/1.0/">
]>
<svg version="1.0" id="_118" xmlns:x="&ns_extend;" xmlns:i="&ns_ai;" xmlns:graph="&ns_graphs;"
	 xmlns="http://www.w3.org/2000/svg" xmlns:xlink="http://www.w3.org/1999/xlink" xmlns:a="http://ns.adobe.com/AdobeSVGViewerExtensions/3.0/"
	 x="0px" y="0px" width="612px" height="792px" viewBox="0 0 612 792" enable-background="new 0 0 612 792" xml:space="preserve">
<title>Artboard 2</title>
<path stroke="#000000" stroke-width="7" stroke-miterlimit="10" d="M547.531,506.642H64.404c-2.611,0-4.728-2.31-4.728-5.158l0,0
	V192.822c0.117-2.755,2.2-4.923,4.728-4.919h483.127c2.61,0,4.727,2.309,4.727,5.157l0,0v308.424
	C552.258,504.332,550.142,506.642,547.531,506.642z M69.132,496.325h473.816V197.979H69.132V496.325z"/>
<path stroke="#000000" stroke-width="7" stroke-miterlimit="10" d="M588.991,197.979H23.016c-2.611,0-4.728-2.309-4.728-5.157
	v-44.594c0-2.848,2.116-5.157,4.728-5.157h565.975c2.611,0,4.728,2.309,4.728,5.157l0,0v44.435c0.081,2.848-1.97,5.227-4.58,5.314
	C589.09,197.979,589.04,197.979,588.991,197.979z M27.744,187.902h556.519v-34.12H27.744V187.902z"/>
<path stroke="#000000" stroke-width="7" stroke-miterlimit="10" d="M324.443,153.545h-36.37c-2.611,0-4.728-2.31-4.728-5.158l0,0
	v-31.739c-0.716-13.914,9.042-25.827,21.797-26.607c12.755-0.781,23.675,9.865,24.391,23.778c0.05,0.942,0.05,1.887,0,2.829v31.739
	c0.008,2.849-2.103,5.165-4.713,5.173C324.694,153.561,324.568,153.555,324.443,153.545z M292.438,143.229h27.277v-26.264
	c0-8.217-6.106-14.878-13.638-14.878c-7.533,0-13.639,6.661-13.639,14.878V143.229z"/>
<path stroke="#000000" stroke-width="7" stroke-miterlimit="10" d="M529.128,701.995c-2.611,0-4.729-2.31-4.729-5.158l0,0v-23.804
	c-0.039-18.52-13.791-33.521-30.768-33.563h-50.917c-16.976,0.042-30.729,15.044-30.769,33.563v23.804
	c0.003,2.849-2.111,5.16-4.722,5.163c-2.612,0.003-4.73-2.304-4.733-5.151c0-0.004,0-0.008,0-0.012v-23.804
	c0-24.278,18.041-43.959,40.297-43.959l0,0h50.916c22.228,0.044,40.225,19.712,40.225,43.959v23.804
	c0,2.849-2.116,5.158-4.728,5.159C529.177,701.996,529.152,701.996,529.128,701.995z M360.957,701.995
	c-2.61,0-4.727-2.31-4.727-5.158l0,0v-23.804c-0.041-18.52-13.793-33.521-30.77-33.563h-50.917
	c-16.976,0.042-30.728,15.044-30.769,33.563v23.804c0.003,2.849-2.111,5.16-4.723,5.163s-4.73-2.304-4.733-5.151
	c0-0.004,0-0.008,0-0.012v-23.804c0-24.278,18.042-43.959,40.297-43.959l0,0h50.917c22.198,0.088,40.151,19.743,40.151,43.959
	v23.804C365.686,699.686,363.569,701.995,360.957,701.995L360.957,701.995z M205.297,701.995c-2.611,0-4.728-2.31-4.728-5.158l0,0
	v-23.804c-0.04-18.52-13.792-33.521-30.768-33.563h-51.426c-16.976,0.042-30.729,15.044-30.768,33.563v23.804
	c0,2.849-2.117,5.158-4.729,5.158c-2.611,0-4.728-2.31-4.728-5.158v-23.804c0.04-24.216,18.025-43.836,40.224-43.88h51.28
	c22.228,0.044,40.225,19.713,40.225,43.959v23.805C209.842,699.673,207.824,701.91,205.297,701.995L205.297,701.995z
	 M467.155,622.647c-21.011,0-38.042-18.58-38.042-41.499s17.031-41.499,38.042-41.499c21.01,0,38.042,18.58,38.042,41.499
	c0,0.027,0,0.053,0,0.079c-0.16,22.826-17.19,41.227-38.115,41.182L467.155,622.647z M438.424,583.608
	c1.103,17.181,14.765,30.131,30.515,28.928c15.13-1.157,26.798-15.002,26.584-31.546c0.062-1.163,0.062-2.329,0-3.492
	c-8.187,0.808-16.389-1.338-23.349-6.109C463.49,581.337,450.837,585.918,438.424,583.608z M439.224,573.294
	c10.76,2.288,21.769-2.373,28.295-11.982c1.553-2.29,4.514-2.774,6.612-1.08c0.053,0.042,0.103,0.084,0.152,0.128
	c5.267,4.521,11.774,6.98,18.476,6.982c-6.866-15.508-23.957-22.008-38.173-14.518c-7.624,4.017-13.224,11.514-15.29,20.47H439.224z
	 M298.912,622.409c-21.01,0.159-38.16-18.291-38.305-41.209c-0.146-22.919,16.768-41.628,37.777-41.787
	c17.158-0.129,32.271,12.286,36.898,30.31c0.026,0.316,0.026,0.635,0,0.952l0,0c5.021,22.255-7.446,44.737-27.848,50.215
	c-2.979,0.799-6.036,1.204-9.104,1.202L298.912,622.409z M270.398,583.608c1.104,17.181,14.766,30.131,30.515,28.928
	c15.13-1.157,26.798-15.002,26.585-31.546c0.062-1.163,0.062-2.329,0-3.492c-8.17,0.756-16.341-1.418-23.277-6.188
	C295.508,581.263,282.844,585.868,270.398,583.608z M271.198,573.294c10.757,2.248,21.747-2.405,28.295-11.982
	c1.552-2.29,4.513-2.774,6.612-1.08c0.051,0.042,0.103,0.084,0.152,0.128c5.189,4.619,11.707,7.092,18.403,6.982
	c-6.866-15.508-23.958-22.008-38.173-14.518C278.864,556.841,273.265,564.338,271.198,573.294L271.198,573.294z M143.252,622.409
	c-21.01,0-38.042-18.58-38.042-41.499c0-22.919,17.032-41.498,38.042-41.498c21.01,0,38.042,18.58,38.042,41.499
	c0,0.025,0,0.053,0,0.079C181.254,603.879,164.234,622.409,143.252,622.409z M114.739,583.608
	c1.104,17.181,14.765,30.131,30.514,28.928c15.13-1.157,26.799-15.002,26.585-31.546c0.06-1.163,0.06-2.329,0-3.492
	c-8.186,0.808-16.389-1.338-23.349-6.109C139.827,581.373,127.155,585.962,114.739,583.608z M115.539,573.294
	c10.74,2.296,21.731-2.37,28.222-11.982c0.764-1.136,1.92-1.881,3.201-2.063c1.278-0.184,2.568,0.218,3.564,1.11
	c5.265,4.525,11.773,6.986,18.476,6.982c-6.866-15.508-23.957-22.008-38.173-14.518
	C123.205,556.841,117.605,564.338,115.539,573.294L115.539,573.294z"/>
</svg>
