<svg xmlns="http://www.w3.org/2000/svg" xmlns:xlink="http://www.w3.org/1999/xlink" version="1.1" style="" xml:space="preserve" width="248.99999455043223" height="324.2857106121219"><rect id="backgroundrect" width="100%" height="100%" x="0" y="0" fill="none" stroke="none"/>
<style type="text/css">
	.st0{fill:url(#SVGID_1_);}
	.st1{fill:url(#SVGID_2_);}
	.st2{fill:#20C5BA;}
	.st3{fill:url(#SVGID_3_);}
	.st4{fill:url(#SVGID_4_);}
	.st5{display:none;}
	.st6{display:inline;fill:none;}
	.st7{display:inline;fill:#539D96;}
</style>
<linearGradient id="SVGID_1_" gradientUnits="userSpaceOnUse" x1="366.18951416015625" y1="480.8489074707031" x2="441.2001037597656" y2="435.73779296875">
	<stop offset="0" style="stop-color:#FFFFFF;stop-opacity:0"/>
	<stop offset="0.2503" style="stop-color:#FDFEFE;stop-opacity:0.2503"/>
	<stop offset="0.3928" style="stop-color:#F4FCFC;stop-opacity:0.3928"/>
	<stop offset="0.5084" style="stop-color:#E6F9F7;stop-opacity:0.5084"/>
	<stop offset="0.6095" style="stop-color:#D3F3F1;stop-opacity:0.6095"/>
	<stop offset="0.7011" style="stop-color:#B9EDE9;stop-opacity:0.7011"/>
	<stop offset="0.7859" style="stop-color:#99E5E0;stop-opacity:0.7859"/>
	<stop offset="0.8655" style="stop-color:#74DBD4;stop-opacity:0.8655"/>
	<stop offset="0.9389" style="stop-color:#49D0C7;stop-opacity:0.9389"/>
	<stop offset="1" style="stop-color:#20C5BA"/>
</linearGradient>

<radialGradient id="SVGID_2_" cx="391.44189453125" cy="340.6925964355469" r="138.43299865722656" gradientTransform="matrix(0.9227 0.3856 -0.7387 1.7675 281.9527 -412.4276)" gradientUnits="userSpaceOnUse">
	<stop offset="0" style="stop-color:#20C5BA"/>
	<stop offset="0.3506" style="stop-color:#20C2B7"/>
	<stop offset="0.6001" style="stop-color:#1EB9AE"/>
	<stop offset="0.8175" style="stop-color:#1BA9A0"/>
	<stop offset="0.9637" style="stop-color:#199A91"/>
</radialGradient>


<linearGradient id="SVGID_3_" gradientUnits="userSpaceOnUse" x1="378.947998046875" y1="242.18899536132812" x2="541.726318359375" y2="382.0802001953125">
	<stop offset="0.2982" style="stop-color:#20C5BA;stop-opacity:0"/>
	<stop offset="0.3237" style="stop-color:#31C9BF;stop-opacity:0.0408"/>
	<stop offset="0.4112" style="stop-color:#67D7D0;stop-opacity:0.1812"/>
	<stop offset="0.4997" style="stop-color:#96E4DE;stop-opacity:0.323"/>
	<stop offset="0.5873" style="stop-color:#BCEDEA;stop-opacity:0.4636"/>
	<stop offset="0.6739" style="stop-color:#D9F5F3;stop-opacity:0.6024"/>
	<stop offset="0.7591" style="stop-color:#EEFBFA;stop-opacity:0.7391"/>
	<stop offset="0.8425" style="stop-color:#FBFEFE;stop-opacity:0.8729"/>
	<stop offset="0.9218" style="stop-color:#FFFFFF"/>
</linearGradient>

<linearGradient id="SVGID_4_" gradientUnits="userSpaceOnUse" x1="423.07470703125" y1="301.527587890625" x2="527.0413818359375" y2="390.8763122558594">
	<stop offset="0.2982" style="stop-color:#20C5BA;stop-opacity:0"/>
	<stop offset="0.3108" style="stop-color:#28C7BD;stop-opacity:0.0202"/>
	<stop offset="0.4032" style="stop-color:#61D6CE;stop-opacity:0.1682"/>
	<stop offset="0.4958" style="stop-color:#91E2DD;stop-opacity:0.3168"/>
	<stop offset="0.5869" style="stop-color:#B9EDE9;stop-opacity:0.4629"/>
	<stop offset="0.6761" style="stop-color:#D7F5F3;stop-opacity:0.6059"/>
	<stop offset="0.7628" style="stop-color:#EDFAFA;stop-opacity:0.745"/>
	<stop offset="0.846" style="stop-color:#FBFEFE;stop-opacity:0.8785"/>
	<stop offset="0.9218" style="stop-color:#FFFFFF"/>
</linearGradient>


















<g class="currentLayer" style=""><title>Layer 1</title><g class=""><path class="st0" d="M89.1328565979004,219.6871434020996 c0,0 4.02,-4.53 9.76,-7.13 c14.32,-6.48 40.65,-11.79 51.6,15.68 c2.79,-2.85 4.18,-12.83 4.18,-12.83 s26.5,32.79 -16.74,72.7 s-55.79,35.64 -55.79,35.64 l-6.97,-17.11 c0,0 11.8,-6.25 19.52,-12.83 c8.28,-7.05 17.93,-16.9 18.13,-17.1 c4.74,-4.84 9.56,-11 12.55,-17.11 c2.79,-5.7 6.97,-15.68 6.97,-19.96 s-2.79,-9.98 -5.58,-12.83 C123.99285659790041,223.95714340209963 123.99285659790041,218.2571434020996 89.1328565979004,219.6871434020996 z" id="svg_1"/><path class="st1" d="M239.7528565979004,67.15714340209962 c-2.79,57.02 -47.42,81.25 -58.58,86.96 c-23.45,9.42 -47.2,18.42 -69.73,29.94 c-16.74,8.55 -12.55,12.83 -13.95,17.11 c-18.72,6.37 -13.95,24.23 -11.16,21.38 c3.58,-3.66 7.25,-5.03 11.16,-5.7 c10.18,-1.7400000000000002 17.15,0.27 22.31,2.85 c7,3.49 11.27,9.48 12.55,15.68 c1.9100000000000001,9.18 -1.3900000000000001,18.53 -1.3900000000000001,18.53 c-0.8800000000000002,2.49 -2.77,4.95 -4.15,7.16 c-9.02,14.35 -20.65,27.68 -34.89,37.03 c-15.64,10.27 -33.5,22.74 -53.12,21.8 c-22.56,-1.08 -27.66,-28.95 -28.5,-46.77 c-1.96,-41.55 15.79,-85.47 37.13,-120.42 c46.19,-75.62 120.66,-116.36 163.44,-134.65 c20,-8.55 33.07,-12.19 33.07,-12.19 c0.030000000000000013,1.4 0.030000000000000013,2.7800000000000002 0.010000000000000004,4.15 c-0.7500000000000002,70.89 -55.72,94.21 -51.62,94.21 C209.0728565979004,101.3671434020996 234.17285659790036,72.85714340209961 239.7528565979004,67.15714340209962 z" id="svg_2"/><path class="st2" d="M113.41285659790037,193.53714340209962 c0,0 -6.15,1.9100000000000001 -7.77,2.44 c-1.33,0.4300000000000001 1.02,1.73 1.02,1.73 S109.36285659790042,198.38714340209958 113.41285659790037,193.53714340209962 z" id="svg_3"/><path class="st3" d="M243.93285659790035,5.857143402099609 c0,0 4.18,58.45 -182.7,128.3 c0,0 26.62,-45 90.65,-85.53 C176.86285659790042,32.81714340209962 206.3728565979004,17.057143402099598 243.93285659790035,5.857143402099609 z" id="svg_4"/><path class="st4" d="M239.7528565979004,67.15714340209962 c0,0 2.79,49.89 -122.73,92.66 c-5.58,1.4300000000000002 75.31,-55.6 75.31,-55.6 c2.63,-0.51 9.4,-2.5 19.8,-10.61 C222.09285659790038,85.83714340209963 235.5728565979004,71.4271434020996 239.7528565979004,67.15714340209962 z" id="svg_5"/><g class="st5" id="svg_6">
	<rect x="42.64285659790039" y="128.62713241577148" class="st6" width="456.5899963378906" height="163.83999633789062" id="svg_7"/>
	<path class="st7" d="M95.87285659790041,206.44714340209958 l-1.54,9.47 h-45.46 l12.05,-70.34 h13.35 l-10.51,60.88 H95.87285659790041 z" id="svg_8"/>
	<path class="st7" d="M104.53285659790038,207.0571434020996 c-0.4700000000000001,-2.04 -0.7000000000000002,-4.3100000000000005 -0.7000000000000002,-6.82 c0,-0.24000000000000005 0.020000000000000007,-1.12 0.05000000000000002,-2.6500000000000004 c0.030000000000000013,-1.53 0.28,-3.6100000000000003 0.7500000000000002,-6.26 c0.3300000000000001,-1.87 0.77,-3.77 1.32,-5.73 c0.55,-1.9500000000000002 1.23,-3.83 2.04,-5.65 c0.81,-1.81 1.79,-3.52 2.94,-5.12 c1.15,-1.59 2.48,-2.99 4.01,-4.17 c1.06,-0.8500000000000002 2.26,-1.51 3.59,-1.99 c1.33,-0.4700000000000001 2.6900000000000004,-0.7100000000000002 4.08,-0.7100000000000002 h20.72 c2.09,0.14 3.88,0.6500000000000002 5.35,1.53 c1.48,0.8800000000000002 2.6500000000000004,2.02 3.51,3.41 c0.8600000000000002,1.3900000000000001 1.3900000000000001,2.74 1.59,4.05 c0.2,1.31 0.3000000000000001,2.37 0.3000000000000001,3.18 c0,1.02 -0.08000000000000003,2.04 -0.25,3.05 c-0.3300000000000001,1.73 -0.8700000000000002,3.43 -1.62,5.09 c-0.7500000000000002,1.6600000000000001 -1.82,3.26 -3.21,4.79 c-1.26,1.49 -2.8600000000000003,2.71 -4.78,3.64 c-1.9300000000000002,0.93 -3.9699999999999998,1.4 -6.13,1.4 h-20.72 c0,0.7100000000000002 0.020000000000000007,1.49 0.05000000000000002,2.34 c0.030000000000000013,0.8500000000000002 0.13,1.6800000000000004 0.3000000000000001,2.49 c0.17,0.81 0.4200000000000001,1.54 0.77,2.19 s0.8400000000000002,1.12 1.47,1.4300000000000002 h24.35 l-1.44,9.37 H114.34285659790038 c-1.36,0 -2.5700000000000003,-0.25 -3.64,-0.7600000000000002 c-1.06,-0.51 -1.99,-1.18 -2.79,-2.01 c-0.8,-0.8300000000000002 -1.48,-1.78 -2.04,-2.85 C105.3128565979004,209.2271434020996 104.87285659790041,208.14714340209963 104.53285659790038,207.0571434020996 zM135.66285659790037,188.6871434020996 c0.7600000000000002,-0.07 1.34,-0.2 1.7200000000000002,-0.4100000000000001 s0.8200000000000002,-0.51 1.32,-0.92 c0.3700000000000001,-0.4400000000000001 0.7200000000000002,-1.04 1.07,-1.78 c0.3500000000000001,-0.7500000000000002 0.6100000000000002,-1.54 0.77,-2.39 c0.1,-0.54 0.15000000000000005,-1.09 0.15000000000000005,-1.6300000000000003 c0,-0.3100000000000001 -0.030000000000000013,-0.7300000000000002 -0.1,-1.27 c-0.07,-0.54 -0.25,-1.07 -0.55,-1.58 c-0.3000000000000001,-0.4700000000000001 -0.6000000000000002,-0.8200000000000002 -0.9,-1.04 c-0.3000000000000001,-0.22000000000000006 -0.81,-0.3300000000000001 -1.54,-0.3300000000000001 h-12.55 c-0.27,0 -0.46,0.030000000000000013 -0.5700000000000002,0.08000000000000003 c-0.12000000000000002,0.05000000000000002 -0.3400000000000002,0.16000000000000006 -0.6700000000000004,0.3300000000000001 c-0.8,0.5800000000000002 -1.49,1.32 -2.09,2.24 c-0.6000000000000002,0.92 -1.1,1.8800000000000003 -1.52,2.9 c-0.4200000000000001,1.02 -0.7600000000000002,2.04 -1.02,3.05 c-0.27,1.02 -0.4800000000000001,1.9300000000000002 -0.6500000000000002,2.75 H135.66285659790037 z" id="svg_9"/>
	<path class="st7" d="M161.2528565979004,210.7271434020996 c-0.8300000000000002,-1.53 -1.29,-2.91 -1.3900000000000001,-4.15 s-0.15000000000000005,-2.15 -0.15000000000000005,-2.72 c0,-1.29 0.12000000000000002,-2.54 0.3500000000000001,-3.77 c0.3000000000000001,-1.7000000000000002 0.8200000000000002,-3.38 1.57,-5.06 s1.82,-3.27 3.21,-4.76 c0.6300000000000002,-0.7500000000000002 1.36,-1.4300000000000002 2.19,-2.06 c0.8300000000000002,-0.6300000000000002 1.7200000000000002,-1.1600000000000001 2.66,-1.6 c0.9500000000000002,-0.4400000000000001 1.8900000000000001,-0.77 2.84,-0.99 c0.9500000000000002,-0.22000000000000006 1.8800000000000003,-0.3300000000000001 2.81,-0.3300000000000001 h21.11 c0.030000000000000013,-0.3400000000000002 0.05000000000000002,-0.6800000000000004 0.05000000000000002,-1.02 c0,-0.3400000000000002 -0.020000000000000007,-0.77 -0.05000000000000002,-1.3 c-0.030000000000000013,-0.53 -0.12000000000000002,-1.13 -0.25,-1.81 c-0.13,-0.6800000000000004 -0.3200000000000001,-1.31 -0.55,-1.9100000000000001 c-0.23,-0.5900000000000002 -0.55,-1.09 -0.9500000000000002,-1.5 c-0.2,-0.2 -0.3500000000000001,-0.3200000000000001 -0.45,-0.3600000000000001 c-0.1,-0.030000000000000013 -0.25,-0.05000000000000002 -0.45,-0.05000000000000002 h-23.7 l1.6400000000000001,-9.37 h27.74 c1.3900000000000001,0 2.6100000000000003,0.25 3.66,0.7400000000000002 c1.04,0.4900000000000001 1.96,1.15 2.74,1.96 c0.78,0.81 1.44,1.75 1.97,2.8 c0.53,1.05 0.98,2.14 1.34,3.26 c0.5,2.17 0.7500000000000002,4.53 0.7500000000000002,7.07 c0,0.07 -0.010000000000000004,0.78 -0.030000000000000013,2.14 c-0.020000000000000007,1.36 -0.26,3.36 -0.7200000000000002,6.01 c-0.3000000000000001,1.83 -0.7200000000000002,3.75 -1.27,5.75 c-0.55,2 -1.24,3.95 -2.07,5.85 c-0.8300000000000002,1.9 -1.83,3.68 -2.99,5.34 c-1.1600000000000001,1.6600000000000001 -2.52,3.07 -4.08,4.23 c-1.06,0.81 -2.22,1.48 -3.49,2.01 c-1.26,0.53 -2.59,0.79 -3.98,0.79 h-20.87 c-2.09,0 -3.96,-0.5 -5.6,-1.5 C163.22285659790037,213.4171434020996 162.0228565979004,212.1871434020996 161.2528565979004,210.7271434020996 zM178.1828565979004,194.63714340209958 c-0.7600000000000002,0 -1.34,0.1 -1.7400000000000002,0.3100000000000001 s-0.8300000000000002,0.53 -1.29,0.97 c-0.3700000000000001,0.4800000000000001 -0.7200000000000002,1.08 -1.07,1.81 c-0.3500000000000001,0.7300000000000002 -0.6100000000000002,1.52 -0.77,2.37 c-0.1,0.54 -0.15000000000000005,1.09 -0.15000000000000005,1.6300000000000003 c0,0.3100000000000001 0.030000000000000013,0.7400000000000002 0.1,1.3 c0.07,0.56 0.25,1.08 0.55,1.55 s0.6000000000000002,0.81 0.92,1.02 c0.3200000000000001,0.2 0.8200000000000002,0.3000000000000001 1.52,0.3000000000000001 h12.55 c0.2,0 0.3700000000000001,-0.020000000000000007 0.52,-0.05000000000000002 c0.15000000000000005,-0.030000000000000013 0.3900000000000001,-0.15000000000000005 0.7200000000000002,-0.3600000000000001 c0.8,-0.5800000000000002 1.49,-1.31 2.09,-2.21 c0.6000000000000002,-0.9 1.1,-1.86 1.52,-2.88 s0.7500000000000002,-2.04 1.02,-3.05 c0.27,-1.02 0.4800000000000001,-1.92 0.6500000000000002,-2.7 H178.1828565979004 z" id="svg_10"/>
	<path class="st7" d="M241.82285659790034,181.6071434020996 c-0.07,-0.3100000000000001 -0.15000000000000005,-0.6900000000000004 -0.25,-1.15 c-0.1,-0.46 -0.24000000000000005,-0.9 -0.4200000000000001,-1.32 c-0.18000000000000005,-0.4200000000000001 -0.4200000000000001,-0.8 -0.7000000000000002,-1.12 c-0.28,-0.3200000000000001 -0.6400000000000002,-0.52 -1.07,-0.5900000000000002 h-5.18 l-6.52,38.48 h-13.3 l8.17,-47.95 h22.56 c1.7600000000000002,0 3.25,0.4 4.48,1.2 c1.23,0.8 2.25,1.84 3.06,3.13 c0.81,1.29 1.44,2.75 1.8900000000000001,4.38 c0.45,1.6300000000000003 0.77,3.2800000000000002 0.97,4.94 H241.82285659790034 z" id="svg_11"/>
	<path class="st7" d="M289.0328565979004,215.9171434020996 l3.98,-23.97 c0.17,-1.08 0.3200000000000001,-2.26 0.4700000000000001,-3.54 c0.15000000000000005,-1.27 0.22000000000000006,-2.5 0.22000000000000006,-3.6900000000000004 c0,-0.14 -0.010000000000000004,-0.56 -0.020000000000000007,-1.27 c-0.020000000000000007,-0.7100000000000002 -0.17,-1.6500000000000004 -0.45,-2.8 c-0.28,-1.15 -0.77,-2.09 -1.47,-2.8 c-0.2,-0.2 -0.3600000000000001,-0.3200000000000001 -0.4700000000000001,-0.3600000000000001 c-0.12000000000000002,-0.030000000000000013 -0.26,-0.05000000000000002 -0.4200000000000001,-0.05000000000000002 h-15.29 l-6.52,38.48 h-13.3 l8.17,-47.95 h32.67 c1.3900000000000001,0 2.64,0.27 3.73,0.81 c1.1,0.54 2.06,1.24 2.89,2.09 c1.2,1.32 2.08,2.84 2.66,4.5600000000000005 c0.5800000000000002,1.71 0.93,3.26 1.05,4.63 c0.12000000000000002,1.37 0.17,2.52 0.17,3.44 c0,0.98 -0.07,2.21 -0.2,3.67 s-0.3500000000000001,3.05 -0.6500000000000002,4.78 l-3.98,23.97 H289.0328565979004 z" id="svg_12"/>
	<path class="st7" d="M333.0028565979004,167.96714340209962 l-8.17,47.95 h-13.3 l8.17,-47.95 H333.0028565979004 zM322.1528565979004,153.5671434020996 l2.04,-11.66 h13.3 l-2.04,11.66 H322.1528565979004 z" id="svg_13"/>
	<path class="st7" d="M338.8828565979004,210.7271434020996 c-0.8300000000000002,-1.53 -1.29,-2.91 -1.3900000000000001,-4.15 s-0.15000000000000005,-2.15 -0.15000000000000005,-2.72 c0,-1.29 0.12000000000000002,-2.54 0.3500000000000001,-3.77 c0.3000000000000001,-1.7000000000000002 0.8200000000000002,-3.38 1.57,-5.06 s1.82,-3.27 3.21,-4.76 c0.6300000000000002,-0.7500000000000002 1.36,-1.4300000000000002 2.19,-2.06 c0.8300000000000002,-0.6300000000000002 1.7200000000000002,-1.1600000000000001 2.66,-1.6 c0.9500000000000002,-0.4400000000000001 1.8900000000000001,-0.77 2.84,-0.99 c0.9500000000000002,-0.22000000000000006 1.8800000000000003,-0.3300000000000001 2.81,-0.3300000000000001 h21.11 c0.030000000000000013,-0.3400000000000002 0.05000000000000002,-0.6800000000000004 0.05000000000000002,-1.02 c0,-0.3400000000000002 -0.020000000000000007,-0.77 -0.05000000000000002,-1.3 c-0.030000000000000013,-0.53 -0.12000000000000002,-1.13 -0.25,-1.81 c-0.13,-0.6800000000000004 -0.3200000000000001,-1.31 -0.55,-1.9100000000000001 c-0.23,-0.5900000000000002 -0.55,-1.09 -0.9500000000000002,-1.5 c-0.2,-0.2 -0.3500000000000001,-0.3200000000000001 -0.45,-0.3600000000000001 c-0.1,-0.030000000000000013 -0.25,-0.05000000000000002 -0.45,-0.05000000000000002 h-23.7 l1.6400000000000001,-9.37 h27.74 c1.3900000000000001,0 2.6100000000000003,0.25 3.66,0.7400000000000002 c1.04,0.4900000000000001 1.96,1.15 2.74,1.96 c0.78,0.81 1.44,1.75 1.97,2.8 c0.53,1.05 0.98,2.14 1.34,3.26 c0.5,2.17 0.7500000000000002,4.53 0.7500000000000002,7.07 c0,0.07 -0.010000000000000004,0.78 -0.030000000000000013,2.14 c-0.020000000000000007,1.36 -0.26,3.36 -0.7200000000000002,6.01 c-0.3000000000000001,1.83 -0.7200000000000002,3.75 -1.27,5.75 c-0.55,2 -1.24,3.95 -2.07,5.85 c-0.8300000000000002,1.9 -1.83,3.68 -2.99,5.34 c-1.1600000000000001,1.6600000000000001 -2.52,3.07 -4.08,4.23 c-1.06,0.81 -2.22,1.48 -3.49,2.01 c-1.26,0.53 -2.59,0.79 -3.98,0.79 h-20.87 c-2.09,0 -3.96,-0.5 -5.6,-1.5 C340.8528565979004,213.4171434020996 339.6428565979004,212.1871434020996 338.8828565979004,210.7271434020996 zM355.81285659790035,194.63714340209958 c-0.7600000000000002,0 -1.34,0.1 -1.7400000000000002,0.3100000000000001 s-0.8300000000000002,0.53 -1.29,0.97 c-0.3700000000000001,0.4800000000000001 -0.7200000000000002,1.08 -1.07,1.81 c-0.3500000000000001,0.7300000000000002 -0.6100000000000002,1.52 -0.77,2.37 c-0.1,0.54 -0.15000000000000005,1.09 -0.15000000000000005,1.6300000000000003 c0,0.3100000000000001 0.030000000000000013,0.7400000000000002 0.1,1.3 c0.07,0.56 0.25,1.08 0.55,1.55 s0.6000000000000002,0.81 0.92,1.02 c0.3200000000000001,0.2 0.8200000000000002,0.3000000000000001 1.52,0.3000000000000001 h12.55 c0.2,0 0.3700000000000001,-0.020000000000000007 0.52,-0.05000000000000002 c0.15000000000000005,-0.030000000000000013 0.3900000000000001,-0.15000000000000005 0.7200000000000002,-0.3600000000000001 c0.8,-0.5800000000000002 1.49,-1.31 2.09,-2.21 c0.6000000000000002,-0.9 1.1,-1.86 1.52,-2.88 s0.7500000000000002,-2.04 1.02,-3.05 c0.27,-1.02 0.4800000000000001,-1.92 0.6500000000000002,-2.7 H355.81285659790035 z" id="svg_14"/>
</g><g class="st5" id="svg_15">
	<rect x="46.732852935791016" y="170.70714950561523" class="st6" width="357.0199890136719" height="178.50999450683594" id="svg_16"/>
	<path class="st7" d="M71.97285659790037,206.8171434020996 v11.75 h-5.44 c-5.26,0 -8.96,-1.87 -11.12,-5.6 c-1.6300000000000003,-2.85 -2.45,-7.19 -2.45,-13.03 c0,-1.3800000000000001 0.040000000000000015,-3.03 0.12000000000000002,-4.94 c0.5,-10.43 1.58,-19.81 3.24,-28.14 l10.17,3.15 c-1.96,8.99 -3.14,17 -3.5300000000000002,24.03 c-0.11000000000000003,2.21 -0.17,3.89 -0.17,5.02 c0,2.88 0.3700000000000001,4.86 1.12,5.93 c0.8,1.22 2.31,1.83 4.52,1.83 H71.97285659790037 z" id="svg_17"/>
	<path class="st7" d="M96.5028565979004,218.5671434020996 h-27.14 v-11.75 h27.14 V218.5671434020996 z" id="svg_18"/>
	<path class="st7" d="M120.8228565979004,218.5671434020996 h-27.14 v-11.75 h27.14 V218.5671434020996 z" id="svg_19"/>
	<path class="st7" d="M142.61285659790042,218.5671434020996 c-1.36,0 -2.44,-0.4200000000000001 -3.24,-1.25 c-0.4700000000000001,-0.4700000000000001 -0.91,-1.22 -1.33,-2.24 c-0.3300000000000001,-0.8300000000000002 -0.6100000000000002,-1.25 -0.8300000000000002,-1.25 c-0.08000000000000003,0 -0.91,0.79 -2.49,2.37 c-1.58,1.58 -3.13,2.37 -4.65,2.37 h-11.46 v-11.75 h9.84 c3.68,0 6.93,-4.07 9.75,-12.2 l8.63,4.03 c-0.06000000000000002,0.3000000000000001 -0.6400000000000002,1.36 -1.7600000000000002,3.15 c-1.12,1.8 -1.6800000000000004,3.06 -1.6800000000000004,3.7800000000000002 c0,0.8300000000000002 0.5900000000000002,1.24 1.78,1.24 h8.38 v11.75 H142.61285659790042 zM123.10285659790037,238.02714340209963 v-10.75 h10.67 v10.75 H123.10285659790037 zM136.96285659790038,238.02714340209963 v-10.75 h10.67 v10.75 H136.96285659790038 z" id="svg_20"/>
	<path class="st7" d="M158.71285659790038,218.5671434020996 h-6.68 v-11.75 h7.84 c1.96,0 3.29,-0.12000000000000002 3.98,-0.3700000000000001 c1.49,-0.5800000000000002 2.24,-1.84 2.24,-3.7800000000000002 c0,-2.88 -0.9,-6.11 -2.7,-9.71 l10.08,-4.03 c0.7200000000000002,2.8200000000000003 1.08,5.6400000000000015 1.08,8.47 c0,6.12 -1.23,11.05 -3.6900000000000004,14.82 C168.05285659790042,216.44714340209958 163.9928565979004,218.5671434020996 158.71285659790038,218.5671434020996 zM159.46285659790038,181.83714340209963 v-10.75 h10.67 v10.75 H159.46285659790038 z" id="svg_21"/>
	<path class="st7" d="M214.78285659790038,206.8171434020996 v11.75 h-2.45 c-2.55,0 -4.43,-0.4400000000000001 -5.6400000000000015,-1.33 c0,8.47 -2.45,15.55 -7.35,21.25 c-4.21,4.84 -9.79,8.33 -16.77,10.46 v-11.7 c10.76,-3.63 16.15,-9.49 16.15,-17.6 c0,-2.66 -0.6800000000000004,-5.5600000000000005 -2.03,-8.72 c-1.27,-2.99 -2.88,-5.5600000000000005 -4.8100000000000005,-7.72 l9.67,-5.02 c0.3300000000000001,0.22000000000000006 1.08,1.8 2.24,4.73 c1.02,2.6 2.12,3.9 3.2800000000000002,3.9 H214.78285659790038 z" id="svg_22"/>
	<path class="st7" d="M239.73285659790042,218.5671434020996 h-27.14 v-11.75 h27.14 V218.5671434020996 z" id="svg_23"/>
	<path class="st7" d="M264.05285659790036,218.5671434020996 h-27.14 v-11.75 h27.14 V218.5671434020996 z" id="svg_24"/>
	<path class="st7" d="M281.7328565979004,196.94714340209958 c0,5.78 -1.48,10.78 -4.44,14.98 c-3.13,4.43 -7.01,6.6400000000000015 -11.66,6.6400000000000015 h-3.7800000000000002 v-11.75 h4.15 c4.12,0 6.18,-2.37 6.18,-7.1 c0,-10.68 -0.6100000000000002,-20.59 -1.83,-29.72 L280.44285659790035,166.8571434020996 C281.30285659790036,180.3571434020996 281.7328565979004,190.38714340209958 281.7328565979004,196.94714340209958 z" id="svg_25"/>
</g><g id="svg_26" class="">
</g><g id="svg_27" class="">
</g><g id="svg_28" class="">
</g><g id="svg_29" class="">
</g><g id="svg_30" class="">
</g><g id="svg_31" class="">
</g><g id="svg_32" class="">
</g><g id="svg_33" class="">
</g><g id="svg_34" class="">
</g><g id="svg_35" class="">
</g><g id="svg_36" class="">
</g><g id="svg_37" class="">
</g><g id="svg_38" class="">
</g><g id="svg_39" class="">
</g><g id="svg_40" class="">
</g></g></g></svg>