<svg id="Golden_Ratio" data-name="Golden Ratio" xmlns="http://www.w3.org/2000/svg" xmlns:xlink="http://www.w3.org/1999/xlink" viewBox="0 0 427 338"><defs><style>.cls-1{fill:url(#linear-gradient);}.cls-2{fill:url(#radial-gradient);}.cls-3{fill:#20c5ba;}.cls-4{fill:url(#linear-gradient-2);}.cls-5{fill:url(#linear-gradient-3);}.cls-6{fill:none;}.cls-7{fill:#539d96;}</style><linearGradient id="linear-gradient" x1="109.07" y1="148.95" x2="191.14" y2="198.31" gradientTransform="matrix(1, 0, 0, -1, 0, 406)" gradientUnits="userSpaceOnUse"><stop offset="0" stop-color="#fff" stop-opacity="0"/><stop offset="0.25" stop-color="#fdfefe" stop-opacity="0.25"/><stop offset="0.39" stop-color="#f4fcfc" stop-opacity="0.39"/><stop offset="0.51" stop-color="#e6f9f7" stop-opacity="0.51"/><stop offset="0.61" stop-color="#d3f3f1" stop-opacity="0.61"/><stop offset="0.7" stop-color="#b9ede9" stop-opacity="0.7"/><stop offset="0.79" stop-color="#99e5e0" stop-opacity="0.79"/><stop offset="0.87" stop-color="#74dbd4" stop-opacity="0.87"/><stop offset="0.94" stop-color="#49d0c7" stop-opacity="0.94"/><stop offset="1" stop-color="#20c5ba"/></linearGradient><radialGradient id="radial-gradient" cx="134.19" cy="291.33" r="138.43" gradientTransform="matrix(1.12, 0.37, 0.9, -1.68, -274.9, 564.39)" gradientUnits="userSpaceOnUse"><stop offset="0" stop-color="#20c5ba"/><stop offset="0.35" stop-color="#20c2b7"/><stop offset="0.6" stop-color="#1eb9ae"/><stop offset="0.82" stop-color="#1ba9a0"/><stop offset="0.96" stop-color="#199a91"/></radialGradient><linearGradient id="linear-gradient-2" x1="109.14" y1="396.17" x2="344.26" y2="194.11" gradientTransform="matrix(1, 0, 0, -1, 0, 406)" gradientUnits="userSpaceOnUse"><stop offset="0.3" stop-color="#20c5ba" stop-opacity="0"/><stop offset="0.32" stop-color="#31c9bf" stop-opacity="0.04"/><stop offset="0.41" stop-color="#67d7d0" stop-opacity="0.18"/><stop offset="0.5" stop-color="#96e4de" stop-opacity="0.32"/><stop offset="0.59" stop-color="#bcedea" stop-opacity="0.46"/><stop offset="0.67" stop-color="#d9f5f3" stop-opacity="0.6"/><stop offset="0.76" stop-color="#eefbfa" stop-opacity="0.74"/><stop offset="0.84" stop-color="#fbfefe" stop-opacity="0.87"/><stop offset="0.92" stop-color="#fff"/></linearGradient><linearGradient id="linear-gradient-3" x1="164.86" y1="333.78" x2="318.97" y2="201.33" gradientTransform="matrix(1, 0, 0, -1, 0, 406)" gradientUnits="userSpaceOnUse"><stop offset="0.3" stop-color="#20c5ba" stop-opacity="0"/><stop offset="0.31" stop-color="#28c7bd" stop-opacity="0.02"/><stop offset="0.4" stop-color="#61d6ce" stop-opacity="0.17"/><stop offset="0.5" stop-color="#91e2dd" stop-opacity="0.32"/><stop offset="0.59" stop-color="#b9ede9" stop-opacity="0.46"/><stop offset="0.68" stop-color="#d7f5f3" stop-opacity="0.61"/><stop offset="0.76" stop-color="#edfafa" stop-opacity="0.75"/><stop offset="0.85" stop-color="#fbfefe" stop-opacity="0.88"/><stop offset="0.92" stop-color="#fff"/></linearGradient></defs><title>logo</title><path class="cls-1" d="M100.88,211.07a40,40,0,0,1,11.85-6.77c17.38-6.15,49.35-11.2,62.64,14.89,3.39-2.71,5.07-12.18,5.07-12.18s32.17,31.14-20.32,69S92.39,309.9,92.39,309.9l-8.46-16.25s14.32-5.94,23.7-12.18c10.05-6.7,21.77-16,22-16.24,5.75-4.6,11.61-10.45,15.24-16.25,3.39-5.41,8.46-14.89,8.46-19s-3.39-9.48-6.77-12.18S143.19,209.71,100.88,211.07Z"/><path class="cls-2" d="M283.72,66.22c-3.39,54.15-57.57,77.16-71.11,82.58-28.47,8.95-57.3,17.49-84.65,28.43-20.32,8.12-15.24,12.18-16.93,16.25-22.73,6-16.93,23-13.55,20.3A26,26,0,0,1,111,208.37c12.36-1.65,20.82.26,27.08,2.71,8.5,3.31,13.68,9,15.24,14.89,2.32,8.72-1.69,17.6-1.69,17.6-1.07,2.36-3.36,4.7-5,6.8-10.95,13.63-25.07,26.29-42.35,35.17-19,9.75-40.67,21.6-64.48,20.7-27.39-1-33.58-27.49-34.6-44.42C2.8,222.36,24.35,180.65,50.25,147.46,106.33,75.65,196.73,37,248.66,19.59,272.94,11.47,288.81,8,288.81,8c0,1.33,0,2.64,0,3.94-.91,67.32-67.64,89.47-62.66,89.47C246.48,98.7,276.95,71.63,283.72,66.22Z"/><path class="cls-3" d="M130.35,186.24s-7.47,1.81-9.43,2.32c-1.61.41,1.24,1.64,1.24,1.64S125.43,190.84,130.35,186.24Z"/><path class="cls-4" d="M288.79,8S293.87,63.51,67,129.85c0,0,32.32-42.74,110-81.23C207.38,33.6,243.2,18.64,288.79,8Z"/><path class="cls-5" d="M283.72,66.22s3.39,47.38-149,88c-6.77,1.36,91.42-52.8,91.42-52.8,3.19-.48,11.41-2.37,24-10.08C262.28,84,278.65,70.27,283.72,66.22Z"/><polygon class="cls-6" points="186 256.5 543.02 233.5 543.02 412 186 412 186 256.5"/><path class="cls-7" d="M210.61,291.71v11.46h-5.3q-7.7,0-10.85-5.46-2.38-4.17-2.39-12.71c0-1.35,0-3,.12-4.82a187.15,187.15,0,0,1,3.16-27.44l9.92,3.08a149.67,149.67,0,0,0-3.44,23.44c-.11,2.16-.16,3.79-.16,4.9q0,4.21,1.09,5.79,1.17,1.79,4.41,1.78h3.44Z"/><path class="cls-7" d="M234.54,303.17H208.07V291.71h26.47Z"/><path class="cls-7" d="M258.26,303.17H231.79V291.71h26.47Z"/><path class="cls-7" d="M279.51,303.17a4.23,4.23,0,0,1-3.16-1.21,6.73,6.73,0,0,1-1.3-2.19c-.32-.81-.59-1.21-.81-1.21a26.38,26.38,0,0,0-2.43,2.31,6.59,6.59,0,0,1-4.53,2.31H256.11V291.72h9.59q5.39,0,9.51-11.9l8.42,3.93a18.16,18.16,0,0,1-1.72,3.08,9,9,0,0,0-1.64,3.68c0,.81.58,1.21,1.74,1.21h8.18v11.46H279.51Zm-19,19V311.67h10.4v10.48Zm13.52,0V311.67h10.41v10.48Z"/><path class="cls-7" d="M295.21,303.17h-6.52V291.71h7.65a13.7,13.7,0,0,0,3.89-.36c1.46-.57,2.19-1.79,2.19-3.68a21.6,21.6,0,0,0-2.63-9.47l9.84-3.93a33.35,33.35,0,0,1,1,8.26q0,8.94-3.6,14.45A13.43,13.43,0,0,1,295.21,303.17Zm.73-35.83V256.86h10.4v10.48Z"/><path class="cls-7" d="M349.9,291.71v11.46h-2.39c-2.48,0-4.32-.43-5.5-1.29q0,12.39-7.17,20.72a34.39,34.39,0,0,1-16.35,10.2V321.38q15.75-5.31,15.75-17.16a21.74,21.74,0,0,0-2-8.5,27.1,27.1,0,0,0-4.7-7.53l9.43-4.9c.32.22,1,1.75,2.19,4.61,1,2.54,2.06,3.81,3.2,3.81h7.52Z"/><path class="cls-7" d="M374.23,303.17H347.76V291.71h26.47Z"/><path class="cls-7" d="M397.95,303.17H371.48V291.71h26.47Z"/><path class="cls-7" d="M415.19,282.08a24.7,24.7,0,0,1-4.33,14.61q-4.57,6.48-11.38,6.48H395.8V291.71h4q6,0,6-6.92a219.31,219.31,0,0,0-1.78-29l9.84-3.08Q415.18,272.49,415.19,282.08Z"/></svg>