<?xml version="1.0" encoding="utf-8"?>
<!-- Generator: Adobe Illustrator 23.0.1, SVG Export Plug-In . SVG Version: 6.00 Build 0)  -->
<svg version="1.1" id="Golden_Ratio" xmlns="http://www.w3.org/2000/svg" xmlns:xlink="http://www.w3.org/1999/xlink" x="0px"
	 y="0px" viewBox="0 0 800 800" style="enable-background:new 0 0 800 800;" xml:space="preserve">
<style type="text/css">
	.st0{fill:url(#SVGID_1_);}
	.st1{fill:url(#SVGID_2_);}
	.st2{fill:#20C5BA;}
	.st3{fill:url(#SVGID_3_);}
	.st4{fill:url(#SVGID_4_);}
	.st5{display:none;}
	.st6{display:inline;fill:none;}
	.st7{display:inline;fill:#539D96;}
</style>
<linearGradient id="SVGID_1_" gradientUnits="userSpaceOnUse" x1="366.1895" y1="480.8489" x2="441.2001" y2="435.7378">
	<stop  offset="0" style="stop-color:#FFFFFF;stop-opacity:0"/>
	<stop  offset="0.2503" style="stop-color:#FDFEFE;stop-opacity:0.2503"/>
	<stop  offset="0.3928" style="stop-color:#F4FCFC;stop-opacity:0.3928"/>
	<stop  offset="0.5084" style="stop-color:#E6F9F7;stop-opacity:0.5084"/>
	<stop  offset="0.6095" style="stop-color:#D3F3F1;stop-opacity:0.6095"/>
	<stop  offset="0.7011" style="stop-color:#B9EDE9;stop-opacity:0.7011"/>
	<stop  offset="0.7859" style="stop-color:#99E5E0;stop-opacity:0.7859"/>
	<stop  offset="0.8655" style="stop-color:#74DBD4;stop-opacity:0.8655"/>
	<stop  offset="0.9389" style="stop-color:#49D0C7;stop-opacity:0.9389"/>
	<stop  offset="1" style="stop-color:#20C5BA"/>
</linearGradient>
<path class="st0" d="M361.99,431.83c0,0,4.02-4.53,9.76-7.13c14.32-6.48,40.65-11.79,51.6,15.68c2.79-2.85,4.18-12.83,4.18-12.83
	s26.5,32.79-16.74,72.7s-55.79,35.64-55.79,35.64l-6.97-17.11c0,0,11.8-6.25,19.52-12.83c8.28-7.05,17.93-16.9,18.13-17.1
	c4.74-4.84,9.56-11,12.55-17.11c2.79-5.7,6.97-15.68,6.97-19.96s-2.79-9.98-5.58-12.83C396.85,436.1,396.85,430.4,361.99,431.83z"/>
<radialGradient id="SVGID_2_" cx="391.4419" cy="340.6926" r="138.433" gradientTransform="matrix(0.9227 0.3856 -0.7387 1.7675 281.9527 -412.4276)" gradientUnits="userSpaceOnUse">
	<stop  offset="0" style="stop-color:#20C5BA"/>
	<stop  offset="0.3506" style="stop-color:#20C2B7"/>
	<stop  offset="0.6001" style="stop-color:#1EB9AE"/>
	<stop  offset="0.8175" style="stop-color:#1BA9A0"/>
	<stop  offset="0.9637" style="stop-color:#199A91"/>
</radialGradient>
<path class="st1" d="M512.61,279.3c-2.79,57.02-47.42,81.25-58.58,86.96c-23.45,9.42-47.2,18.42-69.73,29.94
	c-16.74,8.55-12.55,12.83-13.95,17.11c-18.72,6.37-13.95,24.23-11.16,21.38c3.58-3.66,7.25-5.03,11.16-5.7
	c10.18-1.74,17.15,0.27,22.31,2.85c7,3.49,11.27,9.48,12.55,15.68c1.91,9.18-1.39,18.53-1.39,18.53c-0.88,2.49-2.77,4.95-4.15,7.16
	c-9.02,14.35-20.65,27.68-34.89,37.03c-15.64,10.27-33.5,22.74-53.12,21.8c-22.56-1.08-27.66-28.95-28.5-46.77
	c-1.96-41.55,15.79-85.47,37.13-120.42c46.19-75.62,120.66-116.36,163.44-134.65c20-8.55,33.07-12.19,33.07-12.19
	c0.03,1.4,0.03,2.78,0.01,4.15c-0.75,70.89-55.72,94.21-51.62,94.21C481.93,313.51,507.03,285,512.61,279.3z"/>
<path class="st2" d="M386.27,405.68c0,0-6.15,1.91-7.77,2.44c-1.33,0.43,1.02,1.73,1.02,1.73S382.22,410.53,386.27,405.68z"/>
<linearGradient id="SVGID_3_" gradientUnits="userSpaceOnUse" x1="378.948" y1="242.189" x2="541.7263" y2="382.0802">
	<stop  offset="0.2982" style="stop-color:#20C5BA;stop-opacity:0"/>
	<stop  offset="0.3237" style="stop-color:#31C9BF;stop-opacity:0.0408"/>
	<stop  offset="0.4112" style="stop-color:#67D7D0;stop-opacity:0.1812"/>
	<stop  offset="0.4997" style="stop-color:#96E4DE;stop-opacity:0.323"/>
	<stop  offset="0.5873" style="stop-color:#BCEDEA;stop-opacity:0.4636"/>
	<stop  offset="0.6739" style="stop-color:#D9F5F3;stop-opacity:0.6024"/>
	<stop  offset="0.7591" style="stop-color:#EEFBFA;stop-opacity:0.7391"/>
	<stop  offset="0.8425" style="stop-color:#FBFEFE;stop-opacity:0.8729"/>
	<stop  offset="0.9218" style="stop-color:#FFFFFF"/>
</linearGradient>
<path class="st3" d="M516.79,218c0,0,4.18,58.45-182.7,128.3c0,0,26.62-45,90.65-85.53C449.72,244.96,479.23,229.2,516.79,218z"/>
<linearGradient id="SVGID_4_" gradientUnits="userSpaceOnUse" x1="423.0747" y1="301.5276" x2="527.0414" y2="390.8763">
	<stop  offset="0.2982" style="stop-color:#20C5BA;stop-opacity:0"/>
	<stop  offset="0.3108" style="stop-color:#28C7BD;stop-opacity:0.0202"/>
	<stop  offset="0.4032" style="stop-color:#61D6CE;stop-opacity:0.1682"/>
	<stop  offset="0.4958" style="stop-color:#91E2DD;stop-opacity:0.3168"/>
	<stop  offset="0.5869" style="stop-color:#B9EDE9;stop-opacity:0.4629"/>
	<stop  offset="0.6761" style="stop-color:#D7F5F3;stop-opacity:0.6059"/>
	<stop  offset="0.7628" style="stop-color:#EDFAFA;stop-opacity:0.745"/>
	<stop  offset="0.846" style="stop-color:#FBFEFE;stop-opacity:0.8785"/>
	<stop  offset="0.9218" style="stop-color:#FFFFFF"/>
</linearGradient>
<path class="st4" d="M512.61,279.3c0,0,2.79,49.89-122.73,92.66c-5.58,1.43,75.31-55.6,75.31-55.6c2.63-0.51,9.4-2.5,19.8-10.61
	C494.95,297.98,508.43,283.57,512.61,279.3z"/>
<g class="st5">
	<rect x="315.5" y="340.77" class="st6" width="456.59" height="163.84"/>
	<path class="st7" d="M368.73,418.59l-1.54,9.47h-45.46l12.05-70.34h13.35l-10.51,60.88H368.73z"/>
	<path class="st7" d="M377.39,419.2c-0.47-2.04-0.7-4.31-0.7-6.82c0-0.24,0.02-1.12,0.05-2.65c0.03-1.53,0.28-3.61,0.75-6.26
		c0.33-1.87,0.77-3.77,1.32-5.73c0.55-1.95,1.23-3.83,2.04-5.65c0.81-1.81,1.79-3.52,2.94-5.12c1.15-1.59,2.48-2.99,4.01-4.17
		c1.06-0.85,2.26-1.51,3.59-1.99c1.33-0.47,2.69-0.71,4.08-0.71h20.72c2.09,0.14,3.88,0.65,5.35,1.53c1.48,0.88,2.65,2.02,3.51,3.41
		c0.86,1.39,1.39,2.74,1.59,4.05c0.2,1.31,0.3,2.37,0.3,3.18c0,1.02-0.08,2.04-0.25,3.05c-0.33,1.73-0.87,3.43-1.62,5.09
		c-0.75,1.66-1.82,3.26-3.21,4.79c-1.26,1.49-2.86,2.71-4.78,3.64c-1.93,0.93-3.97,1.4-6.13,1.4h-20.72c0,0.71,0.02,1.49,0.05,2.34
		c0.03,0.85,0.13,1.68,0.3,2.49c0.17,0.81,0.42,1.54,0.77,2.19s0.84,1.12,1.47,1.43h24.35l-1.44,9.37H387.2
		c-1.36,0-2.57-0.25-3.64-0.76c-1.06-0.51-1.99-1.18-2.79-2.01c-0.8-0.83-1.48-1.78-2.04-2.85
		C378.17,421.37,377.73,420.29,377.39,419.2z M408.52,400.83c0.76-0.07,1.34-0.2,1.72-0.41s0.82-0.51,1.32-0.92
		c0.37-0.44,0.72-1.04,1.07-1.78c0.35-0.75,0.61-1.54,0.77-2.39c0.1-0.54,0.15-1.09,0.15-1.63c0-0.31-0.03-0.73-0.1-1.27
		c-0.07-0.54-0.25-1.07-0.55-1.58c-0.3-0.47-0.6-0.82-0.9-1.04c-0.3-0.22-0.81-0.33-1.54-0.33h-12.55c-0.27,0-0.46,0.03-0.57,0.08
		c-0.12,0.05-0.34,0.16-0.67,0.33c-0.8,0.58-1.49,1.32-2.09,2.24c-0.6,0.92-1.1,1.88-1.52,2.9c-0.42,1.02-0.76,2.04-1.02,3.05
		c-0.27,1.02-0.48,1.93-0.65,2.75H408.52z"/>
	<path class="st7" d="M434.11,422.87c-0.83-1.53-1.29-2.91-1.39-4.15s-0.15-2.15-0.15-2.72c0-1.29,0.12-2.54,0.35-3.77
		c0.3-1.7,0.82-3.38,1.57-5.06s1.82-3.27,3.21-4.76c0.63-0.75,1.36-1.43,2.19-2.06c0.83-0.63,1.72-1.16,2.66-1.6
		c0.95-0.44,1.89-0.77,2.84-0.99c0.95-0.22,1.88-0.33,2.81-0.33h21.11c0.03-0.34,0.05-0.68,0.05-1.02c0-0.34-0.02-0.77-0.05-1.3
		c-0.03-0.53-0.12-1.13-0.25-1.81c-0.13-0.68-0.32-1.31-0.55-1.91c-0.23-0.59-0.55-1.09-0.95-1.5c-0.2-0.2-0.35-0.32-0.45-0.36
		c-0.1-0.03-0.25-0.05-0.45-0.05h-23.7l1.64-9.37h27.74c1.39,0,2.61,0.25,3.66,0.74c1.04,0.49,1.96,1.15,2.74,1.96
		c0.78,0.81,1.44,1.75,1.97,2.8c0.53,1.05,0.98,2.14,1.34,3.26c0.5,2.17,0.75,4.53,0.75,7.07c0,0.07-0.01,0.78-0.03,2.14
		c-0.02,1.36-0.26,3.36-0.72,6.01c-0.3,1.83-0.72,3.75-1.27,5.75c-0.55,2-1.24,3.95-2.07,5.85c-0.83,1.9-1.83,3.68-2.99,5.34
		c-1.16,1.66-2.52,3.07-4.08,4.23c-1.06,0.81-2.22,1.48-3.49,2.01c-1.26,0.53-2.59,0.79-3.98,0.79h-20.87c-2.09,0-3.96-0.5-5.6-1.5
		C436.08,425.56,434.88,424.33,434.11,422.87z M451.04,406.78c-0.76,0-1.34,0.1-1.74,0.31s-0.83,0.53-1.29,0.97
		c-0.37,0.48-0.72,1.08-1.07,1.81c-0.35,0.73-0.61,1.52-0.77,2.37c-0.1,0.54-0.15,1.09-0.15,1.63c0,0.31,0.03,0.74,0.1,1.3
		c0.07,0.56,0.25,1.08,0.55,1.55s0.6,0.81,0.92,1.02c0.32,0.2,0.82,0.3,1.52,0.3h12.55c0.2,0,0.37-0.02,0.52-0.05
		c0.15-0.03,0.39-0.15,0.72-0.36c0.8-0.58,1.49-1.31,2.09-2.21c0.6-0.9,1.1-1.86,1.52-2.88s0.75-2.04,1.02-3.05
		c0.27-1.02,0.48-1.92,0.65-2.7H451.04z"/>
	<path class="st7" d="M514.68,393.75c-0.07-0.31-0.15-0.69-0.25-1.15c-0.1-0.46-0.24-0.9-0.42-1.32c-0.18-0.42-0.42-0.8-0.7-1.12
		c-0.28-0.32-0.64-0.52-1.07-0.59h-5.18l-6.52,38.48h-13.3l8.17-47.95h22.56c1.76,0,3.25,0.4,4.48,1.2c1.23,0.8,2.25,1.84,3.06,3.13
		c0.81,1.29,1.44,2.75,1.89,4.38c0.45,1.63,0.77,3.28,0.97,4.94H514.68z"/>
	<path class="st7" d="M561.89,428.06l3.98-23.97c0.17-1.08,0.32-2.26,0.47-3.54c0.15-1.27,0.22-2.5,0.22-3.69
		c0-0.14-0.01-0.56-0.02-1.27c-0.02-0.71-0.17-1.65-0.45-2.8c-0.28-1.15-0.77-2.09-1.47-2.8c-0.2-0.2-0.36-0.32-0.47-0.36
		c-0.12-0.03-0.26-0.05-0.42-0.05h-15.29l-6.52,38.48h-13.3l8.17-47.95h32.67c1.39,0,2.64,0.27,3.73,0.81
		c1.1,0.54,2.06,1.24,2.89,2.09c1.2,1.32,2.08,2.84,2.66,4.56c0.58,1.71,0.93,3.26,1.05,4.63c0.12,1.37,0.17,2.52,0.17,3.44
		c0,0.98-0.07,2.21-0.2,3.67s-0.35,3.05-0.65,4.78l-3.98,23.97H561.89z"/>
	<path class="st7" d="M605.86,380.11l-8.17,47.95h-13.3l8.17-47.95H605.86z M595.01,365.71l2.04-11.66h13.3l-2.04,11.66H595.01z"/>
	<path class="st7" d="M611.74,422.87c-0.83-1.53-1.29-2.91-1.39-4.15s-0.15-2.15-0.15-2.72c0-1.29,0.12-2.54,0.35-3.77
		c0.3-1.7,0.82-3.38,1.57-5.06s1.82-3.27,3.21-4.76c0.63-0.75,1.36-1.43,2.19-2.06c0.83-0.63,1.72-1.16,2.66-1.6
		c0.95-0.44,1.89-0.77,2.84-0.99c0.95-0.22,1.88-0.33,2.81-0.33h21.11c0.03-0.34,0.05-0.68,0.05-1.02c0-0.34-0.02-0.77-0.05-1.3
		c-0.03-0.53-0.12-1.13-0.25-1.81c-0.13-0.68-0.32-1.31-0.55-1.91c-0.23-0.59-0.55-1.09-0.95-1.5c-0.2-0.2-0.35-0.32-0.45-0.36
		c-0.1-0.03-0.25-0.05-0.45-0.05h-23.7l1.64-9.37h27.74c1.39,0,2.61,0.25,3.66,0.74c1.04,0.49,1.96,1.15,2.74,1.96
		c0.78,0.81,1.44,1.75,1.97,2.8c0.53,1.05,0.98,2.14,1.34,3.26c0.5,2.17,0.75,4.53,0.75,7.07c0,0.07-0.01,0.78-0.03,2.14
		c-0.02,1.36-0.26,3.36-0.72,6.01c-0.3,1.83-0.72,3.75-1.27,5.75c-0.55,2-1.24,3.95-2.07,5.85c-0.83,1.9-1.83,3.68-2.99,5.34
		c-1.16,1.66-2.52,3.07-4.08,4.23c-1.06,0.81-2.22,1.48-3.49,2.01c-1.26,0.53-2.59,0.79-3.98,0.79h-20.87c-2.09,0-3.96-0.5-5.6-1.5
		C613.71,425.56,612.5,424.33,611.74,422.87z M628.67,406.78c-0.76,0-1.34,0.1-1.74,0.31s-0.83,0.53-1.29,0.97
		c-0.37,0.48-0.72,1.08-1.07,1.81c-0.35,0.73-0.61,1.52-0.77,2.37c-0.1,0.54-0.15,1.09-0.15,1.63c0,0.31,0.03,0.74,0.1,1.3
		c0.07,0.56,0.25,1.08,0.55,1.55s0.6,0.81,0.92,1.02c0.32,0.2,0.82,0.3,1.52,0.3h12.55c0.2,0,0.37-0.02,0.52-0.05
		c0.15-0.03,0.39-0.15,0.72-0.36c0.8-0.58,1.49-1.31,2.09-2.21c0.6-0.9,1.1-1.86,1.52-2.88s0.75-2.04,1.02-3.05
		c0.27-1.02,0.48-1.92,0.65-2.7H628.67z"/>
</g>
<g class="st5">
	<rect x="319.59" y="382.85" class="st6" width="357.02" height="178.51"/>
	<path class="st7" d="M344.83,418.96v11.75h-5.44c-5.26,0-8.96-1.87-11.12-5.6c-1.63-2.85-2.45-7.19-2.45-13.03
		c0-1.38,0.04-3.03,0.12-4.94c0.5-10.43,1.58-19.81,3.24-28.14l10.17,3.15c-1.96,8.99-3.14,17-3.53,24.03
		c-0.11,2.21-0.17,3.89-0.17,5.02c0,2.88,0.37,4.86,1.12,5.93c0.8,1.22,2.31,1.83,4.52,1.83H344.83z"/>
	<path class="st7" d="M369.36,430.71h-27.14v-11.75h27.14V430.71z"/>
	<path class="st7" d="M393.68,430.71h-27.14v-11.75h27.14V430.71z"/>
	<path class="st7" d="M415.47,430.71c-1.36,0-2.44-0.42-3.24-1.25c-0.47-0.47-0.91-1.22-1.33-2.24c-0.33-0.83-0.61-1.25-0.83-1.25
		c-0.08,0-0.91,0.79-2.49,2.37c-1.58,1.58-3.13,2.37-4.65,2.37h-11.46v-11.75h9.84c3.68,0,6.93-4.07,9.75-12.2l8.63,4.03
		c-0.06,0.3-0.64,1.36-1.76,3.15c-1.12,1.8-1.68,3.06-1.68,3.78c0,0.83,0.59,1.24,1.78,1.24h8.38v11.75H415.47z M395.96,450.17
		v-10.75h10.67v10.75H395.96z M409.82,450.17v-10.75h10.67v10.75H409.82z"/>
	<path class="st7" d="M431.57,430.71h-6.68v-11.75h7.84c1.96,0,3.29-0.12,3.98-0.37c1.49-0.58,2.24-1.84,2.24-3.78
		c0-2.88-0.9-6.11-2.7-9.71l10.08-4.03c0.72,2.82,1.08,5.64,1.08,8.47c0,6.12-1.23,11.05-3.69,14.82
		C440.91,428.59,436.85,430.71,431.57,430.71z M432.32,393.98v-10.75h10.67v10.75H432.32z"/>
	<path class="st7" d="M487.64,418.96v11.75h-2.45c-2.55,0-4.43-0.44-5.64-1.33c0,8.47-2.45,15.55-7.35,21.25
		c-4.21,4.84-9.79,8.33-16.77,10.46v-11.7c10.76-3.63,16.15-9.49,16.15-17.6c0-2.66-0.68-5.56-2.03-8.72
		c-1.27-2.99-2.88-5.56-4.81-7.72l9.67-5.02c0.33,0.22,1.08,1.8,2.24,4.73c1.02,2.6,2.12,3.9,3.28,3.9H487.64z"/>
	<path class="st7" d="M512.59,430.71h-27.14v-11.75h27.14V430.71z"/>
	<path class="st7" d="M536.91,430.71h-27.14v-11.75h27.14V430.71z"/>
	<path class="st7" d="M554.59,409.09c0,5.78-1.48,10.78-4.44,14.98c-3.13,4.43-7.01,6.64-11.66,6.64h-3.78v-11.75h4.15
		c4.12,0,6.18-2.37,6.18-7.1c0-10.68-0.61-20.59-1.83-29.72L553.3,379C554.16,392.5,554.59,402.53,554.59,409.09z"/>
</g>
<g>
</g>
<g>
</g>
<g>
</g>
<g>
</g>
<g>
</g>
<g>
</g>
<g>
</g>
<g>
</g>
<g>
</g>
<g>
</g>
<g>
</g>
<g>
</g>
<g>
</g>
<g>
</g>
<g>
</g>
</svg>
