<svg id="_38" data-name="38" xmlns="http://www.w3.org/2000/svg" viewBox="0 0 84.5 65.16"><title>Artboard 10</title><path d="M28.15,60.52H16.75a.65.65,0,0,1-.64-.54L12,35.82a.65.65,0,1,1,1.28-.22l4,23.61H27.38l-4-23.4a.65.65,0,0,1,1.28-.22l4.13,24.16a.65.65,0,0,1-.64.76Z"/><path d="M26.9,36.35H3.15a.65.65,0,0,1-.65-.65V19.32a.65.65,0,0,1,.65-.65H26.9a.65.65,0,0,1,.65.65V35.7A.65.65,0,0,1,26.9,36.35ZM3.8,35.05H26.25V20H3.8Z"/><path d="M54.88,49.25A2.33,2.33,0,0,1,53,48.39h0l-1-.89c-.71-.66-1.63-1.44-2.66-2.24s-2.47-1.84-4.12-2.93a42.15,42.15,0,0,0-5.29-2.88,40.94,40.94,0,0,0-6.24-2.21,26.58,26.58,0,0,0-6.81-.88.65.65,0,0,1,0-1.3A27.84,27.84,0,0,1,34,36a42.31,42.31,0,0,1,6.44,2.28,43.48,43.48,0,0,1,5.46,3c1.69,1.12,3.07,2.1,4.22,3s2,1.62,2.74,2.31l1,1a1.09,1.09,0,0,0,.95.42,1.68,1.68,0,0,0,.52-.12,1.15,1.15,0,0,0,.53-.44,1.34,1.34,0,0,0,.22-.76V8.39a1.27,1.27,0,0,0-.81-1.27,1.18,1.18,0,0,0-1.39.3s0,.05-1,1a33.39,33.39,0,0,1-2.75,2.33c-1.26,1-2.67,2-4.21,3a39.6,39.6,0,0,1-5.47,3A40.29,40.29,0,0,1,34,19,27.52,27.52,0,0,1,26.9,20a.65.65,0,0,1,0-1.3,26.2,26.2,0,0,0,6.81-.88,39,39,0,0,0,6.24-2.21,38.4,38.4,0,0,0,5.29-2.9c1.51-1,2.9-2,4.13-2.93A32.16,32.16,0,0,0,52,7.5l1-.94a2.5,2.5,0,0,1,2.85-.63,2.58,2.58,0,0,1,1.62,2.47V46.63A2.6,2.6,0,0,1,57,48.09a2.43,2.43,0,0,1-1.16.95A3,3,0,0,1,54.88,49.25Z"/><path d="M71,50.53a.65.65,0,0,1-.43-1.13,28.85,28.85,0,0,0,7.21-9.89,29.69,29.69,0,0,0,0-24A28.69,28.69,0,0,0,70.6,5.6a.65.65,0,0,1,.87-1A30,30,0,0,1,79,15,31,31,0,0,1,79,40a30.14,30.14,0,0,1-7.53,10.33A.65.65,0,0,1,71,50.53Z"/><path d="M65,45.87a.65.65,0,0,1-.43-1.14A22.7,22.7,0,0,0,70.21,37a23.32,23.32,0,0,0,0-18.92,22.64,22.64,0,0,0-5.68-7.78.65.65,0,0,1,.87-1,24,24,0,0,1,6,8.23,24.61,24.61,0,0,1,0,20,24,24,0,0,1-6,8.22A.65.65,0,0,1,65,45.87Z"/></svg>