<svg id="_38" data-name="38" xmlns="http://www.w3.org/2000/svg" viewBox="0 0 79.15 93"><title>Artboard 6</title><path d="M74.43,86.9H4.72a.65.65,0,0,1-.65-.65V8.4a.65.65,0,0,1,.65-.65H74.43a.65.65,0,0,1,.65.65V86.25A.65.65,0,0,1,74.43,86.9ZM5.37,85.6H73.78V9.05H5.37Z"/><path d="M32.76,55H14a.65.65,0,0,1-.65-.65V35.57a.65.65,0,0,1,.65-.65H32.76a.65.65,0,0,1,.65.65V54.33A.65.65,0,0,1,32.76,55Zm-18.12-1.3H32.11V36.22H14.65Z"/><path d="M64.83,30.35H14.32a.65.65,0,0,1-.65-.65V15.33a.65.65,0,0,1,.65-.65H64.83a.65.65,0,0,1,.65.65V29.7A.65.65,0,0,1,64.83,30.35ZM15,29H64.18V16H15Z"/><path d="M23.38,51.26a.65.65,0,0,1-.65-.65V39.29a.65.65,0,1,1,1.3,0V50.61A.65.65,0,0,1,23.38,51.26Z"/><path d="M32.76,79.61H14a.65.65,0,0,1-.65-.65V60.2a.65.65,0,0,1,.65-.65H32.76a.65.65,0,0,1,.65.65V79A.65.65,0,0,1,32.76,79.61Zm-18.12-1.3H32.11V60.85H14.65Z"/><path d="M29,45.6H17.72a.65.65,0,0,1,0-1.3H29a.65.65,0,0,1,0,1.3Z"/><path d="M27.38,74.23a.65.65,0,0,1-.46-.19l-8-8a.65.65,0,0,1,.92-.92l8,8a.65.65,0,0,1-.46,1.11Z"/><path d="M19.38,74.23a.65.65,0,0,1-.46-1.11l8-8a.65.65,0,0,1,.92.92l-8,8A.65.65,0,0,1,19.38,74.23Z"/><path d="M65.15,79.61H46.38a.65.65,0,0,1-.65-.65V60.2a.65.65,0,0,1,.65-.65H65.15a.65.65,0,0,1,.65.65V79A.65.65,0,0,1,65.15,79.61ZM47,78.31H64.5V60.85H47Z"/><path d="M61.43,70.23H50.11a.65.65,0,0,1,0-1.3H61.43a.65.65,0,0,1,0,1.3Z"/><path d="M65.15,55H46.38a.65.65,0,0,1-.65-.65V35.57a.65.65,0,0,1,.65-.65H65.15a.65.65,0,0,1,.65.65V54.33A.65.65,0,0,1,65.15,55ZM47,53.68H64.5V36.22H47Z"/><ellipse cx="55.77" cy="73.33" rx="1.43" ry="1.44"/><path d="M55.77,67.28a1.44,1.44,0,1,1,1.43-1.44A1.44,1.44,0,0,1,55.77,67.28Z"/><path d="M61.43,45.6H50.11a.65.65,0,0,1,0-1.3H61.43a.65.65,0,0,1,0,1.3Z"/></svg>