<svg id="_38" data-name="38" xmlns="http://www.w3.org/2000/svg" viewBox="0 0 78.5 90"><title>Artboard 2</title><path d="M69.83,85.9H8a.65.65,0,0,1-.65-.65V7.4A.65.65,0,0,1,8,6.75H56.74a.65.65,0,0,1,.46.19L70.29,20a.65.65,0,0,1,.19.46V85.25A.65.65,0,0,1,69.83,85.9ZM8.66,84.6H69.18V20.77L56.47,8.05H8.66Z"/><path d="M69.83,22.27H56.74a.65.65,0,0,1-.65-.65V8.52a.65.65,0,1,1,1.3,0V21H69.83a.65.65,0,0,1,0,1.3Z"/><path d="M63.1,57.27H14.75a.65.65,0,0,1,0-1.3H63.1a.65.65,0,1,1,0,1.3Z"/><path d="M63.1,71H14.75a.65.65,0,0,1,0-1.3H63.1a.65.65,0,0,1,0,1.3Z"/><path d="M63.1,29.89H33.85a.65.65,0,1,1,0-1.3H63.1a.65.65,0,0,1,0,1.3Z"/><path d="M63.1,43.58H14.75a.65.65,0,0,1,0-1.3H63.1a.65.65,0,0,1,0,1.3Z"/><path d="M63.1,43.58H14.75a.65.65,0,0,1,0-1.3H63.1a.65.65,0,0,1,0,1.3Z"/><path d="M28,29.89H14.71a.65.65,0,0,1-.65-.65V16a.65.65,0,0,1,.65-.65H28a.65.65,0,0,1,.65.65V29.24A.65.65,0,0,1,28,29.89Zm-12.62-1.3h12v-12h-12Z"/></svg>