<?xml version="1.0" encoding="utf-8"?>
<!-- Generator: Adobe Illustrator 16.0.0, SVG Export Plug-In . SVG Version: 6.00 Build 0)  -->
<!DOCTYPE svg PUBLIC "-//W3C//DTD SVG 1.1//EN" "http://www.w3.org/Graphics/SVG/1.1/DTD/svg11.dtd">
<svg version="1.1" xmlns="http://www.w3.org/2000/svg" xmlns:xlink="http://www.w3.org/1999/xlink" x="0px" y="0px" width="500px"
	 height="500px" viewBox="0 0 500 500" enable-background="new 0 0 500 500" xml:space="preserve">
<g id="Floor">
	<path id="Floor_15_" fill="#F5F5F5" d="M85.455,418.008c88.758,45.379,232.663,45.38,321.418,0.001
		c88.758-45.38,88.758-118.955,0-164.333c-88.758-45.38-232.662-45.38-321.419-0.001C-3.303,299.054-3.303,372.629,85.455,418.008z"
		/>
</g>
<g id="Shadows">
	<path id="Shadow_37_" fill="#EBEBEB" d="M375.731,345.512c4.864,2.808,14.424,1.842,21.353-2.159l39.936-23.193
		c6.929-4,8.594-9.524,3.719-12.338c-4.875-2.814-14.441-1.851-21.368,2.153l-39.904,23.204
		C372.539,337.182,370.867,342.703,375.731,345.512z"/>
	<polygon id="Shadow_36_" fill="#EBEBEB" points="135.312,366.9 94.691,343.448 135.311,319.996 	"/>
	<polygon id="Shadow_35_" fill="#EBEBEB" points="250.119,380.932 184.649,343.107 250.135,305.358 	"/>
</g>
<g id="Plants">
	<g id="Plants_14_">
		<g id="XMLID_3252_">
			<g id="XMLID_3255_">
				<path id="XMLID_3276_" fill="#27DEBF" d="M80.361,312.066c0.114-9.501-6.521-29.264-16.232-41.719s-25.104-21.662-36.16-18.027
					c-10.298,3.385-9.349,16.853,2.987,25.918c12.336,9.065,30.905,20.489,36.191,35.967l11.254,19.047L80.361,312.066z"/>
				<path id="XMLID_3256_" opacity="0.1" d="M80.361,312.066c0.114-9.501-6.521-29.264-16.232-41.719s-25.104-21.662-36.16-18.027
					c-10.298,3.385-9.349,16.853,2.987,25.918c12.336,9.065,30.905,20.489,36.191,35.967l11.254,19.047L80.361,312.066z"/>
			</g>
			<g id="XMLID_3253_">
				<path id="XMLID_3254_" fill="#FFFFFF" d="M80.906,325.076c-0.303-0.028-0.562-0.254-0.619-0.566
					C74.315,292,48.395,265.323,32.761,259.31c-0.358-0.138-0.537-0.54-0.399-0.897c0.136-0.356,0.53-0.543,0.897-0.399
					c15.931,6.127,42.331,33.243,48.393,66.246c0.07,0.376-0.18,0.738-0.557,0.807C81.031,325.079,80.968,325.082,80.906,325.076z"
					/>
			</g>
		</g>
		<g id="XMLID_3246_">
			<g id="XMLID_3250_">
				<path id="XMLID_3251_" fill="#27DEBF" d="M75.819,345.778c-1.462-5.359-7.879-14.251-18.343-21.658
					c-11.575-8.194-26.301-12.075-29.631-18.384c-4-7.58,2.433-14.618,14.404-12.987c11.971,1.631,32.854,18.243,35.928,42.912
					L75.819,345.778z"/>
			</g>
			<g id="XMLID_3247_">
				<path id="XMLID_3249_" fill="#FFFFFF" d="M78.207,340.202c-0.263-0.024-0.5-0.199-0.593-0.466
					c-9.612-27.905-30.694-37.912-40.497-39.305c-0.379-0.053-0.644-0.405-0.59-0.785c0.054-0.381,0.39-0.645,0.785-0.59
					c10.841,1.54,31.804,11.745,41.616,40.228c0.125,0.362-0.069,0.758-0.431,0.882C78.4,340.2,78.302,340.21,78.207,340.202z"/>
			</g>
		</g>
	</g>
	<g id="Plants_15_">
		<g id="XMLID_3135_">
			<path id="XMLID_3120_" fill="#27DEBF" d="M434.925,285.023c0,0,1.333-20.032,13.138-34.901
				c11.805-14.87,11.079-20.993,2.939-23.995c-8.139-3.001-27.045,14.919-22.838,38.917S434.925,285.023,434.925,285.023z"/>
			<path id="XMLID_3134_" opacity="0.1" d="M434.925,285.023c0,0,1.333-20.032,13.138-34.901
				c11.805-14.87,11.079-20.993,2.939-23.995c-8.139-3.001-27.045,14.919-22.838,38.917S434.925,285.023,434.925,285.023z"/>
			<g id="XMLID_3136_">
				<path id="XMLID_3137_" fill="#FFFFFF" d="M431.319,273.582c-0.245,0-0.449-0.19-0.465-0.436
					c-1.378-22.059,14.2-40.158,20.031-44.254c0.208-0.147,0.499-0.097,0.647,0.113c0.148,0.21,0.098,0.5-0.113,0.648
					c-5.717,4.016-20.991,21.772-19.637,43.435c0.017,0.256-0.179,0.477-0.436,0.493
					C431.338,273.582,431.328,273.582,431.319,273.582z"/>
			</g>
		</g>
		<g id="XMLID_3036_">
			<g id="XMLID_3073_">
				<path id="XMLID_3119_" fill="#27DEBF" d="M431.716,301.564c0,0,7.114,2.465,16.255,3.913c9.142,1.447,13.176-2.924,13.176-2.924
					s-3.6-8.574-8.791-10.979c0,0,8.801,1.794,15.865,6.507c0,0,5.582,0.084,7.804-8.435c0,0-3.308-5.127-14.403-7.896
					c0,0,6.751-1.699,16.479,0.782c0.729,0.29,3.839-10.725,4.779-15.807s-1.102-5.028-5.063-6.086
					c-3.962-1.058-17.083-4.005-19.563-1.826c-2.48,2.179-3.74,9.629-3.74,9.629s-1.634-4.396-0.372-9.443
					c0,0-3.565-1.394-9.098,0.216c-4.525,1.316-4.746,4.396-4.541,7.877c0.149,2.543,0.763,5.254,1.959,8.835
					c0,0-3.528-4.521-3.637-14.324c0,0-9.261,4.601-10.842,13.792C427.127,280.365,425.914,294.962,431.716,301.564z"/>
				<g id="XMLID_3093_">
					<path id="XMLID_3118_" fill="#FFFFFF" d="M433.463,299.777c0.19,0,0.374-0.107,0.462-0.291
						c7.377-15.325,34.803-33.133,44.626-35.044c0.278-0.054,0.461-0.324,0.406-0.603c-0.054-0.279-0.326-0.458-0.603-0.407
						c-9.985,1.942-37.861,20.038-45.354,35.608c-0.124,0.256-0.017,0.563,0.239,0.686
						C433.313,299.761,433.387,299.777,433.463,299.777z"/>
				</g>
			</g>
		</g>
	</g>
</g>
<g id="Computer_Screen">
	<g id="XMLID_1118_">
		<g id="XMLID_1204_">
			<g id="XMLID_1203_">
				<path fill="#FAFAFA" d="M76.781,352.864c-1.134,0-1.812-0.937-1.812-2.506V182.149L280.964,63.218l0.001,167.532
					c0,2.57-1.812,5.708-4.038,6.994L78.422,352.351C77.841,352.687,77.273,352.864,76.781,352.864L76.781,352.864z"/>
				<path fill="#E0E0E0" d="M280.379,64.23l0.001,166.52c0,2.344-1.715,5.315-3.745,6.487L78.13,351.844
					c-0.492,0.284-0.959,0.435-1.349,0.435c-1.107,0-1.227-1.344-1.227-1.921V182.486L280.379,64.23 M281.548,62.205L74.385,181.811
					v168.546c0,1.958,0.976,3.091,2.396,3.091c0.583,0,1.239-0.19,1.934-0.591L277.22,238.25c2.391-1.381,4.33-4.739,4.33-7.5
					L281.548,62.205L281.548,62.205z"/>
			</g>
			<polygon id="XMLID_2173_" fill="#27DEBF" points="74.385,181.811 74.385,209.955 281.547,90.35 281.549,62.205 			"/>
			<path id="XMLID_1167_" fill="#FAFAFA" d="M90.632,183.313l0,4.036c0,0.825,0.585,1.163,1.299,0.75l63.693-36.773l0-7.036
				l-63.693,36.773C91.216,181.476,90.632,182.488,90.632,183.313z"/>
			<path id="XMLID_1189_" fill="#455A64" d="M162.45,140.349c0.717-0.415,1.299-0.079,1.299,0.75v4.036
				c0,0.829-0.582,1.836-1.299,2.25l-6.825,3.941l0-7.036L162.45,140.349z"/>
			<path id="XMLID_2992_" fill="#455A64" d="M74.385,172.739c0-2.761,1.938-6.119,4.33-7.5L277.218,50.633
				c2.392-1.381,4.331-0.262,4.331,2.5v9.071L74.385,181.811V172.739z"/>
			<g id="XMLID_1202_">
				<path id="XMLID_1201_" fill="#27DEBF" d="M258.524,66.136c-1.122,0.648-2.031,2.223-2.031,3.519c0,1.295,0.909,1.82,2.031,1.173
					c1.122-0.648,2.031-2.223,2.031-3.519C260.556,66.013,259.646,65.488,258.524,66.136z"/>
				<path id="XMLID_1198_" fill="#27DEBF" d="M264.959,62.416c-1.122,0.648-2.031,2.223-2.031,3.519s0.909,1.82,2.031,1.173
					c1.121-0.647,2.031-2.223,2.031-3.518C266.99,62.293,266.08,61.768,264.959,62.416z"/>
				<path id="XMLID_1196_" fill="#27DEBF" d="M271.393,58.695c-1.121,0.648-2.03,2.223-2.03,3.519s0.909,1.82,2.03,1.173
					c1.122-0.647,2.031-2.223,2.031-3.518S272.515,58.048,271.393,58.695z"/>
			</g>
			<g id="XMLID_1168_" opacity="0.1">
				<path id="XMLID_1187_" d="M216.555,108.675c-2.452,1.416-4.439,4.859-4.439,7.69c0,2.832,1.988,3.98,4.439,2.564
					c2.452-1.416,4.44-4.859,4.44-7.69C220.995,108.407,219.007,107.259,216.555,108.675z"/>
				<path id="XMLID_1188_" d="M196.245,120.401c-2.452,1.416-4.439,4.859-4.439,7.69c0,2.832,1.987,3.98,4.439,2.564
					c2.452-1.416,4.439-4.858,4.439-7.69S198.697,118.985,196.245,120.401z"/>
				<path id="XMLID_1186_" d="M236.865,96.948c-2.452,1.416-4.44,4.859-4.44,7.69c0,2.832,1.988,3.98,4.44,2.564
					c2.452-1.416,4.439-4.859,4.439-7.691C241.305,96.681,239.317,95.533,236.865,96.948z"/>
				<path id="XMLID_1190_" d="M257.176,85.199c-2.452,1.416-4.439,4.859-4.439,7.691s1.987,3.979,4.439,2.564
					c2.451-1.416,4.439-4.859,4.439-7.69C261.615,84.932,259.627,83.784,257.176,85.199z"/>
			</g>
		</g>
		<path id="XMLID_2170_" fill="#E0E0E0" d="M94.962,212.146l48.208-27.833c2.391-1.381,4.33-0.261,4.33,2.5v46.285
			c0,2.762-1.938,6.119-4.33,7.5l-48.207,27.833c-2.391,1.381-4.33,0.262-4.33-2.5l-0.001-46.286
			C90.632,216.885,92.571,213.527,94.962,212.146z"/>
		<path id="XMLID_3029_" fill="#E0E0E0" d="M164.021,172.277l101.012-58.322c2.391-1.38,4.33-0.261,4.33,2.5v46.286
			c0,2.761-1.938,6.119-4.33,7.5l-101.01,58.322c-2.391,1.381-4.33,0.262-4.33-2.5l-0.001-46.286
			C159.69,177.016,161.629,173.658,164.021,172.277z"/>
		<g id="XMLID_3030_">
			<path id="XMLID_3117_" fill="#E0E0E0" d="M94.963,282.503l76.642-44.25c2.392-1.38,4.331-0.4,4.331,2.19
				c0,2.59-1.938,5.809-4.33,7.19l-76.643,44.25c-2.392,1.381-4.33,0.4-4.33-2.19C90.633,287.103,92.571,283.884,94.963,282.503z"/>
			<path id="XMLID_3095_" fill="#E0E0E0" d="M94.963,298.917l76.642-44.249c2.392-1.381,4.331-0.4,4.331,2.19
				c0,2.59-1.938,5.81-4.33,7.19l-76.643,44.25c-2.392,1.381-4.33,0.4-4.33-2.19C90.633,303.517,92.571,300.298,94.963,298.917z"/>
			<path id="XMLID_3094_" fill="#E0E0E0" d="M94.963,315.332l76.642-44.25c2.392-1.381,4.331-0.4,4.331,2.19
				c0,2.59-1.938,5.809-4.33,7.19l-76.643,44.25c-2.392,1.38-4.33,0.4-4.33-2.19S92.571,316.712,94.963,315.332z"/>
		</g>
	</g>
</g>
<g id="Envelope">
	<g id="XMLID_3248_">
		<g id="Letter_2_">
			<g id="XMLID_3260_">
				<g id="XMLID_3261_">
					<path id="XMLID_3262_" fill="#27DEBF" d="M131.253,259.673c0-1.657,1.163-3.672,2.598-4.5l132.911-76.736
						c1.435-0.828,3.761-0.829,5.196,0l2.928,1.69c1.436,0.829,2.599,2.843,2.599,4.5v101.878c0,1.65-1.169,3.675-2.598,4.5
						l-132.911,76.736c-1.429,0.825-3.768,0.825-5.196,0l-2.928-1.69c-1.429-0.825-2.598-2.85-2.598-4.5L131.253,259.673z"/>
				</g>
			</g>
			<path id="XMLID_3259_" opacity="0.4" fill="#FFFFFF" d="M132.011,257.114l7.375,4.252l137.335-79.299
				c-0.467-0.812-1.118-1.524-1.831-1.942l-2.938-1.684c-1.426-0.835-3.761-0.835-5.187,0l-132.911,76.73
				C133.129,255.589,132.478,256.302,132.011,257.114z"/>
			<path id="XMLID_3258_" opacity="0.1" d="M131.249,259.67v101.877c0,1.659,1.167,3.675,2.605,4.499l2.925,1.696
				c0.221,0.123,0.455,0.234,0.712,0.32c0.332,0.11,0.688,0.196,1.069,0.246c0.676,0.086,1.389,0.062,2.053-0.074
				c0.172-0.037,0.344-0.086,0.504-0.135c0.111-0.037,0.209-0.074,0.307-0.123c-0.479,0.172-0.897,0.147-1.241-0.025
				c-0.492-0.258-0.799-0.848-0.799-1.708V264.365c0-1.069,0.541-1.881,1.352-2.212l-1.352-0.787l-7.375-4.252
				C131.544,257.925,131.249,258.847,131.249,259.67z"/>
			<path id="XMLID_3257_" opacity="0.2" d="M139.385,261.366l61.552,22.996c4.388,1.635,9.316,0.012,11.873-3.908l9.884-15.143
				l54.519-83.526l-52.548,84.095l52.819,20.671c-0.013,0.836-0.319,1.77-0.812,2.593l-52.155-23.028l-11.486,18.382
				c-2.642,4.216-7.977,5.863-12.524,3.847l-8.178-3.61l-52.145,83.216c-0.492-0.258-0.799-0.848-0.799-1.708v-1.696l52.688-79.925
				L139.385,261.366z"/>
		</g>
	</g>
</g>
<g id="Mobile_Screen">
	<g id="XMLID_2171_">
		<path id="XMLID_2869_" fill="#FAFAFA" stroke="#E0E0E0" stroke-width="1.1698" stroke-miterlimit="10" d="M249.052,144.405
			v233.903c0,2.761,1.939,3.881,4.331,2.5l105.078-60.666c2.391-1.381,4.33-4.738,4.33-7.5V78.739c0-2.761-1.939-3.88-4.33-2.5
			l-105.078,60.666C250.991,138.286,249.052,141.644,249.052,144.405z"/>
		<path id="XMLID_2970_" fill="#455A64" d="M255.142,148.764c0-0.648,0.504-1.464,1.126-1.823l11.97-6.908
			c0.622-0.359,1.126-0.125,1.126,0.522c-0.001,0.648-0.505,1.463-1.127,1.823l-11.969,6.908
			C255.646,149.646,255.142,149.411,255.142,148.764z"/>
		<path id="XMLID_2972_" fill="#455A64" d="M255.142,153.421c0-0.647,0.504-1.463,1.126-1.822l11.97-6.908
			c0.622-0.359,1.126-0.125,1.126,0.522c-0.001,0.647-0.505,1.463-1.127,1.822l-11.969,6.909
			C255.646,154.303,255.142,154.069,255.142,153.421z"/>
		<path id="XMLID_2973_" fill="#455A64" d="M255.142,158.08c0-0.648,0.504-1.464,1.126-1.823l11.97-6.908
			c0.622-0.359,1.126-0.125,1.126,0.523c-0.001,0.647-0.505,1.463-1.127,1.822l-11.969,6.909
			C255.646,158.961,255.142,158.728,255.142,158.08z"/>
		<path id="XMLID_2989_" fill="#37474F" d="M354.665,98.101v-1.868c0-0.111-0.082-0.165-0.184-0.119l-1.44,0.649
			c-0.102,0.046-0.206-0.005-0.239-0.111c-0.084-0.265-0.192-0.503-0.321-0.714c-0.059-0.095-0.071-0.249-0.021-0.349l0.959-1.935
			c0.05-0.1,0.012-0.226-0.085-0.282l-1.042-0.602c-0.096-0.056-0.225-0.025-0.286,0.067l-1.196,1.799
			c-0.062,0.093-0.201,0.158-0.313,0.155c-0.248-0.006-0.508,0.019-0.779,0.079c-0.108,0.024-0.205-0.042-0.216-0.152l-0.157-1.571
			c-0.012-0.111-0.099-0.156-0.195-0.1l-1.618,0.934c-0.096,0.056-0.183,0.191-0.192,0.302l-0.162,1.8
			c-0.01,0.111-0.086,0.26-0.168,0.336c-0.315,0.29-0.615,0.609-0.898,0.951c-0.071,0.086-0.213,0.127-0.318,0.09l-1.038-0.362
			c-0.105-0.037-0.235,0.012-0.292,0.108l-1.188,2.06c-0.056,0.097-0.033,0.234,0.052,0.307l0.833,0.718
			c0.085,0.073,0.12,0.216,0.081,0.32c-0.154,0.416-0.281,0.836-0.375,1.254c-0.023,0.109-0.115,0.25-0.207,0.313l-1.478,1.041
			c-0.091,0.064-0.165,0.207-0.165,0.318v1.868c0,0.111,0.083,0.165,0.185,0.119l1.439-0.649c0.102-0.046,0.206,0.004,0.24,0.111
			c0.083,0.265,0.191,0.503,0.32,0.714c0.059,0.095,0.071,0.249,0.022,0.349l-0.96,1.935c-0.05,0.1-0.012,0.226,0.085,0.282
			l1.042,0.601c0.097,0.056,0.225,0.026,0.286-0.067l1.196-1.799c0.062-0.093,0.201-0.158,0.313-0.155
			c0.247,0.006,0.508-0.02,0.778-0.079c0.108-0.024,0.205,0.041,0.216,0.152l0.158,1.572c0.011,0.111,0.099,0.156,0.194,0.1
			l1.618-0.934c0.097-0.056,0.183-0.191,0.193-0.302l0.161-1.8c0.011-0.111,0.087-0.261,0.169-0.336
			c0.314-0.29,0.615-0.609,0.898-0.951c0.07-0.086,0.212-0.127,0.317-0.09l1.038,0.363c0.105,0.037,0.236-0.012,0.292-0.108
			l1.189-2.06c0.056-0.097,0.032-0.234-0.052-0.307l-0.834-0.718c-0.084-0.073-0.119-0.216-0.08-0.321
			c0.154-0.416,0.28-0.836,0.374-1.253c0.024-0.109,0.115-0.25,0.207-0.314l1.478-1.04
			C354.591,98.355,354.665,98.212,354.665,98.101z M348.34,103.975c-1.51,0.872-2.733,0.165-2.733-1.578s1.224-3.862,2.733-4.733
			c1.509-0.872,2.732-0.165,2.732,1.578S349.849,103.103,348.34,103.975z"/>
		<g id="XMLID_3074_">
			<path id="XMLID_3091_" fill="#455A64" d="M305.922,144.201c12.277-7.089,22.23-1.342,22.23,12.834
				c0,14.177-9.953,31.416-22.23,38.505c-12.278,7.089-22.231,1.342-22.231-12.835C283.69,168.528,293.644,151.289,305.922,144.201z
				"/>
			<path id="XMLID_3076_" fill="#27DEBF" d="M305.766,155.358c3.982-2.3,7.212-0.436,7.212,4.164c0,4.6-3.229,10.192-7.212,12.492
				c-3.983,2.299-7.213,0.436-7.213-4.164S301.782,157.657,305.766,155.358z"/>
			<path id="XMLID_3075_" fill="#27DEBF" d="M319.979,179.883c0-7.557-5.306-10.62-11.849-6.841l-4.091,2.362
				c-6.543,3.778-11.85,12.967-11.85,20.523v2.061c1.182,0.393,2.464,0.586,3.82,0.589c2.984,0.006,6.345-0.977,9.912-3.037
				c5.334-3.08,10.227-8.077,14.057-13.905V179.883z"/>
		</g>
		<path id="XMLID_3140_" fill="#27DEBF" d="M285.855,216.634l40.132-23.17c1.195-0.69,2.165-0.2,2.165,1.095
			c0,1.295-0.97,2.905-2.165,3.595l-40.132,23.17c-1.195,0.69-2.165,0.2-2.165-1.095C283.69,218.934,284.66,217.325,285.855,216.634
			z"/>
		<path id="XMLID_3142_" fill="#455A64" d="M281.549,233.207l48.745-28.173c1.195-0.69,2.165-0.2,2.165,1.095
			c0,1.295-0.97,2.905-2.165,3.595l-48.745,28.173c-1.195,0.69-2.165,0.2-2.165-1.095
			C279.384,235.507,280.354,233.897,281.549,233.207z"/>
		<path id="XMLID_3148_" fill="#37474F" d="M331.594,227.745l13.648-7.881c0.718-0.414,1.299-0.225,1.299,0.423
			c0,0.647-0.581,1.509-1.299,1.923l-13.648,7.881c-0.718,0.414-1.3,0.225-1.3-0.423
			C330.294,229.02,330.876,228.159,331.594,227.745z"/>
		<g id="XMLID_3157_">
			<path id="XMLID_3141_" fill="#27DEBF" d="M263.404,262.43l20.042-11.571c1.196-0.69,2.165-0.131,2.165,1.25v13.762
				c0,1.38-0.969,3.06-2.165,3.75l-20.042,11.571c-1.195,0.69-2.165,0.13-2.165-1.25V266.18
				C261.239,264.799,262.209,263.12,263.404,262.43z"/>
			<path id="XMLID_3143_" fill="#FAFAFA" d="M266.601,264.353l13.649-7.881c0.717-0.414,1.299-0.225,1.299,0.423
				c0,0.648-0.582,1.509-1.299,1.923l-13.649,7.88c-0.718,0.415-1.299,0.225-1.299-0.422S265.883,264.768,266.601,264.353z"/>
			<path id="XMLID_3146_" fill="#FAFAFA" d="M265.302,271.294v4.035c0,0.828,0.581,1.164,1.299,0.75l13.649-7.881
				c0.717-0.415,1.299-1.422,1.299-2.25l0.001-4.036c0-0.828-0.582-1.164-1.299-0.75l-13.65,7.882
				C265.883,269.458,265.302,270.465,265.302,271.294z"/>
		</g>
		<g id="XMLID_3149_">
			<path id="XMLID_3155_" fill="#27DEBF" d="M295.9,243.668l20.042-11.571c1.195-0.69,2.165-0.13,2.165,1.25v13.762
				c0,1.381-0.97,3.06-2.165,3.75L295.9,262.43c-1.196,0.69-2.165,0.131-2.165-1.25v-13.762
				C293.735,246.038,294.704,244.358,295.9,243.668z"/>
			<path id="XMLID_3154_" fill="#FAFAFA" d="M299.097,245.592l13.649-7.881c0.717-0.415,1.299-0.225,1.299,0.422
				c0,0.648-0.582,1.509-1.299,1.923l-13.649,7.88c-0.718,0.415-1.299,0.225-1.299-0.422S298.379,246.006,299.097,245.592z"/>
			<path id="XMLID_3153_" fill="#FAFAFA" d="M297.798,252.532v4.036c0,0.828,0.581,1.164,1.299,0.75l13.649-7.881
				c0.717-0.414,1.299-1.421,1.299-2.25v-4.036c0-0.828-0.581-1.164-1.299-0.75l-13.649,7.881
				C298.379,250.697,297.798,251.704,297.798,252.532z"/>
		</g>
		<g id="XMLID_3159_">
			<path id="XMLID_3176_" fill="#27DEBF" d="M328.396,224.906l20.042-11.571c1.195-0.69,2.165-0.131,2.165,1.25v13.762
				c0,1.381-0.969,3.06-2.165,3.75l-20.042,11.571c-1.195,0.69-2.165,0.131-2.165-1.25v-13.762
				C326.231,227.275,327.201,225.596,328.396,224.906z"/>
			<path id="XMLID_3173_" fill="#FAFAFA" d="M331.593,226.83l13.649-7.881c0.717-0.414,1.299-0.225,1.299,0.423
				c0,0.647-0.582,1.509-1.299,1.923l-13.649,7.881c-0.717,0.414-1.299,0.225-1.299-0.423
				C330.294,228.104,330.876,227.244,331.593,226.83z"/>
			<path id="XMLID_3163_" fill="#FAFAFA" d="M330.294,233.77v4.035c0,0.829,0.582,1.165,1.299,0.75l13.649-7.881
				c0.717-0.414,1.299-1.421,1.299-2.25l0.001-4.036c0-0.828-0.582-1.164-1.299-0.75l-13.65,7.881
				C330.876,231.934,330.294,232.942,330.294,233.77z"/>
		</g>
		<path id="XMLID_3144_" fill="#E0E0E0" d="M265.569,294.013l80.704-46.595c2.392-1.381,4.33-0.4,4.33,2.19
			c0,2.59-1.938,5.81-4.33,7.19l-80.704,46.595c-2.392,1.38-4.33,0.4-4.33-2.19C261.239,298.612,263.178,295.393,265.569,294.013z"
			/>
		<path id="XMLID_3147_" fill="#E0E0E0" d="M265.569,312.774l80.704-46.595c2.392-1.381,4.33-0.4,4.33,2.19s-1.938,5.81-4.33,7.19
			l-80.704,46.595c-2.392,1.38-4.33,0.4-4.33-2.19C261.239,317.374,263.178,314.155,265.569,312.774z"/>
		<path id="XMLID_3178_" fill="#27DEBF" d="M291.839,321.06l28.165-16.262c1.196-0.69,2.165-0.131,2.165,1.25l0.001,9.071
			c0,1.381-0.97,3.06-2.166,3.75l-28.165,16.262c-1.196,0.69-2.165,0.131-2.165-1.25v-9.071
			C289.674,323.429,290.643,321.75,291.839,321.06z"/>
		<g id="XMLID_3180_">
			<path id="XMLID_3027_" fill="#FAFAFA" d="M267.332,295.391c-1.121,0.647-2.031,2.223-2.031,3.518s0.91,1.82,2.031,1.173
				c1.122-0.647,2.031-2.223,2.031-3.518S268.454,294.743,267.332,295.391z"/>
			<path id="XMLID_3023_" fill="#FAFAFA" d="M273.767,291.67c-1.122,0.647-2.031,2.223-2.031,3.518s0.909,1.821,2.031,1.173
				c1.121-0.647,2.03-2.223,2.03-3.518S274.888,291.022,273.767,291.67z"/>
			<path id="XMLID_3021_" fill="#FAFAFA" d="M280.201,287.95c-1.122,0.647-2.031,2.223-2.031,3.518s0.909,1.821,2.031,1.173
				c1.121-0.648,2.03-2.223,2.03-3.519S281.322,287.303,280.201,287.95z"/>
			<path id="XMLID_2993_" fill="#FAFAFA" d="M286.635,284.23c-1.121,0.648-2.03,2.223-2.03,3.518c0,1.296,0.909,1.821,2.03,1.173
				c1.122-0.648,2.031-2.223,2.031-3.518C288.666,284.107,287.757,283.583,286.635,284.23z"/>
			<path id="XMLID_2176_" fill="#FAFAFA" d="M293.069,280.51c-1.122,0.648-2.031,2.223-2.031,3.519c0,1.295,0.909,1.82,2.031,1.173
				s2.031-2.223,2.031-3.519C295.101,280.388,294.191,279.862,293.069,280.51z"/>
			<path id="XMLID_2175_" fill="#FAFAFA" d="M299.504,276.79c-1.122,0.647-2.031,2.223-2.031,3.518s0.909,1.82,2.031,1.173
				c1.121-0.647,2.03-2.223,2.03-3.518S300.625,276.142,299.504,276.79z"/>
			<path id="XMLID_2174_" fill="#FAFAFA" d="M305.938,273.07c-1.121,0.647-2.03,2.223-2.03,3.518s0.909,1.82,2.03,1.173
				c1.122-0.647,2.031-2.223,2.031-3.518S307.06,272.422,305.938,273.07z"/>
		</g>
		<g id="XMLID_2172_">
			<path id="XMLID_3020_" fill="#FAFAFA" d="M267.332,314.173c-1.121,0.647-2.031,2.223-2.031,3.518s0.91,1.821,2.031,1.173
				c1.122-0.647,2.031-2.223,2.031-3.518S268.454,313.525,267.332,314.173z"/>
			<path id="XMLID_3017_" fill="#FAFAFA" d="M273.767,310.453c-1.122,0.647-2.031,2.223-2.031,3.518s0.909,1.82,2.031,1.173
				c1.121-0.647,2.03-2.223,2.03-3.518S274.888,309.805,273.767,310.453z"/>
			<path id="XMLID_3016_" fill="#FAFAFA" d="M280.201,306.732c-1.122,0.647-2.031,2.223-2.031,3.518s0.909,1.821,2.031,1.173
				c1.121-0.648,2.03-2.223,2.03-3.519S281.322,306.085,280.201,306.732z"/>
			<path id="XMLID_3015_" fill="#FAFAFA" d="M286.635,303.012c-1.121,0.647-2.03,2.223-2.03,3.518c0,1.295,0.909,1.821,2.03,1.173
				c1.122-0.648,2.031-2.223,2.031-3.518C288.666,302.89,287.757,302.365,286.635,303.012z"/>
			<path id="XMLID_3008_" fill="#FAFAFA" d="M293.069,299.292c-1.122,0.648-2.031,2.223-2.031,3.519c0,1.295,0.909,1.82,2.031,1.173
				s2.031-2.223,2.031-3.518S294.191,298.645,293.069,299.292z"/>
			<path id="XMLID_2995_" fill="#FAFAFA" d="M299.504,295.572c-1.122,0.647-2.031,2.223-2.031,3.518s0.909,1.82,2.031,1.173
				c1.121-0.647,2.03-2.223,2.03-3.518S300.625,294.924,299.504,295.572z"/>
			<path id="XMLID_2994_" fill="#FAFAFA" d="M305.938,291.852c-1.121,0.647-2.03,2.223-2.03,3.518s0.909,1.82,2.03,1.173
				c1.122-0.647,2.031-2.223,2.031-3.518S307.06,291.204,305.938,291.852z"/>
		</g>
	</g>
</g>
<g id="Key">
	<g id="XMLID_1166_">
		<g id="XMLID_1191_">
			<g id="XMLID_1192_">
				<path id="XMLID_2975_" fill="#455A64" d="M396.186,334.13c-3.508,0-6.834-0.865-9.848-2.604
					c-7.206-4.161-11.339-12.869-11.339-23.891c0-19.383,12.319-41.679,28.046-50.758c8.468-4.887,16.877-5.419,23.682-1.49
					c7.207,4.161,11.34,12.869,11.34,23.891c0,19.382-12.319,41.678-28.046,50.758C405.302,332.759,400.602,334.13,396.186,334.13z
					 M416.847,266.746c-2.522,0-5.188,1.267-6.826,2.213c-11.421,6.594-21.07,24.305-21.07,38.676
					c0,5.816,1.632,10.231,4.364,11.809c3.11,1.796,7.432-0.164,9.73-1.49c11.421-6.595,21.069-24.306,21.069-38.676
					c0-5.817-1.631-10.231-4.363-11.809C418.857,266.952,417.863,266.746,416.847,266.746z"/>
			</g>
			<path id="XMLID_2986_" fill="#37474F" d="M426.61,282.38c0-10.886-6.859-14.912-6.859-14.912l0,0
				c2.732,1.578,4.363,5.992,4.363,11.809c0,14.37-9.648,32.081-21.069,38.676c-2.299,1.326-6.62,3.286-9.73,1.49
				c0,0,5.788,3.592,13.784-0.77C418.677,312.358,426.61,296.751,426.61,282.38z"/>
		</g>
		<path id="XMLID_2978_" fill="#37474F" d="M415.607,146.294c0-3.984-3.229-7.213-7.213-7.213c-3.984,0-7.213,3.229-7.213,7.213
			c0,0.006,0,0.013,0,0.019l0,0v114.708l0,0c0,1.066,0.703,2.132,2.112,2.945c2.816,1.626,7.384,1.626,10.201,0
			c1.408-0.813,2.112-1.879,2.112-2.945l0,0V146.313h-0.001C415.606,146.307,415.607,146.301,415.607,146.294z"/>
		<path id="XMLID_2974_" fill="#455A64" d="M409.846,171.927c0-2.657-1.865-5.887-4.165-7.215c-1.171-0.676-2.224-0.723-2.98-0.263
			l-0.004-0.006l-17.798,10.254l-0.431,0.256c-0.062,0.031-0.123,0.062-0.174,0.103c-0.308,0.205-0.595,0.441-0.852,0.697
			c-1.077,1.066-1.743,2.553-1.743,4.184c0,2.236,1.24,4.184,3.066,5.189c0.841,0.451,1.794,0.708,2.819,0.708
			c1.016,0,1.979-0.256,2.81-0.708c0.113-0.062,0.226-0.133,0.339-0.195l17.911-10.315l-0.003-0.004
			C409.385,174.171,409.846,173.245,409.846,171.927z"/>
		<path id="XMLID_2971_" fill="#455A64" d="M409.846,200.652c0-2.657-1.865-5.887-4.165-7.215c-1.171-0.675-2.224-0.723-2.98-0.263
			l-0.004-0.006l-20.859,11.979l-0.431,0.257c-0.062,0.031-0.123,0.062-0.175,0.103c-0.308,0.205-0.595,0.441-0.851,0.697
			c-1.077,1.066-1.743,2.553-1.743,4.184c0,2.235,1.24,4.184,3.065,5.189c0.841,0.451,1.795,0.708,2.82,0.708
			c1.016,0,1.979-0.256,2.81-0.708c0.113-0.062,0.226-0.133,0.339-0.195l20.973-12.041l-0.003-0.005
			C409.385,202.896,409.846,201.97,409.846,200.652z"/>
	</g>
</g>
</svg>
