<svg xmlns="http://www.w3.org/2000/svg" xmlns:xlink="http://www.w3.org/1999/xlink" viewBox="0 0 528.22 395.92"><defs><style>.cls-1{isolation:isolate;}.cls-141,.cls-2{fill:#fff;}.cls-3{fill:url(#linear-gradient);}.cls-4{fill:#fafafa;}.cls-5{fill:url(#linear-gradient-2);}.cls-6{fill:url(#linear-gradient-3);}.cls-7{fill:url(#linear-gradient-4);}.cls-8{fill:url(#linear-gradient-5);}.cls-9{fill:url(#linear-gradient-6);}.cls-10{fill:url(#linear-gradient-7);}.cls-11{fill:url(#linear-gradient-8);}.cls-12{fill:url(#linear-gradient-9);}.cls-13{fill:url(#linear-gradient-10);}.cls-14{fill:url(#linear-gradient-11);}.cls-15{fill:url(#linear-gradient-12);}.cls-16{fill:url(#linear-gradient-13);}.cls-17{fill:url(#linear-gradient-14);}.cls-18{fill:url(#linear-gradient-15);}.cls-19,.cls-27,.cls-29,.cls-47,.cls-48,.cls-49,.cls-50,.cls-51,.cls-95{fill:none;}.cls-19{stroke:#ad1457;stroke-width:0.33px;}.cls-19,.cls-27,.cls-29,.cls-47,.cls-48,.cls-49,.cls-50,.cls-51{stroke-linecap:round;stroke-linejoin:round;}.cls-20{fill:url(#linear-gradient-16);}.cls-21{fill:url(#linear-gradient-17);}.cls-22{fill:url(#linear-gradient-18);}.cls-23{fill:url(#linear-gradient-19);}.cls-24{fill:url(#linear-gradient-20);}.cls-25{fill:url(#linear-gradient-21);}.cls-26{fill:url(#linear-gradient-22);}.cls-27,.cls-29{stroke:#fff;}.cls-27{stroke-width:0.3px;}.cls-28{fill:url(#linear-gradient-23);}.cls-29{stroke-width:0.26px;}.cls-30{fill:url(#linear-gradient-24);}.cls-31{fill:url(#linear-gradient-25);}.cls-32{fill:url(#linear-gradient-26);}.cls-33{fill:#7adfee;}.cls-34{fill:url(#linear-gradient-27);}.cls-35{fill:url(#linear-gradient-28);}.cls-36{opacity:0.05;mix-blend-mode:multiply;}.cls-37{fill:url(#linear-gradient-29);}.cls-38{fill:url(#linear-gradient-30);}.cls-39{fill:url(#linear-gradient-31);}.cls-40{fill:url(#linear-gradient-32);}.cls-41{fill:url(#linear-gradient-33);}.cls-42{fill:url(#linear-gradient-34);}.cls-43{fill:url(#linear-gradient-35);}.cls-44{fill:url(#linear-gradient-36);}.cls-45{fill:url(#linear-gradient-37);}.cls-46{fill:url(#linear-gradient-38);}.cls-47,.cls-48,.cls-49,.cls-50,.cls-51{stroke:#283593;stroke-width:1.02px;}.cls-48{stroke-dasharray:2.97 4.96;}.cls-49{stroke-dasharray:2.94 4.9;}.cls-50{stroke-dasharray:2.9 4.83;}.cls-51{stroke-dasharray:3.2 5.34;}.cls-52{fill:url(#linear-gradient-39);}.cls-53{fill:url(#linear-gradient-40);}.cls-54{fill:url(#linear-gradient-41);}.cls-55{fill:url(#linear-gradient-42);}.cls-56{fill:url(#linear-gradient-43);}.cls-57{fill:url(#linear-gradient-44);}.cls-58{fill:url(#linear-gradient-45);}.cls-59{fill:url(#linear-gradient-46);}.cls-60{fill:url(#linear-gradient-47);}.cls-61{fill:url(#linear-gradient-48);}.cls-62{fill:url(#linear-gradient-49);}.cls-63{fill:url(#linear-gradient-50);}.cls-64{fill:url(#linear-gradient-51);}.cls-65{fill:url(#linear-gradient-52);}.cls-66{fill:url(#linear-gradient-53);}.cls-67{fill:url(#linear-gradient-54);}.cls-68{fill:url(#linear-gradient-55);}.cls-69{fill:url(#linear-gradient-56);}.cls-70{fill:url(#linear-gradient-57);}.cls-71{fill:url(#linear-gradient-58);}.cls-72{fill:url(#linear-gradient-59);}.cls-73{fill:url(#linear-gradient-60);}.cls-74{fill:url(#linear-gradient-61);}.cls-75{fill:url(#linear-gradient-62);}.cls-76{fill:url(#linear-gradient-63);}.cls-77{fill:url(#linear-gradient-64);}.cls-78{fill:url(#linear-gradient-65);}.cls-79{fill:url(#linear-gradient-66);}.cls-80{fill:url(#linear-gradient-67);}.cls-81{fill:url(#linear-gradient-68);}.cls-82{fill:url(#linear-gradient-69);}.cls-83{fill:url(#linear-gradient-70);}.cls-84{fill:url(#linear-gradient-71);}.cls-85{fill:url(#linear-gradient-72);}.cls-86{fill:url(#linear-gradient-73);}.cls-87{fill:url(#linear-gradient-74);}.cls-88{fill:url(#linear-gradient-75);}.cls-89{fill:url(#linear-gradient-76);}.cls-90{fill:url(#linear-gradient-77);}.cls-91{fill:url(#linear-gradient-78);}.cls-92{fill:url(#linear-gradient-79);}.cls-93{fill:url(#linear-gradient-80);}.cls-94{mix-blend-mode:overlay;}.cls-95{stroke:#fce4ec;stroke-miterlimit:10;stroke-width:0.51px;}.cls-96{fill:url(#linear-gradient-81);}.cls-97{fill:url(#linear-gradient-82);}.cls-98{fill:url(#linear-gradient-83);}.cls-99{fill:#ff786f;}.cls-100{fill:url(#linear-gradient-84);}.cls-101{fill:url(#linear-gradient-85);}.cls-102{fill:url(#linear-gradient-86);}.cls-103{fill:#0476f2;}.cls-104{fill:url(#linear-gradient-87);}.cls-105{fill:#ff2a94;}.cls-106{fill:url(#linear-gradient-88);}.cls-107{fill:url(#linear-gradient-89);}.cls-108{fill:url(#linear-gradient-90);}.cls-109{fill:url(#linear-gradient-91);}.cls-110{fill:url(#linear-gradient-92);}.cls-111{fill:url(#linear-gradient-93);}.cls-112{fill:url(#linear-gradient-94);}.cls-113{fill:url(#linear-gradient-95);}.cls-114{fill:url(#linear-gradient-96);}.cls-115{fill:url(#linear-gradient-97);}.cls-116{fill:url(#linear-gradient-98);}.cls-117{fill:url(#linear-gradient-99);}.cls-118{fill:url(#linear-gradient-100);}.cls-119{fill:url(#linear-gradient-101);}.cls-120{fill:url(#linear-gradient-102);}.cls-121{fill:url(#linear-gradient-103);}.cls-122{fill:url(#linear-gradient-104);}.cls-123{fill:url(#linear-gradient-105);}.cls-124{fill:url(#linear-gradient-106);}.cls-125{fill:url(#linear-gradient-107);}.cls-126{fill:url(#linear-gradient-108);}.cls-127{fill:url(#linear-gradient-109);}.cls-128{fill:url(#linear-gradient-110);}.cls-129{fill:url(#linear-gradient-111);}.cls-130{fill:url(#linear-gradient-112);}.cls-131{fill:url(#linear-gradient-113);}.cls-132{fill:url(#linear-gradient-114);}.cls-133{fill:url(#linear-gradient-115);}.cls-134{fill:url(#linear-gradient-116);}.cls-135{fill:url(#linear-gradient-117);}.cls-136{fill:url(#linear-gradient-118);}.cls-137{fill:url(#linear-gradient-119);}.cls-138{fill:url(#linear-gradient-120);}.cls-139{fill:url(#linear-gradient-121);}.cls-140{fill:url(#linear-gradient-122);}.cls-141{opacity:0.45;}</style><linearGradient id="linear-gradient" x1="-47.25" y1="47.04" x2="555.34" y2="356.54" gradientUnits="userSpaceOnUse"><stop offset="0.01" stop-color="#dbf3f7"/><stop offset="1" stop-color="#9de6f1"/></linearGradient><linearGradient id="linear-gradient-2" x1="262.32" y1="133.9" x2="262.32" y2="115.36" gradientUnits="userSpaceOnUse"><stop offset="0.01" stop-color="#0dc7f0"/><stop offset="0.99" stop-color="#023574"/></linearGradient><linearGradient id="linear-gradient-3" x1="242.66" y1="119.44" x2="242.67" y2="119.44" gradientUnits="userSpaceOnUse"><stop offset="0" stop-color="#031a5b"/><stop offset="1" stop-color="#00cff5"/></linearGradient><linearGradient id="linear-gradient-4" x1="281.97" y1="119.44" x2="281.98" y2="119.44" xlink:href="#linear-gradient-3"/><linearGradient id="linear-gradient-5" x1="262.32" y1="151.42" x2="262.32" y2="122.39" xlink:href="#linear-gradient-2"/><linearGradient id="linear-gradient-6" x1="262.32" y1="107.94" x2="262.32" y2="131.06" xlink:href="#linear-gradient-2"/><linearGradient id="linear-gradient-7" x1="262.22" y1="52.61" x2="262.48" y2="64.2" gradientUnits="userSpaceOnUse"><stop offset="0" stop-color="#ff7781"/><stop offset="0.54" stop-color="#d70d72"/><stop offset="0.99" stop-color="#98005b"/></linearGradient><linearGradient id="linear-gradient-8" x1="262.32" y1="119.92" x2="272.74" y2="119.92" gradientUnits="userSpaceOnUse"><stop offset="0.01" stop-color="#98005b"/><stop offset="0.46" stop-color="#d70d72"/><stop offset="1" stop-color="#ff7781"/></linearGradient><linearGradient id="linear-gradient-9" x1="251.9" y1="113.35" x2="262.31" y2="113.35" xlink:href="#linear-gradient-7"/><linearGradient id="linear-gradient-10" x1="262.32" y1="104.81" x2="272.74" y2="104.81" xlink:href="#linear-gradient-8"/><linearGradient id="linear-gradient-11" x1="251.9" y1="98.24" x2="262.31" y2="98.24" xlink:href="#linear-gradient-7"/><linearGradient id="linear-gradient-12" x1="262.32" y1="89.71" x2="272.74" y2="89.71" xlink:href="#linear-gradient-8"/><linearGradient id="linear-gradient-13" x1="251.9" y1="83.14" x2="262.31" y2="83.14" xlink:href="#linear-gradient-7"/><linearGradient id="linear-gradient-14" x1="262.32" y1="74.61" x2="272.74" y2="74.61" xlink:href="#linear-gradient-8"/><linearGradient id="linear-gradient-15" x1="252.14" y1="65.68" x2="262.71" y2="71.82" xlink:href="#linear-gradient-7"/><linearGradient id="linear-gradient-16" x1="139.15" y1="203.17" x2="139.15" y2="182.76" xlink:href="#linear-gradient-2"/><linearGradient id="linear-gradient-17" x1="139.15" y1="187.57" x2="139.15" y2="206.56" gradientUnits="userSpaceOnUse"><stop offset="0" stop-color="#031a5b"/><stop offset="0.15" stop-color="#031e5e"/><stop offset="0.3" stop-color="#032a69"/><stop offset="0.45" stop-color="#023e7a"/><stop offset="0.6" stop-color="#025b92"/><stop offset="0.75" stop-color="#017fb1"/><stop offset="0.9" stop-color="#01acd7"/><stop offset="1" stop-color="#00cff5"/></linearGradient><linearGradient id="linear-gradient-18" x1="119.49" y1="190.93" x2="119.51" y2="190.93" xlink:href="#linear-gradient-3"/><linearGradient id="linear-gradient-19" x1="158.8" y1="190.93" x2="158.81" y2="190.93" xlink:href="#linear-gradient-3"/><linearGradient id="linear-gradient-20" x1="139.15" y1="223.81" x2="139.15" y2="199.51" xlink:href="#linear-gradient-2"/><linearGradient id="linear-gradient-21" x1="139.15" y1="178.99" x2="139.15" y2="206.05" xlink:href="#linear-gradient-2"/><linearGradient id="linear-gradient-22" x1="68.55" y1="192.55" x2="81.59" y2="133.21" gradientTransform="matrix(-1, 0, 0, 1, 209.62, 0)" gradientUnits="userSpaceOnUse"><stop offset="0.01" stop-color="#a71d73"/><stop offset="0.48" stop-color="#fe2373"/><stop offset="1" stop-color="#ff8e6e"/></linearGradient><linearGradient id="linear-gradient-23" x1="71.15" y1="200.56" x2="94.55" y2="176.64" xlink:href="#linear-gradient-22"/><linearGradient id="linear-gradient-24" x1="70.66" y1="198.91" x2="47.39" y2="158.25" xlink:href="#linear-gradient-22"/><linearGradient id="linear-gradient-25" x1="337.71" y1="224.83" x2="337.71" y2="342.62" gradientUnits="userSpaceOnUse"><stop offset="0" stop-color="#ff8e6e"/><stop offset="0.52" stop-color="#fe2373"/><stop offset="0.99" stop-color="#a71d73"/></linearGradient><linearGradient id="linear-gradient-26" x1="243.24" y1="271.33" x2="432.17" y2="271.33" xlink:href="#linear-gradient-25"/><linearGradient id="linear-gradient-27" x1="385.46" y1="224.12" x2="312.13" y2="350.12" gradientUnits="userSpaceOnUse"><stop offset="0.01" stop-color="#dbf3f7"/><stop offset="0.99" stop-color="#50d7ea"/></linearGradient><linearGradient id="linear-gradient-28" x1="283.41" y1="313.96" x2="303.19" y2="293.16" xlink:href="#linear-gradient-27"/><linearGradient id="linear-gradient-29" x1="260.45" y1="278.29" x2="368.22" y2="278.29" xlink:href="#linear-gradient-27"/><linearGradient id="linear-gradient-30" x1="444.2" y1="249.47" x2="445.99" y2="249.47" gradientTransform="translate(-3.72 5.99) rotate(-1)" xlink:href="#linear-gradient-25"/><linearGradient id="linear-gradient-31" x1="380.35" y1="229.9" x2="441.29" y2="229.9" gradientTransform="translate(-3.72 5.99) rotate(-1)" xlink:href="#linear-gradient-2"/><linearGradient id="linear-gradient-32" x1="380.35" y1="214.77" x2="388.88" y2="214.77" gradientTransform="translate(-3.72 5.99) rotate(-1)" xlink:href="#linear-gradient-25"/><linearGradient id="linear-gradient-33" x1="272.12" y1="315.4" x2="273.97" y2="315.4" xlink:href="#linear-gradient-25"/><linearGradient id="linear-gradient-34" x1="198.45" y1="315.38" x2="267.5" y2="315.38" xlink:href="#linear-gradient-2"/><linearGradient id="linear-gradient-35" x1="198.45" y1="315.36" x2="206.98" y2="315.36" xlink:href="#linear-gradient-25"/><linearGradient id="linear-gradient-36" x1="259.25" y1="331.61" x2="261.11" y2="331.61" xlink:href="#linear-gradient-25"/><linearGradient id="linear-gradient-37" x1="187.16" y1="323.7" x2="255.14" y2="323.7" xlink:href="#linear-gradient-2"/><linearGradient id="linear-gradient-38" x1="187.16" y1="317.48" x2="195.92" y2="317.48" xlink:href="#linear-gradient-25"/><linearGradient id="linear-gradient-39" x1="217.41" y1="20.96" x2="236.68" y2="20.96" xlink:href="#linear-gradient-2"/><linearGradient id="linear-gradient-40" x1="162.03" y1="51.22" x2="216.48" y2="51.22" xlink:href="#linear-gradient-2"/><linearGradient id="linear-gradient-41" x1="216.29" y1="82.23" x2="188.67" y2="22.89" xlink:href="#linear-gradient-2"/><linearGradient id="linear-gradient-42" x1="394.83" y1="222.54" x2="355.95" y2="184.35" gradientTransform="translate(833.36 2.31) rotate(120)" xlink:href="#linear-gradient-27"/><linearGradient id="linear-gradient-43" x1="370.03" y1="280.11" x2="370.03" y2="204.07" gradientTransform="translate(833.36 2.31) rotate(120)" xlink:href="#linear-gradient-25"/><linearGradient id="linear-gradient-44" x1="399.04" y1="282.31" x2="391.02" y2="217.52" gradientTransform="translate(833.36 2.31) rotate(120)" xlink:href="#linear-gradient-27"/><linearGradient id="linear-gradient-45" x1="390.46" y1="213.43" x2="390.46" y2="328.45" gradientTransform="translate(833.36 2.31) rotate(120)" xlink:href="#linear-gradient-25"/><linearGradient id="linear-gradient-46" x1="399.44" y1="282.36" x2="399.44" y2="197.1" gradientTransform="translate(833.36 2.31) rotate(120)" xlink:href="#linear-gradient-25"/><linearGradient id="linear-gradient-47" x1="348.32" y1="211.99" x2="348.32" y2="283.19" gradientTransform="matrix(0.5, -0.87, -0.87, -0.5, 460.29, 648.94)" xlink:href="#linear-gradient-25"/><linearGradient id="linear-gradient-48" x1="387.31" y1="217.63" x2="356.1" y2="180.55" gradientTransform="translate(833.36 2.31) rotate(120)" xlink:href="#linear-gradient-25"/><linearGradient id="linear-gradient-49" x1="383.01" y1="228.03" x2="344.14" y2="189.84" gradientTransform="translate(833.36 2.31) rotate(120)" xlink:href="#linear-gradient-27"/><linearGradient id="linear-gradient-50" x1="358.21" y1="285.6" x2="358.21" y2="209.56" gradientTransform="translate(833.36 2.31) rotate(120)" xlink:href="#linear-gradient-25"/><linearGradient id="linear-gradient-51" x1="387.22" y1="287.8" x2="379.2" y2="223.01" gradientTransform="translate(833.36 2.31) rotate(120)" xlink:href="#linear-gradient-27"/><linearGradient id="linear-gradient-52" x1="378.64" y1="218.92" x2="378.64" y2="333.94" gradientTransform="translate(833.36 2.31) rotate(120)" xlink:href="#linear-gradient-25"/><linearGradient id="linear-gradient-53" x1="387.62" y1="287.85" x2="387.62" y2="202.59" gradientTransform="translate(833.36 2.31) rotate(120)" xlink:href="#linear-gradient-25"/><linearGradient id="linear-gradient-54" x1="360.14" y1="217.48" x2="360.14" y2="288.68" gradientTransform="matrix(0.5, -0.87, -0.87, -0.5, 460.29, 648.94)" xlink:href="#linear-gradient-25"/><linearGradient id="linear-gradient-55" x1="375.49" y1="223.12" x2="344.29" y2="186.04" gradientTransform="translate(833.36 2.31) rotate(120)" xlink:href="#linear-gradient-25"/><linearGradient id="linear-gradient-56" x1="376.8" y1="238.09" x2="337.93" y2="199.89" gradientTransform="translate(833.36 2.31) rotate(120)" xlink:href="#linear-gradient-27"/><linearGradient id="linear-gradient-57" x1="352" y1="295.65" x2="352" y2="219.62" gradientTransform="translate(833.36 2.31) rotate(120)" xlink:href="#linear-gradient-25"/><linearGradient id="linear-gradient-58" x1="381.01" y1="297.86" x2="372.99" y2="233.06" gradientTransform="translate(833.36 2.31) rotate(120)" xlink:href="#linear-gradient-27"/><linearGradient id="linear-gradient-59" x1="372.43" y1="228.98" x2="372.43" y2="344" gradientTransform="translate(833.36 2.31) rotate(120)" xlink:href="#linear-gradient-25"/><linearGradient id="linear-gradient-60" x1="381.41" y1="297.91" x2="381.41" y2="212.65" gradientTransform="translate(833.36 2.31) rotate(120)" xlink:href="#linear-gradient-25"/><linearGradient id="linear-gradient-61" x1="366.35" y1="227.53" x2="366.35" y2="298.73" gradientTransform="matrix(0.5, -0.87, -0.87, -0.5, 460.29, 648.94)" xlink:href="#linear-gradient-25"/><linearGradient id="linear-gradient-62" x1="369.28" y1="233.18" x2="338.08" y2="196.09" gradientTransform="translate(833.36 2.31) rotate(120)" xlink:href="#linear-gradient-25"/><linearGradient id="linear-gradient-63" x1="362.1" y1="242.63" x2="323.22" y2="204.43" gradientTransform="translate(833.36 2.31) rotate(120)" xlink:href="#linear-gradient-27"/><linearGradient id="linear-gradient-64" x1="337.29" y1="300.19" x2="337.29" y2="224.16" gradientTransform="translate(833.36 2.31) rotate(120)" xlink:href="#linear-gradient-25"/><linearGradient id="linear-gradient-65" x1="366.3" y1="302.4" x2="358.29" y2="237.6" gradientTransform="translate(833.36 2.31) rotate(120)" xlink:href="#linear-gradient-27"/><linearGradient id="linear-gradient-66" x1="357.73" y1="233.52" x2="357.73" y2="348.54" gradientTransform="translate(833.36 2.31) rotate(120)" xlink:href="#linear-gradient-25"/><linearGradient id="linear-gradient-67" x1="366.7" y1="302.45" x2="366.7" y2="217.19" gradientTransform="translate(833.36 2.31) rotate(120)" xlink:href="#linear-gradient-25"/><linearGradient id="linear-gradient-68" x1="381.05" y1="232.07" x2="381.05" y2="303.27" gradientTransform="matrix(0.5, -0.87, -0.87, -0.5, 460.29, 648.94)" xlink:href="#linear-gradient-25"/><linearGradient id="linear-gradient-69" x1="354.57" y1="237.72" x2="323.37" y2="200.63" gradientTransform="translate(833.36 2.31) rotate(120)" xlink:href="#linear-gradient-25"/><linearGradient id="linear-gradient-70" x1="614.74" y1="745.55" x2="584.85" y2="716.18" gradientTransform="matrix(0.5, 0.87, 0.87, -0.5, -625.99, 2.31)" xlink:href="#linear-gradient-27"/><linearGradient id="linear-gradient-71" x1="595.67" y1="789.82" x2="595.67" y2="731.35" gradientTransform="matrix(0.5, 0.87, 0.87, -0.5, -625.99, 2.31)" xlink:href="#linear-gradient-25"/><linearGradient id="linear-gradient-72" x1="617.98" y1="791.52" x2="611.81" y2="741.69" gradientTransform="matrix(0.5, 0.87, 0.87, -0.5, -625.99, 2.31)" xlink:href="#linear-gradient-27"/><linearGradient id="linear-gradient-73" x1="611.38" y1="738.55" x2="611.38" y2="827" gradientTransform="matrix(0.5, 0.87, 0.87, -0.5, -625.99, 2.31)" xlink:href="#linear-gradient-25"/><linearGradient id="linear-gradient-74" x1="618.28" y1="791.56" x2="618.28" y2="725.99" gradientTransform="matrix(0.5, 0.87, 0.87, -0.5, -625.99, 2.31)" xlink:href="#linear-gradient-25"/><linearGradient id="linear-gradient-75" x1="129.19" y1="737.49" x2="129.19" y2="792.24" gradientTransform="translate(-252.91 648.94) rotate(-120)" xlink:href="#linear-gradient-25"/><linearGradient id="linear-gradient-76" x1="608.96" y1="741.78" x2="584.96" y2="713.26" gradientTransform="matrix(0.5, 0.87, 0.87, -0.5, -625.99, 2.31)" xlink:href="#linear-gradient-25"/><linearGradient id="linear-gradient-77" x1="219.72" y1="176.87" x2="186.98" y2="116.34" xlink:href="#linear-gradient-2"/><linearGradient id="linear-gradient-78" x1="190.03" y1="82.09" x2="216.63" y2="204.86" xlink:href="#linear-gradient-2"/><linearGradient id="linear-gradient-79" x1="242.22" y1="153.33" x2="242.74" y2="277.13" xlink:href="#linear-gradient-2"/><linearGradient id="linear-gradient-80" x1="213.25" y1="273.79" x2="272.93" y2="154.43" xlink:href="#linear-gradient-2"/><linearGradient id="linear-gradient-81" x1="202.8" y1="82.88" x2="202.8" y2="270.63" xlink:href="#linear-gradient-27"/><linearGradient id="linear-gradient-82" x1="221.46" y1="216.89" x2="184.89" y2="76.73" xlink:href="#linear-gradient-2"/><linearGradient id="linear-gradient-83" x1="186.69" y1="134.46" x2="181.32" y2="161.31" xlink:href="#linear-gradient-27"/><linearGradient id="linear-gradient-84" x1="365.71" y1="167.24" x2="365.71" y2="143.49" xlink:href="#linear-gradient-25"/><linearGradient id="linear-gradient-85" x1="351.58" y1="146.43" x2="366.57" y2="146.43" xlink:href="#linear-gradient-2"/><linearGradient id="linear-gradient-86" x1="351.59" y1="127.8" x2="355.57" y2="127.8" xlink:href="#linear-gradient-25"/><linearGradient id="linear-gradient-87" x1="364.01" y1="150.64" x2="379.68" y2="150.64" xlink:href="#linear-gradient-2"/><linearGradient id="linear-gradient-88" x1="379.09" y1="125.43" x2="379.83" y2="125.43" xlink:href="#linear-gradient-25"/><linearGradient id="linear-gradient-89" x1="360.28" y1="146.94" x2="368.36" y2="146.94" xlink:href="#linear-gradient-2"/><linearGradient id="linear-gradient-90" x1="360.85" y1="117.84" x2="361.57" y2="117.84" xlink:href="#linear-gradient-25"/><linearGradient id="linear-gradient-91" x1="366.09" y1="142.26" x2="370.84" y2="142.26" xlink:href="#linear-gradient-2"/><linearGradient id="linear-gradient-92" x1="368" y1="120.09" x2="370.84" y2="120.09" xlink:href="#linear-gradient-25"/><linearGradient id="linear-gradient-93" x1="351.4" y1="169.85" x2="380.01" y2="169.85" xlink:href="#linear-gradient-25"/><linearGradient id="linear-gradient-94" x1="114.66" y1="223.65" x2="84.67" y2="198.35" gradientUnits="userSpaceOnUse"><stop offset="0.01" stop-color="#50d7ea"/><stop offset="0.99" stop-color="#dbf3f7"/></linearGradient><linearGradient id="linear-gradient-95" x1="94.34" y1="281.42" x2="94.34" y2="216.38" xlink:href="#linear-gradient-25"/><linearGradient id="linear-gradient-96" x1="119.41" y1="283.12" x2="115.03" y2="223.62" xlink:href="#linear-gradient-94"/><linearGradient id="linear-gradient-97" x1="113.06" y1="219.81" x2="113.06" y2="325.16" xlink:href="#linear-gradient-25"/><linearGradient id="linear-gradient-98" x1="121.27" y1="219.81" x2="121.27" y2="325.16" xlink:href="#linear-gradient-25"/><linearGradient id="linear-gradient-99" x1="625.98" y1="218.28" x2="625.98" y2="283.49" gradientTransform="matrix(-1, 0, 0, 1, 746.15, 0)" xlink:href="#linear-gradient-25"/><linearGradient id="linear-gradient-100" x1="110.17" y1="223.66" x2="81.59" y2="189.69" xlink:href="#linear-gradient-25"/><linearGradient id="linear-gradient-101" x1="102.82" y1="229.31" x2="74.24" y2="202.6" xlink:href="#linear-gradient-94"/><linearGradient id="linear-gradient-102" x1="84.21" y1="287.44" x2="84.21" y2="222.47" xlink:href="#linear-gradient-2"/><linearGradient id="linear-gradient-103" x1="110.21" y1="289.08" x2="103.96" y2="228.8" xlink:href="#linear-gradient-94"/><linearGradient id="linear-gradient-104" x1="102.93" y1="221.81" x2="102.93" y2="297.5" xlink:href="#linear-gradient-2"/><linearGradient id="linear-gradient-105" x1="111.15" y1="289.27" x2="111.15" y2="213.16" xlink:href="#linear-gradient-2"/><linearGradient id="linear-gradient-106" x1="110.05" y1="217.82" x2="110.05" y2="287.25" xlink:href="#linear-gradient-2"/><linearGradient id="linear-gradient-107" x1="100.05" y1="229.52" x2="71.47" y2="195.55" xlink:href="#linear-gradient-2"/><linearGradient id="linear-gradient-108" x1="96.81" y1="239.87" x2="61.21" y2="204.89" xlink:href="#linear-gradient-94"/><linearGradient id="linear-gradient-109" x1="74.09" y1="292.59" x2="74.09" y2="222.95" xlink:href="#linear-gradient-25"/><linearGradient id="linear-gradient-110" x1="100.66" y1="294.61" x2="93.32" y2="235.27" xlink:href="#linear-gradient-94"/><linearGradient id="linear-gradient-111" x1="92.81" y1="231.53" x2="92.81" y2="336.87" xlink:href="#linear-gradient-25"/><linearGradient id="linear-gradient-112" x1="101.03" y1="294.66" x2="101.03" y2="216.57" xlink:href="#linear-gradient-25"/><linearGradient id="linear-gradient-113" x1="646.23" y1="229.99" x2="646.23" y2="295.2" gradientTransform="matrix(-1, 0, 0, 1, 746.15, 0)" xlink:href="#linear-gradient-25"/><linearGradient id="linear-gradient-114" x1="89.92" y1="235.38" x2="61.34" y2="201.41" xlink:href="#linear-gradient-25"/><linearGradient id="linear-gradient-115" x1="147.81" y1="281.21" x2="147.81" y2="255.04" xlink:href="#linear-gradient-25"/><linearGradient id="linear-gradient-116" x1="163.78" y1="291.19" x2="163.78" y2="258.92" xlink:href="#linear-gradient-25"/><linearGradient id="linear-gradient-117" x1="163.78" y1="274.14" x2="163.78" y2="254.19" xlink:href="#linear-gradient-25"/><linearGradient id="linear-gradient-118" x1="163.78" y1="272.94" x2="163.78" y2="249.24" xlink:href="#linear-gradient-25"/><linearGradient id="linear-gradient-119" x1="172.92" y1="273.26" x2="159.8" y2="259.1" xlink:href="#linear-gradient-2"/><linearGradient id="linear-gradient-120" x1="153.53" y1="263.6" x2="174.76" y2="262.83" xlink:href="#linear-gradient-2"/><linearGradient id="linear-gradient-121" x1="153.57" y1="264.77" x2="174.8" y2="264" xlink:href="#linear-gradient-2"/><linearGradient id="linear-gradient-122" x1="153.5" y1="262.74" x2="174.73" y2="261.97" xlink:href="#linear-gradient-2"/></defs><title>Product_landing</title><g class="cls-1"><g id="BACKGROUND"><rect class="cls-2" x="-110.75" y="-52.04" width="750" height="500"/><path class="cls-3" d="M104.58,52.71C145.45,18.65,180.7,54,220.95,30.19S290-26.59,315,36.27c13.32,33.49,25.62,78.69,96,85,54.83,4.88,99.38,15.19,110.71,44.88,16.29,42.68-39.83,44.61-8.09,109.82,19.83,40.73-112.67,2.19-120.07,63.16-8.76,72.21-131.08,71.92-185,20s-66.87-40.83-119.05-34.48c-53.35,6.49-139.69-84.45-40.17-144.5S72,79.85,104.58,52.71Z"/></g><g id="OBJECTS"><path class="cls-4" d="M276.3,110.33c-7.77-4.49-20.34-4.48-28.06,0s-7.68,11.76.09,16.25,20.34,4.49,28.06,0,7.68-11.77-.09-16.26"/><path class="cls-5" d="M273.64,118.45c-6.29-3.63-16.47-3.63-22.72,0s-6.22,9.52.07,13.15,16.47,3.64,22.72,0,6.22-9.53-.07-13.16"/><path class="cls-6" d="M242.66,119.41v.06s0,0,0-.06Z"/><path class="cls-7" d="M282,119.41s0,0,0,.06v-.06Z"/><path class="cls-8" d="M276.2,126.59a30.32,30.32,0,0,1-27.76,0c-3.3-1.9-5.19-4.31-5.7-6.79L248.08,146h0a8.41,8.41,0,0,0,4,4.21c5.69,3.24,14.88,3.25,20.53,0a8.27,8.27,0,0,0,3.93-4.21h0l5.35-26.22C281.39,122.28,279.5,124.68,276.2,126.59Z"/><path class="cls-9" d="M276.3,110.33c-7.77-4.49-20.34-4.48-28.06,0s-7.68,11.76.09,16.25,20.34,4.49,28.06,0S284.07,114.82,276.3,110.33Zm-1.49,15c-6.85,3.77-18,3.77-24.91,0s-6.94-9.88-.08-13.66,18-3.78,24.91,0S281.67,121.52,274.81,125.3Z"/><path class="cls-10" d="M265,57.31c0-3-1.22-4.6-2.73-4.6s-2.73,1.56-2.73,4.6,2.73,6.83,2.73,6.83S265,60.35,265,57.31Z"/><path class="cls-11" d="M267.18,117.5c2.71-1.38,4.65-1,5.33.35s-.16,3.14-2.87,4.51-7.32.66-7.32.66S264.47,118.87,267.18,117.5Z"/><path class="cls-12" d="M257.46,110.93c-2.71-1.37-4.65-1-5.33.35s.16,3.14,2.87,4.51,7.32.66,7.32.66S260.17,112.3,257.46,110.93Z"/><path class="cls-13" d="M267.18,102.39c2.71-1.37,4.65-1,5.33.35s-.16,3.14-2.87,4.51-7.32.66-7.32.66S264.47,103.77,267.18,102.39Z"/><path class="cls-14" d="M257.46,95.82c-2.71-1.37-4.65-1-5.33.35s.16,3.14,2.87,4.51,7.32.66,7.32.66S260.17,97.2,257.46,95.82Z"/><path class="cls-15" d="M267.18,87.29c2.71-1.37,4.65-1,5.33.35s-.16,3.14-2.87,4.51-7.32.66-7.32.66S264.47,88.66,267.18,87.29Z"/><path class="cls-16" d="M257.46,80.72c-2.71-1.37-4.65-1-5.33.35s.16,3.14,2.87,4.51,7.32.66,7.32.66S260.17,82.09,257.46,80.72Z"/><path class="cls-17" d="M267.18,72.18c2.71-1.37,4.65-1,5.33.35s-.16,3.14-2.87,4.51-7.32.66-7.32.66S264.47,73.56,267.18,72.18Z"/><path class="cls-18" d="M257.46,65.61c-2.71-1.37-4.65-1-5.33.35s.16,3.14,2.87,4.51,7.32.66,7.32.66S260.17,67,257.46,65.61Z"/><line class="cls-19" x1="262.32" y1="58.08" x2="262.32" y2="123.02"/><line class="cls-19" x1="268.86" y1="119.53" x2="262.37" y2="122.92"/><line class="cls-19" x1="268.86" y1="104.37" x2="262.37" y2="107.77"/><line class="cls-19" x1="268.86" y1="89.22" x2="262.37" y2="92.61"/><line class="cls-19" x1="268.86" y1="74.06" x2="262.37" y2="77.46"/><line class="cls-19" x1="255.83" y1="113.24" x2="262.31" y2="116.63"/><line class="cls-19" x1="255.83" y1="98.08" x2="262.31" y2="101.48"/><line class="cls-19" x1="255.83" y1="82.93" x2="262.31" y2="86.32"/><line class="cls-19" x1="255.83" y1="67.77" x2="262.31" y2="71.17"/><path class="cls-20" d="M153.14,181.83c-7.77-4.49-20.34-4.48-28.06,0s-7.68,11.76.09,16.25,20.34,4.49,28.06,0,7.68-11.77-.09-16.26"/><path class="cls-21" d="M150.48,189.94c-6.29-3.63-16.47-3.63-22.72,0s-6.22,9.52.07,13.16,16.47,3.64,22.72,0,6.22-9.53-.07-13.16"/><path class="cls-22" d="M119.49,190.91V191s0,0,0-.06Z"/><path class="cls-23" d="M158.81,190.91s0,0,0,.06v-.06Z"/><path class="cls-24" d="M153,198.09a30.32,30.32,0,0,1-27.76,0c-3.3-1.9-5.19-4.31-5.7-6.79l5.35,26.22h0a8.41,8.41,0,0,0,4,4.21c5.69,3.24,14.88,3.25,20.53,0a8.27,8.27,0,0,0,3.93-4.21h0l5.35-26.22C158.22,193.77,156.33,196.18,153,198.09Z"/><path class="cls-25" d="M153.14,181.83c-7.77-4.49-20.34-4.48-28.06,0s-7.68,11.76.09,16.25,20.34,4.49,28.06,0S160.91,186.32,153.14,181.83Zm-1.49,15c-6.85,3.77-18,3.77-24.91,0s-6.94-9.88-.08-13.66,18-3.78,24.91,0S158.5,193,151.65,196.79Z"/><path class="cls-26" d="M139.91,192.16s19-26.65,14.37-31.08-13.46,1.44-9.5-7c3.72-7.94,4.48-13.68.86-13.85s-6,10.61-9.1,1.43-11.37-11.39-12.65-8.53c-3.41,7.64,4.84,13.18,4.82,17.93s-13.51-3.49-13.66,1.22c-.3,9.7,17,8.38,15.56,13.18s-15.75-3.11-15.08,4C116.06,175.18,132.67,181.71,139.91,192.16Z"/><path class="cls-27" d="M128.48,138.07s17.67,23.17,11.43,54.09"/><path class="cls-27" d="M141.24,177.91s-10.56-5.49-18.82-7.15"/><path class="cls-27" d="M148.76,164a23.12,23.12,0,0,0-8,6.59"/><path class="cls-27" d="M118.59,154s11,1.47,20.21,6.55"/><path class="cls-27" d="M144.37,146.26a27.07,27.07,0,0,0-7.29,8.76"/><path class="cls-28" d="M139.7,199.62s-.32-22.35-4.83-22.65-7.07,6.66-8.35.48c-1.21-5.81-3.18-9.16-5.31-7.66s1,8.21-4.59,4.74-11.25-1-10.78,1.06c1.26,5.51,8.28,4.81,10.26,7.32s-9.69,4.58-7.27,6.62c5,4.23,13.18-3,14.39.11s-10.28,5.27-6.91,8.73c2,2.09,9.4-.46,16.49.71A39.33,39.33,0,0,0,139.7,199.62Z"/><path class="cls-29" d="M107.83,175.08s20.75,1.41,31.32,23.65"/><path class="cls-29" d="M133.78,182.15a34.43,34.43,0,0,1,1.25,9.53"/><path class="cls-29" d="M119.56,196.53s10.63-4.53,17.92-1"/><path class="cls-29" d="M113.64,188s8-3.78,15.06-3.33"/><path class="cls-29" d="M122.57,172.11a35.21,35.21,0,0,0,0,8"/><path class="cls-30" d="M139.2,199.62s-9-24.47-4.23-26.67,10.49,4.28,9.29-3c-1.12-6.83-.38-11.3,2.57-10.57s2.32,9.37,7,3.23,11.83-5.81,12.18-3.37c.94,6.52-7,8.71-8.1,12.27s11.68.61,10.69,4.16c-2,7.33-15.62,2.23-15.62,6.16s13.4,1.42,11.18,6.61c-1.12,2.61-7.12,5.77-13.37,8.79C146.94,199.1,143.48,199.5,139.2,199.62Z"/><path class="cls-29" d="M163,160S141,170.81,139.48,198.73"/><path class="cls-29" d="M159.77,187.22s-12.88-1.42-19.69,6.14"/><path class="cls-29" d="M137.47,174.56s3.47,1.32,5.13,8.89"/><path class="cls-29" d="M162.67,176.27s-10.86-1-16.83.72"/><path class="cls-29" d="M146.73,163.14s2.94,4.09,3,8.23"/><path class="cls-31" d="M243.85,289.37l123.76-71.45a1.22,1.22,0,0,1,1.22,0l62.72,36.18a1.22,1.22,0,0,1,0,2.12L307.78,327.69a1.22,1.22,0,0,1-1.22,0l-62.7-36.2A1.22,1.22,0,0,1,243.85,289.37Z"/><path class="cls-32" d="M243.85,287.9l123.76-71.45a1.22,1.22,0,0,1,1.22,0l62.72,36.18a1.22,1.22,0,0,1,0,2.12L307.78,326.22a1.22,1.22,0,0,1-1.22,0L243.85,290A1.22,1.22,0,0,1,243.85,287.9Z"/><polygon class="cls-33" points="246.11 288.96 368.23 218.45 429.3 253.68 307.17 324.21 246.11 288.96"/><path class="cls-34" d="M429.21,253.77l.1-.08-61.07-35.23c-30.86,2.77-61.1,35.36-61.1,35.36L368.22,289C368.43,288.92,399.94,256.72,429.21,253.77Z"/><path class="cls-33" d="M372.05,226.15c-21.24,2.66-42.46,20.43-51.58,29l-2.24-1.29c9.12-8.55,30.35-26.35,51.61-29Z"/><path class="cls-33" d="M392.9,238.17c-21.24,2.66-42.46,20.43-51.58,29l-2.24-1.29c9.12-8.55,30.35-26.35,51.61-29Z"/><path class="cls-33" d="M398.43,241.3c-21.24,2.66-42.46,20.43-51.58,29L344.6,269c9.12-8.55,30.35-26.35,51.61-29Z"/><path class="cls-33" d="M323.34,256.78l13,7.41a148.56,148.56,0,0,1,24.77-18.88l-13-7.41A148.58,148.58,0,0,0,323.34,256.78Z"/><path class="cls-33" d="M387.88,235.18,375,227.77c-8.27,1-16.54,4.37-24.1,8.56l13,7.41C371.39,239.56,379.63,236.23,387.88,235.18Z"/><path class="cls-35" d="M368.12,289l.1-.08-61.07-35.23c-30.86,2.77-61.1,35.36-61.1,35.36l61.09,35.14.63-.11C310.33,321.41,338.85,292,368.12,289Z"/><path class="cls-36" d="M320,310.13c6-4.68,13.66-8.67,21.12-11.88,8.24-4.54,17.35-8.14,26.55-9.15l.56-.14-61.07-35.23c-17.68,1.58-35.14,13-46.84,22.38C272.92,283.32,319.81,310.16,320,310.13Z"/><path class="cls-37" d="M368.22,289l-61.07-35.23c-31.22.47-46.69,13.9-46.69,13.9s60.86,35.26,61.07,35.23A80.43,80.43,0,0,1,368.22,289Z"/><polygon class="cls-4" points="446.54 248.31 439.79 246.62 439.98 244.43 441.77 243.62 446.54 248.31"/><path class="cls-38" d="M446.54,248.31l-1.32-1.3a2.06,2.06,0,0,0-.48.87Z"/><path class="cls-39" d="M435.85,240.34h0L382.93,211a1.79,1.79,0,0,0-1.74,3.13l53.59,29.71,5,2.78a5.72,5.72,0,0,1,2-3Z"/><path class="cls-4" d="M390.25,215.06l-5.9-3.27a1.79,1.79,0,1,0-1.74,3.13l5.68,3.15A5.71,5.71,0,0,1,390.25,215.06Z"/><path class="cls-40" d="M388.82,214.27l-5.9-3.27a1.79,1.79,0,0,0-1.74,3.13l5.68,3.15A5.72,5.72,0,0,1,388.82,214.27Z"/><polygon class="cls-4" points="273.97 315.4 267.25 317.18 266.37 315.4 267.52 313.61 273.97 315.4"/><path class="cls-41" d="M274,315.4l-1.79-.5a2.05,2.05,0,0,0,0,1Z"/><path class="cls-42" d="M267.5,313.6h-5.94l-61.31,0a1.79,1.79,0,1,0,0,3.58l66,0h1A5.71,5.71,0,0,1,267.5,313.6Z"/><path class="cls-4" d="M208.61,313.57h-6.74a1.79,1.79,0,0,0,0,3.58h6.49A5.72,5.72,0,0,1,208.61,313.57Z"/><path class="cls-43" d="M207,313.57h-6.74a1.79,1.79,0,1,0,0,3.58h6.49A5.72,5.72,0,0,1,207,313.57Z"/><polygon class="cls-4" points="261.11 331.98 254.16 332.35 253.58 330.43 255.17 328.9 261.11 331.98"/><path class="cls-44" d="M261.11,332l-1.65-.85a2.05,2.05,0,0,0-.2,1Z"/><path class="cls-45" d="M255.14,328.9l-3.48-.73-62.34-13.09a1.79,1.79,0,0,0-.74,3.5L247.81,331h0L253,332.1l.23,0h0l1,.2A5.71,5.71,0,0,1,255.14,328.9Z"/><path class="cls-4" d="M197.52,316.8l-6.6-1.39a1.79,1.79,0,1,0-.74,3.5l6.35,1.33A5.72,5.72,0,0,1,197.52,316.8Z"/><path class="cls-46" d="M195.92,316.47l-6.6-1.39a1.79,1.79,0,0,0-.74,3.5l6.35,1.33A5.72,5.72,0,0,1,195.92,316.47Z"/><line class="cls-47" x1="221.99" y1="41.64" x2="223.32" y2="40.88"/><line class="cls-48" x1="227.61" y1="38.4" x2="280.4" y2="7.92"/><polyline class="cls-47" points="282.55 6.68 283.87 5.91 283.88 7.45"/><polyline class="cls-49" points="283.9 12.35 284.13 77.46 284.13 96.09"/><polyline class="cls-47" points="284.13 98.53 284.13 100.07 285.46 100.83"/><line class="cls-50" x1="289.65" y1="103.23" x2="341.18" y2="132.76"/><polyline class="cls-47" points="343.27 133.96 344.6 134.72 343.28 135.5"/><line class="cls-51" x1="338.68" y1="138.2" x2="282.07" y2="171.43"/><line class="cls-47" x1="279.77" y1="172.78" x2="278.45" y2="173.56"/><path class="cls-52" d="M225.32,21.8l.86-.39.3-.13.79-.3.2-.07q.49-.17,1-.3l.14,0a14.47,14.47,0,0,1,1.49-.32h0c.41-.06.81-.1,1.2-.12h.24c.35,0,.7,0,1,0l.18,0c.28,0,.55.05.81.1l.25,0c.31.06.61.12.9.21h0c.28.08.55.18.81.29l.23.1q.34.15.66.32l.22.11-4-2.34-.1-.06-.12-.06q-.33-.18-.67-.33l-.12-.06-.11,0c-.27-.11-.54-.2-.81-.29h0c-.29-.08-.59-.15-.9-.21l-.1,0-.14,0q-.4-.06-.82-.1l-.13,0h0c-.34,0-.69,0-1,0h-.24c-.4,0-.8.06-1.2.12h0a14.47,14.47,0,0,0-1.49.32l-.09,0-.05,0q-.48.13-1,.3l-.19.07-.8.3-.11,0-.2.09-.86.39-.33.16c-.38.19-.76.39-1.14.61a27.07,27.07,0,0,0-2.42,1.58l4,2.34a27.09,27.09,0,0,1,2.42-1.58c.38-.22.76-.42,1.14-.61Z"/><path class="cls-53" d="M205.76,16.7l.28-.12.84-.32.16-.06c.33-.11.66-.21,1-.3l.14,0a14.8,14.8,0,0,1,1.55-.33h0c.41-.06.82-.1,1.22-.12h.24c.36,0,.72,0,1.07,0l.18,0q.42,0,.83.1l.26,0c.31.06.62.13.92.21h0c.29.08.57.19.84.3l.24.1q.35.15.69.34l.22.11-4-2.34-.1-.06-.12-.06q-.33-.18-.69-.34l-.13-.06-.11,0c-.27-.11-.55-.21-.84-.29h0c-.3-.09-.61-.15-.92-.21l-.11,0-.15,0q-.41-.06-.83-.1l-.13,0h0c-.35,0-.71,0-1.07,0h-.25c-.4,0-.8.06-1.22.12h0a14.83,14.83,0,0,0-1.55.33l-.09,0-.05,0c-.33.09-.65.19-1,.3l-.17.06-.84.32-.09,0-.19.09-.92.42-.33.16c-.39.2-.79.41-1.19.64-.6.34-1.18.72-1.77,1.12l-.56.4c-.39.28-.78.57-1.17.88l-.63.52c-.35.3-.7.6-1,.92l-.62.58-.39.37c-.14.13-.26.28-.4.42q-.63.64-1.23,1.31c-.13.14-.27.27-.39.42l-.31.38-.72.88c-.16.19-.32.38-.47.57l-.36.49-.51.7-.35.48c-.19.28-.38.56-.56.84l-.36.54-.15.22q-.49.77-1,1.56l-.06.11-.18.33c-.21.37-.43.75-.63,1.13l-.27.53-.28.56-.24.48c-.21.43-.41.87-.6,1.31l-.1.23,0,.06q-.36.83-.68,1.66l-.11.31-.22.61c-.1.28-.2.55-.3.83s-.13.43-.2.65-.16.51-.23.76-.1.31-.14.47-.14.57-.21.85-.16.63-.23.94c0,.11-.06.22-.08.33s-.07.45-.12.68c-.09.49-.18,1-.25,1.48,0,.14-.05.27-.07.41,0,.31-.06.62-.09.92s0,.44-.06.65c-.05.69-.08,1.37-.08,2,0,.24,0,.47,0,.71l-.87.33-.43.2-.38.17c-.46.22-.93.45-1.4.73s-1,.62-1.51,1l-.48.35c-.33.24-.67.49-1,.75l-.54.45c-.3.25-.6.51-.89.78l-.54.5-.33.31-.34.36q-.54.55-1.05,1.12l-.34.36-.26.32-.62.75-.4.49-.31.42-.44.59-.3.41c-.16.23-.32.48-.48.72l-.31.46-.13.19q-.42.66-.82,1.34l0,.09-.15.27c-.18.32-.37.64-.54,1l-.23.45-.24.47-.21.42c-.18.37-.34.74-.51,1.11l-.09.21,0,.06q-.31.71-.58,1.42L164,67l-.19.52c-.09.24-.18.48-.26.71s-.11.37-.17.55-.14.43-.2.65-.09.27-.12.41-.12.48-.18.72-.14.54-.2.81c0,.09,0,.19-.07.28s-.06.39-.1.58c-.08.42-.16.84-.22,1.26,0,.12,0,.23-.06.35s-.05.52-.08.79,0,.37-.05.56c0,.59-.07,1.17-.07,1.75a15,15,0,0,0,1.25,6.31,8.4,8.4,0,0,0,3.36,3.82l4,2.34c-2.83-1.65-4.59-5.15-4.61-10.13,0-.57,0-1.16.07-1.75,0-.19,0-.37.06-.56q.06-.56.14-1.13c.06-.42.14-.84.22-1.26s.1-.57.17-.86.13-.54.2-.81.19-.75.3-1.12c.06-.22.13-.44.2-.66q.2-.63.42-1.26l.19-.52c.22-.58.45-1.16.7-1.73l.09-.21c.23-.51.47-1,.72-1.53l.24-.47q.37-.72.77-1.42l.15-.27c.32-.55.65-1.09,1-1.62l.31-.46q.38-.57.78-1.13l.44-.6c.23-.31.47-.61.71-.91l.62-.75.6-.68q.52-.58,1.05-1.12l.67-.67.53-.5q.44-.4.89-.78l.54-.45c.33-.26.66-.51,1-.75l.48-.35c.5-.34,1-.66,1.51-1s.94-.51,1.4-.73l.39-.17c.44-.19.87-.38,1.3-.53,0-.24,0-.47,0-.71,0-.67,0-1.36.08-2,0-.22,0-.44.06-.66q.06-.66.16-1.33c.07-.49.16-1,.25-1.48.06-.34.12-.67.2-1s.15-.63.23-.95.22-.88.35-1.32c.07-.25.15-.51.23-.76q.23-.74.5-1.48l.22-.61c.26-.68.53-1.36.82-2l.11-.23c.27-.6.55-1.2.84-1.79l.28-.56q.43-.84.9-1.66l.18-.32c.37-.64.76-1.27,1.16-1.89l.36-.53q.45-.67.92-1.32l.51-.7c.27-.36.55-.72.83-1.07l.72-.88c.23-.27.47-.53.7-.8q.61-.68,1.23-1.31c.26-.27.52-.53.79-.79l.63-.58c.34-.31.69-.62,1-.91l.63-.52c.38-.31.77-.59,1.16-.88l.56-.41c.58-.4,1.17-.78,1.77-1.12.4-.23.8-.44,1.19-.64l.33-.16Z"/><path class="cls-54" d="M203.32,17.92c8.84-5.11,16.26-2.24,18.11,6.24a27.09,27.09,0,0,1,2.42-1.58c10-5.75,18.05-1.13,18.09,10.31,0,10.7-7,23.57-16,29.9l-44,25.51c-8.73,5-15.82,1-15.85-9S173.08,57,181.81,52a18.34,18.34,0,0,1,3.08-1.43c0-.24,0-.47,0-.71C184.84,38.12,193.1,23.82,203.32,17.92Z"/><path class="cls-55" d="M489.13,208.5,450,231.11v11.75l40.19-23.21a1,1,0,0,0,.51-.89v-9.39A1,1,0,0,0,489.13,208.5Z"/><path class="cls-56" d="M450,231.11l.5-.29.66.38,39.17-22.62-61.06-35.25h0a1,1,0,0,0-1.14-.09h0L388.9,195.86h0Z"/><polygon class="cls-57" points="451.17 240.78 451.17 240.78 451.17 231.81 390.11 196.56 390.11 208.31 449.96 242.86 451.17 240.78"/><polygon class="cls-58" points="449.96 231.11 449.96 232.5 388.9 197.25 388.9 195.86 449.96 231.11"/><polygon class="cls-59" points="449.96 241.47 449.96 242.86 388.9 207.62 388.9 206.22 449.96 241.47"/><polygon class="cls-60" points="449.96 241.47 451.17 240.78 390.11 205.52 388.9 206.22 449.96 241.47"/><path class="cls-61" d="M450,241.48v1.39l39.42-22.76h0l.77-.45a1,1,0,0,0,.51-.89v-9.39a1,1,0,0,0-.08-.34h0l0,0a1,1,0,0,0-.14-.23,1.11,1.11,0,0,0-.51-.35l-.2,0a1,1,0,0,0-.25,0h-.09v0a1,1,0,0,0-.25.08L450,231.11v1.39l39.42-22.76v9Z"/><path class="cls-62" d="M490.29,195.52l-39.17,22.62v11.75l40.19-23.21a1,1,0,0,0,.51-.89V196.4A1,1,0,0,0,490.29,195.52Z"/><path class="cls-63" d="M451.12,218.13l.5-.29.66.38,39.17-22.62-61.06-35.25h0a1,1,0,0,0-1.14-.09h0l-39.17,22.62h0Z"/><polygon class="cls-64" points="452.32 227.8 452.33 227.8 452.33 218.83 391.26 183.58 391.26 195.33 451.12 229.88 452.32 227.8"/><polygon class="cls-65" points="451.12 218.13 451.12 219.52 390.06 184.27 390.06 182.88 451.12 218.13"/><polygon class="cls-66" points="451.12 228.49 451.12 229.88 390.06 194.63 390.06 193.24 451.12 228.49"/><polygon class="cls-67" points="451.12 228.49 452.32 227.8 391.26 192.54 390.06 193.24 451.12 228.49"/><path class="cls-68" d="M451.12,228.49v1.39l39.42-22.76h0l.77-.45a1,1,0,0,0,.51-.89V196.4a1,1,0,0,0-.08-.34h0l0,0a1,1,0,0,0-.14-.23,1.11,1.11,0,0,0-.5-.35l-.2,0a.94.94,0,0,0-.25,0h-.09v0a1,1,0,0,0-.25.08l-39.17,22.62v1.39l39.42-22.76v9Z"/><path class="cls-69" d="M484.69,185.11l-39.17,22.62v11.75l40.19-23.21a1,1,0,0,0,.51-.89V186A1,1,0,0,0,484.69,185.11Z"/><path class="cls-70" d="M445.51,207.73l.5-.29.66.38,39.17-22.62L424.78,150h0a1,1,0,0,0-1.14-.09h0l-39.17,22.62h0Z"/><polygon class="cls-71" points="446.72 217.39 446.72 217.4 446.72 208.43 385.66 173.17 385.66 184.93 445.51 219.48 446.72 217.39"/><polygon class="cls-72" points="445.51 207.73 445.51 209.12 384.45 173.87 384.46 172.48 445.51 207.73"/><polygon class="cls-73" points="445.52 218.09 445.52 219.48 384.45 184.23 384.46 182.84 445.52 218.09"/><polygon class="cls-74" points="445.52 218.09 446.72 217.39 385.66 182.14 384.46 182.84 445.52 218.09"/><path class="cls-75" d="M445.52,218.09v1.39l39.42-22.76h0l.77-.45a1,1,0,0,0,.51-.89V186a1,1,0,0,0-.08-.34h0l0,0a1,1,0,0,0-.14-.23,1.11,1.11,0,0,0-.5-.35l-.2,0a1,1,0,0,0-.25,0h-.09v0a1,1,0,0,0-.25.08l-39.17,22.62v1.39l39.42-22.76v9Z"/><path class="cls-76" d="M488.11,170.11l-39.17,22.62v11.75l40.19-23.21a1,1,0,0,0,.51-.89V171A1,1,0,0,0,488.11,170.11Z"/><path class="cls-77" d="M448.93,192.72l.5-.29.66.38,39.17-22.62L428.2,134.95h0a1,1,0,0,0-1.14-.09h0l-39.17,22.62h0Z"/><polygon class="cls-78" points="450.14 202.39 450.14 202.39 450.14 193.42 389.08 158.17 389.08 169.92 448.94 204.47 450.14 202.39"/><polygon class="cls-79" points="448.94 192.72 448.94 194.11 387.87 158.86 387.88 157.47 448.94 192.72"/><polygon class="cls-80" points="448.94 203.08 448.94 204.47 387.87 169.22 387.88 167.83 448.94 203.08"/><polygon class="cls-81" points="448.94 203.08 450.14 202.39 389.08 167.13 387.88 167.83 448.94 203.08"/><path class="cls-82" d="M448.93,203.08v1.39l39.42-22.76h0l.77-.45a1,1,0,0,0,.51-.89V171a1,1,0,0,0-.08-.34h0l0,0a1,1,0,0,0-.14-.23,1.11,1.11,0,0,0-.5-.35l-.2,0a.94.94,0,0,0-.25,0h-.09v0a1,1,0,0,0-.25.08l-39.17,22.62v1.39l39.42-22.76v9Z"/><path class="cls-83" d="M291.73,143.09l30.12,17.39v9l-30.91-17.85a.79.79,0,0,1-.39-.68v-7.22A.79.79,0,0,1,291.73,143.09Z"/><path class="cls-84" d="M321.85,160.48l-.38-.22-.5.29-30.12-17.39,47-27.11h0a.78.78,0,0,1,.88-.07h0l30.12,17.39h0Z"/><polygon class="cls-85" points="320.93 167.91 320.92 167.92 320.92 161.02 367.88 133.9 367.88 142.94 321.85 169.52 320.93 167.91"/><polygon class="cls-86" points="321.85 160.48 321.85 161.55 368.81 134.44 368.81 133.37 321.85 160.48"/><polygon class="cls-87" points="321.85 168.45 321.85 169.51 368.81 142.41 368.81 141.34 321.85 168.45"/><polygon class="cls-88" points="321.85 168.45 320.93 167.91 367.88 140.8 368.81 141.34 321.85 168.45"/><path class="cls-89" d="M321.85,168.45v1.07L291.54,152h0l-.59-.34a.79.79,0,0,1-.39-.68v-7.22a.75.75,0,0,1,.06-.26h0l0,0a.74.74,0,0,1,.11-.17l.09-.1a.76.76,0,0,1,.15-.1l.15-.07.16,0h.26v0a.74.74,0,0,1,.19.06l30.12,17.39v1.07L291.54,144v6.9Z"/><g class="cls-1"><path class="cls-90" d="M262,66.26a2.35,2.35,0,0,1,.48-.1h0a1.73,1.73,0,0,1,.47,0h0a1.42,1.42,0,0,1,.42.16l-2.16-1.26h0l-.15-.07-.15-.05-.1,0h-.06l-.18,0h-.41l-.26.05-.11,0-.1,0-.13,0a3.53,3.53,0,0,0-.41.2L144,131.78a4.46,4.46,0,0,0-.54.38l-.17.15-.25.22-.11.12-.1.1-.11.12-.24.29-.08.11,0,.05-.08.1-.17.25-.15.25v0l-.11.2-.13.25-.1.23h0l-.11.26-.1.27,0,.14,0,.06,0,.1q0,.17-.08.33c0,.07,0,.13,0,.2l0,.11,0,.1a4.31,4.31,0,0,0,0,.57l.24,85.75a2,2,0,0,0,.84,1.86l2.16,1.26a2,2,0,0,1-.84-1.86L143.27,138a4.4,4.4,0,0,1,.05-.66l0-.1a5.51,5.51,0,0,1,.15-.63l0-.06a6.47,6.47,0,0,1,.25-.68h0a7,7,0,0,1,.34-.68v0a7,7,0,0,1,.41-.62l0-.05A6.51,6.51,0,0,1,145,134l.1-.1c.12-.12.24-.23.37-.34l.17-.15a4.48,4.48,0,0,1,.54-.38l115.17-66.5a3.33,3.33,0,0,1,.54-.25Z"/><path class="cls-91" d="M261.33,66.55c1.61-.93,2.91-.18,2.92,1.65l.24,85.75a6.37,6.37,0,0,1-2.9,5l-115.17,66.5c-1.6.92-2.9.19-2.91-1.66L143.27,138a6.38,6.38,0,0,1,2.89-5Z"/></g><g class="cls-1"><path class="cls-92" d="M341.23,206.1h0v-2.5a1.43,1.43,0,0,1-.07.43v0a1.73,1.73,0,0,1-.2.39l0,.06a2.34,2.34,0,0,1-.32.35l-.22.17a3.3,3.3,0,0,1-.35.25L224.85,271.78a4.69,4.69,0,0,1-.84.36l-.32.1-.36.09-.52.09h-.1c-.23,0-.46,0-.7,0h-.1c-.23,0-.46,0-.68,0h-.1a6.44,6.44,0,0,1-.65-.11l-.12,0a5.5,5.5,0,0,1-.6-.18l-.05,0a4.41,4.41,0,0,1-.63-.3L144.92,228.7a2.34,2.34,0,0,1-1.11-1.21,1.42,1.42,0,0,1-.07-.45h0v2.5a2,2,0,0,0,1.19,1.66l74.14,43.08a4.41,4.41,0,0,0,.62.29h0l.05,0,.43.14.18,0,.12,0,.13,0,.4.07h.22l.18,0,.4,0h.42l.45,0h.14l.37-.05.15,0,.36-.09.22-.05.1,0a4.69,4.69,0,0,0,.84-.36L340,207.79l.14-.08c.08-.05.14-.11.21-.16l.22-.17.05,0a2.33,2.33,0,0,0,.24-.27l0,0,0-.06.09-.14a1.65,1.65,0,0,0,.1-.23v-.06a1.52,1.52,0,0,0,0-.17,1.41,1.41,0,0,0,0-.23v0Z"/><path class="cls-93" d="M260.12,158.86a6.38,6.38,0,0,1,5.79,0L340,201.94c1.59.92,1.58,2.42,0,3.35L224.85,271.78a6.38,6.38,0,0,1-5.79,0L144.92,228.7c-1.59-.92-1.58-2.42,0-3.35Z"/></g><g class="cls-94"><g class="cls-1"><path class="cls-95" d="M255.56,167.39l5.19-3a1.24,1.24,0,0,1,1.12,0l1.54.89a.34.34,0,0,1,0,.65l-5.19,3a1.24,1.24,0,0,1-1.12,0l-1.54-.89a.34.34,0,0,1,0-.65"/><path class="cls-95" d="M247.78,171.88l5.19-3a1.24,1.24,0,0,1,1.12,0l1.54.89a.34.34,0,0,1,0,.65l-5.19,3a1.24,1.24,0,0,1-1.12,0l-1.54-.89a.34.34,0,0,1,0-.65"/><path class="cls-95" d="M240,176.37l5.19-3a1.24,1.24,0,0,1,1.12,0l1.54.89a.34.34,0,0,1,0,.65l-5.19,3a1.23,1.23,0,0,1-1.12,0L240,177a.34.34,0,0,1,0-.65"/><path class="cls-95" d="M232.23,180.86l5.18-3a1.24,1.24,0,0,1,1.12,0l1.54.89a.34.34,0,0,1,0,.65l-5.18,3a1.24,1.24,0,0,1-1.12,0l-1.54-.89a.34.34,0,0,1,0-.65"/><path class="cls-95" d="M224.45,185.35l5.18-3a1.23,1.23,0,0,1,1.12,0l1.54.89a.34.34,0,0,1,0,.65l-5.18,3a1.25,1.25,0,0,1-1.13,0l-1.54-.89c-.31-.18-.31-.47,0-.65"/><path class="cls-95" d="M216.67,189.84l5.19-3a1.24,1.24,0,0,1,1.12,0l1.54.89a.34.34,0,0,1,0,.65l-5.19,3a1.24,1.24,0,0,1-1.12,0l-1.54-.89a.34.34,0,0,1,0-.65"/><path class="cls-95" d="M208.89,194.33l5.19-3a1.24,1.24,0,0,1,1.12,0l1.54.89a.34.34,0,0,1,0,.65l-5.19,3a1.24,1.24,0,0,1-1.12,0l-1.54-.89a.34.34,0,0,1,0-.65"/><path class="cls-95" d="M201.12,198.82l5.19-3a1.24,1.24,0,0,1,1.12,0l1.54.89a.34.34,0,0,1,0,.65l-5.19,3a1.24,1.24,0,0,1-1.12,0l-1.54-.89a.34.34,0,0,1,0-.65"/><path class="cls-95" d="M193.34,203.31l5.19-3a1.24,1.24,0,0,1,1.12,0l1.54.89a.34.34,0,0,1,0,.65l-5.19,3a1.24,1.24,0,0,1-1.12,0l-1.54-.89a.34.34,0,0,1,0-.65"/><path class="cls-95" d="M185.56,207.8l5.18-3a1.23,1.23,0,0,1,1.12,0l1.54.89a.34.34,0,0,1,0,.65l-5.18,3a1.25,1.25,0,0,1-1.13,0l-1.54-.89c-.31-.18-.31-.47,0-.65"/><path class="cls-95" d="M177.78,212.29l5.19-3a1.24,1.24,0,0,1,1.12,0l1.54.89a.34.34,0,0,1,0,.65l-5.19,3a1.24,1.24,0,0,1-1.12,0l-1.54-.89a.34.34,0,0,1,0-.65"/><path class="cls-95" d="M170,216.78l5.19-3a1.24,1.24,0,0,1,1.12,0l1.54.89a.34.34,0,0,1,0,.65l-5.19,3a1.24,1.24,0,0,1-1.12,0l-1.54-.89a.34.34,0,0,1,0-.65"/><path class="cls-95" d="M162.23,221.27l5.19-3a1.24,1.24,0,0,1,1.12,0l1.54.89a.34.34,0,0,1,0,.65l-5.19,3a1.24,1.24,0,0,1-1.12,0l-1.54-.89a.34.34,0,0,1,0-.65"/><path class="cls-95" d="M154.45,225.76l5.19-3a1.24,1.24,0,0,1,1.12,0l1.54.89a.34.34,0,0,1,0,.65l-5.19,3a1.24,1.24,0,0,1-1.12,0l-1.54-.89a.34.34,0,0,1,0-.65"/><path class="cls-95" d="M260.07,170l5.19-3a1.24,1.24,0,0,1,1.12,0l3.86,2.24a.34.34,0,0,1,0,.65l-5.19,3a1.24,1.24,0,0,1-1.12,0l-3.86-2.24a.34.34,0,0,1,0-.65"/><path class="cls-95" d="M252.29,174.5l5.19-3a1.24,1.24,0,0,1,1.12,0l3.86,2.24a.34.34,0,0,1,0,.65l-5.19,3a1.24,1.24,0,0,1-1.12,0l-3.86-2.24a.34.34,0,0,1,0-.65"/><path class="cls-95" d="M244.51,179l5.19-3a1.24,1.24,0,0,1,1.12,0l3.86,2.24a.34.34,0,0,1,0,.65l-5.19,3a1.24,1.24,0,0,1-1.12,0l-3.86-2.24a.34.34,0,0,1,0-.65"/><path class="cls-95" d="M236.74,183.48l5.18-3a1.24,1.24,0,0,1,1.12,0l3.86,2.24a.34.34,0,0,1,0,.65l-5.18,3a1.23,1.23,0,0,1-1.12,0l-3.86-2.24a.34.34,0,0,1,0-.65"/><path class="cls-95" d="M229,188l5.18-3a1.23,1.23,0,0,1,1.12,0l3.86,2.24a.34.34,0,0,1,0,.65l-5.18,3a1.25,1.25,0,0,1-1.13,0L229,188.62c-.31-.18-.31-.47,0-.65"/><path class="cls-95" d="M221.18,192.46l5.19-3a1.24,1.24,0,0,1,1.12,0l3.86,2.24a.34.34,0,0,1,0,.65l-5.19,3a1.24,1.24,0,0,1-1.12,0l-3.86-2.24a.34.34,0,0,1,0-.65"/><path class="cls-95" d="M213.4,197l5.19-3a1.24,1.24,0,0,1,1.12,0l3.86,2.24a.34.34,0,0,1,0,.65l-5.19,3a1.24,1.24,0,0,1-1.12,0l-3.86-2.24a.34.34,0,0,1,0-.65"/><path class="cls-95" d="M205.63,201.44l5.19-3a1.24,1.24,0,0,1,1.12,0l3.86,2.24a.34.34,0,0,1,0,.65l-5.19,3a1.24,1.24,0,0,1-1.12,0l-3.86-2.24a.34.34,0,0,1,0-.65"/><path class="cls-95" d="M197.85,205.93l5.19-3a1.24,1.24,0,0,1,1.12,0l3.86,2.24a.34.34,0,0,1,0,.65l-5.19,3a1.24,1.24,0,0,1-1.12,0l-3.86-2.24a.34.34,0,0,1,0-.65"/><path class="cls-95" d="M190.07,210.42l5.18-3a1.23,1.23,0,0,1,1.12,0l3.86,2.24a.34.34,0,0,1,0,.65l-5.18,3a1.25,1.25,0,0,1-1.13,0l-3.86-2.24c-.31-.18-.31-.47,0-.65"/><path class="cls-95" d="M182.29,214.91l5.19-3a1.24,1.24,0,0,1,1.12,0l3.86,2.24a.34.34,0,0,1,0,.65l-5.19,3a1.24,1.24,0,0,1-1.12,0l-3.86-2.24a.34.34,0,0,1,0-.65"/><path class="cls-95" d="M174.52,219.4l5.19-3a1.24,1.24,0,0,1,1.12,0l3.86,2.24a.34.34,0,0,1,0,.65l-5.19,3a1.24,1.24,0,0,1-1.12,0l-3.86-2.24a.34.34,0,0,1,0-.65"/><path class="cls-95" d="M159,228.38l7.21-4.16.38-.22,5.37-3.1a1.24,1.24,0,0,1,1.12,0l3.86,2.24a.34.34,0,0,1,0,.65l-5.37,3.1-.38.22-7.21,4.16a1.24,1.24,0,0,1-1.12,0L159,229a.34.34,0,0,1,0-.65"/><path class="cls-95" d="M260,178l1.69-1,4.06-2.34,6.31-3.65a1.24,1.24,0,0,1,1.12,0l3.86,2.24a.34.34,0,0,1,0,.65l-6.31,3.65-4.06,2.34-1.69,1a1.24,1.24,0,0,1-1.12,0L260,178.6a.34.34,0,0,1,0-.65"/><path class="cls-95" d="M251.35,183l5.19-3a1.24,1.24,0,0,1,1.12,0l3.86,2.24a.34.34,0,0,1,0,.65l-5.19,3a1.24,1.24,0,0,1-1.12,0l-3.86-2.24a.34.34,0,0,1,0-.65"/><path class="cls-95" d="M243.57,187.45l5.18-3a1.24,1.24,0,0,1,1.12,0l3.86,2.24a.34.34,0,0,1,0,.65l-5.18,3a1.23,1.23,0,0,1-1.12,0l-3.86-2.24a.34.34,0,0,1,0-.65"/><path class="cls-95" d="M235.79,191.94l5.18-3a1.24,1.24,0,0,1,1.12,0l3.86,2.24a.34.34,0,0,1,0,.65l-5.18,3a1.25,1.25,0,0,1-1.13,0l-3.86-2.24c-.31-.18-.31-.47,0-.65"/><path class="cls-95" d="M228,196.43l5.19-3a1.24,1.24,0,0,1,1.12,0l3.86,2.24a.34.34,0,0,1,0,.65l-5.19,3a1.24,1.24,0,0,1-1.12,0L228,197.08a.34.34,0,0,1,0-.65"/><path class="cls-95" d="M220.24,200.92l5.19-3a1.24,1.24,0,0,1,1.12,0l3.86,2.24a.34.34,0,0,1,0,.65l-5.19,3a1.24,1.24,0,0,1-1.12,0l-3.86-2.24a.34.34,0,0,1,0-.65"/><path class="cls-95" d="M212.46,205.41l5.19-3a1.24,1.24,0,0,1,1.12,0l3.86,2.24a.34.34,0,0,1,0,.65l-5.19,3a1.24,1.24,0,0,1-1.12,0l-3.86-2.24a.34.34,0,0,1,0-.65"/><path class="cls-95" d="M204.68,209.9l5.19-3a1.24,1.24,0,0,1,1.12,0l3.86,2.24a.34.34,0,0,1,0,.65l-5.19,3a1.23,1.23,0,0,1-1.12,0l-3.86-2.24a.34.34,0,0,1,0-.65"/><path class="cls-95" d="M196.91,214.39l5.18-3a1.24,1.24,0,0,1,1.12,0l3.86,2.24a.34.34,0,0,1,0,.65l-5.18,3a1.25,1.25,0,0,1-1.13,0L196.9,215c-.31-.18-.31-.47,0-.65"/><path class="cls-95" d="M189.12,218.88l5.19-3a1.24,1.24,0,0,1,1.12,0l3.86,2.24a.34.34,0,0,1,0,.65l-5.19,3a1.24,1.24,0,0,1-1.12,0l-3.86-2.24a.34.34,0,0,1,0-.65"/><path class="cls-95" d="M181.35,223.37l5.19-3a1.24,1.24,0,0,1,1.12,0l3.86,2.24a.34.34,0,0,1,0,.65l-5.19,3a1.24,1.24,0,0,1-1.12,0L181.34,224a.34.34,0,0,1,0-.65"/><path class="cls-95" d="M271.53,179.22l7.39-4.26a1.24,1.24,0,0,1,1.12,0l3.86,2.24a.34.34,0,0,1,0,.65l-7.39,4.26a1.24,1.24,0,0,1-1.12,0l-3.86-2.24a.34.34,0,0,1,0-.65"/><path class="cls-95" d="M263.57,183.82l5.19-3a1.24,1.24,0,0,1,1.12,0l3.86,2.24a.34.34,0,0,1,0,.65l-5.19,3a1.24,1.24,0,0,1-1.12,0l-3.86-2.24a.34.34,0,0,1,0-.65"/><path class="cls-95" d="M255.79,188.31l5.19-3a1.24,1.24,0,0,1,1.12,0l3.86,2.24a.34.34,0,0,1,0,.65l-5.19,3a1.24,1.24,0,0,1-1.12,0L255.79,189a.34.34,0,0,1,0-.65"/><path class="cls-95" d="M248,192.8l5.19-3a1.24,1.24,0,0,1,1.12,0l3.86,2.24a.34.34,0,0,1,0,.65l-5.19,3a1.24,1.24,0,0,1-1.12,0L248,193.45a.34.34,0,0,1,0-.65"/><path class="cls-95" d="M240.24,197.29l5.19-3a1.24,1.24,0,0,1,1.12,0l3.86,2.24a.34.34,0,0,1,0,.65l-5.19,3a1.23,1.23,0,0,1-1.12,0l-3.86-2.24a.34.34,0,0,1,0-.65"/><path class="cls-95" d="M232.46,201.78l5.18-3a1.24,1.24,0,0,1,1.12,0l3.86,2.24a.34.34,0,0,1,0,.65l-5.18,3a1.25,1.25,0,0,1-1.13,0l-3.86-2.24c-.31-.18-.31-.47,0-.65"/><path class="cls-95" d="M224.68,206.27l5.19-3a1.24,1.24,0,0,1,1.12,0l3.86,2.24a.34.34,0,0,1,0,.65l-5.19,3a1.24,1.24,0,0,1-1.12,0l-3.86-2.24a.34.34,0,0,1,0-.65"/><path class="cls-95" d="M216.9,210.76l5.19-3a1.24,1.24,0,0,1,1.12,0l3.86,2.24a.34.34,0,0,1,0,.65l-5.19,3a1.24,1.24,0,0,1-1.12,0l-3.86-2.24a.34.34,0,0,1,0-.65"/><path class="cls-95" d="M209.13,215.25l5.19-3a1.24,1.24,0,0,1,1.12,0l3.86,2.24a.34.34,0,0,1,0,.65l-5.19,3a1.24,1.24,0,0,1-1.12,0l-3.86-2.24a.34.34,0,0,1,0-.65"/><path class="cls-95" d="M201.35,219.74l5.19-3a1.24,1.24,0,0,1,1.12,0l3.86,2.24a.34.34,0,0,1,0,.65l-5.19,3a1.24,1.24,0,0,1-1.12,0l-3.86-2.24a.34.34,0,0,1,0-.65"/><path class="cls-95" d="M193.58,224.23l5.18-3a1.25,1.25,0,0,1,1.13,0l3.86,2.24c.31.18.31.47,0,.65l-5.18,3a1.24,1.24,0,0,1-1.12,0l-3.86-2.24a.34.34,0,0,1,0-.65"/><path class="cls-95" d="M185.8,228.72l5.18-3a1.23,1.23,0,0,1,1.12,0L196,228a.34.34,0,0,1,0,.65l-5.18,3a1.25,1.25,0,0,1-1.13,0l-3.86-2.24c-.31-.18-.31-.47,0-.65"/><path class="cls-95" d="M165.8,232.35l13-7.48a1.24,1.24,0,0,1,1.12,0l3.86,2.24a.34.34,0,0,1,0,.65l-1.6.92a.61.61,0,0,0,0,1.15l5.28,3.07a.34.34,0,0,1,0,.65l-9.8,5.66a1.24,1.24,0,0,1-1.12,0l-6.27-3.65-2.49-1.45L165.79,233a.34.34,0,0,1,0-.65"/><path class="cls-95" d="M280.57,181.92l5.19-3a1.24,1.24,0,0,1,1.12,0l3.86,2.24a.34.34,0,0,1,0,.65l-5.19,3a1.24,1.24,0,0,1-1.12,0l-3.86-2.24a.34.34,0,0,1,0-.65"/><path class="cls-95" d="M272.79,186.41l5.19-3a1.24,1.24,0,0,1,1.12,0l3.86,2.24a.34.34,0,0,1,0,.65l-5.19,3a1.24,1.24,0,0,1-1.12,0l-3.86-2.24a.34.34,0,0,1,0-.65"/><path class="cls-95" d="M265,190.9l5.19-3a1.24,1.24,0,0,1,1.12,0l3.86,2.24a.34.34,0,0,1,0,.65l-5.19,3a1.23,1.23,0,0,1-1.12,0L265,191.55a.34.34,0,0,1,0-.65"/><path class="cls-95" d="M257.24,195.39l5.18-3a1.24,1.24,0,0,1,1.12,0l3.86,2.24a.34.34,0,0,1,0,.65l-5.18,3a1.24,1.24,0,0,1-1.12,0L257.23,196a.34.34,0,0,1,0-.65"/><path class="cls-95" d="M249.46,199.88l5.18-3a1.23,1.23,0,0,1,1.12,0l3.86,2.24a.34.34,0,0,1,0,.65l-5.18,3a1.25,1.25,0,0,1-1.13,0l-3.86-2.24c-.31-.18-.31-.47,0-.65"/><path class="cls-95" d="M241.68,204.37l5.19-3a1.24,1.24,0,0,1,1.12,0l3.86,2.24a.34.34,0,0,1,0,.65l-5.19,3a1.24,1.24,0,0,1-1.12,0L241.67,205a.34.34,0,0,1,0-.65"/><path class="cls-95" d="M233.9,208.86l5.19-3a1.24,1.24,0,0,1,1.12,0l3.86,2.24a.34.34,0,0,1,0,.65l-5.19,3a1.24,1.24,0,0,1-1.12,0l-3.86-2.24a.34.34,0,0,1,0-.65"/><path class="cls-95" d="M226.13,213.35l5.19-3a1.24,1.24,0,0,1,1.12,0l3.86,2.24a.34.34,0,0,1,0,.65l-5.19,3a1.24,1.24,0,0,1-1.12,0L226.12,214a.34.34,0,0,1,0-.65"/><path class="cls-95" d="M218.35,217.84l5.19-3a1.24,1.24,0,0,1,1.12,0l3.86,2.24a.34.34,0,0,1,0,.65l-5.19,3a1.24,1.24,0,0,1-1.12,0l-3.86-2.24a.34.34,0,0,1,0-.65"/><path class="cls-95" d="M210.57,222.33l5.18-3a1.23,1.23,0,0,1,1.12,0l3.86,2.24a.34.34,0,0,1,0,.65l-5.18,3a1.25,1.25,0,0,1-1.13,0L210.56,223c-.31-.18-.31-.47,0-.65"/><path class="cls-95" d="M202.79,226.83l5.19-3a1.24,1.24,0,0,1,1.12,0l3.86,2.24a.34.34,0,0,1,0,.65l-5.19,3a1.24,1.24,0,0,1-1.12,0l-3.86-2.24a.34.34,0,0,1,0-.65"/><path class="cls-95" d="M195,231.32l5.19-3a1.24,1.24,0,0,1,1.12,0l3.86,2.24a.34.34,0,0,1,0,.65l-5.19,3a1.24,1.24,0,0,1-1.12,0L195,232a.34.34,0,0,1,0-.65"/><path class="cls-95" d="M179.46,240.29l7.21-4.16.38-.22,5.37-3.1a1.24,1.24,0,0,1,1.12,0l3.86,2.24a.34.34,0,0,1,0,.65l-5.37,3.1-.38.22-7.21,4.16a1.24,1.24,0,0,1-1.12,0l-3.86-2.24a.34.34,0,0,1,0-.65"/><path class="cls-95" d="M287.4,185.89l5.19-3a1.25,1.25,0,0,1,1.13,0l3.86,2.24a.34.34,0,0,1,0,.65l-5.19,3a1.24,1.24,0,0,1-1.12,0l-3.86-2.24a.35.35,0,0,1,0-.65"/><path class="cls-95" d="M279.62,190.38l5.19-3a1.25,1.25,0,0,1,1.13,0l3.86,2.24a.34.34,0,0,1,0,.65l-5.19,3a1.23,1.23,0,0,1-1.12,0L279.62,191a.35.35,0,0,1,0-.65"/><path class="cls-95" d="M271.85,194.87l5.19-3a1.25,1.25,0,0,1,1.13,0l3.86,2.24a.34.34,0,0,1,0,.65l-5.19,3a1.23,1.23,0,0,1-1.12,0l-3.86-2.24c-.31-.18-.32-.47,0-.65"/><path class="cls-95" d="M264.07,199.36l5.18-3a1.24,1.24,0,0,1,1.13,0l3.86,2.24c.31.18.31.47,0,.65l-5.18,3a1.23,1.23,0,0,1-1.12,0L264.07,200c-.31-.18-.32-.47,0-.65"/><path class="cls-95" d="M225.18,221.81,230,219l.92-.53,1.46-.84,6.31-3.65,1.46-.84,6.31-3.65,1.46-.84,6.31-3.65,7.21-4.16a1.24,1.24,0,0,1,1.13,0l3.86,2.24c.31.18.31.47,0,.65l-7.21,4.16-6.31,3.65-1.46.84-6.31,3.65-1.46.84-6.31,3.65-1.46.84-.92.53-4.83,2.79a1.23,1.23,0,0,1-1.12,0l-3.86-2.24c-.31-.18-.32-.47,0-.65"/><path class="cls-95" d="M217.4,226.3l5.18-3a1.24,1.24,0,0,1,1.13,0l3.86,2.24c.31.18.31.47,0,.65l-5.18,3a1.24,1.24,0,0,1-1.13,0L217.4,227a.35.35,0,0,1,0-.66"/><path class="cls-95" d="M209.62,230.8l5.19-3a1.24,1.24,0,0,1,1.13,0l3.86,2.24c.31.18.31.47,0,.65l-5.19,3a1.23,1.23,0,0,1-1.12,0l-3.86-2.24a.35.35,0,0,1,0-.65"/><path class="cls-95" d="M201.85,235.29l5.19-3a1.25,1.25,0,0,1,1.13,0l3.86,2.24a.34.34,0,0,1,0,.65l-5.19,3a1.24,1.24,0,0,1-1.12,0l-3.86-2.24a.35.35,0,0,1,0-.65"/><path class="cls-95" d="M194.07,239.78l5.19-3a1.25,1.25,0,0,1,1.13,0l.87.5a.34.34,0,0,1,0,.65l-5.19,3a1.24,1.24,0,0,1-1.12,0l-.87-.5a.35.35,0,0,1,0-.65"/><path class="cls-95" d="M197.06,241.51l5.19-3a1.24,1.24,0,0,1,1.12,0l.87.5a.34.34,0,0,1,0,.65l-5.19,3a1.23,1.23,0,0,1-1.12,0l-.87-.5a.34.34,0,0,1,0-.65"/><path class="cls-95" d="M186.29,244.27l5.19-3a1.25,1.25,0,0,1,1.13,0l3.86,2.24a.34.34,0,0,1,0,.65l-5.19,3a1.24,1.24,0,0,1-1.12,0l-3.86-2.24a.35.35,0,0,1,0-.65"/><path class="cls-95" d="M232.51,232.88l41-23.7a3.72,3.72,0,0,1,3.38,0l21.36,12.41a1,1,0,0,1,0,2l-41,23.7a3.72,3.72,0,0,1-3.38,0l-21.36-12.41a1,1,0,0,1,0-2"/></g></g><path class="cls-96" d="M257.52,70.83,147.83,134.16a6,6,0,0,0-2.73,4.74l.23,79.45c0,1.73,1.24,2.44,2.75,1.56l109.69-63.33a6,6,0,0,0,2.73-4.73l-.23-79.45c0-1.74-1.24-2.44-2.75-1.57"/><path class="cls-97" d="M148.07,219.49c-1.31.76-2.38.15-2.39-1.36l-.23-79.45a5.24,5.24,0,0,1,2.37-4.1L257.52,71.25c1.31-.76,2.39-.15,2.39,1.36l.23,79.45a5.24,5.24,0,0,1-2.38,4.11L148.07,219.49M257.52,70.42,147.83,133.75a6.82,6.82,0,0,0-3.09,5.36l.23,79.45c0,2,1.4,2.76,3.11,1.77L257.76,157a6.84,6.84,0,0,0,3.1-5.36l-.23-79.45c0-2-1.41-2.76-3.12-1.77"/><polyline class="cls-2" points="216.28 150.47 155.43 185.6 155.44 188.88 216.29 153.75 216.28 150.47"/><polyline class="cls-2" points="195.56 170.97 155.46 194.12 155.46 197.39 195.57 174.23 195.56 170.97"/><polyline class="cls-2" points="181.44 187.65 155.48 202.64 155.49 205.91 181.45 190.92 181.44 187.65"/><path class="cls-2" d="M181.42,150.29l0-11.59,8.76.75-8.72,10.84m34.72-45.84L155.3,139.58l.11,39.92,60.85-35.13-.11-39.92"/><polyline class="cls-2" points="250.11 84.84 224.61 99.56 224.72 139.48 250.23 124.75 250.11 84.84"/><polyline class="cls-98" points="181.39 138.7 181.42 150.29 190.15 139.45 181.39 138.7"/><path class="cls-99" d="M375.79,143.47c-5.61-3.24-14.67-3.24-20.23,0s-5.54,8.48.07,11.72,14.66,3.23,20.23,0,5.54-8.48-.07-11.71"/><path class="cls-100" d="M374.14,144.64c-4.69-2.59-12.26-2.59-16.92,0s-4.64,6.79.06,9.38,12.25,2.59,16.92,0,4.63-6.79-.06-9.37"/><path class="cls-101" d="M354.15,125.46a1.26,1.26,0,0,0-1.56-.85l-.11,0a1.26,1.26,0,0,0-.85,1.56l12.43,42.08a5.84,5.84,0,0,0,2.52-.74Z"/><polygon class="cls-4" points="366.65 172.45 364.06 168.29 366.57 167.55 366.65 172.45"/><path class="cls-4" d="M352.84,125.66a1.31,1.31,0,0,0-.89,1.63l1.41,4.76a5.84,5.84,0,0,0,2.52-.74l-1.41-4.76A1.31,1.31,0,0,0,352.84,125.66Z"/><path class="cls-102" d="M352.53,124.63a1.31,1.31,0,0,0-.89,1.63l1.41,4.76a5.84,5.84,0,0,0,2.52-.74l-1.41-4.76A1.31,1.31,0,0,0,352.53,124.63Z"/><path class="cls-103" d="M366.65,172.45l0-1.36a1.51,1.51,0,0,0-.7.21Z"/><path class="cls-104" d="M378.47,129.11a6,6,0,0,0-1.3-.25l-13.1,41.88a1.26,1.26,0,0,0,.82,1.57l.11,0a1.26,1.26,0,0,0,1.57-.82l13.1-41.88A6,6,0,0,0,378.47,129.11Z"/><polygon class="cls-4" points="379.83 124.75 379.68 129.65 377.17 128.86 379.83 124.75"/><path class="cls-4" d="M365.26,171.31a1.31,1.31,0,0,0,1.64-.86l1.48-4.74a5.84,5.84,0,0,0-2.5-.78l-1.48,4.74A1.31,1.31,0,0,0,365.26,171.31Z"/><path class="cls-105" d="M364.94,172.33a1.31,1.31,0,0,0,1.64-.86l1.48-4.74a5.84,5.84,0,0,0-2.5-.78l-1.48,4.74A1.31,1.31,0,0,0,364.94,172.33Z"/><path class="cls-106" d="M379.83,124.75l-.74,1.14a1.51,1.51,0,0,0,.7.22Z"/><path class="cls-107" d="M362.89,121.71a5.84,5.84,0,0,0-2.61.29l.55,4.93h0l4.91,44.16a1.26,1.26,0,0,0,1.39,1.11h.11a1.26,1.26,0,0,0,1.11-1.39Z"/><polygon class="cls-4" points="361.06 117.16 362.89 121.71 360.28 122 361.06 117.16"/><path class="cls-4" d="M367.07,171.13a1.31,1.31,0,0,0,1.16-1.45l-.55-4.93a5.84,5.84,0,0,0-2.61.29l.55,4.93A1.31,1.31,0,0,0,367.07,171.13Z"/><path class="cls-105" d="M367.19,172.2a1.31,1.31,0,0,0,1.16-1.45l-.55-4.93a5.84,5.84,0,0,0-2.61.29l.55,4.93A1.31,1.31,0,0,0,367.19,172.2Z"/><path class="cls-108" d="M361.06,117.16l-.22,1.34a1.51,1.51,0,0,0,.72-.08Z"/><path class="cls-109" d="M369.64,116.88h-.11a1.26,1.26,0,0,0-1.31,1.2l-1.91,44.39h0l-.21,5a5.84,5.84,0,0,0,2.62.11l2.12-49.35A1.26,1.26,0,0,0,369.64,116.88Z"/><polygon class="cls-4" points="367.2 172.21 366.09 167.43 368.72 167.54 367.2 172.21"/><path class="cls-4" d="M369.54,117.95a1.31,1.31,0,0,0-1.37,1.25l-.21,5a5.84,5.84,0,0,0,2.62.11l.21-5A1.31,1.31,0,0,0,369.54,117.95Z"/><path class="cls-110" d="M369.58,116.88a1.31,1.31,0,0,0-1.37,1.25l-.21,5a5.84,5.84,0,0,0,2.62.11l.21-5A1.31,1.31,0,0,0,369.58,116.88Z"/><path class="cls-103" d="M367.2,172.21l.42-1.29a1.51,1.51,0,0,0-.73,0Z"/><path class="cls-99" d="M374.19,153.84c-4.66,2.71-12.23,2.71-16.92,0-2.35-1.35-3.52-3.13-3.53-4.9v27.39c0,1.77,1.19,3.55,3.53,4.9,4.68,2.7,12.25,2.7,16.92,0,2.33-1.35,3.48-3.12,3.47-4.9V148.94C377.68,150.71,376.52,152.49,374.19,153.84Z"/><path class="cls-111" d="M375.86,155.19c-5.57,3.24-14.63,3.24-20.23,0-2.81-1.62-4.22-3.74-4.23-5.86v32.76c0,2.12,1.42,4.24,4.23,5.86,5.6,3.23,14.66,3.23,20.23,0,2.78-1.62,4.17-3.74,4.15-5.86V149.33C380,151.45,378.64,153.57,375.86,155.19Z"/><path class="cls-112" d="M76.63,202.95l35.88,20.71,9.32-5.38L85,197a.94.94,0,0,0-.94,0l-7.45,4.3A.94.94,0,0,0,76.63,202.95Z"/><path class="cls-113" d="M112.5,223.66l-.46-.26v-.69L76.17,202v64.57h0a.93.93,0,0,0,.45.95h0l35.88,20.71h0Z"/><polygon class="cls-114" points="119.62 218.28 119.62 218.28 112.5 222.38 112.5 286.96 121.83 281.58 121.82 218.28 119.62 218.28"/><polygon class="cls-115" points="112.5 223.66 113.61 223.03 113.61 287.6 112.5 288.24 112.5 223.66"/><polygon class="cls-116" points="120.72 218.92 121.82 218.28 121.83 282.86 120.72 283.49 120.72 218.92"/><polygon class="cls-117" points="120.72 218.92 119.62 218.28 119.62 282.86 120.72 283.49 120.72 218.92"/><path class="cls-118" d="M120.72,218.92l1.1-.64L85.72,197.44h0L85,197a.94.94,0,0,0-.94,0l-7.45,4.3a.89.89,0,0,0-.23.22h0l0,0a.87.87,0,0,0-.11.22.91.91,0,0,0-.05.15.9.9,0,0,0,0,.22.91.91,0,0,0,0,.19.9.9,0,0,0,.07.17.87.87,0,0,0,.12.19s0,.05,0,.07h0a.88.88,0,0,0,.18.16l35.88,20.71,1.1-.64L77.5,202.18l7.12-4.11Z"/><path class="cls-119" d="M66.5,208.81l35.88,20.71,9.32-5.38L74.89,202.88a.94.94,0,0,0-.94,0l-7.45,4.3A.94.94,0,0,0,66.5,208.81Z"/><path class="cls-120" d="M102.38,229.52l-.46-.26v-.69L66,207.85v64.57h0a.93.93,0,0,0,.45.95h0l35.88,20.71h0Z"/><polygon class="cls-121" points="109.5 224.14 109.5 224.13 102.38 228.24 102.38 292.82 111.7 287.44 111.7 224.14 109.5 224.14"/><polygon class="cls-122" points="102.38 229.52 103.48 228.88 103.49 293.46 102.38 294.09 102.38 229.52"/><polygon class="cls-123" points="110.6 224.77 111.7 224.14 111.7 288.71 110.6 289.35 110.6 224.77"/><polygon class="cls-124" points="110.6 224.77 109.5 224.14 109.49 288.71 110.6 289.35 110.6 224.77"/><path class="cls-125" d="M110.6,224.77l1.1-.64L75.6,203.29h0l-.71-.41a.94.94,0,0,0-.94,0l-7.45,4.3a.89.89,0,0,0-.23.22h0l0,0a.87.87,0,0,0-.11.22.67.67,0,0,0-.07.37.9.9,0,0,0,0,.19.89.89,0,0,0,.07.17.87.87,0,0,0,.12.19s0,.05,0,.07h0a.88.88,0,0,0,.18.16l35.88,20.71,1.1-.64L67.38,208l7.12-4.11Z"/><path class="cls-126" d="M56.38,214.66l35.88,20.71,9.32-5.38L64.76,208.74a.94.94,0,0,0-.94,0L56.38,213A.94.94,0,0,0,56.38,214.66Z"/><path class="cls-127" d="M92.26,235.38l-.46-.26v-.69L55.92,213.71v64.57h0a.93.93,0,0,0,.45.95h0l35.88,20.71h0Z"/><polygon class="cls-128" points="99.37 229.99 99.37 229.99 92.26 234.1 92.26 298.68 101.58 293.29 101.58 229.99 99.37 229.99"/><polygon class="cls-129" points="92.26 235.38 93.36 234.74 93.36 299.31 92.26 299.95 92.26 235.38"/><polygon class="cls-130" points="100.47 230.63 101.58 229.99 101.58 294.57 100.47 295.2 100.47 230.63"/><polygon class="cls-131" points="100.47 230.63 99.37 229.99 99.37 294.57 100.47 295.2 100.47 230.63"/><path class="cls-132" d="M100.48,230.63l1.1-.64L65.47,209.15h0l-.71-.41a.94.94,0,0,0-.94,0L56.38,213a.9.9,0,0,0-.23.22h0l0,0a.88.88,0,0,0-.11.22.91.91,0,0,0-.05.15,1.29,1.29,0,0,0,0,.41.89.89,0,0,0,.07.17.86.86,0,0,0,.12.19s0,.05,0,.07h0a.88.88,0,0,0,.18.16l35.88,20.71,1.1-.64L57.25,213.89l7.12-4.11Z"/><path class="cls-133" d="M147.4,279.32l4.8,4.5V255.28H150a6.55,6.55,0,0,0-6.55,6.55v8.33A12.55,12.55,0,0,0,147.4,279.32Z"/><path class="cls-2" d="M149.46,276.92l2.74,2.56V259.83h-1.27a3.73,3.73,0,0,0-3.73,3.73v8.14A7.15,7.15,0,0,0,149.46,276.92Z"/><path class="cls-134" d="M178.09,283.58v-23.5H149.47v23.5c0,2.12,1.42,4.24,4.23,5.86,5.6,3.23,14.66,3.23,20.23,0C176.72,287.82,178.1,285.7,178.09,283.58Z"/><path class="cls-135" d="M173.87,254.23c-5.61-3.24-14.67-3.24-20.23,0s-5.54,8.48.07,11.72,14.66,3.23,20.23,0,5.54-8.48-.07-11.71"/><path class="cls-136" d="M172.21,255.39c-4.69-2.59-12.26-2.59-16.92,0s-4.64,6.79.06,9.38,12.25,2.59,16.92,0,4.63-6.79-.06-9.37"/><path class="cls-137" d="M172.27,264.77a9,9,0,0,0,1.86-1.35,9.09,9.09,0,0,0-1.91-1.39c-4.69-2.59-12.26-2.59-16.92,0a9,9,0,0,0-1.86,1.36,9.11,9.11,0,0,0,1.92,1.39C160,267.36,167.61,267.36,172.27,264.77Z"/><path class="cls-138" d="M160.84,262.44a3.94,3.94,0,0,0-3.44,0c-.95.53-.94,1.38,0,1.91a3.94,3.94,0,0,0,3.44,0c.95-.53.94-1.38,0-1.91"/><path class="cls-139" d="M164.93,264.11a1.09,1.09,0,0,0-1,0c-.26.15-.26.38,0,.53a1.09,1.09,0,0,0,1,0c.26-.15.26-.38,0-.53"/><path class="cls-140" d="M168.71,261.91a1.27,1.27,0,0,0-1.1,0c-.3.17-.3.44,0,.61a1.27,1.27,0,0,0,1.1,0c.3-.17.3-.44,0-.61"/><path class="cls-141" d="M162.53,261.59s-8.78-4.46-2.36-12.63c6.91-8.78,2.36-15.82,2.36-15.82s5.54,8.31,2.08,15.09A22.17,22.17,0,0,0,162.53,261.59Z"/><path class="cls-141" d="M164.29,245.28s3.43,5.7-1.11,13C163.19,258.31,171.13,252.12,164.29,245.28Z"/></g></g></svg>