<svg id="_98" data-name="98" xmlns="http://www.w3.org/2000/svg" viewBox="0 0 96.5 62.81"><defs><style>.cls-1{fill:#fff;}</style></defs><title>product</title><rect class="cls-1" x="-607" y="-149.03" width="800" height="800"/><path d="M84.41,57.9H21.7a.65.65,0,0,1-.64-.55L16.18,26.13a.65.65,0,0,1,.64-.75H89.3a.65.65,0,0,1,.64.75L85.06,57.35A.65.65,0,0,1,84.41,57.9ZM22.26,56.6h61.6l4.68-29.91h-71Z"/><path d="M87.73,36.72H18.39a.65.65,0,1,1,0-1.3H87.73a.65.65,0,1,1,0,1.3Z"/><path d="M86,47.85H20.13a.65.65,0,1,1,0-1.3H86a.65.65,0,1,1,0,1.3Z"/><path d="M89.93,26.68H16.19A2.69,2.69,0,0,1,13.5,24V19.26a2.69,2.69,0,0,1,2.68-2.69H89.93a2.69,2.69,0,0,1,2.68,2.69V24A2.69,2.69,0,0,1,89.93,26.68ZM16.19,17.87a1.39,1.39,0,0,0-1.38,1.39V24a1.39,1.39,0,0,0,1.38,1.39H89.93A1.39,1.39,0,0,0,91.31,24V19.26a1.39,1.39,0,0,0-1.38-1.39Z"/><path d="M28.38,57.9a.65.65,0,0,1-.65-.65V26A.65.65,0,0,1,29,26V57.25A.65.65,0,0,1,28.38,57.9Z"/><path d="M38.25,57.9a.65.65,0,0,1-.65-.65V26a.65.65,0,0,1,1.3,0V57.25A.65.65,0,0,1,38.25,57.9Z"/><path d="M48.12,57.9a.65.65,0,0,1-.65-.65V26a.65.65,0,0,1,1.3,0V57.25A.65.65,0,0,1,48.12,57.9Z"/><path d="M58,57.9a.65.65,0,0,1-.65-.65V26a.65.65,0,0,1,1.3,0V57.25A.65.65,0,0,1,58,57.9Z"/><path d="M67.86,57.9a.65.65,0,0,1-.65-.65V26a.65.65,0,0,1,1.3,0V57.25A.65.65,0,0,1,67.86,57.9Z"/><path d="M77.74,57.9a.65.65,0,0,1-.65-.65V26a.65.65,0,0,1,1.3,0V57.25A.65.65,0,0,1,77.74,57.9Z"/><path d="M73.32,17.87H32.8a.65.65,0,0,1-.58-.94L38.16,5a.65.65,0,0,1,.58-.36H67.38A.65.65,0,0,1,68,5L73.9,16.93a.65.65,0,0,1-.58.94Zm-39.47-1.3H72.27L67,6H39.14Z"/></svg>