<svg id="_118" data-name="118" xmlns="http://www.w3.org/2000/svg" viewBox="0 0 86 84.2"><defs><style>.cls-1{fill:#fff;}.cls-2{fill:none;stroke:#000;stroke-linecap:round;stroke-linejoin:round;stroke-width:1.3px;}</style></defs><title>productlist</title><rect class="cls-1" x="-227.67" y="-655.67" width="800" height="800"/><g id="_Group_" data-name="&lt;Group&gt;"><polygon class="cls-2" points="59.79 43.08 59.79 32.38 59.97 32.38 74 37.43 74 37.72 59.79 43.08"/><polygon class="cls-2" points="25.04 31.89 25.1 31.89 25.1 43.09 11.04 37.72 10.89 37.39 25.04 31.89"/><polygon class="cls-2" points="42.52 49.76 25.1 43.09 25.1 31.89 25.1 13.37 42.45 18.85 59.79 13.37 59.79 32.38 59.79 43.08 42.52 49.59 42.59 49.72 42.52 49.76"/><polygon class="cls-2" points="74 56.4 74 69.2 42.88 81.52 42.59 56.16 46.23 56.16 51.48 65.45 74 56.4"/><polygon class="cls-2" points="74 56.07 74 56.4 51.48 65.45 46.23 56.16 74 56.07"/><polygon class="cls-2" points="25.1 13.37 24.87 13.3 42.45 7.76 60.01 13.3 59.79 13.37 42.45 18.85 25.1 13.37"/><polygon class="cls-2" points="74 56.07 46.23 56.16 42.59 49.72 42.52 49.59 59.79 43.08 74 37.72 81.3 53.47 74 56.4 74 56.07"/><polygon class="cls-2" points="42.59 56.16 42.88 81.52 11.04 69.2 11.04 56.53 33.12 65.45 38.68 56.17 42.59 56.16"/><polygon class="cls-2" points="38.68 56.17 33.12 65.45 11.04 56.53 11.04 56.26 38.68 56.17"/><polygon class="cls-2" points="3.49 53.47 11.04 37.72 25.1 43.09 42.52 49.76 38.68 56.17 11.04 56.26 11.04 56.53 3.49 53.47"/><polyline class="cls-2" points="11.04 56.53 11.04 69.2 42.88 81.52 74 69.2 74 56.4"/><polygon class="cls-2" points="11.04 37.72 25.1 43.09 42.52 49.76 38.68 56.17 33.12 65.45 11.04 56.53 3.49 53.47 11.04 37.72"/><polygon class="cls-2" points="74 37.72 59.79 43.08 42.52 49.59 42.59 49.72 46.23 56.16 51.48 65.45 74 56.4 81.3 53.47 74 37.72"/><line class="cls-2" x1="10.89" y1="37.39" x2="25.04" y2="31.89"/><line class="cls-2" x1="59.97" y1="32.38" x2="74" y2="37.43"/><polyline class="cls-2" points="42.52 50.2 42.59 56.16 42.88 81.52"/><polyline class="cls-2" points="59.79 13.37 59.79 32.38 59.79 43.08 59.79 43.09"/><polyline class="cls-2" points="25.1 43.09 25.1 31.89 25.1 13.37"/><polygon class="cls-2" points="25.1 13.37 24.87 13.3 42.45 7.76 60.01 13.3 59.79 13.37 42.45 18.85 25.1 13.37"/><line class="cls-2" x1="31.5" y1="24.98" x2="31.5" y2="38.52"/><line class="cls-2" x1="53.26" y1="19.85" x2="53.26" y2="33.39"/></g></svg>