<svg id="_38" data-name="38" xmlns="http://www.w3.org/2000/svg" viewBox="0 0 58.76 86.9"><title>Artboard 7</title><path d="M45.2,86.9H11.48a7.26,7.26,0,0,1-7.25-7.25V15a7.26,7.26,0,0,1,7.25-7.25H45.2A7.26,7.26,0,0,1,52.45,15V79.65A7.26,7.26,0,0,1,45.2,86.9ZM11.48,9.05a6,6,0,0,0-5.95,6V79.65a6,6,0,0,0,5.95,5.95H45.2a6,6,0,0,0,5.95-5.95V15a6,6,0,0,0-5.95-6Z"/><path d="M51.8,75.12H4.88a.65.65,0,0,1-.65-.65V18.75a.65.65,0,0,1,.65-.65H51.8a.65.65,0,0,1,.65.65V74.47A.65.65,0,0,1,51.8,75.12ZM5.53,73.82H51.15V19.4H5.53Z"/><path d="M28.34,84A3.61,3.61,0,1,1,32,80.37,3.62,3.62,0,0,1,28.34,84Zm0-5.92a2.31,2.31,0,1,0,2.32,2.32A2.32,2.32,0,0,0,28.34,78.05Z"/><path d="M33.06,14.23H23.62a.65.65,0,1,1,0-1.3h9.44a.65.65,0,1,1,0,1.3Z"/><path d="M16.21,16.43a2.85,2.85,0,1,1,2.85-2.85A2.85,2.85,0,0,1,16.21,16.43Zm0-4.4a1.55,1.55,0,1,0,1.55,1.55A1.55,1.55,0,0,0,16.21,12Z"/><path d="M28.34,48a12,12,0,1,1,12-12A12,12,0,0,1,28.34,48Zm0-22.77A10.73,10.73,0,1,0,39.08,35.94,10.74,10.74,0,0,0,28.34,25.21Z"/><path d="M42.53,68.82H14.15a.65.65,0,0,1-.65-.65V56.58a7.11,7.11,0,0,1,7.11-7.1H36.07a7.11,7.11,0,0,1,7.1,7.1V68.17A.65.65,0,0,1,42.53,68.82ZM14.8,67.52H41.87V56.58a5.81,5.81,0,0,0-5.8-5.8H20.61a5.81,5.81,0,0,0-5.81,5.8Z"/></svg>