<?xml version="1.0" encoding="utf-8"?>
<!-- Generator: Adobe Illustrator 16.0.0, SVG Export Plug-In . SVG Version: 6.00 Build 0)  -->
<!DOCTYPE svg PUBLIC "-//W3C//DTD SVG 1.0//EN" "http://www.w3.org/TR/2001/REC-SVG-20010904/DTD/svg10.dtd" [
	<!ENTITY ns_flows "http://ns.adobe.com/Flows/1.0/">
	<!ENTITY ns_extend "http://ns.adobe.com/Extensibility/1.0/">
	<!ENTITY ns_ai "http://ns.adobe.com/AdobeIllustrator/10.0/">
	<!ENTITY ns_graphs "http://ns.adobe.com/Graphs/1.0/">
]>
<svg version="1.0" id="Capa_1" xmlns:x="&ns_extend;" xmlns:i="&ns_ai;" xmlns:graph="&ns_graphs;"
	 xmlns="http://www.w3.org/2000/svg" xmlns:xlink="http://www.w3.org/1999/xlink" xmlns:a="http://ns.adobe.com/AdobeSVGViewerExtensions/3.0/"
	 x="0px" y="0px" width="612px" height="792px" viewBox="0 0 612 792" enable-background="new 0 0 612 792" xml:space="preserve">
<g>
	<path d="M322.436,475.89c10.471-0.811,20.016-6.12,26.211-14.589l94.176-129.441c2.886-3.97,2.453-9.45-1.047-12.93
		c-3.499-3.47-9.012-3.9-13.005-1.04l-130.213,93.661c-8.489,6.139-13.83,15.63-14.645,26.04
		c-0.814,10.409,2.978,20.599,10.39,27.97c6.749,6.719,15.852,10.439,25.316,10.439C320.555,476,321.489,475.96,322.436,475.89z
		 M303.968,439.15c0.352-4.57,2.707-8.74,6.407-11.421l79.43-57.13l-57.442,78.95c-2.715,3.71-6.909,6.041-11.507,6.401
		c-4.575,0.299-9.071-1.281-12.342-4.53C305.276,448.189,303.606,443.71,303.968,439.15z"/>
	<path d="M547.738,291.64c-0.1-0.21-0.1-0.43-0.211-0.64c-0.121-0.2-0.313-0.31-0.442-0.5c-10.168-17.34-22.198-33.47-35.857-48.09
		l21.604-21.47l14.223,14.14l42.667-42.43l-42.667-42.42l-42.677,42.42l14.232,14.15l-21.605,21.47
		c-14.705-13.58-30.919-25.55-48.369-35.66c-0.191-0.129-0.303-0.32-0.503-0.44c-0.212-0.12-0.433-0.109-0.644-0.22
		c-31.111-17.82-66.063-29.69-103.328-34.04V146h15.087c13.87,0,25.146-11.21,25.146-25s-11.284-25-25.156-25h-90.523
		c-13.87,0-25.145,11.21-25.145,25s11.275,25,25.145,25h15.088v11.56c-10.863,1.151-21.706,2.91-32.427,5.35
		c-5.412,1.23-8.802,6.601-7.555,11.98c1.237,5.38,6.639,8.76,12.05,7.51c9.253-2.11,18.597-3.701,27.961-4.771l10.793-0.83
		c3.299-0.25,6.336-0.43,9.293-0.57V196c0,5.53,4.496,10,10.059,10s10.059-4.47,10.059-10v-19.7
		c37.827,1.729,73.475,11.83,105.168,28.45l-9.917,17.07c-2.776,4.79-1.127,10.9,3.681,13.66c1.579,0.91,3.31,1.34,5.02,1.34
		c3.479,0,6.859-1.79,8.721-5l9.887-17.03c31.472,19.85,58.206,46.43,78.172,77.72l-17.129,9.83c-4.797,2.76-6.447,8.87-3.661,13.66
		c1.87,3.21,5.24,5,8.721,5c1.71,0,3.44-0.43,5.02-1.34l17.169-9.86c16.947,31.959,27.137,67.98,28.654,106.19h-19.863
		c-5.563,0-10.059,4.47-10.059,9.999c0,5.53,4.496,10.002,10.059,10.002h19.863c-1.518,38.208-11.707,74.229-28.654,106.189
		l-17.169-9.86c-4.809-2.76-10.964-1.14-13.74,3.659c-2.776,4.79-1.127,10.9,3.681,13.661l17.13,9.829
		c-19.966,31.29-46.7,57.87-78.173,77.72l-9.887-17.029c-2.786-4.8-8.952-6.43-13.74-3.66c-4.818,2.761-6.467,8.881-3.681,13.659
		l9.917,17.071c-31.692,16.619-67.34,26.72-105.169,28.449V656c0-5.53-4.495-10-10.057-10c-5.563,0-10.059,4.47-10.059,10v19.76
		c-16.063-0.551-32.177-2.55-48.038-6.17c-5.412-1.29-10.813,2.13-12.05,7.51c-1.247,5.381,2.142,10.75,7.554,11.979
		c20.076,4.602,40.584,6.921,60.933,6.921c0.493,0,0.966-0.029,1.458-0.04c0.07,0,0.121,0.04,0.182,0.04c0.08,0,0.15-0.05,0.23-0.05
		c48.351-0.331,93.713-13.31,132.96-35.73c0.312-0.14,0.643-0.21,0.945-0.39c0.202-0.12,0.312-0.311,0.503-0.44
		c40.625-23.54,74.572-57.249,98.298-97.609c0.192-0.271,0.433-0.48,0.604-0.78c0.121-0.21,0.11-0.43,0.211-0.64
		c22.973-39.601,36.18-85.461,36.18-134.36C583.908,377.1,570.701,331.24,547.738,291.64z M547.045,178.51l14.223,14.14
		l-14.223,14.15l-14.233-14.15L547.045,178.51z M303.918,156.209V126h-35.204c-2.765,0-5.029-2.25-5.029-5s2.264-5,5.029-5h90.523
		c2.768,0,5.03,2.25,5.03,5s-2.263,5-5.03,5h-35.202v30.209c-3.501-0.139-6.841-0.209-10.059-0.209c-0.282,0-0.604,0.02-0.885,0.02
		c-0.253,0-0.504-0.02-0.755-0.02c-1.65,0-3.3,0.11-4.949,0.14C306.222,156.17,305.125,156.16,303.918,156.209z"/>
	<path d="M223.453,236h-50.291c-5.563,0-10.059,4.47-10.059,10s4.496,10,10.059,10h50.291c5.562,0,10.058-4.47,10.058-10
		S229.015,236,223.453,236z"/>
	<path d="M223.453,306H122.87c-5.562,0-10.058,4.47-10.058,10s4.496,10,10.058,10h100.583c5.562,0,10.058-4.47,10.058-10
		S229.015,306,223.453,306z"/>
	<path d="M223.453,376H72.58c-5.562,0-10.058,4.47-10.058,10c0,5.53,4.496,10,10.058,10h150.873c5.562,0,10.058-4.47,10.058-10
		C233.511,380.47,229.015,376,223.453,376z"/>
	<path d="M223.453,446H32.347c-5.562,0-10.058,4.47-10.058,10s4.496,10,10.058,10h191.106c5.562,0,10.058-4.47,10.058-10
		S229.015,446,223.453,446z"/>
	<path d="M223.453,516H92.696c-5.562,0-10.058,4.47-10.058,10c0,5.529,4.496,10,10.058,10h130.757c5.562,0,10.058-4.471,10.058-10
		C233.511,520.47,229.015,516,223.453,516z"/>
	<path d="M223.453,586h-70.407c-5.563,0-10.059,4.47-10.059,10s4.496,10,10.059,10h70.407c5.562,0,10.058-4.47,10.058-10
		S229.015,586,223.453,586z"/>
</g>
</svg>
