<svg id="_35" data-name="35" xmlns="http://www.w3.org/2000/svg" viewBox="0 0 79.16 79.9"><defs><style>.cls-1{fill:#fff;}</style></defs><title>student</title><rect class="cls-1" x="-620.49" y="-400" width="800" height="800"/><path d="M53.2,67H26a.65.65,0,0,1-.61-.87l1.31-3.64a.65.65,0,0,1,.61-.43H51.87a.65.65,0,0,1,.61.43l1.26,3.5a.65.65,0,0,1-.54,1ZM26.9,65.65H52.26l-.84-2.34H27.75Z"/><path d="M60.56,76.94H56.79a.65.65,0,0,1-.61-.43L48.62,55.6a.65.65,0,0,1,.61-.87h3.82a.65.65,0,0,1,.61.43l7.5,20.91a.65.65,0,0,1-.61.87Zm-3.32-1.3h2.4L52.6,56H50.16Z"/><path d="M22.38,76.94H18.61a.65.65,0,0,1-.61-.87l7.49-20.91a.65.65,0,0,1,.61-.43h3.83a.65.65,0,0,1,.61.87L23,76.51A.65.65,0,0,1,22.38,76.94Zm-2.84-1.3h2.39L29,56H26.56Z"/><path d="M70.55,56H8.61A6.05,6.05,0,0,1,2.5,49.9V11.66A.65.65,0,0,1,3.15,11H76a.65.65,0,0,1,.65.65V49.9A6.06,6.06,0,0,1,70.55,56ZM3.8,12.31V49.9a4.71,4.71,0,0,0,4.81,4.82H70.55a4.71,4.71,0,0,0,4.81-4.82V12.31Z"/><path d="M78.51,12.31H.66A.65.65,0,0,1,0,11.66V8a.65.65,0,0,1,.65-.65H78.51a.65.65,0,0,1,.65.65v3.64A.65.65,0,0,1,78.51,12.31ZM1.31,11H77.85V8.66H1.31Z"/><path d="M41.4,8.66H37.76A.65.65,0,0,1,37.11,8V6.18a2.47,2.47,0,1,1,4.93,0V8A.65.65,0,0,1,41.4,8.66Zm-3-1.3h2.33V6.18a1.17,1.17,0,1,0-2.33,0Z"/><path d="M75.77,50H74.46a2,2,0,0,1-2-2l0-2.12a14.77,14.77,0,0,1-4-1.57l-1.44,1.42a1.84,1.84,0,0,1-1.39.57,1.94,1.94,0,0,1-1.38-.58L61.8,43.15a2,2,0,0,1-.57-1.39,2,2,0,0,1,.58-1.39L63.16,39A14.86,14.86,0,0,1,61.46,35H59.61a2,2,0,0,1-2-2l0-3.65a2,2,0,0,1,2-1.95h1.86a15.1,15.1,0,0,1,1.75-4L61.92,22a2,2,0,0,1,0-2.78l2.58-2.56a2,2,0,0,1,1.39-.57h0a1.93,1.93,0,0,1,1.39.58l1.42,1.45a14.87,14.87,0,0,1,4-1.53l0-2.11a2,2,0,0,1,2-2H76a.65.65,0,0,1,0,1.3H74.68a.67.67,0,0,0-.67.66l0,2.64a.65.65,0,0,1-.53.63A13.63,13.63,0,0,0,69,19.51a.65.65,0,0,1-.8-.1L66.38,17.6a.65.65,0,0,0-.46-.19h0a.67.67,0,0,0-.47.19l-2.58,2.56a.66.66,0,0,0-.2.47.65.65,0,0,0,.19.47l1.7,1.72a.65.65,0,0,1,.08.82,13.88,13.88,0,0,0-2,4.56.65.65,0,0,1-.63.5H59.65a.66.66,0,0,0-.67.65l0,3.65a.67.67,0,0,0,.66.66H62a.65.65,0,0,1,.63.51,13.59,13.59,0,0,0,1.92,4.59.65.65,0,0,1-.09.82l-1.72,1.7a.67.67,0,0,0-.2.47.65.65,0,0,0,.19.47l2.56,2.59a.65.65,0,0,0,.46.2h0a.65.65,0,0,0,.46-.19L68,43a.65.65,0,0,1,.8-.09,13.51,13.51,0,0,0,4.49,1.78.65.65,0,0,1,.52.64l0,2.65a.68.68,0,0,0,.67.67h1.3a.65.65,0,0,1,0,1.3Z"/><path d="M75.89,39.21h0a7.94,7.94,0,0,1,.1-15.85.65.65,0,1,1,.08,1.3,6.64,6.64,0,0,0-.08,13.25.65.65,0,0,1,0,1.3Z"/><path d="M75.77,51.2H3.43a.65.65,0,0,1,0-1.3H75.77a.65.65,0,0,1,0,1.3Z"/><path d="M26,50.73a1,1,0,0,1-.52-.14,1,1,0,0,1-.49-.93l.56-6.79a2.8,2.8,0,0,1,.23-.93.59.59,0,0,1,.08-.19l13-21.36a.65.65,0,0,1,.89-.22L45.95,24a.65.65,0,0,1,.21.89L33.22,46l-.06.11-.08.1a3.14,3.14,0,0,1-.82.75l-5.78,3.58A1,1,0,0,1,26,50.73ZM27,42.25l0,0a1.65,1.65,0,0,0-.2.67l-.51,6.21,5.28-3.27a1.84,1.84,0,0,0,.5-.47l12.64-20.7-5.09-3.11Z"/><path d="M46.7,23.33a.65.65,0,0,1-.34-.1l-6.17-3.77a.65.65,0,0,1-.22-.89l1.18-1.93a2.52,2.52,0,0,1,2.16-1.21,2.5,2.5,0,0,1,1.31.38l3,1.81a2.53,2.53,0,0,1,.85,3.46L47.25,23A.65.65,0,0,1,46.7,23.33ZM41.42,18.7l5.06,3.09.84-1.38a1.23,1.23,0,0,0-.41-1.68l-3-1.81a1.25,1.25,0,0,0-1.68.41Z"/><path d="M45.61,25.16a.65.65,0,0,1-.34-.1l-6.2-3.79a.65.65,0,0,1-.21-.9L40,18.57a.65.65,0,0,1,.4-.3.67.67,0,0,1,.49.08l6.2,3.79a.65.65,0,0,1,.22.89l-1.11,1.82A.65.65,0,0,1,45.61,25.16Zm-5.3-4.65,5.09,3.11.43-.71L40.74,19.8Z"/><path d="M29.24,48.75a.64.64,0,0,1-.34-.1l-3.35-2a.65.65,0,0,1,.68-1.11l3.35,2a.65.65,0,0,1-.34,1.21Z"/><path d="M32.41,46.62a.65.65,0,0,1-.34-.1L26,42.81a.65.65,0,0,1,.68-1.11l6.06,3.71a.65.65,0,0,1-.34,1.21Z"/><path d="M27.83,43.82a.65.65,0,0,1-.55-1l13.13-21.5a.65.65,0,0,1,1.11.68L28.38,43.51A.65.65,0,0,1,27.83,43.82Z"/><path d="M25.89,45.9H3.43a.65.65,0,1,1,0-1.3H25.89a.65.65,0,1,1,0,1.3Zm7.2,0a.65.65,0,0,1,0-1.3l31.4-.29h0a.65.65,0,0,1,0,1.3l-31.4.29Z"/><path d="M62.94,40.61H36.33a.65.65,0,0,1,0-1.3H62.94a.65.65,0,0,1,0,1.3Zm-35.29,0H3.15a.65.65,0,0,1,0-1.3H27.64a.65.65,0,1,1,0,1.3Z"/><path d="M62,35.31H39.64a.65.65,0,1,1,0-1.3H62a.65.65,0,1,1,0,1.3Zm-31.16,0H3.43a.65.65,0,1,1,0-1.3h27.4a.65.65,0,0,1,0,1.3Z"/><path d="M58,30H42.63a.65.65,0,1,1,0-1.3H58A.65.65,0,0,1,58,30ZM34,30H3.43a.65.65,0,0,1,0-1.3H34A.65.65,0,0,1,34,30Z"/><path d="M63.38,24.71H45.85a.65.65,0,1,1,0-1.3H63.38a.65.65,0,1,1,0,1.3Zm-26.12,0H3.43a.65.65,0,1,1,0-1.3H37.26a.65.65,0,1,1,0,1.3Z"/><path d="M3.43,19.32a.65.65,0,1,1,0-1.3l37.14,0h0a.65.65,0,1,1,0,1.3l-37.14,0Zm59.95,0H47.82a.65.65,0,1,1,0-1.3H63.38a.65.65,0,1,1,0,1.3Z"/></svg>