<svg xmlns="http://www.w3.org/2000/svg" xmlns:xlink="http://www.w3.org/1999/xlink" viewBox="0 0 362.12 430"><defs><style>.cls-1{isolation:isolate;}.cls-2,.cls-20,.cls-47,.cls-60,.cls-65,.cls-67{fill:none;}.cls-2,.cls-60,.cls-66{stroke:#fff;}.cls-2,.cls-20,.cls-60,.cls-65,.cls-66{stroke-miterlimit:10;}.cls-2,.cls-47,.cls-67{stroke-width:2px;}.cls-10,.cls-12,.cls-13,.cls-14,.cls-17,.cls-18,.cls-23,.cls-27,.cls-3,.cls-31,.cls-33,.cls-34,.cls-37,.cls-39,.cls-4,.cls-50,.cls-51,.cls-52,.cls-57{mix-blend-mode:multiply;}.cls-3{fill:url(#linear-gradient);}.cls-4{fill:url(#linear-gradient-2);}.cls-5{fill:#263238;}.cls-6{fill:#5e4137;}.cls-7{fill:#90a4ae;}.cls-8{fill:#4675ba;}.cls-9{fill:#edeff0;}.cls-10{fill:url(#linear-gradient-3);}.cls-11{fill:#cfd8dc;}.cls-12{fill:url(#linear-gradient-4);}.cls-13{fill:url(#linear-gradient-5);}.cls-14{fill:url(#linear-gradient-6);}.cls-15{fill:#fdcba5;}.cls-16{fill:#eab588;}.cls-17{fill:url(#linear-gradient-7);}.cls-18{fill:url(#linear-gradient-8);}.cls-19,.cls-62,.cls-66{fill:#fff;}.cls-20{stroke:#102a4c;stroke-width:1.5px;}.cls-20,.cls-47,.cls-60,.cls-65,.cls-67{stroke-linecap:round;}.cls-21{fill:#d71b61;}.cls-22{fill:#f06492;}.cls-23{opacity:0.5;fill:url(#linear-gradient-9);}.cls-24{fill:#ec417b;}.cls-25{fill:#faa627;}.cls-26{fill:#f78c20;}.cls-27{fill:url(#linear-gradient-10);}.cls-28{fill:#fcb64e;}.cls-29{fill:#229896;}.cls-30{fill:#71cac5;}.cls-31{fill:url(#linear-gradient-11);}.cls-32{fill:#56bbb4;}.cls-33{fill:url(#linear-gradient-12);}.cls-34{fill:url(#linear-gradient-13);}.cls-35{fill:#e5e5e5;}.cls-36{fill:#78909c;}.cls-37{fill:url(#linear-gradient-14);}.cls-38{fill:#d28d59;}.cls-39{fill:url(#linear-gradient-15);}.cls-40{fill:#bec8cc;}.cls-41{fill:#416671;}.cls-42{fill:#2f3333;}.cls-43{fill:#42494a;}.cls-44{fill:#d0d2d3;}.cls-45{fill:#7b86c2;}.cls-46{fill:#3f4da1;}.cls-47{stroke:#b5e4fa;}.cls-47,.cls-67{stroke-linejoin:round;}.cls-48{fill:#ffe0b2;}.cls-49{fill:#102a4c;}.cls-50{fill:url(#linear-gradient-16);}.cls-51{fill:url(#linear-gradient-17);}.cls-52{fill:url(#linear-gradient-18);}.cls-53{fill:#863e1d;}.cls-54{fill:#9d5b36;}.cls-55{fill:#3e2723;}.cls-56{fill:#368f43;}.cls-57{fill:url(#linear-gradient-19);}.cls-58{fill:#366b34;}.cls-59{fill:#fcd737;}.cls-60{stroke-dasharray:5.08 5.08;}.cls-61{fill:#37474f;}.cls-62{opacity:0.8;}.cls-63{fill:#fef8c5;opacity:0.67;mix-blend-mode:hard-light;}.cls-64{fill:#fec44f;}.cls-65{stroke:#37474f;}.cls-66{stroke-width:0.75px;}.cls-67{stroke:#f06492;}</style><linearGradient id="linear-gradient" x1="5.27" y1="633.25" x2="185.17" y2="148.25" gradientUnits="userSpaceOnUse"><stop offset="0" stop-color="#ad69a5"/><stop offset="0.11" stop-color="#b171aa" stop-opacity="0.95"/><stop offset="0.3" stop-color="#bd87b7" stop-opacity="0.8"/><stop offset="0.54" stop-color="#d0aacc" stop-opacity="0.57"/><stop offset="0.81" stop-color="#ebdae9" stop-opacity="0.25"/><stop offset="1" stop-color="#fff" stop-opacity="0"/></linearGradient><linearGradient id="linear-gradient-2" x1="83.55" y1="485.33" x2="294.88" y2="195.85" xlink:href="#linear-gradient"/><linearGradient id="linear-gradient-3" x1="53.07" y1="378.11" x2="112.12" y2="378.11" gradientUnits="userSpaceOnUse"><stop offset="0" stop-color="#fff" stop-opacity="0"/><stop offset="1" stop-color="#90a4ae"/></linearGradient><linearGradient id="linear-gradient-4" x1="83.96" y1="376.92" x2="83.96" y2="349.57" xlink:href="#linear-gradient-3"/><linearGradient id="linear-gradient-5" x1="56.45" y1="365.74" x2="98.18" y2="287.55" xlink:href="#linear-gradient-3"/><linearGradient id="linear-gradient-6" x1="68.43" y1="366.73" x2="87.62" y2="273.19" xlink:href="#linear-gradient-3"/><linearGradient id="linear-gradient-7" x1="277.28" y1="248.1" x2="310.81" y2="248.1" xlink:href="#linear-gradient"/><linearGradient id="linear-gradient-8" x1="97.34" y1="172.32" x2="156.87" y2="172.32" xlink:href="#linear-gradient"/><linearGradient id="linear-gradient-9" x1="98.6" y1="123.96" x2="125.79" y2="160.11" gradientUnits="userSpaceOnUse"><stop offset="0" stop-color="#fff" stop-opacity="0"/><stop offset="0.17" stop-color="#ecdae1" stop-opacity="0.22"/><stop offset="0.45" stop-color="#cfa4b5" stop-opacity="0.56"/><stop offset="0.69" stop-color="#ba7c94" stop-opacity="0.8"/><stop offset="0.88" stop-color="#ad6480" stop-opacity="0.95"/><stop offset="1" stop-color="#a85b79"/></linearGradient><linearGradient id="linear-gradient-10" x1="117.79" y1="144.11" x2="139.86" y2="155.94" gradientUnits="userSpaceOnUse"><stop offset="0" stop-color="#fff" stop-opacity="0"/><stop offset="0.15" stop-color="#feeed6" stop-opacity="0.19"/><stop offset="0.38" stop-color="#fdd598" stop-opacity="0.47"/><stop offset="0.59" stop-color="#fbc168" stop-opacity="0.7"/><stop offset="0.77" stop-color="#fbb244" stop-opacity="0.86"/><stop offset="0.91" stop-color="#faa92f" stop-opacity="0.96"/><stop offset="1" stop-color="#faa627"/></linearGradient><linearGradient id="linear-gradient-11" x1="121.47" y1="164.36" x2="151.11" y2="164.36" gradientUnits="userSpaceOnUse"><stop offset="0" stop-color="#fff" stop-opacity="0"/><stop offset="0.2" stop-color="#cee9ea" stop-opacity="0.26"/><stop offset="0.47" stop-color="#94ced2" stop-opacity="0.58"/><stop offset="0.71" stop-color="#6abbc0" stop-opacity="0.81"/><stop offset="0.89" stop-color="#50afb5" stop-opacity="0.95"/><stop offset="1" stop-color="#46abb1"/></linearGradient><linearGradient id="linear-gradient-12" x1="152.79" y1="244.23" x2="199.05" y2="152.92" xlink:href="#linear-gradient"/><linearGradient id="linear-gradient-13" x1="180.46" y1="257.84" x2="240.67" y2="262.22" xlink:href="#linear-gradient"/><linearGradient id="linear-gradient-14" x1="214.89" y1="275.68" x2="261.14" y2="184.37" xlink:href="#linear-gradient"/><linearGradient id="linear-gradient-15" x1="39.21" y1="275.4" x2="204.55" y2="246.73" xlink:href="#linear-gradient"/><linearGradient id="linear-gradient-16" x1="48.17" y1="230.85" x2="48.17" y2="308.92" xlink:href="#linear-gradient-3"/><linearGradient id="linear-gradient-17" x1="35.63" y1="263.35" x2="35.63" y2="371.28" xlink:href="#linear-gradient-3"/><linearGradient id="linear-gradient-18" x1="25.25" y1="354.73" x2="43.62" y2="336.36" xlink:href="#linear-gradient-3"/><linearGradient id="linear-gradient-19" x1="270.94" y1="212.19" x2="287.63" y2="238.32" gradientUnits="userSpaceOnUse"><stop offset="0" stop-color="#fff" stop-opacity="0"/><stop offset="0.07" stop-color="#edf5ee" stop-opacity="0.09"/><stop offset="0.38" stop-color="#9fc9a5" stop-opacity="0.48"/><stop offset="0.66" stop-color="#66aa70" stop-opacity="0.76"/><stop offset="0.87" stop-color="#43964f" stop-opacity="0.94"/><stop offset="1" stop-color="#368f43"/></linearGradient></defs><title>student</title><g class="cls-1"><g id="Layer_1" data-name="Layer 1"><g id="_Group_" data-name="&lt;Group&gt;"><path id="_Path_" data-name="&lt;Path&gt;" class="cls-2" d="M291.69,156.33c0,1.06-.75,1.49-1.67,1a3.69,3.69,0,0,1-1.67-2.89c0-1.06.75-1.49,1.67-1A3.69,3.69,0,0,1,291.69,156.33Z"/><path id="_Path_2" data-name="&lt;Path&gt;" class="cls-2" d="M155.77,38.23c0,1.06-.75,1.49-1.67,1a3.69,3.69,0,0,1-1.67-2.89c0-1.06.75-1.49,1.67-1A3.69,3.69,0,0,1,155.77,38.23Z"/><path id="_Path_3" data-name="&lt;Path&gt;" class="cls-2" d="M312.48,116.9c0,1.06-.75,1.49-1.67,1a3.69,3.69,0,0,1-1.67-2.89c0-1.06.75-1.49,1.67-1A3.69,3.69,0,0,1,312.48,116.9Z"/><path id="_Path_4" data-name="&lt;Path&gt;" class="cls-2" d="M166.59,22c0,1.06-.75,1.49-1.67,1a3.69,3.69,0,0,1-1.67-2.89c0-1.06.75-1.49,1.67-1A3.69,3.69,0,0,1,166.59,22Z"/><path id="_Path_5" data-name="&lt;Path&gt;" class="cls-2" d="M223.68,86.4c0,1.06-.75,1.49-1.67,1a3.69,3.69,0,0,1-1.67-2.89c0-1.06.75-1.49,1.67-1A3.69,3.69,0,0,1,223.68,86.4Z"/><path id="_Path_6" data-name="&lt;Path&gt;" class="cls-2" d="M282,181.24c0,1.06-.75,1.49-1.67,1a3.69,3.69,0,0,1-1.67-2.89c0-1.06.75-1.49,1.67-1A3.69,3.69,0,0,1,282,181.24Z"/><path id="_Path_7" data-name="&lt;Path&gt;" class="cls-2" d="M107.46,47.31c0,1.06-.75,1.49-1.67,1a3.69,3.69,0,0,1-1.67-2.89c0-1.06.75-1.49,1.67-1A3.69,3.69,0,0,1,107.46,47.31Z"/><path id="_Path_8" data-name="&lt;Path&gt;" class="cls-2" d="M306.93,150.76c0,3.6-2.53,5.06-5.64,3.26a12.47,12.47,0,0,1-5.64-9.77c0-3.6,2.53-5.06,5.64-3.26A12.47,12.47,0,0,1,306.93,150.76Z"/><path id="_Path_9" data-name="&lt;Path&gt;" class="cls-2" d="M104,65.44c0,3.6-2.53,5.06-5.64,3.26a12.47,12.47,0,0,1-5.64-9.77c0-3.6,2.53-5.06,5.64-3.26A12.47,12.47,0,0,1,104,65.44Z"/><path id="_Path_10" data-name="&lt;Path&gt;" class="cls-3" d="M81.56,421,40.8,397.46a10.12,10.12,0,0,1,0-17.53L81.56,356.4a28.83,28.83,0,0,1,28.83,0l40.76,23.53a10.12,10.12,0,0,1,0,17.53L110.4,421A28.83,28.83,0,0,1,81.56,421Z"/><polygon id="_Path_11" data-name="&lt;Path&gt;" class="cls-4" points="208.72 420.31 243.86 420.31 362.12 352.03 151.69 230.54 39.38 297.55 235.52 408.98 208.79 408.94 208.72 420.31"/><g id="_Group_2" data-name="&lt;Group&gt;"><path id="_Path_12" data-name="&lt;Path&gt;" class="cls-5" d="M117,344s16.46-5.64,21.86-3.94.9,11.68-12.41,19-18.65,5.07-21.33,1.71c-2.11-2.65,1.85-13.35,1.85-13.35Z"/><path id="_Path_13" data-name="&lt;Path&gt;" class="cls-6" d="M95.57,243.21s18.45-11,25.89,7c6.87,16.62-2.15,87-3.57,97.66a2.72,2.72,0,0,1-1.56,2.12,8.9,8.9,0,0,1-6.77.41,4.2,4.2,0,0,1-2.64-3L90,277.22Z"/></g><g id="_Group_3" data-name="&lt;Group&gt;"><path id="_Path_14" data-name="&lt;Path&gt;" class="cls-5" d="M144,358.9s16.46-5.64,21.86-3.94.9,11.68-12.41,19-18.65,5.07-21.33,1.71c-2.11-2.65,1.85-13.35,1.85-13.35Z"/><path id="_Path_15" data-name="&lt;Path&gt;" class="cls-6" d="M122.6,258.09s18.45-11,25.89,7c6.87,16.62-2.15,87-3.57,97.66a2.72,2.72,0,0,1-1.56,2.12,8.9,8.9,0,0,1-6.77.41,4.2,4.2,0,0,1-2.64-3L117.06,292.1Z"/></g><g id="_Group_4" data-name="&lt;Group&gt;"><g id="_Group_5" data-name="&lt;Group&gt;"><g id="_Group_6" data-name="&lt;Group&gt;"><path id="_Path_16" data-name="&lt;Path&gt;" class="cls-7" d="M84,384.91l30.37-17.54a2,2,0,0,0,1.15-1.73l.06,0V373l-.12.06a2.08,2.08,0,0,1-1.09,1.45L84,392.06v-7.15Z"/><path id="_Path_17" data-name="&lt;Path&gt;" class="cls-7" d="M115.52,402.88h0v-7.41L52.37,365.62V373l.12.06a2.08,2.08,0,0,0,1.09,1.45l53.28,30.76a7.76,7.76,0,0,0,7-.29A3,3,0,0,0,115.52,402.88Z"/><g id="_Group_7" data-name="&lt;Group&gt;"><path id="_Path_18" data-name="&lt;Path&gt;" class="cls-7" d="M54.08,405a3,3,0,0,1-1.68-2.12h0v-7.09a3,3,0,0,0,1.69,2.06,7.76,7.76,0,0,0,7,.29L84,384.91h0v7.15L61.06,405.29A7.76,7.76,0,0,1,54.08,405Z"/><path id="_Path_19" data-name="&lt;Path&gt;" class="cls-8" d="M114.34,393.82,91.44,380.6l22.9-13.22a2,2,0,0,0,1.15-1.73,2.76,2.76,0,0,0-1.65-2.3,7.76,7.76,0,0,0-7-.29L84,376.28l-22.9-13.22a7.76,7.76,0,0,0-7,.29c-2.07,1.19-2.29,3-.5,4l22.9,13.22-22.9,13.22a2,2,0,0,0-1.12,1.61c0,.11-.08.21-.07.33v0a3,3,0,0,0,1.69,2.06,7.76,7.76,0,0,0,7,.29L84,384.92l22.9,13.22a7.76,7.76,0,0,0,7-.29C115.9,396.66,116.13,394.86,114.34,393.82Z"/><path id="_Path_20" data-name="&lt;Path&gt;" class="cls-9" d="M114.34,393.82,91.44,380.6l22.9-13.22a2,2,0,0,0,1.15-1.73,2.76,2.76,0,0,0-1.65-2.3,7.76,7.76,0,0,0-7-.29L84,376.28l-22.9-13.22a7.76,7.76,0,0,0-7,.29c-2.07,1.19-2.29,3-.5,4l22.9,13.22-22.9,13.22a2,2,0,0,0-1.12,1.61c0,.11-.08.21-.07.33v0a3,3,0,0,0,1.69,2.06,7.76,7.76,0,0,0,7,.29L84,384.92l22.9,13.22a7.76,7.76,0,0,0,7-.29C115.9,396.66,116.13,394.86,114.34,393.82Z"/><polygon id="_Path_21" data-name="&lt;Path&gt;" class="cls-10" points="91.44 380.6 98.95 376.26 102.8 374.04 87.84 374.04 83.96 376.28 83.96 376.28 83.96 382.17 94.16 382.17 91.44 380.6"/></g></g><path id="_Path_22" data-name="&lt;Path&gt;" class="cls-11" d="M84,382.17h0a6.57,6.57,0,0,0,6.57-6.57v-26H77.38v26A6.57,6.57,0,0,0,84,382.17Z"/><path id="_Path_23" data-name="&lt;Path&gt;" class="cls-12" d="M84,382.17h0a6.57,6.57,0,0,0,6.57-6.57v-26H77.38v26A6.57,6.57,0,0,0,84,382.17Z"/></g><path id="_Path_24" data-name="&lt;Path&gt;" class="cls-7" d="M22.65,316.27l26.92-1,25.5-14.74c4.25-2.45,10.67-2.72,14.35-.59l22.52,13,23.91-.89v17.11h0c-.11,1.55-1.27,3.17-3.48,4.44L83.42,361.86c-4.25,2.45-10.67,2.72-14.35.59L25.13,337.08a4.27,4.27,0,0,1-2.43-3.46h0Z"/><path id="_Path_25" data-name="&lt;Path&gt;" class="cls-13" d="M22.65,316.27l26.92-1,25.5-14.74c4.25-2.45,10.67-2.72,14.35-.59l22.52,13,23.91-.89v17.11h0c-.11,1.55-1.27,3.17-3.48,4.44L83.42,361.86c-4.25,2.45-10.67,2.72-14.35.59L25.13,337.08a4.27,4.27,0,0,1-2.43-3.46h0Z"/><path id="_Path_26" data-name="&lt;Path&gt;" class="cls-9" d="M25.13,319.91l43.94,25.37c3.68,2.12,10.1,1.86,14.35-.59l48.91-28.27c4.25-2.45,4.71-6.16,1-8.28L89.42,282.76c-3.68-2.12-10.1-1.86-14.35.59L26.16,311.63C21.92,314.08,21.45,317.79,25.13,319.91Z"/><path id="_Path_27" data-name="&lt;Path&gt;" class="cls-14" d="M25.13,319.91l43.94,25.37c3.68,2.12,10.1,1.86,14.35-.59l48.91-28.27c4.25-2.45,4.71-6.16,1-8.28L89.42,282.76c-3.68-2.12-10.1-1.86-14.35.59L26.16,311.63C21.92,314.08,21.45,317.79,25.13,319.91Z"/></g><path id="_Path_28" data-name="&lt;Path&gt;" class="cls-6" d="M29.69,289.34s.56,41.85,47.69,41.85c20.87,0,66.36-35.14,66.36-35.14s5.08-15.91-6.45-24.18S96,250.63,96,250.63Z"/><polygon id="_Path_29" data-name="&lt;Path&gt;" class="cls-7" points="32.71 310.9 25.96 314.8 25.96 215.14 32.71 211.24 32.71 310.9"/><polygon id="_Path_30" data-name="&lt;Path&gt;" class="cls-15" points="297.31 361.37 304.06 365.27 304.06 265.61 297.31 261.71 297.31 361.37"/><polygon id="_Path_31" data-name="&lt;Path&gt;" class="cls-16" points="208.72 311.68 19.21 202.27 121.3 143.33 310.81 252.74 208.72 311.68"/><polygon id="_Path_32" data-name="&lt;Path&gt;" class="cls-17" points="277.28 257.08 302.82 257.08 310.81 252.74 287.23 239.13 277.28 257.08"/><polygon id="_Path_33" data-name="&lt;Path&gt;" class="cls-18" points="97.34 174.4 117.06 174.4 121.47 188.11 156.87 188.11 156.87 169.98 118.82 156.52 97.34 174.4"/><g id="_Group_8" data-name="&lt;Group&gt;"><polygon id="_Path_34" data-name="&lt;Path&gt;" class="cls-9" points="225.16 297.55 190.95 277.8 236.18 251.69 270.39 271.44 225.16 297.55"/><polygon id="_Path_35" data-name="&lt;Path&gt;" class="cls-19" points="226.31 292.3 192.09 272.55 237.32 246.44 271.53 266.19 226.31 292.3"/><g id="_Group_9" data-name="&lt;Group&gt;"><line id="_Path_36" data-name="&lt;Path&gt;" class="cls-20" x1="235.86" y1="251.56" x2="260.95" y2="266.05"/><line id="_Path_37" data-name="&lt;Path&gt;" class="cls-20" x1="231.81" y1="254.46" x2="256.9" y2="268.94"/><line id="_Path_38" data-name="&lt;Path&gt;" class="cls-20" x1="227.77" y1="257.35" x2="252.86" y2="271.84"/><line id="_Path_39" data-name="&lt;Path&gt;" class="cls-20" x1="223.72" y1="260.25" x2="248.81" y2="274.73"/></g></g><g id="_Group_10" data-name="&lt;Group&gt;"><polygon id="_Path_40" data-name="&lt;Path&gt;" class="cls-21" points="119.47 152.84 89.61 169.98 89.61 122.58 119.47 105.44 119.47 152.84"/><polygon id="_Path_41" data-name="&lt;Path&gt;" class="cls-22" points="97.34 174.4 88.64 169.38 88.64 121.92 97.34 126.95 97.34 174.4"/><polygon id="_Path_42" data-name="&lt;Path&gt;" class="cls-21" points="127.19 157.26 97.34 174.4 97.34 127 127.19 109.86 127.19 157.26"/><polygon id="_Path_43" data-name="&lt;Path&gt;" class="cls-23" points="127.19 157.26 97.34 174.4 97.34 127 127.19 109.86 127.19 157.26"/><polygon id="_Path_44" data-name="&lt;Path&gt;" class="cls-24" points="127.19 109.83 126.22 109.27 97.33 125.79 90.68 121.96 119.47 105.44 118.49 104.88 89.66 121.37 89.65 121.37 88.64 121.96 89.61 122.58 89.67 122.55 97.34 127 98.39 126.39 98.36 126.38 127.19 109.83"/><polygon id="_Path_45" data-name="&lt;Path&gt;" class="cls-19" points="92.66 123.1 119.47 107.72 124.2 110.42 97.33 125.79 92.66 123.1"/></g><g id="_Group_11" data-name="&lt;Group&gt;"><polygon id="_Path_46" data-name="&lt;Path&gt;" class="cls-25" points="133.5 160.84 110.61 174 110.61 131.39 133.5 118.24 133.5 160.84"/><polygon id="_Path_47" data-name="&lt;Path&gt;" class="cls-26" points="118.34 178.42 109.64 173.39 109.64 130.74 118.34 135.76 118.34 178.42"/><polygon id="_Path_48" data-name="&lt;Path&gt;" class="cls-25" points="141.23 165.26 118.34 178.42 118.34 135.81 141.23 122.66 141.23 165.26"/><polygon id="_Path_49" data-name="&lt;Path&gt;" class="cls-27" points="141.23 165.26 118.34 178.42 118.34 135.81 141.23 122.66 141.23 165.26"/><polygon id="_Path_50" data-name="&lt;Path&gt;" class="cls-28" points="141.23 122.63 140.26 122.07 118.33 134.6 111.68 130.78 133.5 118.24 132.53 117.68 110.66 130.19 110.65 130.19 109.64 130.77 110.61 131.39 110.67 131.37 118.34 135.81 119.39 135.21 119.36 135.19 141.23 122.63"/><polygon id="_Path_51" data-name="&lt;Path&gt;" class="cls-19" points="113.66 131.92 133.5 120.52 138.24 123.23 118.33 134.6 113.66 131.92"/></g><g id="_Group_12" data-name="&lt;Group&gt;"><polygon id="_Path_52" data-name="&lt;Path&gt;" class="cls-29" points="143.38 166.57 113.74 183.69 113.74 153.31 143.38 136.2 143.38 166.57"/><polygon id="_Path_53" data-name="&lt;Path&gt;" class="cls-30" points="121.47 188.11 112.77 183.09 112.77 152.66 121.47 157.68 121.47 188.11"/><polygon id="_Path_54" data-name="&lt;Path&gt;" class="cls-29" points="151.11 171 121.47 188.11 121.47 157.73 151.11 140.62 151.11 171"/><polygon id="_Path_55" data-name="&lt;Path&gt;" class="cls-31" points="151.11 171 121.47 188.11 121.47 157.73 151.11 140.62 151.11 171"/><polygon id="_Path_56" data-name="&lt;Path&gt;" class="cls-32" points="151.11 140.59 150.14 140.02 121.46 156.52 114.81 152.7 143.38 136.2 142.41 135.63 113.78 152.1 113.78 152.1 112.77 152.69 113.74 153.31 113.79 153.28 121.47 157.73 122.52 157.13 122.49 157.11 151.11 140.59"/><polygon id="_Path_57" data-name="&lt;Path&gt;" class="cls-19" points="116.79 153.84 143.38 138.48 148.12 141.18 121.46 156.52 116.79 153.84"/></g><path id="_Path_58" data-name="&lt;Path&gt;" class="cls-33" d="M176.18,202.17,144,183.7a1.63,1.63,0,0,1-.19-2.7l9.42-7.31,56.32,39.81Z"/><g id="_Group_13" data-name="&lt;Group&gt;"><path id="_Path_59" data-name="&lt;Path&gt;" class="cls-34" d="M220.54,255.49l-5.85-3.34-19.24,15H205a18.23,18.23,0,0,0,9.11-2.44l6.4-3.69A3.17,3.17,0,0,0,220.54,255.49Z"/><path id="_Path_60" data-name="&lt;Path&gt;" class="cls-19" d="M214.64,248.13l-8.14-4.73a7.51,7.51,0,0,0-6.42-.54L191.64,246a13.58,13.58,0,0,0-8.8,12.76A2.51,2.51,0,0,0,184.1,261l9.93,5.77a2.85,2.85,0,0,0,2.86,0l.61-.35-2-1.39a13.57,13.57,0,0,1,8.75-11.62l9.75-3.67,2,1.61v-.78A2.78,2.78,0,0,0,214.64,248.13Z"/><path id="_Path_61" data-name="&lt;Path&gt;" class="cls-35" d="M204.24,253.36l10.06-3.79a1.27,1.27,0,0,1,1.72,1.19v3.67a2.13,2.13,0,0,1-1.06,1.85L196.7,266.83a.84.84,0,0,1-1.25-.72h0a13.58,13.58,0,0,1,3.56-9.2h0A13.58,13.58,0,0,1,204.24,253.36Z"/><polygon id="_Path_62" data-name="&lt;Path&gt;" class="cls-36" points="208.74 244.7 198.75 247.62 199.2 247.89 209.2 244.97 208.74 244.7"/><path id="_Path_63" data-name="&lt;Path&gt;" class="cls-36" d="M205.24,244.48l-4.69,1.35a.79.79,0,0,0-.56.61h0a.79.79,0,0,0,.38.84l.7.4a.79.79,0,0,0,.62.08l4.69-1.35a.79.79,0,0,0,.56-.61h0a.79.79,0,0,0-.38-.84l-.7-.4A.79.79,0,0,0,205.24,244.48Z"/></g><path id="_Path_64" data-name="&lt;Path&gt;" class="cls-37" d="M183.52,231.35h4.2a22.08,22.08,0,0,0,10.78-2.81l12-6.69,48.59,28.09a9.64,9.64,0,0,0,9.69,0l18.48-10.79-75.64-43.67Z"/><g id="_Group_14" data-name="&lt;Group&gt;"><polygon id="_Path_65" data-name="&lt;Path&gt;" class="cls-38" points="208.72 311.68 208.72 320.65 310.81 261.71 310.81 252.74 208.72 311.68"/><polygon id="_Path_66" data-name="&lt;Path&gt;" class="cls-38" points="215.47 416.41 215.47 316.75 208.72 320.65 208.72 420.31 215.47 416.41"/><polygon id="_Path_67" data-name="&lt;Path&gt;" class="cls-38" points="304.06 365.27 310.81 361.37 310.81 261.71 304.06 265.61 304.06 365.27"/></g><g id="_Group_15" data-name="&lt;Group&gt;"><polygon id="_Path_68" data-name="&lt;Path&gt;" class="cls-15" points="19.21 202.27 19.21 211.24 19.21 310.9 25.96 314.8 25.96 215.14 208.72 320.65 208.72 311.68 19.21 202.27"/><polygon id="_Path_69" data-name="&lt;Path&gt;" class="cls-15" points="201.97 416.41 208.72 420.31 208.72 320.65 201.97 316.75 201.97 416.41"/></g><path id="_Path_70" data-name="&lt;Path&gt;" class="cls-39" d="M118.32,222.93c.63.15,61.8,17.72,61.8,17.72l8.16,5.47-.63,16.9-26.74,21.06v9l-50.29-29Z"/><g id="_Group_16" data-name="&lt;Group&gt;"><polygon id="_Path_71" data-name="&lt;Path&gt;" class="cls-40" points="180.14 236.91 180.12 240.65 159.16 252.83 159.17 249.09 180.14 236.91"/><polygon id="_Path_72" data-name="&lt;Path&gt;" class="cls-35" points="159.17 249.09 159.16 252.83 103.94 220.95 103.96 217.21 159.17 249.09"/><polygon id="_Path_73" data-name="&lt;Path&gt;" class="cls-19" points="180.14 236.91 159.17 249.09 103.96 217.21 124.92 205.03 180.14 236.91"/><g id="_Group_17" data-name="&lt;Group&gt;"><g id="_Group_18" data-name="&lt;Group&gt;" class="cls-1"><g id="_Group_19" data-name="&lt;Group&gt;"><polygon id="_Path_74" data-name="&lt;Path&gt;" class="cls-41" points="133.47 212.53 133.46 213.65 129.34 216.05 129.34 214.93 133.47 212.53"/></g><g id="_Group_20" data-name="&lt;Group&gt;"><polygon id="_Path_75" data-name="&lt;Path&gt;" class="cls-40" points="129.34 214.93 129.34 216.05 121.12 211.31 121.13 210.19 129.34 214.93"/></g><g id="_Group_21" data-name="&lt;Group&gt;"><polygon id="_Path_76" data-name="&lt;Path&gt;" class="cls-36" points="133.47 212.53 129.34 214.93 121.13 210.19 125.25 207.79 133.47 212.53"/></g></g><g id="_Group_22" data-name="&lt;Group&gt;" class="cls-1"><g id="_Group_23" data-name="&lt;Group&gt;"><polygon id="_Path_77" data-name="&lt;Path&gt;" class="cls-41" points="127.76 215.84 127.76 216.97 123.63 219.37 123.63 218.24 127.76 215.84"/></g><g id="_Group_24" data-name="&lt;Group&gt;"><polygon id="_Path_78" data-name="&lt;Path&gt;" class="cls-40" points="123.63 218.24 123.63 219.37 115.42 214.63 115.42 213.5 123.63 218.24"/></g><g id="_Group_25" data-name="&lt;Group&gt;"><polygon id="_Path_79" data-name="&lt;Path&gt;" class="cls-36" points="127.76 215.84 123.63 218.24 115.42 213.5 119.55 211.1 127.76 215.84"/></g></g><g id="_Group_26" data-name="&lt;Group&gt;" class="cls-1"><g id="_Group_27" data-name="&lt;Group&gt;"><polygon id="_Path_80" data-name="&lt;Path&gt;" class="cls-42" points="118.82 217.31 118.82 218.44 114.69 220.84 114.69 219.71 118.82 217.31"/></g><g id="_Group_28" data-name="&lt;Group&gt;"><polygon id="_Path_81" data-name="&lt;Path&gt;" class="cls-42" points="114.69 219.71 114.69 220.84 109.7 217.95 109.7 216.83 114.69 219.71"/></g><g id="_Group_29" data-name="&lt;Group&gt;"><polygon id="_Path_82" data-name="&lt;Path&gt;" class="cls-43" points="118.82 217.31 114.69 219.71 109.7 216.83 113.83 214.43 118.82 217.31"/></g></g><g id="_Group_30" data-name="&lt;Group&gt;" class="cls-1"><g id="_Group_31" data-name="&lt;Group&gt;"><polygon id="_Path_83" data-name="&lt;Path&gt;" class="cls-41" points="139.97 216.28 139.97 217.41 135.84 219.81 135.84 218.68 139.97 216.28"/></g><g id="_Group_32" data-name="&lt;Group&gt;"><polygon id="_Path_84" data-name="&lt;Path&gt;" class="cls-40" points="135.84 218.68 135.84 219.81 131.1 217.07 131.1 215.95 135.84 218.68"/></g><g id="_Group_33" data-name="&lt;Group&gt;"><polygon id="_Path_85" data-name="&lt;Path&gt;" class="cls-36" points="139.97 216.28 135.84 218.68 131.1 215.95 135.23 213.55 139.97 216.28"/></g></g><g id="_Group_34" data-name="&lt;Group&gt;" class="cls-1"><g id="_Group_35" data-name="&lt;Group&gt;"><polygon id="_Path_86" data-name="&lt;Path&gt;" class="cls-41" points="134.27 219.6 134.26 220.72 130.13 223.12 130.14 222 134.27 219.6"/></g><g id="_Group_36" data-name="&lt;Group&gt;"><polygon id="_Path_87" data-name="&lt;Path&gt;" class="cls-40" points="130.14 222 130.13 223.12 125.39 220.39 125.4 219.26 130.14 222"/></g><g id="_Group_37" data-name="&lt;Group&gt;"><polygon id="_Path_88" data-name="&lt;Path&gt;" class="cls-36" points="134.27 219.6 130.14 222 125.4 219.26 129.53 216.86 134.27 219.6"/></g></g><g id="_Group_38" data-name="&lt;Group&gt;" class="cls-1"><g id="_Group_39" data-name="&lt;Group&gt;"><polygon id="_Path_89" data-name="&lt;Path&gt;" class="cls-41" points="146.32 219.95 146.32 221.08 142.19 223.47 142.19 222.35 146.32 219.95"/></g><g id="_Group_40" data-name="&lt;Group&gt;"><polygon id="_Path_90" data-name="&lt;Path&gt;" class="cls-40" points="142.19 222.35 142.19 223.47 137.45 220.74 137.45 219.61 142.19 222.35"/></g><g id="_Group_41" data-name="&lt;Group&gt;"><polygon id="_Path_91" data-name="&lt;Path&gt;" class="cls-36" points="146.32 219.95 142.19 222.35 137.45 219.61 141.58 217.21 146.32 219.95"/></g></g><g id="_Group_42" data-name="&lt;Group&gt;" class="cls-1"><g id="_Group_43" data-name="&lt;Group&gt;"><polygon id="_Path_92" data-name="&lt;Path&gt;" class="cls-41" points="140.62 223.27 140.61 224.39 136.49 226.79 136.49 225.67 140.62 223.27"/></g><g id="_Group_44" data-name="&lt;Group&gt;"><polygon id="_Path_93" data-name="&lt;Path&gt;" class="cls-40" points="136.49 225.67 136.49 226.79 131.74 224.05 131.75 222.93 136.49 225.67"/></g><g id="_Group_45" data-name="&lt;Group&gt;"><polygon id="_Path_94" data-name="&lt;Path&gt;" class="cls-36" points="140.62 223.27 136.49 225.67 131.75 222.93 135.88 220.53 140.62 223.27"/></g></g><g id="_Group_46" data-name="&lt;Group&gt;" class="cls-1"><g id="_Group_47" data-name="&lt;Group&gt;"><polygon id="_Path_95" data-name="&lt;Path&gt;" class="cls-41" points="152.58 223.56 152.58 224.69 148.45 227.09 148.45 225.96 152.58 223.56"/></g><g id="_Group_48" data-name="&lt;Group&gt;"><polygon id="_Path_96" data-name="&lt;Path&gt;" class="cls-40" points="148.45 225.96 148.45 227.09 143.71 224.35 143.71 223.23 148.45 225.96"/></g><g id="_Group_49" data-name="&lt;Group&gt;"><polygon id="_Path_97" data-name="&lt;Path&gt;" class="cls-36" points="152.58 223.56 148.45 225.96 143.71 223.23 147.84 220.83 152.58 223.56"/></g></g><g id="_Group_50" data-name="&lt;Group&gt;" class="cls-1"><g id="_Group_51" data-name="&lt;Group&gt;"><polygon id="_Path_98" data-name="&lt;Path&gt;" class="cls-41" points="146.88 226.88 146.87 228 142.75 230.4 142.75 229.28 146.88 226.88"/></g><g id="_Group_52" data-name="&lt;Group&gt;"><polygon id="_Path_99" data-name="&lt;Path&gt;" class="cls-40" points="142.75 229.28 142.75 230.4 138 227.67 138.01 226.54 142.75 229.28"/></g><g id="_Group_53" data-name="&lt;Group&gt;"><polygon id="_Path_100" data-name="&lt;Path&gt;" class="cls-36" points="146.88 226.88 142.75 229.28 138.01 226.54 142.13 224.14 146.88 226.88"/></g></g><g id="_Group_54" data-name="&lt;Group&gt;" class="cls-1"><g id="_Group_55" data-name="&lt;Group&gt;"><polygon id="_Path_101" data-name="&lt;Path&gt;" class="cls-41" points="158.93 227.23 158.93 228.36 154.8 230.75 154.8 229.63 158.93 227.23"/></g><g id="_Group_56" data-name="&lt;Group&gt;"><polygon id="_Path_102" data-name="&lt;Path&gt;" class="cls-40" points="154.8 229.63 154.8 230.75 150.06 228.02 150.06 226.89 154.8 229.63"/></g><g id="_Group_57" data-name="&lt;Group&gt;"><polygon id="_Path_103" data-name="&lt;Path&gt;" class="cls-36" points="158.93 227.23 154.8 229.63 150.06 226.89 154.19 224.49 158.93 227.23"/></g></g><g id="_Group_58" data-name="&lt;Group&gt;" class="cls-1"><g id="_Group_59" data-name="&lt;Group&gt;"><polygon id="_Path_104" data-name="&lt;Path&gt;" class="cls-41" points="153.23 230.55 153.22 231.67 149.09 234.07 149.1 232.95 153.23 230.55"/></g><g id="_Group_60" data-name="&lt;Group&gt;"><polygon id="_Path_105" data-name="&lt;Path&gt;" class="cls-40" points="149.1 232.95 149.09 234.07 144.35 231.33 144.36 230.21 149.1 232.95"/></g><g id="_Group_61" data-name="&lt;Group&gt;"><polygon id="_Path_106" data-name="&lt;Path&gt;" class="cls-36" points="153.23 230.55 149.1 232.95 144.36 230.21 148.49 227.81 153.23 230.55"/></g></g><g id="_Group_62" data-name="&lt;Group&gt;" class="cls-1"><g id="_Group_63" data-name="&lt;Group&gt;"><polygon id="_Path_107" data-name="&lt;Path&gt;" class="cls-41" points="167.77 232.34 167.77 233.46 162.07 236.78 162.07 235.65 167.77 232.34"/></g><g id="_Group_64" data-name="&lt;Group&gt;"><polygon id="_Path_108" data-name="&lt;Path&gt;" class="cls-40" points="153.79 235.65 153.78 236.78 150.76 235.03 150.76 233.91 153.79 235.65"/></g><g id="_Group_65" data-name="&lt;Group&gt;"><polygon id="_Path_109" data-name="&lt;Path&gt;" class="cls-40" points="157.94 238.05 157.94 239.18 153.78 236.78 153.79 235.65 157.94 238.05"/></g><g id="_Group_66" data-name="&lt;Group&gt;"><polygon id="_Path_110" data-name="&lt;Path&gt;" class="cls-41" points="162.07 235.65 162.07 236.78 157.94 239.18 157.94 238.05 162.07 235.65"/></g><g id="_Group_67" data-name="&lt;Group&gt;"><polygon id="_Path_111" data-name="&lt;Path&gt;" class="cls-36" points="167.77 232.34 162.07 235.65 157.94 238.05 153.79 235.65 150.76 233.91 154.89 231.51 157.91 233.25 163.62 229.94 167.77 232.34"/></g></g><g id="_Group_68" data-name="&lt;Group&gt;" class="cls-1"><g id="_Group_69" data-name="&lt;Group&gt;"><polygon id="_Path_112" data-name="&lt;Path&gt;" class="cls-41" points="156.35 238.98 156.34 240.1 152.22 242.5 152.22 241.38 156.35 238.98"/></g><g id="_Group_70" data-name="&lt;Group&gt;"><polygon id="_Path_113" data-name="&lt;Path&gt;" class="cls-40" points="152.22 241.38 152.22 242.5 116.81 222.06 116.81 220.93 152.22 241.38"/></g><g id="_Group_71" data-name="&lt;Group&gt;"><polygon id="_Path_114" data-name="&lt;Path&gt;" class="cls-36" points="156.35 238.98 152.22 241.38 116.81 220.93 120.94 218.53 156.35 238.98"/></g></g><g id="_Group_72" data-name="&lt;Group&gt;" class="cls-1"><g id="_Group_73" data-name="&lt;Group&gt;"><polygon id="_Path_115" data-name="&lt;Path&gt;" class="cls-41" points="174.4 236.16 174.4 237.29 170.27 239.69 170.27 238.56 174.4 236.16"/></g><g id="_Group_74" data-name="&lt;Group&gt;"><polygon id="_Path_116" data-name="&lt;Path&gt;" class="cls-40" points="170.27 238.56 170.27 239.69 165.53 236.95 165.53 235.82 170.27 238.56"/></g><g id="_Group_75" data-name="&lt;Group&gt;"><polygon id="_Path_117" data-name="&lt;Path&gt;" class="cls-36" points="174.4 236.16 170.27 238.56 165.53 235.82 169.66 233.42 174.4 236.16"/></g></g><g id="_Group_76" data-name="&lt;Group&gt;" class="cls-1"><g id="_Group_77" data-name="&lt;Group&gt;"><polygon id="_Path_118" data-name="&lt;Path&gt;" class="cls-41" points="168.69 239.48 168.69 240.6 164.56 243 164.57 241.88 168.69 239.48"/></g><g id="_Group_78" data-name="&lt;Group&gt;"><polygon id="_Path_119" data-name="&lt;Path&gt;" class="cls-40" points="164.57 241.88 164.56 243 159.82 240.26 159.82 239.14 164.57 241.88"/></g><g id="_Group_79" data-name="&lt;Group&gt;"><polygon id="_Path_120" data-name="&lt;Path&gt;" class="cls-36" points="168.69 239.48 164.57 241.88 159.82 239.14 163.95 236.74 168.69 239.48"/></g></g><g id="_Group_80" data-name="&lt;Group&gt;" class="cls-1"><g id="_Group_81" data-name="&lt;Group&gt;"><polygon id="_Path_121" data-name="&lt;Path&gt;" class="cls-41" points="162.97 242.8 162.97 243.93 158.84 246.33 158.84 245.2 162.97 242.8"/></g><g id="_Group_82" data-name="&lt;Group&gt;"><polygon id="_Path_122" data-name="&lt;Path&gt;" class="cls-40" points="158.84 245.2 158.84 246.33 154.1 243.59 154.1 242.46 158.84 245.2"/></g><g id="_Group_83" data-name="&lt;Group&gt;"><polygon id="_Path_123" data-name="&lt;Path&gt;" class="cls-36" points="162.97 242.8 158.84 245.2 154.1 242.46 158.23 240.06 162.97 242.8"/></g></g></g></g><path id="_Path_124" data-name="&lt;Path&gt;" class="cls-44" d="M155.26,218l19.82,11.44c4.82,2.79,12.79,2.48,16.93-.66l22.6-18.28-26.54-15.32-31.67,13C151,210.62,150.44,215.22,155.26,218Z"/><path id="_Path_125" data-name="&lt;Path&gt;" class="cls-35" d="M155.26,218l19.82,11.44c4.82,2.79,12.79,2.48,16.93-.66l22.6-18.28-26.54-15.32-31.67,13C151,210.62,150.44,215.22,155.26,218Z"/><path id="_Path_126" data-name="&lt;Path&gt;" class="cls-35" d="M134.09,166.54l13.25-96.31c.24-1.49,5.27-4.41,8.65-2.63L270.93,134a4.5,4.5,0,0,1,2.19,4.61l-15.47,95.7a4.48,4.48,0,0,1-4.3,3.76v0H250l1-.57-.09,0L136.28,171.14A4.5,4.5,0,0,1,134.09,166.54Z"/><path id="_Path_127" data-name="&lt;Path&gt;" class="cls-19" d="M248,238.72,133.27,172.41a4.5,4.5,0,0,1-2.19-4.6l15.21-95.75A4.5,4.5,0,0,1,153,68.87l114.94,66.36a4.5,4.5,0,0,1,2.19,4.61l-15.47,95.7A4.5,4.5,0,0,1,248,238.72Z"/><path id="_Path_128" data-name="&lt;Path&gt;" class="cls-45" d="M247.94,230.38,138.65,167.21a2.73,2.73,0,0,1-1.33-2.79l13.62-85.75A2.73,2.73,0,0,1,155,76.73L262.54,138.8a2.73,2.73,0,0,1,1.33,2.8l-14.22,88A1.15,1.15,0,0,1,247.94,230.38Z"/><path id="_Path_129" data-name="&lt;Path&gt;" class="cls-46" d="M140.45,166.31a2.73,2.73,0,0,1-1.33-2.79l13.62-85.75a2.7,2.7,0,0,1,.66-1.39,2.73,2.73,0,0,0-2.46,2.29l-13.62,85.75a2.73,2.73,0,0,0,1.33,2.79l109.29,63.17a1.15,1.15,0,0,0,1.71-.81l0-.13Z"/><line id="_Path_130" data-name="&lt;Path&gt;" class="cls-47" x1="159.62" y1="92.46" x2="177.12" y2="102.56"/><g id="_Group_84" data-name="&lt;Group&gt;"><line id="_Path_131" data-name="&lt;Path&gt;" class="cls-47" x1="249.96" y1="144.55" x2="253.32" y2="146.49"/><line id="_Path_132" data-name="&lt;Path&gt;" class="cls-47" x1="243.48" y1="140.84" x2="246.34" y2="142.49"/><line id="_Path_133" data-name="&lt;Path&gt;" class="cls-47" x1="236.63" y1="136.86" x2="239.53" y2="138.53"/></g><path id="_Path_134" data-name="&lt;Path&gt;" class="cls-48" d="M103.69,110.68s17.48,40.22-12.61,51.76S103.69,110.68,103.69,110.68Z"/><path id="_Path_135" data-name="&lt;Path&gt;" class="cls-48" d="M177.3,246c.06-.2.2-.37.59-.62,1.36-.88,2.76-1.7,4.19-2.48,2.15-1.16,4.78-2.48,7.28-2.12,2.91.42,13.25,3.64,15.05,5.28,1.08,1,.4,2.54-.52,3.4a10.88,10.88,0,0,1-5.13,2.41c-2.14.49-4.82.5-6.4,2.25a32.88,32.88,0,0,1-5.92,5.49A9.92,9.92,0,0,1,183.5,261c-1,.27-2.7.46-3.16-.61-.54-1.26-.91-2.6-1.47-3.87-1.07-2.44-2.27-5-2.17-7.7a15.31,15.31,0,0,1,.49-2C177.26,246.42,177.24,246.17,177.3,246Z"/><path id="_Path_136" data-name="&lt;Path&gt;" class="cls-19" d="M93.12,169.81s24.73,19.66,28.8,47.48,6,31,12.11,30.91c7.08-.09,35.62-2.61,42.49-3.33,0,0,11.15,6.44,4,18.59,0,0-44.86,17.86-58.68,17.86-19.82,0-24.38-30.69-24.38-30.69s5.64,7.59,3.84,25.19c0,0-27.34,22.68-68.58,2.64,0,0-7.64-79.37,6.67-105.79S93.12,169.81,93.12,169.81Z"/><path id="_Path_137" data-name="&lt;Path&gt;" class="cls-49" d="M103.69,110.68s3.3,1.06,5,7.36c0,0,8.16-17.27-15.51-30.39C84,82.55,75.74,80.85,66,84.7,55.75,88.79,47.11,94,42,104.31a44.57,44.57,0,0,0,26.73,62.81c4.45,1.38,9.24,2.07,13.77,1,15.76-3.74,7.55-24.67,13.87-36.35C105.33,115.17,103.69,110.68,103.69,110.68Z"/><path id="_Path_138" data-name="&lt;Path&gt;" class="cls-7" d="M9.89,208.13s12.51-8.57,25-5,51.57,21.29,51.57,39.28V292.1c0,5.16-3.42,14.16-18.74,17.34Z"/><path id="_Path_139" data-name="&lt;Path&gt;" class="cls-50" d="M9.89,208.13s12.51-8.57,25-5,51.57,21.29,51.57,39.28V292.1c0,5.16-3.42,14.16-18.74,17.34Z"/><path id="_Path_140" data-name="&lt;Path&gt;" class="cls-11" d="M15.44,281.11l47.88,27.64C67.54,311.2,71,308.61,71,303V250.42c0-5.64-3.43-12.19-7.66-14.63L15.44,208.15c-4.23-2.44-7.66.15-7.66,5.79v52.55C7.78,272.12,11.21,278.67,15.44,281.11Z"/><path id="_Path_141" data-name="&lt;Path&gt;" class="cls-7" d="M33.61,266l6.54,3.78c2.89,1.67,5.23-.1,5.23-4v-5.69c0-3.85-2.34-8.32-5.23-10l-6.54-3.78c-2.89-1.67-5.23.1-5.23,4V256C28.38,259.85,30.72,264.32,33.61,266Z"/><g id="_Group_85" data-name="&lt;Group&gt;"><path id="_Path_142" data-name="&lt;Path&gt;" class="cls-9" d="M31.24,250.26s-12.37,5-12.37,26V324a24.8,24.8,0,0,0,24.8,24.8h8.71v-8.2l-16.57-9.39V282.33c0-9.06,2.66-14.45,5.72-16.4C41.52,265.93,44.15,252.7,31.24,250.26Z"/><path id="_Path_143" data-name="&lt;Path&gt;" class="cls-51" d="M31.24,250.26s-12.37,5-12.37,26V324a24.8,24.8,0,0,0,24.8,24.8h8.71v-8.2l-16.57-9.39V282.33c0-9.06,2.66-14.45,5.72-16.4C41.52,265.93,44.15,252.7,31.24,250.26Z"/><path id="_Path_144" data-name="&lt;Path&gt;" class="cls-11" d="M52.38,340.58s-16.57.86-16.57-9.39Z"/><path id="_Path_145" data-name="&lt;Path&gt;" class="cls-52" d="M52.38,340.58s-16.57.86-16.57-9.39Z"/></g><circle id="_Path_146" data-name="&lt;Path&gt;" class="cls-48" cx="91.82" cy="140.44" r="7.8"/><g id="_Group_86" data-name="&lt;Group&gt;"><g id="_Group_87" data-name="&lt;Group&gt;"><path id="_Path_147" data-name="&lt;Path&gt;" class="cls-53" d="M284.61,255.25a16.9,16.9,0,0,1-15.29,0c-4.22-2.44-4.22-6.39,0-8.83a16.9,16.9,0,0,1,15.29,0C288.83,248.86,288.83,252.81,284.61,255.25Z"/><polygon id="_Path_148" data-name="&lt;Path&gt;" class="cls-53" points="266.15 250.83 263.9 237.58 290.02 237.58 287.78 250.83 266.15 250.83"/><path id="_Path_149" data-name="&lt;Path&gt;" class="cls-54" d="M286.46,231.17c-5.26-3-13.8-3-19.06,0-2.63,1.52-3.95,3.51-3.95,5.5h0v1.82c0,2,1.32,4,3.95,5.5,5.26,3,13.8,3,19.06,0,2.63-1.52,3.95-3.51,3.95-5.5v-1.82C290.4,234.68,289.09,232.69,286.46,231.17Z"/><path id="_Path_150" data-name="&lt;Path&gt;" class="cls-53" d="M285.5,241.5c-4.64,2.56-12.23,2.43-17-.3s-4.81-7-.18-9.59,12.23-2.43,17,.3S290.13,238.94,285.5,241.5Z"/><path id="_Path_151" data-name="&lt;Path&gt;" class="cls-55" d="M285.32,234.85c-4.73-2.73-12.33-2.87-17-.3a6.57,6.57,0,0,0-3.12,3.22,7.23,7.23,0,0,0,3.29,3.44c4.73,2.73,12.33,2.87,17,.3a6.57,6.57,0,0,0,3.12-3.22A7.23,7.23,0,0,0,285.32,234.85Z"/></g><g id="_Group_88" data-name="&lt;Group&gt;"><circle id="_Path_152" data-name="&lt;Path&gt;" class="cls-56" cx="276.97" cy="221.63" r="17.63"/><circle id="_Path_153" data-name="&lt;Path&gt;" class="cls-57" cx="276.97" cy="221.63" r="17.63"/><path id="_Path_154" data-name="&lt;Path&gt;" class="cls-58" d="M261.57,229a1.31,1.31,0,1,1,2.22,1.4,14.38,14.38,0,0,1-2.83,2A14.39,14.39,0,0,1,261.57,229Z"/><path id="_Path_155" data-name="&lt;Path&gt;" class="cls-58" d="M262.28,225.54a1.31,1.31,0,0,1-1.13,2.37,14.38,14.38,0,0,1-2.34-2.57A14.39,14.39,0,0,1,262.28,225.54Z"/><path id="_Path_156" data-name="&lt;Path&gt;" class="cls-58" d="M280.46,219.85a1.31,1.31,0,0,1-2.35-1.18,14.38,14.38,0,0,1,2.61-2.29A14.38,14.38,0,0,1,280.46,219.85Z"/><path id="_Path_157" data-name="&lt;Path&gt;" class="cls-58" d="M292.87,221a1.31,1.31,0,0,1,.53-2.58,14.38,14.38,0,0,1,2.89,1.93A14.38,14.38,0,0,1,292.87,221Z"/><path id="_Path_158" data-name="&lt;Path&gt;" class="cls-58" d="M293.37,216.86a.83.83,0,0,1-1.44-.82,9.06,9.06,0,0,1,1.73-1.34A9.05,9.05,0,0,1,293.37,216.86Z"/><path id="_Path_159" data-name="&lt;Path&gt;" class="cls-58" d="M277.27,218.23a.83.83,0,0,1-1.63.29,9.06,9.06,0,0,1,.46-2.14A9.06,9.06,0,0,1,277.27,218.23Z"/><path id="_Path_160" data-name="&lt;Path&gt;" class="cls-58" d="M281.94,233.36a1.31,1.31,0,1,1,2.61-.35,14.38,14.38,0,0,1-.88,3.36A14.38,14.38,0,0,1,281.94,233.36Z"/><path id="_Path_161" data-name="&lt;Path&gt;" class="cls-58" d="M285.49,232.91a.83.83,0,1,1,1.18-1.16,9.06,9.06,0,0,1,.83,2A9.06,9.06,0,0,1,285.49,232.91Z"/><circle id="_Path_162" data-name="&lt;Path&gt;" class="cls-59" cx="267.86" cy="219.21" r="1.21"/><circle id="_Path_163" data-name="&lt;Path&gt;" class="cls-59" cx="290.4" cy="225.32" r="1.21"/><circle id="_Path_164" data-name="&lt;Path&gt;" class="cls-59" cx="262.48" cy="212.21" r="1.21"/><circle id="_Path_165" data-name="&lt;Path&gt;" class="cls-59" cx="278.38" cy="227.25" r="1.93"/><circle id="_Path_166" data-name="&lt;Path&gt;" class="cls-59" cx="268.57" cy="236.94" r="1.93"/><circle id="_Path_167" data-name="&lt;Path&gt;" class="cls-59" cx="285.77" cy="214.26" r="1.72"/></g></g><g id="_Group_89" data-name="&lt;Group&gt;"><path class="cls-60" d="M202.47,191.74c-5.66,0-11.4-3.2-16.16-9-10.54-12.88-14.19-35.18-8.3-50.75,3.48-9.2,9.76-14.47,17.23-14.47,5.66,0,11.4,3.2,16.16,9,10.54,12.89,14.19,35.18,8.3,50.75C216.22,186.47,209.94,191.74,202.47,191.74Z"/></g><path id="_Path_168" data-name="&lt;Path&gt;" class="cls-19" d="M216.35,176c-5.39,14.27-17.6,16.26-27.26,4.46s-13.11-32.94-7.72-47.21S199,117,208.63,128.79,221.74,161.73,216.35,176Z"/><g id="_Group_90" data-name="&lt;Group&gt;"><path id="_Path_169" data-name="&lt;Path&gt;" class="cls-61" d="M208.63,153.33c-.69,5.93-5.14,7.84-9.93,4.28s-8.11-11.26-7.41-17.19,5.14-7.84,9.93-4.28S209.32,147.4,208.63,153.33Z"/><path id="_Path_170" data-name="&lt;Path&gt;" class="cls-61" d="M198.7,157.6c-5.88-4.38-11.33-2-12.18,5.25L207.8,178.7C208.65,171.43,204.58,162,198.7,157.6Z"/></g><path id="_Path_171" data-name="&lt;Path&gt;" class="cls-62" d="M292.52,127.76,235.11,94.62a2.85,2.85,0,0,1-1.42-2.47V33.23A2.85,2.85,0,0,1,238,30.76l56.16,32.43a5.33,5.33,0,0,1,2.67,4.62V125.3A2.85,2.85,0,0,1,292.52,127.76Z"/><path id="_Path_172" data-name="&lt;Path&gt;" class="cls-63" d="M211.8,72,173.25,49.73a1.91,1.91,0,0,1-1-1.66V8.5a1.91,1.91,0,0,1,2.87-1.66l37.72,21.78a3.58,3.58,0,0,1,1.79,3.1V70.33A1.91,1.91,0,0,1,211.8,72Z"/><g id="_Group_91" data-name="&lt;Group&gt;"><g id="_Group_92" data-name="&lt;Group&gt;"><circle id="_Path_173" data-name="&lt;Path&gt;" class="cls-64" cx="232.91" cy="130.83" r="21.85"/><polygon id="_Path_174" data-name="&lt;Path&gt;" class="cls-64" points="218.93 140.59 211.06 152.41 226.79 148.34 218.93 140.59"/></g></g><g id="_Group_93" data-name="&lt;Group&gt;"><path id="_Path_175" data-name="&lt;Path&gt;" class="cls-22" d="M255.45,62.82l-13.66-7.89a.68.68,0,0,1-.34-.59v-9a.68.68,0,0,1,1-.59l13.36,7.72a1.27,1.27,0,0,1,.63,1.1v8.68A.68.68,0,0,1,255.45,62.82Z"/><path id="_Path_176" data-name="&lt;Path&gt;" class="cls-22" d="M252.13,93.63l-10.48-6.05a.52.52,0,0,1-.26-.45V76.37a.52.52,0,0,1,.78-.45l10.25,5.92a1,1,0,0,1,.49.84v10.5A.52.52,0,0,1,252.13,93.63Z"/><line id="_Path_177" data-name="&lt;Path&gt;" class="cls-65" x1="241.44" y1="61.21" x2="289.04" y2="88.69"/><line id="_Path_178" data-name="&lt;Path&gt;" class="cls-65" x1="241.44" y1="64.74" x2="289.04" y2="92.22"/><line id="_Path_179" data-name="&lt;Path&gt;" class="cls-65" x1="241.44" y1="68.27" x2="289.04" y2="95.75"/><line id="_Path_180" data-name="&lt;Path&gt;" class="cls-65" x1="241.44" y1="71.79" x2="289.04" y2="99.27"/><line id="_Path_181" data-name="&lt;Path&gt;" class="cls-65" x1="261.65" y1="58.6" x2="289.04" y2="74.42"/><line id="_Path_182" data-name="&lt;Path&gt;" class="cls-65" x1="261.65" y1="62.13" x2="289.04" y2="77.94"/><line id="_Path_183" data-name="&lt;Path&gt;" class="cls-65" x1="261.65" y1="65.65" x2="289.04" y2="81.47"/><line id="_Path_184" data-name="&lt;Path&gt;" class="cls-65" x1="241.44" y1="57.51" x2="289.04" y2="85"/><line id="_Path_185" data-name="&lt;Path&gt;" class="cls-65" x1="256.47" y1="84" x2="289.04" y2="102.8"/><line id="_Path_186" data-name="&lt;Path&gt;" class="cls-65" x1="256.47" y1="87.52" x2="289.04" y2="106.33"/><line id="_Path_187" data-name="&lt;Path&gt;" class="cls-65" x1="256.47" y1="91.05" x2="289.04" y2="109.85"/><line id="_Path_188" data-name="&lt;Path&gt;" class="cls-65" x1="256.47" y1="94.58" x2="289.04" y2="113.38"/></g><g id="_Group_94" data-name="&lt;Group&gt;"><path id="_Compound_Path_" data-name="&lt;Compound Path&gt;" class="cls-66" d="M198.42,54.7A11,11,0,0,1,193,53.05c-6.37-3.68-11.56-12.66-11.56-20,0-3.78,1.33-6.63,3.74-8s5.54-1.12,8.82.77c6.37,3.68,11.56,12.66,11.56,20,0,3.78-1.33,6.63-3.74,8A6.67,6.67,0,0,1,198.42,54.7Zm-9.88-28.57a4.71,4.71,0,0,0-2.38.61c-1.77,1-2.74,3.25-2.74,6.29,0,6.72,4.74,14.92,10.56,18.29,2.63,1.52,5.05,1.79,6.82.77s2.74-3.25,2.74-6.29c0-6.72-4.74-14.93-10.56-18.29A9.07,9.07,0,0,0,188.55,26.13Z"/><polygon id="_Path_189" data-name="&lt;Path&gt;" class="cls-66" points="190.6 44.84 190.6 30.66 198.96 42.58 190.6 44.84"/></g><g id="_Group_95" data-name="&lt;Group&gt;"><path id="_Path_190" data-name="&lt;Path&gt;" class="cls-62" d="M163.4,114.45,119.32,89a2.19,2.19,0,0,1-1.09-1.89V41.86A2.19,2.19,0,0,1,121.51,40l43.12,24.9a4.1,4.1,0,0,1,2,3.55v44.14A2.19,2.19,0,0,1,163.4,114.45Z"/><g id="_Group_96" data-name="&lt;Group&gt;"><path id="_Path_191" data-name="&lt;Path&gt;" class="cls-61" d="M142.52,90l-6-10.43-11.82,6.83a1.5,1.5,0,0,1-1.5-2.6l14.42-8.33,6,10.43,15.11-8.72a1.5,1.5,0,1,1,1.5,2.6Z"/><path id="_Path_192" data-name="&lt;Path&gt;" class="cls-61" d="M161,88.2a1.5,1.5,0,0,1-1.5-1.5V79.14l-6-3.44a1.5,1.5,0,0,1,1.5-2.6l7.46,4.31V86.7A1.5,1.5,0,0,1,161,88.2Z"/></g><line id="_Path_193" data-name="&lt;Path&gt;" class="cls-67" x1="124.33" y1="52.04" x2="134.47" y2="57.89"/><line id="_Path_194" data-name="&lt;Path&gt;" class="cls-67" x1="140.37" y1="61.13" x2="144.02" y2="63.23"/></g></g></g></g></svg>