<svg id="_38" data-name="38" xmlns="http://www.w3.org/2000/svg" viewBox="0 0 78.5 59.71"><title>Artboard 8</title><path d="M78.5,49.73h0l-36.18,0a.65.65,0,0,1-.63-.82l3.75-14a.65.65,0,0,1,.63-.48H74.67a.65.65,0,0,1,.63.48l3.78,13.86a.65.65,0,0,1,.08.32.62.62,0,0,1-.66.65ZM43.16,48.4l34.48,0-3.47-12.7H46.56Z"/><path d="M36.83,49.7h0l-36.18,0A.65.65,0,0,1,0,48.86l3.75-14a.65.65,0,0,1,.63-.48H33a.65.65,0,0,1,.63.48l3.78,13.86a.65.65,0,0,1,.08.32.63.63,0,0,1-.66.65ZM1.5,48.38,36,48.4,32.51,35.7H4.9Z"/><path d="M57.44,30.55h0l-36.17,0a.65.65,0,0,1-.63-.82l3.74-14a.65.65,0,0,1,.63-.48H53.62a.65.65,0,0,1,.63.48L58,29.58a.65.65,0,0,1,.08.32.63.63,0,0,1-.66.65ZM22.11,29.22l34.47,0-3.47-12.7H25.51Z"/></svg>