<svg xmlns="http://www.w3.org/2000/svg" xmlns:xlink="http://www.w3.org/1999/xlink" data-name="Layer 1" width="1049.5714111328125" height="790" style=""><rect id="backgroundrect" width="100%" height="100%" x="0" y="0" fill="none" stroke="none"/><defs><linearGradient id="5d79ebac-1fb9-494f-9c8c-41d6171d09f4" x1="0.5000000596046448" y1="0.9999999403953552" x2="0.5000000596046448" y2="-0.000029073811674606986"><stop offset="0" stop-color="gray" stop-opacity="0.25"/><stop offset="0.54" stop-color="gray" stop-opacity="0.12"/><stop offset="1" stop-color="gray" stop-opacity="0.1"/></linearGradient><linearGradient id="3188e630-8ea4-4111-9509-7049548e0ddb" x1="919.02001953125" y1="298.5400085449219" x2="919.02001953125" y2="260.1000061035156" xlink:href="#5d79ebac-1fb9-494f-9c8c-41d6171d09f4"/><linearGradient id="9ebb77c1-6d01-4561-8dcd-16473be994df" x1="532.4299926757812" y1="677.739990234375" x2="532.4299926757812" y2="220.60000610351562" gradientTransform="matrix(-1, 0, 0, 1, 923.85, 0)" xlink:href="#5d79ebac-1fb9-494f-9c8c-41d6171d09f4"/><linearGradient id="589be0bd-308d-435b-8cf0-b9d21bd74c82" x1="441.2300109863281" y1="805.8300170898438" x2="441.2300109863281" y2="578.6400146484375" xlink:href="#5d79ebac-1fb9-494f-9c8c-41d6171d09f4"/><linearGradient id="3aa21ed4-97e3-4e91-81c1-d27551f27de1" x1="467.6600036621094" y1="592.77001953125" x2="467.6600036621094" y2="390.9700012207031" xlink:href="#5d79ebac-1fb9-494f-9c8c-41d6171d09f4"/></defs><title>blogging</title><g class="currentLayer" style=""><title>Layer 1</title><path d="M61.878571462631214,492.6214286136627 c35.65,45.33 21.8,111.54 -0.8500000000000006,164.58 c-7.59,17.76 -16.16,36.54 -13,55.58 c3.91,23.28 24.69,40.31 46.51,49.33 c39.77,16.45 87.37,12.53 123.92,-10.21 c31.58,-19.65 54.2,-51.6 86.32,-70.35 c53.76,-31.38 122.18,-19.53 180.55,2.09 c41.3,15.29 86.45,35.18 127.48,19.2 c28.87,-11.25 48.83,-38.62 59.71,-67.64 c5.25,-14 9.06,-29.17 19.09,-40.28 c6,-6.6 13.74,-11.29 21.71,-15.24 c72.77,-36.08 164.67,-16.76 235.35,-56.77 c47.73,-27 78.29,-78 91.82,-131.16 s12,-108.9 8.52,-163.64 c-2.44,-38.91 -6.82,-80.44 -31.68,-110.47 c-26.3,-31.76 -71.43,-43.58 -112.22,-37.54 s-77.77,27.56 -110.3,52.9 c-40.65,31.68 -78.36,71.12 -128.27,84 c-34,8.74 -69.75,4 -104.81,2.3 c-58.61,-2.77 -117.24,3.39 -175.53,10.12 c-55.8,6.45 -112,13.55 -165.16,31.7 C183.42857146263123,273.9214286136627 153.28857146263124,297.2414286136627 117.76857146263123,313.4914286136627 c-23.15,10.620000000000001 -48.4,13.55 -70.33,27.08 c-27,16.66 -51.76,45.64 -44.84,79.55 C9.178571462631226,452.3914286136627 42.95857146263123,468.5614286136627 61.878571462631214,492.6214286136627 z" fill="#20c3b8" opacity="0.1" id="svg_1" class=""/><path d="M191.2085714626312,690.7814286136627 s-3.3,-97.76 -56.19,-153 c-22.2,-23.18 -36.78,-52.62 -40.64,-84.48 a249.26,249.26 0 0 1 -1.24,-45.57 " fill="none" stroke="#535461" stroke-miterlimit="10" stroke-width="2" id="svg_2" class=""/><path d="M60.00857146263124,372.7514286136627 c3.62,10.92 33.88,36 33.88,36 s9.27,-38.21 5.65,-49.12 a20.82,20.82 0 0 0 -39.53,13.11 z" fill="#20c3b8" id="svg_3" class=""/><path d="M47.428571462631226,444.04142861366273 c9,7.2 48,11.82 48,11.82 s-13,-37.11 -22,-44.3 A20.82,20.82 0 0 0 47.428571462631226,444.04142861366273 z" fill="#20c3b8" id="svg_4" class=""/><path d="M83.07857146263123,546.8914286136627 c11.38,1.6800000000000006 47.41,-14 47.41,-14 s-29.94,-25.48 -41.32,-27.16 a20.82,20.82 0 0 0 -6.09,41.2 z" fill="#20c3b8" id="svg_5" class=""/><path d="M127.59857146263121,618.6314286136627 c10.93,3.58 49.1,-5.82 49.1,-5.82 s-25.21,-30.17 -36.14,-33.75 a20.82,20.82 0 0 0 -13,39.57 z" fill="#20c3b8" id="svg_6" class=""/><path d="M137.5985714626312,444.21142861366275 C132.28857146263124,454.4114286136627 98.42857146263123,474.3914286136627 98.42857146263123,474.3914286136627 s-3.08,-39.19 2.23,-49.4 a20.82,20.82 0 1 1 36.94,19.22 z" fill="#20c3b8" id="svg_7" class=""/><path d="M188.60857146263123,528.7714286136627 c-8.12,8.15 -46.4,17.07 -46.4,17.07 s8.79,-38.32 16.9,-46.47 a20.82,20.82 0 1 1 29.5,29.39 z" fill="#20c3b8" id="svg_8" class=""/><path d="M655.9885714626312,624.4014286136627 s-15.88,-5.38 -23.52,8.61 a25.52,25.52 0 0 0 0.3400000000000077,24.57 c5,9.07 15.36,20.85 35,19.8 C684.4285714626312,676.4914286136627 689.9085714626312,663.8114286136628 691.4285714626312,652.0114286136627 a26.06,26.06 0 0 0 -34.61,-27.9 z" fill="#20c3b8" id="svg_10" class=""/><path d="M636.1685714626312,658.8414286136627 a25.52,25.52 0 0 1 -0.3400000000000077,-24.57 c7.6400000000000015,-14 23.52,-8.61 23.52,-8.61 l0.81,-0.2900000000000003 a25.83,25.83 0 0 1 18.66,0.4200000000000003 a25.84,25.84 0 0 0 -22,-2.1 l-0.81,0.2900000000000003 s-15.88,-5.38 -23.52,8.61 a25.52,25.52 0 0 0 0.3400000000000077,24.57 c3.31,6 8.92,13.11 18,17 A39.35,39.35 0 0 1 636.1685714626312,658.8414286136627 z" fill="#fff" opacity="0.1" id="svg_11" class=""/><path d="M647.7885714626312,631.1314286136627 s5.8900000000000015,4.63 20.18,0 " opacity="0.2" id="svg_12" class=""/><path d="M646.5285714626312,597.4914286136627 s10.09,27.33 9.25,34.48 l8,-0.8400000000000006 s-13.46,-24 -10.09,-33.64 z" fill="#20c3b8" id="svg_13" class=""/><path d="M646.5285714626312,597.4914286136627 s10.09,27.33 9.25,34.48 l8,-0.8400000000000006 s-13.46,-24 -10.09,-33.64 z" opacity="0.2" id="svg_14" class=""/><path d="M687.7185714626312,599.7714286136627 s-15.88,-8.12 -23,-1.4100000000000001 s-8.2,23.86 -8.2,23.86 S682.4285714626312,625.7814286136627 687.7185714626312,599.7714286136627 z" fill="#20c3b8" id="svg_15" class=""/><path d="M687.7185714626312,599.7714286136627 s-15.88,-8.12 -23,-1.4100000000000001 s-8.2,23.86 -8.2,23.86 S682.4285714626312,625.7814286136627 687.7185714626312,599.7714286136627 z" fill="#fff" opacity="0.1" id="svg_16" class=""/><path d="M656.5285714626312,622.2214286136627 s4.17,-19.91 31.19,-22.45 " fill="none" stroke="#20c3b8" stroke-miterlimit="10" id="svg_17" class=""/><path d="M200.05857146263122,503.08142861366264 s3.24,-52.86 -22.43,-85.34 a80.24,80.24 0 0 1 -17.57,-47.62 A135,135 0 0 1 161.73857146263123,345.4914286136627 " fill="none" stroke="#535461" stroke-miterlimit="10" stroke-width="2" id="svg_18" class=""/><path d="M145.68857146263122,324.9314286136627 c1.3900000000000001,6.07 16.41,21.15 16.41,21.15 s7,-20.12 5.57,-26.18 a11.27,11.27 0 1 0 -22,5 z" fill="#20c3b8" id="svg_19" class=""/><path d="M135.22857146263124,362.71142861366275 c4.47,4.34 25.27,8.84 25.27,8.84 s-5.09,-20.67 -9.56,-25 a11.27,11.27 0 1 0 -15.71,16.17 z" fill="#20c3b8" id="svg_20" class=""/><path d="M149.17857146263123,419.98142861366273 c6,1.49 26.27,-5.13 26.27,-5.13 s-14.83,-15.27 -20.87,-16.76 a11.27,11.27 0 0 0 -5.4,21.89 z" fill="#20c3b8" id="svg_21" class=""/><path d="M169.48857146263123,460.9214286136627 c5.71,2.49 26.76,-0.6200000000000119 26.76,-0.6200000000000119 s-12,-17.56 -17.74,-20 a11.27,11.27 0 1 0 -9,20.66 z" fill="#20c3b8" id="svg_22" class=""/><path d="M183.83857146263125,367.4414286136627 c-3.38,5.23 -22.66,14.25 -22.66,14.25 s0.3500000000000003,-21.28 3.74,-26.51 a11.27,11.27 0 0 1 18.92,12.26 z" fill="#20c3b8" id="svg_23" class=""/><path d="M206.98857146263123,415.6314286136627 c-4.79,4 -25.89,6.82 -25.89,6.82 s6.7,-20.2 11.5,-24.18 a11.27,11.27 0 0 1 14.39,17.36 z" fill="#20c3b8" id="svg_24" class=""/><path d="M223.05857146263122,465.5614286136627 c-4.05,4.73 -24.36,11.1 -24.36,11.1 s3.19,-21 7.25,-25.77 a11.27,11.27 0 0 1 17.12,14.68 z" fill="#20c3b8" id="svg_25" class=""/><path d="M145.68857146263122,324.9314286136627 c1.3900000000000001,6.07 16.41,21.15 16.41,21.15 s7,-20.12 5.57,-26.18 a11.27,11.27 0 1 0 -22,5 z" fill="#fff" opacity="0.5" id="svg_26" class=""/><path d="M135.22857146263124,362.71142861366275 c4.47,4.34 25.27,8.84 25.27,8.84 s-5.09,-20.67 -9.56,-25 a11.27,11.27 0 1 0 -15.71,16.17 z" fill="#fff" opacity="0.5" id="svg_27" class=""/><path d="M149.17857146263123,419.98142861366273 c6,1.49 26.27,-5.13 26.27,-5.13 s-14.83,-15.27 -20.87,-16.76 a11.27,11.27 0 0 0 -5.4,21.89 z" fill="#fff" opacity="0.5" id="svg_28" class=""/><path d="M169.48857146263123,460.9214286136627 c5.71,2.49 26.76,-0.6200000000000119 26.76,-0.6200000000000119 s-12,-17.56 -17.74,-20 a11.27,11.27 0 1 0 -9,20.66 z" fill="#fff" opacity="0.5" id="svg_29" class=""/><path d="M183.83857146263125,367.4414286136627 c-3.38,5.23 -22.66,14.25 -22.66,14.25 s0.3500000000000003,-21.28 3.74,-26.51 a11.27,11.27 0 0 1 18.92,12.26 z" fill="#fff" opacity="0.5" id="svg_30" class=""/><path d="M206.98857146263123,415.6314286136627 c-4.79,4 -25.89,6.82 -25.89,6.82 s6.7,-20.2 11.5,-24.18 a11.27,11.27 0 0 1 14.39,17.36 z" fill="#fff" opacity="0.5" id="svg_31" class=""/><path d="M223.05857146263122,465.5614286136627 c-4.05,4.73 -24.36,11.1 -24.36,11.1 s3.19,-21 7.25,-25.77 a11.27,11.27 0 0 1 17.12,14.68 z" fill="#fff" opacity="0.5" id="svg_32" class=""/><polygon points="508.7856750488281,144.67579436302185 508.7856750488281,160.00814604759216 508.7856750488281,448.6345956325531 962.2771606445312,448.6345956325531 962.2771606445312,160.00814604759216 962.2771606445312,144.67579436302185 508.7856750488281,144.67579436302185 " fill="url(#5d79ebac-1fb9-494f-9c8c-41d6171d09f4)" id="svg_33" class=""/><rect x="513.7560424804688" y="149.5776824951172" width="442.764892578125" height="295.41046142578125" fill="#fff" id="svg_34" class=""/><rect x="513.4185791015625" y="147.8128662109375" width="442.0799865722656" height="23.700000762939453" fill="#eee" id="svg_35" class=""/><rect x="511.9900207519531" y="149.24142456054688" width="444.9371032714844" height="23.700000762939453" fill="#eee" class="" id="svg_9"/><circle cx="532.1386108398438" cy="159.3028597831726" r="5.75" fill="#ff5252" class="" id="svg_61"/><circle cx="547.9486083984375" cy="159.3028597831726" r="5.75" fill="#ff0" id="svg_37" class=""/><circle cx="568.0343105792999" cy="159.3028597831726" r="5.75" fill="#69f0ae" id="svg_38" class=""/><circle cx="566.6057391166687" cy="159.3028597831726" r="5.75" fill="#69f0ae" class="" id="svg_52"/><rect x="532.278564453125" y="209.4728546142578" width="183.3699951171875" height="7.639999866485596" fill="#20c3b8" opacity="0.5" id="svg_39" class=""/><rect x="532.278564453125" y="221.89572143554688" width="183.3699951171875" height="7.639999866485596" fill="#20c3b8" opacity="0.5" id="svg_40" class=""/><rect x="532.278564453125" y="232.88999938964844" width="183.3699951171875" height="7.639999866485596" fill="#20c3b8" opacity="0.5" id="svg_41" class=""/><rect x="532.6214599609375" y="246.74142456054688" width="120.16000366210938" height="7.639999866485596" fill="#20c3b8" opacity="0.5" id="svg_42" class=""/><rect x="532.278564453125" y="259.1742858886719" width="96.55000305175781" height="7.639999866485596" fill="#20c3b8" opacity="0.5" id="svg_43" class=""/><rect x="532.9400024414062" y="271.5971374511719" width="74.31999969482422" height="7.639999866485596" fill="#20c3b8" opacity="0.5" id="svg_44" class=""/><rect x="725.6729125976562" y="205.82000732421875" width="216.02000427246094" height="124.33000183105469" fill="#20c3b8" opacity="0.5" id="svg_45" class=""/><rect x="733.1860961914062" y="217.6199951171875" width="216.02000427246094" height="124.33000183105469" fill="#eee" id="svg_46" class=""/><path d="M853.6614278221131,346.20571422576904 H732.801427822113 V323.46571422576903 C762.331427822113,309.665714225769 807.7614278221131,301.915714225769 853.6614278221131,346.20571422576904 z" fill="#20c3b8" id="svg_47" class=""/><g opacity="0.1" id="svg_48" class=""><path d="M948.8599992847442,340.12857130050656 V343.3485713005066 H798.1299992847443 v-0.6900000000000196 S872.2999992847442,270.4785713005066 948.8599992847442,340.12857130050656 z" id="svg_49"/></g><path d="M950.2499992847443,342.985714225769 V346.20571422576904 H799.5199992847442 v-0.6900000000000209 S873.6899992847443,273.33571422576904 950.2499992847443,342.985714225769 z" fill="#20c3b8" id="svg_50" class=""/><circle cx="754.9542846679688" cy="235.5642852783203" r="11.109999656677246" fill="#20c3b8" id="svg_51" class=""/><path d="M903.2885714626312,253.49142861366272 c-0.28,0 -0.5800000000000006,0 -0.79,0 a1,1 0 0 0 -0.27,0.06000000000000116 l-1.42,0.51 c1.1400000000000001,0 2.34,0 3.51,0 l6.57,-0.05000000000000061 c0.6700000000000153,0 1.37,0 1.9300000000000002,-0.05000000000000061 l1,-0.1 c1.24,-0.11000000000000022 3.06,-0.0900000000000023 4.68,-0.08000000000000022 a25.5,25.5 0 0 0 4.15,-0.2 h-3.48 c-0.38000000000000594,0 -0.77,0 -1.1,0 s-0.6200000000000119,-0.07 -1,-0.0900000000000023 c-0.56,0 -1.34,-0.05000000000000061 -2.06,-0.06000000000000116 C911.0685714626312,253.41142861366268 907.1585714626312,253.49142861366272 903.2885714626312,253.49142861366272 z" fill="#f4f4f4" id="svg_53" class=""/><path d="M856.7485714626313,272.9314286136627 c-0.28,0 -0.5800000000000006,0 -0.79,0 a1,1 0 0 0 -0.27,0.06000000000000116 l-1.42,0.51 c1.1400000000000001,0 2.34,0 3.51,0 l6.57,-0.05000000000000061 c0.6700000000000153,0 1.37,0 1.9300000000000002,-0.05000000000000061 l1,-0.1 c1.24,-0.11000000000000022 3.06,-0.0900000000000023 4.68,-0.08000000000000022 a25.5,25.5 0 0 0 4.15,-0.2 h-3.48 c-0.38000000000000594,0 -0.77,0 -1.1,0 s-0.6200000000000119,-0.07 -1,-0.0900000000000023 c-0.56,0 -1.34,-0.05000000000000061 -2.06,-0.06000000000000116 C864.5385714626312,272.8614286136627 860.6185714626313,272.95142861366276 856.7485714626313,272.9314286136627 z" fill="#f4f4f4" id="svg_54" class=""/><path d="M802.0371422100067,344.3614286136627 H796.8571422100067 s-1.6300000000000003,-57.12 5.22,-74.75 h1.31 S798.7771422100067,334.2514286136627 802.0371422100067,344.3614286136627 z" fill="#20c3b8" id="svg_55" class=""/><path d="M802.7328565979004,266.6814286136627 s-4.24,11.75 -2.2800000000000002,17 c0,0 2.94,-10.77 6.37,-12.4 s7,12.4 7,12.4 s2,-8.81 -1.6300000000000003,-16 a28.38,28.38 0 0 1 10.77,11.42 s0.6500000000000155,-4.9 -7.83,-15 c0,0 7.51,2 12.4,6.53 c0,0 1.6300000000000003,-3.59 -8.49,-9.47 c0,0 1.31,-4.24 9.14,-2.2800000000000002 c0,0 0,-5.55 -12.4,-4.57 c0,0 0,-3.59 8.16,-2.94 c0,0 0,-4.57 -9.47,-2.94 c0,0 2,-2.94 3.26,-3.59 a6.5600000000000005,6.5600000000000005 0 0 0 -4.57,1.31 s0.3300000000000078,-5.88 -4.57,-8.16 l-0.6500000000000155,8.16 s-5.49,-6.47 -4.24,-5.22 a14.32,14.32 0 0 1 1,6.2 s-5.55,-4.57 -12.4,0.3300000000000078 c0,0 8.49,0.6500000000000155 9.79,3.59 c0,0 -7.18,-1.31 -8.81,-0.3300000000000078 c0,0 5.55,2 5.22,3.26 c0,0 -9.79,0 -11.1,3.59 c0,0 10.12,1.31 10.77,2.2800000000000002 c0,0 -11.75,8.49 -12.4,10.77 c0,0 12.08,-7.18 14,-7.18 s-8.81,10.45 -8.16,13.06 C791.6428565979004,276.4914286136627 800.4528565979003,266.0214286136627 802.7328565979004,266.6814286136627 z" fill="#20c3b8" id="svg_56" class=""/><path d="M869.3242851352692,342.23142861366273 h4 s1.25,-43.64 -4,-57.11 h-1 S871.8142851352692,334.4914286136627 869.3242851352692,342.23142861366273 z" fill="#20c3b8" id="svg_57" class=""/><path d="M873.4928565979004,282.8714286136627 s3.24,9 1.75,13 c0,0 -2.24,-8.23 -4.86,-9.48 s-5.36,9.48 -5.36,9.48 s-1.5,-6.73 1.25,-12.22 a21.68,21.68 0 0 0 -8.23,8.73 s-0.5,-3.74 6,-11.47 c0,0 -5.74,1.5 -9.48,5 c0,0 -1.25,-2.74 6.48,-7.23 c0,0 -1,-3.24 -7,-1.75 c0,0 0,-4.24 9.48,-3.49 c0,0 0,-2.74 -6.23,-2.24 c0,0 0,-3.49 7.23,-2.24 a11,11 0 0 0 -2.49,-2.74 a5,5 0 0 1 3.49,1 s-0.25,-4.49 3.49,-6.23 l0.5,6.23 s4.19,-4.94 3.24,-4 a10.94,10.94 0 0 0 -0.7500000000000138,4.74 s4.24,-3.49 9.48,0.25 c0,0 -6.48,0.5 -7.48,2.74 c0,0 5.49,-1 6.73,-0.25 c0,0 -4.24,1.5 -4,2.49 c0,0 7.48,0 8.48,2.74 c0,0 -7.73,1 -8.23,1.75 c0,0 9,6.48 9.48,8.23 c0,0 -9.23,-5.49 -10.72,-5.49 s6.73,8 6.23,10 C881.9728565979004,290.35142861366273 875.2428565979004,282.3714286136627 873.4928565979004,282.8714286136627 z" fill="#20c3b8" id="svg_58" class=""/><path d="M929.9214282989502,333.7014286136627 h2.47 s0.77,-27 -2.47,-35.37 h-0.6200000000000134 S931.4614282989502,328.91142861366274 929.9214282989502,333.7014286136627 z" fill="#20c3b8" id="svg_59" class=""/><path d="M931.5714282989502,296.9414286136627 s2,5.5600000000000005 1.08,8 c0,0 -1.3900000000000001,-5.1 -3,-5.87 s-3.3200000000000003,5.87 -3.3200000000000003,5.87 a12.9,12.9 0 0 1 0.77,-7.57 a13.43,13.43 0 0 0 -5.1,5.41 s-0.3100000000000043,-2.3200000000000003 3.71,-7.1 a15.67,15.67 0 0 0 -5.87,3.09 s-0.77,-1.7000000000000002 4,-4.48 c0,0 -0.6200000000000129,-2 -4.32,-1.08 c0,0 0,-2.63 5.87,-2.16 c0,0 0,-1.7000000000000002 -3.8600000000000003,-1.3900000000000001 c0,0 0,-2.16 4.48,-1.3900000000000001 a6.79,6.79 0 0 0 -1.54,-1.7000000000000002 a3.11,3.11 0 0 1 2.16,0.6200000000000129 a4.18,4.18 0 0 1 2.16,-3.8600000000000003 l0.3100000000000043,3.8600000000000003 s2.6,-3.06 2,-2.47 a6.77,6.77 0 0 0 -0.46,2.93 a4.8100000000000005,4.8100000000000005 0 0 1 5.87,0.15000000000000024 s-4,0.3100000000000043 -4.63,1.7000000000000002 c0,0 3.4,-0.6200000000000129 4.17,-0.15000000000000024 c0,0 -2.63,0.93 -2.47,1.54 c0,0 4.63,0 5.25,1.7000000000000002 c0,0 -4.79,0.6200000000000129 -5.1,1.08 c0,0 5.5600000000000005,4 5.87,5.1 c0,0 -5.71,-3.4 -6.6400000000000015,-3.4 s4.17,4.94 3.8600000000000003,6.18 C936.8714282989501,301.5714286136627 932.7014282989502,296.6314286136627 931.5714282989502,296.9414286136627 z" fill="#20c3b8" id="svg_60" class=""/><path d="M849.6785714626312,301.28142861366274 a3.1,3.1 0 0 1 0,1.29 s-0.12000000000000002,1.13 0.07,1.32 " opacity="0.1" id="svg_90" class=""/><path d="M843.8085714626312,306.16142861366274 a0.8600000000000046,0.8600000000000046 0 0 0 0.5700000000000006,0 a1.2,1.2 0 0 1 0.6900000000000157,0 " opacity="0.1" id="svg_92" class=""/><path d="M847.7585714626313,311.1414286136627 l0.81,0 l0.7000000000000006,0.07 h-0.25 z" fill="#f0e4e4" id="svg_96" class=""/><path d="M847.7585714626313,311.3114286136627 l0.81,0 l0.7000000000000006,0.07 h-0.25 z" fill="#f0e4e4" id="svg_97" class=""/><path d="M847.7585714626313,311.4914286136627 l0.81,0 l0.7000000000000006,0.07 h-0.25 z" fill="#f0e4e4" id="svg_98" class=""/><path d="M847.7585714626313,311.6414286136627 l0.81,0 l0.7000000000000006,0.07 h-0.25 z" fill="#f0e4e4" id="svg_99" class=""/><path d="M842.3285714626312,314.91142861366274 l0.81,0 l0.7000000000000006,0.11000000000000022 h-0.25 z" fill="#f0e4e4" id="svg_104" class=""/><path d="M847.8085714626312,311.1414286136627 l0.81,0 l0.7000000000000006,0.07 h-0.25 z" fill="#f0e4e4" id="svg_110" class=""/><path d="M847.8085714626312,311.3114286136627 l0.81,0 l0.7000000000000006,0.07 h-0.25 z" fill="#f0e4e4" id="svg_111" class=""/><path d="M847.8085714626312,311.4914286136627 l0.81,0 l0.7000000000000006,0.07 h-0.25 z" fill="#f0e4e4" id="svg_112" class=""/><path d="M847.8085714626312,311.6414286136627 l0.81,0 l0.7000000000000006,0.07 h-0.25 z" fill="#f0e4e4" id="svg_113" class=""/><path d="M847.4285714626312,320.8714286136627 l0.81,0 l0.7000000000000006,0.07 h-0.25 z" fill="#f0e4e4" id="svg_114" class=""/><path d="M847.4285714626312,321.03142861366274 l0.81,0 l0.7000000000000006,0.07 h-0.25 z" fill="#f0e4e4" id="svg_115" class=""/><path d="M847.4285714626312,321.2014286136627 l0.81,0 l0.7000000000000006,0.07 h-0.25 z" fill="#f0e4e4" id="svg_116" class=""/><path d="M847.4285714626312,321.3714286136627 l0.81,0 l0.7000000000000006,0.07 h-0.25 z" fill="#f0e4e4" id="svg_117" class=""/><path d="M393.8085714626312,773.2514286136627 H314.2685714626312 V728.4414286136628 h79.54 zM317.6285714626312,769.8914286136627 H390.4285714626312 V731.8014286136627 H317.6285714626312 z" fill="#20c3b8" opacity="0.2" id="svg_118" class=""/><path d="M346.7385714626312,496.4914286136627 s2.55,90.62 5.11,102.11 S391.4285714626312,644.5914286136627 410.5585714626312,645.8714286136627 c0,0 20.42,48.5 43.4,40.84 s25.53,-48.5 14,-53.61 L391.4285714626312,584.6014286136627 v-97 z" fill="#fdb797" id="svg_120" class=""/><path d="M348.65857146263124,607.5814286136628 s33.19,71.48 29.36,83 s-217,0 -217,0 s39.57,-39.57 31.91,-83 z" fill="#565171" id="svg_121" class=""/><path d="M226.7585714626312,509.9314286136628 S197.42857146263123,529.8514286136627 171.87857146263121,528.1914286136628 c0,0 -2.55,-34.21 5.11,-36.12 S217.8285714626312,492.07142861366265 226.7585714626312,509.9314286136628 z" opacity="0.1" id="svg_127" class=""/><path d="M358.22857146263124,581.4114286136627 a226.11,226.11 0 0 0 -58.71,-7.66 " opacity="0.1" id="svg_133" class=""/><path d="M226.7585714626312,512.4914286136627 s19.15,14 14,21.7 " opacity="0.1" id="svg_134" class=""/><g opacity="0.7" id="svg_135" class=""><polygon points="756.0086059570312,657.2124197483063 129.30856323242188,657.2124197483063 129.30856323242188,712.00239777565 165.78857421875,712.00239777565 165.78857421875,722.7024099826813 165.78857421875,884.4124319553375 720.82861328125,884.4124319553375 720.82861328125,722.7024099826813 720.82861328125,712.00239777565 756.0086059570312,712.00239777565 756.0086059570312,657.2124197483063 " fill="url(#589be0bd-308d-435b-8cf0-b9d21bd74c82)" id="svg_136"/></g><rect x="171.42857360839844" y="689.1214599609375" width="543.72998046875" height="195.2899932861328" fill="#e0e0e0" id="svg_137" class=""/><rect x="171.42857360839844" y="699.3314819335938" width="543.72998046875" height="30.6299991607666" opacity="0.1" id="svg_138" class=""/><rect x="135.68856811523438" y="667.4214477539062" width="613.9400024414062" height="52.33000183105469" fill="#e0e0e0" id="svg_139" class=""/><rect x="251.68856811523438" y="654.5414428710938" width="117.43000030517578" height="16.59000015258789" rx="6.5" ry="6.5" fill="#535461" id="svg_140" class=""/><g opacity="0.7" id="svg_141" class=""><rect x="323.1585693359375" y="469.5414123535156" width="291.8500061035156" height="201.8000030517578" rx="28.219999313354492" ry="28.219999313354492" fill="url(#3aa21ed4-97e3-4e91-81c1-d27551f27de1)" id="svg_142"/></g><rect x="328.3685607910156" y="473.27142333984375" width="276.4700012207031" height="198.07000732421875" rx="26.84000015258789" ry="26.84000015258789" fill="#3e3f49" id="svg_143" class=""/><rect x="332.19854736328125" y="473.27142333984375" width="276.4700012207031" height="198.07000732421875" rx="26.84000015258789" ry="26.84000015258789" fill="#535461" id="svg_144" class=""/><circle cx="483.34857177734375" cy="570.94140625" r="8.930000305175781" fill="#e0e0e0" id="svg_145" class=""/></g></svg>