<?xml version="1.0" encoding="utf-8"?>
<!-- Generator: Adobe Illustrator 16.0.0, SVG Export Plug-In . SVG Version: 6.00 Build 0)  -->
<!DOCTYPE svg PUBLIC "-//W3C//DTD SVG 1.1//EN" "http://www.w3.org/Graphics/SVG/1.1/DTD/svg11.dtd">
<svg version="1.1" xmlns="http://www.w3.org/2000/svg" xmlns:xlink="http://www.w3.org/1999/xlink" x="0px" y="0px" width="500px"
	 height="500px" viewBox="0 0 500 500" enable-background="new 0 0 500 500" xml:space="preserve">
<g id="Background_Complete">
	<g>
		<g>
			<rect y="382.398" fill="#EBEBEB" width="500" height="0.25"/>
			<path fill="#EBEBEB" d="M237.014,337.8H43.915c-3.147,0-5.708-2.561-5.708-5.708V60.66c0-3.147,2.561-5.708,5.708-5.708h193.099
				c3.146,0,5.707,2.561,5.707,5.708v271.432C242.721,335.239,240.16,337.8,237.014,337.8z"/>
			<path fill="#EBEBEB" d="M453.311,337.8H260.212c-3.146,0-5.707-2.561-5.707-5.708V60.66c0-3.147,2.561-5.708,5.707-5.708h193.099
				c3.147,0,5.708,2.561,5.708,5.708v271.432C459.019,335.239,456.458,337.8,453.311,337.8z"/>
		</g>
		<g>
			<rect x="51.279" y="391.922" fill="#EBEBEB" width="25.997" height="0.25"/>
			<rect x="145.153" y="389.208" fill="#EBEBEB" width="45.026" height="0.25"/>
			<rect x="78.277" y="401.208" fill="#EBEBEB" width="60.792" height="0.25"/>
			<rect x="429.486" y="399.528" fill="#EBEBEB" width="19.234" height="0.25"/>
			<rect x="365.291" y="399.528" fill="#EBEBEB" width="55.292" height="0.25"/>
			<rect x="257.047" y="395.306" fill="#EBEBEB" width="74.467" height="0.25"/>
		</g>
	</g>
	<g>
		<g>
			<g>
				<polygon fill="#E6E6E6" points="169.64,295.667 115.06,295.667 111.746,257.444 166.326,257.444 				"/>
				<polygon fill="#F0F0F0" points="172.467,295.667 117.887,295.667 114.573,257.444 169.154,257.444 				"/>
				<polygon fill="#FFFFFF" points="125.348,287.459 123.528,265.652 161.692,265.652 163.512,287.459 				"/>
			</g>
			<g>
				<rect x="196.815" y="295.667" fill="#E6E6E6" width="7.791" height="86.729"/>
				<rect x="201.654" y="295.667" fill="#F0F0F0" width="5.41" height="86.729"/>
				<rect x="131.655" y="295.667" fill="#F0F0F0" width="75.409" height="9.572"/>
				<rect x="126.53" y="305.239" fill="#E6E6E6" width="7.791" height="77.157"/>
				<rect x="131.369" y="305.239" fill="#F0F0F0" width="5.411" height="77.157"/>
				<rect x="71.073" y="305.239" fill="#E6E6E6" width="7.791" height="77.157"/>
				<rect x="75.912" y="305.239" fill="#F0F0F0" width="5.41" height="77.157"/>
				<rect x="147.512" y="305.239" fill="#E6E6E6" width="7.791" height="77.157"/>
				<rect x="152.351" y="305.239" fill="#F0F0F0" width="5.411" height="77.157"/>
				<rect x="71.073" y="295.667" fill="#E6E6E6" width="60.582" height="9.572"/>
			</g>
		</g>
		<g>
			<rect x="69.006" y="82.417" fill="#E6E6E6" width="226.229" height="129.78"/>
			<rect x="71.831" y="82.417" fill="#F0F0F0" width="229.45" height="129.78"/>
			<rect x="69.006" y="212.197" fill="#E6E6E6" width="226.229" height="11.236"/>
			<rect x="81.904" y="212.197" fill="#F0F0F0" width="229.45" height="11.236"/>
			<rect x="80.297" y="90.883" fill="#FAFAFA" width="212.519" height="112.849"/>
			<polygon fill="#FFFFFF" points="95.908,203.731 145.595,90.883 169.05,90.883 119.363,203.731 			"/>
			<path fill="#F0F0F0" d="M84.216,195.306c-0.334,0-0.604-0.271-0.604-0.605v-98.31c0-0.334,0.271-0.604,0.604-0.604
				s0.604,0.271,0.604,0.604v98.31C84.82,195.035,84.55,195.306,84.216,195.306z"/>
			<polygon fill="#FFFFFF" points="124.401,203.731 174.089,90.883 183.232,90.883 133.546,203.731 			"/>
			<rect x="291.74" y="90.883" fill="#E6E6E6" width="1.075" height="112.849"/>
			<polygon opacity="0.6" fill="#EBEBEB" points="303.283,103.647 77.055,103.647 76.275,94.173 302.504,94.173 			"/>
			<polygon opacity="0.6" fill="#EBEBEB" points="303.283,119.184 77.055,119.184 76.275,109.711 302.504,109.711 			"/>
			<polygon opacity="0.6" fill="#EBEBEB" points="303.283,134.722 77.055,134.722 76.275,125.248 302.504,125.248 			"/>
			<polygon opacity="0.6" fill="#EBEBEB" points="303.283,150.259 77.055,150.259 76.275,140.785 302.504,140.785 			"/>
			<polygon opacity="0.6" fill="#EBEBEB" points="303.283,165.796 77.055,165.796 76.275,156.322 302.504,156.322 			"/>
			<polygon opacity="0.6" fill="#EBEBEB" points="303.283,181.333 77.055,181.333 76.275,171.86 302.504,171.86 			"/>
		</g>
		<g>
			<g>
				<rect x="365.422" y="82.417" fill="#EBEBEB" width="60.917" height="60.917"/>
				<rect x="362.721" y="82.417" fill="#E0E0E0" width="2.701" height="60.917"/>
				<rect x="373.675" y="90.67" fill="#FFFFFF" width="44.411" height="44.412"/>
				
					<rect x="385.371" y="102.366" transform="matrix(-0.7071 0.7071 -0.7071 -0.7071 755.6195 -87.2509)" fill="#F5F5F5" width="21.019" height="21.019"/>
			</g>
			<g>
				<rect x="344.432" y="162.516" fill="#EBEBEB" width="60.917" height="60.917"/>
				<rect x="341.73" y="162.516" fill="#E0E0E0" width="2.701" height="60.917"/>
				<rect x="352.684" y="170.769" fill="#FFFFFF" width="44.412" height="44.412"/>
				<path fill="#F5F5F5" d="M371.736,202.442h6.307c3.487,0,6.314-2.827,6.314-6.314v-6.306c0-3.488-2.827-6.315-6.314-6.315h-6.307
					c-3.487,0-6.314,2.827-6.314,6.315v6.306C365.422,199.615,368.249,202.442,371.736,202.442z"/>
			</g>
		</g>
		<g>
			<g>
				<rect x="292.534" y="253.035" fill="#F0F0F0" width="15.19" height="125.275"/>
				<rect x="294.639" y="378.31" fill="#F0F0F0" width="145.859" height="4.089"/>
				<rect x="307.725" y="253.035" fill="#FAFAFA" width="134.879" height="125.275"/>
				<path fill="#F0F0F0" d="M416.196,326.239h-82.064c-8.056,0-14.609-6.554-14.609-14.61s6.554-14.61,14.609-14.61h82.064
					c8.056,0,14.609,6.554,14.609,14.61S424.252,326.239,416.196,326.239z M334.132,298c-7.515,0-13.629,6.114-13.629,13.628
					s6.114,13.628,13.629,13.628h82.064c7.515,0,13.629-6.114,13.629-13.628S423.711,298,416.196,298H334.132z"/>
				<path fill="#F0F0F0" d="M416.196,362.585h-82.064c-8.056,0-14.609-6.554-14.609-14.61s6.554-14.61,14.609-14.61h82.064
					c8.056,0,14.609,6.554,14.609,14.61S424.252,362.585,416.196,362.585z M334.132,334.347c-7.515,0-13.629,6.114-13.629,13.628
					s6.114,13.628,13.629,13.628h82.064c7.515,0,13.629-6.114,13.629-13.628s-6.114-13.628-13.629-13.628H334.132z"/>
				<path fill="#EBEBEB" d="M387.547,308.478h-24.766c-1.677,0-3.048-1.372-3.048-3.048l0,0c0-1.676,1.371-3.048,3.048-3.048h24.766
					c1.677,0,3.048,1.372,3.048,3.048l0,0C390.595,307.106,389.224,308.478,387.547,308.478z"/>
				<path fill="#F0F0F0" d="M416.196,289.893h-82.064c-8.056,0-14.609-6.554-14.609-14.61s6.554-14.61,14.609-14.61h82.064
					c8.056,0,14.609,6.554,14.609,14.61S424.252,289.893,416.196,289.893z M334.132,261.654c-7.515,0-13.629,6.114-13.629,13.628
					s6.114,13.628,13.629,13.628h82.064c7.515,0,13.629-6.114,13.629-13.628s-6.114-13.628-13.629-13.628H334.132z"/>
				<path fill="#EBEBEB" d="M387.547,272.132h-24.766c-1.677,0-3.048-1.372-3.048-3.048l0,0c0-1.677,1.371-3.048,3.048-3.048h24.766
					c1.677,0,3.048,1.372,3.048,3.048l0,0C390.595,270.76,389.224,272.132,387.547,272.132z"/>
				<path fill="#EBEBEB" d="M387.547,344.824h-24.766c-1.677,0-3.048-1.372-3.048-3.048l0,0c0-1.677,1.371-3.048,3.048-3.048h24.766
					c1.677,0,3.048,1.372,3.048,3.048l0,0C390.595,343.453,389.224,344.824,387.547,344.824z"/>
			</g>
			<rect x="307.725" y="246.667" fill="#F0F0F0" width="137.652" height="6.368"/>
			<rect x="289.558" y="246.667" fill="#E6E6E6" width="18.167" height="6.368"/>
		</g>
	</g>
</g>
<g id="Background_Simple" display="none">
	<g display="inline">
		<path fill="#407BFF" d="M226.418,332.301c87.389,14.162,194.08,4.801,214.479-94.937
			c18.507-90.489-64.759-166.124-158.239-137.005c-40.32,12.56-59.114,51.142-102.401,57.67
			c-43.271,6.525-98.249-9.316-115.877,46.267C37.085,290.362,168.911,322.982,226.418,332.301z"/>
		<path opacity="0.9" fill="#FFFFFF" d="M226.418,332.301c87.389,14.162,194.08,4.801,214.479-94.937
			c18.507-90.489-64.759-166.124-158.239-137.005c-40.32,12.56-59.114,51.142-102.401,57.67
			c-43.271,6.525-98.249-9.316-115.877,46.267C37.085,290.362,168.911,322.982,226.418,332.301z"/>
	</g>
</g>
<g id="Shadow_1_">
	<ellipse id="_x3C_Path_x3E__212_" fill="#F5F5F5" cx="250" cy="416.238" rx="193.889" ry="11.324"/>
</g>
<g id="Terms_and_Conditions">
	<g>
		<g>
			<path fill="#407BFF" d="M413.643,148.229H262.925c0,0-27.155,24.965-27.155,85.786c0,52.27,20.586,123.134,12.858,152.15
				c-5.828,21.888-34.101,25.645-47.644,26.169H344.44c0,0,47.179,2.847,54.905-26.169s-12.858-99.881-12.858-152.15
				C386.487,173.194,413.643,148.229,413.643,148.229z"/>
			<path opacity="0.7" fill="#FFFFFF" d="M413.643,148.229H262.925c0,0-27.155,24.965-27.155,85.786
				c0,52.27,20.586,123.134,12.858,152.15c-5.828,21.888-34.101,25.645-47.644,26.169H344.44c0,0,47.179,2.847,54.905-26.169
				s-12.858-99.881-12.858-152.15C386.487,173.194,413.643,148.229,413.643,148.229z"/>
		</g>
		<g opacity="0.8">
			<path opacity="0.8" fill="#20C5BA" d="M372.64,212.33H252.1c3.41-26.74,12.601-42.3,17.67-49.1H385.95
				C380.3,175.13,374.92,191.34,372.64,212.33z"/>
			<path opacity="0.3" fill="#407BFF" d="M371.63,226.51H250.92c0.1-2.43,0.24-4.79,0.44-7.07H372
				C371.83,221.74,371.71,224.1,371.63,226.51z"/>
			<path opacity="0.3" fill="#407BFF" d="M288.767,240.68H250.88c-0.07-2.26-0.11-4.48-0.11-6.67v-0.39h37.897v0.39
				C288.667,236.21,288.697,238.44,288.767,240.68z"/>
			<path opacity="0.3" fill="#407BFF" d="M372.35,254.85H251.73c-0.211-2.38-0.381-4.74-0.511-7.06h120.67
				C372.01,250.13,372.16,252.48,372.35,254.85z"/>
			<path opacity="0.3" fill="#407BFF" d="M373.68,269.03H253.16c-0.28-2.37-0.54-4.73-0.78-7.07h120.57
				C373.17,264.31,373.42,266.67,373.68,269.03z"/>
			<path opacity="0.3" fill="#407BFF" d="M375.42,283.2H254.98c-0.33-2.36-0.641-4.72-0.94-7.06H374.52
				C374.8,278.49,375.1,280.84,375.42,283.2z"/>
			<path opacity="0.3" fill="#407BFF" d="M377.41,297.37H257.03c-0.351-2.36-0.7-4.71-1.04-7.06H376.4
				C376.73,292.66,377.07,295.02,377.41,297.37z"/>
			<path opacity="0.3" fill="#407BFF" d="M379.54,311.55H259.17c-0.189-1.29-0.39-2.6-0.59-3.91c-0.16-1.05-0.32-2.1-0.48-3.16
				h120.37C378.83,306.84,379.18,309.2,379.54,311.55z"/>
			<path opacity="0.3" fill="#407BFF" d="M261.27,325.72c-0.33-2.33-0.67-4.68-1.029-7.06h120.38c0.35,2.36,0.71,4.71,1.05,7.06
				H261.27z"/>
			<path opacity="0.3" fill="#407BFF" d="M263.18,339.89c-0.279-2.31-0.59-4.67-0.91-7.06h100.397c0.34,2.38,0.659,4.74,0.96,7.06
				H263.18z"/>
			<path opacity="0.3" fill="#407BFF" d="M264.66,354.07c-0.19-2.311-0.41-4.67-0.66-7.07h120.52c0.271,2.42,0.521,4.78,0.73,7.07
				H264.66z"/>
			<path opacity="0.3" fill="#407BFF" d="M265.35,368.24c-0.01-2.28-0.09-4.64-0.22-7.061h63.59c0.16,2.47,0.25,4.83,0.28,7.061
				H265.35z"/>
		</g>
		<path fill="#20C5BA" d="M356.015,404.68c-7.651,1.39-15.401,0.329-23.093-0.044c-3.688-0.178-7.397-0.193-11.064,0.296
			c-3.592,0.48-7.176,1.416-10.807,1.101c1.199-0.646,2.32-1.408,3.373-2.291c0.233-0.195,0.078-0.542-0.165-0.627
			c-11.29-3.961-21.572,6.828-32.815,4.301c3.183-2.361,7.675-2.408,10.396-5.504c0.211-0.241,0.072-0.635-0.266-0.641
			c-10.073-0.157-19.587,3.748-29.544,4.617c-0.478,0.042-0.482,0.792,0,0.75c9.652-0.843,18.898-4.528,28.629-4.609
			c-2.906,2.596-7.347,2.692-10.31,5.309c-0.215,0.19-0.094,0.556,0.166,0.627c11.333,3.129,21.659-7.687,32.853-4.342
			c-1.174,0.914-2.428,1.683-3.786,2.31c-0.282,0.13-0.221,0.634,0.09,0.686c3.689,0.618,7.297-0.169,10.935-0.749
			c4.082-0.65,8.197-0.684,12.316-0.484c7.767,0.376,15.566,1.421,23.292,0.017C356.688,405.317,356.487,404.594,356.015,404.68z"/>
	</g>
</g>
<g id="Character">
	<g>
		<g>
			<path fill="#FFB573" d="M151.876,185.128c0.635,0.808,1.44,1.761,2.185,2.64c0.764,0.893,1.55,1.773,2.353,2.633
				c1.61,1.718,3.239,3.412,4.96,4.979c3.435,3.113,7.121,5.924,10.981,7.698c0.481,0.217,0.963,0.424,1.447,0.598
				c0.252,0.103,0.471,0.174,0.678,0.238c0.21,0.073,0.426,0.142,0.657,0.191c0.902,0.226,1.891,0.392,2.934,0.457
				c2.089,0.115,4.342-0.025,6.617-0.377c2.279-0.333,4.589-0.852,6.895-1.464c2.294-0.599,4.646-1.344,6.842-2.115l2.022,3.965
				c-4.481,2.756-9.132,4.898-14.297,6.357c-2.575,0.712-5.279,1.225-8.161,1.317c-1.44,0.042-2.938-0.026-4.468-0.299
				c-0.382-0.057-0.767-0.142-1.154-0.24c-0.396-0.09-0.773-0.189-1.105-0.299c-0.7-0.204-1.378-0.442-2.047-0.694
				c-5.332-2.066-9.769-5.234-13.76-8.684c-1.986-1.741-3.9-3.538-5.672-5.46c-0.89-0.958-1.758-1.933-2.606-2.929
				c-0.866-1.012-1.641-1.978-2.508-3.149L151.876,185.128z"/>
			<path fill="#20C5BA" d="M141.713,182.302c-0.22,5.601,1.952,15.694,1.952,15.694l13.862-1.679c0,0,0.508-14.774-2.179-18.345
				C150.836,171.972,141.921,177.012,141.713,182.302z"/>
			<path fill="#FFB573" d="M196.618,202.055l6.496-5.94l0.826,6.396c0,0-2.69,3.604-5.741,2.09L196.618,202.055z"/>
			<polygon fill="#FFB573" points="206.371,196.459 209.122,200.064 203.94,202.511 203.114,196.114 			"/>
			<g>
				<path fill="#263238" d="M204.734,180.269c0.688-0.042,1.066-0.004,1.561,0.005c0.25,0.003,0.471,0.015,0.625,0.043l0.521,0.069
					c0.607,0.116,0.994,0.289,1.238,0.499c0.238,0.211,0.251,0.481,0.342,0.73l0.231,0.759l0.928,3.036l1.855,6.073l3.71,12.145
					c2.45,8.103,4.999,16.179,7.362,24.305c4.852,16.218,9.446,32.502,13.953,48.81c4.504,16.308,8.748,32.683,13.104,49.029
					c4.421,16.33,8.264,32.809,9.65,49.924c0.222,2.731-1.813,5.125-4.545,5.347c-2.141,0.174-4.076-1.048-4.919-2.895
					c-7.098-15.636-11.74-31.908-15.805-48.33c-4.129-16.405-8.37-32.781-12.351-49.224c-3.979-16.445-7.869-32.911-11.503-49.445
					c-1.879-8.25-3.573-16.549-5.364-24.822l-2.654-12.418l-1.327-6.209l-0.663-3.104l-0.166-0.776
					c-0.042-0.262-0.162-0.504-0.056-0.805c0.111-0.302,0.365-0.641,0.84-1.037l0.423-0.314c0.121-0.1,0.308-0.216,0.525-0.341
					c0.428-0.247,0.74-0.465,1.361-0.762C203.973,180.387,204.359,180.292,204.734,180.269z"/>
				<g>
					<path fill="#407BFF" d="M258.863,378.165c-0.169-0.561-0.737-0.901-1.304-0.754l-2.2,0.57l-2.201,0.57
						c-0.566,0.147-0.897,0.72-0.772,1.292c1.374,6.292,0.031,10.809,1.466,16.345c1.511,5.833,8.08,8.818,8.08,8.818l-0.215-2.484
						l1.02,2.276c0,0,4.293-5.799,2.782-11.632C264.084,387.629,260.717,384.333,258.863,378.165z"/>
					<path opacity="0.3" fill="#FFFFFF" d="M258.863,378.165c-0.169-0.561-0.737-0.901-1.304-0.754l-2.2,0.57l-2.201,0.57
						c-0.566,0.147-0.897,0.72-0.772,1.292c1.374,6.292,0.031,10.809,1.466,16.345c1.511,5.833,8.08,8.818,8.08,8.818l-0.215-2.484
						l1.02,2.276c0,0,4.293-5.799,2.782-11.632C264.084,387.629,260.717,384.333,258.863,378.165z"/>
				</g>
				<circle fill="#263238" cx="259.242" cy="392.967" r="1.377"/>
				<path fill="#263238" d="M261.795,402.824c-0.167,0.043-0.337-0.057-0.38-0.224l-2.476-9.556
					c-0.043-0.167,0.057-0.336,0.224-0.38c0.167-0.043,0.337,0.057,0.38,0.224l2.476,9.555
					C262.063,402.611,261.962,402.781,261.795,402.824z"/>
				<path fill="#20C5BA" d="M253.699,343.816l-13.479,3.492c-0.773,0.2-1.571-0.269-1.772-1.043l0,0
					c-0.2-0.774,0.269-1.572,1.043-1.773L252.969,341c0.774-0.201,1.572,0.269,1.773,1.043l0,0
					C254.942,342.817,254.473,343.615,253.699,343.816z"/>
			</g>
			<path fill="#263238" d="M185.274,160.801c-0.241,0.602-0.118,1.227,0.274,1.397c0.394,0.17,0.906-0.179,1.148-0.78
				c0.24-0.601,0.118-1.227-0.274-1.397C186.03,159.851,185.516,160.2,185.274,160.801z"/>
			<path fill="#263238" d="M186.235,159.979l1.61,0.209C187.846,160.188,186.652,160.995,186.235,159.979z"/>
			<path fill="#ED893E" d="M185.547,161.605c0,0-0.02,3.03,0.602,4.766c-1.09,0.397-2.303-0.526-2.303-0.526L185.547,161.605z"/>
			<path fill="#263238" d="M187.691,157.141c-0.06-0.013-0.117-0.041-0.167-0.083c-1.3-1.118-2.651-0.791-2.708-0.776
				c-0.205,0.052-0.413-0.07-0.466-0.274c-0.053-0.204,0.067-0.412,0.271-0.466c0.072-0.018,1.786-0.452,3.401,0.938
				c0.16,0.138,0.179,0.379,0.041,0.539C187.969,157.128,187.824,157.171,187.691,157.141z"/>
			<path fill="#FFB573" d="M164.071,160.49c0.433,4.865-1.195,12.84-4.872,15.554c0,0,2.77,5.12,11.641,6.311
				c9.754,1.309,5.172-4.181,5.172-4.181c-5.189-1.977-4.636-5.879-3.317-9.437L164.071,160.49z"/>
			<path fill="#FFB573" d="M190.645,186.475c0.763,4.548,1.713,9.256,2.705,13.842c0.526,2.294,1.062,4.588,1.683,6.843
				c0.574,2.273,1.237,4.502,1.932,6.711c0.374,1.085,0.713,2.196,1.113,3.261l0.6,1.599l0.147,0.393l0.035,0.114
				c0.026,0.067,0.043,0.132,0.074,0.182c0.088,0.194,0.307,0.48,0.939,0.732c0.611,0.244,1.491,0.404,2.454,0.467
				c1.945,0.11,4.176-0.136,6.398-0.523c2.217-0.393,4.544-0.934,6.713-1.54l1.833,4.056c-1.149,0.689-2.242,1.244-3.399,1.798
				c-1.145,0.555-2.319,1.056-3.53,1.504c-2.428,0.889-4.964,1.632-7.853,1.873c-1.448,0.115-3.004,0.096-4.72-0.321
				c-1.679-0.399-3.68-1.345-5.087-3.065c-0.355-0.415-0.656-0.867-0.925-1.326c-0.134-0.23-0.245-0.463-0.363-0.698l-0.198-0.444
				l-0.777-1.75c-0.514-1.169-0.961-2.344-1.429-3.521c-0.86-2.362-1.679-4.731-2.395-7.112c-0.719-2.386-1.341-4.781-1.951-7.18
				c-1.197-4.82-2.161-9.586-2.889-14.582L190.645,186.475z"/>
			<path fill="#FFB573" d="M214.445,218.837l3.859-3.062l1.734,5.947c0,0-5.281,3.819-6.692-0.672L214.445,218.837z"/>
			<polygon fill="#FFB573" points="221.786,216.833 223.167,221.167 220.039,221.722 218.305,215.775 			"/>
			<polygon fill="#FFB573" points="149.667,407.412 157.735,408.006 160.132,389.478 152.063,388.883 			"/>
			<polygon fill="#FFB573" points="97.992,383.871 104.982,388.122 116.607,373.6 109.617,369.349 			"/>
			<path fill="#407BFF" d="M109.856,390.258c-0.093,0.026-0.19,0.038-0.292,0.036c-1.028-0.022-2.189-1.567-2.791-2.487
				c-0.041-0.064-0.041-0.147,0.002-0.211c0.044-0.064,0.121-0.095,0.196-0.081c0.328,0.066,3.215,0.672,3.595,1.637
				c0.085,0.214,0.052,0.436-0.095,0.641C110.297,390.037,110.09,390.192,109.856,390.258z M107.362,387.993
				c0.844,1.198,1.655,1.907,2.21,1.919c0.228,0.004,0.421-0.107,0.589-0.343c0.091-0.126,0.074-0.215,0.05-0.277
				C110.011,388.783,108.512,388.27,107.362,387.993z"/>
			<path fill="#407BFF" d="M109.43,387.76c-0.869,0.245-1.996,0.275-2.546,0.127c-0.065-0.018-0.116-0.068-0.134-0.133
				c-0.019-0.065-0.001-0.135,0.046-0.184c0.066-0.069,1.655-1.698,2.819-1.649c0.319,0.013,0.583,0.143,0.783,0.386
				c0.312,0.381,0.195,0.688,0.099,0.838C110.319,387.42,109.915,387.624,109.43,387.76z M107.333,387.58
				c0.976,0.106,2.54-0.175,2.843-0.643c0.051-0.078,0.087-0.192-0.074-0.388c-0.129-0.158-0.293-0.239-0.501-0.247
				C108.902,386.274,107.89,387.067,107.333,387.58z"/>
			<path fill="#263238" d="M107.079,386.563l-6.631-6.385c-0.241-0.232-0.594-0.258-0.848-0.062l-5.658,4.367
				c-0.587,0.453-0.601,1.404-0.035,1.93c2.35,2.187,3.59,3.128,6.506,5.936c1.794,1.727,4.241,4.432,6.719,6.817
				c2.423,2.333,4.898,0.134,4.074-1.075c-3.696-5.419-3.145-7.455-3.479-10.226C107.666,387.366,107.432,386.903,107.079,386.563z"
				/>
			<path fill="#407BFF" d="M161.238,408.268c-0.889,0-1.852-0.152-2.534-0.289c-0.08-0.016-0.14-0.081-0.151-0.161
				s0.029-0.159,0.102-0.196c0.37-0.19,3.643-1.838,4.609-1.287c0.188,0.106,0.296,0.282,0.31,0.509
				c0.024,0.381-0.101,0.694-0.369,0.929C162.781,408.145,162.04,408.268,161.238,408.268z M159.344,407.708
				c1.78,0.296,3.107,0.218,3.609-0.222c0.178-0.155,0.255-0.357,0.238-0.617c-0.006-0.099-0.041-0.159-0.115-0.201
				C162.543,406.369,160.686,407.072,159.344,407.708z"/>
			<path fill="#407BFF" d="M158.742,407.983c-0.04,0-0.08-0.013-0.112-0.037c-0.056-0.04-0.085-0.106-0.078-0.175
				c0.016-0.144,0.388-3.443,2.194-3.443c0.051,0,0.104,0.002,0.156,0.008c0.523,0.053,0.673,0.318,0.708,0.53
				c0.146,0.912-1.807,2.661-2.791,3.1C158.795,407.978,158.769,407.983,158.742,407.983z M160.753,404.711
				c-1.164,0-1.623,1.917-1.767,2.736c1.006-0.6,2.334-1.974,2.246-2.521c-0.007-0.043-0.028-0.176-0.368-0.21
				C160.826,404.713,160.789,404.711,160.753,404.711z"/>
			<path fill="#263238" d="M158.238,406.857h-9.069c-0.329,0-0.604,0.229-0.658,0.551l-1.217,7.175
				c-0.127,0.745,0.495,1.449,1.257,1.436c3.164-0.054,4.692-0.24,8.681-0.24c2.453,0,7.522,0.255,10.911,0.255
				c3.313,0,3.654-3.351,2.252-3.654c-6.292-1.361-8.733-3.237-10.819-5.027C159.199,407.031,158.722,406.857,158.238,406.857z"/>
			<g>
				<polygon opacity="0.2" points="160.129,389.482 158.799,399.78 150.823,398.444 152.058,388.888 				"/>
				<polygon opacity="0.2" points="109.613,369.352 116.605,373.604 111.794,379.61 104.651,375.544 				"/>
			</g>
			<path fill="#20C5BA" d="M145.598,224.659c6.316,0.845,19.716,2.646,32.674,4.39c12.66-45.819,8.928-47.076,8.926-47.077
				c-0.997-0.597-2.951-1.199-4.448-1.741c-1.541-0.557-3.099-1.068-4.669-1.533c-3.143-0.93-6.339-1.674-9.568-2.23
				c-6.272-1.083-12.676-1.442-19.029-1.067c-1.24,0.074-2.509,0.777-3.206,1.825c-0.134,0.199-0.249,0.41-0.351,0.627
				c-0.354,0.757-0.488,1.606-0.393,2.436C148.32,204.396,147.43,212.324,145.598,224.659z"/>
			<path opacity="0.2" d="M181.453,196.028c-0.896,6.397,0.745,11.579,1.768,14.044c2.172-8.943,3.348-15.042,3.934-19.201
				C184.662,190.691,182.068,191.647,181.453,196.028z"/>
			<path fill="#20C5BA" d="M186.914,181.838c5.594,3.206,9.482,10.834,10.655,15.266l-11.916,10.918c0,0-6.182-14.371-5.685-18.836
				C180.473,184.667,184.798,180.626,186.914,181.838z"/>
			<path fill="#FFB573" d="M165.838,150.436c-2.509,7.58-3.732,10.73-1.526,16.136c3.318,8.131,13.152,9.845,17.869,3.238
				c4.246-5.947,7.636-17.344,1.593-23.414C177.819,140.416,168.347,142.855,165.838,150.436z"/>
			<path fill="#FFB573" d="M178.27,157.161c-0.566,1.337-0.568,3.003-0.239,4.349c0.496,2.023,2.007,2.166,2.926,0.875
				c0.827-1.161,1.566-3.614,0.561-5.295C180.525,155.434,178.917,155.632,178.27,157.161z"/>
			<path fill="#263238" d="M168.556,141c-5.394-3-15.111,5.778-17.556,20.109c-1.751,10.264,20.161,15.224,33.997,15.058
				c-0.914-2.417-6.664-9.697-2.994-16.703c2.666-5.091,5.708-3.917,5.905-9.839C188.156,142.167,178.277,137.167,168.556,141z"/>
			<path fill="#263238" d="M180.854,144.222c6.274-0.611,12.591,5.556,7.901,11.707c0,0-3.422-3.04-8.237-1.984
				C177.653,154.572,180.854,144.222,180.854,144.222z"/>
			<path fill="#263238" d="M169.646,227.888c0,0-12.687,53.625-18.615,84.43c-6.257,32.5-36.271,66.359-36.271,66.359l-10.194-5.684
				c0,0,18.885-30.907,25.012-61.252c12.438-61.601,4.018-74.009,16.021-87.08L169.646,227.888z"/>
			<polygon fill="#20C5BA" points="115.77,379.634 103.043,372.538 104.901,368.778 119.178,375.346 			"/>
			<path opacity="0.2" d="M162.904,239.544c-9.864,8.563-8.797,38.955-7.766,52.651c4.141-19.473,9.115-41.157,12.032-53.706
				C166.132,237.712,164.718,237.97,162.904,239.544z"/>
			<path fill="#263238" d="M177.787,229.075c0,0,5.708,63.661,2.594,87.945c-3.238,25.259-19.721,80.214-19.721,80.214
				l-11.638-1.502c0,0,9.454-54.457,11.134-79.465c1.832-27.263-6.297-90.403-6.297-90.403L177.787,229.075z"/>
			<polygon fill="#20C5BA" points="163.135,397.897 146.548,395.756 146.803,390.857 164.798,392.602 			"/>
			<g>
				<path fill="#407BFF" d="M145.313,222.692l-1.782,2.706c-0.139,0.21,0.105,0.476,0.484,0.526l34.268,4.599
					c0.294,0.04,0.554-0.071,0.592-0.252l0.604-2.864c0.041-0.199-0.196-0.403-0.519-0.446l-33.089-4.441
					C145.628,222.487,145.402,222.557,145.313,222.692z"/>
				<path opacity="0.5" d="M145.313,222.692l-1.782,2.706c-0.139,0.21,0.105,0.476,0.484,0.526l34.268,4.599
					c0.294,0.04,0.554-0.071,0.592-0.252l0.604-2.864c0.041-0.199-0.196-0.403-0.519-0.446l-33.089-4.441
					C145.628,222.487,145.402,222.557,145.313,222.692z"/>
			</g>
			<path fill="#263238" d="M149.367,226.961l-0.887-0.119c-0.176-0.023-0.301-0.132-0.277-0.241l0.816-3.716
				c0.023-0.109,0.188-0.178,0.364-0.154l0.886,0.119c0.177,0.024,0.302,0.132,0.278,0.241l-0.816,3.716
				C149.707,226.915,149.543,226.984,149.367,226.961z"/>
			<path fill="#263238" d="M171.748,230.017l-0.886-0.119c-0.177-0.023-0.302-0.132-0.277-0.241l0.816-3.716
				c0.023-0.109,0.188-0.178,0.364-0.154l0.886,0.119c0.177,0.024,0.302,0.132,0.277,0.241l-0.815,3.717
				C172.089,229.971,171.925,230.04,171.748,230.017z"/>
		</g>
	</g>
</g>
</svg>
