<svg id="_98" data-name="98" xmlns="http://www.w3.org/2000/svg" viewBox="0 0 69.19 83"><title>transaction</title><path d="M35.22,81.11A16.54,16.54,0,1,1,51.76,64.57,16.56,16.56,0,0,1,35.22,81.11Zm0-31.78A15.24,15.24,0,1,0,50.46,64.57,15.26,15.26,0,0,0,35.22,49.33Z"/><path d="M35.29,75.78a8,8,0,0,1-3.6-.83,5.31,5.31,0,0,1-2-1.94,6.69,6.69,0,0,1-1-3.17.65.65,0,1,1,1.3-.09,5.44,5.44,0,0,0,.76,2.57,4,4,0,0,0,1.52,1.48c2,1,5.19,1,6.9-.79a5,5,0,0,0,1-5,3.59,3.59,0,0,0-.84-1.3,4.6,4.6,0,0,0-1.45-1,17.3,17.3,0,0,0-2.56-.82,15.45,15.45,0,0,1-3.79-1.39,4.66,4.66,0,0,1-1.86-1.86,5.8,5.8,0,0,1,1.22-6.91,6.56,6.56,0,0,1,4.24-1.38,6.5,6.5,0,0,1,4.17,1.31,5.63,5.63,0,0,1,1.94,3.67.65.65,0,1,1-1.29.18,4.32,4.32,0,0,0-1.49-2.86,5.2,5.2,0,0,0-3.33-1,5.33,5.33,0,0,0-3.39,1.06A4.5,4.5,0,0,0,30.78,61a3.34,3.34,0,0,0,1.35,1.35,14.13,14.13,0,0,0,3.49,1.27,18.63,18.63,0,0,1,2.74.89,5.86,5.86,0,0,1,1.85,1.23,4.92,4.92,0,0,1,1.13,1.75,6.26,6.26,0,0,1-1.23,6.38A6.62,6.62,0,0,1,35.29,75.78Z"/><path d="M35.21,78a.65.65,0,0,1-.65-.65V51.92a.65.65,0,1,1,1.3,0v25.4A.65.65,0,0,1,35.21,78Z"/><path d="M35.22,35.08A16.54,16.54,0,1,1,51.76,18.54,16.56,16.56,0,0,1,35.22,35.08Zm0-31.78A15.24,15.24,0,1,0,50.46,18.54,15.26,15.26,0,0,0,35.22,3.3Z"/><path d="M41.77,17.56H25.95a.65.65,0,0,1,0-1.3H41.77a.65.65,0,0,1,0,1.3Z"/><path d="M41.77,21.07H25.95a.65.65,0,1,1,0-1.3H41.77a.65.65,0,1,1,0,1.3Z"/><path d="M39.75,28.26H36.89a9.59,9.59,0,0,1,0-19.18h2.86a.65.65,0,0,1,0,1.3H36.89a8.29,8.29,0,0,0,0,16.58h2.86a.65.65,0,1,1,0,1.3Z"/><path d="M19.34,65.9a.65.65,0,0,1-.33-.09,29.78,29.78,0,0,1-4.49-3.29.65.65,0,1,1,.86-1,28.57,28.57,0,0,0,4.3,3.15.65.65,0,0,1-.33,1.21Zm-7.46-6.4a.65.65,0,0,1-.5-.24,29,29,0,0,1-2.05-2.81.65.65,0,1,1,1.1-.7,27.56,27.56,0,0,0,2,2.68.65.65,0,0,1-.5,1.06ZM8,53.34A.65.65,0,0,1,7.4,53,28.5,28.5,0,0,1,6,49.32a.65.65,0,0,1,1.24-.38,27.06,27.06,0,0,0,1.35,3.48.65.65,0,0,1-.31.87A.66.66,0,0,1,8,53.34ZM5.78,46.5A.65.65,0,0,1,5.14,46C5,45,4.83,44,4.75,43A.65.65,0,1,1,6,42.93c.08.93.2,1.85.37,2.81a.65.65,0,0,1-.52.76Zm-.49-5.3a.65.65,0,0,1-.65-.65,29.33,29.33,0,0,1,.17-3.13.65.65,0,1,1,1.29.14,27.73,27.73,0,0,0-.16,3A.65.65,0,0,1,5.3,41.21Zm.84-6.93-.16,0a.65.65,0,0,1-.47-.79,29.3,29.3,0,0,1,1.23-3.82.65.65,0,1,1,1.21.48,28.05,28.05,0,0,0-1.18,3.65A.65.65,0,0,1,6.14,34.28Zm2.71-6.93a.64.64,0,0,1-.32-.08.65.65,0,0,1-.25-.88,30.35,30.35,0,0,1,1.92-3,.65.65,0,0,1,1.05.76A29.24,29.24,0,0,0,9.42,27,.65.65,0,0,1,8.85,27.36ZM13,21.63a.65.65,0,0,1-.48-1.09,29.6,29.6,0,0,1,2.3-2.21.65.65,0,0,1,.85,1,28.09,28.09,0,0,0-2.2,2.12A.65.65,0,0,1,13,21.63Zm4.35-3.82A.65.65,0,0,1,17,16.63c.74-.52,1.5-1,2.25-1.46a.65.65,0,1,1,.66,1.12c-.72.42-1.45.89-2.16,1.39A.65.65,0,0,1,17.37,17.81Z"/><path d="M51.7,65.9a.65.65,0,0,1-.33-1.21,28.55,28.55,0,0,0,4.3-3.15.65.65,0,1,1,.86,1A29.84,29.84,0,0,1,52,65.81.64.64,0,0,1,51.7,65.9Zm7.46-6.4a.65.65,0,0,1-.5-1.07,27,27,0,0,0,2-2.68.65.65,0,1,1,1.09.7,28.23,28.23,0,0,1-2.06,2.81A.65.65,0,0,1,59.17,59.5Zm3.9-6.16a.65.65,0,0,1-.59-.93,28,28,0,0,0,1.35-3.48.65.65,0,1,1,1.24.39A29.29,29.29,0,0,1,63.66,53,.65.65,0,0,1,63.07,53.34Zm2.19-6.84h-.12a.65.65,0,0,1-.52-.76,26.34,26.34,0,0,0,.37-2.8.65.65,0,1,1,1.3.1A27.66,27.66,0,0,1,65.9,46,.65.65,0,0,1,65.26,46.5Zm.49-5.3a.65.65,0,0,1-.65-.65,28.56,28.56,0,0,0-.16-3,.65.65,0,1,1,1.29-.14,29.81,29.81,0,0,1,.17,3.13A.65.65,0,0,1,65.75,41.21Zm-.84-6.93a.65.65,0,0,1-.63-.49,27.83,27.83,0,0,0-1.18-3.65.65.65,0,1,1,1.21-.48,29.27,29.27,0,0,1,1.23,3.82.65.65,0,0,1-.47.79Zm-2.71-6.93a.65.65,0,0,1-.57-.34,28.19,28.19,0,0,0-1.84-2.89.65.65,0,1,1,1.05-.76,29.54,29.54,0,0,1,1.92,3,.65.65,0,0,1-.25.88A.64.64,0,0,1,62.19,27.36ZM58,21.63a.65.65,0,0,1-.48-.21,28.22,28.22,0,0,0-2.2-2.12.65.65,0,0,1,.85-1,29.72,29.72,0,0,1,2.3,2.21A.65.65,0,0,1,58,21.63Zm-4.35-3.82a.65.65,0,0,1-.37-.12c-.72-.51-1.45-1-2.16-1.39a.65.65,0,1,1,.65-1.12c.74.43,1.5.92,2.26,1.46a.65.65,0,0,1-.38,1.18Z"/></svg>