<?xml version="1.0" encoding="utf-8"?>
<!-- Generator: Adobe Illustrator 16.0.0, SVG Export Plug-In . SVG Version: 6.00 Build 0)  -->
<!DOCTYPE svg PUBLIC "-//W3C//DTD SVG 1.1//EN" "http://www.w3.org/Graphics/SVG/1.1/DTD/svg11.dtd">
<svg version="1.1" id="Layer_1" xmlns="http://www.w3.org/2000/svg" xmlns:xlink="http://www.w3.org/1999/xlink" x="0px" y="0px"
	 width="850.389px" height="708.66px" viewBox="0 0 850.389 708.66" enable-background="new 0 0 850.389 708.66"
	 xml:space="preserve">
<g>
	<g>
		<g>
			<path fill="#20C5BA" d="M425.202,367.998c41.992,0,82.998-25.479,115.464-71.745c28.651-40.829,45.755-91.309,45.755-135.034
				C586.423,72.323,514.098,0,425.202,0S263.985,72.323,263.985,161.219c0,43.726,17.104,94.206,45.755,135.034
				C342.204,342.519,383.21,367.998,425.202,367.998z M425.202,26.289c74.399,0,134.93,60.53,134.93,134.93
				c0,37.953-15.705,83.907-40.984,119.934c-27.006,38.484-61.247,60.556-93.945,60.556s-66.938-22.072-93.944-60.556
				c-25.279-36.027-40.984-81.981-40.984-119.934C290.274,86.819,350.803,26.289,425.202,26.289z"/>
			<path fill="#20C5BA" d="M661.447,440.105c-28.406-44.085-68.396-79.275-115.649-101.771c-5.02-2.389-10.995-1.363-14.932,2.561
				c-31.672,31.584-68.212,48.275-105.67,48.275c-37.464,0-73.998-16.691-105.65-48.273c-3.937-3.928-9.916-4.955-14.934-2.564
				c-47.254,22.495-87.248,57.688-115.658,101.771c-29.183,45.282-44.607,97.818-44.607,151.926v0.229
				c0,3.708,1.567,7.245,4.313,9.737c75.846,68.784,174.055,106.665,276.534,106.665c102.48,0,200.688-37.881,276.535-106.665
				c2.746-2.492,4.313-6.027,4.313-9.737v-0.229C706.045,537.922,690.624,485.386,661.447,440.105z M425.196,682.373
				c-93.977,0-184.12-34.03-254.499-95.943c1.021-47.065,14.922-92.619,40.355-132.085c24.128-37.438,57.465-67.801,96.791-88.256
				c35.131,32.341,75.526,49.371,117.353,49.371c41.818,0,82.222-17.033,117.37-49.372c39.323,20.452,72.659,50.818,96.782,88.256
				c25.429,39.463,39.325,85.015,40.347,132.085C609.316,648.341,519.172,682.373,425.196,682.373z"/>
		</g>
	</g>
</g>
</svg>
