<svg id="_98" data-name="98" xmlns="http://www.w3.org/2000/svg" viewBox="0 0 96 72.41"><title>wallet</title><path d="M86,65.21H8.15a.65.65,0,0,1-.65-.65V8.69A.65.65,0,0,1,8.15,8H86a.65.65,0,0,1,.65.65V64.56A.65.65,0,0,1,86,65.21ZM8.8,63.91H85.31V9.34H8.8Z"/><path d="M81.15,59.86H13a.65.65,0,0,1-.65-.65V14A.65.65,0,0,1,13,13.4H81.15a.65.65,0,0,1,.65.65V59.21A.65.65,0,0,1,81.15,59.86Zm-67.54-1.3H80.5V14.7H13.61Z"/><path d="M36.09,44.33a7.7,7.7,0,1,1,7.71-7.7A7.71,7.71,0,0,1,36.09,44.33Zm0-14.1a6.4,6.4,0,1,0,6.41,6.4A6.41,6.41,0,0,0,36.09,30.23Z"/><path d="M36.09,30.23a.65.65,0,0,1-.65-.65V20.72a.65.65,0,1,1,1.3,0v8.86A.65.65,0,0,1,36.09,30.23Z"/><path d="M52,37.28H43.14a.65.65,0,0,1,0-1.3H52a.65.65,0,0,1,0,1.3Z"/><path d="M36.09,53.17a.65.65,0,0,1-.65-.65V43.68a.65.65,0,1,1,1.3,0v8.85A.65.65,0,0,1,36.09,53.17Z"/><path d="M29,37.28H20.19a.65.65,0,0,1,0-1.3H29a.65.65,0,0,1,0,1.3Z"/><path d="M41.08,32.29a.65.65,0,0,1-.46-1.11l4.33-4.32a.65.65,0,1,1,.92.92L41.54,32.1A.65.65,0,0,1,41.08,32.29Z"/><path d="M45.4,46.59a.65.65,0,0,1-.46-.19l-4.33-4.33a.65.65,0,0,1,.92-.92l4.33,4.33a.65.65,0,0,1-.46,1.11Z"/><path d="M26.78,46.59a.65.65,0,0,1-.46-1.11l4.32-4.33a.65.65,0,0,1,.92.92L27.24,46.4A.65.65,0,0,1,26.78,46.59Z"/><path d="M31.11,32.29a.65.65,0,0,1-.46-.19l-4.33-4.32a.65.65,0,0,1,.92-.92l4.33,4.32a.65.65,0,0,1-.46,1.11Z"/><path d="M36.09,40.48a3.86,3.86,0,1,1,3.86-3.86A3.86,3.86,0,0,1,36.09,40.48Zm0-6.42a2.56,2.56,0,1,0,2.56,2.56A2.56,2.56,0,0,0,36.09,34.07Z"/><path d="M72,49.08H59.59a.65.65,0,0,1-.65-.65V35.72a.65.65,0,0,1,.65-.65H72a.65.65,0,0,1,.65.65V48.43A.65.65,0,0,1,72,49.08Zm-11.72-1.3H71.31V36.37H60.24Z"/><path d="M72,36.37H59.59a.65.65,0,0,1-.65-.65V30.17a.65.65,0,0,1,.65-.65H72a.65.65,0,0,1,.65.65v5.56A.65.65,0,0,1,72,36.37Zm-11.72-1.3H71.31V30.82H60.24Z"/><path d="M62.91,39.63h-.81a.65.65,0,0,1,0-1.3h.81a.65.65,0,0,1,0,1.3Z"/><path d="M66.18,39.63h-.8a.65.65,0,0,1,0-1.3h.8a.65.65,0,0,1,0,1.3Z"/><path d="M69.44,39.63h-.8a.65.65,0,0,1,0-1.3h.8a.65.65,0,0,1,0,1.3Z"/><path d="M62.91,42.73h-.81a.65.65,0,0,1,0-1.3h.81a.65.65,0,0,1,0,1.3Z"/><path d="M66.18,42.73h-.8a.65.65,0,0,1,0-1.3h.8a.65.65,0,0,1,0,1.3Z"/><path d="M69.44,42.73h-.8a.65.65,0,0,1,0-1.3h.8a.65.65,0,0,1,0,1.3Z"/><path d="M62.91,45.81h-.81a.65.65,0,0,1,0-1.3h.81a.65.65,0,0,1,0,1.3Z"/><path d="M66.18,45.81h-.8a.65.65,0,0,1,0-1.3h.8a.65.65,0,0,1,0,1.3Z"/><path d="M69.44,45.81h-.8a.65.65,0,0,1,0-1.3h.8a.65.65,0,0,1,0,1.3Z"/></svg>