<svg id="_38" data-name="38" xmlns="http://www.w3.org/2000/svg" viewBox="0 0 80.83 78.87"><title>Artboard 11</title><path d="M39.57,79.14A39.57,39.57,0,1,1,79.15,39.57,39.61,39.61,0,0,1,39.57,79.14Zm0-77.84A38.27,38.27,0,1,0,77.85,39.57,38.32,38.32,0,0,0,39.57,1.3Z"/><path d="M39.74,79.14a.65.65,0,0,1-.38-.13C26.26,69.35,18.74,55,18.74,39.5S26.19,9.79,39.17.13a.68.68,0,0,1,1,.52.65.65,0,0,1-.34.57C27.27,10.64,20,24.58,20,39.5S27.36,68.55,40.12,78a.65.65,0,0,1-.39,1.17Z"/><path d="M39.32,79.14A.65.65,0,0,1,38.93,78C51.76,68.55,59.12,54.5,59.12,39.43c0-14.89-7.22-28.84-19.82-38.26a.65.65,0,0,1,.78-1C53,9.8,60.42,24.12,60.42,39.43c0,15.49-7.55,29.92-20.71,39.58A.65.65,0,0,1,39.32,79.14Z"/><path d="M13,68.73a.65.65,0,0,1-.44-1.13A39.46,39.46,0,0,1,39.57,57a40.21,40.21,0,0,1,27,10.61.65.65,0,0,1-.89,1A38.89,38.89,0,0,0,39.57,58.3,38.16,38.16,0,0,0,13.49,68.56.65.65,0,0,1,13,68.73Zm26.53-46.5c-7.54,0-19.56-3.72-27-10.62a.65.65,0,1,1,.89-1c7.17,6.67,18.79,10.27,26.08,10.27A38.12,38.12,0,0,0,65.66,10.66a.65.65,0,0,1,.89,1A39.42,39.42,0,0,1,39.57,22.23Z"/><path d="M39.57,79.11a.65.65,0,0,1-.65-.65V.65a.65.65,0,1,1,1.3,0v77.8A.65.65,0,0,1,39.57,79.11Z"/><path d="M78.48,40.2H.67a.65.65,0,0,1,0-1.3h77.8a.65.65,0,0,1,0,1.3Z"/></svg>