<?xml version="1.0" encoding="utf-8"?>
<!-- Generator: Adobe Illustrator 23.0.3, SVG Export Plug-In . SVG Version: 6.00 Build 0)  -->
<svg version="1.1" id="Слой_2" xmlns="http://www.w3.org/2000/svg" xmlns:xlink="http://www.w3.org/1999/xlink" x="0px" y="0px"
	 viewBox="0 0 3200 2000" style="enable-background:new 0 0 3200 2000;" xml:space="preserve">
<style type="text/css">
	.st0{fill:#ED985F;}
	.st1{fill:#233862;}
	.st2{fill:#FFB27D;}
	.st3{fill:#B5453C;}
	.st4{fill:#DD6D22;}
	.st5{fill:#9E332E;}
	.st6{fill:#ED7D2B;}
	.st7{fill:#F99746;}
	.st8{fill:#FFFFFF;}
	.st9{fill:#ADCBF9;}
	.st10{fill:#FCECDB;}
	.st11{fill:#F4D2B8;}
	.st12{fill:#86D1CD;}
	.st13{fill:#D86713;}
	.st14{fill:#EE9849;}
	.st15{fill:#F1A34F;}
	.st16{fill:#E78B37;}
	.st17{fill:#20C5BA;}
	.st18{fill:#E9F3FE;}
	.st19{fill:#AFCDFB;}
	.st20{fill:#699DEE;}
	.st21{opacity:0.6;fill:#AFCDFB;}
	.st22{fill:#9E3732;}
	.st23{fill:#E49963;}
	.st24{fill:#163560;}
	.st25{fill:#599DAD;}
	.st26{fill:#6BB7BF;}
	.st27{fill:#5AA9AD;}
	.st28{fill:#D68D5D;}
	.st29{fill:#4A75CB;}
	.st30{fill:#2B478B;}
	.st31{fill:#F4A269;}
	.st32{fill:#C65447;}
	.st33{fill:#1C468A;}
	.st34{fill:#2E3552;}
	.st35{clip-path:url(#SVGID_2_);}
	.st36{fill:#2C3A64;}
	.st37{fill:#BC3F3F;}
	.st38{fill:#A02E2E;}
	.st39{fill:#E8945B;}
	.st40{fill:#D35C2B;}
	.st41{fill:#E58638;}
</style>
<g>
	<g id="girl_2_3_">
		<path class="st0" d="M360,1049.3c0,0-104.3,57.6-123.3,56.6c-18.9-1-135.6-45-135.6-45l3,25.4c0,0,90,65.6,121.5,69.4
			c31,3.7,137-35.3,147.2-43.5C383.1,1103.9,389.7,1057.6,360,1049.3z"/>
		<path class="st1" d="M375.7,837.4c0,0,38.5-9.3,57.7,8.5c34.7,32.1,36.6,142.9,49.6,159.4c13,16.5,44.4,9.5,47.2,94.9
			c2.8,85.4-12.5,92.5,5.7,130.7c18.2,38.1-7.7,76.3-7.7,76.3s10.6-21,6.1-36.2c0,0-4.4,33.5-21.2,41.4c-16.8,7.9-19.3,13.6-22,25.1
			c0,0-143.3-93.1-143.5-159.1c-0.2-66-28.2-131.4-14.4-160c0,0-6.1,12.2-6.9,25.9c0,0-8.3-20.1,6.1-38.8
			c14.3-18.7-16.8-57.4-12.2-102.1C323.2,872.4,340.2,838.7,375.7,837.4z"/>
		<path class="st2" d="M347.3,1112.2c9.2,8.1,20.6,14.7,35.1,18.9c54.1,15.8,74.8-42.1,82.6-81.8c-7.4-5.3-14.3-6.5-18.3-7.1
			c-3.9-0.6-8-1-11.4-1.2c-6.1-5.9-15.1-30-17.1-67.5l-2.5,0.9L373,989.2c0,0,2,17.2,2.9,33.4c0.7,12.7,0.9,24.8-1,27.8
			c-3.3,0.9-5.3,1.5-5.3,1.5s0,0,0,0.1C368.9,1053.1,356.6,1078.9,347.3,1112.2z"/>
		<path class="st0" d="M373,989.2c0,0,2,17.2,2.9,33.4c24.1-3.1,35.3-32.2,39.7-48.2L373,989.2z"/>
		<path class="st2" d="M365.7,1005.3c0,0,57.3-4,54.8-49.2c-2.5-45.2,3.2-76.1-33.5-75.5c-36.7,0.6-42.8,18.5-44.9,33.9
			C340.1,929.8,350.8,1005.2,365.7,1005.3z"/>
		<path class="st1" d="M342.4,889.2c8.1-14.4,14.9-12,18.9-8.3c30-24.6,52,5.8,52,5.8c5.7,32.1,25.2,49,25.2,49s-10,9.1-34.5,3.5
			c-7.5-1.7-14.4-7.7-20.4-15.3c10.9,19.8,25,33.5,25,33.5c-29.7-14.2-44.1-63.8-45.5-69c-3.3,4.3-9.7,13.6-11.3,22.2
			c-2.2,11.8-11.7,30.2-17.2,29.8C334.6,940.3,330.3,910.8,342.4,889.2z"/>
		<path class="st3" d="M481.3,1259.8c5.2-33.5,22-167.5,5.2-210.5c-6.1-15.5-29.8-16.9-55.9-15.5c-8.1,6.6-39,31.7-51.7,28.6
			c-0.1,0-0.4-0.1-0.7-0.2c-6-1.9-8.2-7.2-3.3-11.8c0,0-12.9-1.6-29,2.2c-9.1,2.2-33.5,18.2-33.5,18.2s12.3,28.2,30.5,37.9
			c-3.1,35,1.5,50.4,30.1,131.2c24.2,68.3-3.3,129.8-3.3,129.8s142.5,145.2,143.3,71.3C513.5,1385.4,474.7,1302.7,481.3,1259.8z"/>
		<path class="st4" d="M362.6,1527.6c-7.7-1.1-14.7-6.5-19.1-14.7c-0.7-1.3-1.4-2.7-2.2-4.2c-16.2-31.1-22.5-126.4-59-227.9
			c-8.9-24.7-40.8-29.2-49.5-57.1c0,0-21.4-90.5,41-93.2c62.4-2.7,167,251.9,168.7,278.6C444.2,1435,483.8,1544.9,362.6,1527.6z"/>
		<path class="st5" d="M114.7,1525.5h88.8c0,0,3.3-17.9-2.5-30.2c-5.2-10.8-3.2-17,0.6-25.9c-4,2.1-9.2,4-15,3.6
			c-4.4-0.3-9.1-2.9-13.2-5.9c-3.8,5.5-20.2,29-25.3,33.7C142.4,1506.1,116.5,1504.2,114.7,1525.5z"/>
		<path class="st5" d="M471.9,1084.4c0,0,11.6,133.2-63.4,161.1c-74.9,27.9-96.2-122.6-35.7-133.4
			C433.3,1101.3,471.9,1084.4,471.9,1084.4z"/>
		<path class="st6" d="M230.9,1156.7c-5.3,50.8-26.2,211.1-63,289.3c-11.9,25.2,29.9,39.3,30.1,39.3c5.6-1.9,14.9-13.2,19.2-18.1
			c29.9-34.1,90.6-130.8,90.6-208.4c0-37.8,0.5-110-21.2-128.3C273.3,1119.2,233,1136.5,230.9,1156.7z"/>
		<path class="st7" d="M415.6,1525.5c0,0-3.3-5.8-9-16.8c-6.8-13.1-14.4-38.9-23.5-72c-9.6-34.7-21.1-77.4-35.3-121.8
			c-4.4-13.7-9.1-27.6-14.1-41.5c-8.9-24.7-33.3-21.3-42-49.2c0,0-33.9-96.8,28.4-99.5c62.4-2.7,180.9,259.1,187.7,284.4
			C515.2,1436.9,551.6,1552.1,415.6,1525.5z"/>
		<path class="st3" d="M179.9,1525.5h88.8c0,0,3.3-17.9-2.5-30.2c-5.2-10.8-3.2-17,0.6-25.9c-4,2.1-9.2,4-15,3.6
			c-4.4-0.3-9.1-2.9-13.2-5.9c-3.8,5.5-20.2,29-25.3,33.7C207.6,1506.1,181.7,1504.2,179.9,1525.5z"/>
		<path class="st6" d="M383,1436.7c-9.6-34.7-21.1-77.4-35.3-121.8c3.7-33.7,11.8-63.1,25.3-75C373,1239.9,405.8,1368.7,383,1436.7z
			"/>
		<path class="st7" d="M282.7,1153.1c-5.3,50.8-12.9,214.7-49.7,292.9c-11.9,25.2,29.9,39.3,30.1,39.3c5.6-1.9,14.9-13.2,19.2-18.1
			c29.9-34.1,90.6-130.8,90.6-208.4c0-37.8-35-107-56.7-125.3C302.9,1122.2,284.8,1132.9,282.7,1153.1z"/>
		<g>
			<path class="st5" d="M90.5,995.4l90.9-12.2c2.6-0.4,5.2,1.6,6.1,4.8l32.5,108.3c1.4,4.7-1.2,9.9-5.2,10.1l-90.2,4.6
				c-2.5,0.1-4.7-1.7-5.7-4.6l-33.2-100.7C84.2,1001,86.6,995.9,90.5,995.4z"/>
			<path class="st3" d="M82.6,996.4l90.9-12.2c2.7-0.4,5.2,1.6,6.1,4.8l32.5,108.3c1.4,4.7-1.2,9.9-5.2,10.1l-90.2,4.6
				c-2.5,0.1-4.7-1.7-5.7-4.6l-33.2-100.7C76.3,1002.1,78.7,996.9,82.6,996.4z"/>
			<path class="st5" d="M133,1047c-1.1-3.9,0.5-7,3.5-7c3.1,0,6.4,3.1,7.5,7c1.1,3.9-0.5,7-3.5,7S134.1,1050.8,133,1047z"/>
			<path class="st5" d="M85.4,1006.6c-0.5-1.9,0.2-3.4,1.7-3.4c1.5,0,3.2,1.5,3.7,3.4c0.5,1.9-0.2,3.4-1.7,3.4
				C87.6,1010.1,85.9,1008.5,85.4,1006.6z"/>
		</g>
		<path class="st2" d="M465,1049.3c0,0-126,58.8-144.9,57.6c-12.2-0.8-113.9-46.1-113.9-46.1s-7.5-14.7-15.7-17.8
			c0,0-14.5-8.4-18.6-10c-4.1-1.6-3.3,0-2.1,5c0.6,2.6,3,5.1,5,7.1c-6.9,2.4-13.8,5.7-17,6.5c-5.4,1.3-20.7,7.6-16.1,17
			c4.5,9.4,25.6,11.5,34.7,9.4c9.1-2.1,20.7,4.6,20.7,4.6s99,80.6,126.2,80.2c53.7-0.8,144.4-42.6,154.6-50.8
			C488,1103.9,494.7,1057.6,465,1049.3z"/>
		<path class="st2" d="M92,1051.4c0,0,9.1-18.3,12.1-19c9.1-2.3,9.1,12.9,7.2,22.7c-2.1,10.5-9.1,20.4-11,19.5
			C98.3,1073.7,89.9,1061,92,1051.4z"/>
		<path class="st2" d="M91.7,1055c0,0-2.9,20.5,12.4,31.2L91.7,1055z"/>
		<path class="st8" d="M355,979.3c0,0,5.4-2.7,20.7-1.1c0,0-0.8,7.5-12,8.3C357.3,986.9,355,979.3,355,979.3z"/>
		<path class="st3" d="M400,1078.3c0,0,11.3,45.2,50,55.5c0,0,63.9-25,32.1-80.1C482.1,1053.7,450.6,1024,400,1078.3z"/>
	</g>
	<g>
		<g>
			<g>
				<path class="st9" d="M369.5,492.4c0-4.6,0.1-9.2,0.2-13.8c1-34.2,5.6-67.6,13.6-99.9c-6.7,0.3-13.2,0.8-19.5,1.3
					c-6.4,27.4-10.3,55.7-11.9,84.5c-0.5,8.5-0.7,17.1-0.8,25.7v2.2c0,8.6,0.2,17.3,0.6,25.8c6.2,3.7,12.5,7.1,19.1,10.6
					c-0.6-8.1-1.1-16.3-1.3-24.6C369.6,500.2,369.5,496.4,369.5,492.4z M957.5,336.8c-15.9-47.6-38.6-90.5-67.6-127.1
					c-29-36.8-62.7-65.6-100.3-85.8c-38.9-20.8-80.3-31.4-122.8-31.4c-42.6,0-83.9,10.6-122.9,31.4c-4.6,2.5-9.3,5.2-13.8,7.9
					c-7.4,4.6-14.8,9.4-21.9,14.7c-23.5,17.3-45.2,38.4-64.6,63.1c-4.1,5.1-8,10.4-11.9,15.8c-4.8,6.7-9.4,13.7-13.8,20.8
					c-7,11.4-13.5,23.2-19.5,35.4c-3.4,6.8-6.5,13.8-9.5,20.8c-4.7,11.1-9,22.4-12.9,34.2c-3,8.8-5.6,17.7-8,26.7
					c-1.5,5.5-2.9,11-4.2,16.5c-6.4,27.4-10.3,55.7-11.9,84.5c-0.5,8.5-0.7,17.1-0.8,25.7v2.2c0,8.6,0.2,17.3,0.6,25.8
					c0.3,7,0.9,14,1.5,21c3.4,37.5,11,73.9,22.7,108.8c15.9,47.6,38.6,90.5,67.6,127.2c29,36.6,62.7,65.5,100.3,85.7
					c38.9,20.8,80.3,31.4,122.9,31.4c42.5,0,83.9-10.6,122.8-31.4c37.6-20.2,71.3-49,100.3-85.7c28.2-35.7,50.5-77.4,66.3-123.4
					c0.4-1.2,0.9-2.5,1.3-3.8c1.8-5.3,3.4-10.6,5-15.8c13.2-44.6,19.9-91.6,19.9-139.8C982.3,438.4,974,386,957.5,336.8z
					 M940.8,638.5c-0.1,0.2-0.1,0.3-0.2,0.5c-2,5.9-4.1,11.8-6.3,17.6c-14.4,37.9-33.7,72.2-57.4,102.2
					c-27.2,34.6-59,61.7-94.4,80.7c-36.7,19.7-75.5,29.6-115.7,29.6c-40.1,0-79.1-9.9-115.7-29.6c-35.4-19-67.1-46.1-94.4-80.7
					c-27.3-34.6-48.8-74.9-63.8-119.8c-9.6-28.9-16.3-58.9-19.9-89.7c-0.9-6.8-1.5-13.6-2-20.5c-0.6-8.1-1.1-16.3-1.3-24.6
					c-0.1-4-0.2-7.8-0.2-11.8c0-4.6,0.1-9.2,0.2-13.8c1-34.2,5.6-67.6,13.6-99.9c1.4-5.5,2.8-10.9,4.4-16.2
					c1.6-5.6,3.3-11.2,5.1-16.6c2.6-7.7,5.4-15.3,8.3-22.7c2.8-7.1,5.8-14,8.9-20.8c8.7-18.9,18.7-36.8,30-53.5
					c4.6-6.9,9.5-13.6,14.5-20.1c0.7-0.9,1.4-1.7,2.1-2.6c22.6-28.6,48.3-52.2,76.6-70.3c5.8-3.8,11.8-7.2,17.9-10.5
					c1.6-0.9,3.3-1.7,4.9-2.5c35.2-18,72.5-27.1,110.9-27.1c40.1,0,79,9.9,115.7,29.6c35.4,19,67.2,46.1,94.4,80.7
					c27.3,34.6,48.8,74.9,63.8,119.8c15.5,46.4,23.3,95.7,23.3,146.6C963.9,543.1,956.2,592.2,940.8,638.5z"/>
			</g>
			<g>
				<path class="st9" d="M1016.2,573l-24.4-0.7c7.8,12.9,9.6,24.8,4.7,34.8c-4.9,10.3-16.6,18.7-34,25.1c-6.4,2.4-13.6,4.5-21.6,6.3
					c-21.4,4.9-48.1,7.7-79.2,8.1c-78.8,1.2-176.7-12.4-275.5-38.1c-66.6-17.4-128.1-38.8-179.6-62.3c-7.9-3.6-15.5-7.2-22.7-10.9
					c-4.3-2.1-8.6-4.4-12.7-6.6c-6.6-3.5-13-6.9-19.1-10.6c-4.3-2.4-8.5-5-12.6-7.5c-56.8-35.1-82.7-69-71.1-93.1
					c9.4-19.5,43.5-32.7,95.7-37.6c6.2-0.5,12.7-1,19.5-1.3c1.4-5.5,2.8-10.9,4.4-16.2c-6.8,0.2-13.4,0.6-19.7,1
					c-65.8,5-101.1,19.7-113.9,46.3c-14.9,31,5.4,72.5,70.6,112.9c9,5.6,18.6,11.1,28.7,16.5c6.3,3.4,12.9,6.7,19.6,10.1
					c3.1,1.5,6.2,3,9.4,4.6c7.7,3.7,15.5,7.3,23.6,10.9c50.6,22.2,109.6,42.3,172.9,58.9c88.5,22.9,176.5,36.5,251.7,38.8
					c11.1,0.4,21.8,0.4,32.2,0.3c27-0.4,51-2.4,71.6-6.1c7.8-1.3,15.1-2.9,21.9-4.8c32.1-8.4,53.3-21.6,61.7-39.1
					C1023.7,600.6,1023,587.2,1016.2,573z"/>
			</g>
			<g>
				<path class="st9" d="M881.3,563.1c-0.3,0.7-0.6,1.4-1,2.1c-9.7,19.4-31.3,29.5-61.6,29.5c-14.5,0-31-2.3-49.1-7
					c-59.7-15.3-130.2-53.9-198.6-108.5c-67.2-53.7-124.3-116.4-161-177c-0.6-1.1-1.3-2.1-1.9-3.2c-3.5-5.9-6.7-11.6-9.8-17.3
					c-26.8-50.4-34.9-93.2-22-119c9.7-19.4,31.3-29.5,61.6-29.5c14.5,0,31,2.3,49.2,7c6.9,1.8,13.9,3.8,21.1,6.2
					c8.2,2.7,16.5,5.8,24.9,9.3c5.9-3.7,11.8-7.2,17.9-10.5c1.6-0.9,3.2-1.7,4.9-2.5c-8.7-4-17.3-7.7-25.8-10.9
					c-13.6-5.2-26.8-9.6-39.5-12.8c-64.4-16.6-110.1-5.1-128.6,32.2c-17.7,35.5-8,89,27,151.3c1.8,3.2,3.6,6.4,5.6,9.6
					c2.1,3.6,4.4,7.2,6.7,10.9c38,60.2,94.7,121.8,160.8,174.6c70.1,56,142.6,95.5,204.3,111.4c19.3,5,36.8,7.4,52.5,7.4
					c36.8,0,63.1-13.5,76.1-39.6c2.1-4.3,3.9-8.9,5.2-13.7H881.3z"/>
			</g>
			<g>
				<path class="st9" d="M555.4,859c-3.7,0-7.3-0.8-10.7-2.3c-54.1-24.9-29.1-227.8,21.9-406.2c47.2-164.9,123.5-331.9,177.9-331.9
					c3.7,0,7.3,0.8,10.7,2.3c30.8,14.2,32.7,84.1,28.9,140.2c-5.1,75-23.2,169.5-50.8,265.9C686.1,692,609.8,859,555.4,859z
					 M744.5,139.8c-34.2,0-106,121.6-162.2,317.9c-27.1,94.8-44.8,187.3-49.8,260.6c-5.4,78.8,5.7,112.9,17.9,118.5
					c1.6,0.7,3.2,1.1,5,1.1c34.2,0,106-121.6,162.2-317.9c27.1-94.8,44.8-187.3,49.8-260.6c5.4-78.8-5.7-112.9-17.9-118.5
					C747.9,140.1,746.3,139.8,744.5,139.8z"/>
			</g>
			<g>
				<path class="st9" d="M878.3,419.7c-60.3,0-115.4-7.3-164.6-21.7c-58.8-17.3-109.4-44.9-150.3-82.1
					c-70.4-64-87.7-133.5-88.4-136.4l16-6.2c0.2,0.7,16.9,66.7,83.4,126.4c61.8,55.5,180.2,116.9,393.9,93.8l1.4,21.1
					C938,418,907.5,419.7,878.3,419.7z"/>
			</g>
			<g>
				<path class="st9" d="M819,835.8C702,725.5,586.6,676.1,510.3,654.1c-82.4-23.8-137.6-21.5-138.2-21.5l-0.6-21.2
					c2.3-0.1,58-2.4,142.5,22c77.8,22.5,195.7,72.8,314.9,185.4L819,835.8z"/>
			</g>
		</g>
	</g>
	<g>
		<path class="st7" d="M3039.6,1622.6c0,23.1-7.4,44-19.3,59.1c-11.9,15.1-28.4,24.5-46.7,24.5h-537.5V1544h541.5
			c3.4,0,6.7,0.3,10,1C3017.1,1551.1,3039.6,1583.5,3039.6,1622.6z"/>
		<path class="st10" d="M2535.9,1624.2c0,22.5-7.2,42.9-18.7,57.7c-0.1,0.1-0.1,0.2-0.2,0.3c-11.7,14.8-27.9,24-45.7,24h-610.7V1544
			h612.1c17.8,0,33.8,9.3,45.3,24.3C2529.1,1582.7,2535.9,1602.4,2535.9,1624.2z"/>
		<path class="st6" d="M2586.7,1694.1c0,3.4-1.1,6.4-2.8,8.6c-1.7,2.2-4.1,3.6-6.8,3.6h-738.3c-5.3,0-9.6-5.4-9.6-12.1
			c0-3.3,1.1-6.4,2.8-8.6c1.7-2.2,4.1-3.5,6.8-3.5h738.3C2582.4,1681.9,2586.7,1687.4,2586.7,1694.1z"/>
		<path class="st6" d="M2586.7,1556.2c0,3.4-1.1,6.4-2.8,8.6c-1.7,2.2-4.1,3.6-6.8,3.6h-738.3c-5.3,0-9.6-5.4-9.6-12.1
			c0-3.3,1.1-6.4,2.8-8.6c1.7-2.2,4.1-3.5,6.8-3.5h738.3C2582.4,1544,2586.7,1549.5,2586.7,1556.2z"/>
		<polygon class="st11" points="1860.6,1625.1 1942.5,1627.8 1860.6,1629.5 		"/>
		<polygon class="st11" points="1860.6,1650.6 2055.4,1653.3 1860.6,1654.9 		"/>
		<path class="st6" d="M2987.7,1545l-176.7,161.2h-374.8V1544h541.5C2981.1,1544,2984.4,1544.4,2987.7,1545z"/>
	</g>
	<g>
		<g>
			<path class="st12" d="M887,1706.2H504.2v-190.7h386c27.4,0,49.6,22.2,49.6,49.6v88.3C939.8,1682.5,916.1,1706.2,887,1706.2z"/>
			<path class="st10" d="M526.9,1706.2H88.8v-190.7H528c26.6,0,48.2,21.6,48.2,48.2v93.2C576.2,1684.1,554.2,1706.2,526.9,1706.2z"
				/>
			<path class="st12" d="M605.2,1706.2H73.8c-4.2,0-7.7-3.4-7.7-7.7v-13.2c0-4.2,3.4-7.7,7.7-7.7h531.4c4.2,0,7.7,3.4,7.7,7.7v13.2
				C612.9,1702.8,609.4,1706.2,605.2,1706.2z"/>
			<path class="st12" d="M605.2,1544H73.8c-4.2,0-7.7-3.4-7.7-7.7v-13.2c0-4.2,3.4-7.7,7.7-7.7h531.4c4.2,0,7.7,3.4,7.7,7.7v13.2
				C612.9,1540.6,609.4,1544,605.2,1544z"/>
		</g>
		<polygon class="st11" points="88.8,1610.9 147.9,1614.1 88.8,1616 		"/>
		<polygon class="st11" points="88.8,1640.8 229.4,1644 88.8,1645.9 		"/>
	</g>
	<g>
		<g>
			<path class="st13" d="M1082.2,828.9l-54.9,827c0,0-5.7,50.1,23.7,50.2c48.4,0.1,240.8,0,240.8,0s-36.4-10.4-36-33.9
				c0.5-27.7,64.1-851.1,64.1-851.1L1082.2,828.9z"/>
			<path class="st14" d="M1307.4,1691.1c-9.5,0-193.3,0.8-240.4,0c-20.5-0.3-24.1-23.1-24.3-37.9c-0.1-7.1,0.6-12.3,0.6-12.3
				l1.4-21.5l3.6-54.8l3.2-48.4l4.1-62.2l3.5-52.5l39-587.6l237.7-7.8c0,0-26.8,344.6-45.7,595.5c-2.1,27.9-4.1,54.7-6,79.8
				c-0.6,8-1.2,15.8-1.7,23.4c-1.8,23.7-3.4,45.5-4.8,64.8c-0.7,10.1-1.4,19.6-2,28.2c-2.4,33.8-3.8,55.4-3.9,59.5
				c0,2.4,0.2,4.6,0.5,6.7C1276.1,1690.3,1303.8,1691.1,1307.4,1691.1z"/>
			<polygon class="st15" points="504.8,378.9 638.5,1059.4 656.8,1152.6 719,1469.6 1875.7,1469.6 1646.2,378.9 			"/>
			<polygon class="st14" points="504.8,378.9 486.3,386.7 694.4,1493.2 719.1,1469.6 			"/>
			<polygon class="st13" points="694.4,1493.2 1843.9,1493.2 1875.7,1469.6 719.1,1469.6 			"/>
			
				<rect x="1098.1" y="1691.5" transform="matrix(-1 -1.224647e-16 1.224647e-16 -1 2445.0774 3397.896)" class="st15" width="248.9" height="15"/>
			<polygon class="st15" points="1819.6,1268.6 1632,393.3 503,393.3 503,378.9 1646.2,378.9 1833.3,1266.7 			"/>
			<polygon class="st13" points="1283.7,1493.2 1282.4,1504.7 1048.4,1564.6 1051.6,1516.2 1053.1,1493.2 			"/>
			<path class="st16" d="M1307.4,1691.1c-9.5,0-193.3,0.8-240.4,0c-20.5-0.3-24.1-23.1-24.3-37.9l233-55.6
				c-2.4,33.8-3.8,55.4-3.9,59.5c0,2.4,0.2,4.6,0.5,6.7C1276.1,1690.3,1303.8,1691.1,1307.4,1691.1z"/>
			<polygon class="st16" points="1227.1,1248.8 719.1,1469.6 656.8,1152.6 			"/>
			<polygon class="st17" points="504.8,378.9 1646.2,378.9 1831.4,1255.5 671.1,1255.5 			"/>
		</g>
		<path class="st13" d="M1328,1366.3c-3.3-21.5-19.7-38.9-36.7-38.9s-28,17.4-24.7,38.9c3.3,21.5,19.7,38.9,36.7,38.9
			S1331.3,1387.8,1328,1366.3z"/>
		<polygon class="st18" points="1777.6,1217.5 708.9,1217.5 587.9,606.4 578.6,559.5 570.7,519.6 552.1,425.9 1605.4,425.9 
			1625.8,519.6 1634.5,559.5 1644.7,606.4 		"/>
		<polygon class="st19" points="1625.8,519.6 570.7,519.6 552.1,425.9 1605.4,425.9 		"/>
		<g>
			<path class="st18" d="M595.7,468.2c-1.3-6.5,1.8-11.7,6.9-11.7c5.1,0,10.3,5.2,11.5,11.7c1.3,6.5-1.8,11.7-6.9,11.7
				C602.1,479.9,596.9,474.7,595.7,468.2z"/>
			<path class="st18" d="M626.4,468.2c-1.3-6.5,1.8-11.7,6.9-11.7c5.1,0,10.3,5.2,11.5,11.7c1.3,6.5-1.8,11.7-6.9,11.7
				C632.8,479.9,627.7,474.7,626.4,468.2z"/>
			<path class="st18" d="M659.5,468.2c-1.3-6.5,1.8-11.7,6.9-11.7c5.1,0,10.3,5.2,11.5,11.7c1.3,6.5-1.8,11.7-6.9,11.7
				C665.9,479.9,660.7,474.7,659.5,468.2z"/>
		</g>
	</g>
	<g>
		<path class="st20" d="M731.8,1124.1c0-27,17.9-49,39.9-49s39.9,21.9,39.9,49c0,27-17.9,49-39.9,49S731.8,1151.2,731.8,1124.1z"/>
		<path class="st18" d="M768.5,1095.3l22.9,25.1c2,2.2,2,6.1,0,8.3l-22.5,24.1c-2.9,3.1-7.4,0.6-7.4-4.1l-0.4-49.2
			C761,1094.7,765.6,1092.1,768.5,1095.3z"/>
		<path class="st19" d="M1671.2,1129.8c0,2.5-0.8,4.8-2.1,6.5c-1.3,1.7-3.1,2.7-5.1,2.7H849.8c-4,0-7.3-4.2-7.3-9.2
			c0-2.5,0.8-4.8,2.1-6.5c1.3-1.7,3.1-2.7,5.1-2.7h814.1C1667.9,1120.6,1671.2,1124.7,1671.2,1129.8z"/>
		<path class="st20" d="M940.4,1120.6v18.5h-90.6c-4,0-7.3-4.2-7.3-9.2c0-2.5,0.8-4.8,2.1-6.5c1.3-1.7,3.1-2.7,5.1-2.7H940.4z"/>
	</g>
	<polygon class="st19" points="1570.6,1044.7 862.9,1044.7 782.7,677.6 776.6,649.5 771.4,625.5 759.1,569.1 1456.6,569.1 
		1470.1,625.5 1475.8,649.5 1482.6,677.6 	"/>
	<g>
		<polygon class="st18" points="1462.4,772.8 1229.7,772.8 1203.4,652.1 1201.3,642.9 1199.6,635 1195.6,616.5 1424.9,616.5 
			1429.3,635 1431.2,642.9 1433.5,652.1 		"/>
		<g>
			<polygon class="st21" points="1325.5,742.9 1244.8,742.9 1235.6,701.1 1234.9,697.9 1234.3,695.1 1232.9,688.7 1312.5,688.7 
				1314,695.1 1314.7,697.9 1315.4,701.1 			"/>
			<polygon class="st21" points="1428.2,742.9 1347.5,742.9 1338.4,701.1 1337.7,697.9 1337.1,695.1 1335.7,688.7 1415.2,688.7 
				1416.7,695.1 1417.4,697.9 1418.1,701.1 			"/>
			<path class="st19" d="M1370.4,639.4h-147.5c-1.2,0-2.1-1.2-2.1-2.7l0,0c0-1.5,0.9-2.7,2.1-2.7h147.5c1.2,0,2.1,1.2,2.1,2.7l0,0
				C1372.5,638.3,1371.5,639.4,1370.4,639.4z"/>
			<path class="st19" d="M1375.8,653.8h-147.5c-1.2,0-2.1-1.2-2.1-2.7l0,0c0-1.5,0.9-2.7,2.1-2.7h147.5c1.2,0,2.1,1.2,2.1,2.7l0,0
				C1377.9,652.6,1377,653.8,1375.8,653.8z"/>
		</g>
	</g>
	<path class="st19" d="M1401.3,674.7h-166c-1.3,0-2.4-1.3-2.4-3l0,0c0-1.6,1.1-3,2.4-3h166c1.3,0,2.4,1.3,2.4,3l0,0
		C1403.7,673.4,1402.6,674.7,1401.3,674.7z"/>
	<g>
		<polygon class="st18" points="1505.9,961.6 1273.2,961.6 1246.8,840.9 1244.8,831.6 1243.1,823.7 1239.1,805.2 1468.4,805.2 
			1472.8,823.7 1474.7,831.6 1476.9,840.9 		"/>
		<g>
			<polygon class="st21" points="1368.9,931.7 1288.3,931.7 1279.1,889.8 1278.4,886.6 1277.8,883.9 1276.4,877.5 1355.9,877.5 
				1357.5,883.9 1358.1,886.6 1358.9,889.8 			"/>
			<polygon class="st21" points="1471.7,931.7 1391,931.7 1381.8,889.8 1381.1,886.6 1380.5,883.9 1379.1,877.5 1458.7,877.5 
				1460.2,883.9 1460.9,886.6 1461.6,889.8 			"/>
			<path class="st19" d="M1413.8,828.2h-147.5c-1.2,0-2.1-1.2-2.1-2.7l0,0c0-1.5,0.9-2.7,2.1-2.7h147.5c1.2,0,2.1,1.2,2.1,2.7l0,0
				C1415.9,827,1415,828.2,1413.8,828.2z"/>
			<path class="st19" d="M1419.3,842.6h-147.5c-1.2,0-2.1-1.2-2.1-2.7l0,0c0-1.5,0.9-2.7,2.1-2.7h147.5c1.2,0,2.1,1.2,2.1,2.7l0,0
				C1421.4,841.4,1420.5,842.6,1419.3,842.6z"/>
			<path class="st19" d="M1423.3,857h-147.5c-1.2,0-2.1-1.2-2.1-2.7l0,0c0-1.5,0.9-2.7,2.1-2.7h147.5c1.2,0,2.1,1.2,2.1,2.7l0,0
				C1425.4,855.8,1424.5,857,1423.3,857z"/>
		</g>
	</g>
	<g>
		<path class="st7" d="M274.2,1604c0,0-12.9,7.8-17.1,20.7c-0.8,2.2-1.2,4.7-1.3,7.2c-0.7,17.1,0,55.7,0,55.7l-38-19.3l-37.9,19.3
			v-52.4c0-9.9,3.2-19.5,9.3-25.9c2.9-3.1,6.5-5.4,10.5-5.4H274.2z"/>
		<path class="st6" d="M274.2,1604c0,0-12.9,7.8-17.1,20.7l-76.1,0.8c0,0,3-18.4,18.7-21.4H274.2z"/>
	</g>
	<g>
		<g>
			<g>
				<path class="st3" d="M2109.4,1545.5h471.4v-246.7h-475.5c-34.6,0-62.7,28.1-62.7,62.7v117.2
					C2042.6,1515.6,2072.5,1545.5,2109.4,1545.5z"/>
				<path class="st10" d="M2554.1,1545.5h540v-246.7h-541.4c-33.7,0-60.9,27.3-60.9,60.9v123.4
					C2491.8,1517.6,2519.7,1545.5,2554.1,1545.5z"/>
				<path class="st3" d="M2456.2,1545.5h656.1c5.3,0,9.7-4.3,9.7-9.7v-17.5c0-5.3-4.3-9.7-9.7-9.7h-656.1c-5.3,0-9.7,4.3-9.7,9.7
					v17.5C2446.5,1541.1,2450.9,1545.5,2456.2,1545.5z"/>
				<path class="st3" d="M2456.2,1335.7h656.1c5.3,0,9.7-4.3,9.7-9.7v-17.5c0-5.3-4.3-9.7-9.7-9.7h-656.1c-5.3,0-9.7,4.3-9.7,9.7
					v17.5C2446.5,1331.3,2450.9,1335.7,2456.2,1335.7z"/>
			</g>
			<polygon class="st11" points="3094.1,1422.1 3021.1,1426.3 3094.1,1428.8 			"/>
			<polygon class="st11" points="3094.1,1365.3 2920.4,1369.5 3094.1,1372 			"/>
		</g>
		<g>
			<path class="st3" d="M2922.2,1368.7c0,0,11.5,7.8,15.3,20.7c0.7,2.2,1.1,4.7,1.2,7.2c0.6,17.1,0,55.7,0,55.7l33.8-19.3l33.8,19.3
				v-52.4c0-9.9-2.9-19.5-8.3-25.9c-2.6-3.1-5.8-5.4-9.4-5.4H2922.2z"/>
			<path class="st22" d="M2922.2,1368.7c0,0,11.5,7.8,15.3,20.7l67.8,0.8c0,0-2.7-18.4-16.7-21.4H2922.2z"/>
		</g>
	</g>
	<g>
		<path class="st23" d="M1985.3,1023.1c0,0-24.2,17.4-30.9,17.4c-6.8,0-33.3-6.5-40.7-1.7s-20.8,24.1-23.3,30.4
			c-4.5,11.3,18.2,6.3,29-3.3c1.6-1.4,3.5-1.9,5.4-1.4c5.6,1.5,17.1,4.2,22.7,1.6c7.5-3.5,47-7.4,47-7.4L1985.3,1023.1z"/>
		<path class="st24" d="M1958,1652.4c0,0-2.6,53.2-10.7,54c-1.1,0.1-41.2,0.1-41.2,0.1l-51.2-0.4c0,0,0.3-15.6,15.3-18.9
			c15-3.3,40-16.6,49.1-41.7C1928.8,1619,1958,1652.4,1958,1652.4z"/>
		<path class="st6" d="M2169.3,785.8c0,0-25.1,225.8-66.6,246c-20.5,10-111,32.6-137.7,34.9c0,0-6.6-6.7-5-34.2
			c0,0,94.8-44.1,108.3-68.1c20-35.7-12.4-145.9,12.7-179.4C2106.2,751.4,2148.5,736.9,2169.3,785.8z"/>
		<path class="st25" d="M2160.8,1261.4c-7.3,15.7-15.8,30.4-24.5,44.4c-26.9,43.1-56.3,78.6-61.4,112.2c-1,6.7-2.6,13.9-4.7,21.5
			c-2.1,7.7-4.8,15.8-7.8,24.1c-11.4,31.5-28.5,66.7-45.6,98.8c-29.5,55.4-57.2,101.6-57.2,101.6l-50.9-2.7
			c2-6.5,24.2-83,53.9-176.5c12.1-38,24.9-78.3,37.2-117.3c1.6-5.2,3.3-10.4,4.9-15.5c3.8-11.9,7.5-23.6,11.1-35.1
			c27.9-87.8,50.1-157.7,50.1-157.7s111.4-53.5,123-18.8C2198.5,1169.1,2190.8,1197.1,2160.8,1261.4z"/>
		<path class="st24" d="M2075.8,1500.4c0,0,35.4,28.8,32,38.2c-0.5,1.2-20,45.6-20,45.6l-25.2,56.5c0,0-10.6-8-5.6-26.2
			c5-18.2,8-52.4-4.8-74.7C2038.6,1516.4,2075.8,1500.4,2075.8,1500.4z"/>
		<path class="st26" d="M2058.5,1551c0,0,22.1-24.7,26-42.9c0,0-91.1-138.4-110.9-169.4c-0.9-1.4-0.7-3,0.5-4.7
			c14.9-21.3,180.7-64.7,202.4-107.4c7.5-14.7,11.7-28.7,14-40.9c4.9-26.1,1-44.1,1-44.1l-165.6-6.1c0,0-137.9,108.8-153.5,183
			C1856.9,1392.7,2058.5,1551,2058.5,1551z"/>
		<path class="st27" d="M1974.1,1334c14.9-21.3,180.7-64.7,202.4-107.4c7.5-14.7,11.7-28.7,14-40.9v-26.6l-70.4-14
			c0,0-20,77.8-79.1,107C1985.7,1279.5,1975.2,1328,1974.1,1334z"/>
		<path class="st23" d="M2071.3,771.5c33.5,11,89-28.4,89-28.4s-21.6-18.4-29.6-58.7c-0.4-2-0.8-4.1-1.1-6.3
			c-3.5-0.9-10.1-2.7-17.2-4.6l-25.6,29.1c0,0,0.6,12.1,3.8,32.8c0.6,3.6,1.2,7.5,1.9,11.6C2078.9,757.8,2071.3,771.5,2071.3,771.5z
			"/>
		<path class="st7" d="M2195.8,947.5c-4.8,81.8,1.5,206.2-3.9,227.7c-4.7,18.6-58.2,7.5-79.6,1.3c-7.9-2.3-17.5-5.6-27.4-9.5
			c-27.6-10.8-57.7-26.3-60.9-37.8c-0.1-0.5-0.2-0.9-0.3-1.3c-0.3-1.7-0.2-3.2,0.1-4.8c1.1-5.9,5.2-12.2,5.7-26.7
			c0.5-16.2,0.5-35.2,0.9-55.7c0-2.3,0.1-4.8,0.2-7.1l0-0.8c0-0.4,0-0.9,0-1.3c0.5-22.8,1.4-46.9,2.5-70.7c0.7-15,1.5-29.8,2.4-44
			c2.4-36.6,5.7-69.2,9.9-89.8c7-33.6,22.5-55.5,36.6-71.5l10.2-11.1c11.4,3.1,24.8,1.1,37-6.2c13.2-7.9,17.7-13.6,20-11.4
			C2179.6,756.5,2201.5,847.5,2195.8,947.5z"/>
		<path class="st6" d="M2084.9,1167.2c-27.6-10.8-57.7-26.3-60.9-37.8c-0.1-0.5-0.2-0.9-0.3-1.3c0-1.6,0-3.2,0.1-4.8
			c1.1-5.9,5.2-12.2,5.7-26.7c0.5-16.2,0.5-35.2,0.9-55.7c0-2.3,0.1-4.8,0.2-7.1l0-0.8c0-0.4,0-0.9,0-1.3l111.6-180.1
			C2142.3,851.4,2217.3,1049.4,2084.9,1167.2z"/>
		<path class="st28" d="M2086.9,702.6c0,0,0.6,12.1,3.8,32.8c25-10.2,36.3-38.8,40.1-51c-0.4-2-0.8-4.1-1.1-6.3
			c-3.5-0.9-10.1-2.7-17.2-4.6L2086.9,702.6z"/>
		<path class="st23" d="M2083.5,720.9c0,0,54.5-11.5,48.3-54.4c-6.2-42.9-3.3-73.3-38.4-67.7c-35.1,5.5-39.4,23.5-40.1,38.4
			C2052.7,652.1,2069.2,722.8,2083.5,720.9z"/>
		<g>
			<polygon class="st29" points="1869,1088 1864.2,1089.9 1823.3,930.5 1828.1,928.5 			"/>
			<polygon class="st29" points="2002.9,1075.7 1864,1079.4 1864.2,1089.9 2003,1086.2 			"/>
		</g>
		<path class="st23" d="M2000.3,1094.6c0,0-44.6,14.9-61.3,13.3c-16.7-1.6-30.6-11.6-32.7-16.9c-2.1-5.3-6.5-14.6,4.9-12.9
			c11.4,1.7,26.9,4.8,27.4,2c0.5-2.8-9.3-2.5-9.3-2.5s-3-5.4,0.8-5.6c3.7-0.2,14.6-3.9,18.6-1.4c4,2.6,7.7,12,10.7,11.6
			c2.9-0.4,37.3-19.6,37.3-19.6L2000.3,1094.6z"/>
		<path class="st7" d="M2158.2,795c0,0-5.3,227.9-44.8,253.8c-19.5,12.8-107.5,47.9-133.9,53.9c0,0-7.1-5.8-7.9-33.3
			c0,0,90.4-57.1,101.7-82.8c16.8-38.3-25.1-143.2-3-180.1C2092.5,769.7,2133.3,749.4,2158.2,795z"/>
		<path class="st30" d="M2130.8,684.4c0,0,0.6-14.7-6.5-23.2c0,0,2.5-14.8-2.1-17.2c-4.6-2.4-5.6,10-7.7,8
			c-2.1-1.9-11.5-11.2-15.5-24.8c-4-13.6-40.9,2.9-45.2,5.3c-4.3,2.5-18.1-6.5-20.8-13.8c0,0,7.7-7.8,11.1-13.6
			c3.5-5.8,27.6-45.2,61.4-34.1c33.8,11.2,38.4,31.6,36.5,49.1S2144.6,678.6,2130.8,684.4z"/>
	</g>
	<g>
		<g>
			<path class="st31" d="M2497,873.6c0,0,17.3,32.4,27.2,100.6c8.6,59.7,16.2,81.8,28.7,94c12.5,12.2,82,48.4,82,48.4l-5.2,15.4
				c0,0-101.9-17.6-113.3-39.2c-11.4-21.6-55.1-149.1-51.7-178.5C2468,885.1,2497,873.6,2497,873.6z"/>
			<g>
				<path class="st2" d="M2746.5,1586c-0.9,12.6,12.9,15.7,28.9,16.7c16,1,11.2,5.2,33.1,10.2c22,5,30.8-2.6,32.3-6.3
					c1.4-3.3-8.8-8.6-19.7-14.5c-1.4-0.7-2.7-1.5-4.1-2.3c-12.2-6.8-19.1-20.7-28.7-33.6c-9-12.2-17.6-51.4-17.6-51.4l-29.8-8.1
					c0,0,8.4,35.2,11.3,50.3c1.7,8.8-0.8,18.7-3.1,26.3C2748.1,1577.4,2746.9,1581.6,2746.5,1586z"/>
				<path class="st32" d="M2775.5,1602.7c16,1,11.2,5.2,33.1,10.2c22,5,30.8-2.6,32.3-6.3c1.4-3.3-8.8-8.6-19.7-14.5l-0.2,0.2
					c0,0-15.4,6.6-33.3,0.5c-14.5-5-28.6-16-38.6-19.6c-1.2,4.1-2.4,8.3-2.7,12.7C2745.6,1598.6,2759.5,1601.7,2775.5,1602.7z"/>
			</g>
			<path class="st24" d="M2449.4,1137.5c0,0,198.3-18.9,235.6,10.9c37.3,29.9,97.2,377.7,97.2,377.7s-3.7,3.8-11.9,4.9
				c-7.7,1.1-24.6-4.7-24.6-4.7s-86-155.6-92.1-194.8c-6.1-39.2-4.6-74.2-18.4-75.1c-13.8-0.9-185.8,26.5-211.9-31.6
				s-4.5-115.6-4.5-115.6L2449.4,1137.5z"/>
			<g>
				<path class="st2" d="M2670.7,1626.4c-0.9,12.6,12.9,15.7,28.9,16.7c16,1,11.2,5.2,33.1,10.2c22,5,30.8-2.6,32.3-6.3
					c1.4-3.3-8.8-8.6-19.7-14.5c-1.4-0.7-2.7-1.5-4.1-2.3c-12.2-6.8-19.1-20.7-28.7-33.6c-9-12.2-17.6-51.4-17.6-51.4l-29.8-8.1
					c0,0,8.4,35.2,11.3,50.3c1.7,8.8-0.8,18.7-3.1,26.3C2672.2,1617.7,2671,1621.9,2670.7,1626.4z"/>
				<path class="st32" d="M2699.6,1643c16,1,11.2,5.2,33.1,10.2c22,5,30.8-2.6,32.3-6.3c1.4-3.3-8.8-8.6-19.7-14.5l-0.2,0.2
					c0,0-15.4,6.6-33.3,0.5c-14.5-5-28.6-16-38.6-19.6c-1.2,4.1-2.4,8.3-2.7,12.7C2669.8,1639,2683.6,1642,2699.6,1643z"/>
			</g>
			<path class="st33" d="M2410.6,1153.1c0,0,176.2,10.6,212.5,42.2c36.4,31.7,85.5,382.2,85.5,382.2s-3.8,3.6-12.1,4.3
				c-7.7,0.7-24.4-5.9-24.4-5.9s-81.2-159.8-86.1-199.2c-4.9-39.5-2.3-74.4-16.1-76c-13.8-1.6-186.5,17.3-210.7-42
				C2335,1199.4,2410.6,1153.1,2410.6,1153.1z"/>
			<path class="st3" d="M2473.3,661.8c-7.8-6.5-17.5-8-24.4-8.1c1.9-2.1,5.4-2.7,5.4-2.7c-4.2-1.2-13.9,3.4-13.9,3.4
				c-57.2-33.7-72.2,75.2-72.3,100.8c-0.1,25.6-1.5,54.9-32,75.3c-60.1,40.1-15.5,122.6-15.5,122.6c0.4,0.4,40,66.8,40,66.8
				c-0.4-20.7,64.1-130.5,104.9-159.7c10.5-17,15.5-48,15.9-50.5c-2.9,24.7-7,38.4-10.5,46C2506,819.9,2494,679.1,2473.3,661.8z"/>
			<path class="st2" d="M2403.1,836.2c0,0,16.4-2,32.8,0c11.1,1.3,22.2,5.7,28.5,9.1c15.5,8.2,13.9,43.1-18.7,36.6
				C2413.2,875.4,2400.9,846.5,2403.1,836.2z"/>
			<path class="st2" d="M2463,861.6c0.2,0.1,4.6,30-16.7,28.8c-14-0.8-44.2-22.3-41.5-37.5c1.3-7.2,11.8-26,14-68.7l2.5,0.9
				l42.9,14.6c0,0-1.9,17.2-2.8,33.6C2460.7,846.9,2460.7,859.9,2463,861.6z"/>
			<path class="st31" d="M2464.2,799.6c0,0-1.9,17.2-2.8,33.6c-24.3-2.9-35.6-32.1-40.1-48.1L2464.2,799.6z"/>
			<path class="st3" d="M2417.2,778.7c0,0-11.4-26.6-13.3-48.7c-1.4-15.8,7.9-72.9,53.3-60.8c0,0,13.2,2.8,25.1,14.5
				c9.5,9.3,22.9,28.9,4.2,77.9l-5.1,16.7L2417.2,778.7z"/>
			<path class="st2" d="M2471.5,815.8c0,0-57.6-3.7-55.2-49.1c2.3-45.4-3.5-76.5,33.4-76c36.9,0.4,43.1,18.3,45.2,33.7
				C2497,739.8,2486.6,815.5,2471.5,815.8z"/>
			<path class="st3" d="M2475.9,691.8c0,0-18.5,51.9-43.1,57.8c-24.6,5.8-34.6-3.3-34.6-3.3s19.5-17.1,25.1-49.3
				C2423.2,696.9,2465.4,665.4,2475.9,691.8z"/>
			<path class="st3" d="M2471.8,695.8c0,0,11.1,12.9,13.4,24.7c2.3,11.8,2.3,35.7,7.8,35.4c0,0,13.8-35.2,1.5-56.8
				C2481.5,676.1,2471.8,695.8,2471.8,695.8z"/>
			<path class="st33" d="M2529.1,1141.3c-4.7,7.1-19.2,9.2-34.8,12.5c-12.2,2.6-25.1,5.8-34.2,12.6c-20.8,15.4-88.6,67.6-108.4,65.3
				c-7.7-0.9-6.3-19.6-1.6-44.3c7.3-39.1,22.7-93.3,22.7-116.9c0-12.9,3.4-43.3,7.9-78.2c0.4-2.8,0.7-5.6,1.1-8.5
				c8.9-67.7,21.3-147.6,21.3-147.6s13.8,38.1,40.7,38.1c26.9,0,20.6-29.1,20.6-29.1s24.5,3.7,30.3,11.6
				c5.8,7.9,20.5,42.1,23.4,51.4c0,0,0.6,11.9-22.6,17.5c0,0,5.6,32.2,6.3,53.7c0.5,15.9-8.5,65.5-11.1,96.3
				c-0.9,10.9-1,19.5,0.4,23.4c1.8,5,7.6,10,14.2,14.8C2518.4,1123.6,2534.6,1132.9,2529.1,1141.3z"/>
			<path class="st24" d="M2505.3,1113.9c14.9,32.1-40.3,41.8-49.5,48.6c-20.8,15.4-84.2,71.4-104.1,69.1c-7.7-0.9-6.3-19.6-1.6-44.3
				c7.3-39.1,22.7-93.3,22.7-116.9c0-12.9,3.4-43.3,7.9-78.2l23.9-29.1c0,0,25.6,84,50.1,97.7c12.8,7.2,26.2,12,36,14.9
				c-0.9,10.9-1,19.5,0.4,23.4C2492.9,1104.1,2498.7,1109.1,2505.3,1113.9z"/>
			<g>
				<rect x="2535.3" y="1137.8" class="st5" width="55.5" height="8.3"/>
				<path class="st5" d="M2579,1144.9c0.5-2.7,51-103.2,51-103.2h112.3l-56.3,100.5L2579,1144.9z"/>
				<path class="st3" d="M2583.7,1146.1c0.5-2.7,51.2-104.3,51.2-104.3h107.4l-53.6,104.3H2583.7z"/>
				<path class="st5" d="M2678.4,1094.3c-1.1,4.1-4.6,7.4-7.8,7.4c-3.2,0-4.9-3.3-3.8-7.4c1.1-4.1,4.6-7.4,7.8-7.4
					S2679.5,1090.2,2678.4,1094.3z"/>
			</g>
			<path class="st2" d="M2551.8,1102.1c-3.1-1.7-27.5,3.9-34.4,5.5c-22-5.5-94.4-23.8-97.9-29.5c-4.2-6.8-13.2-213.3-23.6-216.7
				c0,0-20.5-15.7-40.2,14.1c-19.8,29.9,14.1,243.3,43.4,254.3c32.5,12.2,126.6-2,126.6-2v0c7.7,3.3,21.2,5.2,28.4,8.3
				c9.5,4,17.9,0.7,20-4C2576,1127.4,2555.5,1104.1,2551.8,1102.1z"/>
			<path class="st33" d="M2403.1,836.2c0,0-42,4.8-54.2,22.3c-12.2,17.5-15.8,65-15.8,65s37,37.8,81.6,23.2L2403.1,836.2z"/>
		</g>
	</g>
	<path class="st34" d="M3315.8,1717.7H-254.6c-1.8,0-3.2-1.5-3.2-3.2v-5.5c0-1.8,1.5-3.2,3.2-3.2h3570.5c1.8,0,3.2,1.5,3.2,3.2v5.5
		C3319.1,1716.2,3317.6,1717.7,3315.8,1717.7z"/>
	<g>
		<defs>
			<polygon id="SVGID_1_" points="1570.6,1044.7 862.9,1044.7 782.7,677.6 776.6,649.5 771.4,625.5 759.1,569.1 1456.6,569.1 
				1470.1,625.5 1475.8,649.5 1482.6,677.6 			"/>
		</defs>
		<clipPath id="SVGID_2_">
			<use xlink:href="#SVGID_1_"  style="overflow:visible;"/>
		</clipPath>
		<g class="st35">
			<path class="st2" d="M1196.8,744.2c0,0,3.9-19.7,10.5-20.7c6.5-1,16.4-6.3,18.5,0.3c2.1,6.6-15.6,40.8-22.7,32.4
				C1195.9,747.7,1196.8,744.2,1196.8,744.2z"/>
			<path class="st24" d="M1126.8,1402.3c0,0,7.4,10.6,10.1,22.8c0.6,2.7-0.7,4.9-2.8,4.9H1102c-3.1,0-6.2-3.7-6.2-7.5
				c-0.1-7.4,0.7-18.7,5.7-25.5C1109.4,1386.1,1126.8,1402.3,1126.8,1402.3z"/>
			<path class="st24" d="M1175.3,1391.5c0,0,9.8,37.7,15.7,38.2c0.8,0.1,29.2,0.1,29.2,0.1l36.7,0c0,0-3-11.3-14.1-13.7
				c-11.1-2.3-30.9-11.8-41-29.6C1191,1367.9,1175.3,1391.5,1175.3,1391.5z"/>
			<g>
				<path class="st36" d="M1110.7,1158.6c5.7,20.9,9.4,37.5,9.3,45.3c-0.2,35.1,54.5,193.4,54.5,193.4c17.6,9.5,37.8-0.1,37.8-0.1
					c-6-21.9-39.3-218.3-56.9-338.1c-7.4-50.3-12.5-85.5-12.5-85.5l-96.6-13.8C1046.4,959.8,1090.9,1085.8,1110.7,1158.6z"/>
				<path class="st36" d="M1046.4,959.8c0,0,44.5,126,64.3,198.7l44.7-99.4c-7.4-50.3-12.5-85.5-12.5-85.5L1046.4,959.8z"/>
			</g>
			<path class="st36" d="M1098,986.7c0,0,26.6,349.8,32.7,417.6c0,0-16.4,6.3-36.6-3.5c0,0-36.7-162.6-40.9-211.5
				c-4.1-49-45.7-200.4-38.6-214.4C1021.6,960.8,1098,986.7,1098,986.7z"/>
			<path class="st2" d="M1030.1,688.4c0,0,10.2,31.1,10.6,40.4c0.4,9.3-22.9,14.3-34.8,6.7c-11.8-7.7-9.9-14.5-9.9-14.5
				s-5.4-31.6-4.5-34.1C992.4,684.2,1030.1,688.4,1030.1,688.4z"/>
			<path class="st37" d="M1194,740.6c0,0-41.7,65.7-43.5,74.2c-24-35.4-60.8-79.8-62.5-81.5c-4.7-4.9-13.2-7.8-21.8-9.6
				c-11.8-2.5-23.7-2.8-26.4-2.8c-0.4-0.1-0.6-0.1-0.6,0c1.1,5.2-3.4,15-13.3,15.8c-11.7,1-28.3-7.1-30.1-15.8
				c-0.1-0.4-27.5,1.7-22.7,66.6c0,0.9,0.1,1.8,0.2,2.8c1.8,21.8,7.2,50.3,18.3,87.8c4,13.5,17,113.4,20.9,113.5
				c0,0,3.4,2.2,10.8,4.9c3.9,1.4,9,3,15.2,4.5c13.3,3.1,32,5.9,57.2,5.9c46,0,57.7-16.6,57.7-16.6c2.5,0-25.6-80.4-40.3-149.5
				c15.3,11.3,31.5,22,33.2,23.4c7.7,5.9,13.1,8.4,16.9,8.7c0,0,0,0,0,0s0.2,0,0.5,0c2.2,0.1,3.8-0.7,5-1.9c3.5-2.3,8.2-7.4,13-18.6
				c6.3-14.8,13.8-44.6,20.3-64.5c3.6-11,6.3-23.1,10-33C1212.2,754.9,1203.3,742.8,1194,740.6z"/>
			<path class="st38" d="M1044.4,902.5c9.2,48.4-8.3,79.2-20.9,94c-7.5-2.7-10.8-4.9-10.8-4.9c-3.9-0.1-16.9-100-20.9-113.5
				c-11-37.5-16.4-66-18.3-87.8c1-1.5,1.6-2.3,1.6-2.3S1030.8,830.8,1044.4,902.5z"/>
			<path class="st39" d="M1031.2,691.9c0,0-5.9,16.9-15.8,17c-10,0.2-23.7-16.8-23.7-16.8L1031.2,691.9z"/>
			<path class="st2" d="M1031.9,691.1c-2.1,2.6-7.2,6.2-11.4,8.6c-3.2,1.8-7.2,1.9-11.3,0.3c-6-2.4-15.2-6.2-17.6-7.8
				c-5.8-3.8-7.1-11.6-9.7-22.5c-3-12.8-6.2-22.9-6.6-30.3c-0.5-8.8,2.8-13.9,14.9-15.2c22.2-2.5,33.2,4.7,35.6,14.4
				c0.7,2.6,1.3,5.1,1.8,7.4C1034.9,676.1,1035.3,686.8,1031.9,691.1z"/>
			<path class="st36" d="M1026.7,642.1c0,0-5.2-6.9-11.6-4.2c-6.4,2.7-5.5,10.3-17.7,9.1c-12.2-1.2-16.6-8.4-18-4.8
				c-1.4,3.6,1.8,24.8,1.8,24.8s-38.7-69.4,10-69.4c0,0,49.4-3.8,40.2,66.7L1026.7,642.1z"/>
			<path class="st2" d="M1129.1,707.9L1129.1,707.9C1129.1,708,1129.1,707.9,1129.1,707.9z"/>
			<path class="st40" d="M1134.3,608.7c0.2-1.2,0.3-1.9,0.3-1.9C1134.5,607.3,1134.4,608,1134.3,608.7z"/>
			<g>
				<polygon class="st36" points="1211.8,820.8 1203.8,819.2 1226.2,658.5 1226.2,658.5 				"/>
			</g>
			<path class="st2" d="M1200.7,738.3c0,0,7.4,9.3,8.6,4.2c1.2-5.1,10.6-10.9,11.3-13.3c0.7-2.4-10.7-3.4-12.4-3.5
				C1206.4,725.7,1199.5,735.1,1200.7,738.3z"/>
			<path class="st33" d="M1012.7,734.7c0.6,0.2,9.2-2.7,21-1c0,0,0.9,13.4-2.2,14.5c-3,1.1-9.4,0.2-10.7,0
				C1019.4,748.1,1012.7,734.7,1012.7,734.7z"/>
			<path class="st33" d="M1020.7,748.3c0,0,35.5,188.9,44.9,200.9c9.4,12,16.9,15.8,16.9,15.8s7.4-11.4,7.3-16.9
				c-0.1-5.5-58.4-199.8-58.4-199.8H1020.7z"/>
			<path class="st2" d="M1070.5,932.7c0,0,24.1,9.9,31.4,10.3c7.3,0.4,15.8-15.4,13-20c-0.8-1.3-11.4,4.8-14.4,2.7
				c-4.6-3.2-10.4-0.8-14-0.2c-3.7,0.5-17.7-9.4-17.7-9.4L1070.5,932.7z"/>
			<path class="st37" d="M1078.9,915.9c-39.2-35.1-66.7-52.8-75.4-58c2.4-26,1.3-67.3-7.6-137.1c0,0-38,5.3-42.1,22.2
				c-5.9,24.3,7.9,91.9,19.4,146c0,0,0.2,0.1,0.4,0.3c0.8,1.8,2,3.6,3.7,5.3c16.2,16.5,102,48.2,102,48.2
				C1085.5,931.5,1078.9,915.9,1078.9,915.9z"/>
			<g>
				<polygon class="st10" points="1096.4,920.8 1032.1,896.5 1030.1,908.2 1099,932.8 				"/>
				<polygon class="st11" points="1129,889.3 1096.4,920.8 1099,932.8 1136.4,900.4 				"/>
				<g>
					<polygon class="st36" points="1099.7,936.2 1026.3,907.8 1026.5,905.4 1099,932.8 					"/>
				</g>
				<g>
					<polygon class="st36" points="1099.7,936.2 1141.3,899.6 1139.6,897.5 1099,932.8 					"/>
				</g>
			</g>
			<path class="st33" d="M1012.7,734.7c0,0-16.8-22.1-18.2-20.7c-1.4,1.5-3.1,6.3-2.3,7.7c0.8,1.4,22.5,16.9,22.5,16.9L1012.7,734.7
				z"/>
			<path class="st33" d="M1033.6,733.8c0,0,3.4-22.1,3.9-21.2c0.6,0.8,6,6.9,6.2,8.5c0.2,1.5-6.8,14-10,14.9
				C1030.5,736.9,1033.6,733.8,1033.6,733.8z"/>
		</g>
		<g class="st35">
			<path class="st2" d="M4679.4,773.6c0,0,9.3-22.7,17.1-23.9c7.8-1.2,20.4-7.3,21.2,0.4c0.8,7.6-28,47.1-34,37.3
				C4677.6,777.7,4679.4,773.6,4679.4,773.6z"/>
			<path class="st37" d="M4503.6,746.7c0,0,12.4,63.6,30.8,111.1c5.1,13.3,54.9,51.4,57.9,54.1c31.3,28.8,30.7-13.5,30.7-13.5
				c1.8-28-64-134.5-66.2-137.4c-4.2-5.6-13.3-9-22.7-11.1C4519.3,746.7,4503.6,746.7,4503.6,746.7z"/>
			<path class="st24" d="M4438.3,1532.4c0,0,5.9,12.2,6.1,26.3c0,3.1-2,5.7-4.5,5.7h-37c-3.6,0-6.2-4.3-5.3-8.7
				c1.7-8.6,5.4-21.6,12.8-29.4C4422.2,1513.7,4438.3,1532.4,4438.3,1532.4z"/>
			<path class="st24" d="M4496.9,1519.9c0,0,2.1,43.5,8.8,44.1c0.9,0.1,33.7,0.1,33.7,0.1l42.3,0c0,0-0.7-13.1-12.9-15.8
				c-12.2-2.7-32.7-13.6-40.1-34.1C4520.7,1492.7,4496.9,1519.9,4496.9,1519.9z"/>
			<g>
				<path class="st41" d="M4479.2,1251.4c1.5,24.1,1.7,43.2-0.3,52.3c-8.7,40.4,15.7,223,15.7,223c18,10.9,43.6-0.1,43.6-0.1
					c-1.6-25.3,7.9-251.7,16.8-389.8c3.7-58,6.5-98.6,6.5-98.6l-108-15.9C4453.5,1022.2,4474.1,1167.5,4479.2,1251.4z"/>
				<path class="st41" d="M4453.5,1022.2c0,0,20.6,145.3,25.7,229.1l75.8-114.7c3.7-58,6.5-98.6,6.5-98.6L4453.5,1022.2z"/>
			</g>
			<path class="st14" d="M4506.5,1053.2c0,0-54.7,403.4-64.1,481.5c0,0-20.5,7.2-41.4-4c0,0-2.7-187.4,4.5-243.9
				c7.2-56.5-3.8-231,7.7-247.2C4424.7,1023.3,4506.5,1053.2,4506.5,1053.2z"/>
			<path class="st2" d="M4500.8,709.2c0,0,4.2,35.8,2.4,46.6c-1.8,10.7-29.9,16.5-41.7,7.7c-11.8-8.8-7.9-16.7-7.9-16.7
				s1.5-36.4,3.2-39.4C4458.4,704.4,4500.8,709.2,4500.8,709.2z"/>
			<path class="st37" d="M4569.7,1057.3c0,0-17.5,19.2-70.6,19.2c-29,0-50-3.2-64.5-6.9c-6.8-1.7-12.3-3.5-16.5-5.1
				c-8-3.1-11.3-5.6-11.3-5.6c-4.5-0.1,4.9-115.3,3.6-130.9c-3.6-43.2-2.9-76.1,0.3-101.2c0.1-1.1,0.2-2.2,0.4-3.2
				c10.3-74.8,42.4-77.3,42.4-76.8c0,10.1,17.1,19.4,30.9,18.2c11.6-1,19.2-12.2,19.2-18.2c0-0.2,3.9,0.6,9.6,1.8
				c29.4,6.5,46.5,61.7,46.5,135.5C4559.7,963.9,4572.5,1057.3,4569.7,1057.3z"/>
			<path class="st38" d="M4465.2,956.1c-1.2,55.8-28.9,91.3-47,108.4c-8-3.1-11.3-5.6-11.3-5.6c-4.5-0.1,4.9-115.3,3.6-130.9
				c-3.6-43.2-2.9-76.1,0.3-101.2c1.5-1.7,2.4-2.6,2.4-2.6S4466.9,873.4,4465.2,956.1z"/>
			<path class="st39" d="M4501.3,713.3c0,0-10.9,19.5-22.4,19.6c-11.5,0.2-23.3-19.3-23.3-19.3L4501.3,713.3z"/>
			<path class="st2" d="M4502.3,712.3c-3,3-9.8,7.2-15.3,9.9c-4.2,2.1-8.8,2.2-13.1,0.4c-6.4-2.8-16-7.1-18.4-9
				c-5.8-4.4-5.4-13.4-5.7-25.9c-0.4-14.8-1.5-26.4-0.2-34.9c1.5-10.2,6.6-16,20.9-17.6c26.2-2.9,37.1,5.4,37.6,16.6
				c0.1,3,0.2,5.8,0.3,8.5C4509.4,695,4507.3,707.4,4502.3,712.3z"/>
			<path class="st36" d="M4508.2,655.9c0,0-4.3-8-12.3-4.9c-8.1,3.1-8.9,11.9-22.7,10.5c-13.8-1.4-17.1-9.7-19.6-5.5
				c-2.5,4.1-3.9,28.5-3.9,28.5s-27.7-80,28.4-80c0,0,57.8-4.4,30,76.9V655.9z"/>
			<path class="st37" d="M4453.6,746.7c0,0-45.2,6.2-54,25.6c-12.7,28-13.3,106-13.3,168.4c0,0,19.2,18.5,32.3-8.8
				C4431.1,906,4444.3,857.5,4453.6,746.7z"/>
			<path class="st2" d="M4610.2,731.7L4610.2,731.7C4610.2,731.8,4610.2,731.7,4610.2,731.7z"/>
			<path class="st40" d="M4640.5,617.4c0.5-1.3,0.8-2.2,0.8-2.2C4640.9,615.8,4640.7,616.5,4640.5,617.4z"/>
			<g>
				<polygon class="st36" points="4693.6,846.8 4685.7,845.1 4712.9,659.2 4715.6,659.8 				"/>
			</g>
			<path class="st2" d="M4684.4,774.8c0,0,10.7,4.1,10.9-1.9c0.2-6,9.7-18.5,9.9-21.4c0.2-2.9-13.2,4.2-15.2,5.4
				C4688.1,758,4682.3,772.4,4684.4,774.8z"/>
			<path class="st37" d="M4694.6,785.9c0,0-7.3-13.9-17.5-16.5c0,0-22.4,30-48.3,55.8c-19.1,18.9-24.7,41.3-26.9,55
				c-5.1,32.4,7.6,41.8,7.6,41.8s10.1,1.6,26.3-23.6c10.9-17,26.8-51.5,39.1-74.4C4681.9,811.3,4688,797.4,4694.6,785.9z"/>
			<path class="st33" d="M4469.5,762.7c0.7,0.2,11.3-3.2,24.4-1.1c0,0-2.3,15.5-6,16.7c-3.8,1.3-10.9,0.2-12.4,0
				C4474,778.1,4469.5,762.7,4469.5,762.7z"/>
			<path class="st33" d="M4475.5,778.3c0,0-5.1,217.8,2.8,231.7c8,13.9,15.6,18.2,15.6,18.2s11.4-13.2,12.6-19.5
				c1.2-6.3-18.6-230.4-18.6-230.4H4475.5z"/>
			<path class="st2" d="M4487.9,990.9c0,0,25.4,11.4,33.7,11.8c8.3,0.4,22-17.7,19.8-23c-0.6-1.5-14.3,5.5-17.2,3.1
				c-4.5-3.6-11.8-0.9-16.1-0.2c-4.3,0.6-18.1-10.9-18.1-10.9L4487.9,990.9z"/>
			<path class="st37" d="M4426,902.8c0,0,31,19.5,75.7,68.8c0,0,3.8,17.9-6.2,31.1c0,0-91.2-36.5-105.8-55.5
				C4375,928.2,4412.4,899.1,4426,902.8z"/>
			<g>
				<polygon class="st10" points="4520.7,977.2 4452.4,949.2 4447.2,962.7 4520.7,991 				"/>
				<polygon class="st11" points="4565.9,940.9 4520.7,977.2 4520.7,991 4571.8,953.7 				"/>
				<g>
					<polygon class="st36" points="4520.7,995 4443,962.3 4443.8,959.5 4520.7,991 					"/>
				</g>
				<g>
					<polygon class="st36" points="4520.7,995 4577.6,952.8 4576.1,950.3 4520.7,991 					"/>
				</g>
			</g>
			<path class="st33" d="M4469.5,762.7c0,0-14-25.5-15.9-23.8c-1.9,1.7-5.1,7.3-4.5,8.9c0.6,1.6,21.9,19.5,21.9,19.5L4469.5,762.7z"
				/>
			<path class="st33" d="M4493.9,761.6c0,0,9.3-25.4,9.7-24.5c0.4,1,5.2,8,5.1,9.8c-0.1,1.8-11.2,16.1-15.2,17.2
				C4489.5,765.2,4493.9,761.6,4493.9,761.6z"/>
		</g>
	</g>
</g>
</svg>
