<?xml version="1.0" encoding="utf-8"?>
<!-- Generator: Adobe Illustrator 23.0.3, SVG Export Plug-In . SVG Version: 6.00 Build 0)  -->
<svg version="1.1" id="Layer_1" xmlns="http://www.w3.org/2000/svg" xmlns:xlink="http://www.w3.org/1999/xlink" x="0px" y="0px"
	 viewBox="0 0 635.7 595.6" style="enable-background:new 0 0 635.7 595.6;" xml:space="preserve">
<style type="text/css">
	.st0{fill:#D5DBDA;}
	.st1{fill:#FFFFFF;}
	.st2{fill:#EFEFEF;}
	.st3{opacity:0.15;}
	.st4{opacity:0.26;enable-background:new    ;}
	.st5{fill:#FFD04D;}
	.st6{fill:#66341B;}
	.st7{fill:#723E24;}
	.st8{opacity:0.3;}
	.st9{fill:#E8F6F7;}
	.st10{fill:#D0E0E2;}
	.st11{fill:#FFE1BD;}
	.st12{fill:#F4F4F4;}
	.st13{fill:#EAEAEA;}
	.st14{fill:#3A3A3A;}
	.st15{fill:#E2E2E2;}
	.st16{fill:#F4D5B5;}
	.st17{fill:#632F00;}
	.st18{fill:#E8C5A0;}
	.st19{fill:#8C4200;}
	.st20{fill:#606060;}
	.st21{fill:#E5BB98;}
	.st22{fill:#D8D8D8;}
	.st23{fill:#09424C;}
	.st24{fill:#0C5A71;}
	.st25{opacity:0.1;}
	.st26{fill:#0B0B3A;}
	.st27{opacity:0.39;fill:#CE9006;enable-background:new    ;}
	.st28{fill:#D69507;}
	.st29{fill:#EFAF11;}
	.st30{fill:#CE9006;}
	.st31{fill:#FAFEFF;}
	.st32{fill:#B4EFF9;}
	.st33{fill:#75D9EF;}
	.st34{opacity:0.5;}
	.st35{fill:#282C2D;}
	.st36{fill:#D6D6D6;}
	.st37{fill:#525252;}
	.st38{fill:#A5A5AF;}
	.st39{fill:#F1F2F2;}
	.st40{fill:#A7A9AC;}
	.st41{fill:#383838;}
	.st42{fill:#E6E7E8;}
	.st43{fill:#58595B;}
	.st44{fill:#594A42;}
	.st45{fill:#81553A;}
	.st46{opacity:0.55;fill:#EFAF11;enable-background:new    ;}
	.st47{fill:#709E3E;}
	.st48{opacity:0.62;}
	.st49{fill:#93BC6C;}
	.st50{fill:#4C2311;}
	.st51{fill:#1A1A47;}
	.st52{opacity:0.54;fill:#3D3D72;enable-background:new    ;}
	.st53{clip-path:url(#SVGID_2_);}
	.st54{fill:#E1EDF9;}
	.st55{fill:#C2E0F2;}
	.st56{fill:#FFD19F;}
	.st57{fill:#006466;}
	.st58{fill:#007D87;}
	.st59{opacity:0.18;fill:#00B3B7;enable-background:new    ;}
	.st60{opacity:0.45;fill:#00B3B7;enable-background:new    ;}
	.st61{fill:#3D3D72;}
	.st62{fill:#33305B;}
	.st63{fill:#FFB27D;}
	.st64{fill:#233862;}
	.st65{fill:#EFCBAB;}
	.st66{fill:#D8A987;}
	.st67{fill:#ED985F;}
	.st68{fill:#132644;}
	.st69{fill:#D2E3FC;}
	.st70{fill:#EE9849;}
	.st71{fill:#1C468A;}
	.st72{fill:#BC3F3F;}
	.st73{fill:#FFF0E6;}
	.st74{fill:#FCECDB;}
	.st75{fill:#932424;}
	.st76{fill:#EF9E67;}
	.st77{fill:#A53D38;}
	.st78{fill:#C45446;}
	.st79{fill:#912F2F;}
	.st80{fill:#9B2323;}
	.st81{fill:#C94C43;}
	.st82{fill:#ED975D;}
	.st83{fill:#F99746;}
	.st84{fill:#DDB08E;}
	.st85{fill:#B56F40;}
	.st86{fill:#99592E;}
	.st87{fill:#2C3A64;}
	.st88{fill:#82B378;}
	.st89{fill:#EF7E29;}
	.st90{fill:#AA443E;}
	.st91{fill:#6BB7BF;}
	.st92{fill:#86D1CD;}
	.st93{fill:#5685D8;}
	.st94{fill:#739AF0;}
	.st95{fill:#ED7D2B;}
</style>
<title>header-teamwork</title>
<g>
	<g>
		<rect x="186.9" y="5.5" class="st0" width="439.3" height="259.5"/>
		<rect x="199.1" y="10.6" class="st1" width="414.9" height="249.4"/>
		<rect x="229.5" y="22.1" class="st2" width="351.3" height="16.7"/>
		<g class="st3">
			<line class="st4" x1="294.1" y1="228.5" x2="285.3" y2="228.5"/>
			<line class="st4" x1="285.3" y1="138.4" x2="294.1" y2="138.4"/>
		</g>
		<path class="st5" d="M511.1,213.3"/>
		<line class="st5" x1="527.2" y1="197.2" x2="527.2" y2="213.3"/>
		<line class="st2" x1="418.7" y1="107.2" x2="418.7" y2="103.8"/>
		<line class="st2" x1="580.8" y1="103.8" x2="580.8" y2="107.2"/>
		<line class="st2" x1="580.8" y1="112.1" x2="580.8" y2="115.5"/>
		<line class="st2" x1="418.7" y1="115.5" x2="418.7" y2="112.1"/>
		<line class="st2" x1="418.7" y1="123.8" x2="418.7" y2="120.4"/>
		<line class="st2" x1="580.8" y1="120.4" x2="580.8" y2="123.8"/>
		<path class="st6" d="M635.7,3.4c0,1.9-1.5,3.4-3.4,3.4H180.9c-1.9,0-3.4-1.5-3.4-3.4c0,0,0,0,0,0l0,0c0-1.9,1.5-3.4,3.4-3.4
			c0,0,0,0,0,0h451.4C634.1,0,635.7,1.5,635.7,3.4L635.7,3.4L635.7,3.4z"/>
		<path class="st6" d="M635.7,267.1c0,1.9-1.5,3.4-3.4,3.4H180.9c-1.9,0-3.4-1.5-3.4-3.4c0,0,0,0,0,0l0,0c0-1.9,1.5-3.4,3.4-3.4
			c0,0,0,0,0,0h451.4C634.1,263.7,635.7,265.2,635.7,267.1L635.7,267.1z"/>
		<path class="st7" d="M112.1,564.8l2.4-131h-8.7l2.4,131c-0.2,1.1,0.4,2.1,1.5,2.4c1.1,0.2,2.1-0.4,2.4-1.5
			C112.1,565.4,112.1,565.1,112.1,564.8z"/>
		<path class="st7" d="M32,549.5l50.6-120.8l-8.1-3.2l-46,122.6c-0.5,1.1-0.1,2.3,0.9,2.9C30.5,551.3,31.6,550.7,32,549.5z"/>
		<path class="st7" d="M188.3,549.5l-50.6-120.8l8.1-3.2l46,122.6c0.6,0.9,0.4,2.1-0.5,2.7c-0.9,0.6-2.1,0.4-2.7-0.5
			C188.5,550.1,188.4,549.8,188.3,549.5z"/>
		<g class="st8">
			<path d="M73.1,429.2l5.2,2L30.7,551c0.6-0.3,1.1-0.8,1.3-1.4l50.6-120.8l-8.1-3.2L73.1,429.2z"/>
			<path d="M105.9,437.3h6.5l-2.4,129.9c0.1,0,0.2,0,0.2,0c1.2-0.2,2-1.2,1.9-2.4l2.4-131h-8.7L105.9,437.3z"/>
			<path d="M191.9,548.1l-46-122.6l-8.1,3.2l0.9,2.2l5-2l45.8,121.9c0.5,0.3,1,0.4,1.5,0.2C192,550.5,192.4,549.2,191.9,548.1z"/>
		</g>
		<path class="st9" d="M170.2,440.1c-8.8,7.2-21.9,13.8-55.2,14.5c-43.7,0.9-66.6-4.1-79.1-26.7c-20.8-37.7,5.2-159.4,46.2-132.4
			c34.3,22.5,41.1,94.5,45.6,104.4C132.3,409.8,191.6,422.6,170.2,440.1z"/>
		<path class="st10" d="M122.6,445.2c-43.7,0.9-66.6-4.1-79.1-26.7c-14.2-25.7-6.6-90.6,12.7-120.6C31.5,320.8,20,399,35.9,427.9
			c12.4,22.6,35.3,27.5,79.1,26.7c33.3-0.7,46.4-7.3,55.2-14.5c3-2.4,4.4-4.8,4.6-7.1C165.9,439.3,152.3,444.6,122.6,445.2z"/>
		<path class="st11" d="M141.2,157.2c3-8.6,5.7-17.7,10.4-13.1c4.9,4.8,4.5,4.2,2.7,10.9S138.7,164.4,141.2,157.2z"/>
		<path class="st11" d="M146.6,144.9c1.5-4.1,3.9-8.8,6.4-10.7s-1.3,4.9-2.2,8S145.3,148.3,146.6,144.9z"/>
		<path class="st12" d="M142.6,191.6c3.5-13.2,5.3-30.4,5.3-30.4l-6.6-4.4c0,0-13.4,27.5-20.6,48.5l-37.3-9.6l-4.6-0.9L90.9,219
			c0,0,36,5.2,38.2,4C131.2,221.7,139,205,142.6,191.6z"/>
		<path class="st13" d="M129,223c-2.2,1.2-38.2-4-38.2-4l-12.2-24.3l4.6,0.9c3.4,1.4,8.8,6.9,13.2,12.6c3.2,4.2,4.9,5.7,9.8,7.5
			c7.4,2.8,15.2,4.7,18.1,4.9c5,0.3,5.5,0.6,6.5-0.9C131,221.1,130.3,222.4,129,223z"/>
		<path class="st12" d="M41.1,268c2.4,6,2.9,12.6,1.5,19c-2.8,12.6,0.4,13.4,0.4,13.4s17,10.8,31.2,15.2c10.2,3.2,18.8,2.6,18.6-8.6
			l0-0.2c0-0.7,0-1.3-0.1-2c-0.5-25.2,4.8-26.5,6.1-54.7c1.3-29-6.4-45.1-14.1-52.1c-7.7-7-18.2-7.2-37.9-2.6
			c-14.8,3.5-19.7,7.4-19.6,18.4c0.2,4.5,0.7,9,1.6,13.5C31.3,241.2,37.1,257.7,41.1,268z"/>
		<path class="st14" d="M76.9,206c0,0,15.4,50.4,12.3,74.5l-5.7,10.3l-6.2-11.2c0,0,5-48.2-4.6-72.7L76.9,206z"/>
		<path class="st15" d="M41.1,268c2.4,6,2.9,12.6,1.5,19c-2.8,12.6,0.4,13.4,0.4,13.4s17,10.8,31.2,15.2l13.2-1.3l5.3-4.2l0-3.3
			c0-0.7,0-1.3-0.1-2c-6.7,0.5-13.4,0.3-20-0.5c-6.7-0.8-13.3-2.5-19.6-4.9c-3.4-1.3-5.5-4.9-4.8-8.5c1.1-5.8,1.7-11.7,1.8-17.6
			c0-5.5-2.6-14.9-4.7-21.7c-1.6-5.2-2.2-10.6-1.8-16c0.4-6.1,0.4-12.2,0-18.3l-10.5-5.7l-5.8,2.2c0.2,4.5,0.7,9,1.6,13.5
			C31.3,241.2,37.1,257.7,41.1,268z"/>
		<path class="st16" d="M40.9,321.5c-1.2,0.2-4.3-5.2-4.3-5.2l1.3-1.7c0.7-1,1.8-1.7,2.9-2.1l0.2-0.1c1-0.3,2.2,0.1,2.8,1
			c0.9,1.3,2.3,2.8,3.9,2.8h0c0.1,0,0.1,0,0.2,0C49.3,316.2,42.1,321.3,40.9,321.5z"/>
		<path class="st17" d="M88.7,146.3c0,0,1.3,3.7-0.7,6.6l-8.1-11l5.7-0.1L88.7,146.3z"/>
		<path class="st11" d="M44.6,160.9c0.4,14.2,12.6,22.4,12.6,22.4l-0.8,12.9l8.3,5.4l5.7,3.7l3.3-6.8l0.4-8.3c0.1-1.9,1.5-3.6,3.4-4
			c3.1-0.8,5.9-2.5,8.1-4.9c0.2-0.2,0.4-0.4,0.5-0.6l0,0c5.4-7.3,7.4-35.3-11-43.3C56,129.1,44.2,146.6,44.6,160.9z"/>
		<path class="st18" d="M65.2,193.8l-0.6,7.7l5.7,3.7l3.3-6.8l0.4-8.3c0.1-1.9,1.5-3.6,3.4-4c3.1-0.8,5.9-2.5,8.1-4.9
			c0.2-0.2,0.4-0.4,0.5-0.6c-3.6,2-7.5,3.2-11.6,3.6C69.4,184.8,65.5,188.8,65.2,193.8z"/>
		<path class="st19" d="M64.4,165.2c-0.7,0.3-1.4-0.8-1.4-0.8s-4-8.9-5.4-10.3c-2.4-2.5-8.2-2.3-8.7,5.4c-0.4,5.9,6.7,18.6,8.8,22.3
			c0.3,0.6,0.2,1.4-0.4,1.8c-0.2,0.2-0.5,0.3-0.8,0.3h-0.1c-0.3,0-0.7-0.1-0.9-0.3c-4.5-4-24.5-23.1-8.7-41.2c0,0,12.6,0.8,14.5,6.9
			c1.4,4.7,2.5,9.5,3.3,14.3C64.8,163.7,65.2,164.9,64.4,165.2z"/>
		<path class="st19" d="M88.7,146.3c0,0-11-8.6-27.8,1.9l-13.7-3.5c0,0-0.6-0.2-0.3-2.2s1.8-22.2,25.8-17.7
			C86.6,127.4,95.1,136.9,88.7,146.3z"/>
		<path class="st20" d="M77.9,201.7l-0.1,0.7c-0.2,1.2-0.5,2.5-1,3.6l0,0l-4.2,0.9l-3.6-2.7l4.2-4.8l0.6,0.2
			C75.4,199.9,76.7,200.6,77.9,201.7L77.9,201.7z"/>
		<path class="st15" d="M56.5,190.2c-1.6,1.1-3,2.5-4,4.1c1.7,0.8,3.5,1.7,5.1,2.7c2.2,1.3,12.6,8.7,12.6,8.7l3.1-6.3
			C73.2,199.3,62.4,191.8,56.5,190.2z"/>
		<path class="st15" d="M73.2,199.3c0,0,3.6,1.2,4.8,4c0,0,1.9-3.6-0.5-9.9c-1.1-1-2.3-1.9-3.5-2.6L73.2,199.3z"/>
		<path class="st21" d="M44.3,312.6c0.8,1,1.6,1.9,2.5,2.7c0.6,0.3,0.7-0.4,0.5-0.8C47,314.1,44.3,312,44.3,312.6z"/>
		<path class="st17" d="M56.6,183.9L56.6,183.9c-0.4,0-0.8-0.1-1-0.3c-4.5-4-24.5-23.1-8.7-41.2c-0.5,1.9-0.6,3.8-0.5,5.7
			C46.5,148.2,36.4,164.5,56.6,183.9z"/>
		<ellipse class="st22" cx="66.5" cy="567.9" rx="65.8" ry="5"/>
		<path class="st19" d="M33.9,548.8c0.9,3.3,0.5,4.5,0.9,6.7c0.4,2.7,2.9,3.7,4.3,5.9c1.6,2.4,4.1,6.3-5.6,6.5
			c-10.3,0.2-16.5-0.5-14.7-6.4s2.1-8.4,2-10.3s0-3.9,1.2-5S32.4,542.9,33.9,548.8z"/>
		<path class="st14" d="M36.1,362.8c0,0-16.3-26.1,6.9-62.4c0,0,18.1,8.1,32.5,9.1c11.4,0.8,17.2-0.4,17.2-0.4s1,34.9,1,53.7
			L36.1,362.8L36.1,362.8z"/>
		<path class="st14" d="M47.1,438.5c4.5-18.8-14.1-22.2-19.9-8.5c-8.3,19.3-7.6,104-7.2,116.3c0.1,1.6,0.9,1.3,1.8,1
			c2.6-1,4.9-1.3,5.9-1.1c2.1,0.7,4.1,1.5,6.1,2.5C35.5,532,42.8,456.8,47.1,438.5z"/>
		<path class="st14" d="M63.8,365.3c2-23.4-7-41.6-21-33.9c-5.9,3.3-8,9.8-8.8,15.9c-0.8,6.1-5.1,69.8-6.6,81.3
			c-3.4,25.9,16.3,19,18.5,11.8C51.2,422.3,62.7,378.1,63.8,365.3z"/>
		<path class="st14" d="M96.8,437.3c0.7-17.6-14-16.6-19.9-2.9c-12.8,29.5,0.1,92.3,2.7,121.9c2.9-4.8,8.3-6.4,9.6-6.3
			c1.3,0.1,2.4,0.8,3.2,1.8C92,515.5,96,456.1,96.8,437.3z"/>
		<path class="st14" d="M77.5,439.2c2.2,7.2,21.1,15.5,19.1-10.6c-0.9-11.6-3.2-75.5-3.7-81.7s-1.5-15.2-4.5-16.3
			c-14.9-5.6-29.3,12.8-25.4,35.9C65.7,382,73,424.4,77.5,439.2z"/>
		<path class="st19" d="M92.3,552.4c0.8,1.5,4.5,5,9.7,7.4s16.2,3.4,10.1,5.4s-13.2,0.8-16.8,0.2c-3.8-0.5-7.6-0.8-11.4-0.7
			c-5.6,0-5.7-0.4-4.9-6.7C80.1,549.3,89.8,547.5,92.3,552.4z"/>
		<path class="st11" d="M39.9,307.4l2.9,4.1c3.1-0.4,6.1,1.2,7.6,4c2.4,4.8-6.2,10.7-8.6,8.5s-7.8-12.4-7.8-12.4L39.9,307.4z"/>
		<path class="st12" d="M18.3,294.5c5.7,6,11,12.3,16,18.9l1.5-1l5.7-3.9c0,0-11.7-24.4-15-36.4c-1.4-5-3.7-9.7-6.9-13.9
			c0.2-0.2,0.4-0.4,0.6-0.7c8.5-9,15.1-20.6,20.1-27.7c2.4-3.4,4.1-7.3,4.8-11.5c0.5-2.8,0.5-5.7,0.1-8.5c-0.7-4.5-2.6-8.6-6.9-9.6
			c-1.6-0.4-3.2-0.3-4.7,0.4c-1.7,0.7-3.1,1.9-4.1,3.4c-6.6,10.7-25.3,39.5-28.2,46.7c-0.5,1.2-0.8,2.4-1,3.6
			c-0.1,0.4-0.2,0.8-0.2,1.3C-1.1,267.4,10.5,286.7,18.3,294.5z"/>
		<path class="st13" d="M18.3,294.5c5.7,6,11,12.3,16,18.9l1.5-1c0,0-8.6-11.9-12.6-16.8c-6.2-7.4-10.6-13.2-14.3-20
			s-5.4-19.9-3.5-23.6c1.9-3.7,12.9-19.9,15.2-23c2.3-3.1,21.5-22.2,16-27.6c-0.9-0.7-2-1-3.1-0.8c-1.7,0.7-3.1,1.9-4.1,3.4
			c-6.6,10.7-25.3,39.5-28.2,46.7c-0.5,1.2-0.8,2.4-1,3.6c-0.1,0.4-0.2,0.8-0.2,1.3C-1.1,267.4,10.5,286.7,18.3,294.5z"/>
		<path class="st14" d="M48.9,311.7c0,0-2.6,9.3-14.3,14.6c-10.1,4.6,16.2,7.2,16.8,6.2c0.6-1,5.6-18,5.6-18L48.9,311.7z"/>
		<path class="st7" d="M250.1,557.5l2.5-131.8h-8.8l2.5,131.8c-0.2,1.1,0.4,2.1,1.5,2.4c1.1,0.2,2.1-0.4,2.4-1.5
			C250.2,558.1,250.2,557.8,250.1,557.5z"/>
		<path class="st7" d="M169.6,542.1l50.9-121.6l-8.1-3.2L166,540.6c-0.6,0.9-0.4,2.1,0.5,2.7c0.9,0.6,2.1,0.4,2.7-0.5
			C169.4,542.6,169.5,542.4,169.6,542.1z"/>
		<path class="st7" d="M326.9,542.1l-50.9-121.6l8.1-3.2l46.3,123.4c0.6,0.9,0.4,2.1-0.5,2.7c-0.9,0.6-2.1,0.4-2.7-0.5
			C327,542.6,326.9,542.4,326.9,542.1z"/>
		<g class="st8">
			<path d="M210.9,421l5.2,2.1l-47.9,120.4c0.6-0.3,1.1-0.8,1.3-1.4l50.9-121.6l-8.1-3.2L210.9,421z"/>
			<path d="M243.9,429.2h6.5L248,559.9c0.1,0,0.2,0,0.2,0c1.2-0.2,2-1.2,1.9-2.4l2.5-131.8h-8.8L243.9,429.2z"/>
			<path d="M330.4,540.6l-46.3-123.4l-8.1,3.2l0.9,2.2l5-2L328,543.4c0.5,0.3,1,0.4,1.5,0.2C330.6,543,331,541.7,330.4,540.6z"/>
		</g>
		<path class="st9" d="M312,380.6c0,50.5-28.6,62.6-63.8,62.6s-63.8-12.1-63.8-62.6s28.6-99.4,63.8-99.4S312,330.1,312,380.6z"/>
		<path class="st10" d="M253.3,431.9c-35.2,0-63.8-12.1-63.8-62.6c0-17,3.2-33.8,9.3-49.7c-9,17.5-14.4,39.1-14.4,61.1
			c0,50.5,28.6,62.6,63.8,62.6c27.6,0,51.2-7.4,60-35C297.1,426.6,276.7,431.9,253.3,431.9z"/>
		<path class="st23" d="M217.6,367.4c0,0-8.2,17.5-9.9,29.1c-2.4,17,1.2,24.4,22.9,25.1s28.1-3.6,38.5-3.6s22.5-19.7,9.1-43.1
			L217.6,367.4z"/>
		<path class="st11" d="M227,510.5l-0.4,6.6c0,0-6.4,19-6.8,23.7c-0.6,8.3,3.1,17.7,6.7,17.6c4.1-0.1,9.7-5.3,12.2-15.7
			c1.7-7.1-1.1-20.9-0.1-24.2s3-9.6,3-9.6L227,510.5z"/>
		<path class="st19" d="M239.3,538.7c-2.8,2.8-8.6,8.8-10.8,8.7c-2.4-0.1-6.5-7.4-7.9-10.4c-0.3,1.3-0.6,2.5-0.7,3.8
			c-0.6,8.3,3.1,17.7,6.7,17.6c4.1-0.1,9.7-5.3,12.2-15.7C239,541.4,239.2,540,239.3,538.7z"/>
		<path class="st24" d="M241.3,513.7c0,0,26-82.1,29.3-92.3s5.9-29.3-9.2-32.7c-13-2.9-18.5,16.5-20.8,28.4s-14.4,91.7-14.4,91.7
			s-1.4,4.5,6.4,5.8S241.3,513.7,241.3,513.7z"/>
		<g class="st25">
			<path d="M256.8,388.7c-5.6,7.7-8.5,22.1-10.1,30.2c-2.4,11.9-14.2,93.3-14.2,93.3s2,1,6.3,3c-0.7,0-1.4-0.1-2.1,0
				c-8.4,0.6-10.4-4.6-10.4-4.6s11.9-81.4,14.2-93.3C242.6,406.8,247,390.7,256.8,388.7z"/>
		</g>
		<path class="st11" d="M194.4,507.3l-0.9,6.6c0,0-7.8,18.5-8.4,23.2c-1.1,8.3,1.9,17.8,5.4,18c4.1,0.2,10.1-4.6,13.3-14.8
			c2.2-6.9,0.4-21,1.6-24.1s3.6-9.3,3.6-9.3L194.4,507.3z"/>
		<path class="st19" d="M204.6,536.3c-3,2.6-9.2,8.2-11.4,7.9c-2.3-0.3-6-7.8-7.1-10.9c-0.4,1.2-0.8,2.5-1,3.8
			c-1.1,8.3,1.9,17.8,5.4,18c4.1,0.2,10.1-4.6,13.3-14.8C204.2,539,204.4,537.7,204.6,536.3z"/>
		<path class="st24" d="M208.4,511.6c0,0,31.8-80.1,35.8-89.9s7.9-28.8-6.8-33.2c-12.8-3.8-19.6,15.1-22.8,26.9
			s-20.8,90.4-20.8,90.4s-1.7,4.4,5.9,6.2C207.2,513.7,208.4,511.6,208.4,511.6z"/>
		<g class="st25">
			<path d="M232.8,388c-6.2,7.3-10.1,21.5-12.2,29.4c-3.2,11.7-20.8,92.1-20.8,92.1s1.9,1.2,6.1,3.4c-0.7-0.1-1.4-0.1-2.1-0.2
				c-8.4,0-10.1-5.3-10.1-5.3s17.6-80.3,20.8-92.1C217.3,405,222.9,389.2,232.8,388z"/>
		</g>
		<path id="_Path_" class="st26" d="M231.7,201.3c0,0,2.9-12.4,23.5-8.4c19.7,3.8,18.4,31.3,20.7,38.7c2,6,4.4,11.8,7,17.6
			c0.3,0.8,0,1.6-0.7,2c0,0-0.1,0-0.1,0.1c-7.3,2.4-38.2,11.5-59.2-1.2c-1.9-1.1-3.4-2.8-4.2-4.8c-0.4-0.9-0.6-1.9-0.6-2.9
			c0.1-3.3,2-7.3,0.6-16.9S218.9,201,231.7,201.3z"/>
		<path id="_Path_2" class="st11" d="M225.6,227.8c-1.7,2.5-2.3,5.7-1.7,8.7c0.3,3,2.8,5.2,5.8,5.3l0.7-5.4l-1.4-9.5L225.6,227.8z"
			/>
		<path id="_Path_3" class="st11" d="M271.7,227.8c1.7,2.5,2.3,5.7,1.7,8.7c-0.3,3-2.8,5.2-5.8,5.3l-0.7-5.4l1.4-9.5L271.7,227.8z"
			/>
		<path id="_Path_4" class="st5" d="M275,332.9c-0.3,4.9-0.2,9.9,0.4,14.8c0.6,6.3,2.7,29.3,2.7,29.3c-4.2,1.5-8.6,2.7-13,3.5
			c-11.1,2.1-30.1-3.6-47.8-9.6c0,0,6.5-15.9,6.6-29c0-1.8,0-3.6-0.1-5.5c-0.4-4.1-1-8.1-1.9-12.1c-0.2-1-0.4-2-0.6-3.1
			c-0.7-3.8-1.3-8.1-1.8-12.3c-0.5-4.3-0.7-8.6-0.6-12.9c-1.6-11.5,1.9-22.9,1.9-22.9s14.6-6.1,20.7-6.9c0,0,10.9-2.5,18.6,0
			c10,3.3,15.5,5.3,20,7.7c0.5,0.3,3.4,8.8,2.1,16.3c-1.9,11-4.7,26.2-6.1,35.3C275.4,329.2,275.1,331.9,275,332.9z"/>
		<path id="_Path_5" class="st27" d="M278.1,379.7c-4.4-0.4-8.8-0.1-13,0.8c-3.1-7.9-2.1-36.7-2.1-36.7c-8.6-1.4-21.7-6.6-21.7-6.6
			c-3.4,1.6-14.1,4-17.4,4.7c0-1.8,0-3.6-0.1-5.5c-0.4-4.1-1-8.1-1.9-12.1c4-2.8,11.5,3.4,11.5,3.4l37.7-5.9c1.8,1.1,3.5,2.4,5,3.8
			c-0.6,3.6-1,6.3-1,7.4c-0.3,4.9-0.2,9.9,0.4,14.8C276,354,278.1,379.7,278.1,379.7z"/>
		<path id="_Path_6" class="st11" d="M270,221.6c0,5.5-1.1,18.4-4.6,26.9c-1.9,4.8-5.3,8.9-9.8,11.7c0,2.2-0.1,5.1,1.5,5.4
			c0.4,1,1,1.2,0.7,2.8c-1,5.5-7.4,11.6-9,13.1s-2.6,0-2.6,0c-1.8-2.1-3.4-4.4-4.7-6.9c-0.8-1.5-1.4-2.8-1.8-3.8
			c-0.6-1.4-0.4-3.1,0.4-4.4c1.7-0.2,1.1-3.8,0.9-5.8c-3.3-2.3-6.4-6.3-8.7-11c-4.6-9.4-4.9-21.4-4.9-27.9
			c0-11.7,9.5-21.2,21.2-21.2C260.5,200.4,270,209.9,270,221.6L270,221.6z"/>
		<path id="_Path_7" class="st18" d="M255.4,260.3c-1.2,0.5-6.3,2.4-7.3,4.6c-1.1,2.5-1.7,6.4-2.8,7.6c-1.1,0.9-2.3,1.6-3.7,2.1
			c-0.8-1.5-1.4-2.8-1.8-3.8c-0.6-1.4-0.4-3.1,0.4-4.4c1.7-0.2,1.1-3.8,0.9-5.8c2.1,0.8,4.4,1.3,6.7,1.2
			C250.4,261.5,252.9,261,255.4,260.3z"/>
		<path id="_Path_8" class="st11" d="M263.1,316.3c1.5-0.3,2.9-0.5,4.4-0.6c1.1,0-2,9.6-2,9.6c-0.7-0.7-1.5-1.2-2.4-1.4
			c-1.3-0.2-0.8-7.5-0.8-7.5L263.1,316.3z"/>
		<path id="_Path_9" class="st28" d="M280.1,274c0,0,9.6,4.9,9,12.4s-11.8,48.1-13.7,53.5s-50.8-10.9-50.8-10.9s1.5-6.5,2.9-8.3
			c0,0,33.4,3.6,37.8,5.3c0,0,6.8-32.3,8.9-38S280.1,274,280.1,274z"/>
		<path id="_Path_10" class="st29" d="M263.8,324.6c-5.1,2.9-43.7,18.9-47.2,17.9s-7.9-4.2-8.5-13.6c-0.5-8.4,4.4-41.4,5.5-49.1
			c0.2-1.2,0.7-2.4,1.4-3.3c0.2-0.3,0.5-0.5,0.7-0.7c1.5-1.1,3.2-2.1,5-2.7c0.5,1.1,0.4,5.6,1,13.4c0.1,0.9,0,1.8-0.2,2.7
			c-1,4.6-2.1,10.5-2.1,13.7c0,0.2,0,0.4,0,0.6c0.3,3.3,2.8,9.6,2.8,12.3c0.1,6.3,0.1,7.2,0,7.3c1.4-0.2,6.2-1.1,12.1-2.1
			c12.1-2.2,28.8-5.2,28.8-5.2C264.7,318.7,263.8,324.6,263.8,324.6z"/>
		<path id="_Path_12" class="st30" d="M240.3,266.2c0,0,1.1,9.9,6,15.2c0,0-1.6-0.5-4.6,3.1c-0.3,0.3-0.8,0.4-1.1,0.1
			c-0.1-0.1-0.2-0.3-0.3-0.4c-0.9-4-4-13.9-2.3-17.3C238.6,266.3,239.5,266,240.3,266.2z"/>
		<path id="_Path_13" class="st30" d="M257,265.5c-0.8,2.9-1.8,5.7-3,8.5c-1.4,2.8-3.2,5.4-5.4,7.7c0,0,3.8,0.7,5.5,3.2
			c0.2,0.3,0.6,0.3,0.9,0.1c0.1-0.1,0.2-0.2,0.2-0.3c1.1-2.2,1.8-4.1,3-8.6c1.4-5.1,1.5-7.9,1.3-10
			C258.9,265.3,257.9,265.1,257,265.5z"/>
		<path id="_Path_14" class="st27" d="M219.7,325.6c-3.9-3.3,0.8-9.7,0.4-11.9s-0.3-2.6-0.6-4.8c-0.3-1.8-0.2-3.6,0-5.4
			c0.3,3.3,2.8,9.6,2.8,12.3c0.1,6.3,0.1,7.2,0,7.3c1.4-0.2,14.3-2.5,20.2-3.6C244,320.1,222.3,327.9,219.7,325.6z"/>
		<path id="_Path_15" class="st11" d="M226.6,322.2l-4.1,0.7c-2.6-0.2-5.2-0.3-7.8-0.2c-2,0.2-4,0.6-5.9,1.3c-0.4,0.1-0.9-0.2-1-0.6
			c0,0,0,0,0-0.1c-0.4-1.4-0.6-2.8-0.5-4.2c0.2-1.4,0.5-2.8,1.1-4.1c0.2-0.4,0.5-0.8,1-0.9c1.5-0.5,3.4-0.5,6-0.3
			c2.4,0,4.7,1.2,6.1,3.1l1.7,2c0.6,0.6,1.3,1.1,2.1,1.3l2,0.4c0,0-0.2,0.4-0.4,0.7C226.8,321.7,226.7,322,226.6,322.2z"/>
		<polygon class="st31" points="143.5,362.5 145.4,325.4 127.3,325.4 129.2,362.5 		"/>
		<polygon class="st32" points="130.8,360.7 129.2,327.2 143.6,327.2 141.9,360.7 		"/>
		<polygon class="st33" points="129.7,335.4 130.8,360.7 141.9,360.7 143,335.4 		"/>
		<g class="st34">
			<path class="st1" d="M132,357.1h3l-1.8-26.4c-0.4-3.2-3.4-3.4-2.9,0.3L132,357.1z"/>
		</g>
		<rect x="85.3" y="367.5" class="st35" width="84" height="5.3"/>
		<rect x="86.1" y="362.3" class="st36" width="76.1" height="4.2"/>
		<rect x="82.1" y="365.5" class="st37" width="84" height="2"/>
		<rect x="87.6" y="363.9" class="st38" width="72.9" height="0.4"/>
		<rect x="87.6" y="364.9" class="st38" width="72.9" height="0.4"/>
		<rect x="87.6" y="362.9" class="st38" width="72.9" height="0.4"/>
		<rect x="464.3" y="363.2" class="st39" width="34.7" height="8.6"/>
		<rect x="488" y="363.2" class="st40" width="10.9" height="8.6"/>
		<rect x="462.2" y="363.2" class="st40" width="34.7" height="1"/>
		<rect x="462.2" y="370.8" class="st40" width="34.7" height="1"/>
		<rect x="489" y="363.2" class="st41" width="45.2" height="8.6"/>
		<rect x="493.8" y="365.2" class="st40" width="24.2" height="4.6"/>
		<rect x="495.1" y="365.4" class="st42" width="21.6" height="4.1"/>
		<ellipse class="st40" cx="527.9" cy="367.5" rx="2.8" ry="2.3"/>
		<rect x="466.4" y="364.8" class="st40" width="19.8" height="0.9"/>
		<rect x="466.4" y="368.1" class="st40" width="19.8" height="0.9"/>
		<rect x="466.4" y="369.4" class="st40" width="19.8" height="0.9"/>
		<rect x="472.6" y="366.7" class="st40" width="12.3" height="0.9"/>
		<rect x="466.4" y="366.7" class="st40" width="5.2" height="0.9"/>
		<rect x="457.8" y="354.8" class="st39" width="34.7" height="8.6"/>
		<rect x="481.5" y="354.8" class="st40" width="10.9" height="8.6"/>
		<rect x="455.6" y="354.8" class="st40" width="34.7" height="1"/>
		<rect x="455.6" y="362.4" class="st40" width="34.7" height="1"/>
		<rect x="482.4" y="354.8" class="st43" width="45.2" height="8.6"/>
		<rect x="487.3" y="356.8" class="st40" width="24.2" height="4.6"/>
		<rect x="488.6" y="357" class="st42" width="21.6" height="4.1"/>
		<ellipse class="st40" cx="521.4" cy="359.1" rx="2.8" ry="2.3"/>
		<rect x="459.8" y="356.4" class="st40" width="19.8" height="0.9"/>
		<rect x="459.8" y="359.7" class="st40" width="19.8" height="0.9"/>
		<rect x="459.8" y="361" class="st40" width="19.8" height="0.9"/>
		<rect x="466" y="358.3" class="st40" width="12.3" height="0.9"/>
		<rect x="459.8" y="358.3" class="st40" width="5.2" height="0.9"/>
		<rect x="464.3" y="346.4" class="st39" width="34.7" height="8.6"/>
		<rect x="488" y="346.4" class="st40" width="10.9" height="8.6"/>
		<rect x="462.2" y="346.4" class="st40" width="34.7" height="1"/>
		<rect x="462.2" y="354" class="st40" width="34.7" height="1"/>
		<rect x="489" y="346.4" class="st44" width="45.2" height="8.6"/>
		<rect x="493.8" y="348.4" class="st40" width="24.2" height="4.6"/>
		<rect x="495.1" y="348.6" class="st42" width="21.6" height="4.1"/>
		<ellipse class="st40" cx="527.9" cy="350.7" rx="2.8" ry="2.3"/>
		<rect x="466.4" y="348" class="st40" width="19.8" height="0.9"/>
		<rect x="466.4" y="351.3" class="st40" width="19.8" height="0.9"/>
		<rect x="466.4" y="352.6" class="st40" width="19.8" height="0.9"/>
		<rect x="472.6" y="349.9" class="st40" width="12.3" height="0.9"/>
		<rect x="466.4" y="349.9" class="st40" width="5.2" height="0.9"/>
		<polygon class="st31" points="537.2,371.6 539.1,343.1 521,343.1 522.9,371.6 		"/>
		<polygon class="st32" points="524.6,369.8 522.9,344.8 537.3,344.8 535.6,369.8 		"/>
		<polygon class="st33" points="523.4,353 524.6,369.8 535.6,369.8 536.7,353 		"/>
		<g class="st34">
			<path class="st1" d="M525.7,366.2h3l-1.8-17.9c-0.4-3.2-3.4-3.4-2.9,0.3L525.7,366.2z"/>
		</g>
		<path class="st45" d="M171.2,342.6c0.8,6.3,5,11.8,10.9,14.1c0,0,0.1,0,0.1-0.1c0,0,0-0.1,0-0.1c-5.8-2.7-10-7.5-10.8-13.9
			C171.4,342.5,171.2,342.5,171.2,342.6L171.2,342.6L171.2,342.6z"/>
		<path class="st45" d="M181.7,333.1c3.4,7.7,1.8,16.7-3.9,22.9c0,0,0,0.1,0,0.1s0.1,0,0.1,0c5.9-6.2,7.5-15.3,3.9-23.1
			C181.7,332.9,181.6,333,181.7,333.1L181.7,333.1L181.7,333.1z"/>
		<path class="st45" d="M198.3,336.6c3.1,3.9,1.4,8.5-0.6,12.5c-1.7,3.5-5.3,5.2-8.7,6.7c-0.1,0-0.1,0.1,0,0.2
			c0,0.1,0.1,0.1,0.1,0.1c4.4-1.6,7.7-4,9.5-8.4c1.6-3.9,2.7-7.7-0.2-11.2C198.4,336.4,198.2,336.5,198.3,336.6L198.3,336.6
			L198.3,336.6z"/>
		<path class="st45" d="M196.5,349.2c2.9,0.5,5.9-0.7,7.7-3.1c0-0.1,0-0.1-0.1-0.1c0,0-0.1,0-0.1,0c-1.9,2.2-4.6,3.3-7.5,3.1
			C196.5,349.1,196.4,349.1,196.5,349.2C196.5,349.2,196.5,349.2,196.5,349.2L196.5,349.2L196.5,349.2z"/>
		<path class="st45" d="M188.5,334.4c-0.5,4.3-1.6,11.6-5.9,13.7c0,0-0.1,0.1,0,0.1c0,0,0.1,0.1,0.1,0c4.5-1.7,5.6-9.8,6-13.8
			C188.6,334.3,188.5,334.3,188.5,334.4L188.5,334.4L188.5,334.4z"/>
		<path class="st45" d="M163.4,340.4c0.7,4.9,5,8.6,9.9,8.4c0,0,0.1,0,0.1-0.1s0-0.1-0.1-0.1c-4.9,0-9-3.5-9.8-8.3
			C163.5,340.2,163.4,340.3,163.4,340.4L163.4,340.4L163.4,340.4z"/>
		<path class="st5" d="M203.5,351.9h-35.9c0,0-2.9,7-2.9,8.8s4,5.3,8.2,5.3h25.3c4.3,0,8.2-3.6,8.2-5.3S203.5,351.9,203.5,351.9z"/>
		<polygon class="st29" points="199.7,367.7 171.4,367.7 172.4,365.9 198.7,365.9 		"/>
		<path class="st29" d="M175.6,360.6c0-1.7,2.9-8.8,2.9-8.8h-10.9c0,0-2.9,7-2.9,8.8s4,5.3,8.2,5.3h10.9
			C179.6,365.9,175.6,362.4,175.6,360.6z"/>
		<polygon class="st46" points="172.4,365.9 171.4,367.7 182.3,367.7 183.3,365.9 		"/>
		<path class="st47" d="M184.2,338.8c0.8-0.6,4-1.8,6.2-0.4c2.6,1.5,4.2,4.3,4.5,7.3c-1.9,0.4-3.9,0.6-5.9,0.6
			C182.2,345.7,182.7,340,184.2,338.8z"/>
		<path class="st47" d="M200.6,335.2c0.5-0.5,2.7-1.4,4.3-0.5c1.8,1,3.1,2.8,3.3,4.9c-1.3,0.4-2.7,0.6-4.1,0.6
			C199.4,340,199.6,336.1,200.6,335.2z"/>
		<path class="st47" d="M199.1,332.9c-0.9-0.4-2.1-0.4-2.9,0.2c-1.1,0.9-1.7,2.3-1.6,3.7c0.9,0.1,1.9,0,2.8-0.1
			C200.5,336,199.9,333.4,199.1,332.9z"/>
		<path class="st47" d="M167.1,336.3c-0.7-0.3-1.5-0.5-2.3-0.3c-1.7,0.3-2.8,1.9-2.5,3.6c0,0.2,0.1,0.4,0.1,0.5
			c0.5,0.9,1.4,1.4,2.4,1.4c1.8,0.2,4-1.2,5.9-1.8C170,338.1,168.7,337,167.1,336.3z"/>
		<path class="st47" d="M171.9,341c-0.8,0.4-1.3,1.2-1.3,2c0.2,1.1,1.2,1.8,2.2,1.8c1.1,0,4.8-1,6.4-0.2
			C176.5,339.4,173.6,339.9,171.9,341z"/>
		<path class="st47" d="M203.6,342.8c-0.7,0.3-1.2,0.8-1.3,1.5c-0.1,0.9,0.5,1.7,1.3,1.9c0.8,0.2,3.7-0.1,4.7,0.8
			C208.4,343,205.1,342.2,203.6,342.8z"/>
		<path class="st47" d="M183.6,348c0.9-0.2,4.1-0.5,5.4,1.2c2.4,3.2,0.3,5.9,0.1,6.9c-1.7-0.3-3.4-0.7-5-1.4
			C178.8,352.2,180.7,348.4,183.6,348z"/>
		<path class="st47" d="M171.9,348.6c-0.8-0.3-3.4-0.2-4.5,1.5c-1.3,2.1-1.7,4.6-0.9,6.9c1.5-0.2,3-0.6,4.4-1.3
			C175.5,353.3,173.3,349,171.9,348.6z"/>
		<path class="st47" d="M180.5,332.7c0.8,0.1,1.5,0.7,1.9,1.4c0.3,1-0.2,2-1.1,2.4c-0.8,0.4-4.2,0.8-5.2,2.1
			C176.2,332.8,178.6,332.3,180.5,332.7z"/>
		<g class="st48">
			<path class="st49" d="M162.4,338.4c2.8-0.2,5.7,0.3,8.3,1.4c0,0,0.1,0,0-0.1C168.1,338.6,165.3,338.1,162.4,338.4
				C162.4,338.4,162.4,338.4,162.4,338.4L162.4,338.4L162.4,338.4z"/>
			<path class="st49" d="M163.4,337.8c2.1-0.7,4.4-0.4,6.4,0.6c0,0,0,0,0,0c0,0,0,0,0,0C167.9,337.2,165.5,336.9,163.4,337.8
				C163.4,337.7,163.3,337.7,163.4,337.8C163.4,337.7,163.4,337.8,163.4,337.8L163.4,337.8L163.4,337.8z"/>
			<path class="st49" d="M162.9,338.8c0.9,2,4.2,1.7,5.9,1.3c0,0,0,0,0-0.1s0,0-0.1,0C167.1,340.3,163.9,340.7,162.9,338.8
				C163,338.7,162.9,338.7,162.9,338.8L162.9,338.8L162.9,338.8z"/>
			<path class="st49" d="M171.4,341.8c2.7-1.2,5.9-0.1,7.3,2.5c0,0,0,0,0,0c0,0,0,0,0,0l0,0C177.3,341.6,174.1,340.5,171.4,341.8
				C171.3,341.7,171.3,341.7,171.4,341.8C171.4,341.8,171.4,341.8,171.4,341.8L171.4,341.8L171.4,341.8z"/>
			<path class="st49" d="M171.7,342.1c2.3,0.3,4.5,0.9,6.6,1.8c0,0,0,0,0,0C176.3,342.9,174,342.3,171.7,342.1
				C171.7,342.1,171.7,342.1,171.7,342.1L171.7,342.1L171.7,342.1z"/>
			<path class="st49" d="M171,342.8c2.1,1.2,4.6,1.8,7,1.6c0.1,0,0.1-0.1,0-0.1C175.6,344.4,173.2,343.9,171,342.8
				C171,342.7,171,342.7,171,342.8C171,342.7,171,342.7,171,342.8L171,342.8L171,342.8z"/>
			<path class="st49" d="M176.3,338.4c1.2-2,3-3.6,5-4.7c0,0,0,0,0-0.1c0,0,0,0-0.1,0C179.1,334.6,177.3,336.3,176.3,338.4
				C176.2,338.4,176.2,338.4,176.3,338.4C176.2,338.4,176.2,338.4,176.3,338.4L176.3,338.4L176.3,338.4z"/>
			<path class="st49" d="M178.4,337.4c1.7-0.6,3.1-1.9,3.9-3.5c0,0,0,0,0-0.1c0,0,0,0-0.1,0C181.4,335.4,180,336.6,178.4,337.4
				C178.4,337.4,178.4,337.4,178.4,337.4L178.4,337.4L178.4,337.4z"/>
			<path class="st49" d="M176.3,337c0.6-2.1,2.5-3.7,4.7-3.8c0,0,0,0,0-0.1c0,0,0,0,0,0C178.7,333.2,176.8,334.8,176.3,337
				C176.2,337,176.2,337,176.3,337C176.3,337,176.3,337,176.3,337L176.3,337L176.3,337z"/>
			<path class="st49" d="M195,336.9c0.9-1.5,2.2-2.7,3.7-3.5c0,0,0,0,0-0.1c0,0,0,0-0.1,0C197,334.1,195.7,335.4,195,336.9
				C194.9,336.9,194.9,336.9,195,336.9C194.9,337,194.9,336.9,195,336.9L195,336.9z"/>
			<path class="st49" d="M196.5,336.2c1.2-0.5,2.3-1.4,2.9-2.6c0,0,0,0,0-0.1c0,0,0,0-0.1,0C198.7,334.7,197.7,335.6,196.5,336.2
				C196.5,336.1,196.5,336.2,196.5,336.2L196.5,336.2L196.5,336.2z"/>
			<path class="st49" d="M195,335.9c0.4-1.6,1.8-2.7,3.5-2.8c0,0,0,0,0-0.1c0,0,0,0,0,0C196.8,333,195.3,334.2,195,335.9
				C194.9,335.9,194.9,335.9,195,335.9C195,335.9,195,335.9,195,335.9L195,335.9L195,335.9z"/>
			<path class="st49" d="M166.8,356.5c1.5-2.8,3.5-5.4,6-7.4c0,0,0,0,0-0.1c0,0,0,0,0,0C170.2,350.9,168.1,353.5,166.8,356.5
				C166.7,356.5,166.8,356.5,166.8,356.5L166.8,356.5L166.8,356.5z"/>
			<path class="st49" d="M166.5,356.6c-0.6-3.7,1.9-7.2,5.6-7.9c0,0,0,0,0-0.1c0,0,0,0,0,0C168.3,349.3,165.8,352.8,166.5,356.6
				C166.4,356.6,166.5,356.6,166.5,356.6L166.5,356.6L166.5,356.6z"/>
			<path class="st49" d="M167.1,356.4c3.4-0.3,6-3,6.2-6.4c0,0-0.1,0-0.1,0C173,353.3,170.4,356,167.1,356.4
				C167.1,356.3,167.1,356.4,167.1,356.4L167.1,356.4L167.1,356.4z"/>
			<path class="st49" d="M182.5,348.7c2.8,1.3,4.9,3.8,5.6,6.8c0,0,0,0,0,0c0,0,0,0,0,0C187.5,352.4,185.4,349.9,182.5,348.7
				C182.5,348.6,182.4,348.7,182.5,348.7L182.5,348.7L182.5,348.7z"/>
			<path class="st49" d="M182.8,348.8c3.1,0.5,6.6,1.5,6.4,5.3c0,0,0,0,0,0c0,0,0,0,0,0C189.7,350.3,186,349.2,182.8,348.8
				C182.8,348.8,182.8,348.8,182.8,348.8L182.8,348.8L182.8,348.8z"/>
			<path class="st49" d="M182.7,349.4c-0.6,2.9,2.3,4.5,4.6,5.4c0,0,0,0,0,0c0,0,0,0,0,0C185.1,353.7,182.1,352.3,182.7,349.4
				C182.8,349.3,182.7,349.3,182.7,349.4L182.7,349.4L182.7,349.4z"/>
			<path class="st49" d="M184,339.9c0.1,4.2,6.2,5.5,9.5,5.5c0,0,0,0,0,0c0,0,0,0,0,0C190.2,345.3,184.2,344.1,184,339.9
				C184,339.9,184,339.9,184,339.9C184,339.9,184,339.9,184,339.9L184,339.9z"/>
			<path class="st49" d="M184.8,340.4c2.9,2.1,6,3.7,9.3,5c0,0,0.1-0.1,0-0.1C190.9,344.1,187.7,342.4,184.8,340.4
				C184.8,340.4,184.8,340.4,184.8,340.4L184.8,340.4L184.8,340.4z"/>
			<path class="st49" d="M184.9,339.8c3.7,0.7,7,2.6,9.4,5.5c0,0,0.1,0,0.1-0.1C192,342.3,188.6,340.3,184.9,339.8
				C184.9,339.7,184.9,339.8,184.9,339.8L184.9,339.8L184.9,339.8z"/>
			<path class="st49" d="M185.3,338.8c4.7-0.3,8.7,1.5,9.2,6.6c0,0,0,0,0,0c0,0,0,0,0,0c0-2-0.9-3.9-2.5-5.2
				C190.1,338.6,187.7,338.5,185.3,338.8C185.2,338.7,185.2,338.8,185.3,338.8L185.3,338.8L185.3,338.8z"/>
			<path class="st49" d="M200.1,336.2c0.3,3,4.8,3.6,7.2,3.4c0,0,0,0,0,0c0,0,0,0,0,0C204.9,339.6,200.6,339.2,200.1,336.2
				C200.2,336.2,200.1,336.2,200.1,336.2C200.1,336.2,200.1,336.2,200.1,336.2L200.1,336.2L200.1,336.2z"/>
			<path class="st49" d="M200.7,336.5c2.2,1.3,4.6,2.3,7.1,3c0,0,0,0,0,0c0,0,0,0,0,0C205.4,338.8,203,337.8,200.7,336.5
				C200.8,336.5,200.7,336.5,200.7,336.5C200.7,336.5,200.7,336.5,200.7,336.5L200.7,336.5L200.7,336.5z"/>
			<path class="st49" d="M200.8,336.1c2.7,0.3,5.2,1.5,7.1,3.4c0,0,0.1,0,0.1,0c0,0,0,0,0-0.1C206,337.4,203.5,336.2,200.8,336.1
				C200.7,336,200.7,336.1,200.8,336.1L200.8,336.1L200.8,336.1z"/>
			<path class="st49" d="M201,335.3c3.3-0.4,6.3,0.5,7,4.2c0,0,0,0,0,0c0,0,0,0,0,0c-0.1-1.4-0.9-2.7-2.1-3.5
				C204.5,335.1,202.7,334.8,201,335.3C201,335.3,201,335.3,201,335.3C201,335.3,201,335.3,201,335.3L201,335.3L201,335.3z"/>
			<path class="st49" d="M202.4,344.5c0.3,0.5,0.8,0.9,1.5,1.1c0.6,0.2,1.3,0.1,1.9,0.2c0.9,0.2,1.8,0.5,2.6,1c0,0,0,0,0,0
				c0,0,0,0,0,0c-0.9-0.6-1.9-1-3-1.1C204.2,345.6,203,345.6,202.4,344.5C202.4,344.5,202.4,344.5,202.4,344.5
				C202.4,344.5,202.3,344.5,202.4,344.5L202.4,344.5L202.4,344.5z"/>
			<path class="st49" d="M202.8,344c2.1,0,4.1,1,5.3,2.7c0,0,0,0,0,0c0,0,0,0,0,0C206.9,344.9,204.9,343.9,202.8,344
				C202.7,343.9,202.7,343.9,202.8,344C202.7,344,202.7,344,202.8,344L202.8,344L202.8,344z"/>
			<path class="st49" d="M203.4,343.6c1.9-0.7,3.9,0.3,4.6,2.2c0,0.1,0.1,0.2,0.1,0.4c0,0,0,0,0,0c0,0,0,0,0,0
				c-0.4-1.9-2.3-3.1-4.3-2.7C203.7,343.5,203.5,343.5,203.4,343.6C203.3,343.6,203.3,343.6,203.4,343.6L203.4,343.6L203.4,343.6z"
				/>
		</g>
		<path class="st49" d="M163.9,342.2c-0.7-0.6-3.7-1.8-5.6-0.4c-2.5,1.8-4.1,4.5-4.4,7.5c1.9,0.4,3.8,0.4,5.7,0.3
			C165.8,349.1,165.3,343.4,163.9,342.2z"/>
		<path class="st49" d="M197.9,335.8c-0.6-0.4-3-1.1-4.4,0.1c-1.7,1.5-2.7,3.7-2.6,5.9c1.4,0.2,2.8,0.2,4.2,0
			C199.8,341,199,336.6,197.9,335.8z"/>
		<path class="st49" d="M183.1,329.1c-0.7,0.3-1.2,0.8-1.3,1.5c-0.1,0.9,0.5,1.7,1.3,1.9c0.8,0.2,3.7-0.1,4.7,0.8
			C187.9,329.3,184.6,328.4,183.1,329.1z"/>
		<path class="st49" d="M196.8,348.3c0.7-0.4,3.5-1.3,5.1-0.1c2.9,2.1,1.7,4.8,1.7,5.7c-1.6,0.2-3.2,0.1-4.7-0.1
			C193.6,352.8,194.4,349.3,196.8,348.3z"/>
		<path class="st47" d="M154.3,349.1c1.2-0.8,2.4-1.7,3.3-2.7c1.6-1.5,3.4-2.8,5.5-3.5c0.1,0,0-0.1,0-0.1
			C159.3,343.9,157.5,347.2,154.3,349.1C154.2,349,154.2,349.1,154.3,349.1C154.2,349.1,154.2,349.1,154.3,349.1L154.3,349.1
			L154.3,349.1L154.3,349.1z"/>
		<path class="st47" d="M154.3,348.7c0.9-1.5,1.8-2.9,2.9-4.2c1.6-1.8,3.5-2.2,5.8-2.1c0.1,0,0.1-0.1,0-0.1
			C158.2,341.5,156.3,345.2,154.3,348.7C154.2,348.7,154.2,348.7,154.3,348.7C154.2,348.7,154.3,348.7,154.3,348.7L154.3,348.7
			L154.3,348.7z"/>
		<path class="st47" d="M155.4,349.3c3.5-0.2,9.5-0.9,8.5-5.9c0,0-0.1-0.1-0.1,0c0,0,0,0,0,0.1c0,1.6-0.2,3.2-1.6,4.2
			C160.5,348.9,157.5,349.1,155.4,349.3C155.4,349.2,155.4,349.3,155.4,349.3L155.4,349.3L155.4,349.3z"/>
		<path class="st47" d="M154.6,349.2c1.8-0.6,3.8-1,5.5-1.7c1.7-0.8,2.5-2.3,3.4-3.9c0,0,0-0.1,0-0.1s-0.1,0-0.1,0
			c-1.2,2-2.1,3.4-4.3,4.2C157.6,348.2,156.1,348.6,154.6,349.2C154.6,349.1,154.6,349.2,154.6,349.2L154.6,349.2L154.6,349.2z"/>
		<path class="st47" d="M182.9,330.2c1.7,0.4,3.3,1.4,4.6,2.6c0,0,0,0,0,0s0,0,0,0C186.3,331.5,184.7,330.5,182.9,330.2
			C182.9,330.2,182.9,330.2,182.9,330.2C182.9,330.2,182.9,330.2,182.9,330.2L182.9,330.2z"/>
		<path class="st47" d="M182.2,330.7c0.2,0.5,0.6,0.8,1.1,0.9c1.1,0.4,2.2,0.7,3.3,1c0,0,0,0,0,0c0,0,0,0,0,0
			c-0.7-0.3-1.4-0.5-2.1-0.7S182.6,331.5,182.2,330.7C182.3,330.6,182.2,330.7,182.2,330.7L182.2,330.7L182.2,330.7z"/>
		<path class="st47" d="M182.9,329.9c2-0.3,4,0.8,4.7,2.7c0,0,0.1,0,0.1,0C187.1,330.6,185,329.4,182.9,329.9
			C182.8,329.8,182.9,329.9,182.9,329.9L182.9,329.9L182.9,329.9z"/>
		<path class="st47" d="M191.5,341.7c2.1-1.4,4.2-3,6.2-4.6c0,0,0,0,0,0c0,0,0,0,0,0C195.5,338.5,193.6,340.2,191.5,341.7
			C191.4,341.7,191.4,341.8,191.5,341.7L191.5,341.7L191.5,341.7z"/>
		<path class="st47" d="M192,341.7c2.4-0.4,5-1.8,6-4.1c0,0,0,0,0,0c0,0,0,0,0,0C196.7,339.7,194.5,341.3,192,341.7
			C192,341.6,192,341.7,192,341.7L192,341.7L192,341.7z"/>
		<path class="st47" d="M191.4,341.4c1.2-2.3,3.2-4,5.7-4.7c0,0,0,0,0,0c0,0,0,0,0,0C194.5,337.3,192.4,339.1,191.4,341.4
			C191.3,341.4,191.3,341.4,191.4,341.4C191.3,341.5,191.3,341.4,191.4,341.4L191.4,341.4L191.4,341.4z"/>
		<path class="st47" d="M192.5,341.7c1.6,0.1,3.3-0.3,4.7-1.2c1-0.5,1.4-1.7,1-2.7c0,0-0.1,0-0.1,0
			C199.1,341,194.5,341.6,192.5,341.7C192.5,341.7,192.5,341.7,192.5,341.7C192.5,341.7,192.5,341.7,192.5,341.7L192.5,341.7z"/>
		<path class="st47" d="M191.2,341c0.7-2.8,2.5-5,5.6-4.8c0.1,0,0.1-0.1,0-0.1C193.7,335.7,191.7,338.2,191.2,341
			C191.1,341,191.1,341,191.2,341C191.1,341,191.2,341,191.2,341L191.2,341L191.2,341z"/>
		<path class="st47" d="M197.6,348.6c2.1,1.4,4,3.1,5.6,5c0,0,0.1,0,0,0C201.7,351.6,199.8,349.9,197.6,348.6
			C197.6,348.6,197.6,348.6,197.6,348.6C197.6,348.6,197.6,348.6,197.6,348.6L197.6,348.6z"/>
		<path class="st47" d="M197.9,348.4c2.6,0.4,4.8,2.3,5.5,4.9c0,0,0,0,0,0c0,0,0,0,0,0l0,0C202.8,350.7,200.6,348.7,197.9,348.4
			C197.8,348.4,197.8,348.4,197.9,348.4L197.9,348.4z"/>
		<path class="st47" d="M198.4,348.3c1.4-0.2,2.7,0.2,3.8,1.1c0.8,0.9,1.3,2,1.2,3.2c0,0,0,0,0,0c0,0,0,0,0,0
			c0.1-1.2-0.3-2.4-1.2-3.3C201.2,348.4,199.8,348,198.4,348.3C198.4,348.2,198.4,348.3,198.4,348.3L198.4,348.3L198.4,348.3z"/>
		<path class="st47" d="M197.4,348.6c-1.6,2.3,4.2,4.7,5.6,5c0,0,0,0,0,0c0,0,0,0,0,0C201.7,353.2,196,350.9,197.4,348.6
			C197.5,348.6,197.4,348.6,197.4,348.6L197.4,348.6z"/>
		<path class="st47" d="M196.8,348.9c-0.8,0.6-1.1,1.7-0.5,2.6c0.1,0.1,0.2,0.2,0.3,0.3c1.2,1.4,3.6,1.9,5.4,1.9c0,0,0,0,0,0
			c0,0,0,0,0,0c-1.1,0-2.2-0.3-3.3-0.6C197.3,352.4,194.5,350.4,196.8,348.9C196.8,348.9,196.8,348.9,196.8,348.9
			C196.8,348.9,196.8,348.8,196.8,348.9L196.8,348.9L196.8,348.9z"/>
		<rect x="103.8" y="378.9" class="st50" width="10" height="197.2"/>
		<rect x="516.4" y="378.9" class="st50" width="10" height="197.2"/>
		<rect x="83.5" y="373.2" class="st50" width="463.3" height="8.7"/>
		<rect x="78.6" y="371.4" class="st6" width="473" height="3.9"/>
		<rect x="160.8" y="369.4" class="st37" width="100" height="2"/>
		<path class="st36" d="M256.6,366.8c0,0-39.5-2.3-45.3,1.7c-8-3.6-46.2-1.7-46.2-1.7v2.6h91.5V366.8z"/>
		<path class="st38" d="M256.6,368.6c-3.8-0.3-7.6-0.5-11.4-0.7s-7.6-0.4-11.4-0.5s-7.6-0.1-11.4,0c-1.9,0.1-3.8,0.2-5.7,0.4
			c-0.9,0.1-1.9,0.3-2.8,0.5c-0.9,0.2-1.8,0.5-2.6,1l-0.1,0.1l-0.1,0c-0.9-0.4-1.8-0.6-2.7-0.8c-0.9-0.2-1.9-0.3-2.8-0.4
			c-1.9-0.2-3.8-0.3-5.8-0.4c-3.9-0.2-7.7-0.1-11.6-0.1s-7.7,0.2-11.6,0.4c-3.9,0.2-7.7,0.4-11.6,0.7c7.7-0.7,15.4-1.2,23.2-1.4
			c3.9-0.1,7.7-0.1,11.6,0c1.9,0.1,3.9,0.2,5.8,0.4c1,0.1,1.9,0.2,2.9,0.4c1,0.2,1.9,0.4,2.8,0.8l-0.2,0c0.8-0.5,1.8-0.8,2.7-1
			c0.9-0.2,1.9-0.4,2.8-0.5c1.9-0.2,3.8-0.3,5.7-0.4c3.8-0.1,7.6-0.1,11.4,0.1C241.4,367.3,249,367.8,256.6,368.6z"/>
		<path class="st38" d="M256.6,368.6c-3.8-0.1-7.6-0.2-11.3-0.2c-3.8-0.1-7.6-0.1-11.3-0.2s-7.6,0-11.3,0.1c-1.9,0-3.8,0.1-5.7,0.2
			c-0.9,0.1-1.9,0.1-2.8,0.2c-0.9,0.1-1.8,0.2-2.7,0.5l-0.1,0l-0.1,0c-0.9-0.2-1.9-0.3-2.8-0.3c-1-0.1-1.9-0.1-2.9-0.1
			c-1.9-0.1-3.8-0.1-5.7-0.1c-3.8,0-7.7,0-11.5,0l-23,0.3l11.5-0.4l11.5-0.2c3.8-0.1,7.7-0.1,11.5-0.1c1.9,0,3.8,0,5.7,0.1
			c1,0,1.9,0.1,2.9,0.1c1,0,1.9,0.1,2.9,0.3l-0.1,0c0.9-0.3,1.9-0.4,2.8-0.5c0.9-0.1,1.9-0.2,2.8-0.2c1.9-0.1,3.8-0.2,5.7-0.2
			c3.8-0.1,7.6,0,11.4,0s7.6,0.1,11.4,0.2C249,368.2,252.8,368.4,256.6,368.6z"/>
		<rect x="304.1" y="369.4" class="st37" width="100" height="2"/>
		<path class="st36" d="M399.8,366.8c0,0-39.5-2.3-45.3,1.7c-8-3.6-46.2-1.7-46.2-1.7v2.6h91.5L399.8,366.8L399.8,366.8z"/>
		<path class="st38" d="M399.8,368.6c-3.8-0.3-7.6-0.5-11.4-0.7s-7.6-0.4-11.4-0.5s-7.6-0.1-11.4,0c-1.9,0.1-3.8,0.2-5.7,0.4
			c-0.9,0.1-1.9,0.3-2.8,0.5c-0.9,0.2-1.8,0.5-2.6,1l-0.1,0.1l-0.1,0c-0.9-0.4-1.8-0.6-2.7-0.8c-0.9-0.2-1.9-0.3-2.9-0.4
			c-1.9-0.2-3.8-0.3-5.8-0.4c-3.9-0.2-7.7-0.1-11.6-0.1s-7.7,0.2-11.6,0.4c-3.9,0.2-7.7,0.4-11.6,0.7c7.7-0.7,15.4-1.2,23.2-1.4
			c3.9-0.1,7.7-0.1,11.6,0c1.9,0.1,3.9,0.2,5.8,0.4c1,0.1,1.9,0.2,2.9,0.4c1,0.2,1.9,0.4,2.8,0.8l-0.2,0c0.8-0.5,1.8-0.8,2.7-1
			c0.9-0.2,1.9-0.4,2.8-0.5c1.9-0.2,3.8-0.3,5.7-0.4c3.8-0.1,7.6-0.1,11.4,0.1C384.7,367.3,392.3,367.8,399.8,368.6z"/>
		<path class="st38" d="M399.8,368.6c-3.8-0.1-7.6-0.2-11.3-0.2c-3.8-0.1-7.6-0.1-11.3-0.2s-7.6,0-11.3,0.1c-1.9,0-3.8,0.1-5.7,0.2
			c-0.9,0.1-1.9,0.1-2.8,0.2c-0.9,0.1-1.8,0.2-2.7,0.5l-0.1,0l-0.1,0c-0.9-0.2-1.9-0.3-2.8-0.3c-1-0.1-1.9-0.1-2.9-0.1
			c-1.9-0.1-3.8-0.1-5.7-0.1c-3.8,0-7.7,0-11.5,0l-23,0.3l11.5-0.4l11.5-0.2c3.8-0.1,7.7-0.1,11.5-0.1c1.9,0,3.8,0,5.7,0.1
			c1,0,1.9,0.1,2.9,0.1c1,0,1.9,0.1,2.9,0.3l-0.1,0c0.9-0.3,1.9-0.4,2.8-0.5c0.9-0.1,1.9-0.2,2.8-0.2c1.9-0.1,3.8-0.2,5.7-0.2
			c3.8-0.1,7.6,0,11.4,0s7.6,0.1,11.4,0.2C392.3,368.2,396.1,368.4,399.8,368.6z"/>
		<polygon class="st11" points="452.2,540.3 453.9,550.3 461.5,550.3 464.7,549.7 462.3,534.2 		"/>
		<path id="_Path_16" class="st51" d="M463.4,537.4c-0.7,0.3-1.5,0.6-2.3,0.9c-3.2,1-6.5,1.7-9.9,2.2c-9.1-14.9-32.7-87.7-32.7-87.7
			c-2.2-9.2,11.6,2.6,17.4,2.2c1.8-0.1,3.6,0.1,5.3,0.8c5.5,2.3,13.5,17.9,13.5,17.9s2.5,5.4,5,16.5S463.4,537.4,463.4,537.4z"/>
		<path id="_Path_17" class="st52" d="M463.4,537.4c-0.7,0.3-1.5,0.6-2.3,0.9c-0.6-4.4-1.4-11.5-2.7-22.7
			c-2.8-25.2-18.8-54.1-22.5-60.5c1.8-0.1,3.6,0.1,5.3,0.8c5.5,2.3,13.5,17.9,13.5,17.9s2.5,5.4,5,16.5S463.4,537.4,463.4,537.4z"/>
		<path id="_Path_18" class="st51" d="M453.4,548.8c2,0,3.9-0.3,5.8-0.9c1.8-0.7,3.5-1.7,4.9-3.1c0,0,8.1,4.9,8.1,13.8
			c0,0.5-0.3,0.9-0.7,1c0,0-19.4,8.6-26,11c-3.5,1.1-7.1,2-10.7,2.8c-0.5,0.1-0.9-0.1-1.1-0.5c-0.4-0.9-0.5-2.5,1.5-4
			c3-2.3,6.3-4.2,8.6-6.1s4.6-7.2,6.5-8.7C451.6,552.7,452.7,550.8,453.4,548.8z"/>
		<g>
			<defs>
				<path id="SVGID_1_" d="M440.7,444.9l29.4,7l34.8,0.2l36-9.1l64.4,120l-8.8,36.2c0,0-203.4,14.6-208.9,10s-30.9-29.3-34.5-38.9
					S440.7,444.9,440.7,444.9z"/>
			</defs>
			<clipPath id="SVGID_2_">
				<use xlink:href="#SVGID_1_"  style="overflow:visible;"/>
			</clipPath>
			<g class="st53">
				<path class="st7" d="M493.5,592.8l2.8-151.2h-10.1l2.8,151.2c0,1.5,1,2.8,2.2,2.8S493.4,594.4,493.5,592.8z"/>
				<path class="st7" d="M401,575.2l58.4-139.5l-9.4-3.7l-53.2,141.6c-0.5,1.4-0.1,3,1,3.4S400.4,576.6,401,575.2z"/>
				<path class="st7" d="M581.5,575.2l-58.4-139.5l9.4-3.7l53.2,141.6c0.5,1.4,0.1,3-1,3.4S582.1,576.6,581.5,575.2z"/>
				<g class="st8">
					<path d="M448.5,436.3l6,2.4l-54.9,138.2c0.7-0.4,1.2-0.9,1.5-1.7l58.4-139.5l-9.4-3.7L448.5,436.3z"/>
					<path d="M486.3,445.6h7.5l-2.8,150c0.1,0,0.2,0,0.3,0c1.2,0,2.2-1.2,2.2-2.8l2.8-151.2h-10.1L486.3,445.6z"/>
					<path d="M585.6,573.5l-53.2-141.6l-9.4,3.7l1.1,2.6l5.8-2.3l52.9,140.8c0.5,0.4,1.2,0.4,1.8,0.2
						C585.7,576.5,586.2,575,585.6,573.5z"/>
				</g>
			</g>
		</g>
		<path id="_Path_19" class="st1" d="M420.4,364.9H328l-18.3-57.5c-0.8-2.4,0.6-4.9,2.9-5.6c0.4-0.1,0.9-0.2,1.4-0.2h83
			c2,0,3.7,1.3,4.3,3.1L420.4,364.9z"/>
		<path id="_Path_20" class="st54" d="M418.9,364.9h-88.5l-18.1-56.5c-0.7-2.3,0.6-4.8,2.9-5.5c0.4-0.1,0.9-0.2,1.4-0.2h79.2
			c1.9,0,3.6,1.2,4.2,3.1L418.9,364.9z"/>
		<path id="_Path_21" class="st55" d="M363.4,313.4h-40.3c-0.6,0-1.1-0.5-1.1-1.1v0l0,0c0-0.6,0.5-1.1,1.1-1.1h40.3
			c0.6,0,1.1,0.5,1.1,1.1v0l0,0C364.5,312.9,364,313.3,363.4,313.4z"/>
		<path id="_Path_22" class="st55" d="M369.6,318.4h-45c-0.6,0-1.1-0.5-1.1-1.1v0l0,0c0-0.6,0.5-1.1,1.1-1.1h0h45
			c0.6,0,1.1,0.5,1.1,1.1v0l0,0C370.7,317.9,370.2,318.4,369.6,318.4L369.6,318.4z"/>
		<path id="_Path_23" class="st55" d="M365.5,323.4h-39.2c-0.6,0-1.1-0.5-1.1-1.1v0l0,0c0-0.6,0.5-1.1,1.1-1.1h0h39.2
			c0.6,0,1.1,0.5,1.1,1.1v0l0,0C366.6,322.9,366.1,323.4,365.5,323.4z"/>
		<path id="_Path_24" class="st55" d="M358.9,328.4h-31c-0.6,0-1.1-0.5-1.1-1.1v0l0,0c0-0.6,0.5-1.1,1.1-1.1h0h31
			c0.6,0,1.1,0.5,1.1,1.1v0l0,0C360,327.9,359.5,328.4,358.9,328.4L358.9,328.4z"/>
		<path id="_Path_25" class="st55" d="M374.5,333.5h-45c-0.6,0-1.1-0.5-1.1-1.1v0l0,0c0-0.6,0.5-1.1,1.1-1.1h0h45
			c0.6,0,1.1,0.5,1.1,1.1v0l0,0C375.6,333,375.1,333.5,374.5,333.5C374.5,333.5,374.5,333.5,374.5,333.5z"/>
		<path id="_Path_26" class="st55" d="M370.3,338.5h-39.2c-0.6,0-1.1-0.5-1.1-1.1v0l0,0c0-0.6,0.5-1.1,1.1-1.1h0h39.2
			c0.6,0,1.1,0.5,1.1,1.1v0l0,0C371.4,338,370.9,338.5,370.3,338.5L370.3,338.5z"/>
		<path id="_Path_27" class="st55" d="M379.3,348.6h-45c-0.6,0-1.1-0.5-1.1-1.1v0l0,0c0-0.6,0.5-1.1,1.1-1.1h0h45
			c0.6,0,1.1,0.5,1.1,1.1v0l0,0C380.4,348.1,379.9,348.6,379.3,348.6z"/>
		<path id="_Path_28" class="st55" d="M381,353.6h-45c-0.6,0-1.1-0.5-1.1-1.1v0l0,0c0-0.6,0.5-1.1,1.1-1.1h0h45
			c0.6,0,1.1,0.5,1.1,1.1c0,0,0,0,0,0l0,0C382.1,353.1,381.6,353.6,381,353.6L381,353.6z"/>
		<path id="_Path_29" class="st55" d="M404.9,353.6h-14.5c-1.4,0-2.6-0.9-3-2.2l-12.1-38.3c-0.5-1.6,0.4-3.4,2-3.9
			c0.3-0.1,0.6-0.1,0.9-0.1h14.5c1.4,0,2.6,0.9,3,2.2l12.1,38.3c0.5,1.6-0.4,3.4-2,3.9C405.5,353.5,405.2,353.6,404.9,353.6z"/>
		<path id="_Path_30" class="st1" d="M428.2,369.1H327.6c-1.6,0-3-1.3-3-3l0,0c0-1.6,1.3-3,3-3h100.5c1.6,0,3,1.3,3,3l0,0
			C431.1,367.8,429.8,369.1,428.2,369.1z"/>
		<g id="_Group_">
			<path id="_Compound_Path_" class="st51" d="M457.2,289.6c-0.9,0-1.7-0.5-2.2-1.3l-3.3-5.9c-0.7-1.2-0.3-2.7,0.9-3.4
				c0,0,0,0,0.1,0l9.3-4.9c1.2-0.6,2.7-0.2,3.4,1l3.2,5.8c0.7,1.2,0.2,2.7-1,3.4c0,0,0,0,0,0l-9.1,5
				C458,289.5,457.6,289.6,457.2,289.6z M463.1,274.9c-0.2,0-0.4,0.1-0.6,0.2l-9.3,4.9c-0.7,0.3-0.9,1.2-0.6,1.8c0,0,0,0,0,0l0,0
				l3.3,5.9c0.4,0.6,1.2,0.9,1.8,0.5l9.1-5c0.7-0.4,0.9-1.2,0.5-1.8l-3.2-5.8C464.1,275.2,463.6,274.9,463.1,274.9z"/>
		</g>
		<path id="_Path_31" class="st11" d="M419,350.4c-0.4,0.5-0.8,0.9-1.2,1.4c0,0-4.9-3.7-6.2-4s-4.2,0.7-5.9,0.8s-1.8-0.9-1.8-0.9
			s-6.3,2.6-7.3,2.9s-1.7-0.1-1.1-1.7c0.3-0.6,0.7-1.1,1.2-1.6l0,0c2.1-2.4,6.6-6.3,8.2-7.1c2-1,4.8-2.4,7-1.5s9.4,6.2,9.4,6.2
			C421.6,346.7,420.1,349,419,350.4z"/>
		<path id="_Path_32" class="st56" d="M420.5,345.2l-1.5,5.2c-0.4,0.5-0.8,0.9-1.2,1.4c0,0-4.9-3.7-6.2-4s-4.2,0.7-5.9,0.8
			s-1.8-0.9-1.8-0.9s-6.3,2.6-7.3,2.9s-1.7-0.1-1.1-1.7c0.3-0.6,0.7-1.1,1.2-1.6c-0.5,0.7-1.1,1.5-0.8,2.4c0.4,1.1,7.2-2.1,12.1-5
			c0.1,0,0.5-0.2,0.6,0c0,0.2-0.1,0.4-0.3,0.5c-0.8,0.9-4.9,1.2-4.1,2.5c1.2,1.8,5.4-1.5,7.7-0.8c1.8,0.7,3.6,1.7,5.2,2.9
			C417.1,349.8,418.4,345.9,420.5,345.2z"/>
		<path id="_Path_33" class="st57" d="M417.1,351.8c0,0,23.9,20.9,41.8,23S507,343,507,343s-1.9-18.1-13.1-16s-26.1,29-32.6,30.3
			s-40.2-13-40.2-13c-0.9,0.7-1.6,1.6-2.1,2.6C418.2,348.4,417.6,350.1,417.1,351.8z"/>
		<path id="_Path_34" class="st11" d="M498.5,248.7c-6.5-7.5-16.2-8.3-23.7-7.5c-9.8,1-18.2,7.7-21.2,17.1
			c-1.4,4.6-1.2,9.6,0.4,14.1c6.1,16.8,12.5,27.6,18.4,30.8c2.3,1.2,6.6,0.4,11.2-1.2c0.6-0.2,1.3,0,1.6,0.6l2,3.7l17.2-3.7
			c-1.4-3.2-2.6-6.5-3.4-9.8C503.6,289.6,510.5,262.4,498.5,248.7z"/>
		<path id="_Path_35" class="st26" d="M463.7,272.7c2.1-0.2,4.1,1,5,2.9c1.4,3.4,3.6,8.1,5.3,9.6c0.6,0.4,1.3,0.4,1.9,0
			c0.6-0.3,0.9-0.8,0.9-1.5c-0.5-2.3-1.1-4.5-2-6.7c-1-2.3,0.1-4.9,2.3-5.9c0.3-0.1,0.7-0.3,1-0.3c0.9-0.1,1.9-0.1,2.8,0.2
			c5.1,1.5,1.6,9.5,1.5,13.7c-0.1,2.9,3.4,9.7,5,10.4c5.1,2,12.9,0.2,17-4.9s5-22,2.8-32.2c-2.2-10.2-10.4-15.9-13.1-16.5
			c-1-0.3-2.1-0.4-3.2-0.3c-0.8,0.1-1.6-0.2-2.2-0.7c-2.7-2.4-10.8-7.7-23.6-2.2c-11.4,4.7-18.7,16-18.4,28.3c0.2,4.3,3.6,4,6,3.3
			c1.3-0.4,2.7-0.1,3.8,0.8C458.5,272.3,461.1,273,463.7,272.7z"/>
		<path id="_Path_36" class="st58" d="M486.8,309c0,0-1.5-1.6-0.9-2.7c0.7-1.3,8.3-7.2,17.1-6.9c1.4,0,3,0,4.7,3.6
			c0.9,1.9,1.6,3.9,2,5.9L486.8,309L486.8,309z"/>
		<path id="_Path_37" class="st58" d="M520.3,453.7c-0.5,0.1-1.1,0.3-1.7,0.4c-7.5,1.4-19.7,1.6-19.7,1.6c-24-0.4-36.1-22.8-40-29.5
			c-0.8-1.2-1.4-2.6-1.9-3.9c1.4-0.7,17.7-9.5,16.8-39.5c-0.2-6.2-0.1-20.1-3.2-25.6c-1.7-3-6.8-9-9.9-15.3
			c-2.6-5.2-3.9-10.7-1.1-14.8c7.1-10.4,18.2-15.9,18.2-15.9s20.4-8.2,37.8-6.3c11,1.2,20.9,6.4,23.5,20.3
			C545.9,360.8,520.3,453.7,520.3,453.7z"/>
		<path id="_Path_38" class="st59" d="M480.5,374.8c3,29.5-17.1,48.1-21.6,51.3c-0.8-1.2-1.4-2.6-1.9-3.9c1.4-0.7,16.7-14,16.8-39.5
			c0-6.2-0.1-20.1-3.2-25.6c-1.7-3-6.8-9-9.9-15.3l1.3-0.5l8.2-1.4l4.2,3.4C474.4,343.3,478.6,355.7,480.5,374.8z"/>
		<path id="_Path_39" class="st60" d="M520.3,453.7c-0.5,0.1-1.1,0.3-1.7,0.4c1.5-8.1,11.2-58.7,14.4-77.1
			c6.2-36.3-0.3-54.6-3.9-61.2c-3-5.3-8.6-8.1-13.5-11c11,1.2,20.9,6.4,23.5,20.3C545.9,360.8,520.3,453.7,520.3,453.7z"/>
		<path id="_Path_40" class="st11" d="M402.6,561.9c-1.8,0.7-3.8,1.1-5.7,1.1c-3.5,0-4.5-1.3-4.5-1.3v-8l11.6-1.5L402.6,561.9z"/>
		<path id="_Path_41" class="st61" d="M493.8,449.5c-0.1,5.2-1.5,13.6-9.3,15.9c-11.7,3.5-20.3,1.5-33.9-0.8
			c-11.3-1.9-41.2-8.4-46.7-10.5c-0.5-0.2-1,0.1-1.2,0.5c-0.1,0.2-0.1,0.4,0,0.5c2.6,12.7,4.7,18.1,6.3,37.1
			c1.4,16-4.7,61.1-4.7,61.1c-1.3,0.4-2.6,0.7-3.9,0.9c-0.7,0.1-1.5,0.2-2.2,0.2c-2.2,0-4.3-0.2-6.5-0.5c0,0-12.1-66.5-13.8-93.5
			s0.9-29.2,13.2-34.9s67-3.6,67-3.6l0,0c0.2,0.5,3.2,8.9,12.3,16.5C477.2,444.1,485.2,447.8,493.8,449.5z"/>
		<path class="st62" d="M460.5,426.7c-0.9-1.5-1.6-3-2.3-4.6l0,0c0,0-0.6,0-1.7-0.1C457.7,423.6,459,425.2,460.5,426.7z"/>
		<path class="st62" d="M486.2,447.4c-1.1,4-3.5,7.8-8.4,9.3c-11.7,3.5-20.3,1.5-33.9-0.8c-11.3-1.9-41.2-8.4-46.7-10.5
			c-0.5-0.2-1,0.1-1.2,0.5c-0.1,0.2-0.1,0.4,0,0.5c2.6,12.7,4.7,18.1,6.3,37.1c1.1,12.4,0.6,52.9,0.4,70.3c0.9-0.2,1.6-0.4,1.6-0.4
			s6.1-45.2,4.7-61.1c-1.7-19-3.8-24.5-6.3-37.1c-0.1-0.5,0.2-1,0.7-1.1c0.2,0,0.4,0,0.5,0c5.5,2.1,35.4,8.5,46.7,10.5
			c13.5,2.3,22.2,4.3,33.9,0.8c7.8-2.4,9.2-10.7,9.3-15.9C491.2,449,488.7,448.3,486.2,447.4z"/>
		<path id="_Path_42" class="st51" d="M392.1,560.5c1.8,0.7,3.8,1.1,5.8,1.2c2,0,3.9-0.4,5.7-1.2c0,0,5.8,7.4,2.7,15.7
			c-0.2,0.4-0.6,0.7-1.1,0.7h-39.2c-0.5,0-0.9-0.4-0.9-0.8c0-1,0.4-2.5,2.8-3.2c3.6-1.1,7.4-1.7,10.2-2.7s6.8-5.1,9.1-5.9
			C389.1,563.5,390.8,562.2,392.1,560.5z"/>
		<path id="_Path_43" class="st11" d="M374.3,364c0,0-3.5-0.9-5.3-1.3c-0.6-0.1-1.3-0.2-1.9-0.3c-0.8-0.1-1.5,0-2.3,0.1l-18.7,2.6
			c-0.5,0.1-1-0.3-1.1-0.9c-0.1-0.7,0.2-1.5,0.7-1.9l1.8-1.6l5.5-4.7c2.7-2.3,4.9-2.7,8.4-2.9c1.3,0.2,2.6,0.4,3.9,0.8
			c3.7,0.7,4.5,1.1,7,1.6c0.7,0.2,1.4,0.3,2,0.3c0.3,0,0.5,0,0.8,0C375.9,358.5,375.6,361.5,374.3,364z"/>
		<path id="_Path_44" class="st12" d="M403,365.9c0,0-0.1,0.1-0.1,0c-0.5-0.2-3.4-1.4-5-2c-0.6-0.2-1.1-0.4-1.6-0.5
			c-0.8-0.2-1.7-0.3-2.6-0.3h-18.8c-0.6,0-1.1-0.5-1.1-1c0-0.7,0.4-1.4,1-1.8l2-1.3c-1.9,1.5-2.2,2.6-1.3,2.7
			c0.8,0.1,2.6-0.1,7.2-1.4c0.1,0,0.1,0.1,0.1,0.2c-0.5,0.2-0.8,0.8-0.5,1.4c0.2,0.5,0.7,0.7,1.2,0.6c0.8,0,4.1-0.2,4.8-0.3
			c3-0.2,7.2-0.4,8.1-0.3c1.4,0.3,2.8,0.7,4.1,1.4c0.8,0.4,1.6-0.5,1.9-1.4c0.5-1.4,1-2.8,1.7-4.1c0.3,0.1,0.5,0.1,0.8,0.1
			C405.2,360.7,404.6,363.5,403,365.9z"/>
		<path id="_Path_45" class="st58" d="M477,320.7c-2.5-1.5-10-5.7-19.7,9.4s-17.4,26.4-20.8,28.4s-11.7,0.6-14.7,0.6
			s-46.9-3.4-46.9-3.4c-1.2,2.7-2.1,5.5-2.5,8.5c0,0,40.2,10.5,65.1,10.6s43.9-37.6,44.8-42.2S483,324.4,477,320.7z"/>
		<g id="_Group_2">
			<path id="_Path_46" class="st51" d="M453,285.6c-0.3,0-0.6-0.3-0.6-0.6c0-0.2,0.1-0.4,0.3-0.5l21.6-11.1
				c2.4-1.3,7.5-3.8,11.2,1.6c0.2,0.3,0.1,0.6-0.2,0.8c-0.3,0.2-0.6,0.1-0.8-0.2c-2.9-4.3-6.4-3-9.6-1.3l-21.7,11.1
				C453.2,285.6,453.1,285.6,453,285.6z"/>
		</g>
		<path id="_Path_47" class="st11" d="M474.7,274.8l2.6,8.3c1,1,2.7,1,3.7,0c0.1-0.1,0.2-0.2,0.2-0.3c2-2.3,3.7-10.1,0.1-11.4
			S475.6,272,474.7,274.8z"/>
		<path class="st9" d="M573,395.6c0-42.1-1-71.8-27.7-76.3c-36.3-6.1-64.7,25.4-58.9,85.6c3.3,34.5-10.8,46.4-22.9,53.1
			c-7.8,4.4-22.9,3.4-22.9,3.4s-7-0.8-11.7-1.3c2.9,1.3,65.1,32,109.4,9.3C577.7,449.4,573,420.4,573,395.6z"/>
		<path class="st10" d="M573,395.6c0-42.1-1-71.8-27.7-76.3c-1.3-0.2-2.6-0.4-3.8-0.5c-29.1,2.9-48.1,33.5-43.1,86.1
			c3.3,34.5-10.8,46.4-22.9,53.1c-7.8,4.4-22.9,3.4-22.9,3.4s-0.4-0.1-1-0.3c-3.7,0.4-7.3,0.5-11,0.3c0,0-7-0.8-11.7-1.3
			c2.9,1.3,65.1,32,109.4,9.3C577.7,449.4,573,420.4,573,395.6z"/>
		<path id="_Path_11" class="st26" d="M223.3,229.9c0,0,6.7-1.1,10.6-6.2c2-2.9,3.6-6,4.7-9.3c0,0,2.3,5,10.2,8.6
			c7.7,3.6,16,5.9,24.4,6.9c0,0,0.5-18.3-5.5-25.8s-21.6-11.7-32.2-5.3S223.3,229.9,223.3,229.9z"/>
	</g>
</g>
<g>
	<g>
		<g>
			<polygon class="st63" points="277.8,148.6 276.4,164.9 278.4,165.3 284.1,150.7 			"/>
			<path class="st63" d="M278.7,163.6c0,0-0.5,1.7-0.2,3c0.2,0.9-1,2-2.3,3.6c-0.1,0.2-0.4,0-0.3-0.2c0-0.1,0-0.2,0.1-0.4
				c0.2-0.6,0.9-1.7,0.9-1.7c-0.1-0.2-1.5,0.6-2.2,1.2c-0.5,0.3-1.8,1.9-2.1,1.7c-0.4-0.2,0.2-1.8,0.8-2.9c0.6-1.1,2.8-2.1,3.1-3
				C276.7,164.1,278.7,163.6,278.7,163.6z"/>
			<polygon class="st64" points="285.1,89.2 299.7,82.3 313.2,89.4 299.7,97 			"/>
			<g>
				<g>
					<path class="st65" d="M287.5,97.2l0.2-0.3c-2.9-2.5-2.4-6.6-2.2-7.5c0-0.1,0-0.2-0.1-0.3l0,0c-0.1-0.1-0.2,0-0.2,0.1
						C284.9,90.2,284.4,94.6,287.5,97.2z"/>
				</g>
				<polygon class="st66" points="287.7,96.9 288.1,97.1 287.8,97.6 287.5,97.2 				"/>
				<path class="st65" d="M288.1,97.1c0,0,0.5,0.4,0.7,0.3c0,0-0.2,0.6-0.4,0.6c0,0-0.5-0.2-0.7-0.4L288.1,97.1z"/>
			</g>
			<polygon class="st63" points="294.6,213.4 293.6,218.1 292.3,224.2 288.1,224.2 287.9,218.3 287.7,213.8 			"/>
			<path class="st64" d="M286.5,231c0,0,0-2.2,0.3-3c0.3-0.7,1.3-3.8,1.3-3.8h4.1c0,0,0.8,2.8,0.8,3.7c0,0.9,0,3.1,0,3.1H286.5z"/>
			<path class="st64" d="M312.6,231c0,0,0-2.2-0.3-3c-0.3-0.7-1.3-3.8-1.3-3.8h-4.1c0,0-0.8,2.8-0.8,3.7c0,0.9,0,3.1,0,3.1H312.6z"
				/>
			<path class="st63" d="M296.1,105c0,0-0.1,5-0.7,7.2l-4.5,10.9l10,15.5l7-20l-4.1-6.3c0,0-1.2-6.7-0.6-9.2
				C304,100.7,296.1,105,296.1,105z"/>
			<path class="st67" d="M296.1,105.7c0,0,1.4,3.6,3.9,3.5c2.5-0.1,3.1-3.3,3.1-3.3L296.1,105.7z"/>
			<path class="st68" d="M294.6,102.8c0,0-0.8-4.6-1.4-6c-0.6-1.4-1.1-7.6,5.3-7.9c0,0,2.4,0.3,3.8-0.6c0,0,0,0.9-0.3,1.2
				c0,0,1.7-1.2,3.4,1c1.7,2.1-0.6,10.2-0.5,11.9L294.6,102.8z"/>
			<path class="st63" d="M299.7,107.9c-1.8,0-5.2-2.8-5.2-6.2v-5.3c0-1.2,0.8-2.3,1.7-2.3h7c0.9,0,1.7,1,1.7,2.3v5
				C305,105,301.8,107.9,299.7,107.9z"/>
			<path class="st68" d="M294.5,99.2c0,0,0-3.2,2.3-3.7c2.3-0.5,7.3,1.6,8-0.8c0.7-2.3-9.8-2.3-10.3-0.8
				C294,95.5,294.5,99.2,294.5,99.2z"/>
			<polygon class="st1" points="295.4,112.3 299.6,113.3 303.9,112.2 305,119.4 300.2,137.6 295,115.9 			"/>
			<polygon class="st69" points="295.2,113.8 298.6,116.5 299.7,114.5 300.7,116.5 304.2,113.1 303.5,112.2 299.6,113.3 
				295.4,113.1 			"/>
			<path class="st70" d="M312.7,153.2l-10,0.7c-0.1-0.1-0.1-0.1-0.2,0l-2.9,0.2l-12.5-0.9c0,0-3.2,16.1-1.9,37.5
				c0.4,6.8,1.3,27,2.1,34.2l8.6,0.1c1.1-8.1,2.4-28.3,3.1-31.7c0.3-1.6,0.6-3.1,0.9-4.7c0.2,1.8,0.4,3.2,0.4,4.1
				c0,1.4,0.4,3.7,0.9,6.4c0.7,3.8,2.8,21.6,3.5,26.2h9c0.1-6.4,0.6-28,0.7-34.6C314.6,173.3,312.7,153.2,312.7,153.2z"/>
			<path class="st71" d="M319.6,209.7c-4.6,2.7-35.9,5.9-41.5-1.5c-1-1.3,12.4-94.8,12.4-94.8s0.9-0.3,2.3-0.6
				c0.7-0.2,1.6-0.3,2.6-0.5c0,0.3,2.2,15.5,5.1,21.5c0,0,3.3-8.2,3.4-21.4c0-0.1,0-0.1,0-0.2c0.6,0.1,1.3,0.2,1.9,0.3
				c0.3,0.1,0.5,0.1,0.8,0.2c1,0.2,2.1,0.5,3.1,0.9C309.7,113.6,320.6,209.1,319.6,209.7z"/>
			<path class="st71" d="M294.1,112.5c0,0-4.8,41.1-6.6,44.1c-0.8,1.3-1.9,1.5-3.2,1.2c-0.3-0.1-0.5-0.1-0.8-0.2l-3.7-1.6l0,0
				c-0.6-0.3-1.2-0.5-1.8-0.7c-3.8-1.3-3.5-4.8-2.5-9.7c1-4.8,7.7-28.1,9.9-29.7C289.4,113,294.1,112.5,294.1,112.5z"/>
			<path class="st63" d="M303.9,112.2c-3.2-0.4-6.1-0.2-8.4,0.1c0,0,0,0,0,0S303.2,106.9,303.9,112.2z"/>
			<path class="st72" d="M301.1,137.6c-4.8-4-8.3-24.8-8.3-24.8c0.7-0.2,1.6-0.3,2.6-0.5c0,0.3,2.1,14.7,5,20.6
				c0,0,3.5-7.3,3.5-20.6c0-0.1,0-0.1,0-0.2c0.6,0.1,1.3,0.2,1.9,0.3c0.3,0.1,0.5,0.1,0.8,0.2C306.6,123.8,301.1,137.6,301.1,137.6z
				"/>
			<path class="st73" d="M298.1,103.9c0,0,2.2-0.2,3.2,0c0,0-0.6,1-1.4,1C299,104.9,298.3,104.6,298.1,103.9z"/>
			<path class="st71" d="M292.8,91.6l0.1,2.4c0,0,5-3.7,13.1-0.3l-0.1-3.5c-0.1-0.7-0.5-1.3-1-1.6c-1.5-1-5.1-2.8-10.7,0.2
				C293.3,89.3,292.8,90.6,292.8,91.6z"/>
			<polygon class="st1" points="295.8,110.1 294.1,112.5 298.6,115.9 299.6,113.3 			"/>
			<polygon class="st1" points="303.5,110.1 299.6,113.3 300.8,115.9 304.6,112.3 			"/>
			<path class="st69" d="M299.5,118.9c0.1-0.1,0.3-0.1,0.4,0c0.1,0.1,0.1,0.4,0,0.5c-0.1,0.1-0.3,0.1-0.4,0
				C299.4,119.3,299.4,119.1,299.5,118.9z"/>
			<ellipse class="st69" cx="299.7" cy="122.9" rx="0.3" ry="0.3"/>
			<path class="st69" d="M299.5,126.4c0.1-0.1,0.3-0.1,0.4,0c0.1,0.1,0.1,0.4,0,0.5c-0.1,0.1-0.3,0.1-0.4,0
				C299.4,126.8,299.4,126.6,299.5,126.4z"/>
			<path class="st71" d="M309.7,113.6c0,0,3,1.4,4.6,5.5c1.6,4.1,8.3,15.3,8.1,20.6c-0.2,5.3-1.1,10-5.6,10.2
				c-3.1,0.1-6.2-3.3-6.2-8.3C310.6,136.6,309.7,113.6,309.7,113.6z"/>
			<path class="st64" d="M319.3,146.9c-0.1,1.4-0.6,2.6-1.7,2.9c-3.6,1-5.2-2.9-4.4-6.7c0-0.1,0.1-0.2,0.1-0.4
				c0.8-2.8,3.5-3.2,4.6-3.3c0.2,0,0.4,0,0.4,0s0,0.1,0.1,0.2C318.4,140.5,319.5,144.2,319.3,146.9z"/>
			<path class="st63" d="M319.3,146.9c0,0-10.5-5.3-14.6-11.3c-0.3-0.4,0.5-1,0.5-1l12.6,4.9l0.4,0.2
				C318.4,140.5,319.5,144.2,319.3,146.9z"/>
			<g>
				<rect x="293.1" y="134.9" class="st74" width="13.9" height="20.4"/>
				<g>
					<polygon class="st75" points="298.8,149.3 297.2,152.2 298.2,152 298.6,152.9 299.9,150.2 					"/>
					<polygon class="st75" points="300.8,149.1 302.4,152 301.4,151.8 301,152.7 299.6,150 					"/>
					<path class="st72" d="M298.2,148.6c0.2-1.3,0.8-1.8,1.7-1.9c1.2-0.2,1.7,0.9,1.7,1.9c0,1.1-0.8,1.9-1.7,1.9
						C299,150.6,298.1,149.7,298.2,148.6z"/>
					<g>
						<path class="st75" d="M299.9,150.2c-0.4,0-0.8-0.2-1.1-0.6c-0.2-0.3-0.3-0.6-0.3-1l0,0c0.1-0.9,0.5-1.4,1.4-1.5
							c0.4-0.1,0.7,0,0.9,0.3c0.3,0.3,0.4,0.7,0.4,1.3C301.3,149.5,300.7,150.2,299.9,150.2z M300.2,147.2c-0.1,0-0.1,0-0.2,0
							c-0.7,0.1-1.1,0.5-1.2,1.4l0,0c0,0.3,0,0.6,0.2,0.8c0.2,0.3,0.6,0.5,1,0.5c0.7,0,1.2-0.6,1.2-1.4c0-0.5-0.1-0.9-0.4-1.1
							C300.6,147.3,300.4,147.2,300.2,147.2z"/>
					</g>
				</g>
				<g>
					<path class="st71" d="M301.9,137.4h-3.9c-0.1,0-0.1-0.1-0.1-0.1l0,0c0-0.1,0.1-0.1,0.1-0.1h3.9c0.1,0,0.1,0.1,0.1,0.1l0,0
						C302,137.3,302,137.4,301.9,137.4z"/>
					<path class="st71" d="M302.7,137.9h-5.4c-0.1,0-0.1-0.1-0.1-0.1l0,0c0-0.1,0.1-0.1,0.1-0.1h5.4c0.1,0,0.1,0.1,0.1,0.1l0,0
						C302.8,137.8,302.7,137.9,302.7,137.9z"/>
				</g>
				<g>
					<path class="st71" d="M303.9,142.4H296c-0.1,0-0.1-0.1-0.1-0.1l0,0c0-0.1,0.1-0.1,0.1-0.1h7.9c0.1,0,0.1,0.1,0.1,0.1l0,0
						C304.1,142.3,304,142.4,303.9,142.4z"/>
					<path class="st71" d="M303.9,143.1H296c-0.1,0-0.1-0.1-0.1-0.1l0,0c0-0.1,0.1-0.1,0.1-0.1h7.9c0.1,0,0.1,0.1,0.1,0.1l0,0
						C304.1,143.1,304,143.1,303.9,143.1z"/>
					<path class="st71" d="M303.9,143.8H296c-0.1,0-0.1-0.1-0.1-0.1l0,0c0-0.1,0.1-0.1,0.1-0.1h7.9c0.1,0,0.1,0.1,0.1,0.1l0,0
						C304.1,143.7,304,143.8,303.9,143.8z"/>
					<path class="st71" d="M303.9,144.5H296c-0.1,0-0.1-0.1-0.1-0.1l0,0c0-0.1,0.1-0.1,0.1-0.1h7.9c0.1,0,0.1,0.1,0.1,0.1l0,0
						C304.1,144.4,304,144.5,303.9,144.5z"/>
				</g>
				<path class="st71" d="M304.6,148.7c-0.2,0.2-0.5,0.4-0.8,0.6c0-0.1,0-0.2,0-0.2c0-0.1-0.1-0.2-0.2-0.2c0,0,0,0-0.1,0
					c0,0,0-0.1,0-0.1c0-0.1-0.1-0.1-0.2,0c0,0,0,0,0,0c0,0,0,0,0,0c0-0.1,0.1-0.2,0.1-0.3c0,0,0,0,0-0.1c-0.1-0.1-0.2,0-0.2,0
					c-0.1,0.1,0,0.2,0,0.3c0,0,0,0,0,0c-0.1,0.1-0.1,0.2-0.2,0.3c0,0,0,0,0,0c0,0,0,0-0.1-0.1c0-0.1,0.1-0.2,0.1-0.3
					c0,0,0-0.1-0.1-0.1c-0.1,0-0.1,0.1-0.1,0.3c0,0,0,0.1,0,0.1c0,0,0,0.1-0.1,0.1c0,0,0,0.1,0,0.1c0,0.1-0.1,0.2-0.1,0.3
					c-0.1,0.1-0.2,0.1-0.2,0c0,0,0-0.1-0.1-0.2c0-0.2,0-0.3,0-0.5c0-0.1,0-0.2,0-0.2c0,0,0-0.1,0.1,0c0,0,0,0.1,0,0.1
					c0,0.1,0.1,0.1,0.1,0c0-0.1,0-0.3,0-0.3c-0.1,0-0.1,0-0.2,0.1c-0.1,0.2-0.1,0.5-0.1,0.8c0,0.2,0.1,0.4,0.3,0.4
					c0.2-0.1,0.3-0.4,0.3-0.6c0,0,0,0,0,0c0,0,0,0,0,0c0,0,0,0,0,0c0,0,0,0,0,0c0,0,0,0.1-0.1,0.1c0,0,0,0,0,0.1
					c0.1,0.1,0.2,0,0.2-0.1c0,0,0-0.1,0-0.1c0.1-0.1,0.1-0.2,0.2-0.3c0,0,0.1,0.1,0.1,0.1c0,0,0,0,0,0c0,0,0.1,0.1,0.1,0.1
					c0,0,0.1,0,0.1,0.1c0,0,0,0.1,0,0.1c0,0.1,0,0.2-0.1,0.2c-0.1,0.1-0.2,0.1-0.2,0.3c0,0.1,0,0.2,0.1,0.3c0,0,0.1,0,0.1,0
					c0.1-0.2,0.1-0.3,0.1-0.5c0,0,0,0,0,0c0.1-0.1,0.2-0.1,0.3-0.2C304.3,149.1,304.5,149,304.6,148.7
					C304.7,148.7,304.7,148.7,304.6,148.7z M303.4,148.6c0,0,0-0.1,0.1-0.1C303.5,148.5,303.4,148.5,303.4,148.6
					C303.4,148.6,303.4,148.6,303.4,148.6z M303.5,149.8c0-0.1,0-0.2,0.1-0.3C303.6,149.6,303.6,149.7,303.5,149.8z"/>
				<g>
					<path class="st71" d="M306.4,154.7h-12.7v-19.1h12.7V154.7z M293.8,154.5h12.4v-18.8h-12.4V154.5z"/>
				</g>
			</g>
			<path class="st63" d="M302,133.4c0,0-2.6,2.4-1.6,2.8c0.9,0.4,3.4-1.3,3.9-1.3s1.6,0,1.6,0s-1.6-2-2.4-2
				C302.6,133,302,133.4,302,133.4z"/>
			<path class="st64" d="M287.5,129l-3.2,28.8c-0.3-0.1-0.5-0.1-0.8-0.2l-3.7-1.6l0,0c0,0,1.1-1.3,2.7-5.8
				C284,145.6,287.5,129,287.5,129z"/>
		</g>
		<g>
			<path class="st63" d="M367,161.5c0,0,1.4,3.3,1.3,4.2c-0.1,0.9-1.3,3.7-1.3,3.7l-1.5-7.5L367,161.5z"/>
			<polygon class="st63" points="366,147.5 367,161.5 365.6,161.9 361.7,149.2 			"/>
			<polygon class="st64" points="334.5,102.4 349.1,92.8 359,100.6 345.2,109.6 			"/>
			<path class="st68" d="M342,106.8c0,0-0.4,2.4-2.4,3.6c-2,1.2-3.8,1.6-3.3,5.5c0.4,3.9-2,4.8-2.4,7.4c-0.4,2.6-0.4,7.3,5.4,5.9
				c5.8-1.4,19.2-0.4,20.6-2.5c1.4-2.1,0.4-6.5-2-9.8c-2.5-3.3,0.8-5.5-0.4-8.4c-1.2-2.9-3.4-5.9-3.4-5.9S344.5,100.5,342,106.8z"/>
			<polygon class="st63" points="344.7,214.5 346.7,223.7 349.6,223.7 349.8,214.5 			"/>
			<polygon class="st63" points="369.5,214.9 375.1,223.7 377.3,220.6 373.9,213.7 			"/>
			<path class="st63" d="M352.5,121.4c0,0-0.4,10.3-1.9,10.3c-0.3,0-2.8-7.2-3.1-7.3c-1.7-0.5-1.9-5.1-1.9-5.1
				c0.7-0.2,0.9-1.3,0.9-6l0.3,0.1l5.4,1.2c0,0-0.1,1.9-0.1,3.7C352.1,119.8,352.2,121.2,352.5,121.4z"/>
			<g>
				<g>
					<path class="st65" d="M330.5,111.1l-0.2-0.4c4-2.1,4.2-7.1,4.2-8.2c0-0.1,0.1-0.3,0.2-0.3l0,0c0.1-0.1,0.3,0,0.3,0.2
						C334.9,103.6,334.6,108.9,330.5,111.1z"/>
				</g>
				<polygon class="st66" points="330.3,110.7 329.8,110.8 330.1,111.5 330.5,111.1 				"/>
				<path class="st65" d="M329.8,110.8c0,0-0.7,0.4-0.9,0.2c0,0,0.1,0.7,0.4,0.9c0,0,0.6-0.1,0.9-0.3L329.8,110.8z"/>
			</g>
			<path class="st76" d="M352.2,114.6c0,0-0.1,1.9-0.1,3.7c-3-0.1-4.6-3.2-5.3-4.9L352.2,114.6z"/>
			<path class="st68" d="M345.7,113.6c0,0-2.1-2.4-2.9-4.7c-0.6-1.6-0.9-8,4.8-8.4c0,0,1.7-0.2,3.4,0.6c1.4,0.6,3.5,2.2,2.5,8.1
				l-0.2,2L345.7,113.6z"/>
			<path class="st77" d="M376.8,218.6c0,0-1.4,0.3-2.6,0.4c-0.3,0-0.5,0-0.7,0c-0.6,0-1.6-0.2-2.3-0.4l-0.1,0
				c-0.3-0.1-0.5-0.1-0.6-0.2l0,0c0,0-7.2-8.9-11.2-23.3c-0.1-0.3-0.2-0.7-0.3-1c-2.2-7.2-6.8-16.2-9.2-24.4c-0.4-1.3-0.7-2.5-1-3.7
				c-0.1-0.4-0.2-0.7-0.3-1.1c-1.8-6.9-2.3-11.4-2.8-16.3l14.5,4.1C360.1,152.8,366.2,182.2,376.8,218.6z"/>
			<path class="st63" d="M353.2,115.5c0,0-7,1.7-7.9-3.2c-0.9-4.9-2.4-8,2.1-9.3c4.5-1.3,5.7,0.4,6.3,1.9
				C354.3,106.6,355,115,353.2,115.5z"/>
			<path class="st68" d="M350.5,102.2c0,0-0.9,6.2-3.7,7.7c-2.8,1.5-4.3,0.9-4.3,0.9s1.9-2.5,1.7-6.1
				C344.3,104.7,348.5,99.8,350.5,102.2z"/>
			<path class="st68" d="M350.1,102.8c0,0,1.7,1,2.3,2.1c0.6,1.2,1.8,1.6,1.9,3.5c0,0,0.7-4.2-1.3-6.1
				C350.8,100.4,350.1,102.8,350.1,102.8z"/>
			<path class="st63" d="M346.6,223.2c0,0,0.2,1.8-0.4,3.8c0,0-0.5,2.4,1.7,2.5c2.2,0,2.7-0.2,2.4-1.7c-0.2-1.5-0.7-4.1-0.7-4.1
				L346.6,223.2z"/>
			<path class="st78" d="M346.2,227c0,0-0.4,2.3-0.2,3.5c0,0,0.7,0.5,2.2,0.5c1.5,0,2.3-0.5,2.3-0.5s0-2.5-0.4-3.6
				C350.2,226.9,348.7,229.5,346.2,227z"/>
			<path class="st63" d="M382.5,228c0,0-4-4.9-5.2-7.4l-3,1.7l6.6,6.9l1.6-0.2L382.5,228z"/>
			<path class="st78" d="M385,230.9c0,0-4.3,0-5-0.1c-0.7-0.1-1.3-1.3-2.1-3c-0.3-0.7-1.1-1.1-1.8-1.3v4.1h-1.1l-1.1-4.4
				c-0.7-1.4-0.1-2.8,0.4-3.9c0.6,0,2.1,0.4,5.1,4.1c1,1.2,2,1.6,3.1,1.6c0,0,0,0,0,0C385,229.3,385,230.9,385,230.9z"/>
			<path class="st79" d="M374.1,218.9c-0.3,0-0.5,0-0.7,0c-0.6,0-1.6-0.2-2.3-0.4l-0.1,0l-0.6-0.2l0,0c0,0-7.2-8.9-11.2-23.3
				c-0.1-0.3-0.2-0.7-0.3-1c-2.2-7.2-6.8-16.2-9.2-24.4c-0.4-1.3-0.7-2.5-1-3.7c-0.1-0.4-0.2-0.7-0.3-1.1l2.6-2.2
				c0,0,7.7,13.9,10.1,27C363,200.6,371.5,214.7,374.1,218.9z"/>
			<path class="st77" d="M351.2,191c0,6.4-0.2,21-1,27.1c0,0-0.7,0.7-2.5,0.7c-1.8,0-2.6-0.7-2.6-0.7c-1.9-10.6-3.2-19.3-4.2-26.8
				c-0.8-6.2-1.5-11.5-2-16c-0.5-4,2.6-15,2.6-15l11.4-1.2C352.7,170.2,351.1,187.3,351.2,191z"/>
			<path class="st79" d="M347.7,218.8c-1.5,0.1-2.6-0.7-2.6-0.7c-1.9-10.6-3.2-19.3-4.2-26.8c-0.8-6.2-1.5-11.5-2-16
				c-0.5-4,2.6-15,2.6-15l3.9,2.8c0,0-5.5,5.6-4.1,16.1C342.5,189.6,345.8,217.3,347.7,218.8z"/>
			<path class="st71" d="M365.7,151.5c-0.7,0.3-1.5,0.4-2.3,0.6c-1.3,0.2-2.5,0.3-3.3,0.7c-2.3,1.2-8-33.6-8-33.6s4.1,0,6,3.4
				c1.9,3.3,9.2,19.7,9.9,25C368.3,149.8,367.2,150.9,365.7,151.5z"/>
			<path class="st71" d="M374.1,198.4c0,0-0.4,1.1-1.4,2.5c-0.5,0.7-1.2,1.6-2.1,2.4c-2.3,2.3-6,4.7-11.7,6
				c-0.3,0.1-0.6,0.1-0.9,0.2c-1.7,0.3-3.4,0.5-4.9,0.7c-3.2,0.3-6.1,0.3-8.5,0.2c-1.7-0.1-3.1-0.2-4.4-0.4
				c-2.8-0.4-4.4-0.9-4.4-0.9s0-31.4,2.3-50.1c1.3-10.3,5.6-39.7,5.6-39.7l2.1-0.4l5.1,12.8l1-12.6l2.3,0.8c1.1,0.4,2,1.5,2.3,2.8
				L374.1,198.4z"/>
			<g>
				<polygon class="st72" points="357.6,150.1 345.6,148.7 347.6,129.5 359.5,130.8 				"/>
				<polygon class="st80" points="347.6,129.5 346.8,129.4 345,148.7 345.6,148.7 				"/>
			</g>
			<path class="st63" d="M337.6,139.4c0,0,8.4,2.9,16.4,4.1c0,0,2.6,1.3,1.4,1.6c-0.3,0.1-16.3,4-18.7,1.5L337.6,139.4z"/>
			<path class="st71" d="M345.9,118.9c0,0-6.3,0.8-7.3,2.3c-3.3,4.5-6.4,23.5-3.7,27.9c3.1,5.3,7.9-3,9.4-7.9
				C345.1,138.7,346.4,123.5,345.9,118.9z"/>
			<path class="st63" d="M353.1,143.4c0,0,1-0.1,1.2-0.5c0.4-0.7,1-0.7,1.5-0.8c0.5-0.1,1-0.7,1.1-0.6c0.1,0.1-0.4,0.8-0.6,1
				c0,0,0.5,0,0.9-0.2c0.3-0.2,1.6-1.7,1.6-1.1c0,1.6-0.1,1.9-1.3,3c-1,0.9-4.5,1.3-4.5,1.3L353.1,143.4z"/>
			<path class="st64" d="M345.9,139l-0.2,2.7c-0.4-0.1-0.8-0.2-1.4-0.5c-3.4-1.5-2.1-9.2-2.1-9.2C342.8,135.1,344.5,137.5,345.9,139
				z"/>
			<path class="st71" d="M354.1,102.5c0,0-5.1-2.2-12.1,4.3l0.1-1.5c0.1-1.3,0.7-2.5,1.7-3.3c1.1-0.9,2.8-1.9,5.4-2.3
				c1.8-0.3,3.5,0.6,4.6,2.2L354.1,102.5z"/>
			<path class="st64" d="M365.7,151.5c-0.7,0.3-1.5,0.4-2.3,0.6l-3.3-16.2C360.1,135.8,365.6,148.3,365.7,151.5z"/>
			<path class="st1" d="M350.6,112.8c0,0,0.3,0.7,0.8,0.7c0.5,0,1.7-0.1,1.8-0.3c0.1-0.1,0.3-0.9,0.3-0.9S351.5,112.4,350.6,112.8z"
				/>
		</g>
		<g>
			<path class="st63" d="M514.1,133.5c0,0-0.5-0.8-1.1-1.3c-0.6-0.5-1.2-1.5-1-1.8c0.2-0.3,2-1.8,2-1.8l1,2.7L514.1,133.5z"/>
			<polygon class="st64" points="529.7,102.6 545.4,95.6 554.1,105.1 539.2,111.6 			"/>
			<path class="st63" d="M521.1,140l-6.2-8.9l-0.7,2.5c0,0,6.4,16.2,9.3,14.7C524.8,147.5,521.1,140,521.1,140z"/>
			<path class="st81" d="M540.6,110.8c0,0-3,2-1.2,5.9c0,0-2.7-0.5-3.2-1.4c0,0,0.1,0.4,0.2,0.6c0,0-3.1-0.4-3.7-1.7
				c-1.2-2.7,1.7-2.5,2.9-5.3c1.6-3.6,4.2-6.5,7.8-4.5c0,0,5.1-0.3,2.8,6.9c-2.3,7.2-0.1,7.9-0.1,7.9s-0.7,0.2-1,0.1
				c0,0-0.4-0.3-0.4-0.6c0,0,0,0.4,0.1,0.6c0,0-2.4-0.4-3.3-1.8C540.5,116,539.9,112.2,540.6,110.8z"/>
			<path class="st63" d="M536.2,122.4C536.2,122.4,536.2,122.4,536.2,122.4C536.2,122.4,536.2,122.4,536.2,122.4z"/>
			<path class="st63" d="M543.6,120c0.1,0.9,0.2,1.7,0.2,2.1c0,0.3,0.6,5.2-0.4,5.2c-1,0-3.5,5.8-4.7,5.8
				c-1.3-0.1-2.4-10.7-2.6-10.7c0.3-0.2,1.3-3.7,1.6-5c0.4-1.6,0.7-3.4,0.7-3.4l5.2,0.4l0.3,0c-0.2,0.8-0.3,1.5-0.4,2.2
				c0,0.1,0,0.2,0,0.3C543.4,117.7,543.5,118.9,543.6,120z"/>
			<path class="st81" d="M537.8,113.5c0,0-0.8-3-0.7-5.2c0.1-1.6,2.4-6.2,7.4-3.9c0,0,1.2-0.3,2.4,1.2c0.9,1.2,2.1,3.5-0.9,7.9
				l-0.9,1.5L537.8,113.5z"/>
			<path class="st82" d="M543.6,120c-3.6-1.2-5.1-5.8-5.1-5.8c1.5,0,3.5,1.2,5.1,2.4c0,0.1,0,0.2,0,0.3
				C543.4,117.7,543.5,118.9,543.6,120z"/>
			<path class="st63" d="M543.9,118.4c0,0-6.5-1.8-5.4-6.3c1.1-4.5,0.9-7.8,5.1-6.8c4.2,1,4.6,2.9,4.6,4.5
				C548.1,111.4,545.6,118.7,543.9,118.4z"/>
			<path class="st81" d="M546.6,106c0,0-3,4.8-5.9,4.7c-2.9,0-3.9-1.2-3.9-1.2s2.5-1.2,3.7-4.3C540.5,105.2,545.8,103.1,546.6,106z"
				/>
			<path class="st81" d="M546,106.3c0,0,1,1.6,1.1,2.8c0.1,1.2-0.4,3.6,0.3,3.7c0,0,2.2-3.2,1.2-5.7
				C547.5,104.6,546,106.3,546,106.3z"/>
			<path class="st81" d="M546.2,106.6c0,0-2.6,5.2-6.4,5.9c0,0,4.2-2.4,5.4-6C546.4,103,546.2,106.6,546.2,106.6z"/>
			<path class="st1" d="M542.9,115.5c0,0,0.1,0.7,0.5,0.8c0.4,0.2,1.4,0.5,1.5,0.4c0.1-0.1,0.5-0.6,0.5-0.6S543.7,115.4,542.9,115.5
				z"/>
			<path class="st63" d="M540.4,184.4c-0.1,0.4-0.2,0.8-0.2,1.1c-0.5,2.3-0.9,4.4-1.2,6.2c-0.4,2.3-0.5,4,0,4.7
				c1.3,1.9,0.9,11.8,0.5,18.9c-0.2,4.2-0.5,7.5-0.5,7.5l-2.3,2.6c0,0-0.7-4.2-1.6-9.3c-1.2-6.9-2.8-15.4-3.4-17.5
				c-0.5-1.7-1.2-8.7-1.8-15.9c0-0.4-0.1-0.7-0.1-1.1c-0.1-1.3-0.2-2.5-0.3-3.7c-0.6-6.8,0.3-13.2,0.3-13.2s3-2.7,6.8-3.1
				c2.3-0.2,4.4,0.6,5.5,3.7C543.4,169.9,541.9,177.7,540.4,184.4z"/>
			<path class="st82" d="M540.4,184.4c-3.2-2.5-7.6-7.1-9.2-14.5c-0.3-3.7,2.3-7.2,5.2-8.3c2.3-0.2,4.4,0.6,5.5,3.7
				C543.4,169.9,541.9,177.7,540.4,184.4z"/>
			<path class="st63" d="M551.9,139.7l15.5,4.5v2c0,0-15.4-0.2-16.4-2.1C550,142.1,551.9,139.7,551.9,139.7z"/>
			<path class="st63" d="M567.4,206.2l-0.7,3.3c0,0-3.2-1.8-7.3-4.2c-6.3-3.7-14.8-8.8-16.4-10.2c-1.1-0.9-2.5-6-3.9-11.7
				c-2-8.5-3.7-18.5-3.7-18.5s2.9-12.6,10.8-4.9c4.7,4.6,4,13.5,3.5,20.4c-0.3,4.6-0.6,8.4,1,9.4c2.2,1.4,7.7,6.5,11.5,11.5
				c1.4,1.8,2.5,3.6,3.3,5.1L567.4,206.2z"/>
			<path class="st63" d="M567.4,144.1c0,0,2.8-1.6,4-1.7c1.1-0.2,3-0.2,3,0c0,0.2-2,1.6-2.6,1.7c-0.5,0.1-1.6,1-1.3,1.1
				c0.3,0.1,2-0.3,2,0c0,0.3-1,0.5-1.2,0.8c-0.2,0.3-0.8,0.6-1.8,0.4c-1-0.2-2.1-0.2-2.1-0.2V144.1z"/>
			<path class="st71" d="M567.4,191.7c-10,16.1-35.8,17.9-35.8,17.9c-4.2-17.1-2.5-60.2-1.5-76.2c-0.1-2.8,0-5.2,0.5-6.1
				c0.6-1.4,4.1-3.9,5.4-5.1c0,0,0.3-0.1,0.5-0.2c0.2,0.7,2.5,9.5,2.7,9.4c0.2-0.2,4.2-8.5,4.6-9.5c0.4,0,0.7,0,0.8,0
				c0.7,0,4.4,0.9,4.7,1.5c0.1,0.2,1.2,3.4,2.5,7.6c0,0,0,0,0,0c2.5,7.9,6.2,6.4,7.7,8.7c0.9,1.5,0.5,4.2-1.2,6.6
				c-0.1,0.2-0.3,0.4-0.5,0.6c-1.3,1.5-3.1,2.5-6,2c-0.7-0.1-2.2-0.9-3.3-2C551.4,158.6,567.4,191.7,567.4,191.7z"/>
			<path class="st83" d="M536.7,121.5l-1.4,0.9c0,0,3.7,11.7,3.9,11.6c0.2-0.1,5.7-12.2,5.7-12.2l-1.1-0.5l-4.6,10L536.7,121.5z"/>
			<path class="st71" d="M548.2,106.5c0,0-4.7-3-12.6,2.2l0.3-1.4c0.3-1.3,1.1-2.4,2.1-3c1.2-0.7,3-1.4,5.6-1.4
				c1.8,0,3.4,1.1,4.2,2.9L548.2,106.5z"/>
			<g>
				<g>
					<path class="st65" d="M524.6,110.3l-0.1-0.4c4.2-1.4,5.1-6.3,5.3-7.4c0-0.1,0.1-0.3,0.2-0.3l0,0c0.1,0,0.2,0.1,0.2,0.2
						C530,103.7,528.9,108.8,524.6,110.3z"/>
				</g>
				<polygon class="st66" points="524.4,109.9 523.9,109.9 524.1,110.6 524.6,110.3 				"/>
				<path class="st65" d="M523.9,109.9c0,0-0.8,0.2-0.9,0c0,0,0,0.7,0.3,0.9c0,0,0.6,0,0.9-0.2L523.9,109.9z"/>
			</g>
			<path class="st1" d="M536.9,122.6c0,0,1.2,2.5,6.2,0.2l-3.9,8.5L536.9,122.6z"/>
			<path class="st71" d="M535.3,122.4c0,0-0.6,24.2-6,28.8c-0.4,0.3-0.8,0.6-1.2,0.7c-2.7,0.8-4.7-1-6-3.5c-1.8-3.5-2.5-8.2-2.2-9.3
				c0.6-2.1,2,1.6,4.8,0.6c2.9-1,3.7-14,5.7-15.9C531,123.3,535.3,122.4,535.3,122.4z"/>
			<g>
				<path class="st65" d="M509.2,139.6c0,0-0.8-0.5-1.6-1.1c-0.4-0.3-0.7-0.6-0.9-0.9c-0.1-0.2-0.3-0.4-0.3-0.5c0,0,6.5-8.8,7-9.8
					c0.5-1,5.4-9.5,5.4-9.5s0.6,0.3,1.3,0.8c0.3,0.2,0.6,0.4,0.8,0.7c0.5,0.5,1,1,1.3,1.6c0,0-7.2,8.1-7.7,9.3
					C514.1,131.2,509.2,139.6,509.2,139.6z"/>
				<path class="st84" d="M507.7,138.5c-0.4-0.3-0.7-0.6-0.9-0.9c-0.1-0.2-0.3-0.4-0.3-0.5c0,0,6.5-8.8,7-9.8c0.5-1,5.4-9.5,5.4-9.5
					s0.6,0.3,1.3,0.8c0.3,0.2,0.6,0.4,0.8,0.7c-2,2.3-7.4,8.5-7.9,9.6C512.7,129.9,509.1,136,507.7,138.5z"/>
				<path class="st81" d="M514.4,125.5c0,0-1.9,2.1-2.1,3.5l2,1.8c0,0,1.8-1.9,2.3-3.3L514.4,125.5z"/>
			</g>
			<path class="st63" d="M514.9,131c0,0,0.1-1.4-0.2-1.9c-0.3-0.5-0.3-1.9-0.6-1.7c-0.3,0.1-0.1,1.3-0.3,1.8
				c-0.2,0.5-0.4,3.1,0.3,3.5C514.8,133.2,514.9,131,514.9,131z"/>
			<path class="st63" d="M512.9,127.5c0,0-0.8-0.1-1.1,0.5c-0.3,0.6-0.7,1.6-0.1,1.9C512.3,130.2,512.9,127.5,512.9,127.5z"/>
			<path class="st1" d="M539.5,215.3c-0.2,4.2-0.5,7.5-0.5,7.5l-2.3,2.6c0,0-0.7-4.2-1.6-9.3C535,216.2,537.6,217.2,539.5,215.3z"/>
			<path class="st64" d="M541.3,226.7l-1.2,0.7c-0.5,0.2-0.8,0.2-1.3,0.4c-0.7,0.3-1.2,0.9-1.2,1c-0.4,1.6-0.8,1.5-0.8,1.5l-5,0.1
				c-0.2-0.1,0.2-1.3,0.4-1.5c0.5-0.5,1.9-0.3,2.4-1.9c0.3-0.9,1.7-3.8,1.7-3.8l0,0c0,0,0.3-0.1,1.8,0.2c0.7,0.2,1.1-1.5,1.1-1.5
				s0.2,0.1,0.5,0.3c0.2,0.2,0.4,0.4,0.6,0.8c0.2,0.6,0.9,1.4,1.4,2c0.3,0.3,0.6,0.6,0.6,0.6S542.3,225.9,541.3,226.7z"/>
			<path class="st1" d="M567.4,206.2l-0.7,3.3c0,0-3.2-1.8-7.3-4.2c1.6-1.1,2.4-2.8,2.7-4c1.4,1.8,2.5,3.6,3.3,5.1L567.4,206.2z"/>
			<path class="st64" d="M571.6,207.5C571.6,207.5,571.6,207.5,571.6,207.5c-0.1,0-0.5-0.2-0.8-1c-0.2-0.5-0.2-0.9-0.4-1.4l-0.7-1.4
				c-0.7-1.1-1-0.8-1-0.8s-0.2,0.3-0.5,0.6c-0.5,0.6-1.2,1.4-1.7,1.7c-0.4,0.2-0.6,0.4-0.7,0.6c-0.2,0.3-0.2,0.6-0.2,0.6
				s1.5,0.3,1.4,1.1c-0.3,1.6-0.2,1.9-0.2,2l0,0c0,0,2.6,1.5,3.4,1.8c1.5,0.5,2.2,1.6,2.7,2.2c0.2,0.2,0.5,0.3,0.7,0.3
				c0.4-0.1,0.9-0.2,1-0.5L571.6,207.5z"/>
			<path class="st64" d="M538.2,138.8c0-0.5,0.3-0.8,0.7-0.8s0.7,0.4,0.7,0.8c0,0.5-0.3,0.8-0.7,0.8S538.2,139.2,538.2,138.8z"/>
			<path class="st64" d="M538.2,145c0-0.5,0.3-0.8,0.7-0.8s0.7,0.4,0.7,0.8c0,0.5-0.3,0.8-0.7,0.8S538.2,145.4,538.2,145z"/>
			<path class="st64" d="M558.4,146.2c-0.1,0.2-0.3,0.4-0.5,0.6c-1.3,1.5-3.1,2.5-6,2c-0.7-0.1-2.2-0.9-3.3-2c0,0-2.4-7.2-2.1-8.3
				c0.3-1,4.9,6.9,8.7,7.3C556.7,145.9,557.7,146.1,558.4,146.2z"/>
			<path class="st64" d="M530.4,140.6l-1.1,10.6c-0.4,0.3-0.8,0.6-1.2,0.7c-2.7,0.8-4.7-1-6-3.5c1.4,0.2,4.7,0.5,5.5-1.1
				C528.5,145.3,530.4,140.6,530.4,140.6z"/>
		</g>
		<g>
			<path class="st85" d="M464.9,82.7c0,0,1.3-1.4,1.7-2.3c0.3-0.9,0.3-2.5,0.3-3.6c0,0-0.4-0.2-0.5,0.3c-0.1,0.5-0.3,1.6-0.7,1.9
				c-0.4,0.2-1.2,0.2-1.4,1.4C464.2,81.5,464.9,82.7,464.9,82.7z"/>
			<path class="st85" d="M461.9,82.9c0,0-1.2-2.8-1-3.7c0.2-0.9,4-1.9,4.5-1.5c0.5,0.4,0,5.6,0,5.6L461.9,82.9z"/>
			<path class="st85" d="M501.4,167c0,0-0.2,2.3,0.5,3.4c0.7,1.1,1.1,2.1,1.3,1.6c0.2-0.5-0.4-2.2-0.2-2.2c0.2,0,0.8,2.1,1.1,2.7
				c0.3,0.6,0.9,1.6,1.3,1.1c0.4-0.5-0.4-5.2-0.7-5.8c-0.3-0.6-1-1.9-1-1.9L501.4,167z"/>
			<polygon class="st64" points="475.6,97.5 489.9,88.5 499.5,101.8 486.4,108.9 			"/>
			<path class="st81" d="M481.6,101.7c0,0-0.3,1.4-1.1,1.9c-0.8,0.5,0.5,1.9,0.1,2.9c-0.3,1,1,2.3,1,2.3l9.2,1.2
				c0,0,1.4-0.7,1.5-2.4c0.1-1.8,0.3-4,0.3-4l-4-3.4l-5.8,0.3L481.6,101.7z"/>
			<g>
				<path class="st65" d="M450.5,84.6c0,0-0.4-1.1-0.7-2.3c-0.1-0.6-0.2-1.1-0.3-1.6c0-0.3,0-0.5,0-0.8c0,0,11.9-2.7,13.1-3.3
					c1.2-0.5,11.4-4.4,11.4-4.4s0.4,0.8,0.7,1.9c0.1,0.4,0.2,0.9,0.3,1.3c0.2,0.8,0.3,1.7,0.1,2.5c0,0-12.1,1.6-13.3,2.3
					C460.7,80.8,450.5,84.6,450.5,84.6z"/>
				<path class="st84" d="M449.8,82.2c-0.1-0.6-0.2-1.1-0.3-1.6c0-0.3,0-0.5,0-0.8c0,0,11.9-2.7,13.1-3.3c1.2-0.5,11.4-4.4,11.4-4.4
					s0.4,0.8,0.7,1.9c0.1,0.4,0.2,0.9,0.3,1.3c-3.4,0.5-12.6,1.8-13.8,2.4C460.2,78.4,452.9,81.1,449.8,82.2z"/>
				<path class="st81" d="M464.7,75.8c0,0-3.2,0.3-4.3,1.5l0.7,3.3c0,0,2.9-0.3,4.4-1.2L464.7,75.8z"/>
			</g>
			<path class="st64" d="M467.6,230.4c0,0,0-2.1,0.3-2.8c0.3-0.7,1.3-3.6,1.3-3.6h3.9c0,0,0.7,2.6,0.8,3.5c0,0.9,0,2.9,0,2.9H467.6z
				"/>
			<path class="st64" d="M492.4,230.4c0,0,0-2.1-0.3-2.8c-0.3-0.7-1.3-3.6-1.3-3.6h-3.9c0,0-0.7,2.6-0.8,3.5c0,0.9,0,2.9,0,2.9
				H492.4z"/>
			<path class="st85" d="M482.6,110.3c0,0-0.8,4.7-1.6,6.7l-4.7,2.6l6.6,14.6l9.1-9.1l-3-6.6c0,0-0.3-6.5,0.6-8.7
				C490.5,107.5,482.6,110.3,482.6,110.3z"/>
			<path class="st86" d="M482.5,111c0,0,0.8,3.6,3.2,4c2.4,0.3,3.4-2.6,3.4-2.6L482.5,111z"/>
			<path class="st85" d="M485.6,113.6c-1.7-0.3-4.6-3.5-4.1-6.6l0.7-5c0.2-1.2,1-2,1.9-1.8l6.6,1.1c0.9,0.2,1.5,1.2,1.3,2.4
				l-0.6,4.7C490.9,111.7,487.6,114,485.6,113.6z"/>
			<path class="st83" d="M468.1,156.5c0-0.6,0.7,23.1-0.3,36.6c-1,13.3,0,31.8,0,31.8s3.3,2,6.8,0c0,0,3.9-25.7,3.9-31.8
				c0-6.5,4.2-35.5,4.2-35.5L468.1,156.5z"/>
			<path class="st83" d="M492.2,224.8c0,0-3.3,2-6.8,0c0,0-3.9-25.7-3.9-31.8c0-2.7-0.7-9.5-1.6-16.4c-1.2-9.4-2.6-19.1-2.6-19.1
				l15.1-1.1c0,0-1.2,23.3-0.2,36.6C493.3,206.4,492.2,224.8,492.2,224.8z"/>
			<g>
				<g>
					<path class="st87" d="M484.2,107.3c-0.6-0.1-1.9-0.5-2-1.8c0-0.4,0.1-0.7,0.3-0.9c0.2-0.2,0.6-0.4,1-0.3l2,0.3
						c0.4,0.1,0.6,0.2,0.7,0.5c0.2,0.4-0.1,1-0.2,1.2c-0.4,0.8-0.9,1.1-1.5,1C484.5,107.3,484.4,107.3,484.2,107.3z M483.5,104.4
						c-0.4-0.1-0.7,0-0.9,0.2c-0.2,0.2-0.3,0.5-0.3,0.8c0,0.7,0.4,1.1,1.1,1.4c0.5,0.2,1.1,0.2,1.1,0.2l0,0c0.5,0.1,1-0.2,1.4-0.9
						c0.1-0.2,0.4-0.7,0.2-1.1c-0.1-0.2-0.3-0.4-0.6-0.4L483.5,104.4z"/>
				</g>
				<g>
					<path class="st87" d="M488.7,108.1c-0.2,0-0.3-0.1-0.4-0.1c-0.6-0.1-1-0.6-1.2-1.4c-0.1-0.3-0.2-0.9,0.1-1.3
						c0.2-0.2,0.5-0.3,0.8-0.2l2,0.3c0.4,0.1,0.7,0.3,0.9,0.6c0.2,0.3,0.2,0.6,0.1,1C490.7,108.2,489.4,108.2,488.7,108.1z
						 M488.2,105.2c-0.3-0.1-0.6,0-0.7,0.2c-0.3,0.3-0.1,0.9-0.1,1.1c0.2,0.8,0.5,1.2,1.1,1.3l0,0c0,0,0.5,0.2,1.1,0.1
						c0.8,0,1.2-0.4,1.5-1c0.1-0.3,0.1-0.6,0-0.9c-0.1-0.3-0.4-0.5-0.8-0.5L488.2,105.2z"/>
				</g>
				<g>
					<path class="st87" d="M486,105.7C486,105.7,485.9,105.7,486,105.7c-0.1-0.1-0.1-0.2,0-0.2c0,0,0.9-0.3,1.5,0.3c0,0,0,0.1,0,0.1
						c0,0-0.1,0-0.1,0C486.8,105.5,486,105.7,486,105.7C486,105.7,486,105.7,486,105.7z"/>
				</g>
			</g>
			<path class="st1" d="M484.3,119.6l-4.5-2.2c0,0-2.3,20.5,0.8,21.8c0,0,8.8-17.4,8.2-19.7L484.3,119.6z"/>
			<path class="st69" d="M481.4,116.1c0,0-1.3,0.2-1.9,0.9c0,0,1,3.5,3.5,4.5l1.1-2C484.1,119.6,482,118.5,481.4,116.1z"/>
			<path class="st69" d="M484.1,119.6c0,0,4.2-0.2,4.8-2.4c0,0,0.8,1,0.8,2.5c0,0-1.3,2.2-4.6,2.2L484.1,119.6z"/>
			<path class="st73" d="M484.4,110.1c0,0,2.2,0.1,3.2,0.5c0,0-0.7,0.9-1.6,0.7C485.2,111.2,484.6,110.8,484.4,110.1z"/>
			<path class="st85" d="M468.8,102.8c-2,1.4-4.8,3.3-7,4.8c-0.1-0.4-0.2-0.8-0.2-1.1c-0.7-5.3,0.3-23.6,0.3-23.6s0.7-0.4,1.5-0.5
				c1.5-0.1,2,1,2,1S467.9,99.5,468.8,102.8z"/>
			<path class="st71" d="M504.3,166.6l-1.5,0.7c-2.4,1-5-0.3-5.8-3.1c-1.1-3.7-1.2-7.6-1.6-10.9c-0.2-1.6-0.4-4.9-1.3-7.5
				c0,0,0,0,0,0l1.5,57c-22.8,1.8-33.9-12.8-33.9-12.8c-0.6-15.4,4.9-50.2,7-62.3c-1-2.4-7.9-9.5-9-16.4c-0.5-3.2,1.1-5.5,3.2-7
				c2.6-1.9,5.7-2.7,5.7-2.7l7.4,11c0.3,0.4,0.5,0.7,0.6,0.9c0.6,1.3,3.5,3.4,3.5,3.4c0,0.1,0.3,18.5,0.9,19.1
				c0.9-0.4,6.7-13.4,8-17.7c1.9,0.6,3.9,1.3,6,2.4c0,0,4,2.4,4.6,12.7c0.5,8.8,5.3,20,6.4,30.2C506,165,505.4,166.2,504.3,166.6z"
				/>
			<path class="st81" d="M479.2,116.4c0,0,0.5,17.9,1.2,22.4l10.2-19.7l-1.4-0.6l-8.1,16.4l-0.8-17.8L479.2,116.4z"/>
			<path class="st1" d="M481.4,115.7c0,0-1.3,0.2-1.9,0.9c0,0,1,3.5,3.5,4.5l1.1-1.6C484.1,119.6,482,118.1,481.4,115.7z"/>
			<path class="st1" d="M484.1,119.6c0,0,4.2-0.6,4.8-2.8c0,0,0.8,1,0.8,2.5c0,0-1.3,2.2-4.6,2.2L484.1,119.6z"/>
			<ellipse class="st64" cx="478.7" cy="140.7" rx="0.8" ry="0.8"/>
			<path class="st64" d="M476.6,148.3c0-0.5,0.3-0.8,0.8-0.8c0.4,0,0.8,0.4,0.8,0.8c0,0.5-0.3,0.8-0.8,0.8
				C476.9,149.2,476.6,148.8,476.6,148.3z"/>
			<g>
				<g>
					<path class="st65" d="M476.6,105.9l0.3-0.3c-2.5-3-1.4-6.9-1-7.8c0-0.1,0-0.2-0.1-0.3l0,0c-0.1-0.1-0.2-0.1-0.3,0.1
						C475.1,98.6,474,102.8,476.6,105.9z"/>
				</g>
				<polygon class="st66" points="476.9,105.7 477.3,105.9 476.8,106.4 476.6,105.9 				"/>
				<path class="st65" d="M477.3,105.9c0,0,0.5,0.5,0.7,0.4c0,0-0.3,0.5-0.5,0.5c0,0-0.5-0.3-0.6-0.5L477.3,105.9z"/>
			</g>
			<path class="st81" d="M481.8,102.8c0,0,1.8,0.1,2.3-0.9c0,0,1.4,0.4,2.1-0.2c0,0,2.2,0.5,2.3-0.5c0,0,1.7,3.8,3.6,3
				c1.9-0.8-3-4.6-3-4.6l-6.3,0.9L481.8,102.8z"/>
			<path class="st71" d="M481.9,100l-0.4,1.8c0,0,4.9-2,11,1.9l-0.1-2.8c0-0.6-0.2-1.1-0.6-1.4c-1.1-1-3.7-3-8.5-1.4
				C482.6,98.2,482.1,99.2,481.9,100z"/>
			<path class="st85" d="M460.3,78.3c0-0.1-0.3-0.9,0.1-1.6c0.4-0.7,3.4-1.8,3.6-1.2c0.3,0.6,0.1,2.5-0.8,3
				C462.3,78.9,460.4,78.7,460.3,78.3z"/>
			<path class="st64" d="M468.7,127.8c-1-2.4-7.9-9.5-9-16.4c-0.5-3.2,1.1-5.5,3.2-7c0,0-1,4.8,1.8,9.2
				C467.3,118,468.7,127.8,468.7,127.8z"/>
			<path class="st64" d="M502.8,167.3c-2.4,1-5-0.3-5.8-3.1c-1.1-3.7-1.2-7.6-1.6-10.9c-0.2-1.6-0.4-4.9-1.3-7.5
				c0.1,0.1,2.7,4.8,5.1,12.3C501.6,165.7,500.8,166.9,502.8,167.3z"/>
		</g>
		<path class="st88" d="M595.4,230.3h-12.9c-0.7-0.7,0.5-2.1,1.7-2.2c0.5,0,1.2,0.1,2,0.3c0.2-2.6,1.2-14.4,5-13.9
			c4.3,0.5,0,5.2-1.2,8c-0.9,2-1.8,5-2.3,6.4c0.3,0.1,0.7,0.2,1.1,0.2c0.6-1.9,2.7-8.5,5.4-8.1c3.2,0.4,1.9,3.1-0.3,4.6
			c-1.6,1.1-3.7,2.8-4.6,3.6c0.8,0.1,1.7,0.2,2.5,0.2C593.9,229.1,595,229.9,595.4,230.3z"/>
		<g>
			<path class="st63" d="M413.4,185c0.9-1.6-6.8-19.2-2.7-29.1c0.5-1.2,10.1,0.6,10.1,0.6s2,24.8,0.9,31.4c-0.8,4.6-2.3,18.3-3.1,26
				c0,0,0,0,0,0.1c-0.2,1.8-0.4,3.3-0.5,4.2c-0.1,0.7,0,1.4,0.2,2c0.6,1.9,1.9,5.7,2.6,6.3c0,0-3.6,1.2-4.3,0.7
				c-0.7-0.5-2.5-7.6-2.5-7.6c0.3-0.7,0.4-1.4,0.3-2.2c-0.1-1-0.3-2.5-0.6-4.4c0,0,0,0,0,0c0,0,0,0,0,0
				C410.7,198.9,411.2,188.8,413.4,185z"/>
			<path class="st63" d="M392.9,216.6c0.5-0.5,0.8-1.2,1-1.9c0.2-1,0.5-2.5,0.8-4.3l0,0c1.5-14.4,5.2-23.7,8.4-26.4
				c1.4-1.1-0.2-20.7,6.7-28.2c0.9-0.9,9.3,4.5,9.3,4.5s-6,24-9.1,29.7c-2.2,4-8,16.2-11.2,23.1c0,0,0,0,0,0c0,0,0,0,0,0
				c-0.8,1.6-1.4,3-1.8,3.8c-0.3,0.6-0.4,1.3-0.4,2c0,2-0.3,7.3,0.4,7.8c0.4,0.3,0.8,0.6,1.1,0.9c0,0-3.3-0.3-3.7-0.3
				c-0.4,0-2.9-8.9-3-9c0,0,0,0,0,0C392,217.6,392.5,217,392.9,216.6z"/>
			<polygon class="st64" points="389.9,221.4 389,226.9 389.5,227.2 392.1,223 			"/>
			<path class="st71" d="M390,221.9c2.8,1.7,3.3,7.2,3.7,8.4l5.2,0c0.8-0.3,0.5-1.5-0.7-2.7c0,0-3.3-0.3-3.7-0.3c-0.4,0-2.9-8.9-3-9
				C390.3,219.6,389.2,221.4,390,221.9z"/>
			<path class="st83" d="M394.5,203.5c0.2,6.9,12.6,5.6,12.6,5.6l1.6-8.8l1.1-5.9l0.4-1.9l-0.5-0.3l-7.9-4.2l-2.5-1.3l-0.1,0.3
				l-4.2,14.8l0,0L394.5,203.5z"/>
			<path class="st89" d="M395,201.9c3.6-4.1,13.8-1.6,13.8-1.6l1.1-5.9l-0.2-2.2l-7.9-4.2l-2.6-1L395,201.9L395,201.9z"/>
			<polygon class="st64" points="413.2,225.1 413.9,230.3 414.6,230.3 415,226.2 			"/>
			<path class="st71" d="M413.2,225.1c1.6,0.8,3.3,4.2,4.1,5.2l6.6,0.1c0.8-0.7-2-3.2-2.9-3.9c0,0-3.6,1.2-4.3,0.7
				c-0.7-0.5-2.5-7.6-2.5-7.6C413.4,221.2,412,224.5,413.2,225.1z"/>
			<path class="st83" d="M410.2,189.9l1.6,19.9c3,4.3,11,1.6,11,1.6s0.6-16.5,0.9-17.1l-1.2-0.4L410.2,189.9z"/>
			<path class="st89" d="M410.2,189.9l1.6,19.9c0.1-9.8,11.4-8.8,11.4-8.8l-0.7-7L410.2,189.9z"/>
			<polygon class="st64" points="424.1,96.4 407.4,89 398.1,99 413.9,105.9 			"/>
			<path class="st68" d="M416.3,99.8c0,0,0,2.2,1.5,2.9c3,1.4,0.1,3.1,3.1,5.4c0.7,0.5,1.2,3.9-3.5,4.4c-4.7,0.5-5.3,0.9-5.3,0.9
				s-3.5,2.5-7.4-0.1c-2.2-1.5,0.6-5.6-0.4-6.7c-1.4-1.4-1.6-6.1,0.4-8c2-1.9,5.3-3,5.3-3L416.3,99.8z"/>
			<g>
				<g>
					<path class="st65" d="M429.5,104.6l0.1-0.5c-4.5-1.5-5.4-6.6-5.6-7.8c0-0.2-0.1-0.3-0.3-0.3l0,0c-0.1,0-0.3,0.1-0.2,0.2
						C423.8,97.6,424.9,103,429.5,104.6z"/>
				</g>
				<polygon class="st66" points="429.6,104.1 430.2,104.1 430,104.9 429.5,104.6 				"/>
				<path class="st65" d="M430.2,104.1c0,0,0.8,0.3,1,0c0,0,0,0.8-0.3,1c0,0-0.7,0-0.9-0.2L430.2,104.1z"/>
			</g>
			<path class="st63" d="M417.3,113.8c-0.3,0-1.3-0.9-1.8-2.3c-0.5-1.6-1-3.4-1-3.4l-1.4,0.3l-3.9,0.7l-0.3,0.1
				c0.3,0.9,0.5,1.8,0.7,2.6c0.3,1.4,0.4,2.6,0.4,3.5c0,0.9-0.5,1.2-0.7,1.3c-0.1,0.1,4.1,15.4,6.1,14.6
				C417.1,130.6,417.5,113.8,417.3,113.8z"/>
			<path class="st82" d="M409.9,115.2c2.3-1,4.6-7.1,4.6-7.1c-0.5-0.1-1,0-1.4,0.3c-1.3,0.6-2.6,1.9-3.5,3.3
				C409.9,113.1,410,114.3,409.9,115.2z"/>
			<path class="st63" d="M408.4,112.8c0,0,6.9-1.3,6.1-6c-0.8-4.8-0.4-8.2-4.8-7.6c-4.4,0.6-5,2.6-5.1,4.3
				C404.6,105.1,406.6,113,408.4,112.8z"/>
			<path class="st63" d="M407.8,117.2c0,0-11.7-3.9-12.5-5c-0.8-1.1-2.8-15.5-2.8-17.6l-1.7,0.3c0,0-1.3,16.4,0.2,20.2
				c1.5,3.7,16.2,9.6,16.2,9.6L407.8,117.2z"/>
			<path class="st83" d="M417,113.7c0,0-1.4,5-7,1.8l5.9,14.5l1.5-12.9L417,113.7z"/>
			<path class="st63" d="M421.7,115.1c0,0-0.7,2.6,12.8,10.8l10-7.6l1.2,1.1c0,0-9.6,12.8-11,12.6c-1.5-0.3-11.7-7.8-11.7-7.8
				L421.7,115.1z"/>
			<path class="st71" d="M385,179.4c0,0,0.4,1.3,1.2,3.2c1.4,3.2,4.3,8.1,9,11.1c5.4,3.3,22.7,9.7,34.6,6.6c0,0-1.1-42.1-3.6-59.4
				c-0.1-0.4-0.1-0.8-0.2-1.2c0.7,3.1,4.5,4.1,6,3.6c3.4-1.3,4.5-4.2,4.7-7.3c0.2-4.7-1.9-9.9-2.1-10c-5.5-3.5-6.5-9-9.2-11
				c-2.4-1.8-8.1-1.3-8.4-1.3l-1.2,13.8l-5.8-12c0,0-9.3-0.9-14.6-3.3c0,0-15.6,24.1,3.7,23.8c0,5.6-2.3,10.6-4.6,18.1
				C392.3,161.5,385,179.4,385,179.4z"/>
			<path class="st1" d="M410,109.3c0,0-0.1,0.8-0.5,1c-0.4,0.2-1.6,0.6-1.7,0.5c-0.1-0.1-0.6-0.7-0.6-0.7S409,109.2,410,109.3z"/>
			<path class="st63" d="M392.5,94.6c0,0,0.7-0.6,0.3-2.1c-0.3-1-0.1-1.8-0.3-1.8c-0.2,0-0.4,1.3-0.5,1.7c-0.1,0.3-1.7-3-2.1-2.7
				c-0.4,0.3-1.2,1.6,0.7,6L392.5,94.6z"/>
			<path class="st63" d="M444.5,118.3c0,0,1.1-2.8,1.4-3.4c0.7-1.1,2.7-1.9,2.8-1.4c0.1,0.5-1.3,1.3-1.3,2.4c0,0.3,0.6-0.3,0.9-0.5
				c0.2-0.1,0.4,0,0.2,0.2c-0.6,1-0.9,1.9-1.5,2.3c-0.6,0.4-1.4,1.5-1.4,1.5L444.5,118.3z"/>
			<polygon class="st90" points="417,113.7 415.7,127.5 409.9,115.2 407.8,115.2 416.3,132.5 418.5,113.6 			"/>
			<path class="st68" d="M405.6,99.3c0,0-2,2.7,4.4,4c2.1,0.4,3.1,2.6,2.5,4.5c-0.8,2.8,1.3,5.8,4.4,4.7c2.5-0.9-1.5-13.6-3.7-13.8
				C410.9,98.4,405.6,99.3,405.6,99.3z"/>
			<path class="st68" d="M407.8,99.9c0,0-2.1,1.6-2.2,3c-0.2,1.3-0.7,3.2-1.4,1.9c-0.8-1.3-0.9-3.1,0-4.3c0.9-1.2,3-1.8,3.4-1.3
				C408,99.5,407.8,99.9,407.8,99.9z"/>
			<path class="st71" d="M404.2,99.2c0,0,3.9-3.8,12.2,1.8l0.1-2.3c-0.3-1.4-0.7-1.4-1.8-2c-1.3-0.7-3.2-1.5-6-1.5
				c-1.9,0-3-0.3-3.9,1.6L404.2,99.2z"/>
			<g>
				<path class="st65" d="M456.1,125.5c0,0,0.7-0.9,1.4-1.9c0.3-0.5,0.6-1,0.7-1.4c0.1-0.3,0.2-0.5,0.2-0.7c0,0-10.4-7-11.3-8
					c-0.9-0.9-9.4-8.4-9.4-8.4s-0.6,0.6-1.2,1.5c-0.2,0.3-0.5,0.7-0.7,1.1c-0.4,0.7-0.8,1.5-0.9,2.3c0,0,10.9,6,11.9,7.1
					C447.7,118.2,456.1,125.5,456.1,125.5z"/>
				<path class="st84" d="M457.5,123.5c0.3-0.5,0.6-1,0.7-1.4c0.1-0.3,0.2-0.5,0.2-0.7c0,0-10.4-7-11.3-8c-0.9-0.9-9.4-8.4-9.4-8.4
					s-0.6,0.6-1.2,1.5c-0.2,0.3-0.5,0.7-0.7,1.1c3.1,1.7,11.4,6.4,12.2,7.4C448.8,116,454.9,121.3,457.5,123.5z"/>
				<path class="st81" d="M445.4,111.9c0,0,2.9,1.5,3.6,3l-1.6,2.9c0,0-2.7-1.4-3.8-2.8L445.4,111.9z"/>
			</g>
			<path class="st63" d="M447.1,117.9c0,0,0.7-0.3,1.2-0.9c0.4-0.6,1-1.6,0.3-1.3c-0.7,0.2-2,1.3-2.5,1.4c-0.5,0.1-0.3,0.5-0.3,0.6
				C445.6,117.7,447.1,117.9,447.1,117.9z"/>
			<path class="st64" d="M385,179.4c0,0,0.4,1.3,1.2,3.2c3.1-3.7,7.5-9.6,10.5-16.7c5.2-12.2,2.3-29.9,2.3-29.9
				c0,5.6-2.3,10.6-4.6,18.1C392.3,161.5,385,179.4,385,179.4z"/>
			<path class="st64" d="M417.3,137.5c0-0.3-0.2-0.6-0.5-0.6s-0.5,0.3-0.5,0.6c0,0.3,0.2,0.6,0.5,0.6S417.3,137.8,417.3,137.5z"/>
			<path class="st64" d="M417.3,148.1c0-0.3-0.2-0.6-0.5-0.6s-0.5,0.3-0.5,0.6c0,0.3,0.2,0.6,0.5,0.6S417.3,148.4,417.3,148.1z"/>
			<path class="st64" d="M426.2,140.8c-0.1-0.4-0.1-0.8-0.2-1.2c0.7,3.1,4.5,4.1,6,3.6c3.4-1.3,4.5-4.2,4.7-7.3
				c-0.4,0.2-5.8,3.3-8.3,1.5c-2.6-1.9-4.2-6.1-4.2-6.2L426.2,140.8z"/>
		</g>
		<g>
			<path class="st91" d="M536,84c0,0-1.5,1.3-3.3,1.2c-1.3-0.1-2.7-1.4-2.7-1.4l-1,2.1c0,0,2.4,1.5,4.5,0.9c0.6-0.2,1.6-0.9,2-1.5
				C536,84.7,536,84,536,84z"/>
			<path class="st92" d="M535.7,79.8l2.6-1.3c0,0-0.1,6.1-4.5,8.2C533.8,86.6,536.5,82.3,535.7,79.8z"/>
		</g>
		<g>
			<path class="st91" d="M263.8,139.4c0,0-1.5,1.3-3.3,1.2c-1.3-0.1-2.7-1.4-2.7-1.4l-1,2.1c0,0,2.4,1.5,4.5,0.9
				c0.6-0.2,1.6-0.9,2-1.5C263.8,140.1,263.8,139.4,263.8,139.4z"/>
			<path class="st92" d="M263.6,135.2l2.6-1.3c0,0-0.1,6.1-4.5,8.2C261.6,142,264.3,137.7,263.6,135.2z"/>
		</g>
		<g>
			<path class="st93" d="M470.2,44.4c0,0,3.7-2.9,6.5,1.4l3.1-1.5c0,0-1.5-2.7-7.5-1.5C468.5,43.7,470.2,44.4,470.2,44.4z"/>
			<path class="st94" d="M466.6,47.2c0,0,1-4.7,8.7-4.7c0,0-2.9,0.3-5.1,4.5L466.6,47.2z"/>
		</g>
		<path class="st95" d="M445.8,63.2c0,0-2.1-1.5-2.3-3.2c0,0-2,0.1-2.4,0.8c0,0,0.9,2.9,2,3.4C443.1,64.3,445.5,64.5,445.8,63.2z"/>
		<path class="st95" d="M582.3,185.5c0,0-2.1-1.5-2.3-3.2c0,0-2,0.1-2.4,0.8c0,0,0.9,2.9,2,3.4C579.6,186.6,582.1,186.7,582.3,185.5
			z"/>
		<path class="st95" d="M246.1,181.4c0,0-2.1-1.5-2.3-3.2c0,0-2,0.1-2.4,0.8c0,0,0.9,2.9,2,3.4C243.4,182.5,245.8,182.7,246.1,181.4
			z"/>
	</g>
</g>
</svg>
