<?xml version="1.0" encoding="utf-8"?>
<!-- Generator: Adobe Illustrator 16.0.0, SVG Export Plug-In . SVG Version: 6.00 Build 0)  -->
<!DOCTYPE svg PUBLIC "-//W3C//DTD SVG 1.1//EN" "http://www.w3.org/Graphics/SVG/1.1/DTD/svg11.dtd">
<svg version="1.1" xmlns="http://www.w3.org/2000/svg" xmlns:xlink="http://www.w3.org/1999/xlink" x="0px" y="0px"
	 width="450.889px" height="391.333px" viewBox="0 0 450.889 391.333" enable-background="new 0 0 450.889 391.333"
	 xml:space="preserve">
<g id="Floor">
	<path fill="#F5F5F5" d="M69.338,349.821c87.285,45.599,228.803,45.6,316.087,0.001c87.285-45.6,87.285-119.529,0-165.127
		c-87.285-45.599-228.803-45.599-316.088-0.001C-17.948,230.292-17.948,304.222,69.338,349.821z"/>
</g>
<g id="Shadows">
	<path fill="#EBEBEB" d="M34.588,290.871c21.228,10.118,55.643,10.118,76.871,0c21.228-10.115,21.228-26.52,0-36.638
		c-21.228-10.116-55.643-10.116-76.871,0C13.361,264.351,13.361,280.755,34.588,290.871z"/>
</g>
<g id="Plant">
</g>
<g id="Clouds">
	<g id="XMLID_16493_">
		<g id="XMLID_16497_">
			<path fill="#EBEBEB" d="M325.878,24.775l3.835,1.475v-8.448c0-6.697,5.342-8.302,11.141-4.954l0,0
				c5.8,3.349,10.502,11.492,10.502,18.188v1.227c1.315-0.525,3.015-0.321,4.873,0.751l0,0c4.173,2.41,7.557,8.27,7.557,13.088
				v0.558l5.347,3.087c2.748,1.587,4.977,5.446,4.977,8.619s-2.229,4.46-4.977,2.873l-43.254-24.973
				c-2.748-1.586-4.977-5.445-4.977-8.619C320.901,24.475,323.13,23.189,325.878,24.775z"/>
		</g>
		<g id="XMLID_16494_">
			<path fill="#EBEBEB" d="M369.292,27.578l6.951,4.014c-0.034-0.311-0.059-0.619-0.059-0.92v-2.014c0-3.584,2.516-5.037,5.62-3.245
				c1.257,0.726,2.413,1.876,3.35,3.221c0.508-4.507,4.044-6.186,8.338-3.706c4.644,2.681,8.408,9.201,8.408,14.563v3.013
				c0,1.389-0.257,2.558-0.712,3.49l5.773,3.333c1.723,0.994,3.118,3.412,3.118,5.399c0,1.988-1.396,2.794-3.118,1.8l-37.67-21.75
				c-1.723-0.994-3.118-3.411-3.118-5.399C366.174,27.389,367.569,26.583,369.292,27.578z"/>
		</g>
	</g>
</g>
<g id="Signal">
	<g id="XMLID_16334_">
		<g id="XMLID_16330_">
			<g id="XMLID_16311_">
				<polygon fill="#455A64" points="227.459,30.615 263.938,9.554 272.063,14.244 263.938,28.315 227.459,49.376 				"/>
			</g>
			<g id="XMLID_16326_">
				<polygon fill="#37474F" points="263.938,9.554 259.876,7.208 223.318,28.316 227.459,30.615 				"/>
			</g>
			<g id="XMLID_16327_">
				<path fill="#FFFFFF" d="M232.755,40.047c-0.428,0.15-0.77,0.211-1.025,0.185c-0.082-0.009-0.121-0.036-0.121-0.08
					c0-0.043,0.012-0.088,0.037-0.134l0.309-0.665c0.037-0.078,0.072-0.125,0.104-0.144c0.031-0.018,0.07-0.025,0.121-0.023
					c0.23,0.003,0.498-0.04,0.805-0.133c0.305-0.092,0.615-0.229,0.926-0.409c0.426-0.245,0.744-0.5,0.959-0.764
					c0.215-0.265,0.324-0.554,0.324-0.865c0-0.188-0.041-0.313-0.123-0.379c-0.08-0.065-0.199-0.094-0.354-0.085
					c-0.158,0.009-0.41,0.046-0.76,0.111l-0.215,0.039c-0.406,0.072-0.74,0.11-1.006,0.113c-0.266,0.004-0.484-0.065-0.658-0.208
					c-0.176-0.142-0.264-0.389-0.264-0.737c0-0.568,0.217-1.131,0.65-1.691c0.434-0.559,1.002-1.042,1.709-1.449
					c0.43-0.249,0.801-0.422,1.117-0.523c0.314-0.101,0.588-0.133,0.818-0.099c0.074,0.013,0.113,0.044,0.113,0.094
					c0,0.037-0.014,0.079-0.039,0.125l-0.299,0.659c-0.037,0.078-0.068,0.125-0.094,0.139c-0.025,0.015-0.064,0.02-0.121,0.014
					c-0.398-0.025-0.895,0.133-1.488,0.475c-0.393,0.227-0.689,0.47-0.889,0.729s-0.299,0.544-0.299,0.855
					c0,0.193,0.043,0.323,0.125,0.39c0.086,0.067,0.209,0.094,0.371,0.082s0.424-0.055,0.785-0.126l0.234-0.042
					c0.455-0.081,0.811-0.12,1.066-0.115c0.256,0.005,0.453,0.081,0.594,0.227c0.141,0.147,0.211,0.398,0.211,0.753
					c0,0.537-0.201,1.075-0.604,1.616c-0.402,0.542-0.975,1.026-1.717,1.455C233.616,39.695,233.181,39.897,232.755,40.047z"/>
				<path fill="#FFFFFF" d="M237.938,36.33c-0.553-0.261-0.83-0.919-0.83-1.974c0-1.054,0.277-2.031,0.83-2.93
					c0.551-0.898,1.342-1.645,2.371-2.239c1.023-0.591,1.813-0.756,2.367-0.497s0.832,0.917,0.832,1.97
					c0,1.055-0.277,2.033-0.832,2.933s-1.344,1.646-2.367,2.237C239.28,36.425,238.489,36.591,237.938,36.33z M241.806,33.464
					c0.344-0.613,0.516-1.319,0.516-2.118c0-0.798-0.172-1.304-0.516-1.517c-0.342-0.214-0.842-0.132-1.496,0.246
					s-1.156,0.873-1.502,1.485c-0.346,0.611-0.52,1.316-0.52,2.114c0,0.799,0.174,1.305,0.52,1.521
					c0.346,0.215,0.848,0.133,1.502-0.245S241.464,34.078,241.806,33.464z"/>
				<path fill="#FFFFFF" d="M245.737,32.411c-0.432,0.059-0.766-0.024-1.002-0.249c-0.238-0.225-0.355-0.581-0.355-1.067v-3.771
					c0-0.118,0.025-0.221,0.078-0.308c0.055-0.086,0.143-0.166,0.268-0.238l0.496-0.286c0.125-0.072,0.215-0.096,0.271-0.073
					c0.055,0.024,0.084,0.095,0.084,0.213v3.799c0,0.487,0.141,0.772,0.426,0.858c0.283,0.085,0.691-0.025,1.221-0.331
					c0.523-0.302,0.928-0.661,1.211-1.073c0.285-0.414,0.428-0.863,0.428-1.351v-3.799c0-0.118,0.027-0.221,0.082-0.31
					c0.057-0.088,0.146-0.168,0.271-0.241l0.486-0.281c0.244-0.141,0.365-0.096,0.365,0.135v3.771c0,0.486-0.119,0.979-0.359,1.476
					s-0.574,0.967-1.006,1.409c-0.43,0.442-0.924,0.823-1.479,1.144C246.663,32.163,246.167,32.354,245.737,32.411z"/>
				<path fill="#FFFFFF" d="M252.8,28.395c-0.057-0.024-0.084-0.092-0.084-0.204v-5.108l-1.639,0.945
					c-0.123,0.072-0.209,0.096-0.256,0.073s-0.07-0.093-0.07-0.211v-0.253c0-0.118,0.023-0.218,0.07-0.298
					c0.047-0.08,0.133-0.156,0.256-0.228l4.475-2.583c0.123-0.072,0.211-0.096,0.26-0.072c0.051,0.025,0.076,0.096,0.076,0.214
					v0.253c0,0.118-0.025,0.217-0.076,0.295c-0.049,0.079-0.137,0.154-0.26,0.226l-1.639,0.945v5.108
					c0,0.112-0.027,0.212-0.078,0.299c-0.055,0.086-0.146,0.168-0.277,0.244l-0.486,0.281
					C252.946,28.394,252.856,28.418,252.8,28.395z"/>
				<path fill="#FFFFFF" d="M256.696,26.145c-0.053-0.026-0.078-0.095-0.078-0.207v-5.68c0-0.118,0.025-0.22,0.078-0.308
					c0.053-0.086,0.143-0.166,0.268-0.238l0.496-0.286c0.125-0.072,0.215-0.096,0.271-0.073c0.057,0.024,0.084,0.095,0.084,0.213
					v2.358l3.068-1.772v-2.358c0-0.118,0.029-0.221,0.084-0.31c0.057-0.088,0.146-0.168,0.271-0.241l0.486-0.281
					c0.125-0.072,0.215-0.096,0.271-0.073c0.057,0.024,0.084,0.095,0.084,0.213v5.68c0,0.112-0.025,0.212-0.078,0.299
					c-0.055,0.086-0.146,0.168-0.277,0.244l-0.486,0.281c-0.125,0.072-0.215,0.096-0.271,0.073
					c-0.055-0.024-0.084-0.092-0.084-0.205V21.06l-3.068,1.772v2.414c0,0.112-0.027,0.212-0.08,0.299
					c-0.053,0.086-0.145,0.168-0.275,0.244l-0.496,0.286C256.839,26.147,256.749,26.17,256.696,26.145z"/>
			</g>
		</g>
		<g id="XMLID_16331_">
			<g id="XMLID_16333_">
				<polygon fill="#455A64" points="223.239,51.699 186.76,30.638 178.636,35.328 186.76,49.399 223.239,70.46 				"/>
			</g>
			<g id="XMLID_16332_">
				<polygon fill="#37474F" points="186.76,30.638 190.822,28.292 227.38,49.4 223.239,51.699 				"/>
			</g>
			<g id="XMLID_16329_">
				<path fill="#FFFFFF" d="M190.209,45.618c-0.054-0.066-0.091-0.148-0.113-0.248l-1.706-6.889
					c-0.008-0.023-0.011-0.053-0.011-0.091c0-0.093,0.068-0.101,0.205-0.021l0.874,0.505c0.108,0.063,0.185,0.122,0.228,0.178
					c0.044,0.056,0.072,0.123,0.087,0.199l1.08,4.741l1.296-2.882c0.029-0.059,0.063-0.09,0.104-0.095
					c0.039-0.006,0.105,0.019,0.199,0.073l0.498,0.287c0.093,0.054,0.159,0.106,0.199,0.158c0.04,0.051,0.073,0.122,0.103,0.213
					l1.308,4.385l1.069-3.5c0.015-0.06,0.045-0.092,0.092-0.097c0.047-0.004,0.12,0.023,0.222,0.081l0.886,0.512
					c0.137,0.079,0.205,0.165,0.205,0.258c0,0.038-0.004,0.063-0.011,0.079l-1.718,4.912c-0.029,0.07-0.069,0.108-0.124,0.111
					c-0.054,0.003-0.132-0.025-0.232-0.083l-0.584-0.337c-0.101-0.058-0.178-0.12-0.232-0.186c-0.053-0.065-0.095-0.15-0.123-0.254
					L192.7,43.13l-1.297,2.994c-0.028,0.071-0.07,0.108-0.124,0.111s-0.132-0.025-0.232-0.083l-0.594-0.343
					C190.345,45.747,190.264,45.683,190.209,45.618z"/>
				<path fill="#FFFFFF" d="M198.193,50.194c-0.062-0.091-0.092-0.193-0.092-0.306v-5.679c0-0.119,0.03-0.188,0.092-0.209
					c0.062-0.021,0.164,0.011,0.308,0.094l4.495,2.595c0.144,0.083,0.242,0.165,0.297,0.246c0.054,0.082,0.081,0.181,0.081,0.299
					v0.253c0,0.119-0.027,0.188-0.081,0.21c-0.055,0.022-0.153-0.009-0.297-0.092l-3.512-2.027v1.815l2.55,1.472
					c0.144,0.083,0.245,0.166,0.302,0.25c0.058,0.083,0.088,0.184,0.088,0.303v0.234c0,0.119-0.03,0.187-0.088,0.207
					c-0.057,0.02-0.158-0.012-0.302-0.095l-2.55-1.472v1.824l3.501,2.021c0.144,0.083,0.244,0.168,0.303,0.254
					c0.058,0.086,0.086,0.189,0.086,0.307v0.252c0,0.112-0.028,0.177-0.086,0.194c-0.059,0.016-0.159-0.017-0.303-0.1l-4.484-2.589
					C198.357,50.373,198.255,50.286,198.193,50.194z"/>
				<path fill="#FFFFFF" d="M205.442,54.459c-0.493-0.382-0.888-0.745-1.183-1.09c-0.094-0.11-0.141-0.187-0.141-0.231
					c0-0.043,0.015-0.073,0.043-0.087l0.357-0.28c0.043-0.031,0.082-0.037,0.118-0.016c0.036,0.021,0.083,0.063,0.141,0.127
					c0.266,0.291,0.575,0.581,0.929,0.869s0.71,0.536,1.07,0.744c0.489,0.283,0.858,0.426,1.107,0.429
					c0.248,0.003,0.372-0.151,0.372-0.463c0-0.187-0.047-0.364-0.14-0.53c-0.094-0.167-0.231-0.342-0.411-0.527
					c-0.181-0.185-0.472-0.463-0.876-0.833l-0.247-0.227c-0.469-0.433-0.856-0.813-1.162-1.139
					c-0.307-0.327-0.561-0.669-0.762-1.029c-0.202-0.36-0.303-0.714-0.303-1.064c0-0.567,0.251-0.861,0.751-0.881
					c0.501-0.02,1.158,0.205,1.972,0.675c0.497,0.287,0.928,0.577,1.291,0.868c0.364,0.291,0.679,0.597,0.946,0.92
					c0.086,0.106,0.129,0.184,0.129,0.234c0,0.037-0.015,0.063-0.043,0.078l-0.346,0.287c-0.043,0.031-0.08,0.038-0.108,0.021
					s-0.075-0.062-0.141-0.137c-0.461-0.522-1.033-0.98-1.718-1.375c-0.454-0.262-0.796-0.388-1.026-0.377
					c-0.23,0.011-0.345,0.172-0.345,0.483c0,0.193,0.048,0.376,0.146,0.547c0.097,0.171,0.239,0.352,0.427,0.542
					c0.187,0.189,0.489,0.473,0.907,0.851l0.27,0.25c0.526,0.484,0.937,0.888,1.231,1.211c0.296,0.324,0.524,0.646,0.688,0.967
					c0.161,0.321,0.242,0.659,0.242,1.015c0,0.537-0.232,0.825-0.696,0.866c-0.465,0.041-1.126-0.187-1.982-0.682
					C206.438,55.179,205.936,54.84,205.442,54.459z"/>
				<path fill="#FFFFFF" d="M212.352,58.368c-0.064-0.093-0.098-0.196-0.098-0.309v-5.108l-1.89-1.091
					c-0.145-0.083-0.244-0.166-0.297-0.247c-0.055-0.081-0.081-0.181-0.081-0.299v-0.252c0-0.119,0.026-0.189,0.081-0.21
					c0.053-0.022,0.152,0.008,0.297,0.092l5.164,2.981c0.144,0.083,0.245,0.168,0.303,0.254c0.058,0.086,0.086,0.188,0.086,0.307
					v0.252c0,0.119-0.028,0.186-0.086,0.203c-0.058,0.017-0.159-0.017-0.303-0.1l-1.891-1.091v5.108
					c0,0.112-0.031,0.179-0.092,0.199c-0.062,0.021-0.168-0.012-0.319-0.1l-0.562-0.324
					C212.521,58.55,212.417,58.462,212.352,58.368z"/>
			</g>
		</g>
		<g id="XMLID_16328_">
			<path fill="#455A64" d="M227.452,11.152c-0.02-0.597-0.417-1.19-1.206-1.645c-1.618-0.934-4.24-0.934-5.858,0
				c-0.789,0.455-1.186,1.048-1.206,1.645h-0.008v220.166h8.284V11.152H227.452z"/>
		</g>
	</g>
</g>
<g id="Map">
</g>
<g id="Locators_1_">
</g>
<g id="Character">
	<g id="XMLID_16491_">
		<g id="XMLID_16431_">
			<g id="XMLID_16433_">
				<path fill="#263238" d="M67.889,95.786c-6.945,0.344-11.849,1.978-16.83,6.982c-3.658,3.675-11.546,25.046-8.108,42.318
					c2.645,13.291,16.851,20.151,28.875,14.019c9.483-4.836,11.323-19.832,11.054-28.574C82.612,121.79,67.889,95.786,67.889,95.786
					z"/>
			</g>
			<g id="XMLID_16432_">
				<path fill="#37474F" d="M59.269,102.202c0,0-1.878-2.456-6.241-1.082c0,0-4.596,5.538-8.147,16c0,0-1.128-0.034-0.408-2.967
					s3.601-10,5.453-12.485c1.852-2.485,4.459-4.534,17.006-9.129c10.975-4.02,7.479,6.027,7.479,6.027L59.269,102.202z"/>
			</g>
		</g>
		<g id="XMLID_16423_">
			<g id="XMLID_16421_">
				<g id="XMLID_16462_">
					<path fill="#263238" d="M37.9,244.466c-1.468-0.756-2.4,1.108-3.731,2.604c-0.934,1.049-2.389,2.709-2.604,3.903
						c-0.319,1.769,1.275,4.553,3.041,6.088s3.814,2.634,4.456,5.999c0.641,3.365,1.949,5.365,5.437,6.869
						c3.822,1.648,8.941,1.121,10.678,0c2.057-1.328,0.179-2.787-2.704-6.912c-3.761-5.382-6.69-9.228-6.691-14.249L37.9,244.466z"
						/>
				</g>
				<g id="XMLID_16461_">
					<path fill="#FFA8A7" d="M40.908,240.057l-3.088,4.527c-1.339,1.963-0.922,4.696,1.042,6.031
						c0.032,0.021,0.063,0.042,0.096,0.063c1.879,1.219,4.399,0.732,5.913-0.919l4.82-5.261L40.908,240.057z"/>
				</g>
				<g id="XMLID_16460_">
					<path fill="#37474F" d="M98.435,153.091c0.195,5.769-0.781,27.839-4.991,38.88c-3.942,10.336-7.507,15.865-8.762,18.012
						c-1.255,2.146-37.396,37.332-37.396,37.332s-6.133-0.448-7.108-6.396c0,0,14.81-25.174,18.015-30.338
						c3.206-5.163,14.565-13.079,14.565-13.079l-1.033-48.4L98.435,153.091z"/>
				</g>
				<g id="XMLID_16459_">
					
						<rect x="88.314" y="262.505" transform="matrix(-0.9751 0.2217 -0.2217 -0.9751 241.6361 509.2977)" fill="#FFA8A7" width="7.836" height="11.412"/>
				</g>
				<g id="XMLID_16458_">
					<path fill="#37474F" d="M83.703,171.736c0,0,2.971-2.5,6.986-8.046c5.841-8.07,4.942-15.236,4.942-15.236h-2.392l-35.178,4.637
						c-0.574,3.332-1.255,8.809,0.424,17.281c3.091,15.593,15.63,42.231,15.63,42.231c-0.183,2.153-1.093,11.204,0.961,19.228
						c3.24,12.658,12.07,34.079,12.07,34.079s5.532,0.789,8.28-2.411c0,0-4.89-43.49-6.207-54.634
						C87.795,196.808,83.703,171.736,83.703,171.736z"/>
				</g>
				<g id="XMLID_16456_">
					<path fill="#263238" d="M96.46,269.134l-0.249-1.093c0.803,0.152,4.233,5.849,7.636,8.324c3.727,2.71,6.962,4.312,8.626,5.534
						c2.227,1.634-0.997,4.98-6.479,5.278c-2.446,0.133-5.312-0.2-7.524-1.259c-2.387-1.141-3.839-3.27-5.654-5.101
						c-1.334-1.346-3.346-2.322-4.354-3.947c-0.456-0.733-0.526-2.55-0.475-4.11c0.047-1.432,0.093-3.004,0.583-2.982
						c0.039,0.165,0.189,0.833,0.189,0.833c0.694,0.488,2.873,1.107,4.647,1.025C94.697,271.577,97.098,271.277,96.46,269.134z"/>
				</g>
				<g id="XMLID_16455_">
					<path fill="#263238" d="M88.254,201.485c0,0-3.683-26.167-4.551-29.749c0,0,6.494-2.474,8.489-4.741
						c0,0-1.425,3.172-6.07,5.991L88.254,201.485z"/>
				</g>
				<g id="XMLID_16424_">
					<path fill="#263238" d="M74.116,212.603c-1.578-2.152-5.486-11.888-5.486-11.888l4.014,12.589
						c-1.017,3.776-0.919,10.005-0.919,10.005l2.054-1.79C73.722,220.02,74.116,212.603,74.116,212.603z"/>
				</g>
				<g id="XMLID_16453_">
					<path fill="#37474F" d="M63.784,196.808"/>
				</g>
			</g>
			<g id="XMLID_15745_">
				<g id="XMLID_16425_">
					<path fill="#FFA8A7" d="M94.497,142.167c-5.088-17.146-4.015-31.645-4.967-36.09l13.118,18.459c0,0,0.925,10.622,2.634,18.078
						c1.501,6.551,3.549,14.719,6.021,19.801c0.438,0.9,1.213,1.589,2.139,1.971c2.484,1.023,3.633,2.311,5.624,3.794
						c1.559,1.162,2.745,1.315,2.646,1.786c-0.127,0.604-0.917,1.682-2.623,1.462c-0.858-0.11-2.021-0.57-3.479-1.187
						c0,0,1.408,2.599,4.213,5.052c3.803,3.325,4.343,5.672-2.002,6.807c-3.977,0.711-7.571-1.206-12.057-9.473
						c-1.292-2.382-3.321-6.144-4.472-9.379C98.296,154.823,96.035,147.352,94.497,142.167z"/>
				</g>
				<g id="XMLID_16418_">
					<path fill="#27DEBF" d="M85.071,98.425c6.174,0.063,12.251,1.449,14.343,8.023c2.042,6.417,4.677,25.036,4.677,25.036
						s-2.6,3.443-11.256,2.88L85.071,98.425z"/>
				</g>
				<g>
					<g id="XMLID_16_">
						<path fill="#27DEBF" d="M85.071,98.425c6.174,0.063,12.251,1.449,14.343,8.023c2.042,6.417,4.677,25.036,4.677,25.036
							s-2.6,3.443-11.256,2.88L85.071,98.425z"/>
					</g>
					<g id="XMLID_17_" opacity="0.1">
						<path d="M85.071,98.425c6.174,0.063,12.251,1.449,14.343,8.023c2.042,6.417,4.677,25.036,4.677,25.036s-2.6,3.443-11.256,2.88
							L85.071,98.425z"/>
					</g>
				</g>
				<g id="XMLID_16416_">
					<path fill="#27DEBF" d="M72.395,98.796c-4.34,1.045-9.351,1.897-13.55,3.957c-2.923,1.434,1.266,25.634,1.266,25.634
						l-2.049,24.704c5.757,6.263,27.802,9.181,40.373,0c0,0,0-33.625,0-40.019s-3.553-14.077-13.363-14.647L72.395,98.796z"/>
				</g>
				<g id="XMLID_16415_">
					<polygon fill="#27DEBF" points="60.089,127.911 63.896,117.412 59.456,136.28 					"/>
					<polygon opacity="0.2" points="60.089,127.911 63.896,117.412 59.456,136.28 					"/>
				</g>
				<g id="XMLID_15829_">
					<g id="XMLID_16046_">
						<g id="XMLID_16414_">
							<path fill="#263238" d="M65.553,76.548l2.72,10.74c0.583,2.301,2.653,3.912,5.027,3.912h3.184V76.219L65.553,76.548z"/>
						</g>
						<g id="XMLID_16413_">
							<circle fill="#263238" cx="87.407" cy="72.609" r="11.507"/>
						</g>
						<g id="XMLID_16412_">
							<path fill="#263238" d="M69.631,66.069c0,0-2.034-0.349-3.619,1.273c-1.555,1.589-1.232,4.533,0.002,11.295l4.804,0.551
								L69.631,66.069z"/>
						</g>
						<g id="XMLID_16411_">
							<path fill="#FFA8A7" d="M71.885,79.192c-0.713,0.426-1.731-0.944-2.611-1.865c-0.879-0.92-3.751-2.178-5.184,0.84
								c-1.459,3.076,0.825,7.134,3.014,8.038c3.07,1.268,4.43-1.407,4.43-1.407l0.86,13.997c0,0,2.551,6.243,9.46,7.179
								c6.908,0.937,5.486-4.759,3.217-7.55l-0.011-4.277c0,0,3.54,0.59,5.252,0.27c2.523-0.471,3.761-2.812,4.95-5.805
								c1.773-4.467,2.861-10.789,1.33-18.803c-2.031-10.625-13.789-10.851-20.534-6.605C69.313,67.449,71.885,79.192,71.885,79.192
								z"/>
						</g>
						<g id="XMLID_16410_">
							<path fill="#263238" d="M71.885,80.392c-0.359,0.007-1.723-2.256-2.611-3.064c-1.23-1.12,0.356-11.258,0.356-11.258
								c0.626-8.308,12.881-8.94,16.268-9.183c7.764-0.557,13.046,3.74,10.938,9.151c-1.407,2.458-4.275,3.136-6.964,3.463
								c-4.564,0.556-12.343-1.896-13.315-2.028c-1.324-0.181-1.606,1.102-2.32,4.606C73.611,75.155,73.091,80.369,71.885,80.392z"
								/>
						</g>
						<g id="XMLID_16409_">
							<path fill="#263238" d="M69.638,66.857l-4.313-2.315c0.612-1.236,2.074-1.719,3.265-1.08
								C69.781,64.102,70.25,65.622,69.638,66.857z"/>
						</g>
						<g id="XMLID_16049_">
							<path fill="#F28F8F" d="M85.061,94.147c0,0-6.396-1.289-8.632-2.478c-1.497-0.795-2.729-2.174-3.091-3.058
								c0,0,0.418,1.897,1.756,3.607c1.635,2.09,9.968,3.63,9.968,3.63V94.147z"/>
						</g>
					</g>
					<g id="XMLID_15830_">
						<g id="XMLID_16045_">
							<path fill="#263238" d="M85.264,78.959c0,0.736-0.574,1.33-1.282,1.328c-0.708-0.001-1.282-0.6-1.282-1.335
								c0-0.735,0.574-1.33,1.282-1.328S85.264,78.224,85.264,78.959z"/>
						</g>
						<g id="XMLID_16042_">
							<path fill="#263238" d="M83.904,74.12l-2.742,1.514c-0.404-0.788-0.119-1.766,0.639-2.184S83.5,73.332,83.904,74.12z"/>
						</g>
						<g id="XMLID_16034_">
							<path fill="#F28F8F" d="M84.481,87.529l2.926,1.098c-0.289,0.838-1.179,1.273-1.987,0.97
								C84.612,89.294,84.191,88.368,84.481,87.529z"/>
						</g>
						<g id="XMLID_16032_">
							<path fill="#263238" d="M96.027,75.187l-2.5-1.926c0.51-0.716,1.483-0.865,2.173-0.333
								C96.392,73.459,96.538,74.471,96.027,75.187z"/>
						</g>
						<g id="XMLID_16030_">
							<path fill="#263238" d="M95.263,78.219c0,0.735-0.574,1.33-1.282,1.328c-0.708-0.002-1.282-0.6-1.282-1.335
								c0-0.736,0.574-1.331,1.282-1.328C94.689,76.885,95.263,77.483,95.263,78.219z"/>
						</g>
						<g id="XMLID_16029_">
							<polygon fill="#F28F8F" points="89.886,78.438 88.679,86.063 92.902,85.567 							"/>
						</g>
					</g>
				</g>
				<g id="XMLID_15787_">
					<path fill="#37474F" d="M62.953,200.356"/>
				</g>
			</g>
		</g>
		<g id="XMLID_16430_">
			<path fill="#37474F" d="M68.174,98.535c0,0,9.696,4.316,10.742,19.216c2.188,31.155-21.274,38.331-21.274,38.331
				c-1.99-3.931-0.387-9.246,1.252-13.023c0,0,12.431-7.174,11.671-23.108c-0.542-11.362-6.181-17.726-9.025-18.587
				C61.54,101.363,64.276,99.364,68.174,98.535z"/>
		</g>
		<g id="XMLID_16427_">
			<path fill="#FFA8A7" d="M49.942,156.967c4.203-1.468,5.249-2.024,10.545-6.271c5.41-4.337,9.764-9.941,13.975-15.563
				c0.501-0.669,1.088-1.259,1.696-1.831c0.601-0.567,1.805-1.634,2.857-3.231c1.852-2.812,1.875-4.646,2.055-8.009
				s-0.376-6.739-1.387-9.95c-0.11-0.35-0.231-0.708-0.471-0.986c-0.239-0.278-0.627-0.46-0.978-0.354
				c-0.306,0.092-0.512,0.372-0.688,0.639c-1.188,1.806-2.015,3.818-3.173,5.641c-0.531,0.836-0.902,1.169-1.384,2.03
				c-0.058,0.103-0.983,1.063-1.18,0.641c-0.212-0.455,0.402-1.729,0.193-3.849c-0.2-2.025-0.789-2.883-1.437-3.046
				c-1.033-0.26-1.023,0.857-1.454,2.55c-0.513,2.019-1.287,3.658-1.203,6.625c0.073,2.613-0.315,3.695-0.878,5.982
				c-0.563,2.287-3.179,7.454-9.637,11.427c-1.41,0.868-1.858,1.03-1.043-2.367c2.129-8.875,4.032-13.933,6.06-18.534
				c2.587-5.869,4.366-10.362,1.974-12.742c-4.13-4.109-9.922-1.764-13.15,5.21c-3.732,8.063-5.774,14.185-7.27,28.973
				C43.315,146.361,42.713,159.493,49.942,156.967z"/>
		</g>
		<g id="XMLID_16426_">
			<path fill="#27DEBF" d="M62.004,101.545c-4.88,0.22-8.129,2.189-11.361,8.565c-3.168,6.25-5.713,17.544-5.713,17.544
				s4.593,4.894,13.506,4.646c0,0,5.592-14.682,6.666-18.638C66.269,109.362,65.248,103.028,62.004,101.545z"/>
		</g>
	</g>
</g>
</svg>
