<svg xmlns="http://www.w3.org/2000/svg" viewBox="0 0 907.11 434.98"><defs><style>.cls-1{fill:#20c5ba;}.cls-2{fill:#fff;}</style></defs><title>Artboard 92</title><g id="Object"><path class="cls-1" d="M893.31,178.47,755.69,25.8A53.66,53.66,0,0,0,715.83,8.07H36.22A28.56,28.56,0,0,0,7.66,36.62V392.18a28.56,28.56,0,0,0,28.56,28.56H715.83A53.66,53.66,0,0,0,755.69,403L893.31,250.33A53.66,53.66,0,0,0,893.31,178.47Z"/><circle class="cls-2" cx="44.1" cy="32.86" r="5.14"/><circle class="cls-2" cx="60.07" cy="32.86" r="5.14"/><circle class="cls-2" cx="76.05" cy="32.86" r="5.14"/><circle class="cls-2" cx="92.03" cy="32.86" r="5.14"/><circle class="cls-2" cx="108.01" cy="32.86" r="5.14"/><circle class="cls-2" cx="123.98" cy="32.86" r="5.14"/><circle class="cls-2" cx="139.96" cy="32.86" r="5.14"/><circle class="cls-2" cx="155.94" cy="32.86" r="5.14"/><circle class="cls-2" cx="171.91" cy="32.86" r="5.14"/><circle class="cls-2" cx="187.89" cy="32.86" r="5.14"/><circle class="cls-2" cx="203.87" cy="32.86" r="5.14"/><circle class="cls-2" cx="219.85" cy="32.86" r="5.14"/><circle class="cls-2" cx="235.82" cy="32.86" r="5.14"/><circle class="cls-2" cx="251.8" cy="32.86" r="5.14"/><circle class="cls-2" cx="267.78" cy="32.86" r="5.14"/><circle class="cls-2" cx="283.76" cy="32.86" r="5.14"/><circle class="cls-2" cx="299.73" cy="32.86" r="5.14"/><circle class="cls-2" cx="315.71" cy="32.86" r="5.14"/><circle class="cls-2" cx="331.69" cy="32.86" r="5.14"/><circle class="cls-2" cx="347.67" cy="32.86" r="5.14"/><circle class="cls-2" cx="363.64" cy="32.86" r="5.14"/><circle class="cls-2" cx="379.62" cy="32.86" r="5.14"/><circle class="cls-2" cx="395.6" cy="32.86" r="5.14"/><circle class="cls-2" cx="411.57" cy="32.86" r="5.14"/><circle class="cls-2" cx="427.55" cy="32.86" r="5.14"/><circle class="cls-2" cx="443.53" cy="32.86" r="5.14"/><circle class="cls-2" cx="459.51" cy="32.86" r="5.14"/><circle class="cls-2" cx="475.48" cy="32.86" r="5.14"/><circle class="cls-2" cx="491.57" cy="32.86" r="5.14"/><circle class="cls-2" cx="507.66" cy="32.86" r="5.14"/><circle class="cls-2" cx="523.75" cy="32.86" r="5.14"/><circle class="cls-2" cx="539.84" cy="32.86" r="5.14"/><circle class="cls-2" cx="555.93" cy="32.86" r="5.14"/><circle class="cls-2" cx="572.02" cy="32.86" r="5.14"/><circle class="cls-2" cx="588.11" cy="32.86" r="5.14"/><circle class="cls-2" cx="604.2" cy="32.86" r="5.14"/><circle class="cls-2" cx="620.29" cy="32.86" r="5.14"/><circle class="cls-2" cx="636.38" cy="32.86" r="5.14"/><circle class="cls-2" cx="652.47" cy="32.86" r="5.14"/><circle class="cls-2" cx="668.56" cy="32.86" r="5.14"/><circle class="cls-2" cx="684.65" cy="32.86" r="5.14"/><circle class="cls-2" cx="700.74" cy="32.86" r="5.14"/><circle class="cls-2" cx="716.83" cy="32.86" r="5.14"/><circle class="cls-2" cx="732.15" cy="40.42" r="5.14"/><circle class="cls-2" cx="743.52" cy="52.67" r="5.14" transform="translate(661.36 793.51) rotate(-87.72)"/><circle class="cls-2" cx="754.62" cy="64.69" r="5.14" transform="translate(660 816.15) rotate(-87.72)"/><circle class="cls-2" cx="765.73" cy="76.72" r="5.14" transform="translate(658.65 838.79) rotate(-87.72)"/><circle class="cls-2" cx="776.83" cy="88.74" r="5.14" transform="translate(657.3 861.43) rotate(-87.72)"/><circle class="cls-2" cx="787.93" cy="100.76" r="5.14" transform="translate(655.95 884.07) rotate(-87.72)"/><circle class="cls-2" cx="799.03" cy="112.78" r="5.14" transform="translate(654.6 906.71) rotate(-87.72)"/><circle class="cls-2" cx="810.14" cy="124.8" r="5.14" transform="translate(653.25 929.34) rotate(-87.72)"/><circle class="cls-2" cx="821.24" cy="136.83" r="5.14" transform="translate(651.9 951.98) rotate(-87.72)"/><circle class="cls-2" cx="832.34" cy="148.85" r="5.14" transform="translate(650.55 974.62) rotate(-87.72)"/><circle class="cls-2" cx="843.44" cy="160.87" r="5.14" transform="translate(649.2 997.26) rotate(-87.72)"/><circle class="cls-2" cx="854.55" cy="172.89" r="5.14" transform="translate(647.85 1019.9) rotate(-87.72)"/><circle class="cls-2" cx="865.65" cy="184.91" r="5.14" transform="translate(646.5 1042.54) rotate(-87.72)"/><circle class="cls-2" cx="876.75" cy="196.94" r="5.14" transform="translate(645.15 1065.17) rotate(-87.72)"/><circle class="cls-2" cx="44.1" cy="394.44" r="5.14"/><circle class="cls-2" cx="60.07" cy="394.44" r="5.14"/><circle class="cls-2" cx="76.05" cy="394.44" r="5.14"/><circle class="cls-2" cx="92.03" cy="394.44" r="5.14"/><circle class="cls-2" cx="108.01" cy="394.44" r="5.14"/><circle class="cls-2" cx="123.98" cy="394.44" r="5.14"/><circle class="cls-2" cx="139.96" cy="394.44" r="5.14"/><circle class="cls-2" cx="155.94" cy="394.44" r="5.14"/><circle class="cls-2" cx="171.91" cy="394.44" r="5.14"/><circle class="cls-2" cx="187.89" cy="394.44" r="5.14"/><circle class="cls-2" cx="203.87" cy="394.44" r="5.14"/><circle class="cls-2" cx="219.85" cy="394.44" r="5.14"/><circle class="cls-2" cx="235.82" cy="394.44" r="5.14"/><circle class="cls-2" cx="251.8" cy="394.44" r="5.14"/><circle class="cls-2" cx="267.78" cy="394.44" r="5.14"/><circle class="cls-2" cx="283.76" cy="394.44" r="5.14"/><circle class="cls-2" cx="299.73" cy="394.44" r="5.14"/><circle class="cls-2" cx="315.71" cy="394.44" r="5.14"/><circle class="cls-2" cx="331.69" cy="394.44" r="5.14"/><circle class="cls-2" cx="347.67" cy="394.44" r="5.14"/><circle class="cls-2" cx="33.82" cy="364.12" r="5.14"/><circle class="cls-2" cx="33.82" cy="381.11" r="5.14"/><circle class="cls-2" cx="33.82" cy="348.14" r="5.14"/><circle class="cls-2" cx="33.82" cy="332.16" r="5.14"/><circle class="cls-2" cx="33.82" cy="316.19" r="5.14"/><circle class="cls-2" cx="33.82" cy="300.21" r="5.14"/><circle class="cls-2" cx="33.82" cy="284.23" r="5.14"/><circle class="cls-2" cx="33.82" cy="268.25" r="5.14"/><circle class="cls-2" cx="33.82" cy="252.28" r="5.14"/><circle class="cls-2" cx="33.82" cy="236.3" r="5.14"/><circle class="cls-2" cx="33.82" cy="220.32" r="5.14"/><circle class="cls-2" cx="33.82" cy="204.34" r="5.14"/><circle class="cls-2" cx="33.82" cy="188.37" r="5.14"/><circle class="cls-2" cx="33.82" cy="172.39" r="5.14"/><circle class="cls-2" cx="33.82" cy="156.41" r="5.14"/><circle class="cls-2" cx="33.82" cy="140.43" r="5.14"/><circle class="cls-2" cx="33.82" cy="124.46" r="5.14"/><circle class="cls-2" cx="33.82" cy="108.48" r="5.14"/><circle class="cls-2" cx="33.82" cy="92.5" r="5.14"/><circle class="cls-2" cx="33.82" cy="76.53" r="5.14"/><circle class="cls-2" cx="33.82" cy="60.55" r="5.14"/><circle class="cls-2" cx="33.82" cy="45.27" r="5.14"/><circle class="cls-2" cx="363.64" cy="394.44" r="5.14"/><circle class="cls-2" cx="379.62" cy="394.44" r="5.14"/><circle class="cls-2" cx="395.6" cy="394.44" r="5.14"/><circle class="cls-2" cx="411.57" cy="394.44" r="5.14"/><circle class="cls-2" cx="427.55" cy="394.44" r="5.14"/><circle class="cls-2" cx="443.53" cy="394.44" r="5.14"/><circle class="cls-2" cx="459.51" cy="394.44" r="5.14"/><circle class="cls-2" cx="475.48" cy="394.44" r="5.14"/><circle class="cls-2" cx="491.57" cy="394.44" r="5.14"/><circle class="cls-2" cx="507.66" cy="394.44" r="5.14"/><circle class="cls-2" cx="523.75" cy="394.44" r="5.14"/><circle class="cls-2" cx="539.84" cy="394.44" r="5.14"/><circle class="cls-2" cx="555.93" cy="394.44" r="5.14"/><circle class="cls-2" cx="572.02" cy="394.44" r="5.14"/><circle class="cls-2" cx="588.11" cy="394.44" r="5.14"/><circle class="cls-2" cx="604.2" cy="394.44" r="5.14"/><circle class="cls-2" cx="620.29" cy="394.44" r="5.14"/><circle class="cls-2" cx="636.38" cy="394.44" r="5.14"/><circle class="cls-2" cx="652.47" cy="394.44" r="5.14"/><circle class="cls-2" cx="668.56" cy="394.44" r="5.14"/><circle class="cls-2" cx="684.65" cy="394.44" r="5.14"/><circle class="cls-2" cx="700.74" cy="394.44" r="5.14"/><circle class="cls-2" cx="716.83" cy="394.44" r="5.14"/><circle class="cls-2" cx="732.15" cy="386.88" r="5.14"/><circle class="cls-2" cx="743.52" cy="374.62" r="5.14" transform="translate(-14.29 29.83) rotate(-2.28)"/><circle class="cls-2" cx="754.62" cy="362.6" r="5.14" transform="translate(-13.81 30.26) rotate(-2.28)"/><circle class="cls-2" cx="765.73" cy="350.58" r="5.14" transform="translate(-13.32 30.69) rotate(-2.28)"/><circle class="cls-2" cx="776.83" cy="338.56" r="5.14" transform="translate(-12.84 31.13) rotate(-2.28)"/><circle class="cls-2" cx="787.93" cy="326.53" r="5.14" transform="translate(-12.35 31.56) rotate(-2.28)"/><circle class="cls-2" cx="799.03" cy="314.51" r="5.14" transform="translate(-11.86 31.99) rotate(-2.28)"/><circle class="cls-2" cx="810.14" cy="302.49" r="5.14" transform="translate(-11.38 32.42) rotate(-2.28)"/><circle class="cls-2" cx="821.24" cy="290.47" r="5.14" transform="translate(-10.89 32.85) rotate(-2.28)"/><circle class="cls-2" cx="832.34" cy="278.45" r="5.14" transform="translate(-10.4 33.28) rotate(-2.28)"/><circle class="cls-2" cx="843.44" cy="266.42" r="5.14" transform="translate(-9.92 33.71) rotate(-2.28)"/><circle class="cls-2" cx="854.55" cy="254.4" r="5.14" transform="translate(-9.43 34.15) rotate(-2.28)"/><circle class="cls-2" cx="865.65" cy="242.38" r="5.14" transform="translate(-8.94 34.58) rotate(-2.28)"/><circle class="cls-2" cx="876.75" cy="230.36" r="5.14" transform="translate(-8.46 35.01) rotate(-2.28)"/><circle class="cls-2" cx="881.89" cy="214.4" r="5.14" transform="matrix(1, -0.04, 0.04, 1, -7.82, 35.2)"/></g></svg>