<?xml version="1.0" encoding="utf-8"?>
<!-- Generator: Adobe Illustrator 16.0.0, SVG Export Plug-In . SVG Version: 6.00 Build 0)  -->
<!DOCTYPE svg PUBLIC "-//W3C//DTD SVG 1.1//EN" "http://www.w3.org/Graphics/SVG/1.1/DTD/svg11.dtd">
<svg version="1.1" id="Capa_1" xmlns="http://www.w3.org/2000/svg" xmlns:xlink="http://www.w3.org/1999/xlink" x="0px" y="0px"
	 width="1924px" height="1810px" viewBox="0 0 1924 1810" enable-background="new 0 0 1924 1810" xml:space="preserve">
<path fill="#2D332F" d="M1784.727,1151.817H139.273c-45.25,0-82.273-37.023-82.273-82.273v-905c0-45.25,37.023-82.273,82.273-82.273
	H1784.73c45.249,0,82.273,37.023,82.273,82.273v905C1867,1114.794,1829.977,1151.817,1784.727,1151.817z"/>
<path fill="#77847C" d="M1579.044,822.727c-94.615,0-181,45.25-230.365,119.294C1307.544,921.456,1262.294,905,1208.817,905
	c-143.976,0-263.273,106.956-283.841,246.817h859.75c41.135,0,74.043-28.794,82.273-69.933
	C1850.544,937.909,1727.135,822.727,1579.044,822.727z"/>
<path fill="#6D776E" d="M1620.183,1069.544H303.817c0-90.5-74.044-164.544-164.544-164.544V329.091
	c90.5,0,164.544-74.043,164.544-164.543h1316.365c0,90.5,74.044,164.543,164.544,164.543V905
	C1694.227,905,1620.183,979.044,1620.183,1069.544z"/>
<g>
	<path fill="#2E3A33" d="M1579.044,822.727c-94.615,0-181,45.25-230.365,119.294C1307.544,921.456,1262.294,905,1208.817,905
		c-115.183,0-213.909,65.817-259.159,164.544h670.524c0-90.5,69.933-160.433,160.433-164.544
		C1727.135,855.635,1657.206,822.727,1579.044,822.727z"/>
	<ellipse fill="#2E3A33" cx="962" cy="617.044" rx="329.091" ry="370.227"/>
	<circle fill="#2E3A33" cx="468.365" cy="617.044" r="82.273"/>
	<circle fill="#2E3A33" cx="1455.635" cy="617.044" r="82.273"/>
</g>
<path fill="#D1C6B0" d="M1003.135,575.909h-82.273c-24.683,0-41.135-16.456-41.135-41.136c0-24.683,16.456-41.135,41.135-41.135
	h123.409c24.683,0,41.135-16.456,41.135-41.135c0-24.683-16.456-41.136-41.135-41.136h-41.136c0-24.683-16.456-41.135-41.135-41.135
	c-24.683,0-41.135,16.456-41.135,41.135c-69.933,0-123.409,53.477-123.409,123.409s53.477,123.408,123.409,123.408h82.273
	c24.683,0,41.135,16.457,41.135,41.136c0,24.683-16.456,41.135-41.135,41.135H879.73c-24.683,0-41.136,16.456-41.136,41.135
	c0,24.683,16.456,41.136,41.136,41.136h41.135c0,24.682,16.456,41.135,41.135,41.135c24.683,0,41.135-16.456,41.135-41.135
	c69.933,0,123.409-53.477,123.409-123.409S1073.067,575.909,1003.135,575.909z"/>
<circle fill="#FFCA5D" cx="1126.544" cy="1192.956" r="287.956"/>
<circle fill="#7C7466" cx="1496.773" cy="1110.683" r="287.956"/>
<path fill="#D1C6B0" d="M1496.773,822.727c-160.432,0-287.956,127.523-287.956,287.956s127.523,287.956,287.956,287.956
	s287.957-127.523,287.957-287.956S1657.206,822.727,1496.773,822.727z M1496.773,1316.365c-115.182,0-205.683-90.5-205.683-205.683
	S1381.592,905,1496.773,905c115.183,0,205.683,90.5,205.683,205.683S1611.956,1316.365,1496.773,1316.365z"/>
<path fill="#D1C6B0" d="M1496.773,1394.523L1496.773,1394.523c160.433,4.115,287.957-127.523,287.957-283.841h-4.115
	c-20.568,0-37.023,16.456-41.135,37.023c-8.227,57.591-37.024,111.067-78.159,148.091c-32.909,32.909-78.159,53.477-127.524,61.703
	C1513.227,1357.5,1496.773,1373.956,1496.773,1394.523z"/>
<path fill="#D1C6B0" d="M1496.773,826.841L1496.773,826.841c-160.432-4.114-287.956,127.524-287.956,283.842h4.115
	c20.567,0,37.023-16.456,41.135-37.023c8.227-57.592,37.023-111.067,78.159-148.092c32.908-32.908,78.158-53.476,127.523-61.706
	C1480.317,863.865,1496.773,847.409,1496.773,826.841z"/>
<path fill="#7C7466" d="M1319.885,1139.477c0-115.183,90.5-205.683,205.683-205.683c49.365,0,94.615,16.456,131.636,49.364
	c-41.136-49.364-94.611-78.158-160.43-78.158c-115.182,0-205.683,90.5-205.683,205.683c0,65.817,28.794,119.294,74.044,156.317
	C1336.341,1234.091,1319.885,1188.841,1319.885,1139.477z"/>
<path fill="#D1C6B0" d="M1620.183,1238.206c-4.115,0-8.227,0-12.341-4.115c-8.227-8.226-8.227-20.567,0-28.793
	c24.682-24.683,37.023-61.706,37.023-94.615c0-12.341,8.227-20.567,20.567-20.567s20.567,8.227,20.567,20.567
	c0,45.25-16.456,90.5-45.25,123.408C1632.523,1238.206,1624.294,1238.206,1620.183,1238.206z"/>
<g>
	<path fill="#D1C6B0" d="M1496.773,1234.091c-24.682,0-41.135-16.456-41.135-41.135v-164.544c0-24.682,16.456-41.135,41.135-41.135
		c24.68,0,41.135,16.456,41.135,41.135v164.544C1537.908,1217.635,1521.456,1234.091,1496.773,1234.091z"/>
	<path fill="#D1C6B0" d="M1648.977,1353.385c-28.794-102.841-102.842-185.114-197.456-222.135
		c-16.456-94.615-78.159-176.885-156.317-226.25c-49.365,53.477-82.274,123.409-82.274,201.567
		c0,160.433,127.523,287.956,287.956,287.956C1554.365,1398.635,1603.727,1382.183,1648.977,1353.385z"/>
</g>
<g>
	<path fill="#D1C6B0" d="M1365.135,1267c-28.793-37.023-49.364-82.273-49.364-131.635c0-57.592,24.683-111.068,65.817-148.092
		c-8.227-12.341-16.456-20.567-24.683-28.794c-41.135,37.024-65.817,90.501-65.817,152.206
		C1291.091,1176.5,1319.885,1229.977,1365.135,1267z"/>
	<path fill="#D1C6B0" d="M1455.635,1135.365v57.591c0,24.683,16.456,41.135,41.135,41.135c24.68,0,41.136-16.456,41.136-41.135
		v-8.227C1513.227,1164.158,1484.433,1147.706,1455.635,1135.365z"/>
</g>
<path fill="#D1C6B0" d="M1648.977,1353.385c-8.227-28.793-16.457-53.477-32.909-78.158c-32.909,24.682-74.044,41.135-119.294,41.135
	c-115.182,0-205.683-90.5-205.683-205.683c0-61.706,24.683-115.183,65.818-152.206c-20.567-20.567-41.136-37.023-65.818-49.365
	c-49.364,53.477-82.273,123.409-82.273,201.568c0,160.432,127.523,287.956,287.956,287.956
	C1554.365,1398.635,1603.727,1382.183,1648.977,1353.385z"/>
<path fill="#D1C6B0" d="M1636.635,1316.365c-28.793,20.567-65.817,32.908-102.841,41.135c-20.567,4.115-37.024,20.567-37.024,41.135
	l0,0c57.592,0,106.957-16.456,152.207-45.25C1644.865,1341.044,1640.75,1328.706,1636.635,1316.365z"/>
<path fill="#D1C6B0" d="M1291.091,909.115c-49.364,53.477-82.273,123.408-82.273,201.567h4.115
	c20.567,0,37.023-16.456,41.135-37.023c8.227-57.592,37.023-106.956,74.044-143.977
	C1315.773,925.567,1303.433,917.341,1291.091,909.115z"/>
<circle fill="#7C7466" cx="1126.544" cy="1192.956" r="287.956"/>
<path fill="#D1C6B0" d="M1085.409,1398.635c0,28.794,4.114,53.477,12.341,82.274c8.227,0,20.567,0,28.794,0
	c160.433,0,287.956-127.524,287.956-287.957c0-28.794-4.115-53.476-12.341-82.273c-8.227,0-20.567,0-28.794,0
	C1212.933,1110.683,1085.409,1238.206,1085.409,1398.635z"/>
<path fill="#D1C6B0" d="M1126.544,905c-160.433,0-287.956,127.523-287.956,287.956s127.523,287.956,287.956,287.956
	s287.956-127.527,287.956-287.956S1286.977,905,1126.544,905z M1126.544,1398.635c-115.183,0-205.683-90.5-205.683-205.683
	c0-115.182,90.5-205.682,205.683-205.682s205.683,90.5,205.683,205.682C1332.227,1308.135,1241.727,1398.635,1126.544,1398.635z"/>
<path fill="#F6B545" d="M1126.544,1476.794L1126.544,1476.794c160.433,4.115,287.956-127.521,287.956-283.838h-4.115
	c-20.567,0-37.023,16.456-41.135,37.023c-8.227,57.592-37.023,111.067-78.159,148.092c-32.908,32.908-78.158,53.476-127.523,61.706
	C1143,1439.773,1126.544,1456.227,1126.544,1476.794z"/>
<path fill="#D3CDBA" d="M1126.544,909.115L1126.544,909.115C966.111,905,838.588,1036.639,838.588,1192.956h4.115
	c20.567,0,37.023-16.456,41.135-37.023c8.227-57.591,37.023-111.067,78.158-148.091c32.909-32.909,78.159-53.477,127.524-61.707
	C1110.091,946.135,1126.544,929.683,1126.544,909.115z"/>
<path fill="#7C7466" d="M949.658,1221.75c0-115.183,90.501-205.683,205.684-205.683c49.364,0,94.614,16.456,131.635,49.365
	c-41.135-49.365-94.615-78.159-160.433-78.159c-115.183,0-205.683,90.5-205.683,205.683c0,65.817,28.794,119.294,74.044,156.317
	C966.115,1316.365,949.658,1271.115,949.658,1221.75z"/>
<path fill="#FFCB5B" d="M1249.956,1320.477c-4.115,0-8.227,0-12.341-4.115c-8.227-8.227-8.227-20.567,0-28.794
	c24.682-24.683,37.023-61.706,37.023-94.614c0-12.342,8.227-20.568,20.567-20.568s20.567,8.227,20.567,20.568
	c0,45.25-16.456,90.5-45.25,123.408C1262.294,1320.477,1254.067,1320.477,1249.956,1320.477z"/>
<path fill="#D1C6B0" d="M1126.544,1316.365c-24.683,0-41.135-16.456-41.135-41.135v-164.544c0-24.683,16.456-41.136,41.135-41.136
	c24.683,0,41.135,16.457,41.135,41.136v164.544C1167.683,1299.909,1151.227,1316.365,1126.544,1316.365z"/>
<g>
	<path fill="#D1C6B0" d="M1315.773,1114.794c8.227,24.683,16.456,49.364,16.456,78.159c0,115.182-90.5,205.682-205.683,205.682
		c-12.341,0-28.793,0-41.135-4.114v4.114c0,28.794,4.115,53.477,12.342,82.274c8.226,0,20.567,0,28.793,0
		c160.433,0,287.957-127.524,287.957-287.956c0-28.794-4.115-53.477-12.342-82.274c-8.227,0-20.567,0-28.794,0
		C1352.794,1110.683,1336.341,1110.683,1315.773,1114.794z"/>
	<circle fill="#7C7466" cx="1332.227" cy="1439.774" r="287.957"/>
</g>
<path fill="#D1C6B0" d="M1332.227,1151.817c-160.433,0-287.957,127.523-287.957,287.956s127.524,287.957,287.957,287.957
	c160.432,0,287.956-127.524,287.956-287.957S1492.658,1151.817,1332.227,1151.817z M1332.227,1645.456
	c-115.183,0-205.683-90.5-205.683-205.683s90.5-205.683,205.683-205.683c115.182,0,205.682,90.5,205.682,205.683
	S1447.408,1645.456,1332.227,1645.456z"/>
<path fill="#D1C6B0" d="M1332.227,1723.615L1332.227,1723.615c160.432,4.114,287.956-127.524,287.956-283.842h-4.115
	c-20.567,0-37.023,16.456-41.135,37.023c-8.227,57.592-37.024,111.068-78.159,148.092c-32.908,32.908-78.158,53.477-127.523,61.706
	C1348.683,1686.591,1332.227,1703.044,1332.227,1723.615z"/>
<path fill="#D1C6B0" d="M1332.227,1155.933L1332.227,1155.933c-160.433-4.115-287.957,127.523-287.957,283.841h4.115
	c20.567,0,37.023-16.456,41.135-37.023c8.227-57.591,37.024-111.067,78.159-148.091c32.909-32.909,78.159-53.477,127.523-61.706
	C1315.773,1192.956,1332.227,1176.5,1332.227,1155.933z"/>
<path fill="#7C7466" d="M1155.342,1468.567c0-115.183,90.5-205.683,205.682-205.683c49.365,0,94.615,16.456,131.635,49.365
	c-41.135-49.365-94.614-78.159-160.432-78.159c-115.183,0-205.683,90.5-205.683,205.683c0,65.817,28.794,119.294,74.044,156.317
	C1171.794,1563.183,1155.342,1517.933,1155.342,1468.567z"/>
<path fill="#D1C6B0" d="M1455.635,1567.294c-4.114,0-8.227,0-12.341-4.115c-8.227-8.226-8.227-20.567,0-28.794
	c24.683-24.682,37.023-61.706,37.023-94.614c0-12.342,8.227-20.567,20.567-20.567c12.342,0,20.568,8.226,20.568,20.567
	c0,45.25-16.457,90.5-45.251,123.408C1467.977,1567.294,1459.75,1567.294,1455.635,1567.294z"/>
<path fill="#D1C6B0" d="M1332.227,1563.183c-24.683,0-41.136-16.456-41.136-41.135V1357.5c0-24.683,16.456-41.135,41.136-41.135
	c24.682,0,41.135,16.456,41.135,41.135v164.544C1373.365,1546.727,1356.909,1563.183,1332.227,1563.183z"/>
</svg>
